<svg width="56" height="56" viewBox="0 0 56 56" fill="none" xmlns="http://www.w3.org/2000/svg">
<mask id="mask0_201_2664" style="mask-type:luminance" maskUnits="userSpaceOnUse" x="0" y="0" width="56" height="56">
<path d="M0.861572 0.861732H55.1385V55.1387H0.861572V0.861732Z" fill="white"/>
</mask>
<g mask="url(#mask0_201_2664)">
<path fill-rule="evenodd" clip-rule="evenodd" d="M16.4226 34.3599V44.8332C19.5238 47.4417 23.5238 49.0117 27.8933 49.0117C30.8441 49.0117 33.6242 48.296 36.0726 47.0296L37.2211 49.2502C34.426 50.6958 31.253 51.5117 27.8933 51.5117C23.6386 51.5117 19.6875 50.2038 16.4226 47.9692V48.3311H15.1726H2.45142H1.20142V47.0811V34.3599V33.1099H2.45142H15.1726H16.4226V34.3599ZM3.70142 35.6099V45.8311H13.9226V35.6099H3.70142ZM45.8207 33.2332C42.2695 33.8769 39.5764 36.9847 39.5764 40.7215C39.5764 44.9247 42.9838 48.332 47.187 48.332C51.3902 48.332 54.7976 44.9247 54.7976 40.7215C54.7976 36.9097 51.9953 33.7525 48.3386 33.1974C48.404 32.5333 48.4375 31.8602 48.4375 31.1795C48.4375 23.7621 44.4648 17.2737 38.5369 13.7242L37.2526 15.869C42.4577 18.9858 45.9375 24.6769 45.9375 31.1795C45.9375 31.8745 45.8978 32.5598 45.8207 33.2332ZM7.94912 27.7932C9.24477 20.0711 14.8893 13.8275 22.2794 11.6647L18.989 6.40018L17.7937 4.48768H20.049H35.9505H38.2058L37.0105 6.40018L29.0597 19.1213L27.9997 20.8173L26.9397 19.1213L23.6634 13.8793C16.8519 15.5808 11.5898 21.203 10.4147 28.2068L7.94912 27.7932ZM33.6952 6.98768L27.9997 16.1003L22.3043 6.98768H33.6952ZM42.0764 40.7215C42.0764 43.5439 44.3645 45.832 47.187 45.832C50.0095 45.832 52.2976 43.5439 52.2976 40.7215C52.2976 37.899 50.0095 35.6109 47.187 35.6109C44.3645 35.6109 42.0764 37.899 42.0764 40.7215Z" fill="url(#paint0_linear_201_2664)"/>
</g>
<defs>
<linearGradient id="paint0_linear_201_2664" x1="57.4969" y1="54.5285" x2="43.9573" y2="6.43845" gradientUnits="userSpaceOnUse">
<stop stop-color="#0FA6FC"/>
<stop offset="0.953125" stop-color="#D048FC"/>
</linearGradient>
</defs>
</svg>
