<svg width="20" height="20" viewBox="0 0 20 20" fill="none" xmlns="http://www.w3.org/2000/svg">
<path d="M17.9999 18.0001V12.1401C17.9999 9.26006 17.3799 7.06006 14.0199 7.06006C12.3999 7.06006 11.3199 7.94006 10.8799 8.78006H10.8399V7.32006H7.65991V18.0001H10.9799V12.7001C10.9799 11.3001 11.2399 9.96006 12.9599 9.96006C14.6599 9.96006 14.6799 11.5401 14.6799 12.7801V17.9801H17.9999V18.0001Z" fill="#1589FF"/>
<path d="M2.26001 7.31982H5.58001V17.9998H2.26001V7.31982Z" fill="#1589FF"/>
<path d="M3.92 2C2.86 2 2 2.86 2 3.92C2 4.98 2.86 5.86 3.92 5.86C4.98 5.86 5.84 4.98 5.84 3.92C5.84 2.86 4.98 2 3.92 2Z" fill="#1589FF"/>
</svg>
