<svg width="47" height="47" viewBox="0 0 47 47" fill="none" xmlns="http://www.w3.org/2000/svg">
<circle opacity="0.3" cx="23.5" cy="23.5" r="23.5" fill="url(#paint0_linear_3598_5700)"/>
<circle cx="23.5" cy="23.5" r="19.5" fill="url(#paint1_linear_3598_5700)"/>
<path d="M24.0001 16.0416C20.3603 16.0416 17.3992 19.0027 17.3992 22.6425C17.3992 25.2286 18.4942 26.6006 19.6529 28.0533C20.1713 28.703 20.7053 29.3723 21.1435 30.1725C20.7713 30.3014 20.5028 30.6544 20.5028 31.0697C20.5028 31.3556 20.6303 31.612 20.8313 31.7864C20.6284 31.9894 20.5028 32.2697 20.5028 32.5786C20.5028 33.1059 20.8688 33.5489 21.3601 33.6684C21.4824 34.5863 22.2699 35.2969 23.221 35.2969H24.7787C25.7293 35.2969 26.5168 34.5863 26.6396 33.6684C27.1309 33.5494 27.497 33.1059 27.497 32.5786C27.497 32.2697 27.3713 31.9894 27.1684 31.7864C27.369 31.612 27.497 31.3556 27.497 31.0697C27.497 30.6544 27.2284 30.3009 26.8562 30.1725C27.2945 29.3723 27.8284 28.703 28.3468 28.0533C29.506 26.6006 30.6006 25.2281 30.6006 22.6425C30.601 19.0031 27.6399 16.0416 24.0001 16.0416ZM24.7792 34.7344H23.2215C22.5929 34.7344 22.066 34.2909 21.9367 33.7003H26.064C25.9346 34.2909 25.4078 34.7344 24.7792 34.7344ZM26.3757 33.1378H21.6245C21.3165 33.1378 21.0657 32.887 21.0657 32.5791C21.0657 32.2711 21.3165 32.0203 21.6245 32.0203H26.3753C26.6832 32.0203 26.934 32.2711 26.934 32.5791C26.934 32.887 26.6837 33.1378 26.3757 33.1378ZM26.5468 31.4573V31.4705C26.491 31.462 26.4338 31.4573 26.3753 31.4573H21.6245C21.5663 31.4573 21.5092 31.462 21.4529 31.4705V31.4573C21.2392 31.4573 21.0653 31.2834 21.0653 31.0697C21.0653 30.8559 21.2392 30.682 21.4529 30.682H26.5468C26.7606 30.682 26.9345 30.8559 26.9345 31.0697C26.9345 31.2834 26.7606 31.4573 26.5468 31.4573ZM27.9076 27.7027C27.3282 28.4292 26.7301 29.1792 26.2482 30.12H21.7524C21.2706 29.1792 20.6724 28.4292 20.0931 27.7027C18.9971 26.3292 17.9621 25.0312 17.9621 22.6425C17.9621 19.313 20.671 16.6041 24.0006 16.6041C27.3301 16.6041 30.039 19.313 30.039 22.6425C30.0385 25.0317 29.0035 26.3292 27.9076 27.7027ZM25.5367 20.2055H22.4607C21.9667 20.2055 21.5649 20.6072 21.5649 21.1012V24.1772C21.5649 24.6713 21.9667 25.073 22.4607 25.073H25.5367C26.0307 25.073 26.4324 24.6713 26.4324 24.1772V21.1012C26.4324 20.6077 26.0307 20.2055 25.5367 20.2055ZM25.8699 24.1777C25.8699 24.3614 25.7204 24.5109 25.5367 24.5109H22.4607C22.277 24.5109 22.1274 24.3614 22.1274 24.1777V21.1017C22.1274 20.918 22.277 20.7684 22.4607 20.7684H25.5367C25.7204 20.7684 25.8699 20.918 25.8699 21.1017V24.1777ZM27.5973 20.2744C27.5973 19.5942 27.0442 19.0411 26.364 19.0411H25.8531V17.7052C25.8531 17.55 25.727 17.4239 25.5718 17.4239C25.4167 17.4239 25.2906 17.55 25.2906 17.7052V19.0411H24.2799V17.7052C24.2799 17.55 24.1538 17.4239 23.9987 17.4239C23.8435 17.4239 23.7174 17.55 23.7174 17.7052V19.0411H22.7068V17.7052C22.7068 17.55 22.5807 17.4239 22.4256 17.4239C22.2704 17.4239 22.1443 17.55 22.1443 17.7052V19.0411H21.6338C20.9537 19.0411 20.4006 19.5942 20.4006 20.2744V20.7853H19.0646C18.9095 20.7853 18.7834 20.9114 18.7834 21.0666C18.7834 21.2217 18.9095 21.3478 19.0646 21.3478H20.4006V22.3584H19.0646C18.9095 22.3584 18.7834 22.4845 18.7834 22.6397C18.7834 22.7948 18.9095 22.9209 19.0646 22.9209H20.4006V23.9316H19.0646C18.9095 23.9316 18.7834 24.0577 18.7834 24.2128C18.7834 24.368 18.9095 24.4941 19.0646 24.4941H20.4006V25.0045C20.4006 25.6847 20.9537 26.2378 21.6338 26.2378H22.1448V27.5737C22.1448 27.7289 22.2709 27.855 22.426 27.855C22.5812 27.855 22.7073 27.7289 22.7073 27.5737V26.2378H23.7179V27.5737C23.7179 27.7289 23.844 27.855 23.9992 27.855C24.1543 27.855 24.2804 27.7289 24.2804 27.5737V26.2378H25.2915V27.5737C25.2915 27.7289 25.4176 27.855 25.5728 27.855C25.7279 27.855 25.854 27.7289 25.854 27.5737V26.2378H26.3645C27.0446 26.2378 27.5978 25.6847 27.5978 25.0045V24.4936H28.9337C29.0888 24.4936 29.2149 24.3675 29.2149 24.2123C29.2149 24.0572 29.0888 23.9311 28.9337 23.9311H27.5978V22.9205H28.9337C29.0888 22.9205 29.2149 22.7944 29.2149 22.6392C29.2149 22.4841 29.0888 22.358 28.9337 22.358H27.5978V21.3473H28.9337C29.0888 21.3473 29.2149 21.2213 29.2149 21.0661C29.2149 20.9109 29.0888 20.7848 28.9337 20.7848H27.5978V20.2744H27.5973ZM27.0348 25.0045C27.0348 25.3744 26.7338 25.6753 26.364 25.6753H21.6334C21.2635 25.6753 20.9626 25.3744 20.9626 25.0045V20.2744C20.9626 19.9045 21.2635 19.6036 21.6334 19.6036H26.364C26.7338 19.6036 27.0348 19.9045 27.0348 20.2744V25.0045ZM23.8618 21.63C23.814 21.5348 23.717 21.4744 23.6101 21.4744C23.5032 21.4744 23.4062 21.5344 23.3584 21.63L22.4612 23.4248C22.3918 23.5636 22.4481 23.7328 22.5868 23.8022C22.726 23.8716 22.8948 23.8153 22.9642 23.6766L23.1282 23.3484H24.0915L24.2556 23.6766C24.3048 23.775 24.4042 23.8322 24.5073 23.8322C24.5495 23.8322 24.5926 23.8228 24.6329 23.8027C24.7717 23.7333 24.8284 23.5641 24.7585 23.4253L23.8618 21.63ZM23.4099 22.7855L23.6106 22.3847L23.8112 22.7855H23.4099ZM25.5657 21.7284V23.5233C25.5657 23.6784 25.4396 23.8045 25.2845 23.8045C25.1293 23.8045 25.0032 23.6784 25.0032 23.5233V21.7284C25.0032 21.5733 25.1293 21.4472 25.2845 21.4472C25.4396 21.4472 25.5657 21.5733 25.5657 21.7284ZM23.7188 14.6227V12.9844C23.7188 12.8292 23.8449 12.7031 24.0001 12.7031C24.1553 12.7031 24.2813 12.8292 24.2813 12.9844V14.6227C24.2813 14.7778 24.1553 14.9039 24.0001 14.9039C23.8449 14.9039 23.7188 14.7778 23.7188 14.6227ZM31.0257 15.6145C31.1354 15.7242 31.1354 15.9023 31.0257 16.0125L29.8674 17.1708C29.8126 17.2256 29.7404 17.2533 29.6687 17.2533C29.5965 17.2533 29.5248 17.2256 29.4699 17.1708C29.3603 17.0611 29.3603 16.883 29.4699 16.7728L30.6282 15.6145C30.7379 15.5044 30.916 15.5048 31.0257 15.6145ZM33.9353 22.6406C33.9353 22.7958 33.8092 22.9219 33.654 22.9219H32.0157C31.8606 22.9219 31.7345 22.7958 31.7345 22.6406C31.7345 22.4855 31.8606 22.3594 32.0157 22.3594H33.654C33.8092 22.3594 33.9353 22.4855 33.9353 22.6406ZM18.1328 17.1708L16.9745 16.0125C16.8648 15.9028 16.8648 15.7247 16.9745 15.6145C17.0842 15.5048 17.2623 15.5048 17.3724 15.6145L18.5307 16.7728C18.6404 16.8825 18.6404 17.0606 18.5307 17.1708C18.4759 17.2256 18.4037 17.2533 18.332 17.2533C18.2603 17.2533 18.1876 17.2256 18.1328 17.1708ZM16.2657 22.6406C16.2657 22.7958 16.1396 22.9219 15.9845 22.9219H14.3462C14.191 22.9219 14.0649 22.7958 14.0649 22.6406C14.0649 22.4855 14.191 22.3594 14.3462 22.3594H15.9845C16.1401 22.3594 16.2657 22.4855 16.2657 22.6406Z" fill="white"/>
<defs>
<linearGradient id="paint0_linear_3598_5700" x1="49.3671" y1="-3.01527" x2="34.2746" y2="44.0172" gradientUnits="userSpaceOnUse">
<stop stop-color="#0FA6FC"/>
<stop offset="0.953125" stop-color="#D048FC"/>
</linearGradient>
<linearGradient id="paint1_linear_3598_5700" x1="44.9642" y1="1.49796" x2="32.4406" y2="40.5249" gradientUnits="userSpaceOnUse">
<stop stop-color="#0FA6FC"/>
<stop offset="0.953125" stop-color="#D048FC"/>
</linearGradient>
</defs>
</svg>
