<svg width="47" height="47" viewBox="0 0 47 47" fill="none" xmlns="http://www.w3.org/2000/svg">
<circle opacity="0.3" cx="23.5" cy="23.5" r="23.5" fill="url(#paint0_linear_914_23365)"/>
<circle cx="23.5" cy="23.5" r="19.5" fill="url(#paint1_linear_914_23365)"/>
<g clip-path="url(#clip0_914_23365)">
<path d="M30.9219 14.5938H16.0781C15.6846 14.5942 15.3073 14.7508 15.029 15.029C14.7508 15.3073 14.5942 15.6846 14.5938 16.0781V27.3594C14.5942 27.7529 14.7508 28.1302 15.029 28.4085C15.3073 28.6867 15.6846 28.8433 16.0781 28.8438H20.9935L20.3255 30.625H19.6406C19.4044 30.625 19.1779 30.7188 19.0109 30.8859C18.8438 31.0529 18.75 31.2794 18.75 31.5156V32.1094C18.75 32.1881 18.7813 32.2636 18.837 32.3193C18.8926 32.375 18.9681 32.4063 19.0469 32.4063H27.9531C28.0319 32.4063 28.1074 32.375 28.1631 32.3193C28.2187 32.2636 28.25 32.1881 28.25 32.1094V31.5156C28.25 31.2794 28.1562 31.0529 27.9891 30.8859C27.8221 30.7188 27.5956 30.625 27.3594 30.625H26.6745L26.0065 28.8438H30.9219C31.3154 28.8433 31.6927 28.6867 31.971 28.4085C32.2492 28.1302 32.4058 27.7529 32.4063 27.3594V16.0781C32.4058 15.6846 32.2492 15.3073 31.971 15.029C31.6927 14.7508 31.3154 14.5942 30.9219 14.5938ZM16.0781 15.1875H30.9219C31.1581 15.1875 31.3846 15.2813 31.5516 15.4484C31.7187 15.6154 31.8125 15.8419 31.8125 16.0781V25.2813H15.1875V16.0781C15.1875 15.8419 15.2813 15.6154 15.4484 15.4484C15.6154 15.2813 15.8419 15.1875 16.0781 15.1875ZM27.6563 31.5156V31.8125H19.3438V31.5156C19.3438 31.4369 19.375 31.3614 19.4307 31.3057C19.4864 31.25 19.5619 31.2188 19.6406 31.2188H27.3594C27.4381 31.2188 27.5136 31.25 27.5693 31.3057C27.625 31.3614 27.6563 31.4369 27.6563 31.5156ZM26.0404 30.625H20.9596L21.6276 28.8438H25.3724L26.0404 30.625ZM30.9219 28.25H16.0781C15.8419 28.25 15.6154 28.1562 15.4484 27.9891C15.2813 27.8221 15.1875 27.5956 15.1875 27.3594V25.875H31.8125V27.3594C31.8125 27.5956 31.7187 27.8221 31.5516 27.9891C31.3846 28.1562 31.1581 28.25 30.9219 28.25Z" fill="white"/>
<path d="M23.5 26.1719C23.3239 26.1719 23.1517 26.2241 23.0052 26.322C22.8587 26.4198 22.7446 26.5589 22.6772 26.7217C22.6098 26.8844 22.5921 27.0635 22.6265 27.2363C22.6609 27.409 22.7457 27.5677 22.8702 27.6923C22.9948 27.8168 23.1535 27.9016 23.3262 27.936C23.499 27.9704 23.6781 27.9527 23.8408 27.8853C24.0036 27.8179 24.1427 27.7038 24.2405 27.5573C24.3384 27.4108 24.3906 27.2386 24.3906 27.0625C24.3906 26.8263 24.2968 26.5998 24.1298 26.4327C23.9627 26.2657 23.7362 26.1719 23.5 26.1719ZM23.5 27.3594C23.4413 27.3594 23.3839 27.342 23.3351 27.3093C23.2862 27.2767 23.2482 27.2304 23.2257 27.1761C23.2033 27.1219 23.1974 27.0622 23.2088 27.0046C23.2203 26.947 23.2486 26.8941 23.2901 26.8526C23.3316 26.8111 23.3845 26.7828 23.4421 26.7713C23.4997 26.7599 23.5594 26.7658 23.6136 26.7882C23.6679 26.8107 23.7142 26.8487 23.7468 26.8976C23.7795 26.9464 23.7969 27.0038 23.7969 27.0625C23.7969 27.1412 23.7656 27.2167 23.7099 27.2724C23.6542 27.3281 23.5787 27.3594 23.5 27.3594Z" fill="white"/>
<path d="M25.9124 18.5762L27.4831 17.6324M22.3626 22.37L24.4572 19.8324M19.5446 21.421L20.9837 22.531M22.6477 23.1707C22.6187 23.6693 22.1911 24.05 21.6925 24.0211C21.194 23.9921 20.8133 23.5645 20.8422 23.0659C20.8711 22.5674 21.2988 22.1866 21.7973 22.2156C22.2959 22.2445 22.6766 22.6721 22.6477 23.1707ZM19.7562 20.8626C19.7273 21.3611 19.2997 21.7418 18.8011 21.7129C18.3025 21.684 17.9218 21.2563 17.9508 20.7578C17.9797 20.2592 18.4073 19.8785 18.9059 19.9074C19.4045 19.9364 19.7852 20.364 19.7562 20.8626ZM29.2008 17.195C29.1719 17.6935 28.7442 18.0742 28.2457 18.0453C27.7471 18.0164 27.3664 17.5887 27.3953 17.0902C27.4243 16.5916 27.8519 16.2109 28.3505 16.2398C28.849 16.2688 29.2297 16.6964 29.2008 17.195ZM25.9853 19.127C25.9564 19.6255 25.5287 20.0062 25.0302 19.9773C24.5316 19.9484 24.1509 19.5207 24.1798 19.0222C24.2087 18.5236 24.6364 18.1429 25.1349 18.1718C25.6335 18.2008 26.0142 18.6284 25.9853 19.127Z" stroke="white" stroke-width="0.854703" stroke-miterlimit="10" stroke-linecap="round" stroke-linejoin="round"/>
</g>
<defs>
<linearGradient id="paint0_linear_914_23365" x1="49.3671" y1="-3.01527" x2="34.2746" y2="44.0172" gradientUnits="userSpaceOnUse">
<stop stop-color="#0FA6FC"/>
<stop offset="0.953125" stop-color="#D048FC"/>
</linearGradient>
<linearGradient id="paint1_linear_914_23365" x1="44.9642" y1="1.49796" x2="32.4406" y2="40.5249" gradientUnits="userSpaceOnUse">
<stop stop-color="#0FA6FC"/>
<stop offset="0.953125" stop-color="#D048FC"/>
</linearGradient>
<clipPath id="clip0_914_23365">
<rect width="19" height="19" fill="white" transform="translate(14 14)"/>
</clipPath>
</defs>
</svg>
