<svg width="31" height="31" viewBox="0 0 31 31" fill="none" xmlns="http://www.w3.org/2000/svg">
<g clip-path="url(#clip0_883_9036)">
<path d="M25.9312 2.11157H4.38863C3.8175 2.11226 3.26995 2.33944 2.8661 2.7433C2.46224 3.14715 2.23506 3.6947 2.23438 4.26583V20.6382C2.23506 21.2093 2.46224 21.7569 2.8661 22.1607C3.26995 22.5646 3.8175 22.7918 4.38863 22.7925H11.5222L10.5528 25.3776H9.55885C9.21605 25.3776 8.88728 25.5137 8.64488 25.7561C8.40248 25.9985 8.2663 26.3273 8.2663 26.6701V27.5318C8.2663 27.6461 8.31169 27.7557 8.39249 27.8365C8.47329 27.9173 8.58288 27.9627 8.69715 27.9627H21.6227C21.737 27.9627 21.8466 27.9173 21.9274 27.8365C22.0082 27.7557 22.0536 27.6461 22.0536 27.5318V26.6701C22.0536 26.3273 21.9174 25.9985 21.675 25.7561C21.4326 25.5137 21.1038 25.3776 20.761 25.3776H19.767L18.7976 22.7925H25.9312C26.5024 22.7918 27.0499 22.5646 27.4538 22.1607C27.8576 21.7569 28.0848 21.2093 28.0855 20.6382V4.26583C28.0848 3.6947 27.8576 3.14715 27.4538 2.7433C27.0499 2.33944 26.5024 2.11226 25.9312 2.11157ZM4.38863 2.97328H25.9312C26.274 2.97328 26.6028 3.10946 26.8452 3.35186C27.0876 3.59426 27.2238 3.92302 27.2238 4.26583V17.6222H3.09608V4.26583C3.09608 3.92302 3.23226 3.59426 3.47466 3.35186C3.71706 3.10946 4.04583 2.97328 4.38863 2.97328ZM21.1918 26.6701V27.101H9.128V26.6701C9.128 26.5558 9.17339 26.4463 9.25419 26.3655C9.335 26.2847 9.44458 26.2393 9.55885 26.2393H20.761C20.8753 26.2393 20.9849 26.2847 21.0657 26.3655C21.1465 26.4463 21.1918 26.5558 21.1918 26.6701ZM18.8467 25.3776H11.4731L12.4425 22.7925H17.8773L18.8467 25.3776ZM25.9312 21.9307H4.38863C4.04583 21.9307 3.71706 21.7946 3.47466 21.5522C3.23226 21.3098 3.09608 20.981 3.09608 20.6382V18.4839H27.2238V20.6382C27.2238 20.981 27.0876 21.3098 26.8452 21.5522C26.6028 21.7946 26.274 21.9307 25.9312 21.9307Z" fill="url(#paint0_linear_883_9036)"/>
<path d="M15.1597 18.9148C14.9041 18.9148 14.6542 18.9906 14.4416 19.1326C14.2291 19.2747 14.0634 19.4765 13.9656 19.7127C13.8677 19.9489 13.8422 20.2088 13.892 20.4595C13.9419 20.7102 14.065 20.9406 14.2458 21.1213C14.4265 21.3021 14.6568 21.4252 14.9076 21.4751C15.1583 21.5249 15.4182 21.4993 15.6544 21.4015C15.8906 21.3037 16.0924 21.138 16.2345 20.9255C16.3765 20.7129 16.4523 20.463 16.4523 20.2073C16.4523 19.8645 16.3161 19.5358 16.0737 19.2934C15.8313 19.051 15.5026 18.9148 15.1597 18.9148ZM15.1597 20.6382C15.0745 20.6382 14.9912 20.6129 14.9204 20.5656C14.8495 20.5182 14.7943 20.451 14.7617 20.3722C14.7291 20.2935 14.7205 20.2069 14.7372 20.1233C14.7538 20.0397 14.7948 19.9629 14.8551 19.9027C14.9153 19.8424 14.9921 19.8014 15.0757 19.7848C15.1593 19.7682 15.2459 19.7767 15.3246 19.8093C15.4034 19.8419 15.4706 19.8971 15.518 19.968C15.5653 20.0388 15.5906 20.1221 15.5906 20.2073C15.5906 20.3216 15.5452 20.4312 15.4644 20.512C15.3836 20.5928 15.274 20.6382 15.1597 20.6382Z" fill="url(#paint1_linear_883_9036)"/>
<path d="M18.6604 7.89152L20.9399 6.52181M13.5085 13.3974L16.5485 9.7147M9.4189 12.0202L11.5074 13.6311M13.9223 14.5595C13.8803 15.2831 13.2597 15.8356 12.5362 15.7936C11.8126 15.7516 11.2601 15.131 11.3021 14.4074C11.344 13.6839 11.9647 13.1313 12.6882 13.1733C13.4118 13.2153 13.9643 13.8359 13.9223 14.5595ZM9.72603 11.2097C9.68403 11.9333 9.06343 12.4858 8.33986 12.4438C7.61629 12.4018 7.06377 11.7812 7.10576 11.0576C7.14775 10.3341 7.76836 9.78154 8.49193 9.82353C9.21549 9.86553 9.76802 10.4861 9.72603 11.2097ZM23.4328 5.88695C23.3908 6.61051 22.7702 7.16304 22.0467 7.12105C21.3231 7.07905 20.7706 6.45845 20.8126 5.73488C20.8546 5.01131 21.4752 4.45879 22.1987 4.50078C22.9223 4.54277 23.4748 5.16338 23.4328 5.88695ZM18.7662 8.69084C18.7242 9.41441 18.1036 9.96693 17.38 9.92494C16.6564 9.88295 16.1039 9.26234 16.1459 8.53877C16.1879 7.8152 16.8085 7.26268 17.5321 7.30467C18.2556 7.34666 18.8082 7.96727 18.7662 8.69084Z" stroke="url(#paint2_linear_883_9036)" stroke-width="1.10399" stroke-miterlimit="10" stroke-linecap="round" stroke-linejoin="round"/>
</g>
<defs>
<linearGradient id="paint0_linear_883_9036" x1="29.3875" y1="0.453101" x2="21.0862" y2="26.322" gradientUnits="userSpaceOnUse">
<stop stop-color="#0FA6FC"/>
<stop offset="0.953125" stop-color="#D048FC"/>
</linearGradient>
<linearGradient id="paint1_linear_883_9036" x1="16.5825" y1="18.7489" x2="15.7524" y2="21.3358" gradientUnits="userSpaceOnUse">
<stop stop-color="#0FA6FC"/>
<stop offset="0.953125" stop-color="#D048FC"/>
</linearGradient>
<linearGradient id="paint2_linear_883_9036" x1="24.2576" y1="3.77376" x2="21.6197" y2="15.6574" gradientUnits="userSpaceOnUse">
<stop stop-color="#0FA6FC"/>
<stop offset="0.953125" stop-color="#D048FC"/>
</linearGradient>
<clipPath id="clip0_883_9036">
<rect width="27.5745" height="27.5745" fill="white" transform="translate(1.25 1.25)"/>
</clipPath>
</defs>
</svg>
