<svg width="32" height="32" viewBox="0 0 32 32" fill="none" xmlns="http://www.w3.org/2000/svg">
<g clip-path="url(#clip0_883_9093)">
<mask id="mask0_883_9093" style="mask-type:luminance" maskUnits="userSpaceOnUse" x="3" y="4" width="25" height="25">
<path d="M3 4H28V29H3V4Z" fill="white"/>
</mask>
<g mask="url(#mask0_883_9093)">
<path d="M17.4043 10.9812C16.7926 10.7646 16.1371 10.6406 15.4512 10.6406C12.2151 10.6406 9.5918 13.264 9.5918 16.5C9.5918 19.736 12.2151 22.3594 15.4512 22.3594C16.1371 22.3594 16.7926 22.2354 17.4043 22.0189M24.3379 16.5C24.3379 17.309 24.9938 17.9649 25.8027 17.9649C26.6117 17.9649 27.2676 17.309 27.2676 16.5C27.2676 15.691 26.6117 15.0352 25.8027 15.0352C24.9938 15.0352 24.3379 15.691 24.3379 16.5ZM24.3379 16.5H17.4043M20.9199 26.7539C20.9199 27.5629 21.5758 28.2188 22.3848 28.2188C23.1938 28.2188 23.8496 27.5629 23.8496 26.7539C23.8496 25.945 23.1938 25.2891 22.3848 25.2891C21.5758 25.2891 20.9199 25.945 20.9199 26.7539ZM20.9199 26.7539H17.4043M20.9199 6.24612C20.9199 5.43714 21.5758 4.78128 22.3848 4.78128C23.1938 4.78128 23.8496 5.43714 23.8496 6.24612C23.8496 7.05511 23.1938 7.71097 22.3848 7.71097C21.5758 7.71097 20.9199 7.05511 20.9199 6.24612ZM20.9199 6.24612H17.4043M17.4043 13.0821H22.873L24.6825 11.5742M24.6825 21.4259L22.873 19.918H17.4043M13.498 4.78125V6.43711C12.1187 6.70332 10.8363 7.24136 9.71387 8.00054L8.54585 6.83252L5.78369 9.59463L6.95166 10.7626C6.19248 11.8851 5.65454 13.1675 5.38828 14.5469H3.73242V18.4531H5.38828C5.65454 19.8325 6.19253 21.1149 6.95171 22.2374L5.78369 23.4054L8.54585 26.1674L9.71382 24.9995C10.8362 25.7586 12.1187 26.2967 13.498 26.5629V28.2188H17.4043V4.78125H13.498ZM27.2676 22.3594C27.2676 23.1684 26.6117 23.8243 25.8027 23.8243C24.9938 23.8243 24.3379 23.1684 24.3379 22.3594C24.3379 21.5504 24.9938 20.8946 25.8027 20.8946C26.6117 20.8946 27.2676 21.5504 27.2676 22.3594ZM27.2676 10.6407C27.2676 9.83167 26.6117 9.17581 25.8027 9.17581C24.9938 9.17581 24.3379 9.83167 24.3379 10.6407C24.3379 11.4496 24.9938 12.1055 25.8027 12.1055C26.6117 12.1055 27.2676 11.4496 27.2676 10.6407Z" stroke="url(#paint0_linear_883_9093)" stroke-width="1.26316" stroke-miterlimit="10" stroke-linecap="round" stroke-linejoin="round"/>
</g>
</g>
<defs>
<linearGradient id="paint0_linear_883_9093" x1="28.4529" y1="3.27762" x2="20.9521" y2="26.7495" gradientUnits="userSpaceOnUse">
<stop stop-color="#0FA6FC"/>
<stop offset="0.953125" stop-color="#D048FC"/>
</linearGradient>
<clipPath id="clip0_883_9093">
<rect width="25" height="25" fill="white" transform="translate(3 4)"/>
</clipPath>
</defs>
</svg>
