<svg width="47" height="47" viewBox="0 0 47 47" fill="none" xmlns="http://www.w3.org/2000/svg">
<circle opacity="0.3" cx="23.5" cy="23.5" r="23.5" fill="url(#paint0_linear_914_23369)"/>
<circle cx="23.5" cy="23.5" r="19.5" fill="url(#paint1_linear_914_23369)"/>
<g clip-path="url(#clip0_914_23369)">
<mask id="mask0_914_23369" style="mask-type:luminance" maskUnits="userSpaceOnUse" x="14" y="14" width="19" height="19">
<path d="M14.25 14H33V32.75H14.25V14Z" fill="white"/>
</mask>
<g mask="url(#mask0_914_23369)">
<path d="M25.0527 19.2359C24.5939 19.0735 24.1023 18.9805 23.5879 18.9805C21.1609 18.9805 19.1934 20.948 19.1934 23.375C19.1934 25.802 21.1609 27.7695 23.5879 27.7695C24.1023 27.7695 24.5939 27.6766 25.0527 27.5141M30.2529 23.375C30.2529 23.9818 30.7448 24.4737 31.3516 24.4737C31.9583 24.4737 32.4502 23.9818 32.4502 23.375C32.4502 22.7683 31.9583 22.2764 31.3516 22.2764C30.7448 22.2764 30.2529 22.7683 30.2529 23.375ZM30.2529 23.375H25.0527M27.6895 31.0655C27.6895 31.6722 28.1813 32.1641 28.7881 32.1641C29.3948 32.1641 29.8867 31.6722 29.8867 31.0655C29.8867 30.4587 29.3948 29.9668 28.7881 29.9668C28.1813 29.9668 27.6895 30.4587 27.6895 31.0655ZM27.6895 31.0655H25.0527M27.6895 15.6846C27.6895 15.0779 28.1813 14.586 28.7881 14.586C29.3948 14.586 29.8867 15.0779 29.8867 15.6846C29.8867 16.2913 29.3948 16.7832 28.7881 16.7832C28.1813 16.7832 27.6895 16.2913 27.6895 15.6846ZM27.6895 15.6846H25.0527M25.0527 20.8115H29.1543L30.5114 19.6806M30.5114 27.0694L29.1543 25.9385H25.0527M22.123 14.5859V15.8278C21.0885 16.0275 20.1267 16.431 19.2849 17.0004L18.4089 16.1244L16.3373 18.196L17.2133 19.072C16.6439 19.9138 16.2404 20.8756 16.0407 21.9102H14.7988V24.8398H16.0407C16.2404 25.8744 16.6439 26.8362 17.2133 27.678L16.3373 28.554L18.4089 30.6256L19.2849 29.7496C20.1267 30.319 21.0885 30.7225 22.123 30.9222V32.1641H25.0527V14.5859H22.123ZM32.4502 27.7696C32.4502 28.3763 31.9583 28.8682 31.3516 28.8682C30.7448 28.8682 30.2529 28.3763 30.2529 27.7696C30.2529 27.1628 30.7448 26.6709 31.3516 26.6709C31.9583 26.6709 32.4502 27.1628 32.4502 27.7696ZM32.4502 18.9805C32.4502 18.3738 31.9583 17.8819 31.3516 17.8819C30.7448 17.8819 30.2529 18.3738 30.2529 18.9805C30.2529 19.5872 30.7448 20.0791 31.3516 20.0791C31.9583 20.0791 32.4502 19.5872 32.4502 18.9805Z" stroke="white" stroke-width="0.947368" stroke-miterlimit="10" stroke-linecap="round" stroke-linejoin="round"/>
</g>
</g>
<defs>
<linearGradient id="paint0_linear_914_23369" x1="49.3671" y1="-3.01527" x2="34.2746" y2="44.0172" gradientUnits="userSpaceOnUse">
<stop stop-color="#0FA6FC"/>
<stop offset="0.953125" stop-color="#D048FC"/>
</linearGradient>
<linearGradient id="paint1_linear_914_23369" x1="44.9642" y1="1.49796" x2="32.4406" y2="40.5249" gradientUnits="userSpaceOnUse">
<stop stop-color="#0FA6FC"/>
<stop offset="0.953125" stop-color="#D048FC"/>
</linearGradient>
<clipPath id="clip0_914_23369">
<rect width="18.75" height="18.75" fill="white" transform="translate(14.25 14)"/>
</clipPath>
</defs>
</svg>
