<svg width="32" height="32" viewBox="0 0 32 32" fill="none" xmlns="http://www.w3.org/2000/svg">
<path d="M27.0288 8.21548C26.9983 8.21548 26.9983 8.18501 26.9679 8.15455C26.9374 8.12408 26.9374 8.09361 26.9069 8.06314L21.6664 2.18281C21.6359 2.15234 21.575 2.12187 21.5445 2.0914C21.5141 2.0914 21.5141 2.06094 21.4836 2.06094C21.4227 2.03047 21.3313 2 21.2399 2H8.38234C6.49332 2 4.93945 3.55387 4.93945 5.44289V26.5572C4.93945 28.4463 6.49332 30.0001 8.38234 30.0001H23.6164C25.5054 30.0001 27.0593 28.4463 27.0593 26.5572V8.42876C27.0593 8.36782 27.0288 8.27642 27.0288 8.21548ZM21.8188 4.07183L25.2007 7.88033H21.8188V4.07183ZM25.9015 26.5268C25.9015 27.8064 24.896 28.8424 23.6164 28.8424H8.38234C7.10269 28.8424 6.09724 27.8064 6.09724 26.5572V5.41242C6.09724 4.13276 7.13315 3.12732 8.38234 3.12732H20.661V8.42876C20.661 8.73344 20.9047 9.00765 21.2399 9.00765H25.9015V26.5268Z" fill="url(#paint0_linear_883_9046)"/>
<path d="M9.05155 9.00764H14.1397C14.4444 9.00764 14.7186 8.76389 14.7186 8.42875C14.7186 8.0936 14.4749 7.84985 14.1397 7.84985H9.05155C8.74687 7.84985 8.47266 8.0936 8.47266 8.42875C8.47266 8.76389 8.74687 9.00764 9.05155 9.00764Z" fill="url(#paint1_linear_883_9046)"/>
<path d="M14.1397 17.3924H9.05155C8.74687 17.3924 8.47266 17.6362 8.47266 17.9713C8.47266 18.276 8.7164 18.5502 9.05155 18.5502H14.1397C14.4444 18.5502 14.7186 18.3065 14.7186 17.9713C14.7186 17.6666 14.4444 17.3924 14.1397 17.3924Z" fill="url(#paint2_linear_883_9046)"/>
<path d="M8.47266 12.2676C8.47266 12.5723 8.7164 12.8465 9.05155 12.8465H22.6403C22.945 12.8465 23.2192 12.6027 23.2192 12.2676C23.2192 11.9629 22.9755 11.6887 22.6403 11.6887H9.05155C8.74687 11.6887 8.47266 11.9324 8.47266 12.2676Z" fill="url(#paint3_linear_883_9046)"/>
<path d="M22.6403 14.5527H9.05155C8.74687 14.5527 8.47266 14.7965 8.47266 15.1316C8.47266 15.4363 8.7164 15.7105 9.05155 15.7105H22.6403C22.945 15.7105 23.2192 15.4668 23.2192 15.1316C23.2192 14.7965 22.9755 14.5527 22.6403 14.5527Z" fill="url(#paint4_linear_883_9046)"/>
<path d="M15.8648 19.8943L15.8649 19.8942L19.5192 17.8916L19.5193 17.8915L19.5914 18.0231C19.6468 17.9927 19.7136 17.9923 19.7693 18.022L15.8648 19.8943ZM15.8648 19.8943C15.7568 19.9535 15.6898 20.0668 15.6898 20.1899L15.6898 22.806L15.6898 22.8061C15.6921 25.0161 17.0015 27.0155 19.0264 27.9009L19.0265 27.9009L19.5337 28.122L15.8648 19.8943ZM23.5983 19.8923L19.84 17.8897L19.5937 27.9845C19.6411 28.0052 19.6951 28.0053 19.7426 27.9847L19.8021 28.1224L19.8022 28.1223L20.3723 27.8761C20.3725 27.876 20.3728 27.8759 20.373 27.8758C22.4352 27.0094 23.7767 24.9909 23.7769 22.7541V22.7541V20.1899C23.7769 20.0655 23.7083 19.9509 23.5983 19.8924C23.5983 19.8924 23.5983 19.8923 23.5983 19.8923ZM20.1096 27.2553L20.1095 27.255L20.1031 27.2582L19.669 27.4456L19.2963 27.283C17.5168 26.5049 16.366 24.748 16.364 22.8058L16.364 20.3895L19.6836 18.5702L23.1027 20.3921V22.754C23.1027 22.754 23.1027 22.7541 23.1027 22.7541C23.1022 24.7203 21.9226 26.4944 20.1096 27.2553Z" fill="url(#paint5_linear_883_9046)" stroke="url(#paint6_linear_883_9046)" stroke-width="0.3"/>
<path d="M18.8918 24.1826L18.8918 24.1826L17.9035 23.0252C17.9035 23.0252 17.9035 23.0251 17.9034 23.0251C17.7825 22.8836 17.7992 22.6707 17.9409 22.5499L18.8918 24.1826ZM18.8918 24.1826C19.0106 24.3217 19.2189 24.3408 19.3609 24.2252C19.3609 24.2252 19.3609 24.2252 19.3609 24.2252L21.6628 22.3525L18.8918 24.1826ZM18.4162 22.5873C18.4162 22.5873 18.4162 22.5873 18.4162 22.5873L19.1908 23.4943L21.2373 21.8294C21.2373 21.8294 21.2373 21.8294 21.2373 21.8294C21.3818 21.7118 21.5942 21.7339 21.7116 21.8781L18.4162 22.5873ZM18.4162 22.5873C18.2953 22.4457 18.0826 22.429 17.941 22.5498L18.4162 22.5873Z" fill="url(#paint7_linear_883_9046)" stroke="url(#paint8_linear_883_9046)" stroke-width="0.3"/>
<defs>
<linearGradient id="paint0_linear_883_9046" x1="28.1733" y1="0.203658" x2="17.3977" y2="26.7313" gradientUnits="userSpaceOnUse">
<stop stop-color="#0FA6FC"/>
<stop offset="0.953125" stop-color="#D048FC"/>
</linearGradient>
<linearGradient id="paint1_linear_883_9046" x1="23.9619" y1="7.16338" x2="21.3533" y2="18.3663" gradientUnits="userSpaceOnUse">
<stop stop-color="#0FA6FC"/>
<stop offset="0.953125" stop-color="#D048FC"/>
</linearGradient>
<linearGradient id="paint2_linear_883_9046" x1="23.9619" y1="7.16338" x2="21.3533" y2="18.3663" gradientUnits="userSpaceOnUse">
<stop stop-color="#0FA6FC"/>
<stop offset="0.953125" stop-color="#D048FC"/>
</linearGradient>
<linearGradient id="paint3_linear_883_9046" x1="23.9619" y1="7.16338" x2="21.3533" y2="18.3663" gradientUnits="userSpaceOnUse">
<stop stop-color="#0FA6FC"/>
<stop offset="0.953125" stop-color="#D048FC"/>
</linearGradient>
<linearGradient id="paint4_linear_883_9046" x1="23.9619" y1="7.16338" x2="21.3533" y2="18.3663" gradientUnits="userSpaceOnUse">
<stop stop-color="#0FA6FC"/>
<stop offset="0.953125" stop-color="#D048FC"/>
</linearGradient>
<linearGradient id="paint5_linear_883_9046" x1="24.0191" y1="17.3584" x2="20.1309" y2="26.7936" gradientUnits="userSpaceOnUse">
<stop stop-color="#0FA6FC"/>
<stop offset="0.953125" stop-color="#D048FC"/>
</linearGradient>
<linearGradient id="paint6_linear_883_9046" x1="24.0191" y1="17.3584" x2="20.1309" y2="26.7936" gradientUnits="userSpaceOnUse">
<stop stop-color="#0FA6FC"/>
<stop offset="0.953125" stop-color="#D048FC"/>
</linearGradient>
<linearGradient id="paint7_linear_883_9046" x1="21.8218" y1="21.7597" x2="21.352" y2="24.1473" gradientUnits="userSpaceOnUse">
<stop stop-color="#0FA6FC"/>
<stop offset="0.953125" stop-color="#D048FC"/>
</linearGradient>
<linearGradient id="paint8_linear_883_9046" x1="21.8218" y1="21.7597" x2="21.352" y2="24.1473" gradientUnits="userSpaceOnUse">
<stop stop-color="#0FA6FC"/>
<stop offset="0.953125" stop-color="#D048FC"/>
</linearGradient>
</defs>
</svg>
