<svg width="29" height="28" viewBox="0 0 29 28" fill="none" xmlns="http://www.w3.org/2000/svg">
<path d="M14.6432 5.30636C14.3864 5.30636 14.2153 5.13519 14.2153 4.87843V3.16668C14.2153 2.90992 14.3864 2.73875 14.6432 2.73875C14.9 2.73875 15.0711 2.90992 15.0711 3.16668V4.87843C15.0711 5.13519 14.9 5.30636 14.6432 5.30636Z" fill="url(#paint0_linear_883_9059)"/>
<path d="M14.6433 3.29516C13.8302 3.29516 13.1883 2.65325 13.1883 1.84017C13.1883 1.02709 13.8302 0.38519 14.6433 0.38519C15.4564 0.38519 16.0983 1.02709 16.0983 1.84017C16.0983 2.65325 15.4564 3.29516 14.6433 3.29516ZM14.6433 1.24106C14.3009 1.24106 14.0442 1.49782 14.0442 1.84017C14.0442 2.18252 14.3009 2.43928 14.6433 2.43928C14.9856 2.43928 15.2424 2.18252 15.2424 1.84017C15.2424 1.49782 14.9856 1.24106 14.6433 1.24106Z" fill="url(#paint1_linear_883_9059)"/>
<path d="M20.1638 2.90998C19.3507 2.90998 18.7088 2.26808 18.7088 1.455C18.7088 0.641918 19.3507 1.31502e-05 20.1638 1.31502e-05C20.9769 1.31502e-05 21.6188 0.641918 21.6188 1.455C21.6188 2.26808 20.9769 2.90998 20.1638 2.90998ZM20.1638 0.855886C19.8215 0.855886 19.5647 1.11265 19.5647 1.455C19.5647 1.79735 19.8215 2.05411 20.1638 2.05411C20.5062 2.05411 20.7629 1.79735 20.7629 1.455C20.7629 1.11265 20.5062 0.855886 20.1638 0.855886Z" fill="url(#paint2_linear_883_9059)"/>
<path d="M17.5961 7.66004C17.3393 7.66004 17.1681 7.48887 17.1681 7.23211V5.56315C17.1681 4.62169 17.9384 3.85141 18.8799 3.85141C19.3506 3.85141 19.7358 3.46627 19.7358 2.99554V2.73877C19.7358 2.48201 19.9069 2.31084 20.1637 2.31084C20.4205 2.31084 20.5916 2.48201 20.5916 2.73877V2.99554C20.5916 3.937 19.8213 4.70728 18.8799 4.70728C18.4092 4.70728 18.024 5.09242 18.024 5.56315V7.23211C18.024 7.48887 17.8528 7.66004 17.5961 7.66004Z" fill="url(#paint3_linear_883_9059)"/>
<path d="M9.12278 2.90997C8.3097 2.90997 7.6678 2.26806 7.6678 1.45498C7.6678 0.641905 8.3097 0 9.12278 0C9.93586 0 10.5778 0.641905 10.5778 1.45498C10.5778 2.26806 9.93586 2.90997 9.12278 2.90997ZM9.12278 0.855873C8.78043 0.855873 8.52367 1.11263 8.52367 1.45498C8.52367 1.79733 8.78043 2.05409 9.12278 2.05409C9.46513 2.05409 9.72189 1.79733 9.72189 1.45498C9.72189 1.11263 9.46513 0.855873 9.12278 0.855873Z" fill="url(#paint4_linear_883_9059)"/>
<path d="M11.6907 7.66004C11.434 7.66004 11.2628 7.48887 11.2628 7.23211V5.56315C11.2628 5.09242 10.8777 4.70728 10.4069 4.70728C9.46548 4.70728 8.6952 3.937 8.6952 2.99554V2.73877C8.6952 2.48201 8.86637 2.31084 9.12313 2.31084C9.37989 2.31084 9.55107 2.48201 9.55107 2.73877V2.99554C9.55107 3.46627 9.93621 3.85141 10.4069 3.85141C11.3484 3.85141 12.1187 4.62169 12.1187 5.56315V7.23211C12.1187 7.48887 11.9475 7.66004 11.6907 7.66004Z" fill="url(#paint5_linear_883_9059)"/>
<path d="M14.6432 24.5635C14.3864 24.5635 14.2153 24.3924 14.2153 24.1356V22.4239C14.2153 22.1671 14.3864 21.9959 14.6432 21.9959C14.9 21.9959 15.0711 22.1671 15.0711 22.4239V24.1356C15.0711 24.3924 14.9 24.5635 14.6432 24.5635Z" fill="url(#paint6_linear_883_9059)"/>
<path d="M14.6433 26.9172C13.8302 26.9172 13.1883 26.2753 13.1883 25.4623C13.1883 24.6492 13.8302 24.0073 14.6433 24.0073C15.4564 24.0073 16.0983 24.6492 16.0983 25.4623C16.0983 26.2753 15.4564 26.9172 14.6433 26.9172ZM14.6433 24.8631C14.3009 24.8631 14.0442 25.1199 14.0442 25.4623C14.0442 25.8046 14.3009 26.0614 14.6433 26.0614C14.9856 26.0614 15.2424 25.8046 15.2424 25.4623C15.2424 25.1199 14.9856 24.8631 14.6433 24.8631Z" fill="url(#paint7_linear_883_9059)"/>
<path d="M20.1638 27.3023C19.3507 27.3023 18.7088 26.6604 18.7088 25.8473C18.7088 25.0342 19.3507 24.3923 20.1638 24.3923C20.9769 24.3923 21.6188 25.0342 21.6188 25.8473C21.6188 26.6604 20.9769 27.3023 20.1638 27.3023ZM20.1638 25.2482C19.8215 25.2482 19.5647 25.505 19.5647 25.8473C19.5647 26.1897 19.8215 26.4464 20.1638 26.4464C20.5062 26.4464 20.7629 26.1897 20.7629 25.8473C20.7629 25.505 20.5062 25.2482 20.1638 25.2482Z" fill="url(#paint8_linear_883_9059)"/>
<path d="M20.1637 24.9915C19.9069 24.9915 19.7358 24.8203 19.7358 24.5635V24.3068C19.7358 23.836 19.3506 23.4509 18.8799 23.4509C17.9384 23.4509 17.1681 22.6806 17.1681 21.7391V20.0702C17.1681 19.8134 17.3393 19.6423 17.5961 19.6423C17.8528 19.6423 18.024 19.8134 18.024 20.0702V21.7391C18.024 22.2099 18.4092 22.595 18.8799 22.595C19.8213 22.595 20.5916 23.3653 20.5916 24.3068V24.5635C20.5916 24.8203 20.4205 24.9915 20.1637 24.9915Z" fill="url(#paint9_linear_883_9059)"/>
<path d="M9.12272 27.3023C8.30964 27.3023 7.66774 26.6604 7.66774 25.8473C7.66774 25.0342 8.30964 24.3923 9.12272 24.3923C9.9358 24.3923 10.5777 25.0342 10.5777 25.8473C10.5777 26.6604 9.9358 27.3023 9.12272 27.3023ZM9.12272 25.2482C8.78037 25.2482 8.52361 25.505 8.52361 25.8473C8.52361 26.1897 8.78037 26.4464 9.12272 26.4464C9.46507 26.4464 9.72183 26.1897 9.72183 25.8473C9.72183 25.505 9.46507 25.2482 9.12272 25.2482Z" fill="url(#paint10_linear_883_9059)"/>
<path d="M9.12313 24.9915C8.86637 24.9915 8.6952 24.8203 8.6952 24.5636V24.3068C8.6952 23.3654 9.46548 22.5951 10.4069 22.5951C10.8777 22.5951 11.2628 22.2099 11.2628 21.7392V20.0275C11.2628 19.7707 11.434 19.5995 11.6907 19.5995C11.9475 19.5995 12.1187 19.7707 12.1187 20.0275V21.7392C12.1187 22.6807 11.3484 23.4509 10.4069 23.4509C9.93621 23.4509 9.55107 23.8361 9.55107 24.3068V24.5636C9.55107 24.8203 9.37989 24.9915 9.12313 24.9915Z" fill="url(#paint11_linear_883_9059)"/>
<path d="M5.91328 14.2074H4.15874C3.90198 14.2074 3.7308 14.0363 3.7308 13.7795C3.7308 13.5228 3.90198 13.3516 4.15874 13.3516H5.91328C6.17004 13.3516 6.34121 13.5228 6.34121 13.7795C6.34121 14.0363 6.17004 14.2074 5.91328 14.2074Z" fill="url(#paint12_linear_883_9059)"/>
<path d="M2.83235 15.1917C2.06206 15.1917 1.37736 14.507 1.37736 13.7367C1.37736 12.9237 2.01927 12.2817 2.83235 12.2817C3.60263 12.2817 4.28733 12.9664 4.28733 13.7367C4.28733 14.507 3.60263 15.1917 2.83235 15.1917ZM2.83235 13.1376C2.49 13.1376 2.23324 13.3944 2.23324 13.7367C2.23324 14.0363 2.53279 14.3358 2.83235 14.3358C3.1319 14.3358 3.43146 14.0363 3.43146 13.7367C3.43146 13.4372 3.1319 13.1376 2.83235 13.1376Z" fill="url(#paint13_linear_883_9059)"/>
<path d="M2.44717 9.71413C1.63409 9.71413 0.992188 9.07222 0.992188 8.25914C0.992188 7.44606 1.63409 6.80416 2.44717 6.80416C3.26025 6.80416 3.90215 7.44606 3.90215 8.25914C3.90215 9.07222 3.26025 9.71413 2.44717 9.71413ZM2.44717 7.66003C2.10482 7.66003 1.84806 7.91679 1.84806 8.25914C1.84806 8.60149 2.10482 8.85825 2.44717 8.85825C2.78952 8.85825 3.04628 8.60149 3.04628 8.25914C3.04628 7.91679 2.78952 7.66003 2.44717 7.66003Z" fill="url(#paint14_linear_883_9059)"/>
<path d="M8.22452 11.2548H6.55557C5.61411 11.2548 4.84382 10.4845 4.84382 9.54301C4.84382 9.07228 4.45868 8.68713 3.98795 8.68713H3.73119C3.47442 8.68713 3.30325 8.51596 3.30325 8.2592C3.30325 8.00244 3.47442 7.83126 3.73119 7.83126H3.98795C4.92941 7.83126 5.69969 8.60155 5.69969 9.54301C5.69969 10.0137 6.08484 10.3989 6.55557 10.3989H8.22452C8.48128 10.3989 8.65245 10.5701 8.65245 10.8268C8.65245 11.0836 8.48128 11.2548 8.22452 11.2548Z" fill="url(#paint15_linear_883_9059)"/>
<path d="M2.44717 20.7549C1.63409 20.7549 0.992188 20.113 0.992188 19.2999C0.992188 18.4868 1.63409 17.8449 2.44717 17.8449C3.21746 17.8449 3.90215 18.5296 3.90215 19.2999C3.90215 20.0702 3.21746 20.7549 2.44717 20.7549ZM2.44717 18.7008C2.10482 18.7008 1.84806 18.9575 1.84806 19.2999C1.84806 19.6422 2.10482 19.899 2.44717 19.899C2.74673 19.899 3.04628 19.5995 3.04628 19.2999C3.04628 19.0003 2.74673 18.7008 2.44717 18.7008Z" fill="url(#paint16_linear_883_9059)"/>
<path d="M3.98795 19.7278H3.73119C3.47442 19.7278 3.30325 19.5566 3.30325 19.2999C3.30325 19.0431 3.47442 18.8719 3.73119 18.8719H3.98795C4.45868 18.8719 4.84382 18.4868 4.84382 18.0161C4.84382 17.0746 5.61411 16.3043 6.55557 16.3043H8.3529C8.60966 16.3043 8.78084 16.4755 8.78084 16.7323C8.78084 16.989 8.60966 17.1602 8.3529 17.1602H6.55557C6.08484 17.1602 5.69969 17.5453 5.69969 18.0161C5.69969 18.9575 4.92941 19.7278 3.98795 19.7278Z" fill="url(#paint17_linear_883_9059)"/>
<path d="M25.2134 14.2074H23.4589C23.2021 14.2074 23.031 14.0363 23.031 13.7795C23.031 13.5228 23.2021 13.3516 23.4589 13.3516H25.2134C25.4702 13.3516 25.6414 13.5228 25.6414 13.7795C25.6414 14.0363 25.4702 14.2074 25.2134 14.2074Z" fill="url(#paint18_linear_883_9059)"/>
<path d="M26.5399 15.2346C25.7268 15.2346 25.0849 14.5927 25.0849 13.7796C25.0849 12.9665 25.7268 12.3246 26.5399 12.3246C27.353 12.3246 27.9949 12.9665 27.9949 13.7796C27.9949 14.5927 27.353 15.2346 26.5399 15.2346ZM26.5399 13.1805C26.1976 13.1805 25.9408 13.4372 25.9408 13.7796C25.9408 14.1219 26.1976 14.3787 26.5399 14.3787C26.8823 14.3787 27.139 14.1219 27.139 13.7796C27.139 13.4372 26.8823 13.1805 26.5399 13.1805Z" fill="url(#paint19_linear_883_9059)"/>
<path d="M26.9251 9.71413C26.112 9.71413 25.4701 9.07222 25.4701 8.25915C25.4701 7.44607 26.112 6.80416 26.9251 6.80416C27.7382 6.80416 28.3801 7.44607 28.3801 8.25915C28.3801 9.07222 27.7382 9.71413 26.9251 9.71413ZM26.9251 7.66003C26.5827 7.66003 26.326 7.9168 26.326 8.25915C26.326 8.60149 26.5827 8.85826 26.9251 8.85826C27.2674 8.85826 27.5242 8.60149 27.5242 8.25915C27.5242 7.9168 27.2674 7.66003 26.9251 7.66003Z" fill="url(#paint20_linear_883_9059)"/>
<path d="M22.817 11.2548H21.2764C21.0196 11.2548 20.8484 11.0836 20.8484 10.8268C20.8484 10.5701 21.0196 10.3989 21.2764 10.3989H22.817C23.2877 10.3989 23.6728 10.0137 23.6728 9.54301C23.6728 8.60155 24.4431 7.83126 25.3846 7.83126H25.6413C25.8981 7.83126 26.0693 8.00244 26.0693 8.2592C26.0693 8.51596 25.8981 8.68713 25.6413 8.68713H25.3846C24.9138 8.68713 24.5287 9.07228 24.5287 9.54301C24.5287 10.4845 23.7584 11.2548 22.817 11.2548Z" fill="url(#paint21_linear_883_9059)"/>
<path d="M26.9251 20.7549C26.1548 20.7549 25.4701 20.0702 25.4701 19.2999C25.4701 18.5296 26.1548 17.8449 26.9251 17.8449C27.6954 17.8449 28.3801 18.5296 28.3801 19.2999C28.3801 20.0702 27.6954 20.7549 26.9251 20.7549ZM26.9251 18.7008C26.6255 18.7008 26.326 19.0003 26.326 19.2999C26.326 19.5995 26.6255 19.899 26.9251 19.899C27.2246 19.899 27.5242 19.5995 27.5242 19.2999C27.5242 19.0003 27.2246 18.7008 26.9251 18.7008Z" fill="url(#paint22_linear_883_9059)"/>
<path d="M25.6411 19.7278H25.3843C24.4429 19.7278 23.6726 18.9575 23.6726 18.0161C23.6726 17.5453 23.2875 17.1602 22.8167 17.1602H21.105C20.8482 17.1602 20.677 16.989 20.677 16.7323C20.677 16.4755 20.8482 16.3043 21.105 16.3043H22.8167C23.7582 16.3043 24.5285 17.0746 24.5285 18.0161C24.5285 18.4868 24.9136 18.8719 25.3843 18.8719H25.6411C25.8979 18.8719 26.069 19.0431 26.069 19.2999C26.069 19.5566 25.8979 19.7278 25.6411 19.7278Z" fill="url(#paint23_linear_883_9059)"/>
<path d="M15.9702 22.5095H13.4454C13.1886 22.5095 13.0174 22.3383 13.0174 22.0816V20.8833C12.2043 20.7122 11.4768 20.4126 10.7921 19.9847L9.97907 20.7978C9.89348 20.8833 9.8079 20.9261 9.67951 20.9261C9.55113 20.9261 9.46555 20.8833 9.37996 20.7978L7.58263 19.0004C7.41145 18.8292 7.41145 18.5725 7.58263 18.4013L8.39571 17.5882C7.96777 16.9035 7.66821 16.1332 7.49704 15.363H6.25602C5.99926 15.363 5.82809 15.1918 5.82809 14.935V12.4102C5.82809 12.1534 5.99926 11.9823 6.25602 11.9823H7.45425C7.62542 11.1692 7.92498 10.4417 8.35291 9.75699L7.53983 8.94391C7.45425 8.85833 7.41145 8.77274 7.41145 8.64436C7.41145 8.51598 7.45425 8.43039 7.53983 8.3448L9.33717 6.54747C9.50834 6.3763 9.7651 6.3763 9.93628 6.54747L10.7494 7.36055C11.4341 6.93261 12.2043 6.63306 12.9746 6.46188V5.22087C12.9746 4.96411 13.1458 4.79293 13.4026 4.79293H15.9274C16.1841 4.79293 16.3553 4.96411 16.3553 5.22087V6.41909C17.1684 6.59026 17.8959 6.88982 18.5806 7.31776L19.3937 6.50468C19.5648 6.3335 19.8216 6.3335 19.9928 6.50468L21.7901 8.30201C21.9613 8.47318 21.9613 8.72995 21.7901 8.90112L20.977 9.7142C21.405 10.3989 21.7045 11.1692 21.8757 11.9395H23.0311C23.2879 11.9395 23.4591 12.1106 23.4591 12.3674V14.935C23.4591 15.0634 23.4163 15.149 23.3307 15.2346C23.2451 15.3202 23.1167 15.363 23.0311 15.363L21.9185 15.3202C21.7473 16.1332 21.4478 16.8607 21.0198 17.5454L21.8329 18.3585C22.0041 18.5297 22.0041 18.7865 21.8329 18.9576L20.0356 20.755C19.8644 20.9261 19.6076 20.9261 19.4365 20.755L18.6234 19.9419C17.9387 20.3698 17.1684 20.6694 16.3981 20.8405V22.0816C16.3981 22.3383 16.2269 22.5095 15.9702 22.5095ZM13.8733 21.6536H15.5422V20.4982C15.5422 20.2842 15.6706 20.1131 15.8846 20.0703C16.7833 19.8991 17.6391 19.5567 18.4094 19.0432C18.5806 18.9148 18.7946 18.9576 18.9657 19.086L19.736 19.8563L20.9342 18.6581L20.164 17.8878C20.0356 17.7594 19.9928 17.5026 20.1212 17.3315C20.6347 16.604 20.977 15.7481 21.1482 14.8066C21.191 14.5927 21.3622 14.4643 21.5761 14.4643L22.6032 14.5071V12.7953H21.5334C21.3194 12.7953 21.1482 12.667 21.1054 12.453C20.9342 11.5543 20.5919 10.6985 20.0784 9.92817C19.95 9.75699 19.9928 9.54303 20.1212 9.37185L20.8914 8.60157L19.6932 7.40334L18.9229 8.17363C18.7946 8.30201 18.5378 8.3448 18.3666 8.21642C17.6391 7.7029 16.7833 7.36055 15.8418 7.18937C15.6278 7.14658 15.4994 6.97541 15.4994 6.76144V5.6488H13.8305V6.80423C13.8305 7.0182 13.7021 7.18937 13.4881 7.23217C12.5895 7.40334 11.7336 7.74569 10.9633 8.25922C10.7921 8.3876 10.5782 8.3448 10.407 8.21642L9.63672 7.44614L8.4385 8.64436L9.20879 9.41464C9.33717 9.54303 9.37996 9.79979 9.25158 9.97096C8.73805 10.6985 8.39571 11.5543 8.22453 12.4958C8.18174 12.7098 8.01056 12.8381 7.79659 12.8381H6.68396V14.5071H7.83939C8.05336 14.5071 8.22453 14.6355 8.26732 14.8494C8.4385 15.7481 8.78085 16.604 9.29437 17.3743C9.42275 17.5454 9.37996 17.7594 9.25158 17.9306L8.48129 18.7009L9.67951 19.8991L10.4498 19.1288C10.5782 19.0004 10.8349 18.9576 11.0061 19.086C11.7336 19.5995 12.5895 19.9419 13.5309 20.1131C13.7449 20.1558 13.8733 20.327 13.8733 20.541V21.6536Z" fill="url(#paint24_linear_883_9059)"/>
<path d="M14.686 12.6669C12.3323 12.6669 10.5778 11.6826 10.5778 10.3988C10.5778 9.11499 12.3323 8.13074 14.686 8.13074C17.0396 8.13074 18.7942 9.11499 18.7942 10.3988C18.7942 11.6826 17.0396 12.6669 14.686 12.6669ZM14.686 8.98661C12.7603 8.98661 11.4337 9.7141 11.4337 10.3988C11.4337 11.0835 12.7603 11.811 14.686 11.811C16.6117 11.811 17.9383 11.0835 17.9383 10.3988C17.9383 9.7141 16.6117 8.98661 14.686 8.98661Z" fill="url(#paint25_linear_883_9059)"/>
<path d="M14.6859 14.8064C12.3322 14.8064 10.5777 13.8222 10.5777 12.5384C10.5777 12.2816 10.7489 12.1104 11.0056 12.1104C11.2624 12.1104 11.4336 12.2816 11.4336 12.5384C11.4336 13.223 12.7602 13.9505 14.6859 13.9505C16.6116 13.9505 17.9382 13.223 17.9382 12.5384C17.9382 12.2816 18.1094 12.1104 18.3661 12.1104C18.6229 12.1104 18.7941 12.2816 18.7941 12.5384C18.7941 13.8222 17.0395 14.8064 14.6859 14.8064Z" fill="url(#paint26_linear_883_9059)"/>
<path d="M14.6859 16.9033C12.3322 16.9033 10.5777 15.9191 10.5777 14.6353C10.5777 14.3785 10.7489 14.2073 11.0056 14.2073C11.2624 14.2073 11.4336 14.3785 11.4336 14.6353C11.4336 15.32 12.7602 16.0475 14.6859 16.0475C16.6116 16.0475 17.9382 15.32 17.9382 14.6353C17.9382 14.3785 18.1094 14.2073 18.3661 14.2073C18.6229 14.2073 18.7941 14.3785 18.7941 14.6353C18.7941 15.9191 17.0395 16.9033 14.6859 16.9033Z" fill="url(#paint27_linear_883_9059)"/>
<path d="M14.6859 19.043C12.3322 19.043 10.5777 18.0588 10.5777 16.7749C10.5777 16.5182 10.7489 16.347 11.0056 16.347C11.2624 16.347 11.4336 16.5182 11.4336 16.7749C11.4336 17.4596 12.7602 18.1871 14.6859 18.1871C16.6116 18.1871 17.9382 17.4596 17.9382 16.7749C17.9382 16.5182 18.1094 16.347 18.3661 16.347C18.6229 16.347 18.7941 16.5182 18.7941 16.7749C18.7941 18.0588 17.0395 19.043 14.6859 19.043Z" fill="url(#paint28_linear_883_9059)"/>
<path d="M18.3664 17.2029C18.1096 17.2029 17.9382 17.0317 17.9382 16.7749L17.9383 10.3988C17.9383 10.142 18.1096 9.97075 18.3664 9.97075C18.6231 9.97075 18.7942 10.142 18.7942 10.3988L18.7941 16.7749C18.7941 17.0317 18.6231 17.2029 18.3664 17.2029Z" fill="url(#paint29_linear_883_9059)"/>
<path d="M11.0056 17.2029C10.7489 17.2029 10.5777 17.0317 10.5777 16.7749L10.5778 10.3988C10.5778 10.142 10.7489 9.97075 11.0056 9.97075C11.2624 9.97075 11.4337 10.142 11.4337 10.3988L11.4336 16.7749C11.4336 17.0317 11.2624 17.2029 11.0056 17.2029Z" fill="url(#paint30_linear_883_9059)"/>
<path d="M16.0983 18.872C15.8415 18.872 15.6703 18.7008 15.6703 18.4441V12.1106C15.6703 11.8538 15.8415 11.6827 16.0983 11.6827C16.355 11.6827 16.5262 11.8538 16.5262 12.1106V18.4441C16.5262 18.7008 16.355 18.872 16.0983 18.872Z" fill="url(#paint31_linear_883_9059)"/>
<defs>
<linearGradient id="paint0_linear_883_9059" x1="29.7594" y1="-1.75157" x2="21.0145" y2="25.5855" gradientUnits="userSpaceOnUse">
<stop stop-color="#0FA6FC"/>
<stop offset="0.953125" stop-color="#D048FC"/>
</linearGradient>
<linearGradient id="paint1_linear_883_9059" x1="29.7594" y1="-1.75157" x2="21.0145" y2="25.5855" gradientUnits="userSpaceOnUse">
<stop stop-color="#0FA6FC"/>
<stop offset="0.953125" stop-color="#D048FC"/>
</linearGradient>
<linearGradient id="paint2_linear_883_9059" x1="29.7594" y1="-1.75157" x2="21.0145" y2="25.5855" gradientUnits="userSpaceOnUse">
<stop stop-color="#0FA6FC"/>
<stop offset="0.953125" stop-color="#D048FC"/>
</linearGradient>
<linearGradient id="paint3_linear_883_9059" x1="29.7594" y1="-1.75157" x2="21.0145" y2="25.5855" gradientUnits="userSpaceOnUse">
<stop stop-color="#0FA6FC"/>
<stop offset="0.953125" stop-color="#D048FC"/>
</linearGradient>
<linearGradient id="paint4_linear_883_9059" x1="29.7594" y1="-1.75157" x2="21.0145" y2="25.5855" gradientUnits="userSpaceOnUse">
<stop stop-color="#0FA6FC"/>
<stop offset="0.953125" stop-color="#D048FC"/>
</linearGradient>
<linearGradient id="paint5_linear_883_9059" x1="29.7594" y1="-1.75157" x2="21.0145" y2="25.5855" gradientUnits="userSpaceOnUse">
<stop stop-color="#0FA6FC"/>
<stop offset="0.953125" stop-color="#D048FC"/>
</linearGradient>
<linearGradient id="paint6_linear_883_9059" x1="29.7594" y1="-1.75157" x2="21.0145" y2="25.5855" gradientUnits="userSpaceOnUse">
<stop stop-color="#0FA6FC"/>
<stop offset="0.953125" stop-color="#D048FC"/>
</linearGradient>
<linearGradient id="paint7_linear_883_9059" x1="29.7594" y1="-1.75157" x2="21.0145" y2="25.5855" gradientUnits="userSpaceOnUse">
<stop stop-color="#0FA6FC"/>
<stop offset="0.953125" stop-color="#D048FC"/>
</linearGradient>
<linearGradient id="paint8_linear_883_9059" x1="29.7594" y1="-1.75157" x2="21.0145" y2="25.5855" gradientUnits="userSpaceOnUse">
<stop stop-color="#0FA6FC"/>
<stop offset="0.953125" stop-color="#D048FC"/>
</linearGradient>
<linearGradient id="paint9_linear_883_9059" x1="29.7594" y1="-1.75157" x2="21.0145" y2="25.5855" gradientUnits="userSpaceOnUse">
<stop stop-color="#0FA6FC"/>
<stop offset="0.953125" stop-color="#D048FC"/>
</linearGradient>
<linearGradient id="paint10_linear_883_9059" x1="29.7594" y1="-1.75157" x2="21.0145" y2="25.5855" gradientUnits="userSpaceOnUse">
<stop stop-color="#0FA6FC"/>
<stop offset="0.953125" stop-color="#D048FC"/>
</linearGradient>
<linearGradient id="paint11_linear_883_9059" x1="29.7594" y1="-1.75157" x2="21.0145" y2="25.5855" gradientUnits="userSpaceOnUse">
<stop stop-color="#0FA6FC"/>
<stop offset="0.953125" stop-color="#D048FC"/>
</linearGradient>
<linearGradient id="paint12_linear_883_9059" x1="29.7594" y1="-1.75157" x2="21.0145" y2="25.5855" gradientUnits="userSpaceOnUse">
<stop stop-color="#0FA6FC"/>
<stop offset="0.953125" stop-color="#D048FC"/>
</linearGradient>
<linearGradient id="paint13_linear_883_9059" x1="29.7594" y1="-1.75157" x2="21.0145" y2="25.5855" gradientUnits="userSpaceOnUse">
<stop stop-color="#0FA6FC"/>
<stop offset="0.953125" stop-color="#D048FC"/>
</linearGradient>
<linearGradient id="paint14_linear_883_9059" x1="29.7594" y1="-1.75157" x2="21.0145" y2="25.5855" gradientUnits="userSpaceOnUse">
<stop stop-color="#0FA6FC"/>
<stop offset="0.953125" stop-color="#D048FC"/>
</linearGradient>
<linearGradient id="paint15_linear_883_9059" x1="29.7594" y1="-1.75157" x2="21.0145" y2="25.5855" gradientUnits="userSpaceOnUse">
<stop stop-color="#0FA6FC"/>
<stop offset="0.953125" stop-color="#D048FC"/>
</linearGradient>
<linearGradient id="paint16_linear_883_9059" x1="29.7594" y1="-1.75157" x2="21.0145" y2="25.5855" gradientUnits="userSpaceOnUse">
<stop stop-color="#0FA6FC"/>
<stop offset="0.953125" stop-color="#D048FC"/>
</linearGradient>
<linearGradient id="paint17_linear_883_9059" x1="29.7594" y1="-1.75157" x2="21.0145" y2="25.5855" gradientUnits="userSpaceOnUse">
<stop stop-color="#0FA6FC"/>
<stop offset="0.953125" stop-color="#D048FC"/>
</linearGradient>
<linearGradient id="paint18_linear_883_9059" x1="29.7594" y1="-1.75157" x2="21.0145" y2="25.5855" gradientUnits="userSpaceOnUse">
<stop stop-color="#0FA6FC"/>
<stop offset="0.953125" stop-color="#D048FC"/>
</linearGradient>
<linearGradient id="paint19_linear_883_9059" x1="29.7594" y1="-1.75157" x2="21.0145" y2="25.5855" gradientUnits="userSpaceOnUse">
<stop stop-color="#0FA6FC"/>
<stop offset="0.953125" stop-color="#D048FC"/>
</linearGradient>
<linearGradient id="paint20_linear_883_9059" x1="29.7594" y1="-1.75157" x2="21.0145" y2="25.5855" gradientUnits="userSpaceOnUse">
<stop stop-color="#0FA6FC"/>
<stop offset="0.953125" stop-color="#D048FC"/>
</linearGradient>
<linearGradient id="paint21_linear_883_9059" x1="29.7594" y1="-1.75157" x2="21.0145" y2="25.5855" gradientUnits="userSpaceOnUse">
<stop stop-color="#0FA6FC"/>
<stop offset="0.953125" stop-color="#D048FC"/>
</linearGradient>
<linearGradient id="paint22_linear_883_9059" x1="29.7594" y1="-1.75157" x2="21.0145" y2="25.5855" gradientUnits="userSpaceOnUse">
<stop stop-color="#0FA6FC"/>
<stop offset="0.953125" stop-color="#D048FC"/>
</linearGradient>
<linearGradient id="paint23_linear_883_9059" x1="29.7594" y1="-1.75157" x2="21.0145" y2="25.5855" gradientUnits="userSpaceOnUse">
<stop stop-color="#0FA6FC"/>
<stop offset="0.953125" stop-color="#D048FC"/>
</linearGradient>
<linearGradient id="paint24_linear_883_9059" x1="29.7594" y1="-1.75157" x2="21.0145" y2="25.5855" gradientUnits="userSpaceOnUse">
<stop stop-color="#0FA6FC"/>
<stop offset="0.953125" stop-color="#D048FC"/>
</linearGradient>
<linearGradient id="paint25_linear_883_9059" x1="29.7594" y1="-1.75157" x2="21.0145" y2="25.5855" gradientUnits="userSpaceOnUse">
<stop stop-color="#0FA6FC"/>
<stop offset="0.953125" stop-color="#D048FC"/>
</linearGradient>
<linearGradient id="paint26_linear_883_9059" x1="29.7594" y1="-1.75157" x2="21.0145" y2="25.5855" gradientUnits="userSpaceOnUse">
<stop stop-color="#0FA6FC"/>
<stop offset="0.953125" stop-color="#D048FC"/>
</linearGradient>
<linearGradient id="paint27_linear_883_9059" x1="29.7594" y1="-1.75157" x2="21.0145" y2="25.5855" gradientUnits="userSpaceOnUse">
<stop stop-color="#0FA6FC"/>
<stop offset="0.953125" stop-color="#D048FC"/>
</linearGradient>
<linearGradient id="paint28_linear_883_9059" x1="29.7594" y1="-1.75157" x2="21.0145" y2="25.5855" gradientUnits="userSpaceOnUse">
<stop stop-color="#0FA6FC"/>
<stop offset="0.953125" stop-color="#D048FC"/>
</linearGradient>
<linearGradient id="paint29_linear_883_9059" x1="29.7594" y1="-1.75157" x2="21.0145" y2="25.5855" gradientUnits="userSpaceOnUse">
<stop stop-color="#0FA6FC"/>
<stop offset="0.953125" stop-color="#D048FC"/>
</linearGradient>
<linearGradient id="paint30_linear_883_9059" x1="29.7594" y1="-1.75157" x2="21.0145" y2="25.5855" gradientUnits="userSpaceOnUse">
<stop stop-color="#0FA6FC"/>
<stop offset="0.953125" stop-color="#D048FC"/>
</linearGradient>
<linearGradient id="paint31_linear_883_9059" x1="29.7594" y1="-1.75157" x2="21.0145" y2="25.5855" gradientUnits="userSpaceOnUse">
<stop stop-color="#0FA6FC"/>
<stop offset="0.953125" stop-color="#D048FC"/>
</linearGradient>
</defs>
</svg>
