<svg width="47" height="47" viewBox="0 0 47 47" fill="none" xmlns="http://www.w3.org/2000/svg">
<circle opacity="0.3" cx="23.5" cy="23.5" r="23.5" fill="url(#paint0_linear_914_23367)"/>
<circle cx="23.5" cy="23.5" r="19.5" fill="url(#paint1_linear_914_23367)"/>
<path d="M24.1115 16.6565C23.9127 16.6565 23.7802 16.524 23.7802 16.3252V15C23.7802 14.8012 23.9127 14.6687 24.1115 14.6687C24.3103 14.6687 24.4428 14.8012 24.4428 15V16.3252C24.4428 16.524 24.3103 16.6565 24.1115 16.6565Z" fill="white"/>
<path d="M24.1116 15.0994C23.4821 15.0994 22.9851 14.6025 22.9851 13.973C22.9851 13.3435 23.4821 12.8466 24.1116 12.8466C24.741 12.8466 25.238 13.3435 25.238 13.973C25.238 14.6025 24.741 15.0994 24.1116 15.0994ZM24.1116 13.5092C23.8465 13.5092 23.6477 13.7079 23.6477 13.973C23.6477 14.238 23.8465 14.4368 24.1116 14.4368C24.3766 14.4368 24.5754 14.238 24.5754 13.973C24.5754 13.7079 24.3766 13.5092 24.1116 13.5092Z" fill="white"/>
<path d="M28.3855 14.8012C27.756 14.8012 27.2591 14.3043 27.2591 13.6748C27.2591 13.0453 27.756 12.5484 28.3855 12.5484C29.015 12.5484 29.512 13.0453 29.512 13.6748C29.512 14.3043 29.015 14.8012 28.3855 14.8012ZM28.3855 13.211C28.1205 13.211 27.9217 13.4097 27.9217 13.6748C27.9217 13.9398 28.1205 14.1386 28.3855 14.1386C28.6506 14.1386 28.8494 13.9398 28.8494 13.6748C28.8494 13.4097 28.6506 13.211 28.3855 13.211Z" fill="white"/>
<path d="M26.3976 18.4787C26.1988 18.4787 26.0663 18.3462 26.0663 18.1474V16.8553C26.0663 16.1264 26.6626 15.5301 27.3915 15.5301C27.7559 15.5301 28.0541 15.2319 28.0541 14.8675V14.6687C28.0541 14.4699 28.1866 14.3374 28.3854 14.3374C28.5842 14.3374 28.7167 14.4699 28.7167 14.6687V14.8675C28.7167 15.5963 28.1204 16.1927 27.3915 16.1927C27.0271 16.1927 26.7289 16.4909 26.7289 16.8553V18.1474C26.7289 18.3462 26.5964 18.4787 26.3976 18.4787Z" fill="white"/>
<path d="M19.8376 14.8012C19.2081 14.8012 18.7112 14.3043 18.7112 13.6748C18.7112 13.0453 19.2081 12.5483 19.8376 12.5483C20.4671 12.5483 20.9641 13.0453 20.9641 13.6748C20.9641 14.3043 20.4671 14.8012 19.8376 14.8012ZM19.8376 13.211C19.5726 13.211 19.3738 13.4097 19.3738 13.6748C19.3738 13.9398 19.5726 14.1386 19.8376 14.1386C20.1027 14.1386 20.3014 13.9398 20.3014 13.6748C20.3014 13.4097 20.1027 13.211 19.8376 13.211Z" fill="white"/>
<path d="M21.8257 18.4787C21.6269 18.4787 21.4944 18.3462 21.4944 18.1474V16.8553C21.4944 16.4909 21.1962 16.1927 20.8318 16.1927C20.1029 16.1927 19.5066 15.5963 19.5066 14.8675V14.6687C19.5066 14.4699 19.6391 14.3374 19.8379 14.3374C20.0367 14.3374 20.1692 14.4699 20.1692 14.6687V14.8675C20.1692 15.2319 20.4674 15.5301 20.8318 15.5301C21.5607 15.5301 22.157 16.1264 22.157 16.8553V18.1474C22.157 18.3462 22.0245 18.4787 21.8257 18.4787Z" fill="white"/>
<path d="M24.1115 31.5653C23.9127 31.5653 23.7802 31.4328 23.7802 31.234V29.9087C23.7802 29.71 23.9127 29.5774 24.1115 29.5774C24.3103 29.5774 24.4428 29.71 24.4428 29.9087V31.234C24.4428 31.4328 24.3103 31.5653 24.1115 31.5653Z" fill="white"/>
<path d="M24.1116 33.3875C23.4821 33.3875 22.9851 32.8905 22.9851 32.2611C22.9851 31.6316 23.4821 31.1346 24.1116 31.1346C24.741 31.1346 25.238 31.6316 25.238 32.2611C25.238 32.8905 24.741 33.3875 24.1116 33.3875ZM24.1116 31.7972C23.8465 31.7972 23.6477 31.996 23.6477 32.2611C23.6477 32.5261 23.8465 32.7249 24.1116 32.7249C24.3766 32.7249 24.5754 32.5261 24.5754 32.2611C24.5754 31.996 24.3766 31.7972 24.1116 31.7972Z" fill="white"/>
<path d="M28.3855 33.6856C27.756 33.6856 27.2591 33.1886 27.2591 32.5592C27.2591 31.9297 27.756 31.4327 28.3855 31.4327C29.015 31.4327 29.512 31.9297 29.512 32.5592C29.512 33.1886 29.015 33.6856 28.3855 33.6856ZM28.3855 32.0953C28.1205 32.0953 27.9217 32.2941 27.9217 32.5592C27.9217 32.8242 28.1205 33.023 28.3855 33.023C28.6506 33.023 28.8494 32.8242 28.8494 32.5592C28.8494 32.2941 28.6506 32.0953 28.3855 32.0953Z" fill="white"/>
<path d="M28.3854 31.8966C28.1866 31.8966 28.0541 31.764 28.0541 31.5653V31.3665C28.0541 31.002 27.7559 30.7039 27.3915 30.7039C26.6626 30.7039 26.0663 30.1075 26.0663 29.3786V28.0865C26.0663 27.8878 26.1988 27.7552 26.3976 27.7552C26.5964 27.7552 26.7289 27.8878 26.7289 28.0865V29.3786C26.7289 29.7431 27.0271 30.0413 27.3915 30.0413C28.1204 30.0413 28.7167 30.6376 28.7167 31.3665V31.5653C28.7167 31.764 28.5842 31.8966 28.3854 31.8966Z" fill="white"/>
<path d="M19.8376 33.6856C19.2081 33.6856 18.7111 33.1886 18.7111 32.5592C18.7111 31.9297 19.2081 31.4327 19.8376 31.4327C20.4671 31.4327 20.964 31.9297 20.964 32.5592C20.964 33.1886 20.4671 33.6856 19.8376 33.6856ZM19.8376 32.0953C19.5725 32.0953 19.3737 32.2941 19.3737 32.5592C19.3737 32.8242 19.5725 33.023 19.8376 33.023C20.1026 33.023 20.3014 32.8242 20.3014 32.5592C20.3014 32.2941 20.1026 32.0953 19.8376 32.0953Z" fill="white"/>
<path d="M19.8379 31.8966C19.6391 31.8966 19.5066 31.7641 19.5066 31.5653V31.3665C19.5066 30.6377 20.1029 30.0413 20.8318 30.0413C21.1962 30.0413 21.4944 29.7431 21.4944 29.3787V28.0535C21.4944 27.8547 21.6269 27.7222 21.8257 27.7222C22.0245 27.7222 22.157 27.8547 22.157 28.0535V29.3787C22.157 30.1076 21.5607 30.7039 20.8318 30.7039C20.4674 30.7039 20.1692 31.0021 20.1692 31.3665V31.5653C20.1692 31.7641 20.0367 31.8966 19.8379 31.8966Z" fill="white"/>
<path d="M17.3528 23.5477H15.9945C15.7957 23.5477 15.6632 23.4151 15.6632 23.2164C15.6632 23.0176 15.7957 22.885 15.9945 22.885H17.3528C17.5516 22.885 17.6841 23.0176 17.6841 23.2164C17.6841 23.4151 17.5516 23.5477 17.3528 23.5477Z" fill="white"/>
<path d="M14.9676 24.3097C14.3713 24.3097 13.8412 23.7796 13.8412 23.1832C13.8412 22.5537 14.3381 22.0568 14.9676 22.0568C15.564 22.0568 16.094 22.5869 16.094 23.1832C16.094 23.7796 15.564 24.3097 14.9676 24.3097ZM14.9676 22.7194C14.7026 22.7194 14.5038 22.9182 14.5038 23.1832C14.5038 23.4151 14.7357 23.6471 14.9676 23.6471C15.1995 23.6471 15.4314 23.4151 15.4314 23.1832C15.4314 22.9513 15.1995 22.7194 14.9676 22.7194Z" fill="white"/>
<path d="M14.6694 20.069C14.0399 20.069 13.543 19.572 13.543 18.9425C13.543 18.313 14.0399 17.8161 14.6694 17.8161C15.2989 17.8161 15.7958 18.313 15.7958 18.9425C15.7958 19.572 15.2989 20.069 14.6694 20.069ZM14.6694 18.4787C14.4044 18.4787 14.2056 18.6775 14.2056 18.9425C14.2056 19.2076 14.4044 19.4063 14.6694 19.4063C14.9345 19.4063 15.1332 19.2076 15.1332 18.9425C15.1332 18.6775 14.9345 18.4787 14.6694 18.4787Z" fill="white"/>
<path d="M19.1422 21.2617H17.8501C17.1212 21.2617 16.5249 20.6653 16.5249 19.9365C16.5249 19.572 16.2267 19.2739 15.8623 19.2739H15.6635C15.4647 19.2739 15.3322 19.1413 15.3322 18.9426C15.3322 18.7438 15.4647 18.6113 15.6635 18.6113H15.8623C16.5911 18.6113 17.1875 19.2076 17.1875 19.9365C17.1875 20.3009 17.4857 20.5991 17.8501 20.5991H19.1422C19.341 20.5991 19.4735 20.7316 19.4735 20.9304C19.4735 21.1292 19.341 21.2617 19.1422 21.2617Z" fill="white"/>
<path d="M14.6694 28.6166C14.0399 28.6166 13.543 28.1197 13.543 27.4902C13.543 26.8607 14.0399 26.3638 14.6694 26.3638C15.2658 26.3638 15.7958 26.8938 15.7958 27.4902C15.7958 28.0865 15.2658 28.6166 14.6694 28.6166ZM14.6694 27.0264C14.4044 27.0264 14.2056 27.2252 14.2056 27.4902C14.2056 27.7552 14.4044 27.954 14.6694 27.954C14.9013 27.954 15.1332 27.7221 15.1332 27.4902C15.1332 27.2583 14.9013 27.0264 14.6694 27.0264Z" fill="white"/>
<path d="M15.8623 27.8215H15.6635C15.4647 27.8215 15.3322 27.689 15.3322 27.4902C15.3322 27.2914 15.4647 27.1589 15.6635 27.1589H15.8623C16.2267 27.1589 16.5249 26.8607 16.5249 26.4963C16.5249 25.7674 17.1212 25.171 17.8501 25.171H19.2416C19.4404 25.171 19.5729 25.3036 19.5729 25.5023C19.5729 25.7011 19.4404 25.8337 19.2416 25.8337H17.8501C17.4857 25.8337 17.1875 26.1318 17.1875 26.4963C17.1875 27.2251 16.5911 27.8215 15.8623 27.8215Z" fill="white"/>
<path d="M32.2949 23.5477H30.9365C30.7378 23.5477 30.6052 23.4151 30.6052 23.2164C30.6052 23.0176 30.7378 22.885 30.9365 22.885H32.2949C32.4937 22.885 32.6262 23.0176 32.6262 23.2164C32.6262 23.4151 32.4937 23.5477 32.2949 23.5477Z" fill="white"/>
<path d="M33.3218 24.3428C32.6924 24.3428 32.1954 23.8459 32.1954 23.2164C32.1954 22.5869 32.6924 22.09 33.3218 22.09C33.9513 22.09 34.4483 22.5869 34.4483 23.2164C34.4483 23.8459 33.9513 24.3428 33.3218 24.3428ZM33.3218 22.7526C33.0568 22.7526 32.858 22.9514 32.858 23.2164C32.858 23.4814 33.0568 23.6802 33.3218 23.6802C33.5869 23.6802 33.7857 23.4814 33.7857 23.2164C33.7857 22.9514 33.5869 22.7526 33.3218 22.7526Z" fill="white"/>
<path d="M33.62 20.069C32.9906 20.069 32.4936 19.572 32.4936 18.9425C32.4936 18.313 32.9906 17.8161 33.62 17.8161C34.2495 17.8161 34.7465 18.313 34.7465 18.9425C34.7465 19.572 34.2495 20.069 33.62 20.069ZM33.62 18.4787C33.355 18.4787 33.1562 18.6775 33.1562 18.9425C33.1562 19.2076 33.355 19.4063 33.62 19.4063C33.8851 19.4063 34.0839 19.2076 34.0839 18.9425C34.0839 18.6775 33.8851 18.4787 33.62 18.4787Z" fill="white"/>
<path d="M30.4396 21.2617H29.2469C29.0481 21.2617 28.9156 21.1292 28.9156 20.9304C28.9156 20.7316 29.0481 20.5991 29.2469 20.5991H30.4396C30.804 20.5991 31.1022 20.3009 31.1022 19.9365C31.1022 19.2076 31.6985 18.6113 32.4274 18.6113H32.6262C32.825 18.6113 32.9575 18.7438 32.9575 18.9426C32.9575 19.1413 32.825 19.2739 32.6262 19.2739H32.4274C32.063 19.2739 31.7648 19.572 31.7648 19.9365C31.7648 20.6653 31.1684 21.2617 30.4396 21.2617Z" fill="white"/>
<path d="M33.62 28.6166C33.0237 28.6166 32.4936 28.0865 32.4936 27.4902C32.4936 26.8938 33.0237 26.3638 33.62 26.3638C34.2164 26.3638 34.7465 26.8938 34.7465 27.4902C34.7465 28.0865 34.2164 28.6166 33.62 28.6166ZM33.62 27.0264C33.3881 27.0264 33.1562 27.2583 33.1562 27.4902C33.1562 27.7221 33.3881 27.954 33.62 27.954C33.852 27.954 34.0839 27.7221 34.0839 27.4902C34.0839 27.2583 33.852 27.0264 33.62 27.0264Z" fill="white"/>
<path d="M32.626 27.8215H32.4272C31.6983 27.8215 31.102 27.2251 31.102 26.4963C31.102 26.1318 30.8038 25.8337 30.4394 25.8337H29.1142C28.9154 25.8337 28.7829 25.7011 28.7829 25.5023C28.7829 25.3036 28.9154 25.171 29.1142 25.171H30.4394C31.1683 25.171 31.7646 25.7674 31.7646 26.4963C31.7646 26.8607 32.0628 27.1589 32.4272 27.1589H32.626C32.8248 27.1589 32.9573 27.2914 32.9573 27.4902C32.9573 27.689 32.8248 27.8215 32.626 27.8215Z" fill="white"/>
<path d="M25.1388 29.975H23.1841C22.9853 29.975 22.8528 29.8425 22.8528 29.6437V28.7161C22.2233 28.5836 21.6601 28.3517 21.13 28.0203L20.5006 28.6498C20.4343 28.7161 20.368 28.7492 20.2686 28.7492C20.1692 28.7492 20.103 28.7161 20.0367 28.6498L18.6452 27.2583C18.5127 27.1258 18.5127 26.927 18.6452 26.7945L19.2747 26.165C18.9434 25.6349 18.7115 25.0386 18.579 24.4422H17.6182C17.4194 24.4422 17.2869 24.3097 17.2869 24.1109V22.1562C17.2869 21.9575 17.4194 21.8249 17.6182 21.8249H18.5459C18.6784 21.1954 18.9103 20.6322 19.2416 20.1021L18.6121 19.4727C18.5459 19.4064 18.5127 19.3401 18.5127 19.2407C18.5127 19.1414 18.5459 19.0751 18.6121 19.0088L20.0036 17.6173C20.1361 17.4848 20.3349 17.4848 20.4674 17.6173L21.0969 18.2468C21.627 17.9155 22.2233 17.6836 22.8197 17.5511V16.5903C22.8197 16.3915 22.9522 16.259 23.151 16.259H25.1057C25.3045 16.259 25.437 16.3915 25.437 16.5903V17.518C26.0665 17.6505 26.6297 17.8824 27.1598 18.2137L27.7893 17.5842C27.9218 17.4517 28.1206 17.4517 28.2531 17.5842L29.6446 18.9757C29.7771 19.1082 29.7771 19.307 29.6446 19.4395L29.0151 20.069C29.3464 20.5991 29.5783 21.1954 29.7108 21.7918H30.6054C30.8042 21.7918 30.9367 21.9243 30.9367 22.1231V24.1109C30.9367 24.2103 30.9035 24.2766 30.8373 24.3429C30.771 24.4091 30.6716 24.4422 30.6054 24.4422L29.744 24.4091C29.6115 25.0386 29.3795 25.6018 29.0482 26.1319L29.6777 26.7614C29.8102 26.8939 29.8102 27.0927 29.6777 27.2252L28.2862 28.6167C28.1537 28.7492 27.9549 28.7492 27.8224 28.6167L27.1929 27.9872C26.6628 28.3185 26.0665 28.5504 25.4701 28.683V29.6437C25.4701 29.8425 25.3376 29.975 25.1388 29.975ZM23.5154 29.3124H24.8075V28.4179C24.8075 28.2523 24.9069 28.1197 25.0726 28.0866C25.7683 27.9541 26.4309 27.689 27.0273 27.2915C27.1598 27.1921 27.3254 27.2252 27.458 27.3246L28.0543 27.921L28.982 26.9933L28.3856 26.3969C28.2862 26.2976 28.2531 26.0988 28.3525 25.9663C28.7501 25.403 29.0151 24.7404 29.1476 24.0115C29.1808 23.8459 29.3133 23.7465 29.4789 23.7465L30.2741 23.7796V22.4544H29.4458C29.2802 22.4544 29.1476 22.355 29.1145 22.1894C28.982 21.4936 28.7169 20.831 28.3194 20.2347C28.22 20.1021 28.2531 19.9365 28.3525 19.804L28.9488 19.2076L28.0212 18.28L27.4248 18.8763C27.3254 18.9757 27.1267 19.0088 26.9941 18.9094C26.4309 18.5119 25.7683 18.2468 25.0394 18.1143C24.8738 18.0812 24.7744 17.9487 24.7744 17.783V16.9216H23.4823V17.8161C23.4823 17.9818 23.3829 18.1143 23.2173 18.1474C22.5215 18.28 21.8589 18.545 21.2626 18.9426C21.13 19.042 20.9644 19.0088 20.8319 18.9094L20.2355 18.3131L19.3079 19.2407L19.9042 19.8371C20.0036 19.9365 20.0367 20.1353 19.9373 20.2678C19.5398 20.831 19.2747 21.4936 19.1422 22.2225C19.1091 22.3882 18.9765 22.4875 18.8109 22.4875H17.9495V23.7796H18.844C19.0097 23.7796 19.1422 23.879 19.1753 24.0447C19.3079 24.7404 19.5729 25.403 19.9705 25.9994C20.0699 26.1319 20.0367 26.2976 19.9373 26.4301L19.341 27.0264L20.2686 27.9541L20.865 27.3577C20.9644 27.2583 21.1632 27.2252 21.2957 27.3246C21.8589 27.7222 22.5215 27.9872 23.2504 28.1197C23.416 28.1529 23.5154 28.2854 23.5154 28.451V29.3124Z" fill="white"/>
<path d="M24.1446 22.3549C22.3224 22.3549 20.9641 21.5929 20.9641 20.599C20.9641 19.6051 22.3224 18.8431 24.1446 18.8431C25.9668 18.8431 27.3252 19.6051 27.3252 20.599C27.3252 21.5929 25.9668 22.3549 24.1446 22.3549ZM24.1446 19.5057C22.6538 19.5057 21.6267 20.0689 21.6267 20.599C21.6267 21.1291 22.6538 21.6923 24.1446 21.6923C25.6355 21.6923 26.6626 21.1291 26.6626 20.599C26.6626 20.0689 25.6355 19.5057 24.1446 19.5057Z" fill="white"/>
<path d="M24.1445 24.0114C22.3224 24.0114 20.964 23.2494 20.964 22.2555C20.964 22.0567 21.0965 21.9241 21.2953 21.9241C21.4941 21.9241 21.6266 22.0567 21.6266 22.2555C21.6266 22.7855 22.6537 23.3488 24.1445 23.3488C25.6354 23.3488 26.6625 22.7855 26.6625 22.2555C26.6625 22.0567 26.795 21.9241 26.9938 21.9241C27.1926 21.9241 27.3251 22.0567 27.3251 22.2555C27.3251 23.2494 25.9667 24.0114 24.1445 24.0114Z" fill="white"/>
<path d="M24.1445 25.6348C22.3224 25.6348 20.964 24.8728 20.964 23.8789C20.964 23.6801 21.0965 23.5476 21.2953 23.5476C21.4941 23.5476 21.6266 23.6801 21.6266 23.8789C21.6266 24.409 22.6537 24.9722 24.1445 24.9722C25.6354 24.9722 26.6625 24.409 26.6625 23.8789C26.6625 23.6801 26.795 23.5476 26.9938 23.5476C27.1926 23.5476 27.3251 23.6801 27.3251 23.8789C27.3251 24.8728 25.9667 25.6348 24.1445 25.6348Z" fill="white"/>
<path d="M24.1445 27.2913C22.3224 27.2913 20.964 26.5293 20.964 25.5354C20.964 25.3366 21.0965 25.2041 21.2953 25.2041C21.4941 25.2041 21.6266 25.3366 21.6266 25.5354C21.6266 26.0655 22.6537 26.6287 24.1445 26.6287C25.6354 26.6287 26.6625 26.0655 26.6625 25.5354C26.6625 25.3366 26.795 25.2041 26.9938 25.2041C27.1926 25.2041 27.3251 25.3366 27.3251 25.5354C27.3251 26.5293 25.9667 27.2913 24.1445 27.2913Z" fill="white"/>
<path d="M26.994 25.8667C26.7952 25.8667 26.6625 25.7342 26.6625 25.5354L26.6626 20.599C26.6626 20.4002 26.7952 20.2676 26.994 20.2676C27.1927 20.2676 27.3252 20.4002 27.3252 20.599L27.3251 25.5354C27.3251 25.7342 27.1927 25.8667 26.994 25.8667Z" fill="white"/>
<path d="M21.2953 25.8667C21.0965 25.8667 20.964 25.7342 20.964 25.5354L20.9641 20.599C20.9641 20.4002 21.0965 20.2676 21.2953 20.2676C21.4941 20.2676 21.6267 20.4002 21.6267 20.599L21.6266 25.5354C21.6266 25.7342 21.4941 25.8667 21.2953 25.8667Z" fill="white"/>
<path d="M25.238 27.1589C25.0392 27.1589 24.9067 27.0264 24.9067 26.8276V21.9243C24.9067 21.7255 25.0392 21.593 25.238 21.593C25.4368 21.593 25.5693 21.7255 25.5693 21.9243V26.8276C25.5693 27.0264 25.4368 27.1589 25.238 27.1589Z" fill="white"/>
<defs>
<linearGradient id="paint0_linear_914_23367" x1="49.3671" y1="-3.01527" x2="34.2746" y2="44.0172" gradientUnits="userSpaceOnUse">
<stop stop-color="#0FA6FC"/>
<stop offset="0.953125" stop-color="#D048FC"/>
</linearGradient>
<linearGradient id="paint1_linear_914_23367" x1="44.9642" y1="1.49796" x2="32.4406" y2="40.5249" gradientUnits="userSpaceOnUse">
<stop stop-color="#0FA6FC"/>
<stop offset="0.953125" stop-color="#D048FC"/>
</linearGradient>
</defs>
</svg>
