<svg width="47" height="47" viewBox="0 0 47 47" fill="none" xmlns="http://www.w3.org/2000/svg">
<circle opacity="0.3" cx="23.5" cy="23.5" r="23.5" fill="url(#paint0_linear_914_23366)"/>
<circle cx="23.5" cy="23.5" r="19.5" fill="url(#paint1_linear_914_23366)"/>
<path d="M32.2721 17.1616C32.2492 17.1616 32.2492 17.1388 32.2264 17.1159C32.2035 17.0931 32.2035 17.0702 32.1807 17.0474L28.2503 12.6371C28.2274 12.6143 28.1817 12.5914 28.1589 12.5686C28.136 12.5686 28.136 12.5457 28.1132 12.5457C28.0675 12.5229 27.9989 12.5 27.9304 12.5H18.2872C16.8705 12.5 15.7051 13.6654 15.7051 15.0822V30.9179C15.7051 32.3347 16.8705 33.5001 18.2872 33.5001H29.7128C31.1295 33.5001 32.2949 32.3347 32.2949 30.9179V17.3216C32.2949 17.2759 32.2721 17.2073 32.2721 17.1616ZM28.3646 14.0539L30.901 16.9103H28.3646V14.0539ZM31.4266 30.8951C31.4266 31.8548 30.6725 32.6318 29.7128 32.6318H18.2872C17.3275 32.6318 16.5734 31.8548 16.5734 30.9179V15.0593C16.5734 14.0996 17.3504 13.3455 18.2872 13.3455H27.4962V17.3216C27.4962 17.5501 27.679 17.7557 27.9304 17.7557H31.4266V30.8951Z" fill="white"/>
<path d="M18.7896 17.7555H22.6058C22.8343 17.7555 23.0399 17.5727 23.0399 17.3214C23.0399 17.07 22.8571 16.8872 22.6058 16.8872H18.7896C18.5611 16.8872 18.3555 17.07 18.3555 17.3214C18.3555 17.5727 18.5611 17.7555 18.7896 17.7555Z" fill="white"/>
<path d="M22.6058 24.0441H18.7896C18.5611 24.0441 18.3555 24.2269 18.3555 24.4783C18.3555 24.7068 18.5383 24.9125 18.7896 24.9125H22.6058C22.8343 24.9125 23.0399 24.7297 23.0399 24.4783C23.0399 24.2498 22.8343 24.0441 22.6058 24.0441Z" fill="white"/>
<path d="M18.3555 20.2005C18.3555 20.429 18.5383 20.6347 18.7896 20.6347H28.9812C29.2097 20.6347 29.4154 20.4519 29.4154 20.2005C29.4154 19.972 29.2326 19.7663 28.9812 19.7663H18.7896C18.5611 19.7663 18.3555 19.9491 18.3555 20.2005Z" fill="white"/>
<path d="M28.9812 21.9144H18.7896C18.5611 21.9144 18.3555 22.0972 18.3555 22.3485C18.3555 22.5771 18.5383 22.7827 18.7896 22.7827H28.9812C29.2097 22.7827 29.4154 22.5999 29.4154 22.3485C29.4154 22.0972 29.2326 21.9144 28.9812 21.9144Z" fill="white"/>
<path d="M23.8815 25.8878L23.8816 25.8878L26.6223 24.3858L26.6224 24.3858L26.6945 24.5173C26.736 24.4945 26.7862 24.4942 26.828 24.5165L23.8815 25.8878ZM23.8815 25.8878C23.7885 25.9389 23.7309 26.0365 23.7309 26.1424L23.7309 28.1045L23.7309 28.1046C23.7326 29.777 24.7234 31.29 26.2557 31.96L26.2559 31.9601L26.6363 32.1259M23.8815 25.8878L26.6363 32.1259M29.7173 25.8862C29.7173 25.8862 29.7173 25.8862 29.7174 25.8862C29.8121 25.9366 29.8711 26.0353 29.8711 26.1424V28.0656V28.0656C29.871 29.7582 28.8558 31.2857 27.2954 31.9414L26.8675 32.1262L29.7173 25.8862ZM29.7173 25.8862L26.8986 24.3842C26.8986 24.3842 26.8986 24.3842 26.8986 24.3842L29.7173 25.8862ZM26.6363 32.1259C26.6363 32.1259 26.6363 32.1259 26.6363 32.1259M26.6363 32.1259L26.6363 32.1259M27.0686 31.4066L27.0687 31.4069C28.4145 30.8421 29.2902 29.5251 29.2905 28.0656C29.2905 28.0655 29.2905 28.0655 29.2905 28.0655V26.3166L26.7639 24.9703L24.3115 26.3144L24.3115 28.1043C24.313 29.546 25.1672 30.8502 26.4881 31.4278L27.0686 31.4066ZM27.0686 31.4066L27.0625 31.4096L26.7528 31.5433L26.4882 31.4279L27.0686 31.4066ZM26.6363 32.1259C26.7099 32.1579 26.7936 32.1581 26.8674 32.1262L26.6363 32.1259Z" fill="white" stroke="white" stroke-width="0.3"/>
<path d="M26.3988 28.5684L27.9053 27.3429C27.9053 27.3429 27.9053 27.3429 27.9053 27.3429C28.0298 27.2416 28.2127 27.2606 28.3138 27.3848M26.3988 28.5684L26.4506 29.0815L26.5453 29.1979L26.5454 29.1978L28.2717 27.7933L28.1771 27.6769L28.2718 27.7933C28.3962 27.6921 28.4149 27.5092 28.3138 27.3848M26.3988 28.5684L25.8417 27.916C25.8417 27.916 25.8417 27.916 25.8417 27.916C25.7375 27.7941 25.5543 27.7796 25.4324 27.8837L26.3988 28.5684ZM28.3138 27.3848L28.1974 27.4795L28.3137 27.3848C28.3137 27.3848 28.3137 27.3848 28.3138 27.3848ZM26.1413 29.1612L26.1413 29.1612L25.4323 27.8838C25.3103 27.9879 25.2959 28.1712 25.4 28.2931C25.4001 28.2931 25.4001 28.2931 25.4001 28.2931L26.1413 29.1612Z" fill="white" stroke="white" stroke-width="0.3"/>
<defs>
<linearGradient id="paint0_linear_914_23366" x1="49.3671" y1="-3.01527" x2="34.2746" y2="44.0172" gradientUnits="userSpaceOnUse">
<stop stop-color="#0FA6FC"/>
<stop offset="0.953125" stop-color="#D048FC"/>
</linearGradient>
<linearGradient id="paint1_linear_914_23366" x1="44.9642" y1="1.49796" x2="32.4406" y2="40.5249" gradientUnits="userSpaceOnUse">
<stop stop-color="#0FA6FC"/>
<stop offset="0.953125" stop-color="#D048FC"/>
</linearGradient>
</defs>
</svg>
