<svg width="31" height="31" viewBox="0 0 31 31" fill="none" xmlns="http://www.w3.org/2000/svg">
<mask id="mask0_883_9063" style="mask-type:luminance" maskUnits="userSpaceOnUse" x="5" y="8" width="21" height="22">
<path d="M25.4683 29.0536V8.6049H5.01968V29.0536H25.4683Z" fill="white" stroke="white" stroke-width="0.0393502"/>
</mask>
<g mask="url(#mask0_883_9063)">
<path d="M7.3822 20.47C7.3822 20.2599 7.21174 20.0895 7.00172 20.0895C6.7917 20.0895 6.62124 20.2599 6.62124 20.47C6.62124 20.68 6.7917 20.8504 7.00172 20.8504C7.21174 20.8504 7.3822 20.68 7.3822 20.47Z" fill="url(#paint0_linear_883_9063)" stroke="url(#paint1_linear_883_9063)" stroke-width="0.0393502"/>
<path d="M8.60164 25.2744C8.60044 25.7154 8.2427 26.0723 7.80133 26.0723H5.40039V18.8694H7.80133C8.2435 18.8694 8.60164 19.2276 8.60164 19.6698V25.2744Z" stroke="url(#paint2_linear_883_9063)" stroke-width="0.787005" stroke-miterlimit="10" stroke-linecap="round" stroke-linejoin="round"/>
<path d="M18.6079 23.5252L23.525 21.835C24.0496 21.6457 24.6711 21.8246 24.936 22.3148C25.2957 22.9803 24.9808 23.7141 24.3697 23.9586L16.8928 27.2507C16.2814 27.5288 15.6175 27.6729 14.946 27.6729C14.0937 27.6729 13.2574 27.4412 12.5267 27.0026L10.4339 25.7469C9.95089 25.4572 9.16298 25.2948 8.60156 25.2743" stroke="url(#paint3_linear_883_9063)" stroke-width="0.787005" stroke-miterlimit="10" stroke-linecap="round" stroke-linejoin="round"/>
<path d="M8.60156 19.6698H11.7696C12.1822 19.6698 12.5875 19.7759 12.9469 19.9783L15.0613 21.1676C15.1813 21.2352 15.3162 21.2704 15.4538 21.2704H18.0453C18.7083 21.2704 19.2457 21.8079 19.2457 22.4709C19.2457 22.9191 19.0004 23.3096 18.6363 23.5157C18.4618 23.615 18.2601 23.6714 18.0453 23.6714H13.9773" stroke="url(#paint4_linear_883_9063)" stroke-width="0.787005" stroke-miterlimit="10" stroke-linecap="round" stroke-linejoin="round"/>
</g>
<g clip-path="url(#clip0_883_9063)">
<mask id="mask1_883_9063" style="mask-type:luminance" maskUnits="userSpaceOnUse" x="8" y="1" width="18" height="19">
<path d="M8.58594 1.92698H26.0008V19.3418H8.58594V1.92698Z" fill="white"/>
</mask>
<g mask="url(#mask1_883_9063)">
<path d="M17.2936 2.60734L10.627 5.37524V8.74C10.627 13.0945 13.2619 17.0161 17.2936 18.6616C21.3252 17.0161 23.9602 13.0945 23.9602 8.74V5.37524L17.2936 2.60734Z" stroke="url(#paint5_linear_883_9063)" stroke-width="1.0244" stroke-miterlimit="10" stroke-linecap="round" stroke-linejoin="round"/>
<path d="M14.6406 10.094L16.5418 11.9951L19.9467 8.59021" stroke="url(#paint6_linear_883_9063)" stroke-width="1.0244" stroke-miterlimit="10" stroke-linecap="round" stroke-linejoin="round"/>
</g>
</g>
<defs>
<linearGradient id="paint0_linear_883_9063" x1="7.44218" y1="20.9215" x2="7.18519" y2="20.1206" gradientUnits="userSpaceOnUse">
<stop stop-color="#0FA6FC"/>
<stop offset="0.953125" stop-color="#D048FC"/>
</linearGradient>
<linearGradient id="paint1_linear_883_9063" x1="7.44218" y1="20.9215" x2="7.18519" y2="20.1206" gradientUnits="userSpaceOnUse">
<stop stop-color="#0FA6FC"/>
<stop offset="0.953125" stop-color="#D048FC"/>
</linearGradient>
<linearGradient id="paint2_linear_883_9063" x1="8.76287" y1="26.5344" x2="4.98977" y2="21.3086" gradientUnits="userSpaceOnUse">
<stop stop-color="#0FA6FC"/>
<stop offset="0.953125" stop-color="#D048FC"/>
</linearGradient>
<linearGradient id="paint3_linear_883_9063" x1="25.9183" y1="28.0521" x2="25.1772" y2="21.6123" gradientUnits="userSpaceOnUse">
<stop stop-color="#0FA6FC"/>
<stop offset="0.953125" stop-color="#D048FC"/>
</linearGradient>
<linearGradient id="paint4_linear_883_9063" x1="19.7818" y1="23.9281" x2="19.2566" y2="19.5748" gradientUnits="userSpaceOnUse">
<stop stop-color="#0FA6FC"/>
<stop offset="0.953125" stop-color="#D048FC"/>
</linearGradient>
<linearGradient id="paint5_linear_883_9063" x1="24.6317" y1="19.6916" x2="18.6744" y2="4.27369" gradientUnits="userSpaceOnUse">
<stop stop-color="#0FA6FC"/>
<stop offset="0.953125" stop-color="#D048FC"/>
</linearGradient>
<linearGradient id="paint6_linear_883_9063" x1="20.2139" y1="12.2136" x2="19.4716" y2="8.60832" gradientUnits="userSpaceOnUse">
<stop stop-color="#0FA6FC"/>
<stop offset="0.953125" stop-color="#D048FC"/>
</linearGradient>
<clipPath id="clip0_883_9063">
<rect width="17.4148" height="17.4148" fill="white" transform="translate(8.58594 1.92676)"/>
</clipPath>
</defs>
</svg>
