<svg width="212" height="68" viewBox="0 0 212 68" fill="none" xmlns="http://www.w3.org/2000/svg">
<path d="M67.2887 33.1146C70.6324 33.1146 72.5723 35.0531 72.5723 37.7487C72.5723 39.5827 71.4947 40.9796 70.0906 41.5212C71.8148 41.9519 73.1081 43.4597 73.1081 45.6136C73.1081 48.4137 70.9527 50.463 67.7197 50.463H61.0381V33.1146H67.2887ZM66.7529 40.2226C68.2615 40.2226 69.2346 39.3611 69.2346 38.0687C69.2346 36.7763 68.3725 35.9148 66.7529 35.9148H64.382V40.2226H66.7529ZM67.0731 47.6568C68.6926 47.6568 69.6596 46.7952 69.6596 45.3921C69.6596 43.9889 68.7973 43.0227 67.0731 43.0227H64.2711V47.6568H67.0731ZM77.8559 43.4597L80.8735 43.0289C81.5201 42.9181 81.7356 42.598 81.7356 42.1673C81.7356 41.3058 81.089 40.5487 79.685 40.5487C78.2809 40.5487 77.5296 41.4104 77.4188 42.4874L74.5059 41.8411C74.7214 39.9026 76.4458 37.8533 79.6787 37.8533C83.4537 37.8533 84.9625 40.0072 84.9625 42.4874V48.4137C84.9625 49.0598 85.0733 49.9215 85.0733 50.3522H82.0558C81.945 50.0261 81.9451 49.3799 81.9451 48.9492C81.2983 49.9215 80.2207 50.7831 78.3856 50.7831C75.7992 50.7831 74.2904 49.06 74.2904 47.1213C74.2966 44.9674 75.8053 43.7796 77.8559 43.4597ZM81.7356 45.6136V45.072L79.0384 45.3982C78.1762 45.509 77.5296 45.9397 77.5296 46.906C77.5296 47.6629 78.0716 48.3092 79.1492 48.3092C80.4423 48.3092 81.7356 47.6568 81.7356 45.6136ZM90.4679 50.463H87.2347V38.3948H90.3631V39.9026C91.1207 38.6102 92.5185 38.0687 93.8116 38.0687C96.8293 38.0687 98.1224 40.2226 98.1224 42.8073V50.3522H94.8894V43.3489C94.8894 41.9457 94.2428 40.9796 92.6232 40.9796C91.2192 40.9796 90.3569 42.0565 90.3569 43.4597V50.463H90.4679ZM107.396 43.4597L112.354 50.463H108.363L105.13 45.8289L103.726 47.2321V50.463H100.493V32.6839H103.726V42.8136L107.932 38.2903H112.243C112.249 38.284 107.396 43.4597 107.396 43.4597ZM128.42 44.4259C128.42 48.0876 125.723 50.7831 122.059 50.7831C118.5 50.7831 115.698 48.0876 115.698 44.4259C115.698 40.6535 118.395 38.0687 122.059 38.0687C125.723 38.0687 128.42 40.6535 128.42 44.4259ZM125.187 44.4259C125.187 42.1612 123.679 40.9796 122.17 40.9796C120.55 40.9796 119.152 42.1673 119.152 44.4259C119.152 46.6844 120.661 47.8722 122.17 47.8722C123.672 47.8722 125.187 46.6906 125.187 44.4259ZM134.024 37.1025V38.3948H136.722V41.195H134.024V50.463H130.791V41.195H128.741V38.3948H130.791V36.9917C130.791 34.2962 132.516 32.4685 135.213 32.4685C135.859 32.4685 136.617 32.5792 136.833 32.6839V35.3793C136.617 35.3793 136.291 35.2685 135.755 35.2685C134.997 35.3793 134.024 35.6994 134.024 37.1025ZM153.428 50.463V43.2443H145.879V50.463H142.535V33.1146H145.879V40.0072H153.428V33.0038H156.878V50.3522H153.428V50.463ZM171.005 44.4259C171.005 48.0876 168.307 50.7831 164.643 50.7831C161.083 50.7831 158.281 48.0876 158.281 44.4259C158.281 40.6535 160.978 38.0687 164.643 38.0687C168.307 38.0687 171.005 40.6535 171.005 44.4259ZM167.771 44.4259C167.771 42.1612 166.262 40.9796 164.754 40.9796C163.133 40.9796 161.736 42.1673 161.736 44.4259C161.736 46.6844 163.244 47.8722 164.754 47.8722C166.262 47.8722 167.771 46.6906 167.771 44.4259ZM172.512 55.0909V38.3948H175.641V39.9026C176.183 38.9303 177.581 38.1795 179.305 38.1795C182.865 38.1795 184.909 40.8749 184.909 44.4259C184.909 48.0876 182.643 50.7831 179.194 50.7831C177.575 50.7831 176.282 50.1369 175.746 49.2754V55.0909H172.512ZM178.769 40.9796C177.15 40.9796 175.752 42.2719 175.752 44.3213C175.752 46.3706 177.156 47.7676 178.769 47.7676C180.382 47.7676 181.787 46.4752 181.787 44.3213C181.787 42.2719 180.382 40.9796 178.769 40.9796ZM197.848 47.0105C197.2 49.06 195.365 50.7831 192.348 50.7831C189.005 50.7831 186.097 48.4137 186.097 44.3213C186.097 40.4442 188.9 37.9641 192.028 37.9641C195.802 37.9641 197.959 40.3334 197.959 44.2105V45.1828H189.331C189.442 46.8014 190.735 47.8784 192.348 47.8784C193.857 47.8784 194.719 47.1213 195.045 46.0445L197.848 47.0105ZM194.83 43.0289C194.83 41.8411 193.968 40.6595 192.133 40.6595C190.409 40.6595 189.547 41.9519 189.436 43.0289H194.83Z" fill="#010101"/>
<path d="M52.7378 30.8501H44.3258C36.9976 30.8501 36.4558 32.4685 33.4383 35.3732C30.5255 38.2842 29.8789 39.8965 22.5507 39.8965H14.1387V31.607H22.5507C29.8789 31.607 30.4207 29.9885 33.4383 27.0837C36.3511 24.1728 36.9976 22.5605 44.3258 22.5605H52.7378V30.8501ZM32.3606 16.7387C29.5586 19.5388 28.9121 21.0465 21.6886 21.0465H14.2495V29.3423H21.6886C28.9121 29.3423 29.5586 27.8346 32.3606 25.0344V16.7387ZM43.3529 12C37.9644 12 36.2403 12.8616 34.5097 14.4801V22.7758C36.234 21.1573 37.9584 20.2957 43.3529 20.2957H52.7318V12H43.3529ZM32.3606 39.6874C30.6363 41.3058 28.9121 42.1675 23.5175 42.1675H14.2495V50.4632H23.6283C29.0168 50.4632 30.741 49.6016 32.4715 47.9831V39.6874H32.3606ZM45.2989 33.1148C38.0754 33.1148 37.4288 34.6226 34.6267 37.4226V45.7183C37.4288 42.9183 38.0754 41.4105 45.2989 41.4105H52.7378V33.1148H45.2989Z" fill="url(#paint0_linear_251_2815)"/>
<defs>
<linearGradient id="paint0_linear_251_2815" x1="14.2475" y1="31.229" x2="52.7152" y2="31.229" gradientUnits="userSpaceOnUse">
<stop stop-color="#009782"/>
<stop offset="0.081" stop-color="#129A7E"/>
<stop offset="0.212" stop-color="#2FA172"/>
<stop offset="0.377" stop-color="#4DAD5A"/>
<stop offset="0.5" stop-color="#5FBB46"/>
<stop offset="0.556" stop-color="#6FBD44"/>
<stop offset="0.75" stop-color="#99C63C"/>
<stop offset="0.905" stop-color="#B0CC36"/>
<stop offset="1" stop-color="#B9CE33"/>
</linearGradient>
</defs>
</svg>
