<svg width="169" height="68" viewBox="0 0 169 68" fill="none" xmlns="http://www.w3.org/2000/svg">
<mask id="mask0_251_2830" style="mask-type:luminance" maskUnits="userSpaceOnUse" x="17" y="6" width="133" height="56">
<path d="M149.818 6H17.7061V61.4545H149.818V6Z" fill="white"/>
</mask>
<g mask="url(#mask0_251_2830)">
<path d="M70.9167 50.7032H64.2939V16.2988H70.9167V28.9741C71.9442 27.7292 74.3422 26.4844 76.8543 26.4844C83.8196 26.4844 87.7018 32.143 87.7018 38.9334C87.7018 45.7236 83.8196 51.2692 76.8543 51.2692C74.3422 51.2692 71.9442 50.0243 70.9167 48.7793V50.7032ZM70.9167 42.7813C71.716 44.4788 73.4286 45.4974 75.3699 45.4974C78.9095 45.4974 81.0791 42.668 81.0791 38.8201C81.0791 34.9723 78.9095 32.143 75.3699 32.143C73.4286 32.143 71.6016 33.2748 70.9167 34.8592V42.7813Z" fill="#414042"/>
<path d="M116.82 26.4849C121.729 26.4849 124.698 29.8801 124.698 35.1992V50.7039H118.075V36.5571C118.075 34.0675 116.934 32.3698 114.65 32.3698C112.937 32.3698 111.339 33.3884 110.996 35.4254V50.7039H104.373V36.5571C104.373 34.0675 103.346 32.3698 101.062 32.3698C99.3491 32.3698 97.7505 33.3884 97.2936 35.4254V50.7039H90.6709V27.0508H97.0654V28.9748C98.2072 27.5035 100.491 26.4849 103.117 26.4849C105.972 26.4849 108.141 27.7297 109.512 29.5405C111.11 27.843 113.394 26.4849 116.82 26.4849Z" fill="#414042"/>
<path d="M138.745 26.4849C144.796 26.4849 148.565 29.9932 149.25 34.9728H142.741C142.399 33.1621 140.914 32.0304 138.745 32.0304C135.662 32.0304 133.835 34.7465 133.835 38.8206C133.835 42.7818 135.662 45.4979 138.745 45.4979C140.914 45.4979 142.284 44.3662 142.741 42.5553H149.25C148.565 47.6482 144.796 51.0432 138.745 51.0432C132.008 51.0432 127.212 45.9505 127.212 38.7075C127.326 31.4644 132.008 26.4849 138.745 26.4849Z" fill="#414042"/>
<path d="M22.7315 60.889C20.562 60.889 18.2783 59.1915 18.2783 55.9094V48.2137C18.2783 45.158 20.2194 41.6497 22.96 40.1785L33.8075 33.8407L22.96 27.5032C20.3337 25.8055 18.2783 22.4103 18.2783 19.3547V11.5457C18.2783 8.26374 20.562 6.56616 22.8456 6.56616C23.7592 6.56616 24.7869 6.79251 25.7003 7.35835L50.1361 21.7313C51.8488 22.7498 52.7623 24.3342 52.7623 25.9186C52.7623 27.6163 51.7346 29.2007 50.1361 30.106L44.3126 33.5012L50.1361 36.8964C51.8488 37.915 52.8765 39.4994 52.8765 41.0838C52.8765 42.7815 51.8488 44.3659 50.1361 45.2712L25.7003 60.0968C24.6726 60.6628 23.7592 60.889 22.7315 60.889ZM39.0602 36.8964L25.7003 44.7054C24.6726 45.2712 23.6451 47.082 23.6451 48.2137V55.1172L46.8247 41.5364L39.0602 36.8964ZM23.6451 12.4511V19.3547C23.6451 20.4864 24.6726 22.2971 25.7003 22.863L39.0602 30.6719L46.9389 26.0319L23.6451 12.4511Z" fill="#FE5000"/>
</g>
</svg>
