<svg width="158" height="68" viewBox="0 0 158 68" fill="none" xmlns="http://www.w3.org/2000/svg">
<mask id="mask0_251_2870" style="mask-type:luminance" maskUnits="userSpaceOnUse" x="17" y="8" width="125" height="53">
<path d="M141.49 8H17V60.4779H141.49V8Z" fill="white"/>
</mask>
<g mask="url(#mask0_251_2870)">
<path d="M71.5864 33.8628L80.3624 37.589L89.3399 33.8628L80.3893 38.1891L71.5864 33.8628Z" fill="#B39243"/>
<path d="M71.5864 35.1882L80.3624 38.9146L89.3399 35.1882L80.3893 39.5147L71.5864 35.1882Z" fill="#B39243"/>
<path d="M66.9825 29.8286C66.9825 29.8286 67.8235 30.8297 69.9536 30.8495L69.9168 30.9749C69.9168 30.9749 68.628 31.2799 67.0168 30.4018L66.98 29.8286H66.9825Z" fill="#B39243"/>
<path d="M67.0171 30.7756C67.0171 30.7756 68.2173 31.8309 70.3106 31.725V31.8678C70.3106 31.8678 68.3773 32.3499 67.0344 31.2775L67.0171 30.7756Z" fill="#B39243"/>
<path d="M93.6321 29.02C93.2212 28.6314 91.689 28.6831 91.689 28.6831L91.7701 29.5464C90.3435 29.6963 89.244 29.8833 88.2676 30.3728C87.2912 30.8597 87.2591 31.9813 87.7437 32.1732C88.3339 32.407 88.1175 32.8864 88.1175 32.8864L80.5027 36.0003L80.4903 35.9904L72.8755 32.8767C72.8755 32.8767 72.659 32.3995 73.2493 32.1633C73.7339 31.9716 73.6995 30.85 72.7254 30.363C71.749 29.8759 70.6494 29.6866 69.223 29.5365L69.3042 28.6732C69.3042 28.6732 67.7742 28.6215 67.3611 29.0101C67.0511 29.3052 67.024 29.8734 68.3375 29.9474C69.651 30.0236 72.8386 30.0973 73.1018 31.2975C73.1018 31.2975 71.2767 31.5066 71.0751 31.8239C70.9619 32.001 71.0529 32.3404 71.5375 32.5863C72.2704 32.9579 79.8877 36.5193 80.4781 36.7948L80.515 36.8047C81.1102 36.5267 88.7226 32.9677 89.4555 32.5962C89.9401 32.3503 90.0311 32.0109 89.9181 31.8338C89.7162 31.5165 87.8913 31.3099 87.8913 31.3099C88.1545 30.1096 91.3422 30.0334 92.6555 29.9595C93.969 29.8858 93.9418 29.3151 93.6296 29.0225L93.6321 29.02Z" fill="#B39243"/>
<path d="M94.0063 29.8362C94.0063 29.8362 93.165 30.8397 91.0352 30.8569L91.072 30.9823C91.072 30.9823 92.3608 31.2873 93.9719 30.4093L94.0088 29.8362H94.0063Z" fill="#B39243"/>
<path d="M93.9725 30.7854C93.9725 30.7854 92.7722 31.8407 90.6792 31.7348V31.8775C90.6792 31.8775 92.6124 32.3619 93.9554 31.2871L93.9725 30.7854Z" fill="#B39243"/>
<path d="M91.2522 33.1299C91.6089 33.1126 93.3281 32.9699 94.098 32.2L94.1153 31.7179C94.1153 31.7179 92.8804 33.024 90.3372 32.3255L90.3003 33.0782L91.0875 35.0999L80.4545 40.3758L69.893 35.0925L70.6802 33.0708L70.6433 32.3182C68.1025 33.0166 66.8652 31.7107 66.8652 31.7107L66.8825 32.1926C67.6523 32.9626 69.3716 33.1052 69.7283 33.1225C70.085 33.1397 70.0333 33.4816 70.0333 33.4816L69.2291 35.0925L80.4669 41.0423L91.7467 35.0999L90.9398 33.4888C90.9398 33.4888 90.8856 33.1494 91.2448 33.1299H91.2522Z" fill="#B39243"/>
<path d="M78.5839 11.0372C80.5196 11.9153 80.1064 14.1339 79.8482 14.6504C79.703 14.9406 79.1766 15.6834 79.1766 15.6834L79.2283 15.2973C79.5899 13.6715 79.4349 12.5622 78.247 11.8637C76.7885 11.0053 75.3569 12.5868 75.3569 12.5868C75.3569 11.9424 76.6482 10.1616 78.5839 11.0372ZM75.6963 14.2347C75.6963 14.2347 76.4169 13.0221 77.632 13.3443C78.761 13.6444 79.1546 14.5741 79.1815 15.676C79.1815 15.676 79.8334 13.0025 77.632 12.6655C77.632 12.6655 75.8242 12.4294 75.6963 14.2372V14.2347ZM75.566 15.9958C75.566 15.9958 75.8168 14.3798 77.3542 14.3798C77.3542 14.3798 78.6158 14.37 79.184 15.6662C79.184 15.6662 79.0808 13.6346 77.2729 13.7256C75.7062 13.8043 75.4356 15.3391 75.566 15.9958Z" fill="#B39243"/>
<path d="M81.3115 12.4493C81.3115 12.4493 80.6916 12.3731 80.8983 11.8688C81.1049 11.3622 81.7985 11.6622 81.855 12.0754C81.9116 12.4887 81.8747 13.4823 80.8049 14.0628V13.9693C80.8049 13.9693 81.7617 12.9757 81.3115 12.4493ZM82.2879 14.1932C82.0642 14.7736 81.3877 15.3196 81.3877 15.3196C81.8379 15.3 82.3863 14.8671 82.5486 14.6925C82.839 14.3752 82.9693 13.9447 82.9275 14.4194C82.8882 14.8523 82.834 15.1696 82.834 15.1696C83.2472 14.7195 83.476 14.2128 83.5841 13.6496C83.7219 12.9363 83.3063 12.6731 83.0775 12.6928C82.9422 12.7051 82.6619 12.7321 82.4996 13.2241C82.3396 13.7135 81.1443 14.3973 81.1443 14.3973C82.0813 14.3973 82.2879 14.1907 82.2879 14.1907V14.1932ZM87.6647 19.5083V18.9574H81.5059C81.5084 18.7631 81.5205 17.9342 81.5205 17.307C81.5205 16.7167 82.5241 16.21 82.5241 16.21C84.5681 14.9532 84.6542 13.7996 84.5975 12.956C84.5459 12.1664 83.9776 11.736 83.8473 11.586C83.7169 11.4359 83.6776 11.3228 83.7342 11.2293C83.7909 11.1359 83.8547 11.1678 83.8842 11.0596C83.9237 10.917 83.8104 10.6661 83.5645 10.6292C83.3652 10.5972 83.3357 10.4152 83.3775 10.216C83.4169 10.0315 83.9776 9.87902 83.9776 9.87902C83.7956 9.64781 83.4047 9.66257 83.3137 9.66995C83.3112 9.59371 83.2964 9.41661 83.257 9.04276C83.1537 8.09581 82.0469 7.87936 82.2535 8.04908C82.46 8.2188 82.2831 8.85583 82.1797 8.67873C82.0764 8.50164 81.7567 8.22862 81.5329 8.11549C81.309 8.00235 80.9229 8.19911 80.7729 8.37867C80.6228 8.55574 80.7925 8.71562 80.9966 8.76237C81.2034 8.8091 81.3385 8.88534 81.4 9.04521C81.4787 9.25429 81.1688 9.19279 81.1688 9.19279C80.9918 9.11408 80.768 8.98127 80.4408 9.10671C79.9636 9.29363 79.8973 10.1127 80.367 10.3759C80.5612 10.4964 81.1049 10.5234 81.287 10.1963C81.6435 9.55435 82.1528 9.68471 82.1528 9.68471V10.9071C84.3786 11.9303 84.4105 13.1478 84.0835 14.139C83.7515 15.1401 82.3371 15.9026 81.7444 16.2395C81.1541 16.574 81.1861 17.1151 81.1861 17.1151V18.9599H80.699C80.7089 18.8147 80.7311 18.3548 80.7311 17.2898C80.7311 15.9395 79.7545 15.7698 79.7545 15.7698L78.7413 16.5003C80.0915 15.9936 80.2785 17.2701 80.2785 17.2701V18.9574H73.1826V19.5083H73.672V26.929C73.667 27.0692 73.6252 28.6556 74.5083 29.3591C75.4503 30.1092 80.0694 32.8196 80.2636 32.9353L80.4162 33.0239L80.5686 32.9353C80.7655 32.8221 85.3822 30.1265 86.3267 29.3762C87.2096 28.6727 87.1677 27.0863 87.1628 26.9463V19.5083H87.6622H87.6647ZM75.5364 26.8649V26.8552V19.5083H85.2222V26.8649C85.2222 26.8649 85.3453 28.0654 84.5975 28.4686C83.808 28.8966 80.9523 30.6036 80.3794 30.9455C79.8062 30.6012 76.9506 28.8966 76.161 28.4686C75.4159 28.0654 75.5339 26.8748 75.5364 26.8649ZM85.9551 28.9065C85.1386 29.5558 81.2427 31.8482 80.4212 32.3278C79.6021 31.8432 75.7036 29.5385 74.8846 28.8869C74.3336 28.449 74.2574 27.3372 74.2745 26.9485V19.5083H75.1626V26.8355C75.1478 26.9807 75.0493 28.294 75.9841 28.8008C76.8375 29.2631 80.2515 31.307 80.2859 31.3267L80.3818 31.3833L80.4776 31.3267C80.5122 31.307 83.9237 29.2631 84.7796 28.8008C85.7142 28.294 85.6157 26.9807 85.6011 26.8355V19.5083H86.5676V26.9683C86.5849 27.3569 86.5112 28.4661 85.9576 28.9065H85.9551Z" fill="#B39243"/>
<path fill-rule="evenodd" clip-rule="evenodd" d="M88.0882 14.958C88.0882 14.958 87.6627 14.808 87.7634 14.3824L87.8643 13.9569C87.8643 13.9569 88.039 13.9815 88.1152 14.1562C88.1891 14.3308 88.8654 15.6811 89.1408 15.9566C89.4163 16.2321 89.3646 15.8557 89.3646 15.8557C89.3646 15.8557 89.3646 14.1291 89.441 13.9791C89.5148 13.829 89.6155 13.9545 89.6647 14.1291C89.7139 14.3037 89.6894 14.2545 89.9648 14.0283C90.2403 13.8044 90.6905 13.1772 90.9142 13.1035C91.1405 13.0297 91.1135 13.2781 90.9881 13.5044C90.8627 13.7307 90.1886 14.2791 90.1124 14.4808C90.0387 14.68 89.9623 14.7047 90.2133 14.6309C90.4642 14.5546 91.2142 13.7061 91.3127 13.9299C91.4136 14.1537 91.3864 14.1808 91.2365 14.3308C91.0863 14.4808 89.8861 15.4302 89.7607 15.6319C89.6353 15.8312 89.3107 16.0328 89.5368 16.1066C89.7607 16.1804 90.7863 15.9812 90.9881 15.9074C91.1873 15.8312 91.4136 16.1066 91.0888 16.2075C90.7642 16.3083 90.2895 16.5075 90.2895 16.5075C90.2895 16.5075 90.5896 16.633 90.8404 16.7068C91.0913 16.783 91.0913 16.9577 90.7912 16.9822C90.4912 17.0068 90.0165 16.8568 89.9403 16.8322C89.8665 16.8076 90.1394 17.4077 90.3657 17.5332C90.5921 17.6586 90.4395 17.8579 90.292 17.8333C90.1419 17.8087 89.8173 17.6094 89.6157 17.334C89.4163 17.0585 89.3154 16.633 89.3154 16.633C89.3154 16.633 88.5407 16.6822 88.3145 16.7338C88.0882 16.783 87.9136 16.9576 87.6897 16.9847C87.4658 17.0093 86.9641 16.8101 87.3651 16.7855C87.7659 16.7609 87.8398 16.66 87.8643 16.5863C87.889 16.51 87.3404 16.3624 87.188 16.0599C87.0379 15.7598 87.0626 15.6344 87.2642 15.7352C87.4634 15.8361 87.8151 16.1361 88.1399 16.2099C88.4645 16.2837 88.6663 16.3108 88.7892 16.2345C88.9146 16.1583 88.5899 15.9345 88.1891 15.7082C87.7881 15.4843 87.4881 15.2335 87.4388 15.108C87.3896 14.9826 87.3379 14.7834 87.5398 14.8842C87.7389 14.9851 87.9652 14.9334 88.0907 14.958H88.0882ZM86.8632 14.7809C86.6025 15.0121 86.5485 15.4917 86.5903 16.0574C86.6322 16.6231 86.5805 16.3403 86.6322 16.7363C86.6837 17.1347 87.3552 17.5307 87.8987 17.4692C88.4424 17.4077 89.0401 17.0708 89.0401 17.0708L89.1655 17.5209C89.2909 17.971 89.564 18.1702 90.0976 18.2957C90.6314 18.4211 90.9339 18.0768 90.9241 17.9513C90.9142 17.8259 90.9978 17.6488 91.1012 17.5111C91.207 17.3758 91.4774 17.1544 91.5833 16.9158C91.6889 16.6748 91.9079 16.4657 92.0112 15.932C92.1171 15.3983 92.0211 15.295 91.8759 15.3048C91.7308 15.3146 91.3841 15.4401 91.207 15.5139C91.0299 15.5876 90.8627 15.4499 90.9142 15.2728C90.9659 15.0957 91.5734 14.7907 91.7505 14.6456C91.9276 14.4981 91.8341 14.0922 91.8121 13.9127C91.7923 13.7356 91.6545 13.3888 91.6545 13.2436C91.6545 13.0985 91.4898 12.7837 91.4898 12.7837C91.3889 12.5599 91.2389 12.5599 91.0643 12.6583C90.8897 12.7591 90.838 12.7837 90.6141 12.8083C90.3904 12.8329 90.3141 13.0075 90.0904 13.1576C89.8665 13.3076 89.8148 13.2313 89.6157 13.2313C89.4163 13.2313 89.19 13.8069 89.0154 14.0578C88.8407 14.3087 88.7645 14.2816 88.6391 14.1832C88.5137 14.0824 88.039 13.4576 87.889 13.3076C87.7389 13.1576 87.3626 14.2324 87.3626 14.2324C87.3282 14.3554 87.124 14.5497 86.8632 14.7809ZM95.7596 15.7303C95.7596 15.7303 96.1015 15.6196 96.2442 15.9369L96.3869 16.2542C96.3869 16.2542 96.2638 16.3231 96.131 16.2493C95.9983 16.1755 94.9186 15.6467 94.6111 15.6049C94.3036 15.5631 94.5176 15.777 94.5176 15.777C94.5176 15.777 95.3515 16.8691 95.376 16.9995C95.4005 17.1298 95.2775 17.1003 95.162 17.0142C95.0465 16.9281 95.0858 16.9478 95.0193 17.2233C94.9554 17.4988 94.9725 18.1112 94.8669 18.2686C94.761 18.426 94.6554 18.2539 94.6257 18.0522C94.5963 17.8505 94.7561 17.1741 94.7069 17.0118C94.6578 16.8494 94.6922 16.7978 94.5717 16.965C94.4486 17.1323 94.3872 18.035 94.2151 17.939C94.0429 17.8456 94.0478 17.8161 94.0699 17.6488C94.0921 17.4815 94.3922 16.3009 94.3749 16.114C94.3578 15.9271 94.4659 15.6442 94.2863 15.7057C94.1067 15.7672 93.5558 16.3895 93.4673 16.5321C93.3762 16.6772 93.1009 16.6108 93.2582 16.3919C93.4156 16.1706 93.6199 15.8164 93.6199 15.8164C93.6199 15.8164 93.369 15.8828 93.1746 15.9566C92.9804 16.0304 92.8966 15.9197 93.0737 15.7574C93.2508 15.5975 93.6248 15.4622 93.6837 15.4401C93.7428 15.4204 93.278 15.172 93.0762 15.204C92.8721 15.2335 92.8721 15.0342 92.9779 14.9777C93.0861 14.9211 93.3861 14.8891 93.6469 14.9678C93.9051 15.0441 94.1757 15.2654 94.1757 15.2654C94.1757 15.2654 94.6405 14.8596 94.7586 14.7194C94.8768 14.5792 94.9037 14.3824 95.0341 14.2595C95.1645 14.134 95.5776 14.0184 95.3366 14.23C95.0955 14.439 95.0955 14.5399 95.1177 14.5989C95.1373 14.6579 95.558 14.4882 95.799 14.6038C96.0401 14.7219 96.0844 14.8129 95.9098 14.8448C95.7351 14.8793 95.3686 14.8571 95.1276 14.9678C94.8864 15.0785 94.7464 15.1597 94.7046 15.2654C94.6628 15.3737 94.975 15.3589 95.3391 15.3073C95.7005 15.2556 96.0105 15.2704 96.104 15.3245C96.195 15.3786 96.3254 15.4819 96.1507 15.5163C95.9761 15.5508 95.8581 15.691 95.7671 15.7352L95.7596 15.7303ZM96.6205 15.2507C96.6747 14.9777 96.4753 14.6481 96.1752 14.3111C95.8752 13.9742 96.0449 14.1267 95.8212 13.9004C95.5949 13.6741 94.9799 13.7454 94.6675 14.0504C94.3528 14.3529 94.1389 14.8522 94.1389 14.8522L93.8413 14.6284C93.5435 14.4046 93.2755 14.4095 92.8795 14.5891C92.481 14.7686 92.4565 15.1326 92.5228 15.2064C92.5916 15.2802 92.6237 15.4327 92.6237 15.5704C92.6237 15.7082 92.5572 15.9763 92.6064 16.1804C92.6556 16.3821 92.6188 16.6207 92.8105 17.0093C93.0025 17.3979 93.113 17.4176 93.1991 17.3414C93.2877 17.2651 93.4452 17.0167 93.5214 16.8863C93.5976 16.7535 93.7698 16.7584 93.824 16.8962C93.8757 17.0339 93.6394 17.5184 93.5976 17.698C93.5558 17.8775 93.8116 18.0891 93.9125 18.1924C94.011 18.2957 94.2643 18.4482 94.3355 18.5392C94.4068 18.6326 94.6626 18.7507 94.6626 18.7507C94.8349 18.8442 94.9283 18.7728 94.9923 18.6253C95.0537 18.4777 95.0734 18.4383 95.2038 18.3129C95.3342 18.1874 95.2973 18.0423 95.3661 17.8382C95.4351 17.634 95.5039 17.6586 95.6318 17.5603C95.7572 17.4643 95.6219 16.9921 95.612 16.7486C95.6023 16.5051 95.6612 16.4854 95.7891 16.4879C95.917 16.4903 96.5196 16.6576 96.687 16.6797C96.8542 16.7019 96.5713 15.841 96.5713 15.841C96.5344 15.7475 96.5713 15.5262 96.623 15.2532L96.6205 15.2507ZM92.9238 20.069C92.9238 20.069 93.2508 19.9633 93.3861 20.2658L93.5214 20.5683C93.5214 20.5683 93.4034 20.6347 93.278 20.5634C93.1526 20.4921 92.1194 19.9879 91.8267 19.9485C91.5341 19.9092 91.7357 20.1133 91.7357 20.1133C91.7357 20.1133 92.5327 21.1562 92.5572 21.2816C92.5819 21.4071 92.4637 21.3775 92.3506 21.2939C92.24 21.2103 92.2769 21.23 92.2153 21.4931C92.154 21.7563 92.1686 22.3417 92.0679 22.4917C91.967 22.6418 91.8661 22.4794 91.8366 22.2851C91.8071 22.0908 91.962 21.4464 91.9153 21.2915C91.8685 21.1365 91.9029 21.0873 91.7849 21.2472C91.6694 21.4071 91.6078 22.2679 91.443 22.1794C91.2783 22.0908 91.2832 22.0638 91.3028 21.9039C91.325 21.744 91.6103 20.6151 91.5932 20.4355C91.5759 20.256 91.6817 19.9854 91.5095 20.0444C91.3398 20.1035 90.811 20.6987 90.7249 20.8364C90.6388 20.9742 90.3756 20.9127 90.5256 20.7012C90.6757 20.4896 90.8699 20.1502 90.8699 20.1502C90.8699 20.1502 90.6314 20.2142 90.4444 20.283C90.2601 20.3543 90.1787 20.2461 90.3484 20.0936C90.5183 19.9411 90.8748 19.8108 90.9315 19.7911C90.9881 19.7714 90.5453 19.5353 90.3509 19.5648C90.1567 19.5943 90.1567 19.4025 90.2576 19.3484C90.3608 19.2943 90.6487 19.2648 90.8971 19.3385C91.1454 19.4123 91.4012 19.6238 91.4012 19.6238C91.4012 19.6238 91.8465 19.2352 91.9595 19.1024C92.0728 18.9671 92.0973 18.7802 92.2227 18.6621C92.3482 18.5441 92.7417 18.4334 92.5129 18.6326C92.2818 18.8319 92.2843 18.9278 92.3039 18.9844C92.3236 19.0409 92.7244 18.8786 92.9557 18.9893C93.1845 19.1024 93.2288 19.1885 93.0616 19.2205C92.8941 19.2525 92.545 19.2328 92.3138 19.3385C92.0825 19.4443 91.9497 19.5205 91.9079 19.6238C91.8661 19.7271 92.1686 19.7124 92.5129 19.6632C92.8597 19.614 93.1549 19.6263 93.2434 19.6804C93.332 19.7321 93.4549 19.8305 93.2877 19.8624C93.1205 19.8944 93.0074 20.0297 92.9213 20.0715L92.9238 20.069ZM93.7478 19.6115C93.7994 19.3508 93.6075 19.036 93.3223 18.7138C93.0368 18.3916 93.1991 18.5392 92.9827 18.3227C92.7687 18.1063 92.1785 18.1751 91.8784 18.4654C91.5783 18.7556 91.3718 19.2328 91.3718 19.2328L91.0888 19.0188C90.8061 18.8048 90.5478 18.8097 90.1691 18.9819C89.7878 19.1516 89.7631 19.5009 89.8297 19.5722C89.8935 19.6435 89.9254 19.7886 89.9254 19.919C89.9254 20.0494 89.8616 20.3076 89.9108 20.5019C89.9575 20.6962 89.923 20.9225 90.105 21.2939C90.2895 21.6653 90.3927 21.685 90.4765 21.6112C90.5601 21.5374 90.7101 21.3013 90.7838 21.1759C90.8577 21.0504 91.0225 21.0553 91.0717 21.1857C91.1234 21.3185 90.8946 21.7809 90.8553 21.9506C90.8159 22.1203 91.0618 22.3245 91.1553 22.4229C91.2488 22.5213 91.4923 22.6664 91.5586 22.7549C91.6276 22.8435 91.871 22.9566 91.871 22.9566C92.0358 23.0476 92.1268 22.9763 92.1859 22.8361C92.245 22.6934 92.2646 22.6565 92.39 22.5385C92.5154 22.4204 92.4785 22.2778 92.545 22.0834C92.6114 21.8891 92.6779 21.9113 92.7984 21.8178C92.9188 21.7243 92.7885 21.2742 92.7811 21.0406C92.7712 20.8094 92.8278 20.7897 92.9508 20.7922C93.0737 20.7946 93.6493 20.9545 93.8091 20.9742C93.9692 20.9963 93.6985 20.1723 93.6985 20.1723C93.6617 20.0838 93.6985 19.8698 93.7478 19.6115ZM89.3992 24.9956C89.2024 24.9736 89.3352 24.8504 89.4312 24.7816C89.5271 24.7128 89.869 24.6686 90.2722 24.6931C90.6757 24.7153 91.025 24.703 90.9659 24.5872C90.9094 24.4717 90.7494 24.3955 90.4716 24.297C90.196 24.1986 89.7926 24.2552 89.5959 24.2332C89.4015 24.2134 89.441 24.1078 89.6944 23.9576C89.9477 23.8052 90.4273 23.9576 90.4444 23.8889C90.4617 23.8223 90.4543 23.7117 90.1691 23.5027C89.8836 23.2935 90.3509 23.382 90.506 23.5076C90.6609 23.6331 90.7076 23.847 90.8503 23.9896C90.993 24.1323 91.5439 24.5382 91.5439 24.5382C91.5439 24.5382 91.8193 24.2701 92.0998 24.1617C92.3776 24.0536 92.7147 24.0586 92.8377 24.1102C92.9606 24.1617 92.9779 24.3831 92.7516 24.3685C92.5253 24.3537 92.0358 24.6686 92.1047 24.6857C92.1711 24.703 92.5965 24.816 92.8058 24.9783C93.0173 25.1383 92.9337 25.2687 92.7123 25.2071C92.4909 25.1433 92.2079 25.094 92.2079 25.094C92.2079 25.094 92.4662 25.4678 92.6581 25.6966C92.8523 25.9253 92.5547 26.0212 92.4417 25.8713C92.3286 25.7212 91.6644 25.0866 91.4603 25.0349C91.2585 24.9833 91.4037 25.2858 91.4012 25.4948C91.4012 25.7016 91.8391 26.978 91.8784 27.1601C91.9177 27.3421 91.9252 27.3741 91.7431 27.4921C91.5611 27.6126 91.4086 26.6238 91.2585 26.4492C91.1086 26.2745 91.1529 26.3287 91.1135 26.5132C91.0742 26.6977 91.3151 27.4258 91.3003 27.6519C91.2857 27.8782 91.1873 28.0751 91.0544 27.9126C90.9241 27.7503 90.8872 27.074 90.7888 26.7739C90.693 26.4763 90.7348 26.4516 90.6141 26.5575C90.4936 26.6632 90.3608 26.7099 90.3756 26.5624C90.3904 26.4148 91.2095 25.1359 91.2095 25.1359C91.2095 25.1359 91.4235 24.8801 91.0888 24.9538C90.7544 25.0275 89.6132 25.7088 89.473 25.8023C89.3352 25.8958 89.1925 25.8319 89.1925 25.8319L89.3204 25.4678C89.4483 25.1062 89.8344 25.1948 89.8344 25.1948C89.7287 25.153 89.586 25.0104 89.3918 24.9882L89.3992 24.9956ZM88.9614 25.3941C88.9614 25.3941 88.7301 26.3705 88.9122 26.3287C89.0942 26.2894 89.7436 26.0509 89.8836 26.036C90.0239 26.0212 90.0902 26.036 90.1025 26.3066C90.1124 26.5746 90.0066 27.1084 90.1567 27.2044C90.3066 27.3003 90.3781 27.2682 90.4741 27.4847C90.5698 27.7036 90.5428 27.8683 90.6977 27.994C90.8528 28.1194 90.8773 28.1612 90.9609 28.3185C91.0421 28.4759 91.1553 28.5473 91.3349 28.4267C91.3349 28.4267 91.6053 28.2718 91.6743 28.1637C91.7431 28.0553 92.0088 27.8636 92.1097 27.7404C92.2104 27.6175 92.4736 27.3617 92.4097 27.1675C92.3482 26.9731 92.0407 26.4615 92.0874 26.3042C92.1342 26.1466 92.3212 26.1271 92.4196 26.2648C92.5154 26.4024 92.7147 26.6607 92.8179 26.7371C92.9213 26.8133 93.0418 26.7814 93.2164 26.3361C93.3911 25.8909 93.3295 25.6301 93.3666 25.404C93.4034 25.1752 93.305 24.885 93.2926 24.7324C93.2805 24.5825 93.3025 24.4103 93.3688 24.3218C93.4353 24.2332 93.3738 23.8347 92.9188 23.6724C92.4637 23.5124 92.1686 23.5297 91.8611 23.8052L91.5538 24.0781C91.5538 24.0781 91.2709 23.547 90.8971 23.242C90.5231 22.9369 89.8369 22.9148 89.6107 23.1829C89.3844 23.4535 89.5566 23.269 89.2565 23.6675C88.9565 24.066 88.767 24.4472 88.8531 24.7423C88.9367 25.0374 88.9983 25.2784 88.9639 25.3867L88.9614 25.3941Z" fill="#B39243"/>
<path fill-rule="evenodd" clip-rule="evenodd" d="M73.3334 14.8374C73.5326 14.7365 73.4834 14.9382 73.4342 15.0636C73.3849 15.1891 73.0849 15.4375 72.6841 15.6638C72.2831 15.8876 71.9586 16.1139 72.084 16.1877C72.2094 16.2615 72.4086 16.2369 72.7333 16.1631C73.0579 16.0893 73.4097 15.7892 73.6088 15.6884C73.8082 15.5875 73.8327 15.713 73.685 16.0131C73.5351 16.3131 72.9842 16.4632 73.0087 16.5394C73.0334 16.6132 73.1096 16.714 73.5081 16.7386C73.9089 16.7632 73.4072 16.9649 73.1833 16.9379C72.9595 16.9133 72.7823 16.7386 72.5587 16.687C72.3324 16.6378 71.5576 16.5861 71.5576 16.5861C71.5576 16.5861 71.4567 17.0117 71.2575 17.2871C71.0582 17.5626 70.7311 17.7618 70.581 17.7864C70.4311 17.811 70.2809 17.6118 70.5073 17.4864C70.7311 17.3609 71.0067 16.7608 70.9328 16.7854C70.8565 16.81 70.3818 16.96 70.0818 16.9354C69.7817 16.9108 69.7817 16.7362 70.0326 16.6599C70.2834 16.5837 70.5835 16.4607 70.5835 16.4607C70.5835 16.4607 70.1088 16.2615 69.7842 16.1606C69.4594 16.0598 69.6833 15.7868 69.8851 15.8606C70.0843 15.9343 71.1099 16.136 71.3362 16.0598C71.5625 15.986 71.2353 15.7843 71.1099 15.5851C70.9844 15.3859 69.7842 14.434 69.6341 14.284C69.4841 14.1339 69.4594 14.1093 69.5603 13.883C69.6612 13.6568 70.4113 14.5078 70.6599 14.584C70.9107 14.6603 70.8345 14.6332 70.7606 14.434C70.6844 14.2348 70.0105 13.6838 69.8851 13.46C69.7595 13.2337 69.735 12.9853 69.9613 13.0591C70.1852 13.1329 70.6376 13.7601 70.9107 13.9839C71.1861 14.2102 71.1616 14.2594 71.2108 14.0847C71.26 13.9101 71.3607 13.7847 71.4346 13.9347C71.5108 14.0847 71.5108 15.8114 71.5108 15.8114C71.5108 15.8114 71.4616 16.1877 71.7347 15.9122C72.0101 15.6367 72.6841 14.2864 72.7603 14.1118C72.8365 13.9371 73.0111 13.9126 73.0111 13.9126L73.1121 14.3381C73.2128 14.7636 72.7873 14.9136 72.7873 14.9136C72.9127 14.889 73.1366 14.9382 73.3384 14.8374H73.3334ZM73.5081 14.188C73.5081 14.188 73.1316 13.1132 72.9817 13.2632C72.8316 13.4133 72.3569 14.038 72.2314 14.1388C72.106 14.2397 72.0323 14.2643 71.8576 14.0134C71.683 13.7625 71.4567 13.1894 71.2575 13.1894C71.0582 13.1894 71.0067 13.2632 70.7828 13.1132C70.559 12.9631 70.4828 12.7885 70.2589 12.7639C70.0326 12.7393 69.9833 12.7147 69.8087 12.6139C69.6341 12.5131 69.4841 12.5131 69.3832 12.7393C69.3832 12.7393 69.2185 13.0542 69.2185 13.1993C69.2185 13.3444 69.0832 13.6912 69.0611 13.8683C69.0389 14.0454 68.9454 14.4537 69.125 14.6012C69.3021 14.7488 69.9096 15.0513 69.9613 15.2284C70.013 15.4055 69.8456 15.5433 69.6687 15.4695C69.4915 15.3957 69.1447 15.2702 68.9995 15.2604C68.8521 15.2506 68.7586 15.3539 68.8642 15.8876C68.9701 16.4214 69.189 16.6304 69.2922 16.8715C69.398 17.1125 69.6686 17.3314 69.7743 17.4667C69.8802 17.602 69.9638 17.7815 69.9514 17.9069C69.9415 18.0324 70.2441 18.3767 70.7779 18.2513C71.3117 18.1258 71.5821 17.9266 71.7075 17.4765L71.8329 17.0264C71.8329 17.0264 72.4283 17.3609 72.9743 17.4249C73.5178 17.4888 74.1869 17.0904 74.241 16.6919C74.2925 16.2934 74.241 16.5763 74.2829 16.0131C74.3247 15.4473 74.273 14.9677 74.0098 14.7365C73.749 14.5053 73.5425 14.311 73.5106 14.188H73.5081ZM64.7272 15.467C64.5526 15.4326 64.6805 15.3317 64.7715 15.2776C64.8625 15.2235 65.1749 15.2088 65.5364 15.2604C65.898 15.3121 66.2129 15.3268 66.1711 15.2186C66.1293 15.1104 65.989 15.0292 65.7479 14.921C65.5069 14.8103 65.1405 14.8325 64.9634 14.798C64.7888 14.7636 64.8331 14.6726 65.074 14.557C65.3152 14.4389 65.7357 14.6111 65.7553 14.5521C65.7751 14.493 65.7775 14.3922 65.5364 14.1831C65.2954 13.9741 65.7085 14.0896 65.8389 14.2126C65.9693 14.3381 65.9964 14.5324 66.1145 14.6726C66.2325 14.8128 66.6998 15.2186 66.6998 15.2186C66.6998 15.2186 66.9679 14.9972 67.2286 14.921C67.4869 14.8447 67.7894 14.8743 67.8977 14.9308C68.0059 14.9874 68.0034 15.1866 67.7993 15.1571C67.5977 15.1276 67.1327 15.3736 67.1918 15.3957C67.2509 15.4154 67.6247 15.5506 67.8018 15.713C67.9789 15.8729 67.8953 15.9835 67.7009 15.9122C67.5066 15.8384 67.2558 15.772 67.2558 15.772C67.2558 15.772 67.4599 16.1286 67.6172 16.3476C67.7746 16.5689 67.4992 16.6329 67.4082 16.4878C67.3172 16.3426 66.7663 15.7204 66.5867 15.6613C66.4071 15.5998 66.5179 15.8827 66.5006 16.0696C66.4833 16.2566 66.7834 17.4372 66.8056 17.6044C66.8277 17.7717 66.8326 17.7987 66.6604 17.8946C66.4883 17.9881 66.4244 17.0879 66.3039 16.9207C66.1808 16.7534 66.2178 16.8051 66.1686 16.9674C66.1194 17.1297 66.2792 17.8036 66.2498 18.0078C66.2203 18.2119 66.1145 18.3816 66.0086 18.2242C65.903 18.0668 65.9201 17.4544 65.8562 17.1789C65.7922 16.9034 65.8317 16.8837 65.716 16.9698C65.6004 17.0559 65.475 17.0879 65.502 16.9551C65.5267 16.8247 66.3604 15.7327 66.3604 15.7327C66.3604 15.7327 66.5743 15.5187 66.2669 15.5605C65.9596 15.6023 64.8798 16.1286 64.747 16.2049C64.6142 16.2787 64.4912 16.2098 64.4912 16.2098L64.6337 15.8925C64.7764 15.5753 65.1183 15.6859 65.1183 15.6859C65.0273 15.6416 64.9093 15.5015 64.7346 15.467H64.7272ZM64.3017 15.7942C64.3017 15.7942 64.019 16.655 64.1862 16.6329C64.3534 16.6107 64.956 16.4459 65.0839 16.441C65.2118 16.4386 65.2709 16.4582 65.261 16.7018C65.2511 16.9452 65.1158 17.4175 65.2413 17.5134C65.3667 17.6093 65.4357 17.5872 65.5045 17.7913C65.5734 17.9955 65.5364 18.1431 65.6667 18.266C65.7971 18.3915 65.8169 18.4308 65.8782 18.5784C65.9398 18.726 66.0358 18.7998 66.208 18.7038C66.208 18.7038 66.4637 18.5858 66.535 18.4923C66.6065 18.3989 66.8598 18.2464 66.958 18.1455C67.0565 18.0422 67.3147 17.8307 67.2729 17.6511C67.2311 17.4716 66.9951 16.987 67.0466 16.8493C67.0983 16.7116 67.2704 16.7067 67.3491 16.8395C67.4255 16.9723 67.5828 17.2183 67.6714 17.2945C67.76 17.3732 67.8681 17.3511 68.06 16.9625C68.2518 16.5738 68.2149 16.3353 68.2641 16.1336C68.3133 15.9319 68.2493 15.6613 68.247 15.5236C68.247 15.3859 68.2789 15.2334 68.3477 15.1596C68.4142 15.0858 68.3895 14.7193 67.991 14.5422C67.5927 14.3627 67.3246 14.3577 67.0295 14.5816L66.7319 14.8054C66.7319 14.8054 66.5154 14.3061 66.203 14.0036C65.8881 13.701 65.2732 13.6297 65.0495 13.856C64.8232 14.0823 64.9929 13.9298 64.6953 14.2667C64.3952 14.6037 64.1959 14.9333 64.25 15.2063C64.3042 15.4793 64.3386 15.7007 64.3017 15.7942ZM67.5779 19.8156C67.4107 19.7836 67.5336 19.6852 67.6222 19.6336C67.7107 19.5819 68.0083 19.5672 68.3527 19.6164C68.6995 19.6655 68.9995 19.6803 68.9577 19.577C68.9159 19.4737 68.7831 19.3975 68.5518 19.2917C68.3207 19.1859 67.9715 19.2056 67.8042 19.1736C67.637 19.1417 67.6788 19.0556 67.9099 18.9424C68.1387 18.8293 68.5421 18.9941 68.5617 18.9375C68.5815 18.8809 68.5815 18.785 68.3527 18.5858C68.1214 18.3866 68.5174 18.4948 68.6429 18.6153C68.7683 18.7334 68.793 18.9203 68.906 19.0556C69.0193 19.1908 69.4644 19.5795 69.4644 19.5795C69.4644 19.5795 69.7202 19.3679 69.9687 19.2941C70.2171 19.2204 70.5048 19.2499 70.6082 19.304C70.7114 19.3581 70.7089 19.5475 70.5147 19.5204C70.3203 19.4909 69.8777 19.727 69.9341 19.7467C69.9908 19.7664 70.3475 19.8943 70.5172 20.0492C70.6869 20.2042 70.6057 20.31 70.4212 20.2387C70.2342 20.1673 69.9957 20.1058 69.9957 20.1058C69.9957 20.1058 70.1901 20.4453 70.34 20.6568C70.4902 20.8683 70.227 20.9298 70.1409 20.792C70.0548 20.6543 69.5259 20.0591 69.3562 20.0001C69.1865 19.941 69.2897 20.2116 69.2726 20.3911C69.2553 20.5707 69.543 21.6996 69.5628 21.8595C69.585 22.0194 69.5873 22.0464 69.4226 22.135C69.2578 22.2235 69.1964 21.3627 69.0807 21.2028C68.9651 21.0429 68.9971 21.0921 68.9503 21.2471C68.9036 21.402 69.0562 22.0464 69.029 22.2407C68.9995 22.4351 68.9011 22.5974 68.7979 22.4474C68.697 22.2973 68.7143 21.7119 68.6503 21.4488C68.5889 21.1856 68.6258 21.1659 68.515 21.2495C68.4044 21.3332 68.2864 21.3627 68.3084 21.2372C68.3331 21.1118 69.1299 20.0689 69.1299 20.0689C69.1299 20.0689 69.334 19.8648 69.0414 19.9041C68.7487 19.9435 67.7157 20.4477 67.5903 20.519C67.4648 20.5904 67.3466 20.5239 67.3466 20.5239L67.4819 20.2214C67.6172 19.9189 67.9445 20.0247 67.9445 20.0247C67.8584 19.9828 67.7451 19.8476 67.5779 19.8156ZM67.172 20.128C67.172 20.128 66.9016 20.9519 67.0614 20.9298C67.2212 20.9076 67.7968 20.7502 67.9198 20.7478C68.0427 20.7453 68.0994 20.765 68.0895 20.9962C68.0796 21.2274 67.9492 21.68 68.0699 21.7734C68.1904 21.8669 68.2567 21.8448 68.3232 22.0391C68.3895 22.2334 68.3551 22.3736 68.4781 22.4941C68.6035 22.6121 68.6208 22.6515 68.6799 22.7917C68.7388 22.9344 68.8298 23.0032 68.9946 22.9122C68.9946 22.9122 69.2382 22.7991 69.307 22.7105C69.3758 22.622 69.617 22.4769 69.7105 22.3785C69.8062 22.2801 70.0499 22.0784 70.0105 21.9063C69.9712 21.7365 69.7449 21.2717 69.7941 21.1413C69.8456 21.0085 70.008 21.0036 70.0818 21.1315C70.1555 21.2569 70.3056 21.493 70.3893 21.5668C70.4729 21.6406 70.5785 21.6209 70.7606 21.2495C70.9451 20.8781 70.9082 20.6494 70.955 20.4575C71.0017 20.2632 70.9402 20.005 70.9402 19.8746C70.9402 19.7443 70.9721 19.5992 71.0361 19.5278C71.1 19.4565 71.0755 19.1072 70.6967 18.9375C70.3155 18.7678 70.0597 18.7604 69.7768 18.9744L69.494 19.1884C69.494 19.1884 69.2873 18.7112 68.9872 18.421C68.6871 18.1308 68.0994 18.0619 67.8829 18.2783C67.6665 18.4948 67.8288 18.3472 67.5435 18.6694C67.2581 18.9916 67.0663 19.3065 67.118 19.5672C67.1697 19.8279 67.2041 20.0394 67.1672 20.1304L67.172 20.128ZM71.0263 25.1554C71.0263 25.1554 71.4124 25.0644 71.5403 25.4285L71.6682 25.7924C71.6682 25.7924 71.5257 25.8564 71.3879 25.7629C71.2501 25.6694 70.1063 24.9882 69.7718 24.9144C69.4374 24.8405 69.6514 25.0963 69.6514 25.0963C69.6514 25.0963 70.4704 26.3754 70.4852 26.5229C70.4999 26.6705 70.367 26.6238 70.2465 26.5179C70.1261 26.4123 70.1679 26.4368 70.0719 26.7344C69.9759 27.032 69.9366 27.7085 69.8062 27.8708C69.6759 28.0331 69.5752 27.8364 69.5603 27.61C69.5455 27.3837 69.7867 26.6557 69.7473 26.4712C69.708 26.2868 69.7523 26.2327 69.6021 26.4073C69.4522 26.582 69.2996 27.5682 69.1176 27.4502C68.9357 27.3297 68.9429 27.3001 68.9823 27.118C69.0218 26.9362 69.4619 25.6595 69.4594 25.453C69.4594 25.2439 69.6021 24.9414 69.4005 24.9931C69.1987 25.0448 68.5323 25.6793 68.4192 25.8292C68.3059 25.9794 68.0083 25.8834 68.2027 25.6546C68.3969 25.426 68.6527 25.052 68.6527 25.052C68.6527 25.052 68.37 25.1012 68.1486 25.1653C67.9272 25.2291 67.8436 25.0988 68.0551 24.9365C68.2666 24.7766 68.6896 24.6609 68.7561 24.6438C68.8224 24.6265 68.3354 24.3118 68.1092 24.3265C67.8829 24.3413 67.9002 24.1199 68.0232 24.0682C68.1461 24.0165 68.483 24.0093 68.7611 24.1199C69.0389 24.228 69.3169 24.4962 69.3169 24.4962C69.3169 24.4962 69.8678 24.0904 70.0105 23.9477C70.153 23.8025 70.1998 23.591 70.3549 23.4656C70.5097 23.3402 70.977 23.2516 70.6918 23.4607C70.4064 23.6697 70.3991 23.778 70.4162 23.8468C70.4335 23.9133 70.9132 23.7632 71.1665 23.9158C71.4198 24.0682 71.4616 24.1716 71.2649 24.1912C71.0681 24.2109 70.6671 24.1568 70.3893 24.2552C70.1137 24.3536 69.9514 24.4298 69.8948 24.5454C69.8383 24.6609 70.1852 24.6733 70.5884 24.6512C70.9919 24.629 71.3337 24.6708 71.4297 24.7398C71.5257 24.8086 71.6583 24.934 71.4616 24.9538C71.2649 24.9733 71.1222 25.1185 71.0188 25.1603L71.0263 25.1554ZM72.0199 24.7052C72.1035 24.4101 71.9143 24.0289 71.6165 23.6304C71.3164 23.2321 71.4911 23.4164 71.2625 23.1459C71.0337 22.8753 70.3499 22.8999 69.9759 23.2024C69.6021 23.5074 69.3194 24.0387 69.3194 24.0387L69.0119 23.7657C68.7044 23.4928 68.4093 23.473 67.9542 23.6328C67.4992 23.7928 67.4377 24.1936 67.5042 24.2822C67.5705 24.3707 67.5927 24.5429 67.5804 24.693C67.568 24.843 67.4698 25.1356 67.5066 25.3644C67.5435 25.5932 67.4795 25.8515 67.6541 26.2967C67.8287 26.7418 67.9492 26.7737 68.0526 26.6975C68.156 26.6213 68.3527 26.363 68.4511 26.2253C68.5495 26.0875 68.7363 26.1073 68.7831 26.2646C68.8298 26.4221 68.5224 26.9337 68.461 27.1279C68.3994 27.3199 68.6626 27.5781 68.7611 27.7011C68.8618 27.824 69.125 28.0135 69.1964 28.1241C69.2652 28.2324 69.5358 28.3873 69.5358 28.3873C69.7177 28.5053 69.8285 28.4365 69.9096 28.2792C69.9932 28.1216 70.0177 28.0798 70.1728 27.9544C70.3277 27.829 70.3007 27.6642 70.3967 27.4453C70.4924 27.2264 70.5664 27.2583 70.7138 27.1648C70.8615 27.069 70.7556 26.5352 70.768 26.2671C70.7804 25.9989 70.8467 25.9818 70.9869 25.9965C71.1272 26.0113 71.7765 26.25 71.9584 26.2893C72.1404 26.3286 71.9093 25.3545 71.9093 25.3545C71.8747 25.2489 71.9363 25.0053 72.0199 24.7101V24.7052Z" fill="#B39243"/>
<path d="M78.2622 25.1458C78.3015 25.1557 78.3482 25.1654 78.4049 25.1753C78.4613 25.1851 78.5204 25.195 78.5867 25.2047C78.6508 25.2146 78.7196 25.222 78.7886 25.2294C78.8573 25.2368 78.9237 25.2393 78.9828 25.2393C79.2435 25.2393 79.4748 25.2146 79.6813 25.1678C79.8854 25.1211 80.0749 25.0449 80.2471 24.9415C80.4168 24.8383 80.5791 24.7055 80.7316 24.5457C80.8816 24.3857 81.0365 24.1915 81.1915 23.9651L81.2628 24.0292L80.6725 25.4533C80.5988 25.4434 80.5224 25.436 80.4462 25.431C80.3675 25.4261 80.2938 25.4236 80.2199 25.4236H77.7776C77.6522 25.4236 77.5267 25.4236 77.4013 25.431C77.2759 25.436 77.1505 25.4434 77.025 25.4533V25.3672C77.1799 25.3524 77.3029 25.3279 77.389 25.2883C77.475 25.2515 77.5416 25.1926 77.5834 25.1114C77.6276 25.0301 77.6546 24.9269 77.6645 24.7965C77.6742 24.6662 77.6816 24.5039 77.6816 24.3045V21.9384C77.6816 21.7392 77.6767 21.5769 77.6645 21.4465C77.6546 21.3162 77.6276 21.2104 77.5834 21.1317C77.5391 21.0505 77.4726 20.9915 77.3815 20.9546C77.2905 20.9177 77.1676 20.8907 77.0127 20.8759V20.7898C77.1602 20.7947 77.2979 20.7996 77.4308 20.8046C77.5636 20.8095 77.6989 20.8119 77.8391 20.8144C77.9792 20.8144 78.1293 20.8169 78.2867 20.8169H78.823C79.1255 20.8169 79.428 20.8169 79.733 20.8095C80.0356 20.8046 80.343 20.7972 80.6552 20.7874C80.6503 20.839 80.6478 20.8907 80.6456 20.9423C80.6456 20.994 80.6431 21.0432 80.6431 21.0899V21.3727C80.6431 21.476 80.648 21.5818 80.6552 21.6876C80.6651 21.7933 80.6725 21.9114 80.6824 22.0368L80.5988 22.0663C80.5422 21.8401 80.4684 21.6556 80.375 21.5105C80.2815 21.3654 80.1733 21.2547 80.0502 21.1735C79.9272 21.0923 79.7919 21.0382 79.6445 21.0112C79.4968 20.9817 79.3419 20.9694 79.1772 20.9694C78.8746 20.9694 78.5721 20.9841 78.2671 21.0112V22.7821C78.3532 22.7821 78.4368 22.7821 78.5179 22.7747C78.5991 22.7698 78.6802 22.7673 78.7688 22.7673C79.0664 22.7673 79.3051 22.7034 79.4797 22.573C79.6543 22.4427 79.7625 22.2065 79.8018 21.8622H79.8805C79.8805 22.0319 79.8805 22.2016 79.8731 22.3713C79.8683 22.541 79.8659 22.7083 79.8659 22.8731C79.8659 23.0379 79.8659 23.2126 79.8731 23.3823C79.878 23.552 79.8805 23.7217 79.8805 23.8914H79.8018C79.7625 23.6921 79.7157 23.5322 79.6591 23.4068C79.6027 23.2814 79.5337 23.1855 79.4476 23.119C79.364 23.0526 79.2583 23.0084 79.1329 22.9838C79.0075 22.9592 78.8573 22.9493 78.6852 22.9493H78.2696V25.1384L78.2622 25.1458Z" fill="#B39243"/>
<path d="M81.8575 22.5144C81.9117 22.5194 81.9681 22.5218 82.0247 22.5218C82.0814 22.5218 82.1378 22.5243 82.192 22.5243C82.2412 22.5243 82.2904 22.5243 82.3396 22.5218C82.3886 22.5218 82.4379 22.5169 82.4871 22.5144V22.5489C82.4354 22.5489 82.3911 22.5587 82.3493 22.5784C82.31 22.598 82.2731 22.6251 82.2387 22.6595C82.2068 22.694 82.1747 22.7358 82.1477 22.7801C82.1207 22.8268 82.0935 22.876 82.0665 22.9276C82.0297 23.0039 81.9903 23.0826 81.9535 23.1638C81.9164 23.245 81.8721 23.3236 81.8231 23.3974C81.882 23.5106 81.9559 23.5942 82.0468 23.6482C82.1378 23.7024 82.2436 23.7392 82.3691 23.7565V23.7909C82.3493 23.7909 82.3248 23.786 82.2953 23.786C82.2682 23.786 82.2387 23.7835 82.2068 23.781C82.1771 23.781 82.1477 23.781 82.1207 23.781H82.0492C81.9977 23.781 81.9436 23.781 81.8944 23.7835C81.8427 23.7835 81.791 23.7885 81.7395 23.7909L81.6485 23.5992C81.5721 23.668 81.4909 23.7246 81.4024 23.7689C81.3138 23.8132 81.218 23.8377 81.1147 23.8377C81.0409 23.8377 80.9719 23.8253 80.9106 23.7983C80.8465 23.7713 80.7924 23.7368 80.7458 23.6902C80.699 23.6435 80.6645 23.5893 80.6375 23.5253C80.6105 23.4614 80.5981 23.3949 80.5981 23.3212C80.5981 23.2425 80.6154 23.1711 80.6474 23.1072C80.6793 23.0432 80.7236 22.9891 80.7753 22.9399C80.8269 22.8907 80.8883 22.8489 80.9573 22.817C81.0261 22.7825 81.0926 22.7579 81.1614 22.7383C81.127 22.7112 81.0877 22.6866 81.0506 22.6595C81.0113 22.6349 80.9769 22.6054 80.9425 22.5759C80.9081 22.5464 80.8809 22.5095 80.8613 22.4702C80.8391 22.4308 80.8294 22.3865 80.8294 22.3349C80.8294 22.2783 80.8416 22.2291 80.8663 22.1848C80.8908 22.1406 80.9252 22.1061 80.9645 22.0766C81.0041 22.0471 81.0506 22.025 81.0998 22.0077C81.1491 21.9905 81.2007 21.9832 81.25 21.9832C81.3113 21.9832 81.3729 21.9881 81.4295 22.0004C81.486 22.0127 81.5377 22.0348 81.5795 22.0643C81.6238 22.0938 81.6557 22.1332 81.6829 22.1824C81.7074 22.2316 81.7197 22.2906 81.7197 22.3619C81.7197 22.4185 81.7098 22.4652 81.6927 22.5021C81.673 22.539 81.6485 22.5735 81.6188 22.6005C81.5869 22.6276 81.5525 22.6522 81.5107 22.6718C81.4713 22.6915 81.4271 22.7112 81.3828 22.7333C81.4738 22.817 81.5475 22.9129 81.6091 23.0162C81.6705 23.1219 81.7271 23.2277 81.7836 23.3335C81.8033 23.3039 81.8278 23.2621 81.855 23.2056C81.882 23.1515 81.9067 23.0924 81.9312 23.0309C81.9559 22.9694 81.9755 22.9104 81.9928 22.8514C82.0074 22.7924 82.0173 22.7432 82.0173 22.7038C82.0173 22.6571 82.0025 22.6227 81.973 22.6005C81.9436 22.5784 81.9042 22.5612 81.86 22.5464V22.5194L81.8575 22.5144ZM80.8465 23.2621C80.8465 23.3137 80.8564 23.363 80.8737 23.4122C80.8933 23.4614 80.9202 23.5057 80.9573 23.545C80.9942 23.5844 81.0384 23.6138 81.0877 23.6385C81.1392 23.663 81.1958 23.6754 81.2623 23.6754C81.3237 23.6754 81.3853 23.663 81.4516 23.636C81.5181 23.6089 81.5721 23.5745 81.6139 23.5327C81.5869 23.4688 81.5624 23.4023 81.5352 23.336C81.5107 23.2695 81.4812 23.2031 81.4516 23.1392C81.4221 23.0752 81.3877 23.0113 81.3509 22.9522C81.3138 22.8932 81.272 22.8366 81.2253 22.7825C81.1097 22.8145 81.0187 22.8711 80.9474 22.9522C80.8762 23.0334 80.8416 23.1367 80.8416 23.2621H80.8465ZM81.0531 22.3349C81.0531 22.389 81.0654 22.4382 81.0926 22.48C81.1196 22.5218 81.149 22.5587 81.181 22.5882C81.2131 22.6177 81.245 22.6399 81.272 22.6571C81.2992 22.6743 81.3163 22.6817 81.3163 22.6817C81.3336 22.6694 81.3531 22.6571 81.3779 22.6448C81.4024 22.63 81.4246 22.6128 81.4466 22.5931C81.4689 22.5735 81.486 22.5464 81.5008 22.5144C81.5156 22.4824 81.523 22.4431 81.523 22.3939C81.523 22.3496 81.5181 22.3078 81.5082 22.2685C81.4983 22.2291 81.4812 22.1922 81.4615 22.1627C81.4392 22.1332 81.4122 22.1086 81.3803 22.0914C81.3484 22.0742 81.3113 22.0643 81.2695 22.0643C81.2327 22.0643 81.2032 22.0717 81.1738 22.0889C81.1466 22.1037 81.1245 22.1258 81.1072 22.1529C81.0901 22.1799 81.0753 22.2094 81.0654 22.2414C81.0556 22.2734 81.0506 22.3078 81.0506 22.3423L81.0531 22.3349Z" fill="#B39243"/>
<path d="M84.2621 20.9692C84.1464 20.9742 84.0308 20.9766 83.9177 20.9791C83.7087 20.984 83.4947 20.9865 83.2758 20.9865C83.0814 20.9865 82.8921 20.984 82.7076 20.9791C82.6485 20.9791 82.5919 20.9742 82.533 20.9717V21.1021C82.5478 21.1045 82.5649 21.107 82.5797 21.1119C82.7051 21.139 82.8083 21.1808 82.8897 21.2423C82.9708 21.3037 83.0297 21.3849 83.0691 21.4882C83.1084 21.5915 83.1282 21.7293 83.1282 21.9039V24.5258C83.1282 24.6955 83.1158 24.8677 83.0888 25.0423C83.0618 25.2194 83.0101 25.3792 82.929 25.5244C82.8479 25.6696 82.7297 25.7901 82.5723 25.8836C82.415 25.9771 82.2057 26.0261 81.945 26.0261C81.8468 26.0261 81.7483 26.0164 81.6524 25.9991C81.5564 25.9818 81.468 25.9474 81.3867 25.8957C81.3055 25.8467 81.2368 25.7777 81.1801 25.6916C81.1237 25.6056 81.0842 25.4925 81.0621 25.3572C81.1138 25.3006 81.1507 25.2194 81.168 25.121C81.1851 25.0203 81.1949 24.9342 81.1949 24.8602C81.1949 24.7669 81.1457 24.6759 81.0498 24.5874C80.9538 24.5013 80.8432 24.457 80.7178 24.457C80.5357 24.457 80.4004 24.5208 80.3193 24.6463C80.2357 24.7717 80.1938 24.907 80.1938 25.0497C80.1938 25.281 80.253 25.4752 80.3734 25.635C80.4939 25.7926 80.6391 25.9204 80.8113 26.0139C80.9834 26.1072 81.163 26.1762 81.3474 26.218C81.5319 26.2598 81.6942 26.2819 81.8295 26.2819C82.0803 26.2819 82.3264 26.25 82.5649 26.1861C82.806 26.1221 83.02 26.0286 83.2068 25.9007C83.3938 25.7753 83.5462 25.6154 83.662 25.426C83.775 25.2367 83.8341 25.0153 83.8341 24.762V21.7612C83.8341 21.6309 83.8463 21.5227 83.8735 21.4366C83.9005 21.3529 83.9423 21.2841 83.9989 21.2324C84.0555 21.1808 84.1317 21.1414 84.2227 21.1143C84.2349 21.1094 84.2497 21.107 84.2646 21.1045V20.9692H84.2621Z" fill="#B39243"/>
<path d="M83.1275 26.7914C83.0562 26.7939 82.9848 26.7964 82.916 26.7989C82.7265 26.8038 82.5373 26.8061 82.3503 26.8061C82.1462 26.8061 81.9617 26.8013 81.7994 26.7939H81.7895V26.976C81.9641 27.0668 82.0527 27.2095 82.0527 27.4111V28.3976C81.8486 28.5451 81.6297 28.6435 81.3935 28.6927C81.1599 28.7419 80.9188 28.7665 80.6753 28.7665C80.3851 28.7665 80.1244 28.7026 79.8981 28.5745C79.6718 28.4466 79.4775 28.2769 79.3175 28.063C79.1577 27.849 79.0348 27.5981 78.9511 27.3104C78.8675 27.0225 78.8257 26.7177 78.8257 26.3954C78.8257 26.1102 78.8675 25.8247 78.9511 25.5395C79.0348 25.2541 79.1577 24.9958 79.3175 24.7672C79.4775 24.5384 79.6718 24.3514 79.8981 24.2089C80.1244 24.0662 80.3851 23.9949 80.6753 23.9949C80.9262 23.9949 81.1426 24.0392 81.3296 24.1253C81.5164 24.2114 81.6814 24.3269 81.8239 24.4696C81.9666 24.6121 82.092 24.7746 82.2026 24.959C82.3134 25.1435 82.4168 25.3305 82.5126 25.5247H82.6036C82.589 25.4435 82.5717 25.3354 82.5494 25.2001C82.5299 25.0648 82.5076 24.9246 82.488 24.7794C82.4683 24.6344 82.4512 24.4941 82.4388 24.3588C82.4265 24.2235 82.4191 24.1154 82.4191 24.0343C82.3183 24.0095 82.21 23.9801 82.097 23.9506C81.9839 23.921 81.8607 23.8915 81.7207 23.8621C81.5829 23.8349 81.4303 23.8104 81.2606 23.7931C81.0934 23.776 80.9041 23.7661 80.6949 23.7661C80.353 23.7661 80.0186 23.8349 79.6915 23.9677C79.3643 24.103 79.0716 24.2876 78.8158 24.5236C78.5576 24.7573 78.351 25.0376 78.1959 25.3624C78.0411 25.687 77.9624 26.0338 77.9624 26.4078C77.9624 26.8357 78.0411 27.2145 78.1959 27.539C78.351 27.8663 78.5576 28.1418 78.8158 28.3655C79.0741 28.5893 79.3667 28.759 79.6915 28.8748C80.0186 28.9903 80.353 29.0469 80.6949 29.0469C81.0172 29.0469 81.3492 28.9977 81.6935 28.8968C82.0379 28.7984 82.3871 28.6903 82.7389 28.5722V27.4997C82.7389 27.3767 82.7587 27.276 82.7955 27.1972C82.8349 27.1185 82.8841 27.0546 82.9479 27.0104C82.9996 26.9735 83.0587 26.9463 83.125 26.9267V26.7964L83.1275 26.7914Z" fill="#B39243"/>
<path d="M20.714 51.0919V54.5623C20.714 54.946 20.741 55.2436 20.7976 55.4576C20.8518 55.6715 20.955 55.8291 21.1026 55.9298C21.2501 56.0332 21.4618 56.097 21.7372 56.1217C22.0127 56.1487 22.3914 56.1611 22.8686 56.1611C23.4467 56.1611 23.9657 56.0725 24.4256 55.8979C24.8854 55.7232 25.3183 55.4625 25.7267 55.1182C26.1349 54.7738 26.5802 54.3164 27.0647 53.7433H27.6968L26.7105 56.5989H17V56.166C17.4673 56.1561 17.824 56.1143 18.0699 56.043C18.3135 55.9716 18.4882 55.8536 18.5913 55.6888C18.6947 55.5241 18.7464 55.2879 18.7464 54.9828V47.181C18.7464 46.8122 18.6997 46.544 18.6037 46.3768C18.5077 46.2096 18.3479 46.0938 18.1216 46.0349C17.8952 45.9734 17.5215 45.9316 17.0025 45.9046V45.4717H26.3219L27.2762 47.9877H26.708C26.403 47.604 26.0317 47.2548 25.5914 46.9425C25.1511 46.6301 24.6616 46.3793 24.1156 46.1898C23.5721 46.0005 22.9965 45.9046 22.3914 45.9046C21.9118 45.9046 21.5526 45.9563 21.3117 46.0595C21.0707 46.1628 20.9082 46.3054 20.8296 46.4899C20.7509 46.6744 20.7115 46.9154 20.7115 47.2154V50.6541H22.2979C23.6802 50.6541 24.3813 50.0194 24.3961 48.7528H24.9495V52.9316H24.4599C24.3961 52.2897 24.2165 51.8249 23.9189 51.532C23.6213 51.2394 23.1687 51.0942 22.5587 51.0942H20.714V51.0919Z" fill="#010201"/>
<path d="M30.1751 52.4201C29.8775 52.4201 29.6093 52.3486 29.3733 52.211C29.1371 52.0708 28.9528 51.8813 28.82 51.6453C28.6871 51.4091 28.6206 51.1632 28.6206 50.9074C28.6206 50.7179 28.6527 50.5408 28.719 50.3786C28.7831 50.2138 28.8739 50.0612 28.9921 49.9162C29.1077 49.771 29.2603 49.6112 29.4495 49.439C29.7028 49.1979 29.9562 48.9913 30.2119 48.8241C29.7276 48.2952 29.4864 47.8821 29.4864 47.5796C29.4864 47.4344 29.5455 47.2696 29.6635 47.0826C29.7815 46.8958 29.9341 46.7138 30.1236 46.5366C30.3129 46.3571 30.512 46.2121 30.7237 46.1038C30.9352 45.9932 31.1294 45.9365 31.3115 45.9365C31.4713 45.9365 31.6165 45.9709 31.7444 46.0374C31.8747 46.1062 31.9853 46.1948 32.0813 46.3078C32.1748 46.4211 32.2485 46.5391 32.3002 46.6596C32.3519 46.7825 32.3789 46.8958 32.3789 46.999C32.3789 47.1516 32.3272 47.3015 32.2265 47.4467C32.1256 47.5919 32.0076 47.7173 31.8772 47.823C31.7468 47.9288 31.523 48.0985 31.2106 48.3321C31.5599 48.7184 31.855 49.0799 32.0986 49.4119C32.342 49.7465 32.5535 50.0515 32.7331 50.3293C32.952 50.0466 33.1168 49.7932 33.2299 49.5743C33.3431 49.3554 33.3973 49.1758 33.3973 49.0405C33.3973 48.8953 33.3382 48.7724 33.2177 48.6741C33.0972 48.5732 32.9372 48.524 32.7331 48.524V48.2806H34.8681V48.524C34.6492 48.5535 34.4425 48.6519 34.2507 48.8191C34.0563 48.9864 33.8646 49.2003 33.6751 49.4586C33.4858 49.7193 33.2276 50.0884 32.9078 50.5655L33.1833 50.9811C33.3726 51.2664 33.5202 51.4608 33.6259 51.5592C33.7317 51.6575 33.8498 51.7067 33.9801 51.7067C34.2114 51.7067 34.4204 51.5271 34.6122 51.1706L34.8286 51.2738C34.7205 51.5395 34.5975 51.7559 34.4622 51.9231C34.3269 52.0904 34.177 52.2158 34.012 52.2996C33.8473 52.3832 33.6751 52.425 33.4955 52.425C33.2645 52.425 33.0381 52.334 32.8118 52.1544C32.5855 51.9748 32.3814 51.7314 32.1993 51.4239C31.8896 51.7388 31.5524 51.9847 31.191 52.1618C30.8294 52.3365 30.4924 52.425 30.18 52.425L30.1751 52.4201ZM32.0444 51.2025C31.9829 51.109 31.8772 50.9517 31.7296 50.7303C31.5821 50.5114 31.4517 50.3219 31.3385 50.167C31.2254 50.0122 31.0827 49.8276 30.908 49.6137C30.7359 49.3997 30.5612 49.2028 30.3841 49.0185C30.0939 49.2669 29.8874 49.4907 29.757 49.6874C29.6291 49.8843 29.5651 50.1005 29.5651 50.3343C29.5651 50.568 29.6291 50.7991 29.757 51.0205C29.8849 51.2419 30.0571 51.4215 30.2686 51.5592C30.4801 51.6968 30.7039 51.7658 30.9377 51.7658C31.3459 51.7658 31.7149 51.5788 32.0444 51.2025ZM31.0359 48.1477C31.3926 47.8895 31.5722 47.6582 31.5722 47.4566C31.5722 47.3557 31.5255 47.2303 31.4344 47.0803C31.3434 46.9302 31.2303 46.7998 31.095 46.6892C30.9597 46.5785 30.8318 46.5243 30.7114 46.5243C30.5736 46.5243 30.4506 46.5785 30.3448 46.6892C30.2391 46.7998 30.185 46.9082 30.185 47.0163C30.185 47.0999 30.2072 47.1811 30.249 47.2647C30.2908 47.3483 30.3621 47.4442 30.4605 47.555C30.5588 47.6656 30.6498 47.7641 30.7383 47.8502C30.8269 47.9362 30.9253 48.037 31.0359 48.1502V48.1477Z" fill="#010201"/>
<path d="M36.5405 45.8066V45.4695H41.745V45.8066C41.2875 45.8237 40.9653 45.8507 40.776 45.8902C40.5865 45.9296 40.439 46.0303 40.3332 46.1903C40.2274 46.3526 40.1759 46.6182 40.1759 46.992L40.1437 53.8125C40.1437 54.3929 39.9176 54.9759 39.4969 55.5908C39.1329 56.1245 38.304 56.6115 37.3964 56.85C36.7815 57.0125 34.5138 56.8673 33.5496 56.5279C33.0011 56.3335 32.8928 55.9449 32.6764 55.7531C32.3543 55.463 32.2558 54.784 32.4035 54.3438C32.4624 54.1692 32.4748 53.9946 32.6175 53.8494C32.7602 53.7042 32.9519 53.6305 33.1929 53.6305C33.434 53.6305 33.6455 53.7067 33.8128 53.8617C33.9775 54.0141 33.98 54.238 34.0859 54.4594C34.3587 55.0422 33.6701 55.3423 33.7119 55.4605C33.7537 55.5785 34.0686 55.9449 34.5531 56.1393C34.895 56.2771 38.0114 57.0444 38.0752 54.1346L38.1885 47.1741C38.1885 46.8421 38.1662 46.5911 38.122 46.4189C38.0777 46.2467 37.999 46.1213 37.886 46.0451C37.7727 45.9664 37.6203 45.9123 37.4234 45.8828C37.2292 45.8507 36.9341 45.8262 36.5405 45.8066Z" fill="#010201"/>
<path d="M62.5992 50.4918C62.5992 50.5138 62.6336 50.59 62.7024 50.7204C62.7713 50.8507 62.8057 50.9762 62.8057 51.0919C62.8057 51.3182 62.7122 51.5198 62.5253 51.6945C62.3385 51.8716 62.1047 51.9577 61.8269 51.9577C61.5489 51.9577 61.3448 51.8887 61.1874 51.7486C61.0299 51.6084 60.9512 51.4486 60.9512 51.2641C60.9512 50.991 61.084 50.7228 61.3497 50.4596C61.6154 50.1966 61.9793 49.9827 62.4466 49.8177C62.9116 49.6529 63.4256 49.5693 63.9889 49.5693C64.3996 49.5693 64.7808 49.6406 65.1375 49.7833C65.4917 49.926 65.7744 50.1425 65.9859 50.4302C66.1975 50.7204 66.3008 51.0696 66.3008 51.478V55.4847C66.3008 55.8045 66.3919 55.9668 66.5764 55.9668C66.687 55.9668 66.8198 55.8807 66.9796 55.7061L67.2723 56.0455C67.014 56.3037 66.7755 56.498 66.5591 56.6283C66.3402 56.7611 66.0819 56.8252 65.7819 56.8252C65.435 56.8252 65.1644 56.7465 64.9702 56.5914C64.7758 56.4366 64.6382 56.1954 64.5594 55.8708C63.8338 56.4957 63.1157 56.8104 62.4072 56.8104C61.9031 56.8104 61.5021 56.6775 61.2045 56.4168C60.9069 56.1536 60.7593 55.8192 60.7593 55.4159C60.7593 55.0543 60.8503 54.7443 61.0324 54.4885C61.2144 54.2328 61.4529 54.0064 61.7505 53.8097C62.0483 53.6129 62.4859 53.362 63.064 53.0595C63.6421 52.757 64.1193 52.4987 64.4906 52.2822V51.0919C64.4906 50.7352 64.4094 50.4646 64.2471 50.2803C64.0847 50.0957 63.8388 50.0047 63.5142 50.0047C63.2312 50.0047 63.0074 50.0564 62.8476 50.1596C62.6877 50.263 62.6066 50.3736 62.6066 50.4942L62.5992 50.4918ZM64.4832 55.3494V52.8185C63.8093 53.1973 63.342 53.5391 63.0764 53.8441C62.8107 54.1491 62.6778 54.518 62.6778 54.9484C62.6778 55.2363 62.7565 55.4602 62.9139 55.62C63.0714 55.7798 63.2559 55.856 63.4674 55.856C63.7994 55.856 64.1388 55.6888 64.4856 55.3519L64.4832 55.3494Z" fill="#010201"/>
<path d="M68.9024 55.5096V48.9006C68.9024 48.549 68.8383 48.271 68.7129 48.0719C68.5875 47.8725 68.2948 47.6979 67.8374 47.5479V47.2749L70.4002 46.5295H70.7077V55.2513C70.7077 55.6129 70.7544 55.8663 70.8454 56.004C70.9365 56.1443 71.1725 56.2131 71.5512 56.2131H71.7652V56.5967H67.8374V56.2131H68.0267C68.3366 56.2131 68.5605 56.154 68.6983 56.0384C68.8358 55.9229 68.9024 55.7458 68.9024 55.5096Z" fill="#010201"/>
<path d="M74.0063 55.3668V47.8898C74.0063 47.4913 73.9425 47.1764 73.8171 46.9502C73.6917 46.7239 73.3988 46.527 72.9414 46.3573V46.0499L75.5044 45.2063H75.8117V55.0742C75.8117 55.485 75.8584 55.7678 75.9494 55.9251C76.0405 56.0827 76.2767 56.1613 76.6554 56.1613H76.8694V56.5942H72.9414V56.1613H73.1309C73.4406 56.1613 73.6645 56.095 73.8023 55.9647C73.94 55.8343 74.0063 55.6325 74.0063 55.3643V55.3668Z" fill="#010201"/>
<path d="M78.5406 53.2047C78.5406 52.5306 78.7004 51.9159 79.0177 51.36C79.3351 50.8017 79.7705 50.3639 80.3189 50.0465C80.8673 49.7292 81.4773 49.5693 82.144 49.5693C82.8104 49.5693 83.391 49.7242 83.9295 50.0342C84.4683 50.3441 84.8937 50.7721 85.2037 51.3205C85.5134 51.8666 85.6685 52.4742 85.6685 53.1431C85.6685 53.6522 85.575 54.1368 85.388 54.5894C85.2012 55.0444 84.943 55.4355 84.6157 55.765C84.2862 56.0922 83.9099 56.348 83.4843 56.5251C83.0588 56.7047 82.6014 56.7933 82.1119 56.7933C81.4553 56.7933 80.8525 56.6431 80.309 56.3431C79.7655 56.043 79.3326 55.6225 79.0153 55.0763C78.6979 54.5328 78.5381 53.9082 78.5381 53.2022L78.5406 53.2047ZM80.496 52.7545C80.496 53.8736 80.6583 54.7542 80.9853 55.3937C81.3126 56.0331 81.7356 56.353 82.2546 56.353C82.5178 56.353 82.7612 56.2446 82.9875 56.0257C83.2139 55.8068 83.3934 55.4847 83.5285 55.0567C83.6614 54.6288 83.7304 54.1024 83.7304 53.4825C83.7304 52.3881 83.5852 51.5347 83.2925 50.9222C83.0023 50.3097 82.5964 50.0022 82.0824 50.0022C81.5684 50.0022 81.1946 50.231 80.9141 50.6934C80.636 51.1533 80.496 51.8419 80.496 52.757V52.7545Z" fill="#010201"/>
<path d="M101.486 45.4693H105.035V45.9022C104.652 46.0769 104.315 46.367 104.022 46.7779C103.729 47.1886 103.449 47.7739 103.183 48.5365L100.303 56.8105H99.8529L96.8154 48.1355L93.795 56.8105H93.3769L90.3712 48.1355C90.103 47.3632 89.9162 46.8541 89.8079 46.6129C89.6998 46.372 89.5595 46.1924 89.3898 46.0769C89.2177 45.9613 88.9643 45.9022 88.6299 45.9022V45.4693H93.276V45.9022C93.2441 45.8973 93.2169 45.8923 93.1924 45.8899C93.1702 45.8899 93.1333 45.8874 93.0865 45.8874C92.3758 45.8874 92.0216 46.1038 92.0216 46.5343C92.0216 46.7606 92.1052 47.1319 92.2749 47.646L94.3976 53.7582L96.5742 47.5181C96.4488 47.0975 96.3209 46.7779 96.1955 46.559C96.0701 46.3401 95.9397 46.1875 95.8093 46.0964C95.679 46.0054 95.5659 45.9564 95.4749 45.9416C95.3839 45.9292 95.1896 45.9146 94.8943 45.8973V45.4644H99.6735V45.8973C99.2945 45.9072 98.997 45.949 98.778 46.0227C98.5591 46.0964 98.451 46.254 98.451 46.4949C98.451 46.7361 98.5739 47.2155 98.8223 47.8995L100.874 53.7508L102.554 48.9152C102.659 48.63 102.748 48.3544 102.817 48.0863C102.888 47.8181 102.922 47.5747 102.922 47.3533C102.922 46.8811 102.804 46.5293 102.568 46.3007C102.332 46.0719 101.971 45.9366 101.488 45.8948V45.4619L101.486 45.4693Z" fill="#010201"/>
<path d="M108.381 49.5693V55.2732C108.381 55.5141 108.405 55.6987 108.457 55.8216C108.506 55.9446 108.602 56.0307 108.742 56.0774C108.882 56.1242 109.096 56.1536 109.384 56.1635V56.5964H105.7V56.1635C106.027 56.1536 106.253 56.0873 106.381 55.9668C106.509 55.8463 106.575 55.6299 106.575 55.3199V51.6994C106.575 51.4731 106.499 51.2641 106.347 51.0672C106.194 50.873 105.978 50.7278 105.7 50.6343V50.381L108.058 49.5693H108.381Z" fill="#010201"/>
<path d="M107.405 45.7273C107.604 45.7273 107.791 45.7765 107.966 45.8725C108.14 45.9707 108.276 46.1036 108.377 46.271C108.478 46.4382 108.527 46.6225 108.527 46.8244C108.527 47.026 108.478 47.2105 108.377 47.3802C108.276 47.5524 108.14 47.6877 107.966 47.7859C107.791 47.8868 107.607 47.936 107.405 47.936C107.105 47.936 106.847 47.8253 106.633 47.6041C106.416 47.3827 106.308 47.1244 106.308 46.8244C106.308 46.63 106.357 46.4479 106.453 46.2757C106.549 46.1036 106.684 45.9707 106.857 45.8725C107.026 45.774 107.211 45.7273 107.405 45.7273Z" fill="#010201"/>
<path d="M113.332 49.5696V50.6173C113.772 50.2754 114.183 50.0147 114.56 49.8376C114.936 49.658 115.384 49.5696 115.905 49.5696C117.393 49.5696 118.138 50.3073 118.138 51.7856V55.3816C118.138 55.7235 118.219 55.9399 118.382 56.0285C118.544 56.117 118.792 56.1613 119.122 56.1613V56.5942H115.319V56.1613C115.657 56.1613 115.902 56.1071 116.057 55.9988C116.212 55.8907 116.291 55.6644 116.291 55.3175V51.5078C116.291 51.2297 116.247 50.9937 116.161 50.8018C116.075 50.6099 115.947 50.4649 115.78 50.3639C115.612 50.263 115.406 50.214 115.165 50.214C114.865 50.214 114.572 50.2927 114.284 50.4476C113.999 50.6026 113.681 50.8387 113.335 51.1535V55.3175C113.335 55.5538 113.374 55.7358 113.453 55.8612C113.531 55.9867 113.637 56.0653 113.772 56.0973C113.908 56.1292 114.1 56.1489 114.353 56.1613V56.5942H110.543V56.1613C110.863 56.1613 111.111 56.1195 111.283 56.0309C111.458 55.9448 111.544 55.7455 111.544 55.4358V51.9407C111.544 51.5938 111.465 51.3134 111.308 51.1018C111.151 50.8879 110.895 50.7281 110.543 50.6173V50.3565L113.034 49.5671H113.335L113.332 49.5696Z" fill="#010201"/>
<path d="M126.585 54.6411L126.9 54.887C126.664 55.3273 126.384 55.6913 126.057 55.9742C125.73 56.257 125.37 56.4685 124.979 56.6063C124.588 56.744 124.18 56.8104 123.752 56.8104C123.174 56.8104 122.635 56.6701 122.138 56.3923C121.642 56.1143 121.248 55.711 120.96 55.1846C120.67 54.6582 120.527 54.0631 120.527 53.3939C120.527 52.8677 120.616 52.3733 120.791 51.9109C120.968 51.4486 121.211 51.0402 121.523 50.6884C121.836 50.3367 122.2 50.0613 122.613 49.8645C123.026 49.6678 123.467 49.5693 123.934 49.5693C124.401 49.5693 124.859 49.6678 125.287 49.8645C125.715 50.0613 126.057 50.3342 126.307 50.681C126.492 50.9343 126.625 51.1926 126.706 51.4583C126.787 51.7239 126.851 52.0438 126.9 52.4176H122.136C122.156 52.9635 122.252 53.4261 122.416 53.8048C122.581 54.1835 122.798 54.4885 123.063 54.7198C123.329 54.9509 123.612 55.1158 123.912 55.2166C124.212 55.3175 124.497 55.3667 124.773 55.3667C125.434 55.3667 126.039 55.1255 126.588 54.6411H126.585ZM122.185 51.9134H124.937V51.6527C124.937 51.3477 124.883 51.0746 124.773 50.8361C124.662 50.5974 124.512 50.4131 124.32 50.285C124.128 50.1571 123.909 50.0908 123.661 50.0908C123.26 50.0908 122.923 50.2679 122.643 50.6246C122.365 50.9786 122.212 51.409 122.185 51.9134Z" fill="#010201"/>
<path d="M130.459 49.5696V50.7845C130.865 50.3271 131.175 50.0098 131.391 49.8351C131.605 49.6582 131.866 49.5696 132.171 49.5696C132.434 49.5696 132.655 49.6629 132.838 49.8499C133.02 50.0369 133.111 50.2729 133.111 50.5559C133.111 50.8387 133.029 51.0969 132.865 51.2938C132.702 51.4905 132.496 51.5889 132.25 51.5889C132.139 51.5889 132.018 51.5667 131.886 51.5249C131.755 51.4831 131.645 51.4266 131.554 51.3601C131.502 51.3183 131.445 51.274 131.389 51.2248C131.33 51.1781 131.281 51.1412 131.236 51.1142C131.192 51.0871 131.143 51.0749 131.091 51.0749C130.99 51.0749 130.892 51.1142 130.796 51.188C130.698 51.2642 130.587 51.37 130.462 51.5078V55.3176C130.462 55.5907 130.501 55.7851 130.575 55.9006C130.651 56.0161 130.769 56.0876 130.929 56.117C131.089 56.1465 131.369 56.1589 131.77 56.1589V56.5917H127.535V56.1589H127.749C128.359 56.1589 128.664 55.9177 128.664 55.4333V51.8915C128.664 51.2864 128.287 50.8706 127.537 50.6445V50.3763L130.078 49.5647H130.464L130.459 49.5696Z" fill="#010201"/>
<path d="M138.775 49.7046H141.496V50.1056C141.237 50.2162 141.018 50.3515 140.841 50.5115C140.662 50.6713 140.512 50.8534 140.389 51.055C140.266 51.2591 140.131 51.5198 139.985 51.8446C139.84 52.1667 139.698 52.5135 139.555 52.8801L137.435 58.2765C136.867 59.7424 136.109 60.4778 135.162 60.4778C134.852 60.4778 134.584 60.3917 134.363 60.222C134.139 60.0522 134.028 59.8456 134.028 59.6022C134.028 59.3906 134.117 59.216 134.291 59.0733C134.468 58.9306 134.678 58.8593 134.919 58.8593C135.034 58.8593 135.162 58.8888 135.302 58.9454C135.443 59.0045 135.578 59.0634 135.713 59.1225C135.846 59.1841 135.969 59.2135 136.08 59.2135C136.426 59.2135 136.739 58.8544 137.019 58.1338L137.437 56.9974L135.064 51.4756C135 51.3133 134.931 51.146 134.855 50.9763C134.778 50.8066 134.695 50.6565 134.606 50.5311C134.518 50.4057 134.405 50.3048 134.267 50.2261C134.129 50.1499 133.962 50.1081 133.763 50.1031V49.7022H137.865V50.1031C137.538 50.1254 137.29 50.1744 137.12 50.2483C136.95 50.3245 136.864 50.4722 136.864 50.6934C136.864 50.9148 136.938 51.2124 137.086 51.5691L138.394 54.5895L139.38 52.1692C139.511 51.8543 139.577 51.5149 139.577 51.151C139.577 50.563 139.311 50.2115 138.78 50.1007V49.6997L138.775 49.7046Z" fill="#010201"/>
<path d="M29.704 55.8809C29.704 56.2574 29.399 56.5599 29.025 56.5599C28.6512 56.5599 28.3462 56.2549 28.3462 55.8809C28.3462 55.5072 28.6487 55.2021 29.025 55.2021C29.4014 55.2021 29.704 55.5072 29.704 55.8809Z" fill="#010201"/>
<path d="M41.9562 55.7826C41.9562 56.1588 41.6512 56.4614 41.2774 56.4614C40.9036 56.4614 40.5986 56.1588 40.5986 55.7826C40.5986 55.4063 40.9036 55.1038 41.2774 55.1038C41.6512 55.1038 41.9562 55.4088 41.9562 55.7826Z" fill="#010201"/>
<path d="M54.4986 56.014C54.4716 56.0261 54.4446 56.041 54.4174 56.0533C54.0682 56.2107 53.6894 56.2893 53.2862 56.2893C52.5975 56.2893 51.9603 56.0679 51.3725 55.6278C50.7848 55.1875 50.3198 54.5652 49.9754 53.7659C49.6311 52.9664 49.4589 52.0563 49.4589 51.0381C49.4589 50.0199 49.6164 49.1025 49.9287 48.3079C50.2411 47.5136 50.6814 46.8937 51.2496 46.446C51.8178 45.9985 52.4647 45.7746 53.1902 45.7746C53.5739 45.7746 53.9452 45.8362 54.3019 45.9566C54.6586 46.0771 55.0005 46.2641 55.3275 46.5125C55.6548 46.7633 55.9694 47.0832 56.2745 47.4718C56.5795 47.8604 56.8525 48.303 57.0935 48.7975H57.519L57.3839 45.3197H56.8083C56.6188 45.5827 56.2794 45.713 55.7901 45.713C55.6105 45.713 55.1677 45.6368 54.4617 45.4844C53.7535 45.3318 53.1311 45.2556 52.5876 45.2556C51.7832 45.2556 51.043 45.4154 50.3714 45.7328C49.6976 46.0501 49.122 46.4855 48.6448 47.0339C48.1652 47.5824 47.7988 48.2144 47.5455 48.9229C47.2897 49.6313 47.1641 50.3618 47.1641 51.1069C47.1641 51.8522 47.2921 52.5976 47.5504 53.2912C47.8087 53.9848 48.1899 54.5973 48.694 55.1284C49.1982 55.6597 49.823 56.0729 50.5634 56.368C51.3038 56.6633 52.135 56.8108 53.0549 56.8108C53.5541 56.8108 54.0609 56.764 54.5725 56.6681C55.0841 56.5748 55.5932 56.4419 56.0949 56.2698C56.5968 56.1001 57.0665 55.9007 57.5019 55.6746V55.3793C56.9631 55.5467 55.9105 55.8344 54.4961 56.014H54.4986Z" fill="#010201"/>
<path d="M53.9785 51.7534V52.2036C54.4926 52.2454 54.8565 52.3095 55.0682 52.398C55.2772 52.4841 55.41 52.634 55.4665 52.848C55.5206 53.062 55.5501 53.4335 55.5501 53.9646C55.5501 54.3016 55.528 54.5821 55.4862 54.8084C55.4444 55.0345 55.3509 55.2438 55.2107 55.4404C55.1714 55.4971 55.1246 55.551 55.0754 55.6027C55.8036 55.465 56.7038 55.2633 57.5055 55.0051V53.9179C57.5055 53.4088 57.5399 53.0472 57.6089 52.8332C57.6777 52.6192 57.813 52.4717 58.0146 52.3906C58.2165 52.3095 58.5779 52.2479 59.0993 52.2061V51.7559H53.981L53.9785 51.7534Z" fill="#010201"/>
</g>
</svg>
