<svg width="234" height="68" viewBox="0 0 234 68" fill="none" xmlns="http://www.w3.org/2000/svg">
<path d="M58.9312 19.0584H52.7043C50.8192 19.0584 49.334 17.5627 49.334 15.6643V9.39405C49.334 7.5532 50.8192 6 52.7043 6H58.9312C60.7592 6 62.3015 7.49567 62.3015 9.39405V15.6643C62.3015 17.5627 60.8163 19.0584 58.9312 19.0584Z" fill="#406EB3"/>
<path d="M42.7627 33.1522H35.7933C33.6796 33.1522 32.0229 31.4264 32.0229 29.3556V22.2798C32.0229 20.2089 33.7367 18.4832 35.7933 18.4832H42.8199C44.9335 18.4832 46.5902 20.2089 46.5902 22.2798V29.3556C46.5902 31.484 44.8763 33.1522 42.7627 33.1522Z" fill="#632678"/>
<path d="M42.131 47.8213H37.8466C36.5899 47.8213 35.5615 46.7859 35.5615 45.5203V41.2058C35.5615 39.9404 36.5899 38.9048 37.8466 38.9048H42.131C43.3877 38.9048 44.416 39.9404 44.416 41.2058V45.5203C44.416 46.7859 43.3877 47.8213 42.131 47.8213Z" fill="#982881"/>
<path d="M53.6174 61.4546H48.5332C47.048 61.4546 45.791 60.2467 45.791 58.6934V53.5737C45.791 52.0779 46.9908 50.8125 48.5332 50.8125H53.6174C55.1026 50.8125 56.3594 52.0204 56.3594 53.5737V58.6934C56.3594 60.2467 55.1598 61.4546 53.6174 61.4546Z" fill="#BA2F7D"/>
<path d="M72.1804 21.6471H68.6957C67.6674 21.6471 66.8105 20.7842 66.8105 19.7487V16.2397C66.8105 15.2042 67.6674 14.3413 68.6957 14.3413H72.1804C73.2087 14.3413 74.0655 15.2042 74.0655 16.2397V19.7487C74.1229 20.7842 73.2658 21.6471 72.1804 21.6471Z" fill="#BA2F7D"/>
<path d="M149.074 24.0056C150.217 24.0056 151.073 23.0852 151.073 21.9922C151.073 20.8416 150.159 19.9788 149.074 19.9788C147.932 19.9788 147.018 20.8992 147.018 21.9922C147.018 23.0852 147.932 24.0056 149.074 24.0056Z" fill="#26478D"/>
<path d="M75.2112 45.7505C74.9256 46.2107 74.4115 46.4407 73.8401 46.4407C73.5545 46.4407 73.1547 46.3832 72.9261 46.2107C72.4692 45.923 72.1836 45.3478 72.1836 44.7725C72.1836 44.4849 72.2408 44.1973 72.412 43.9672L77.0963 36.5464L72.412 29.1256C72.2406 28.8955 72.1836 28.5503 72.1836 28.3203C72.1836 27.745 72.4692 27.1698 72.9833 26.8821C73.2689 26.7094 73.5545 26.6519 73.8401 26.6519C74.4115 26.6519 74.9256 26.8821 75.2683 27.3422L79.0958 33.44L82.9804 27.3422C83.266 26.8821 83.8372 26.6519 84.4084 26.6519C84.6943 26.6519 84.9799 26.7096 85.2655 26.8821C85.7795 27.1698 86.0651 27.745 86.0651 28.3203C86.0651 28.6079 86.008 28.8955 85.8367 29.1256L81.1524 36.5464L85.8367 43.9672C86.008 44.1973 86.0651 44.4849 86.0651 44.7725C86.0651 45.3478 85.7795 45.9806 85.3226 46.2107C85.037 46.3834 84.6943 46.4407 84.4084 46.4407C83.8372 46.4407 83.3803 46.2107 83.0376 45.7505L79.153 39.7103L75.2112 45.7505Z" fill="#26478D"/>
<path d="M91.9482 28.8953C93.719 27.2847 96.1184 26.3066 98.6891 26.3066C104.345 26.3066 108.8 30.8513 108.8 36.4888C108.8 42.0687 104.287 46.6134 98.6891 46.6134C96.1184 46.6134 93.719 45.6354 91.9482 44.0247V52.711C91.9482 53.5739 91.1483 54.3218 90.2915 54.3218C89.4916 54.3218 88.6348 53.5739 88.6348 52.711V28.09C88.6348 27.2271 89.4344 26.4793 90.2915 26.4793C91.2055 26.4793 91.9482 27.2271 91.9482 28.09V28.8953ZM98.6319 29.7008C94.8614 29.7008 91.891 32.6921 91.891 36.4888C91.891 40.2856 94.8614 43.2768 98.6319 43.2768C102.402 43.2768 105.373 40.2856 105.373 36.4888C105.43 32.6921 102.459 29.7008 98.6319 29.7008Z" fill="#26478D"/>
<path d="M137.419 34.6482V44.8304C137.419 45.6932 136.619 46.441 135.762 46.441C134.848 46.441 134.105 45.6932 134.105 44.8304V28.0903C134.105 27.2274 134.905 26.4794 135.762 26.4794C136.562 26.4794 137.362 27.1698 137.419 28.0327C138.79 26.9973 140.561 26.3645 142.446 26.3645C143.474 26.3645 144.274 27.1698 144.274 28.0327C144.274 28.9532 143.474 29.7585 142.446 29.7585C139.875 29.8161 137.419 30.7365 137.419 34.6482Z" fill="#26478D"/>
<path d="M149.077 26.4792C148.163 26.4792 147.42 27.227 147.42 28.0899V44.8875C147.42 45.7504 148.22 46.4982 149.077 46.4982C149.876 46.4982 150.733 45.7504 150.733 44.8875V28.0899C150.733 27.227 149.933 26.4792 149.077 26.4792Z" fill="#26478D"/>
<path d="M170.328 28.0898C170.328 27.2269 171.128 26.4791 171.985 26.4791C172.784 26.4791 173.641 27.2269 173.641 28.0898V44.8874C173.641 45.7501 172.841 46.4981 171.985 46.4981C171.071 46.4981 170.328 45.7501 170.328 44.8874V44.0819C168.5 45.6928 166.158 46.6706 163.587 46.6706C157.932 46.6706 153.476 42.1261 153.476 36.4886C153.476 30.9085 157.989 26.364 163.587 26.364C166.158 26.364 168.5 27.342 170.328 28.9527V28.0898ZM163.587 43.2766C167.357 43.2766 170.328 40.2854 170.328 36.4886C170.328 32.6919 167.357 29.7004 163.587 29.7004C159.817 29.7004 156.846 32.6919 156.846 36.4886C156.846 40.2854 159.817 43.2766 163.587 43.2766Z" fill="#26478D"/>
<path d="M190.604 34.8783C190.604 32.0595 188.205 29.6436 185.405 29.6436C182.72 29.6436 180.207 30.7365 180.207 34.7058V44.8877C180.207 45.7506 179.407 46.4986 178.55 46.4986C177.636 46.4986 176.894 45.7506 176.894 44.8877V28.0903C176.894 27.2274 177.693 26.4794 178.55 26.4794C179.35 26.4794 180.15 27.1698 180.207 28.0327C181.635 26.9398 183.406 26.3645 185.348 26.3645C189.861 26.3645 193.917 29.9312 193.917 34.4181V44.8877C193.917 45.7506 193.117 46.4986 192.261 46.4986C191.347 46.4986 190.604 45.7506 190.604 44.8877V34.8783Z" fill="#26478D"/>
<path d="M71.2115 35.9134C71.1543 30.736 66.5844 26.364 61.1574 26.364C55.5017 26.364 51.0459 30.9085 51.0459 36.4886C51.0459 42.1836 55.5589 46.6706 61.1574 46.6706C63.8422 46.6706 66.3557 45.6352 68.1839 43.7943C68.5267 43.5066 68.7551 42.989 68.7551 42.5288C68.7551 41.6084 67.9552 40.8606 67.0984 40.8606C66.5844 40.8606 66.1273 41.1482 65.7845 41.5508C64.642 42.7589 62.9853 43.3342 61.2143 43.3342C57.844 43.3342 55.1018 41.0331 54.5306 37.8116H69.6119C69.6119 37.8116 69.6119 37.8116 69.6691 37.8116H69.7263H69.7834C69.8406 37.8116 69.8975 37.8116 69.9549 37.7541C70.6405 37.4664 71.2115 36.7762 71.2115 35.9134ZM61.1574 29.7004C64.1849 29.7004 66.6985 31.6565 67.5555 34.4176H54.7021C55.5589 31.6565 58.0724 29.7004 61.1574 29.7004Z" fill="#26478D"/>
<path d="M131.307 35.9134C131.25 30.736 126.622 26.364 121.252 26.364C115.597 26.364 111.141 30.9085 111.141 36.4886C111.141 42.1836 115.654 46.6706 121.252 46.6706C123.937 46.6706 126.451 45.6352 128.279 43.7943C128.622 43.5066 128.85 42.989 128.85 42.5288C128.85 41.6084 128.05 40.8606 127.194 40.8606C126.679 40.8606 126.222 41.1482 125.88 41.5508C124.737 42.7589 123.08 43.3342 121.31 43.3342C117.939 43.3342 115.197 41.0331 114.626 37.8116H129.707C129.707 37.8116 129.707 37.8116 129.764 37.8116H129.821C129.878 37.8116 129.936 37.8116 129.936 37.8116H129.993C130.678 37.524 131.307 36.7762 131.307 35.9134ZM121.252 29.7004C124.28 29.7004 126.794 31.6565 127.651 34.4176H114.797C115.654 31.6565 118.168 29.7004 121.252 29.7004Z" fill="#26478D"/>
<path d="M197.463 46.4978C197.292 46.4978 197.178 46.3828 197.178 46.2101V43.3914H196.549C196.378 43.3914 196.264 43.2765 196.264 43.1038C196.264 42.9313 196.378 42.8162 196.549 42.8162H198.377C198.549 42.8162 198.663 42.9313 198.663 43.1038C198.663 43.2765 198.549 43.3914 198.377 43.3914H197.749V46.2101C197.749 46.3828 197.635 46.4978 197.463 46.4978Z" fill="#26478D"/>
<path d="M200.713 46.4983C200.542 46.4983 200.485 46.3833 200.428 46.2682L199.628 43.9672V46.2106C199.628 46.3833 199.514 46.4983 199.342 46.4983C199.171 46.4983 199.057 46.3833 199.057 46.2106V43.2194C199.057 42.9893 199.228 42.8167 199.456 42.8167C199.628 42.8167 199.799 42.9318 199.856 43.1043L200.656 45.4629L201.456 43.1043C201.513 42.9318 201.684 42.8167 201.856 42.8167C202.084 42.8167 202.256 42.9893 202.256 43.2194V46.2106C202.256 46.3833 202.141 46.4983 201.97 46.4983C201.799 46.4983 201.684 46.3833 201.684 46.2106V43.9672C201.57 44.3124 201.399 44.8876 201.227 45.3478C200.942 46.2682 200.885 46.2682 200.885 46.2682C200.942 46.4409 200.827 46.4983 200.713 46.4983Z" fill="#26478D"/>
</svg>
