<svg width="249" height="68" viewBox="0 0 249 68" fill="none" xmlns="http://www.w3.org/2000/svg">
<path d="M235.293 19.3155C235.293 18.3165 236.28 17.908 237.882 17.908C239.456 17.908 240.472 18.281 240.472 19.3155C240.472 20.5999 238.874 20.7471 237.87 20.7471C236.273 20.7471 235.293 20.338 235.293 19.3155ZM242 19.3155C242 17.359 240.461 16 237.87 16C236.003 16 233.764 16.9051 233.764 19.3155C233.764 21.6222 235.746 22.6557 237.87 22.6557C240.024 22.6557 242 21.6219 242 19.3155ZM235.304 28.4996V27.1075C235.304 26.246 235.863 25.9323 236.316 25.9323C236.818 25.9323 237.346 26.2632 237.346 27.1075V28.4996H235.304ZM238.722 28.4996V27.1714L241.884 25.9779V23.9562L238.351 25.3987C238.035 24.5585 237.194 24.0468 236.285 24.0468C234.807 24.0468 233.881 24.9865 233.881 26.8598V30.3167H241.884V28.4996H238.722ZM236.857 32.0493C234.931 32.2537 233.764 33.2521 233.764 35.2076C233.764 37.547 235.666 38.705 237.882 38.705C240.064 38.705 242 37.5807 242 35.2642C242 33.4689 240.917 32.2425 239.084 32.0493L238.967 33.8207C239.738 33.9236 240.472 34.3207 240.472 35.1732C240.472 36.5481 239.06 36.6728 237.964 36.6728C236.995 36.6728 235.27 36.5481 235.27 35.2642C235.27 34.2642 236.096 33.9685 236.984 33.9585L236.857 32.0493ZM241.884 40.4564H233.881V42.2733H241.884V40.4564ZM241.884 48.2949V49.5444L235.364 51.4218V51.4648H241.884V52.9971H233.881V50.1472L238.676 48.7833L233.881 47.3526V44.5019H241.884V46.3188H235.364V46.3638L241.884 48.2949ZM77.0702 52.9971H46.7802C44.4354 44.5233 39.4671 26.6325 39.4671 26.6325H39.3797V52.9971H26.998V16.5663H48.495C50.7583 24.968 55.4987 42.2556 55.4987 42.2556H55.5864V16.5663H67.9969V22.1013C64.9722 25.2107 63.1362 29.186 63.1362 34.1736C63.1362 41.3328 67.267 50.2148 77.0702 52.9971ZM224.247 16.5663V52.9971H211.271V24.4639H211.087L203.632 52.9971H191.654L184.23 24.4639H184.03V52.9971H161.341L159.078 45.1497H146.886L144.625 52.9971H122.943C122.943 52.9971 122.209 47.628 122.019 46.2863C121.377 41.7728 119.978 40.6792 117.209 40.6792C115.526 40.6792 113.423 40.6792 113.423 40.6792V52.9971H91.214C97.6121 51.5814 103.39 48.7517 106.702 46.804L102.039 29.5844L89.6369 32.7675L92.2815 42.5334C91.5037 43.0696 88.9223 43.9527 87.1537 43.9527C81.2332 43.9527 78.4163 38.1748 78.4163 33.1971C78.4163 25.1855 86.8028 22.1019 94.1961 22.1019C95.9152 22.1019 98.1359 22.2477 98.446 22.2816L96.8987 16.5663C107.83 16.5663 120.234 16.5663 122.746 16.5663C133.091 16.5663 137.1 21.3411 137.1 26.4192C137.1 34.1127 129.565 35.5597 128.128 35.805C128.105 35.8085 128.106 36.0197 128.128 36.0239C131.139 36.5811 133.353 37.9998 134.762 40.4735C134.714 40.3902 142.678 18.5695 143.402 16.5663H163.27L171.652 39.4148H171.765V16.5663H193.134C193.134 16.5663 198.082 36.5138 198.111 36.515C199.727 29.8729 202.963 16.5663 202.963 16.5663H224.247ZM7 16.5663H21.3968C21.3968 16.5663 21.3749 40.7755 21.3749 52.9971C21.2873 52.9971 7.08944 53.0036 7 52.9971V16.5663ZM152.868 24.3897L148.845 36.4015H157.141L153.079 24.3897H152.868ZM113.423 32.4672C113.423 32.4672 116.284 32.4672 117.703 32.4672C121.202 32.4672 122.66 30.7093 122.66 28.5525C122.66 25.8 120.25 24.7186 117.703 24.7186C116.191 24.7186 113.423 24.7196 113.423 24.7196V32.4672Z" fill="#3F71C0"/>
</svg>
