<svg width="230" height="68" viewBox="0 0 230 68" fill="none" xmlns="http://www.w3.org/2000/svg">
<path d="M46.712 43.922C46.7247 44.263 46.7123 44.6043 46.6745 44.9434C46.6039 45.719 46.4109 46.4784 46.1026 47.1937C45.464 48.6536 44.3951 49.8841 43.0387 50.7205C41.708 51.523 40.2276 52.0455 38.688 52.2558C37.9363 52.3662 37.1769 52.4139 36.4173 52.3989C35.6639 52.3881 34.9133 52.3013 34.1772 52.14L34.916 52.0346C36.1192 51.8598 37.3107 51.6119 38.4837 51.2925C39.8493 50.9343 41.1571 50.3842 42.368 49.6584C42.9507 49.2944 43.4899 48.865 43.9749 48.3783C44.4661 47.8968 44.8877 47.3491 45.2277 46.7511C45.5819 46.1436 45.8642 45.497 46.0686 44.8242C46.1944 44.4541 46.2979 44.0766 46.3783 43.694C46.4362 43.4284 46.4906 43.1562 46.5451 42.8838C46.5451 42.8225 46.4703 43.1697 46.4805 43.1051C46.4805 43.1868 46.6132 42.8565 46.6235 42.9348C46.6732 43.2618 46.7027 43.5915 46.712 43.922Z" fill="#373543"/>
<path d="M48.7707 26.8531L47.7187 26.3356L49.9519 21.7942C49.9519 21.7942 50.4218 20.7729 50.1018 19.9355C50.0179 19.732 49.8924 19.5482 49.7336 19.3958C49.5748 19.2435 49.386 19.1258 49.1792 19.0503C47.5962 18.3695 46.2992 20.2384 46.2447 20.3167L45.2744 19.6631C45.9179 18.7065 47.6574 17.1269 49.6422 17.961C49.9948 18.0979 50.3152 18.3062 50.5835 18.5727C50.8518 18.8393 51.0621 19.1583 51.2013 19.5099C51.695 20.8104 51.038 22.2334 51.0108 22.2878L48.7707 26.8531Z" fill="#373543"/>
<path d="M52.7988 27.9698L51.7265 27.4931L51.8388 27.2344C51.8388 27.2072 52.4141 26.0157 51.7469 25.2633C51.2022 24.6471 50.3273 24.6131 49.8847 24.6403L48.843 26.7204L47.7944 26.1994L49.1085 23.5748L49.3878 23.5203C49.4729 23.5033 51.4303 23.1356 52.6252 24.4871C53.8201 25.8386 52.9418 27.6599 52.9043 27.7349L52.7988 27.9698Z" fill="#373543"/>
<path d="M38.3671 23.7586L37.3084 23.2582L39.3509 18.9143C39.4434 18.7154 39.4883 18.4976 39.4817 18.2783C39.4752 18.0591 39.4177 17.8444 39.3136 17.6513C39.2166 17.4716 39.0796 17.3167 38.9131 17.1987C38.7466 17.0806 38.5551 17.0025 38.3536 16.9704H38.2651C37.2437 16.8581 36.7977 17.8896 36.7943 17.8998L36.7604 17.9679L34.6428 21.7126L33.6216 21.1373L35.7322 17.3959C35.9506 16.8807 36.3256 16.4473 36.8039 16.1571C37.2823 15.8669 37.84 15.7345 38.3978 15.7789L38.551 15.7993C38.9331 15.8607 39.2955 16.0105 39.6094 16.2369C39.9232 16.4633 40.1799 16.7599 40.3587 17.1032C40.5482 17.4564 40.6527 17.8489 40.6639 18.2496C40.6752 18.6503 40.5928 19.0481 40.4233 19.4113L38.3671 23.7586Z" fill="#373543"/>
<path d="M43.632 25.7093L42.5768 25.1953L45.1129 20.0105C45.5623 19.0505 45.6678 18.0769 45.3887 17.379C45.2743 17.113 45.1047 16.8743 44.891 16.6789C44.6774 16.4835 44.4246 16.3357 44.1495 16.2453C42.2296 15.5066 40.5172 19.1935 40.5001 19.2309L39.4277 18.7543C39.5163 18.5569 41.5895 13.9883 44.5717 15.1526C44.9977 15.2997 45.3878 15.5354 45.7164 15.844C46.0449 16.1526 46.3046 16.5272 46.478 16.9432C46.8831 17.9645 46.7674 19.2547 46.1683 20.5211L43.632 25.7093Z" fill="#373543"/>
<path d="M16.2609 26.6457C16.4856 26.9215 16.7273 27.2143 16.986 27.5139C16.8276 27.7242 16.695 27.9526 16.5912 28.1947C16.3256 27.8883 16.0738 27.5956 15.8421 27.3096L15.5392 26.935C14.7861 26.0082 14.0935 25.0337 13.466 24.0176L13.3877 23.8848L14.5451 20.1843L15.2703 20.4124L14.9843 21.3214L14.2013 23.8065C14.7539 24.6807 15.354 25.5239 15.9988 26.3325L16.2609 26.6457Z" fill="#00D600"/>
<path d="M21.9013 32.8478C21.9864 33.001 22.0681 33.1541 22.1396 33.3142C21.4893 32.8375 20.8731 32.3473 20.2944 31.8537C19.7872 31.4214 19.3072 30.9856 18.8544 30.5533C18.2757 30.0018 17.7412 29.4571 17.2544 28.9294C17.9467 29.2259 18.6099 29.586 19.2356 30.0052C19.4366 30.1379 19.634 30.2843 19.8246 30.4341C20.0698 30.6611 20.3216 30.8881 20.5803 31.115C21.0982 31.6292 21.5426 32.2123 21.9013 32.8478Z" fill="#00D600"/>
<path d="M61.3894 35.4662L49.4743 46.36L49.2223 46.0434C48.4839 45.2328 47.6467 44.5179 46.7303 43.9157C46.6283 43.8443 46.5227 43.7693 46.4138 43.6979L46.3661 43.6672C44.2149 42.2617 41.9142 41.0994 39.5064 40.2016C39.4761 40.1867 39.444 40.1753 39.4111 40.1675L39.3158 40.1268C39.0467 39.7338 38.7559 39.3565 38.4443 38.9964L38.8527 39.1428H38.8971C41.5859 40.0867 44.1554 41.3411 46.5533 42.8808C46.5778 42.9001 46.6041 42.9172 46.6317 42.9319C47.682 43.5992 48.6548 44.3814 49.5322 45.2638L60.6097 35.1292L60.5179 32.3274L60.4974 31.684L61.2497 31.6602L61.3894 35.4662Z" fill="#00D600"/>
<path d="M61.2497 31.6463L60.9092 31.3672C59.0369 29.791 55.9559 28.5178 52.9635 27.5578L51.8571 27.2208C50.8598 26.928 49.8895 26.6659 48.9942 26.4411L47.8265 26.162C47.0775 25.9884 46.4137 25.8488 45.8792 25.7365C45.1983 25.5935 44.5175 25.4403 43.8638 25.2701C43.4758 25.1713 43.091 25.0658 42.7166 24.9535C42.0629 24.7628 41.4286 24.5552 40.8135 24.3305C40.0136 24.0411 39.2578 23.7347 38.5496 23.4181C38.182 23.2581 37.8279 23.0777 37.4841 22.9245C36.5631 22.4752 35.6666 21.9774 34.7982 21.4334C34.4577 21.2189 34.1173 21.0079 33.8142 20.79C29.8721 18.0836 28.415 15.5031 28.3946 15.4657L28.2414 15.1831L14.5527 20.1704L14.6786 20.5108C14.7774 20.7764 14.8794 21.0351 14.9919 21.2904C15.6055 22.7233 16.3995 24.0721 17.3544 25.3041C17.4327 25.4097 17.5145 25.5152 17.5962 25.6173C17.848 25.9305 18.1068 26.2368 18.3757 26.533L18.6106 26.4786C18.835 26.4355 19.0629 26.4137 19.2914 26.4139C18.9885 26.0939 18.6957 25.7569 18.4132 25.4165C18.3076 25.2939 18.209 25.168 18.1136 25.042C17.0419 23.7001 16.1714 22.2093 15.5297 20.6164L27.901 16.1091C28.6568 17.304 32.044 21.9475 40.5412 25.0318C42.2336 25.6345 43.9676 26.1134 45.7294 26.465C48.8954 27.1152 56.4768 28.8923 60.1126 31.677L49.6239 41.2091C48.6026 40.4023 44.5379 37.5018 38.0493 36.0175C34.5564 35.2224 31.1613 34.0465 27.9248 32.511C27.3767 32.2489 26.8286 31.9663 26.2806 31.6701L26.1104 31.5816C26.3181 31.9595 26.5121 32.3476 26.6891 32.7392H26.7232C27.2338 33.0024 27.7432 33.2509 28.2516 33.4847C28.6908 33.6855 29.13 33.8795 29.5657 34.0634C30.0934 34.2847 30.6109 34.4923 31.1249 34.6865C32.7921 35.3173 34.4909 35.8616 36.2144 36.317H36.2484C36.8441 36.4737 37.3888 36.6064 37.8723 36.7154C45.0962 38.3665 49.3346 41.9205 49.3755 41.9546L49.6273 42.1691L60.5212 32.2966L61.2531 31.6157L61.2497 31.6463Z" fill="#00D600"/>
<path d="M54.2826 33.4338L54.1227 33.3827C54.0456 33.2876 53.9577 33.2019 53.8605 33.1274C53.429 32.7718 53.097 32.3104 52.8965 31.7885C52.6961 31.2666 52.6341 30.7016 52.7166 30.1486L52.7575 29.8797L52.5158 29.7571C50.4459 28.6916 47.3549 27.9699 44.0833 27.2073C40.6791 26.4107 37.1624 25.5868 35.0788 24.3749C32.5665 22.9077 31.6474 21.5629 31.3341 20.8923L31.232 20.6846H31.0006C30.2628 20.6729 29.5514 20.4086 28.9851 19.9357L28.7775 19.7621C28.3076 19.391 27.8345 18.9961 27.6847 18.5467L27.5553 18.145L20.5356 21.2804L20.968 21.6685C21.7203 22.3493 22.0336 24.1536 21.54 24.9536L21.3799 25.2124L21.4548 25.2873L21.6012 25.4234C22.9652 26.7323 24.4466 27.9128 26.0268 28.9503C30.0678 31.6124 35.0074 33.5734 40.9412 34.8942C45.1693 35.8338 46.2757 37.1615 46.4527 37.4339L46.6808 37.7743L46.994 37.5258C48.0153 36.7325 48.9344 36.7735 50.1191 37.6688L50.3711 37.8559L54.9192 33.6278L54.2826 33.4338ZM50.3166 36.8382C49.7623 36.4231 49.0953 36.1857 48.4034 36.1572C47.8383 36.1667 47.2887 36.3432 46.8238 36.6644C46.2519 36.0653 44.7471 34.9419 41.108 34.1283C33.0567 32.3375 26.9086 29.3622 22.323 25.0456C22.7348 24.0243 22.5067 22.4583 21.8395 21.4983L27.1435 19.1152C27.453 19.5768 27.8427 19.9791 28.2941 20.3034C28.3622 20.3601 28.4302 20.4146 28.4984 20.4668C29.1278 21.018 29.9155 21.3563 30.7485 21.4336C31.1843 22.2302 32.2328 23.5987 34.6975 25.0353C36.8797 26.3085 40.4508 27.1426 43.9096 27.9495C46.8748 28.6303 49.9388 29.3588 51.9371 30.3325C51.8822 30.9739 51.9844 31.619 52.2346 32.2121C52.485 32.8053 52.8759 33.3285 53.3736 33.7367C53.4341 33.7837 53.4889 33.8373 53.5371 33.8968L50.3166 36.8382Z" fill="#00D600"/>
<path d="M79.1609 41.3414V44.7934H68.1479V28.582H72.2841V41.3414H79.1609Z" fill="#373543"/>
<path d="M92.7891 38.5366C92.7891 42.3836 90.0656 44.9334 85.9804 44.9334C81.8953 44.9334 79.1411 42.3836 79.1411 38.5366C79.1411 34.6898 81.8647 32.1604 85.9804 32.1604C90.0962 32.1604 92.7891 34.6864 92.7891 38.5366ZM83.1753 38.5809C83.1753 40.5282 84.309 41.8286 85.9804 41.8286C87.6519 41.8286 88.7617 40.5282 88.7617 38.5809C88.7617 36.6337 87.6247 35.3367 85.9804 35.3367C84.3362 35.3367 83.1753 36.6575 83.1753 38.5809Z" fill="#373543"/>
<path d="M105.351 44.7938L102.897 36.8651L100.439 44.7938H96.4523L91.8872 32.3H95.9723L98.546 40.947L101.052 32.3H104.875L107.448 40.947L109.978 32.3H113.896L109.327 44.7938H105.351Z" fill="#373543"/>
<path d="M125.753 39.6258H116.966C117.361 41.1067 118.427 41.9441 119.911 41.9441C120.469 41.9395 121.02 41.8242 121.533 41.6051C122.046 41.3859 122.511 41.0673 122.9 40.6675L125.011 42.7305C123.734 44.1229 121.858 44.9331 119.564 44.9331C115.479 44.9331 112.936 42.3833 112.936 38.5807C112.936 34.71 115.577 32.1602 119.448 32.1602C123.85 32.1602 126.029 35.0505 125.753 39.6258ZM121.902 37.4674C121.902 35.939 120.929 34.9414 119.492 34.9414C118.056 34.9414 117.15 35.9628 116.895 37.4674H121.902Z" fill="#373543"/>
<path d="M131.017 34.4071C131.425 33.6953 132.018 33.1066 132.732 32.7028C133.446 32.2991 134.256 32.0951 135.075 32.1126V35.7313C132.758 35.5202 131.225 36.6097 131.017 38.3731V44.7936H127.007V32.2998H131.017V34.4071Z" fill="#373543"/>
<path d="M149.656 44.7942L149.632 34.6016L145.866 43.2213H143.27L139.505 34.6016V44.7942H135.943V29.0901H140.312L144.569 38.4315L148.826 29.0901H153.172V44.7942H149.656Z" fill="#00D600"/>
<path d="M162.696 46.05C161.801 48.2458 160.275 49.3215 158.036 49.3215C156.755 49.3339 155.511 48.8978 154.52 48.0893L156.133 45.4441C156.569 45.8493 157.138 46.0807 157.732 46.0942C158.052 46.1081 158.367 46.0228 158.636 45.8504C158.904 45.6779 159.114 45.4266 159.234 45.1309L159.527 44.525L154.499 32.7188H158.484L161.444 40.7393L164.065 32.7188H167.918L162.696 46.05Z" fill="#00D600"/>
<path d="M176.743 29.1135C180.261 29.1135 182.5 30.6353 182.5 33.0319C182.509 33.8268 182.247 34.6007 181.759 35.2277C181.271 35.8548 180.584 36.2976 179.811 36.484C180.74 36.6383 181.581 37.1264 182.175 37.8568C182.769 38.5871 183.076 39.5092 183.038 40.4499C183.038 43.1155 180.71 44.7938 177.013 44.7938H169.327V29.1135H176.743ZM173.292 35.3911H176.519C177.683 35.3911 178.422 34.7648 178.422 33.757C178.422 32.7494 177.683 32.1672 176.519 32.1672H173.292V35.3911ZM173.292 41.7334H176.519C177.997 41.7334 178.902 41.0831 178.902 39.9632C178.902 38.9078 177.983 38.2609 176.519 38.2609H173.292V41.7334Z" fill="#373543"/>
<path d="M189.314 29.2628C189.314 29.8045 189.098 30.3241 188.715 30.7072C188.331 31.0901 187.812 31.3053 187.271 31.3053C186.729 31.3053 186.209 31.0901 185.826 30.7072C185.443 30.3241 185.229 29.8045 185.229 29.2628C185.229 28.7211 185.443 28.2016 185.826 27.8185C186.209 27.4354 186.729 27.2202 187.271 27.2202C187.812 27.2202 188.331 27.4354 188.715 27.8185C189.098 28.2016 189.314 28.7211 189.314 29.2628ZM185.327 44.7933V32.7182H189.18V44.7933H185.327Z" fill="#373543"/>
<path d="M192.403 44.7938V28.1707H196.281V44.7938H192.403Z" fill="#373543"/>
<path d="M199.601 44.7938V28.1707H203.48V44.7938H199.601Z" fill="#373543"/>
<path d="M215.977 33.9066L214.656 36.4122C213.199 35.6293 211.854 35.2036 210.846 35.2036C210.166 35.2036 209.659 35.4726 209.659 36.0309C209.659 37.6889 216.02 36.8821 216 41.0932C216 43.5817 213.825 44.9468 210.915 44.9468C208.969 44.985 207.066 44.3874 205.491 43.2447L206.724 40.7799C207.969 41.6961 209.459 42.219 211.003 42.2813C211.765 42.2813 212.324 42.0123 212.324 41.454C212.324 39.6837 206.074 40.603 206.097 36.3679C206.097 33.8794 208.201 32.5347 211.003 32.5347C212.753 32.543 214.47 33.0165 215.977 33.9066Z" fill="#373543"/>
<path d="M39.8947 41.0424C39.8607 40.9811 39.8233 40.9198 39.7858 40.8585C39.6859 40.6951 39.5839 40.5316 39.4793 40.3683L39.316 40.1265C39.047 39.7337 38.756 39.3564 38.4445 38.9963C38.2138 38.7254 37.9695 38.4663 37.7125 38.2202C37.2851 37.8198 36.8301 37.4502 36.3508 37.1138C35.8654 36.7868 35.3555 36.4977 34.8258 36.2491C33.766 35.7682 32.6441 35.4382 31.4928 35.2685C30.9186 35.1875 30.3399 35.1421 29.7601 35.1324C29.4707 35.1324 29.1814 35.1324 28.8954 35.1324C28.6162 35.1436 28.3378 35.1698 28.0614 35.2107L27.5678 35.2822L27.4349 34.7818C27.2412 34.0835 26.9953 33.4008 26.6996 32.7393C26.5227 32.3477 26.3285 31.9596 26.1208 31.5817C25.9541 31.2685 25.7804 30.9588 25.583 30.6626C24.8096 29.3937 23.7786 28.3013 22.5566 27.4556C22.2597 27.257 21.9465 27.0839 21.6203 26.9382C20.8895 26.6008 20.0935 26.4276 19.2885 26.431C19.06 26.4309 18.8319 26.4525 18.6075 26.4958L18.3726 26.5502C17.8545 26.6963 17.3957 27.0025 17.062 27.4251C17.0356 27.4536 17.0116 27.4842 16.9905 27.5169C16.8321 27.7272 16.6994 27.9558 16.5956 28.1979C16.5902 28.2132 16.5834 28.2281 16.5752 28.242C16.5276 28.3612 16.4867 28.4804 16.4492 28.603C16.7181 28.7017 16.9871 28.8072 17.2493 28.923C17.9415 29.2194 18.6048 29.5795 19.2306 29.9987C19.4314 30.1314 19.6289 30.2778 19.8194 30.4276C20.0842 30.64 20.3365 30.8674 20.5752 31.1086C21.0947 31.6246 21.5404 32.2101 21.8996 32.8482C21.9847 33.0014 22.0663 33.1545 22.1379 33.3146C22.3449 33.7518 22.5102 34.2078 22.6315 34.6763C22.7885 35.306 22.8775 35.9508 22.8969 36.5997C22.8987 37.2195 22.8658 37.8389 22.7983 38.4551C22.7626 39.0309 22.7626 39.6086 22.7983 40.1844C22.858 41.3257 23.1089 42.4488 23.5404 43.5071C23.996 44.5521 24.6787 45.4824 25.5387 46.2305C26.4183 46.9953 27.4316 47.5907 28.5278 47.9872H28.5482C29.5969 48.3674 30.6911 48.6078 31.8027 48.702C31.881 48.702 31.9627 48.702 32.041 48.7224H31.8096C30.6715 48.7644 29.5335 48.6383 28.4324 48.348C27.2297 48.044 26.0977 47.5086 25.0996 46.7717C24.0859 46.0145 23.262 45.032 22.6927 43.9019C22.1324 42.7665 21.7861 41.5374 21.6715 40.2763C21.6064 39.6556 21.5802 39.0313 21.5931 38.4073C21.6253 37.8245 21.6253 37.2404 21.5931 36.6576C21.5662 36.1056 21.476 35.5583 21.3243 35.0269C21.1753 34.5047 20.9601 34.0036 20.6843 33.5358C20.4046 33.0706 20.0685 32.6417 19.6833 32.2592C19.2901 31.8788 18.8615 31.5368 18.4033 31.2379C17.4502 30.634 16.4195 30.1621 15.3395 29.8354L14.7505 29.6344L14.8186 29.0285C14.8326 28.9038 14.8531 28.78 14.8798 28.6574C14.9037 28.5451 14.9275 28.4328 14.9582 28.317C15.0186 28.0959 15.0925 27.8788 15.1794 27.6667C15.2813 27.414 15.4043 27.1704 15.5472 26.9382C15.648 26.7697 15.7618 26.6092 15.8876 26.4583L16.0101 26.3085C16.3876 25.8826 16.852 25.5426 17.3718 25.311C17.613 25.1984 17.8652 25.1106 18.1242 25.0488C18.1922 25.0318 18.2672 25.0148 18.3353 25.0046C18.7839 24.9206 19.2415 24.8942 19.697 24.9263C20.1389 24.9506 20.5771 25.0213 21.0043 25.1374C21.1642 25.1782 21.3208 25.2259 21.4707 25.2803C21.734 25.3686 21.9921 25.472 22.2434 25.5901C22.6366 25.7735 23.0135 25.9898 23.3702 26.2369C24.4126 26.979 25.3199 27.8944 26.0528 28.9434C26.2798 29.2725 26.5066 29.6129 26.7336 29.9647C27.2185 30.7753 27.6276 31.6289 27.9558 32.5145C28.0784 32.855 28.1873 33.1682 28.2963 33.5017C28.3542 33.689 28.4086 33.8796 28.4562 34.0703C28.6026 34.0703 28.7524 34.0703 28.9023 34.0703C29.1404 34.0703 29.3754 34.0703 29.6103 34.0907H29.8418C30.4632 34.137 31.0806 34.2245 31.6904 34.3528C32.9113 34.6028 34.0878 35.0355 35.1798 35.6363C35.4499 35.7883 35.712 35.9518 35.9661 36.1265C36.0615 36.1912 36.1568 36.2525 36.2453 36.3239C36.3986 36.4328 36.5517 36.5452 36.7015 36.6643C37.1772 37.0529 37.6202 37.4799 38.0258 37.9409C38.1075 38.0363 38.1892 38.1351 38.2675 38.2337C38.5004 38.5213 38.7174 38.8213 38.9177 39.1324C39.1403 39.4691 39.3438 39.818 39.5271 40.1776C39.6394 40.3989 39.7449 40.6236 39.8403 40.8585C39.8471 40.93 39.8709 40.9879 39.8947 41.0424Z" fill="#373543"/>
</svg>
