<svg width="258" height="68" viewBox="0 0 258 68" fill="none" xmlns="http://www.w3.org/2000/svg">
<g clip-path="url(#clip0_435_1443)">
<path d="M62.4886 21.1447C62.4886 21.1447 67.3291 20.8947 70.9882 24.936C72.4252 26.493 73.4663 28.3764 74.0228 30.4257C72.2723 17.3699 61.1038 7.30377 47.5787 7.28931C34.0557 7.30377 22.8872 17.3699 21.1367 30.4277C21.6925 28.3787 22.7329 26.4952 24.1692 24.9381C27.8284 20.8967 32.6689 21.1467 32.6689 21.1467C44.7106 21.7542 44.7599 33.8802 44.7599 33.8802V60.5848C45.3249 60.6426 45.896 60.686 46.4693 60.7129V32.1922C46.4693 28.3058 45.2509 24.5248 42.5492 21.8265C40.0652 19.3348 36.8478 17.9525 33.4763 17.9091C34.8783 15.4275 36.8731 13.3363 39.2804 11.8244C41.7723 10.2716 44.6452 9.44812 47.5767 9.44633H47.5808C50.5064 9.44633 53.3787 10.2686 55.8791 11.8244C58.2873 13.3351 60.2824 15.4266 61.6832 17.9091C58.3137 17.9525 55.0984 19.3348 52.6144 21.8265C49.9106 24.5248 48.6943 28.3038 48.6943 32.1922V60.7087C49.2655 60.6819 49.8387 60.6405 50.4017 60.5806V33.8781C50.3996 33.8781 50.451 21.7542 62.4886 21.1447ZM63.5713 35.5703C63.5713 35.5703 61.7633 35.6013 60.2409 36.56C58.4226 37.6984 56.5345 40 56.5345 44.7707V59.1963C61.8501 57.2759 66.4287 53.7197 69.6199 49.0331C71.7032 45.6364 71.8059 42.9319 71.28 40.9835C70.5403 38.4587 68.229 35.312 63.5713 35.5703ZM70.3801 29.2976C68.759 28.031 66.349 27.0662 62.7577 27.0662C62.7577 27.0662 52.6206 27.1281 52.6206 36.0352V60.2728C53.1938 60.1571 53.7588 60.0331 54.3176 59.8843V38.4133C54.3176 38.4133 54.2663 36.6901 55.2257 34.779C56.2674 32.5972 58.4966 30.2191 63.2775 30.0868C63.2775 30.0868 67.3065 29.7129 70.3102 32.998C71.7237 34.6157 72.9996 36.5269 73.0284 41.9484C75.5534 34.4257 71.6929 30.4319 70.3801 29.2976ZM32.4018 27.0662C28.8146 27.0662 26.4066 28.031 24.7815 29.2976C23.4707 30.4319 19.6081 34.4236 22.1332 41.9484C22.1599 36.5269 23.4358 34.6157 24.8493 32.998C27.8551 29.7129 31.884 30.0868 31.884 30.0868C36.6609 30.2191 38.8921 32.5992 39.9317 34.779C40.8973 36.6901 40.8439 38.4133 40.8439 38.4133V59.8885C41.4028 60.0352 41.9678 60.1612 42.543 60.2769V36.0352C42.543 27.1281 32.4018 27.0662 32.4018 27.0662ZM34.9248 36.56C33.3982 35.6013 31.5923 35.5703 31.5923 35.5703C26.9326 35.312 24.6192 38.4587 23.8816 40.9835C23.3577 42.9319 23.4584 45.6385 25.5417 49.0331C28.735 53.7185 33.3138 57.2743 38.6291 59.1963V44.7707C38.6291 40 36.7369 37.6984 34.9248 36.56Z" fill="#008AB0"/>
<path d="M102.741 42.188L88.0492 23.4546V41.8574H86.3911V19.5413L86.7815 19.4442L101.354 37.9773V19.7769H103.041V42.1281L102.741 42.188ZM115.687 42.1612C110.569 42.1612 107.495 39.1818 107.495 33.8471V19.7789H109.182V33.8161C109.182 38.3389 111.742 40.6219 115.687 40.6219C119.632 40.6219 122.251 38.2748 122.251 33.8161V19.7789H123.967V33.8471C123.967 39.0289 120.684 42.1612 115.687 42.1612ZM138.84 42.2211C136.487 42.2211 134.385 41.4339 132.46 40.1756L133.274 38.6963C135.051 39.9008 137.005 40.6839 138.994 40.6839C141.911 40.6839 143.867 38.8141 143.867 36.3781C143.867 33.8182 142.154 32.7004 139.022 31.2851C135.622 29.781 133.545 28.2149 133.545 25.1736C133.545 21.9814 136.226 19.4194 140.165 19.4194C142.092 19.4194 143.84 20.0496 145.133 20.9256L144.321 22.3451C143.059 21.4561 141.558 20.9727 140.017 20.9587C137.067 20.9587 135.228 22.7645 135.228 25.0517C135.228 27.4318 137.095 28.5785 139.776 29.812C143.569 31.5289 145.585 33.0103 145.585 36.1653C145.583 39.7831 142.573 42.2211 138.84 42.2211ZM161.573 41.8574L150.883 30.9525V41.8574H149.199V19.7789H150.883V30.0496L161.212 19.7789H163.377L152.511 30.5062L163.8 41.8574H161.573ZM166.87 19.7789H168.557V41.8574H166.87V19.7789ZM189.665 42.188L174.973 23.4546V41.8574H173.317V19.5413L173.705 19.4442L188.282 37.9773V19.7769H189.965V42.1281L189.665 42.188ZM87.4821 47.5703V53.9607H86.9459V47.5703H84.6201V47.1033H89.7996V47.5703H87.4821ZM95.1661 53.9587V50.7066H91.2316V53.9587H90.7057V47.1033H91.2316V50.2355H95.1661V47.1033H95.688V53.9587H95.1661ZM97.1302 53.9587V47.1033H100.999V47.5682H97.6521V50.2438H100.67V50.7108H97.6521V53.4814H100.999V53.9587H97.1302Z" fill="#919195"/>
<path d="M105.802 47.6901C105.393 47.6901 104.943 47.7211 104.701 47.7665V53.2955C104.991 53.3512 105.354 53.3698 105.899 53.3698C107.914 53.3698 108.843 52.1012 108.843 50.4711C108.843 48.8781 107.797 47.6901 105.802 47.6901ZM105.802 54.0165C105.185 54.0117 104.568 53.9731 103.955 53.9008V47.1653C104.475 47.1012 105.05 47.0537 105.74 47.0537C108.309 47.0537 109.656 48.7107 109.656 50.4669C109.654 52.3099 108.374 54.0165 105.802 54.0165ZM110.778 47.1033H111.526V53.9587H110.778V47.1033ZM113.63 47.7748V50.2707H116.564V50.9463H113.63V53.9587H112.882V47.1033H116.89V47.7748H113.63ZM118.475 47.7748V50.2707H121.41V50.9463H118.475V53.9587H117.725V47.1033H121.737V47.7748H118.475ZM122.567 53.9587V47.1033H126.58V47.7748H123.315V50.1426H126.253V50.8182H123.315V53.2872H126.58V53.9587H122.567ZM129.446 47.7273C129.131 47.7273 128.747 47.75 128.505 47.8037V50.593C128.729 50.6219 129.076 50.6405 129.337 50.6405C130.619 50.6405 131.168 50.0517 131.168 49.1612C131.168 48.3554 130.568 47.7273 129.446 47.7273ZM131.558 53.9587L129.738 51.2541L129.281 51.2769C129.055 51.2769 128.729 51.2624 128.505 51.2541V53.9587H127.753V47.1694C128.26 47.1033 128.766 47.0558 129.337 47.0558C131.104 47.0558 131.971 47.9339 131.971 49.1157C131.971 50.0682 131.439 50.7872 130.477 51.095L132.466 53.9587H131.558ZM133.111 53.9587V47.1033H137.126V47.7748H133.857V50.1426H136.797V50.8182H133.857V53.2872H137.126V53.9587H133.111ZM143.489 54.0909L139.041 48.7603V53.9607H138.289V47.0103L138.441 46.9731L142.837 52.219V47.1033H143.581V54.0599L143.489 54.0909ZM148.296 54.0723C146.182 54.0723 144.658 52.5909 144.658 50.5393C144.658 48.5165 146.217 46.9917 148.296 46.9917C149.198 46.9917 150.014 47.3058 150.558 47.6426L150.25 48.2789C149.671 47.9442 148.886 47.6901 148.235 47.6901C146.505 47.6901 145.475 48.9194 145.475 50.5393C145.475 52.1529 146.568 53.3698 148.298 53.3698C148.952 53.3698 149.737 53.1157 150.316 52.781L150.558 53.4132C149.878 53.8354 149.096 54.0633 148.296 54.0723ZM151.382 53.9587V47.1033H155.393V47.7748H152.126V50.1426H155.064V50.8182H152.126V53.2872H155.393V53.9587H151.382Z" fill="#008AB0"/>
<path d="M161.794 47.4938C161.351 47.4938 160.913 47.5248 160.64 47.5702V53.4896C160.934 53.5351 161.332 53.5661 161.838 53.5661C164.017 53.5661 165.121 52.2107 165.121 50.469C165.121 48.8388 163.954 47.4938 161.794 47.4938ZM161.821 54.0248C161.168 54.0248 160.537 53.9669 160.122 53.9091V47.1487C160.537 47.0929 161.137 47.0351 161.784 47.0351C164.338 47.0351 165.684 48.7128 165.684 50.469C165.682 52.3615 164.361 54.0248 161.821 54.0248ZM166.851 53.9586V47.1033H170.721V47.5681H167.377V50.2438H170.393V50.7107H167.377V53.4814H170.721V53.9586H166.851ZM177.793 53.9586L177.674 48.4814L175.116 52.9752H175.034L172.466 48.4669L172.357 53.9586H171.823L172.057 47.0206L172.182 47.002L175.096 52.1942L177.966 47.002L178.089 47.0206L178.321 53.9586H177.793ZM182.784 47.4752C181.136 47.4752 179.961 48.8078 179.961 50.5372C179.961 52.252 181.136 53.5867 182.784 53.5867C184.425 53.5867 185.607 52.252 185.607 50.5372C185.607 48.8078 184.425 47.4752 182.784 47.4752ZM182.763 54.0496C180.881 54.0496 179.385 52.5661 179.385 50.5392C179.385 48.5062 180.912 47.002 182.798 47.002C184.676 47.002 186.176 48.5062 186.176 50.5392C186.176 52.5661 184.651 54.0496 182.763 54.0496ZM192.422 54.0619L187.858 48.2479V53.9586H187.341V47.0289L187.468 47L191.99 52.752V47.1033H192.514V54.0392L192.422 54.0619ZM195.386 54.0723C194.655 54.0723 194.002 53.8264 193.402 53.4338L193.652 52.9731C194.205 53.3512 194.813 53.5929 195.429 53.5929C196.335 53.5929 196.946 53.0165 196.946 52.2541C196.946 51.4628 196.416 51.1177 195.438 50.6735C194.382 50.2086 193.741 49.721 193.741 48.7727C193.741 47.783 194.569 46.9917 195.793 46.9917C196.393 46.9917 196.935 47.188 197.334 47.4566L197.087 47.9008C196.695 47.6243 196.229 47.473 195.75 47.4669C194.836 47.4669 194.26 48.0289 194.26 48.7438C194.26 49.4793 194.842 49.8347 195.672 50.219C196.851 50.752 197.478 51.2086 197.478 52.1942C197.476 53.3099 196.547 54.0723 195.386 54.0723ZM200.923 47.5702V53.9607H200.395V47.5702H198.065V47.1033H203.245V47.5702H200.923ZM205.675 47.5248C205.332 47.5248 205.012 47.5496 204.685 47.6074V50.7066C204.919 50.7334 205.26 50.7582 205.548 50.7582C206.918 50.7582 207.658 50.1115 207.658 49.1157C207.658 48.1983 206.974 47.5248 205.675 47.5248ZM207.987 53.9586L206.115 51.1673C205.924 51.2024 205.733 51.2086 205.517 51.2086C205.239 51.2057 204.962 51.1919 204.685 51.1673V53.9586H204.151V47.1694C204.637 47.0975 205.128 47.0595 205.62 47.0557C207.313 47.0557 208.221 47.8863 208.221 49.0826C208.221 50.0186 207.648 50.7582 206.635 51.0578L208.622 53.9566L207.987 53.9586ZM211.911 48.0578L210.5 51.4153H213.322L211.911 48.0578ZM214.405 53.9586L213.516 51.8636H210.304L209.425 53.9586H208.87L211.876 46.9917H211.969L214.97 53.9586H214.405ZM217.569 47.5702V53.9607H217.035V47.5702H214.705V47.1033H219.887V47.5702H217.569ZM220.793 53.9586V47.1033H224.661V47.5681H221.319V50.2438H224.337V50.7107H221.319V53.4814H224.661V53.9586H220.793ZM227.542 47.4938C227.106 47.4938 226.667 47.5248 226.393 47.5702V53.4896C226.685 53.5351 227.084 53.5661 227.589 53.5661C229.767 53.5661 230.872 52.2107 230.872 50.469C230.872 48.8388 229.701 47.4938 227.542 47.4938ZM227.573 54.0248C227.005 54.0233 226.437 53.9846 225.874 53.9091V47.1487C226.293 47.0929 226.891 47.0351 227.536 47.0351C230.092 47.0351 231.433 48.7128 231.433 50.469C231.431 52.3615 230.112 54.0248 227.573 54.0248ZM232.029 53.219C232.261 53.219 232.438 53.3967 232.438 53.6219C232.439 53.6762 232.429 53.7301 232.409 53.7805C232.389 53.8309 232.359 53.8767 232.321 53.9151C232.283 53.9535 232.237 53.9838 232.187 54.004C232.137 54.0243 232.083 54.0341 232.029 54.033C231.976 54.033 231.923 54.0223 231.874 54.0016C231.825 53.9808 231.781 53.9503 231.744 53.912C231.706 53.8737 231.677 53.8283 231.658 53.7784C231.638 53.7286 231.629 53.6754 231.631 53.6219C231.631 53.3967 231.807 53.219 232.029 53.219Z" fill="#919195"/>
<path d="M156.648 53.219C156.882 53.219 157.059 53.3967 157.059 53.6219C157.06 53.6764 157.05 53.7305 157.03 53.781C157.009 53.8316 156.979 53.8775 156.941 53.9159C156.902 53.9543 156.857 53.9845 156.806 54.0047C156.756 54.0248 156.702 54.0345 156.648 54.033C156.594 54.0333 156.542 54.0228 156.493 54.0022C156.443 53.9815 156.399 53.951 156.362 53.9126C156.324 53.8743 156.295 53.8287 156.276 53.7788C156.257 53.7288 156.248 53.6755 156.249 53.6219C156.249 53.3967 156.424 53.219 156.648 53.219Z" fill="#008AB0"/>
<path d="M233.336 46.9505V49.1716H233.069V46.9505H232.249V46.7088H234.152V46.9505H233.336ZM236.593 49.1695L236.554 47.4298L235.687 48.9154H235.65L234.772 47.4298L234.744 49.1695H234.468L234.567 46.6736L234.612 46.6612L235.676 48.5125L236.718 46.6612L236.769 46.6736L236.864 49.1695H236.593ZM193.973 42.653C194.408 42.6481 194.823 42.4708 195.128 42.1596C195.433 41.8485 195.604 41.4288 195.602 40.9918C195.602 40.5567 195.431 40.1395 195.125 39.8318C194.819 39.5242 194.404 39.3513 193.971 39.3513C193.539 39.3513 193.124 39.5242 192.818 39.8318C192.512 40.1395 192.34 40.5567 192.34 40.9918C192.34 41.8947 193.065 42.653 193.973 42.653ZM193.973 42.4443C193.596 42.4362 193.236 42.2795 192.972 42.0079C192.709 41.7364 192.561 41.3715 192.562 40.9918C192.562 40.1798 193.192 39.5249 193.973 39.5249C194.764 39.5249 195.383 40.1798 195.383 40.9918C195.387 41.3723 195.241 41.739 194.977 42.0113C194.713 42.2837 194.352 42.4394 193.973 42.4443ZM193.708 40.372L193.92 40.3596C194.158 40.3596 194.306 40.4794 194.306 40.6571C194.306 40.8637 194.16 40.9918 193.905 40.9918L193.71 40.9794L193.708 40.372ZM193.474 41.7811H193.708V41.1819L193.873 41.1922L194.01 41.1819L194.382 41.7811H194.664L194.249 41.1344C194.339 41.091 194.416 41.0224 194.469 40.9367C194.522 40.8511 194.55 40.7519 194.548 40.6509C194.548 40.3864 194.335 40.153 193.893 40.153L193.476 40.184V41.7811H193.474Z" fill="#919195"/>
</g>
<defs>
<clipPath id="clip0_435_1443">
<rect width="226" height="62" fill="white" transform="translate(16 3)"/>
</clipPath>
</defs>
</svg>
