<svg width="150" height="68" viewBox="0 0 150 68" fill="none" xmlns="http://www.w3.org/2000/svg">
<mask id="mask0_251_3312" style="mask-type:luminance" maskUnits="userSpaceOnUse" x="15" y="5" width="121" height="58">
<path d="M135.857 5H15V62.3557H135.857V5Z" fill="white"/>
</mask>
<g mask="url(#mask0_251_3312)">
<path d="M129.982 37.4679C130.007 37.4874 130.035 37.5015 130.066 37.5093C130.097 37.5171 130.128 37.5185 130.16 37.5134H133.569C133.722 37.5128 133.874 37.5011 134.025 37.4783C134.222 37.4542 134.41 37.3778 134.568 37.2575C134.727 37.1371 134.849 36.9771 134.924 36.7938C135.055 36.4779 135.151 36.1491 135.213 35.813C135.234 35.7251 135.213 35.601 135.318 35.5725C135.472 35.5389 135.631 35.5389 135.784 35.5725C135.824 35.5803 135.837 35.6321 135.837 35.6747V35.8611C135.789 36.8327 135.747 37.8018 135.688 38.7748C135.662 39.2082 135.713 39.1408 135.309 39.1423H128.927C128.536 39.1423 128.608 39.1615 128.572 38.8135C128.554 38.5564 128.608 38.2991 128.729 38.071C129.497 36.4265 130.589 35.0123 131.852 33.7185C132.243 33.316 132.65 32.9292 133.006 32.4943C133.414 31.9976 133.732 31.4595 133.812 30.8124C133.883 30.3076 133.823 29.7931 133.636 29.3181C133.375 28.6712 132.871 28.3295 132.174 28.274C131.862 28.2412 131.546 28.2711 131.246 28.3619C130.946 28.4526 130.667 28.6021 130.426 28.8019C130.186 28.9899 130.012 29.2472 129.926 29.5381C129.86 29.7695 129.913 29.8652 130.149 29.8564C131.101 29.8187 131.453 30.8357 131.178 31.5267C130.903 32.2176 129.976 32.4323 129.372 31.9226C129.215 31.7923 129.086 31.6324 128.993 31.4519C128.899 31.2714 128.843 31.0742 128.828 30.8718C128.732 29.7761 129.145 28.8858 129.99 28.1949C130.835 27.504 131.85 27.3049 132.929 27.4356C133.334 27.4847 133.73 27.5933 134.103 27.7578C136.124 28.6439 136.179 30.8861 135.378 32.0738C135.066 32.5142 134.694 32.9096 134.272 33.2488C133.811 33.6367 133.326 33.9966 132.838 34.3561C131.999 34.9772 131.212 35.6501 130.589 36.4963C130.359 36.8028 130.157 37.1279 129.982 37.4679ZM105.915 33.0005C106.007 32.9243 106.074 32.8231 106.109 32.7094C106.372 32.1901 106.733 31.7266 107.174 31.3444C107.888 30.7544 108.699 30.612 109.582 30.845C109.878 30.9177 110.151 31.0611 110.379 31.263C110.606 31.4648 110.78 31.7188 110.886 32.0029C111.062 32.4564 111.147 32.9401 111.136 33.4262V37.3374C111.13 37.4925 111.14 37.6475 111.165 37.8008C111.231 38.1267 111.343 38.2406 111.672 38.3002C111.723 38.3096 111.775 38.3151 111.827 38.317C112.204 38.3428 112.208 38.3428 112.204 38.7051C112.197 39.2058 112.269 39.1267 111.774 39.1294H108.551C108.281 39.1294 108.275 39.1294 108.279 38.8565C108.279 38.6935 108.211 38.4956 108.313 38.3739C108.414 38.2522 108.627 38.344 108.787 38.3182C108.889 38.3014 108.993 38.291 109.095 38.2715C109.196 38.2574 109.288 38.2107 109.359 38.1385C109.43 38.0664 109.475 37.973 109.486 37.8731C109.51 37.7303 109.52 37.5857 109.516 37.4409V33.4999C109.521 33.2514 109.495 33.0034 109.439 32.761C109.257 32.0173 108.609 31.669 107.875 31.9228C107.589 32.0265 107.334 32.1996 107.134 32.4261C106.66 32.9544 106.335 33.5974 106.192 34.2904C106.108 34.6536 106.067 35.0254 106.07 35.398V37.3839C106.068 37.5183 106.078 37.6527 106.101 37.785C106.166 38.1215 106.286 38.2522 106.629 38.3026C106.806 38.3213 106.983 38.328 107.16 38.3233C107.262 38.3233 107.318 38.3596 107.311 38.4683C107.311 38.4786 107.311 38.489 107.311 38.4993C107.356 39.1333 107.356 39.1333 106.714 39.1333H103.548C103.294 39.1333 103.294 39.1333 103.287 38.8809C103.286 38.8707 103.286 38.8602 103.287 38.85C103.301 38.6869 103.221 38.4903 103.325 38.37C103.429 38.2496 103.621 38.3338 103.774 38.3221C104.241 38.2846 104.405 38.1267 104.426 37.6674C104.434 37.555 104.435 37.4409 104.435 37.3272V32.7016C104.438 32.5466 104.432 32.3915 104.417 32.2371C104.379 31.9214 104.233 31.7766 103.917 31.7377C103.762 31.7211 103.605 31.7143 103.449 31.717C103.331 31.717 103.277 31.677 103.281 31.5553C103.281 31.4001 103.29 31.2436 103.281 31.0895C103.271 30.9355 103.345 30.9109 103.466 30.9019C103.819 30.8761 104.173 30.8462 104.525 30.8204C104.962 30.7868 105.398 30.7571 105.835 30.7245C106.063 30.7077 106.072 30.7077 106.054 30.9265C106.005 31.5347 105.946 32.1414 105.891 32.7496C105.869 32.8333 105.877 32.9223 105.915 33.0005ZM95.9158 31.7608C95.5778 31.39 95.1638 31.0949 94.7017 30.8951C94.2398 30.6954 93.7399 30.5959 93.236 30.603C92.3011 30.6145 91.4756 30.9912 90.7832 31.6574C89.0423 33.3395 88.9159 36.3023 90.5002 38.1267C91.9347 39.7763 94.2897 39.8551 95.8351 38.3051C97.5576 36.5727 97.5979 33.5245 95.9158 31.7608ZM94.969 37.2196C94.8668 37.5355 94.7058 37.8296 94.4944 38.0865C94.3557 38.2561 94.182 38.394 93.9851 38.4911C93.7881 38.5882 93.5724 38.6421 93.3524 38.6492C93.1326 38.6566 92.9136 38.6167 92.7106 38.5325C92.5076 38.4483 92.3253 38.3219 92.176 38.1615C91.7534 37.7295 91.5473 37.1873 91.4287 36.6153C91.1862 35.4678 91.2005 34.2816 91.4703 33.1402C91.549 32.8065 91.6811 32.4876 91.8615 32.1957C92.5213 31.127 93.8581 31.0842 94.5818 32.1076C94.8797 32.557 95.0755 33.065 95.1556 33.597C95.2478 34.0749 95.2916 34.5608 95.2859 35.0473C95.2994 35.7837 95.1923 36.5174 94.969 37.2196ZM127.085 29.2509H123.714C123.464 29.2486 123.214 29.2689 122.968 29.3117C122.72 29.351 122.485 29.4524 122.287 29.6063C122.089 29.7601 121.933 29.9615 121.835 30.1915C121.665 30.5916 121.537 31.0078 121.452 31.4337C121.428 31.5332 121.438 31.6703 121.346 31.7104C121.196 31.7571 121.036 31.7612 120.883 31.7221C120.791 31.7077 120.818 31.607 120.823 31.5383C120.846 31.2085 120.87 30.8785 120.899 30.5485C120.974 29.6626 121.051 28.7769 121.128 27.8911C121.15 27.6439 121.15 27.64 121.401 27.64H128.157C128.397 27.64 128.38 27.6465 128.406 27.8756C128.436 28.1349 128.413 28.3973 128.339 28.6478C128.265 28.8981 128.142 29.1314 127.976 29.3336C127.224 30.3269 126.579 31.395 126.051 32.5206C125.495 33.6609 125.21 34.9127 125.219 36.1794C125.219 36.5818 125.262 36.9843 125.299 37.3853C125.331 37.7047 125.343 38.0257 125.332 38.3465C125.323 38.522 125.283 38.6945 125.214 38.8563C125.157 39.0022 125.059 39.1286 124.932 39.2203C124.805 39.3121 124.654 39.3656 124.496 39.3737C124.336 39.3998 124.17 39.3778 124.022 39.3104C123.874 39.2433 123.749 39.1339 123.663 38.996C123.493 38.7232 123.397 38.4112 123.384 38.0904C123.315 37.2002 123.478 36.3411 123.74 35.4949C124.157 34.1415 124.8 32.8917 125.517 31.6756C125.943 30.9511 126.402 30.2523 126.879 29.5575C126.938 29.4735 126.992 29.3893 127.085 29.2509ZM113.753 34.6036V31.9966C113.753 31.7598 113.753 31.7583 113.512 31.7559H112.73C112.469 31.7559 112.469 31.7559 112.462 31.4777C112.461 31.457 112.461 31.4363 112.462 31.4156C112.469 31.1569 112.402 31.1399 112.748 31.0404C113.076 30.9509 113.379 30.7853 113.63 30.5571C113.881 30.3292 114.074 30.045 114.193 29.7284C114.387 29.2255 114.512 28.6988 114.565 28.163C114.585 27.9997 114.607 27.8356 114.619 27.6699C114.627 27.5677 114.672 27.5341 114.774 27.5236C115.411 27.4603 115.412 27.4603 115.412 28.089V30.541C115.412 30.9382 115.381 30.8994 115.789 30.9007H117.571C117.806 30.9007 117.808 30.907 117.812 31.145C117.812 31.2745 117.802 31.4156 117.812 31.5488C117.828 31.7196 117.749 31.7571 117.594 31.7559H115.655C115.37 31.7559 115.369 31.7559 115.369 32.047V36.7049C115.364 36.9736 115.389 37.2424 115.443 37.5058C115.546 37.9534 115.798 38.225 116.155 38.2754C116.362 38.3145 116.577 38.285 116.765 38.1916C116.953 38.098 117.106 37.9458 117.198 37.758C117.423 37.37 117.483 36.9415 117.538 36.5107C117.581 36.1717 117.582 36.168 117.921 36.1729C118.312 36.1794 118.329 36.0772 118.294 36.5805C118.271 37.0566 118.171 37.5257 117.998 37.9702C117.476 39.2549 116.093 39.7699 114.841 39.1449C114.228 38.8397 113.941 38.3092 113.813 37.6713C113.767 37.4273 113.744 37.1795 113.747 36.9312C113.757 36.1549 113.755 35.3785 113.753 34.6036ZM100.914 34.306V37.4112C100.91 37.5455 100.917 37.6801 100.933 37.8135C100.98 38.1215 101.105 38.2481 101.412 38.3051C101.515 38.3194 101.619 38.3272 101.722 38.3284C101.969 38.3389 101.969 38.3375 101.973 38.5937V38.8731C101.973 39.1318 101.973 39.1318 101.69 39.1318H98.7192C98.5459 39.1165 98.302 39.2148 98.2159 39.0814C98.0986 38.8991 98.178 38.6416 98.1807 38.4165C98.1807 38.3336 98.2512 38.3284 98.3112 38.3245C98.4663 38.3168 98.624 38.3245 98.7778 38.2987C98.8987 38.2889 99.0122 38.2379 99.099 38.1539C99.1861 38.0701 99.2408 37.9589 99.2539 37.8395C99.2762 37.7069 99.2862 37.5726 99.2838 37.4384V32.5968C99.2864 32.4728 99.2776 32.3489 99.2578 32.2266C99.1953 31.8917 99.0558 31.7622 98.7166 31.7299C98.54 31.7161 98.363 31.7114 98.1858 31.7157C98.0648 31.7157 98.0162 31.6678 98.0215 31.55C98.0269 31.4322 98.0215 31.3429 98.0215 31.2395C98.0215 30.9121 98.0215 30.9109 98.3632 30.8863L100.67 30.7206C100.902 30.7038 100.906 30.7026 100.906 30.9511V34.0239L100.914 34.306ZM98.5959 27.9636C98.5969 27.7228 98.6699 27.4876 98.8053 27.2877C98.9409 27.0879 99.1332 26.9325 99.3577 26.8409C99.5822 26.7493 99.8291 26.726 100.067 26.7735C100.305 26.8212 100.523 26.9376 100.695 27.1084C100.866 27.2791 100.983 27.4962 101.029 27.7326C101.077 27.9688 101.052 28.2138 100.959 28.4362C100.866 28.6585 100.708 28.8486 100.506 28.9823C100.304 29.1161 100.067 29.1874 99.8244 29.1874C99.4978 29.1865 99.1852 29.0571 98.955 28.8277C98.7246 28.5982 98.5955 28.2875 98.5959 27.9636ZM87.9581 27.7477C87.7153 27.6062 87.4611 27.4853 87.1979 27.3866C86.3689 27.1002 85.4961 26.9601 84.6185 26.9726C83.8465 26.9648 83.0744 26.9726 82.3026 26.9726H79.7988C79.2552 26.9726 79.2552 26.9726 79.2615 27.5122C79.2615 27.7774 79.2615 27.7787 79.5356 27.7813C79.8275 27.7692 80.1198 27.783 80.4092 27.8227C80.7573 27.8862 80.9242 28.04 80.9908 28.3803C81.0072 28.4717 81.0147 28.5644 81.0129 28.6572V37.445C81.0141 37.5693 80.9996 37.693 80.9699 37.8137C80.9467 37.9259 80.891 38.0288 80.8097 38.1099C80.7284 38.191 80.6249 38.2467 80.5123 38.2705C80.2984 38.3182 80.0792 38.3379 79.8603 38.3286C79.2187 38.3286 79.2187 38.3286 79.2603 38.9602C79.2609 38.9704 79.2609 38.9809 79.2603 38.9911C79.2603 39.0972 79.3074 39.141 79.4102 39.1361H84.7933C84.8506 39.1361 84.8963 39.1089 84.8975 39.0468C84.8975 38.8217 84.977 38.5642 84.865 38.379C84.7828 38.2498 84.535 38.3391 84.3617 38.3313C84.1529 38.3223 83.9442 38.3248 83.7357 38.3313C83.5999 38.3288 83.4649 38.3092 83.334 38.2729C83.2207 38.2496 83.1173 38.1922 83.0378 38.1088C82.9583 38.0253 82.9065 37.9196 82.8895 37.8059C82.8686 37.7153 82.8569 37.6232 82.8542 37.5304V34.1146C82.8542 33.9477 82.9206 33.9039 83.0759 33.9063C83.5105 33.9125 83.9487 33.9125 84.3903 33.9063C85.121 33.9059 85.8484 33.8072 86.5522 33.6126C87.269 33.421 87.931 33.0667 88.4862 32.5775C89.8371 31.3353 89.8371 28.8305 87.9581 27.7477ZM87.2538 31.2991C87.0152 32.276 86.3488 32.7924 85.3853 32.9812C84.9848 33.0484 84.5786 33.0757 84.1726 33.0628H83.1084C82.8477 33.0628 82.8477 33.0628 82.8477 32.8041V28.74C82.8477 28.0245 83.0537 27.7994 83.7605 27.7787C84.3328 27.7404 84.9076 27.7703 85.4725 27.868C86.5811 28.1033 87.1535 28.696 87.3126 29.8087C87.3896 30.3046 87.3698 30.8107 87.2538 31.2991Z" fill="#5A5A5C"/>
<path d="M60.4416 42.3162C60.4414 42.6624 60.3027 42.9944 60.0561 43.2392C59.8092 43.484 59.4747 43.6216 59.1257 43.6216C58.8655 43.6216 58.6111 43.545 58.3948 43.4016C58.1783 43.258 58.0097 43.0542 57.9101 42.8156C57.8106 42.5769 57.7846 42.3145 57.8354 42.0612C57.886 41.808 58.0113 41.5753 58.1955 41.3928C58.3794 41.2102 58.614 41.0859 58.8692 41.0355C59.1244 40.9851 59.3889 41.0109 59.6294 41.1099C59.8699 41.2086 60.0753 41.376 60.2197 41.5906C60.3643 41.8055 60.4416 42.0579 60.4416 42.3162ZM40.1374 17.3487C40.1415 17.0918 40.222 16.8418 40.3687 16.6301C40.5154 16.4185 40.7221 16.2545 40.9623 16.1589C41.142 16.0873 41.3354 16.056 41.5285 16.0671C41.7219 16.0783 41.9103 16.1317 42.0804 16.2235C42.2504 16.3153 42.3979 16.4433 42.5124 16.5983C42.6269 16.7532 42.7053 16.9314 42.7424 17.1199C42.7795 17.3085 42.774 17.5029 42.7264 17.6891C42.6791 17.8754 42.5906 18.0489 42.4677 18.1973C42.3448 18.3458 42.1904 18.4654 42.0154 18.5478C41.8405 18.6301 41.6494 18.673 41.4558 18.6736C41.2809 18.6747 41.1076 18.641 40.9462 18.5747C40.7845 18.5082 40.6381 18.4104 40.5152 18.287C40.3923 18.1635 40.2956 18.0169 40.2306 17.8557C40.1657 17.6946 40.1342 17.5222 40.1374 17.3487Z" fill="#04609E"/>
<path d="M31.1734 43.6107C31.0007 43.6107 30.8298 43.5771 30.6703 43.5115C30.5109 43.446 30.3659 43.3499 30.244 43.2289C30.1219 43.1078 30.025 42.964 29.9591 42.8057C29.8929 42.6475 29.8589 42.4779 29.8589 42.3067C29.8589 42.1354 29.8929 41.9658 29.9588 41.8075C30.025 41.6493 30.1217 41.5055 30.2438 41.3845C30.3659 41.2632 30.5107 41.1671 30.6703 41.1016C30.8296 41.036 31.0005 41.0024 31.1732 41.0024C31.5218 41.0024 31.8561 41.1397 32.1025 41.3843C32.3489 41.6288 32.4874 41.9607 32.4876 42.3065C32.4876 42.6524 32.3491 42.9841 32.1027 43.2287C31.8561 43.4732 31.5218 43.6107 31.1734 43.6107Z" fill="#044D82"/>
<path d="M37.7421 46.4059C37.5479 46.4053 37.3561 46.3619 37.1808 46.2789C37.0054 46.1962 36.8506 46.0755 36.7279 45.9262C36.605 45.7769 36.5171 45.6024 36.4702 45.4153C36.4235 45.2281 36.4192 45.0331 36.4575 44.844C36.496 44.6552 36.5763 44.477 36.6924 44.3225C36.8086 44.1678 36.9579 44.0408 37.1294 43.9503C37.301 43.86 37.4907 43.8083 37.6847 43.7993C37.8787 43.7901 38.0725 43.8239 38.2519 43.8981C38.4918 43.9972 38.6966 44.1648 38.8404 44.3794C38.9844 44.5943 39.061 44.8465 39.0604 45.1044C39.0594 45.4504 38.9201 45.7818 38.6729 46.026C38.4256 46.2699 38.0909 46.4068 37.7421 46.4059Z" fill="#044C82"/>
<path d="M42.7662 48.784C42.7641 48.9767 42.7193 49.1666 42.6345 49.3399C42.5497 49.5134 42.4272 49.666 42.2758 49.7869C42.1244 49.9077 41.948 49.9938 41.7592 50.0388C41.5703 50.0839 41.3737 50.087 41.1836 50.0476C40.9933 50.0085 40.8142 49.9278 40.6592 49.8117C40.5043 49.6955 40.3771 49.5466 40.287 49.3758C40.1969 49.2049 40.146 49.0165 40.1383 48.8239C40.1305 48.6314 40.1657 48.4392 40.2417 48.2618C40.3431 48.0244 40.5131 47.8222 40.7305 47.6807C40.9476 47.5391 41.2022 47.4648 41.4622 47.4668C41.8102 47.4726 42.142 47.6139 42.386 47.8603C42.63 48.1068 42.7666 48.4384 42.7662 48.784Z" fill="#04609E"/>
<path d="M29.8589 27.5627C29.8577 27.3915 29.8909 27.2217 29.9567 27.0635C30.0222 26.9052 30.1191 26.7616 30.2416 26.6409C30.3641 26.5203 30.5095 26.4252 30.6697 26.3613C30.8297 26.2974 31.0009 26.2659 31.1734 26.2687C31.4346 26.2681 31.69 26.3447 31.9074 26.4885C32.1245 26.6323 32.2937 26.8372 32.3932 27.0766C32.4932 27.3161 32.5188 27.5797 32.4672 27.8337C32.4158 28.0877 32.2892 28.3208 32.1036 28.5034C31.9649 28.6396 31.7976 28.7436 31.6134 28.808C31.4293 28.8723 31.233 28.8952 31.0388 28.8749C30.8446 28.8549 30.6576 28.792 30.4909 28.6912C30.3241 28.5904 30.182 28.4542 30.0748 28.2924C29.9317 28.0756 29.8565 27.8216 29.8589 27.5627Z" fill="#044C82"/>
<path d="M40.1374 52.4466C40.1398 52.2754 40.1761 52.1062 40.2445 51.9491C40.3129 51.7918 40.4118 51.6492 40.5356 51.53C40.6595 51.4106 40.8058 51.3165 40.9661 51.2532C41.1265 51.1901 41.298 51.1588 41.4707 51.1613C41.7306 51.165 41.9836 51.2453 42.1977 51.3915C42.4117 51.538 42.577 51.744 42.6731 51.9839C42.7692 52.2236 42.7913 52.4862 42.737 52.7383C42.6825 52.9907 42.5539 53.2212 42.3675 53.401C42.1811 53.5807 41.9451 53.7015 41.6894 53.7482C41.4338 53.7949 41.1698 53.7654 40.9311 53.6632C40.6925 53.561 40.4895 53.391 40.3481 53.1745C40.207 52.9579 40.1335 52.7047 40.1374 52.4466Z" fill="#048BD1"/>
<path d="M31.1666 32.5614C30.8182 32.5598 30.4845 32.4207 30.2393 32.1749C29.9939 31.929 29.8573 31.5966 29.8589 31.2508C29.8607 30.9048 30.0009 30.5738 30.2485 30.3305C30.4962 30.0871 30.8313 29.9513 31.1797 29.9531C31.5284 29.9548 31.862 30.0939 32.1072 30.3397C32.3524 30.5855 32.4893 30.9179 32.4876 31.2637C32.4868 31.435 32.452 31.6046 32.3852 31.7623C32.3182 31.9202 32.2207 32.0636 32.098 32.1841C31.9753 32.3047 31.8301 32.4 31.6701 32.4647C31.5103 32.5294 31.3393 32.5624 31.1666 32.5614Z" fill="#044D82"/>
<path d="M59.1339 32.5617C58.8731 32.5635 58.6177 32.4885 58.3999 32.346C58.1822 32.2036 58.0121 32 57.9112 31.7613C57.8104 31.5225 57.7833 31.2595 57.8337 31.0055C57.8841 30.7515 58.0097 30.5181 58.194 30.3352C58.3786 30.1523 58.6138 30.028 58.8696 29.9782C59.1257 29.9282 59.3907 29.9548 59.6312 30.0548C59.8717 30.1548 60.0769 30.3235 60.2205 30.5395C60.3643 30.7556 60.4399 31.0089 60.4381 31.2679C60.4401 31.5243 60.3647 31.7757 60.2216 31.9891C60.0784 32.2028 59.874 32.3689 59.6347 32.466C59.4757 32.5305 59.3055 32.5631 59.1339 32.5617ZM37.7203 50.084C37.3725 50.0814 37.0402 49.9421 36.7956 49.6967C36.5513 49.4513 36.4148 49.1196 36.4163 48.7747C36.4128 48.5991 36.445 48.4248 36.5107 48.2618C36.5765 48.0987 36.6746 47.9506 36.7991 47.8259C36.9868 47.638 37.227 47.5108 37.4888 47.4608C37.7506 47.4111 38.0216 47.4408 38.266 47.5464C38.5102 47.6519 38.7166 47.8283 38.8582 48.0524C38.9999 48.2763 39.07 48.5377 39.0596 48.8017C39.0524 49.1477 38.9074 49.4769 38.6564 49.7172C38.4055 49.9574 38.0689 50.0894 37.7203 50.084Z" fill="#04609E"/>
<path d="M29.8549 34.9283C29.8573 34.5836 29.9972 34.2538 30.2441 34.0112C30.4909 33.7687 30.8246 33.6333 31.172 33.6345C31.3453 33.6362 31.5165 33.6716 31.6761 33.739C31.8355 33.8064 31.9799 33.9043 32.1014 34.027C32.3461 34.2751 32.482 34.6096 32.4785 34.9568C32.4768 35.1286 32.441 35.2987 32.3732 35.457C32.3052 35.6151 32.2066 35.7585 32.0827 35.879C31.8328 36.1219 31.4958 36.2565 31.1458 36.2532C30.9731 36.2516 30.8023 36.2157 30.6435 36.1481C30.4847 36.0803 30.3412 35.982 30.2211 35.8587C30.1011 35.7354 30.0069 35.5897 29.944 35.43C29.8811 35.2704 29.8508 35.0998 29.8549 34.9283Z" fill="#034C82"/>
<path d="M56.7341 34.9359C56.7337 35.1948 56.6557 35.4478 56.51 35.6624C56.3644 35.8773 56.1577 36.0445 55.9162 36.1424C55.7357 36.2157 55.5411 36.2483 55.3463 36.2381C55.1515 36.2276 54.9614 36.1743 54.79 36.0822C54.6185 35.99 54.4696 35.8611 54.3545 35.7051C54.2392 35.549 54.1603 35.3693 54.1234 35.1792C54.087 34.9891 54.0933 34.7933 54.1421 34.6059C54.191 34.4186 54.2811 34.2443 54.4061 34.0958C54.5313 33.9473 54.688 33.8281 54.8649 33.747C55.0419 33.6656 55.2351 33.6247 55.4301 33.6265C55.7777 33.6292 56.1102 33.7687 56.3546 34.0141C56.5989 34.2593 56.7354 34.5909 56.7341 34.9359Z" fill="#044D82"/>
<path d="M27.4461 43.6111C27.1859 43.6098 26.9321 43.532 26.7166 43.3874C26.5009 43.243 26.3336 43.0381 26.2355 42.7991C26.1371 42.56 26.1128 42.2974 26.165 42.0446C26.2172 41.7916 26.344 41.56 26.5292 41.3785C26.7144 41.1972 26.9495 41.0745 27.205 41.0257C27.4604 40.9772 27.7249 41.0048 27.9643 41.1054C28.204 41.2058 28.4082 41.3748 28.551 41.5905C28.694 41.8062 28.7692 42.0592 28.7671 42.3173C28.7671 42.4885 28.7327 42.6581 28.6661 42.8163C28.5995 42.9744 28.502 43.1178 28.3791 43.238C28.2562 43.3585 28.1104 43.4533 27.9504 43.5174C27.7902 43.5816 27.6188 43.6133 27.4461 43.6111Z" fill="#04609E"/>
<path d="M62.845 43.6107C62.4961 43.6107 62.1616 43.4731 61.9148 43.2283C61.6682 42.9835 61.5295 42.6515 61.5293 42.3053C61.5293 42.047 61.6065 41.7946 61.7509 41.5797C61.8956 41.3651 62.101 41.1977 62.3415 41.099C62.582 41 62.8466 40.9742 63.1019 41.0246C63.3571 41.0752 63.5914 41.1996 63.7754 41.3823C63.9595 41.5648 64.0849 41.7975 64.1357 42.0507C64.1865 42.3041 64.1603 42.5665 64.0607 42.8051C63.9612 43.0435 63.7924 43.2476 63.5761 43.3909C63.3596 43.5343 63.1051 43.611 62.845 43.6107Z" fill="#048BD1"/>
<path d="M29.8591 23.9005C29.854 23.643 29.9265 23.3898 30.0673 23.1734C30.208 22.9569 30.4106 22.787 30.649 22.6854C30.8076 22.6181 30.9778 22.5825 31.1501 22.5809C31.3231 22.5791 31.4948 22.6112 31.6552 22.6753C31.8156 22.7394 31.9618 22.8343 32.0854 22.9545C32.2714 23.1354 32.3992 23.367 32.4524 23.6201C32.5059 23.8731 32.4823 24.1361 32.385 24.3757C32.2877 24.6154 32.1208 24.8213 31.9057 24.9669C31.6906 25.1126 31.4368 25.1918 31.1763 25.1943C31.004 25.1961 30.833 25.164 30.6732 25.0997C30.5134 25.0355 30.3682 24.9405 30.2457 24.8203C30.1232 24.6998 30.0259 24.5566 29.9597 24.3989C29.8934 24.241 29.8591 24.0716 29.8591 23.9005Z" fill="#034C82"/>
<path d="M51.2755 17.3512C51.2788 17.0924 51.3593 16.8404 51.507 16.6271C51.6547 16.4138 51.8628 16.2488 52.1051 16.153C52.3474 16.0573 52.6131 16.0351 52.8681 16.0892C53.1232 16.1434 53.3563 16.2715 53.538 16.4572C53.7197 16.643 53.8417 16.8781 53.8887 17.1328C53.9354 17.3876 53.905 17.6503 53.801 17.8878C53.6971 18.1253 53.5242 18.3268 53.3049 18.4667C53.0853 18.6065 52.8286 18.6786 52.5678 18.6735C52.22 18.6673 51.8888 18.5248 51.6467 18.277C51.4045 18.0292 51.2712 17.6963 51.2755 17.3512Z" fill="#04609E"/>
<path d="M37.7286 22.3557C37.3804 22.3525 37.0473 22.2133 36.8019 21.9682C36.5563 21.7231 36.418 21.3919 36.4168 21.0463C36.4178 20.8741 36.4531 20.7039 36.5207 20.5453C36.5881 20.3867 36.6862 20.2428 36.8097 20.1219C36.9957 19.9397 37.2319 19.8163 37.4883 19.7673C37.745 19.7183 38.0105 19.7459 38.2512 19.8466C38.4921 19.9474 38.6973 20.1168 38.8409 20.3333C38.9847 20.5498 39.0605 20.8038 39.0587 21.0631C39.0529 21.4088 38.9101 21.7384 38.6611 21.9804C38.4122 22.2223 38.0771 22.3572 37.7286 22.3557ZM48.8741 46.4057C48.6795 46.4053 48.4875 46.3621 48.3118 46.2792C48.136 46.196 47.9812 46.0753 47.8583 45.9258C47.7351 45.7761 47.6473 45.6013 47.6006 45.4139C47.5541 45.2263 47.55 45.0311 47.5887 44.8418C47.6274 44.6525 47.7079 44.4741 47.8247 44.3194C47.9412 44.1648 48.0912 44.038 48.2632 43.9478C48.4353 43.8577 48.6256 43.8065 48.82 43.7983C49.0144 43.7901 49.2084 43.8247 49.3876 43.8999C49.6275 44.0003 49.8319 44.1691 49.9749 44.3848C50.1179 44.6007 50.1932 44.8537 50.1912 45.112C50.1891 45.4567 50.0492 45.7867 49.8024 46.0292C49.5554 46.2718 49.2217 46.4072 48.8741 46.4057ZM29.859 38.6195C29.8561 38.3628 29.9313 38.1111 30.0745 37.8974C30.2177 37.6836 30.4223 37.5175 30.6618 37.4206C30.8207 37.3562 30.9912 37.3239 31.1628 37.3257C31.3378 37.3233 31.5115 37.3558 31.6735 37.4212C31.8357 37.4865 31.983 37.5836 32.1065 37.7065C32.2305 37.829 32.328 37.9753 32.3939 38.1361C32.4599 38.2969 32.4927 38.4691 32.4902 38.6429C32.4845 38.989 32.3413 39.319 32.0918 39.5614C31.8423 39.8035 31.5065 39.9385 31.1575 39.9366C30.985 39.935 30.8146 39.8996 30.656 39.8324C30.4973 39.7652 30.3535 39.6677 30.2328 39.5454C30.1124 39.4229 30.0171 39.2783 29.953 39.1193C29.8889 38.9604 29.8567 38.7905 29.859 38.6195Z" fill="#044C82"/>
<path d="M35.3296 17.3777C35.3296 17.5486 35.2956 17.7178 35.2292 17.8756C35.1631 18.0333 35.066 18.1765 34.9435 18.2967C34.8212 18.4171 34.6762 18.5122 34.5166 18.5765C34.357 18.6408 34.1862 18.6731 34.0139 18.6715C33.6841 18.6737 33.3652 18.5534 33.1202 18.3343C32.875 18.1151 32.7214 17.8129 32.6894 17.4871C32.6572 17.1613 32.7492 16.8353 32.9471 16.5733C33.1448 16.3113 33.4342 16.1321 33.7583 16.0711C34.0162 16.022 34.2831 16.0503 34.5246 16.1522C34.7663 16.2541 34.9719 16.425 35.1153 16.6433C35.2587 16.8615 35.3333 17.1173 35.3296 17.3777Z" fill="#04609E"/>
<path d="M56.7342 23.901C56.7317 24.1599 56.6518 24.4121 56.5047 24.6259C56.3577 24.8398 56.15 25.0053 55.9078 25.1018C55.7268 25.1739 55.5319 25.2054 55.3371 25.1936C55.1423 25.1819 54.9529 25.1274 54.7818 25.034C54.611 24.9406 54.4631 24.8107 54.349 24.6538C54.2349 24.4969 54.1575 24.3166 54.122 24.1263C54.0866 23.9358 54.0942 23.7402 54.1444 23.553C54.1945 23.366 54.2859 23.1923 54.4119 23.0446C54.5379 22.8969 54.6956 22.7788 54.8732 22.6988C55.0508 22.6189 55.2441 22.5792 55.4392 22.5825C55.6114 22.5846 55.7816 22.6204 55.94 22.6879C56.0983 22.7554 56.2417 22.8531 56.362 22.9756C56.4822 23.0981 56.5768 23.2428 56.6408 23.4016C56.7047 23.5604 56.7364 23.73 56.7342 23.901Z" fill="#034C82"/>
<path d="M64.1635 34.9539C64.16 35.2129 64.0791 35.4648 63.9312 35.6783C63.7833 35.8915 63.5752 36.0564 63.3329 36.1523C63.0905 36.2481 62.8249 36.2707 62.5696 36.2168C62.3144 36.1631 62.0811 36.0353 61.899 35.8499C61.7169 35.6645 61.5942 35.4298 61.5464 35.1754C61.4989 34.9207 61.5282 34.6579 61.631 34.4199C61.7339 34.1821 61.9053 33.9797 62.1241 33.8384C62.3426 33.6972 62.5987 33.6235 62.8595 33.6266C63.2089 33.6335 63.5416 33.7767 63.7856 34.0252C64.0295 34.2734 64.1653 34.6071 64.1635 34.9539ZM37.7764 51.1602C38.1244 51.1709 38.4544 51.3169 38.6949 51.567C38.9352 51.8171 39.0667 52.1512 39.0607 52.4968C39.0577 52.6691 39.0204 52.8391 38.9511 52.9972C38.8819 53.1552 38.7819 53.2981 38.657 53.4178C38.532 53.5374 38.3843 53.6316 38.2227 53.6947C38.0611 53.7578 37.8886 53.7885 37.7149 53.7855C37.5414 53.7824 37.37 53.7455 37.2108 53.6767C37.0514 53.6081 36.9074 53.5087 36.787 53.3848C36.6663 53.2609 36.5715 53.1144 36.5078 52.9542C36.4443 52.7938 36.4132 52.6226 36.4162 52.4503C36.4185 52.2764 36.4556 52.1047 36.5254 51.9454C36.5953 51.786 36.6964 51.642 36.8232 51.5217C36.9498 51.4017 37.0994 51.3077 37.263 51.2456C37.4267 51.1836 37.6012 51.1547 37.7764 51.1602Z" fill="#038BD1"/>
<path d="M50.1924 17.3619C50.192 17.6205 50.1141 17.8732 49.9689 18.0879C49.8234 18.3026 49.6172 18.4696 49.3761 18.568C49.1352 18.6663 48.8701 18.6914 48.6147 18.6402C48.3592 18.5889 48.1247 18.4636 47.9412 18.2801C47.7574 18.0966 47.6329 17.8632 47.5829 17.6093C47.5331 17.3555 47.5602 17.0927 47.6609 16.8542C47.7617 16.6156 47.9315 16.4121 48.1489 16.2694C48.3662 16.1267 48.6212 16.0512 48.882 16.0525C49.0547 16.053 49.2255 16.0873 49.3849 16.1533C49.5443 16.2195 49.6891 16.3161 49.8107 16.4377C49.9324 16.5593 50.0287 16.7035 50.0943 16.8621C50.1598 17.0207 50.1932 17.1905 50.1924 17.3619Z" fill="#03609E"/>
<path d="M46.4673 21.0467C46.47 21.3059 46.395 21.56 46.2516 21.7767C46.1084 21.9934 45.9034 22.1628 45.6627 22.2636C45.422 22.3643 45.1565 22.3918 44.9001 22.3425C44.6436 22.2932 44.4076 22.1694 44.2223 21.9868C44.0371 21.8042 43.9107 21.571 43.8593 21.3169C43.8079 21.0628 43.8337 20.7993 43.9336 20.5598C44.0334 20.3203 44.2028 20.1158 44.4201 19.9721C44.6375 19.8284 44.8931 19.752 45.1543 19.7528C45.3266 19.7504 45.4978 19.7821 45.6576 19.8462C45.8174 19.9102 45.9626 20.0053 46.0849 20.1259C46.2074 20.2464 46.3041 20.3899 46.3698 20.548C46.4356 20.7061 46.4686 20.8757 46.4673 21.0467Z" fill="#044D82"/>
<path d="M52.5795 50.0851C52.3194 50.0851 52.0654 50.0079 51.8499 49.8635C51.6342 49.7191 51.4672 49.514 51.3699 49.2748C51.3054 49.1158 51.2732 48.9458 51.2755 48.7745C51.2761 48.581 51.32 48.39 51.4039 48.2153C51.4879 48.0406 51.61 47.8867 51.7614 47.7647C51.9128 47.6424 52.0893 47.5553 52.2788 47.5092C52.4683 47.4631 52.6656 47.4594 52.8567 47.4984C53.0478 47.5371 53.2278 47.6174 53.3837 47.7337C53.5398 47.8499 53.6676 47.999 53.7584 48.1702C53.8491 48.3417 53.9006 48.5308 53.9085 48.7241C53.9167 48.9175 53.8813 49.1103 53.8051 49.2885C53.7033 49.5267 53.5324 49.7297 53.3143 49.8717C53.0961 50.0134 52.8403 50.0878 52.5795 50.0851Z" fill="#04609E"/>
<path d="M25.0581 34.9344C25.0579 35.1274 25.0147 35.3177 24.9313 35.492C24.8481 35.6663 24.7269 35.82 24.5765 35.9423C24.4261 36.0643 24.2504 36.152 24.0617 36.1987C23.8733 36.2452 23.6766 36.2499 23.4859 36.212C23.2311 36.1614 22.997 36.0369 22.8134 35.8544C22.6297 35.6719 22.5047 35.4394 22.4541 35.1862C22.3994 34.9119 22.4353 34.6272 22.5561 34.3744C22.6768 34.1218 22.8765 33.9143 23.1252 33.7826C23.3739 33.6511 23.6588 33.6024 23.9376 33.6437C24.2164 33.6849 24.4745 33.8142 24.6736 34.0122C24.9198 34.257 25.0581 34.5887 25.0581 34.9344Z" fill="#048BD1"/>
<path d="M55.4191 37.3228C55.5912 37.3216 55.7618 37.3542 55.9212 37.4185C56.0808 37.4828 56.2256 37.5779 56.3479 37.6981C56.4702 37.8183 56.5673 37.9615 56.6334 38.1191C56.6996 38.2768 56.7336 38.446 56.7336 38.6168C56.742 38.8802 56.6697 39.1402 56.5265 39.3624C56.3831 39.5845 56.1754 39.7584 55.9306 39.861C55.7682 39.9294 55.5936 39.9647 55.4173 39.9647C55.2407 39.9647 55.0662 39.9294 54.9037 39.861C54.6589 39.7582 54.4512 39.5845 54.3081 39.3622C54.1647 39.1402 54.0924 38.8802 54.1008 38.6168C54.1008 38.4456 54.135 38.2762 54.2013 38.1182C54.2677 37.9603 54.3652 37.8171 54.4877 37.6967C54.6104 37.5764 54.7558 37.4814 54.9156 37.4171C55.0756 37.3529 55.2466 37.321 55.4191 37.3228Z" fill="#044C82"/>
<path d="M60.446 34.9498C60.4452 35.1207 60.4106 35.2897 60.344 35.4472C60.2772 35.6045 60.18 35.7475 60.0575 35.8675C59.9354 35.9876 59.7903 36.0828 59.631 36.1473C59.4718 36.2119 59.3012 36.2446 59.1291 36.2438C58.9331 36.2444 58.7393 36.2018 58.5621 36.1189C58.3847 36.0361 58.2282 35.915 58.1039 35.7647C57.9795 35.6143 57.8906 35.4384 57.8433 35.2497C57.796 35.0611 57.7915 34.8642 57.8304 34.6735C57.8958 34.3537 58.0789 34.0694 58.3442 33.8765C58.6096 33.6835 58.9378 33.5958 59.2649 33.6304C59.5921 33.6649 59.8944 33.8193 60.1128 34.0633C60.3311 34.3074 60.4499 34.6235 60.446 34.9498Z" fill="#03609E"/>
<path d="M27.4578 26.2683C27.6297 26.2675 27.7999 26.3003 27.9589 26.3648C28.118 26.4295 28.2624 26.5246 28.3843 26.645C28.506 26.7651 28.6027 26.908 28.6687 27.0656C28.7346 27.2229 28.7686 27.3917 28.7684 27.5621C28.7711 27.8202 28.6961 28.0732 28.5535 28.2891C28.4108 28.5048 28.2067 28.6736 27.9671 28.7741C27.8081 28.8409 27.6373 28.8757 27.4644 28.8768C27.1151 28.8778 26.7798 28.741 26.5321 28.4966C26.2845 28.2524 26.1446 27.9204 26.1436 27.5738C26.1425 27.2272 26.2804 26.8945 26.5266 26.6487C26.7728 26.4029 27.1073 26.2642 27.4566 26.2632L27.4578 26.2683ZM46.4735 17.3578C46.478 17.6164 46.4041 17.8705 46.2615 18.0871C46.1189 18.3037 45.9143 18.4729 45.6738 18.5729C45.5142 18.6394 45.3428 18.6736 45.1697 18.6736C44.9079 18.6768 44.6512 18.6029 44.4318 18.4611C44.2125 18.3194 44.0406 18.1162 43.9378 17.8774C43.861 17.6988 43.8251 17.5055 43.8329 17.3115C43.8407 17.1175 43.8917 16.9276 43.9824 16.7556C44.073 16.5836 44.2012 16.4337 44.3573 16.3168C44.5136 16.1999 44.694 16.1188 44.8856 16.0796C45.0771 16.0403 45.2752 16.0438 45.4653 16.0897C45.6554 16.1356 45.8328 16.2229 45.9848 16.3452C46.1367 16.4675 46.2594 16.6218 46.344 16.7969C46.4284 16.972 46.4727 17.1636 46.4735 17.3578ZM28.7672 31.2679C28.7672 31.4385 28.733 31.6075 28.667 31.765C28.6008 31.9226 28.504 32.0655 28.3821 32.186C28.26 32.3062 28.1152 32.4013 27.9558 32.4658C27.7966 32.5303 27.626 32.5629 27.4541 32.5617C27.1936 32.5621 26.939 32.4855 26.7222 32.3419C26.5057 32.1983 26.3369 31.9941 26.2376 31.7552C26.1382 31.5164 26.1126 31.2536 26.164 31.0002C26.2157 30.7468 26.3416 30.5143 26.5266 30.3322C26.6649 30.196 26.8316 30.0921 27.0154 30.0278C27.1989 29.9635 27.3947 29.9405 27.5883 29.9604C27.7821 29.9803 27.9689 30.0427 28.1352 30.1429C28.3016 30.2433 28.4435 30.3789 28.5507 30.5403C28.6938 30.7562 28.7692 31.0094 28.7672 31.2679Z" fill="#04609E"/>
<path d="M20.0249 32.5614C19.852 32.5593 19.6811 32.5233 19.5222 32.4557C19.3632 32.3879 19.2192 32.2898 19.0986 32.1669C18.9777 32.044 18.8824 31.8987 18.8183 31.7394C18.7542 31.5798 18.7225 31.4096 18.7247 31.2379C18.7282 30.9796 18.8085 30.7281 18.9558 30.515C19.1033 30.3022 19.3108 30.1373 19.5525 30.0412C19.7942 29.9453 20.0591 29.9226 20.3139 29.9759C20.5685 30.0291 20.8016 30.1561 20.9835 30.3409C21.1652 30.5255 21.2877 30.7594 21.3354 31.013C21.3832 31.2666 21.3541 31.5286 21.2517 31.7656C21.1494 32.0028 20.9784 32.2046 20.7604 32.3453C20.5425 32.486 20.2875 32.5595 20.0275 32.5563L20.0249 32.5614Z" fill="#04AFEF"/>
<path d="M59.1494 37.3232C59.3219 37.3227 59.4925 37.3567 59.6517 37.4227C59.8108 37.4889 59.9548 37.586 60.0755 37.7083C60.1961 37.8305 60.291 37.9756 60.3543 38.1347C60.4176 38.2939 60.4481 38.4641 60.4442 38.6352C60.4434 38.9805 60.3047 39.3118 60.0583 39.5557C59.8118 39.7997 59.478 39.9367 59.1297 39.9367C58.7815 39.9341 58.4482 39.7958 58.2018 39.5514C57.9556 39.3073 57.8157 38.9768 57.8126 38.6313C57.8105 38.4574 57.8439 38.2849 57.9107 38.1241C57.9773 37.9633 58.076 37.8174 58.2008 37.6953C58.3257 37.5733 58.474 37.4774 58.6369 37.4135C58.7999 37.3496 58.974 37.3188 59.1494 37.3232Z" fill="#04609E"/>
<path d="M52.584 43.7923C52.9326 43.7939 53.2663 43.933 53.5115 44.1788C53.7569 44.4246 53.8938 44.7571 53.8921 45.1028C53.8909 45.3609 53.8124 45.6127 53.667 45.8263C53.5216 46.0402 53.3155 46.2063 53.0748 46.304C52.8341 46.4015 52.5697 46.4261 52.3148 46.3745C52.0602 46.3229 51.8267 46.1975 51.6438 46.0142C51.4609 45.8308 51.3367 45.5979 51.2871 45.3448C51.2378 45.0914 51.265 44.8294 51.3658 44.5913C51.4664 44.3535 51.636 44.1507 51.8527 44.0084C52.0696 43.8662 52.3241 43.7908 52.584 43.7923Z" fill="#044C82"/>
<path d="M62.8461 32.5619C62.4975 32.5619 62.1629 32.4244 61.9165 32.1798C61.6701 31.9353 61.5316 31.6036 61.5316 31.2577C61.5316 30.9117 61.6701 30.5798 61.9165 30.3352C62.1629 30.0907 62.4975 29.9532 62.8461 29.9532C63.1945 29.9532 63.529 30.0907 63.7755 30.3352C64.0219 30.5798 64.1604 30.9117 64.1604 31.2577C64.1604 31.6036 64.0219 31.9353 63.7755 32.1798C63.529 32.4244 63.1945 32.5619 62.8461 32.5619ZM48.8677 14.9812C48.6731 14.9804 48.4811 14.9368 48.3058 14.8535C48.1305 14.7702 47.9758 14.6493 47.8531 14.4996C47.7304 14.3498 47.6427 14.1749 47.5964 13.9875C47.5501 13.8 47.5462 13.6047 47.5852 13.4157C47.6241 13.2265 47.705 13.0484 47.8218 12.894C47.9385 12.7396 48.0885 12.6129 48.2605 12.523C48.4326 12.433 48.6227 12.3821 48.8171 12.374C49.0115 12.3658 49.2053 12.4005 49.3843 12.4757C49.624 12.5762 49.8282 12.7449 49.9712 12.9606C50.1141 13.1764 50.1893 13.4293 50.1873 13.6875C50.1875 13.8587 50.1533 14.0282 50.0867 14.1862C50.0201 14.3442 49.9226 14.4875 49.7999 14.6078C49.677 14.7281 49.5316 14.8231 49.3714 14.8872C49.2114 14.9513 49.0402 14.9832 48.8677 14.9812Z" fill="#048BD1"/>
<path d="M48.8887 19.7528C49.061 19.7528 49.2318 19.7867 49.391 19.8526C49.5502 19.9185 49.6946 20.0151 49.8158 20.1367C49.9371 20.2584 50.0328 20.4027 50.0975 20.5613C50.1622 20.72 50.1944 20.8897 50.1926 21.0609C50.1923 21.3198 50.1145 21.5729 49.9691 21.7879C49.8236 22.0028 49.6172 22.1701 49.3756 22.2683C49.1952 22.3419 49.0004 22.3748 48.8056 22.3645C48.6108 22.3543 48.4205 22.3012 48.2488 22.2091C48.0774 22.117 47.9284 21.9882 47.8131 21.832C47.6978 21.6758 47.6189 21.4961 47.582 21.3059C47.5331 21.0516 47.5612 20.7886 47.6628 20.5501C47.7646 20.3117 47.9354 20.1086 48.1536 19.9665C48.3717 19.8245 48.6278 19.7502 48.8887 19.7528Z" fill="#034C82"/>
<path d="M25.0581 23.893C25.0569 24.1511 24.9784 24.403 24.8328 24.6169C24.6871 24.8309 24.4806 24.9971 24.2397 25.0944C23.9989 25.1919 23.7342 25.2163 23.4794 25.1642C23.2246 25.1124 22.991 24.9866 22.8083 24.8029C22.6256 24.6191 22.5019 24.3858 22.4527 24.1322C22.4038 23.8788 22.4316 23.6164 22.533 23.3788C22.6342 23.141 22.8044 22.9384 23.0218 22.7966C23.2391 22.6548 23.4941 22.5802 23.7543 22.5823C24.1019 22.5856 24.4343 22.7252 24.6785 22.9708C24.9229 23.2164 25.0593 23.548 25.0581 23.893Z" fill="#048BD1"/>
<path d="M60.4431 23.9251C60.4374 24.1172 60.389 24.3057 60.3013 24.4769C60.2137 24.6484 60.0891 24.7985 59.9363 24.9165C59.7835 25.0345 59.6061 25.1177 59.4172 25.1599C59.2284 25.2021 59.0324 25.2025 58.8433 25.1609C58.526 25.091 58.2458 24.9071 58.0571 24.6445C57.8682 24.3819 57.7842 24.0593 57.8209 23.7387C57.8576 23.4182 58.0126 23.1226 58.256 22.9088C58.4996 22.695 58.814 22.5782 59.1391 22.5809C59.3144 22.5817 59.4877 22.6174 59.6489 22.686C59.8099 22.7545 59.9556 22.8544 60.077 22.9797C60.1987 23.1051 60.2936 23.2533 60.3564 23.4157C60.4193 23.5781 60.4488 23.7512 60.4431 23.9251Z" fill="#03609E"/>
<path d="M16.3059 32.5615C15.9792 32.5595 15.6651 32.4368 15.4247 32.2174C15.1844 31.998 15.0348 31.6977 15.0053 31.3751C14.9759 31.0523 15.0686 30.7303 15.2655 30.4715C15.4623 30.213 15.7493 30.0365 16.0701 29.9762C16.3255 29.9279 16.5896 29.9558 16.829 30.0563C17.0683 30.1569 17.2723 30.3257 17.4149 30.5414C17.5577 30.7569 17.6328 31.0097 17.6308 31.2678C17.6277 31.6135 17.4866 31.944 17.2381 32.1865C16.9896 32.4292 16.6543 32.564 16.3059 32.5615Z" fill="#04AFEF"/>
<path d="M55.4259 26.2686C55.685 26.2688 55.9382 26.3452 56.1533 26.4886C56.3682 26.632 56.5353 26.8358 56.6334 27.0736C56.6984 27.2318 56.7312 27.401 56.7301 27.5716C56.7309 27.8307 56.6539 28.0843 56.5091 28.3C56.3643 28.5157 56.158 28.6837 55.9167 28.7828C55.6752 28.882 55.4097 28.9078 55.1535 28.8568C54.8974 28.8058 54.6625 28.6802 54.4785 28.4961C54.3409 28.3586 54.2356 28.1927 54.1706 28.0098C54.1057 27.8271 54.0825 27.6322 54.1028 27.4397C54.1231 27.2469 54.1864 27.0609 54.288 26.8956C54.3896 26.7301 54.5271 26.5892 54.6903 26.4829C54.9087 26.3407 55.1647 26.2662 55.4259 26.2686Z" fill="#044C82"/>
<path d="M71.589 34.938C71.591 35.2846 71.4542 35.6179 71.2086 35.8643C70.9632 36.111 70.6289 36.2505 70.2796 36.2525C69.9304 36.2546 69.5946 36.1188 69.3461 35.8752C69.0977 35.6314 68.9569 35.3 68.9551 34.9534C68.9531 34.6068 69.0897 34.2735 69.3353 34.0271C69.5809 33.7805 69.915 33.641 70.2642 33.6389C70.6135 33.6369 70.9492 33.7727 71.1977 34.0163C71.4462 34.26 71.5869 34.5915 71.589 34.938Z" fill="#03AFEF"/>
<path d="M46.4733 45.082C46.4753 45.3079 46.4184 45.5304 46.3078 45.7278C46.1971 45.9251 46.037 46.0908 45.8426 46.2084C45.6484 46.326 45.4265 46.3915 45.1992 46.3987C44.9716 46.4059 44.7463 46.3542 44.5447 46.2491C44.3433 46.1439 44.1729 45.9886 44.05 45.7985C43.9271 45.6084 43.856 45.3898 43.8437 45.1645C43.8314 44.939 43.8783 44.7141 43.9797 44.5119C44.0811 44.3097 44.2337 44.137 44.4224 44.0108C44.6385 43.8664 44.8929 43.7888 45.1537 43.7882C45.3262 43.7861 45.4974 43.8181 45.6574 43.8824C45.8172 43.9465 45.9628 44.0414 46.0855 44.1618C46.2082 44.2821 46.3057 44.4254 46.3723 44.5834C46.4389 44.7413 46.4733 44.9107 46.4733 45.082Z" fill="#034C82"/>
<path d="M52.5958 19.7529C52.7679 19.7518 52.9385 19.7844 53.0977 19.8489C53.2569 19.9134 53.4017 20.0085 53.5238 20.1287C53.6459 20.249 53.7427 20.392 53.8089 20.5496C53.8749 20.7071 53.9091 20.8761 53.9091 21.0468C53.9138 21.2218 53.8829 21.3959 53.8185 21.5588C53.754 21.7217 53.6573 21.8701 53.534 21.9953C53.4105 22.1204 53.2632 22.2197 53.1004 22.2872C52.9377 22.3547 52.763 22.3891 52.5866 22.3884C52.4102 22.3876 52.2357 22.3517 52.0737 22.2828C51.9115 22.2138 51.765 22.1132 51.6427 21.987C51.5204 21.8608 51.425 21.7115 51.3621 21.5479C51.2992 21.3844 51.2699 21.21 51.2762 21.0351C51.2767 20.8645 51.3115 20.6957 51.3782 20.5386C51.445 20.3815 51.5427 20.2391 51.6656 20.1198C51.7883 20.0005 51.9338 19.9066 52.0936 19.8436C52.2533 19.7806 52.4242 19.7498 52.5958 19.7529Z" fill="#044C82"/>
<path d="M28.768 34.9308C28.7729 35.1889 28.7 35.4425 28.5586 35.659C28.4171 35.8757 28.2137 36.0453 27.9742 36.1461C27.8153 36.2131 27.6444 36.2483 27.4717 36.2491C27.21 36.2541 26.9525 36.1815 26.7323 36.0408C26.5119 35.9001 26.3388 35.6977 26.2347 35.4591C26.1306 35.2206 26.1003 34.9568 26.1479 34.7011C26.1954 34.4455 26.3185 34.2095 26.5014 34.0235C26.6382 33.8844 26.8044 33.7773 26.9881 33.7097C27.1717 33.6423 27.3681 33.6161 27.5633 33.6333C27.7583 33.6503 27.9472 33.7103 28.116 33.8086C28.285 33.9072 28.4296 34.0416 28.5398 34.2024C28.6869 34.4172 28.7663 34.6708 28.768 34.9308Z" fill="#04609E"/>
<path d="M40.1373 21.0373C40.1354 20.866 40.168 20.696 40.2336 20.5374C40.2991 20.3789 40.396 20.235 40.5187 20.1143C40.6412 19.9936 40.787 19.8986 40.9472 19.8349C41.1076 19.7712 41.2791 19.7401 41.4518 19.7434C41.6238 19.7422 41.7945 19.7747 41.9538 19.8391C42.1134 19.9035 42.2582 19.9985 42.3805 20.1187C42.5647 20.3001 42.6902 20.5318 42.7408 20.7844C42.7914 21.0369 42.765 21.2987 42.6648 21.5362C42.5985 21.6943 42.5014 21.8379 42.3789 21.9587C42.2566 22.0796 42.1116 22.1753 41.9518 22.2404C41.7922 22.3056 41.6212 22.3389 41.4485 22.3384C41.2758 22.338 41.105 22.3037 40.9458 22.2377C40.7864 22.1718 40.6418 22.0754 40.5199 21.954C40.3982 21.8326 40.3018 21.6886 40.2362 21.5302C40.1705 21.3718 40.1369 21.2021 40.1373 21.0308V21.0373Z" fill="#044C82"/>
<path d="M35.3358 21.0606C35.336 21.2315 35.302 21.4007 35.2356 21.5585C35.1694 21.7162 35.0723 21.8593 34.9498 21.9796C34.8276 22.0998 34.6823 22.1949 34.5227 22.2592C34.3632 22.3235 34.1925 22.3559 34.0203 22.3543C33.672 22.3513 33.3392 22.2124 33.0934 21.9676C32.8476 21.7228 32.7089 21.3919 32.707 21.0464C32.7081 20.8738 32.7437 20.7031 32.8117 20.5443C32.8797 20.3854 32.9791 20.2416 33.1036 20.1212C33.2284 20.0008 33.3758 19.9062 33.5377 19.8429C33.6995 19.7796 33.8724 19.7489 34.0463 19.7525C34.2179 19.7527 34.388 19.7868 34.5463 19.853C34.7044 19.9191 34.8478 20.0159 34.9681 20.1377C35.0881 20.2595 35.1825 20.4038 35.2458 20.5623C35.3089 20.7208 35.3395 20.8902 35.3358 21.0606Z" fill="#044D82"/>
<path d="M67.8668 34.9555C67.8625 35.1796 67.7998 35.3988 67.6851 35.592C67.5706 35.7849 67.4075 35.9455 67.2123 36.058C67.0169 36.1704 66.7957 36.2311 66.5697 36.2339C66.3438 36.2368 66.1211 36.1819 65.9228 36.0746C65.7245 35.9672 65.5576 35.811 65.4378 35.6209C65.3181 35.4308 65.2499 35.2132 65.2397 34.9893C65.2292 34.7654 65.2774 34.5428 65.379 34.3426C65.4808 34.1425 65.6326 33.9717 65.8202 33.8467C66.0349 33.7037 66.2872 33.6269 66.5458 33.6255C66.7211 33.6251 66.8946 33.6593 67.0564 33.7263C67.218 33.7933 67.3647 33.8916 67.4878 34.0155C67.6107 34.1392 67.7076 34.2863 67.7726 34.4477C67.8377 34.6091 67.8699 34.7816 67.8668 34.9555Z" fill="#04AFEF"/>
<path d="M22.4292 27.5687C22.4307 27.3974 22.4661 27.2282 22.5335 27.0705C22.6009 26.9128 22.6988 26.7698 22.8219 26.6497C22.945 26.5295 23.0907 26.4347 23.2509 26.3705C23.4109 26.3064 23.5821 26.2741 23.7548 26.2757C24.0145 26.2777 24.2681 26.3564 24.483 26.5016C24.6979 26.6467 24.8646 26.8517 24.9619 27.091C25.0594 27.33 25.0832 27.5924 25.0303 27.845C24.9775 28.0976 24.8503 28.3288 24.6649 28.5097C24.4795 28.6906 24.2444 28.8129 23.9889 28.861C23.7335 28.9091 23.4694 28.8811 23.2302 28.7803C22.9909 28.6797 22.7871 28.5107 22.6445 28.295C22.502 28.0795 22.427 27.8266 22.4292 27.5687Z" fill="#038BD1"/>
<path d="M51.2788 9.98787C51.2788 9.64163 51.4175 9.30958 51.6643 9.06475C51.911 8.81992 52.2457 8.68237 52.5945 8.68237C52.9434 8.68237 53.2781 8.81992 53.5249 9.06475C53.7715 9.30958 53.9102 9.64163 53.9102 9.98787C53.9102 10.3341 53.7715 10.6662 53.5249 10.911C53.2781 11.1558 52.9434 11.2934 52.5945 11.2934C52.2457 11.2934 51.911 11.1558 51.6643 10.911C51.4175 10.6662 51.2788 10.3341 51.2788 9.98787Z" fill="#04AFEF"/>
<path d="M62.8633 37.3231C63.2105 37.3257 63.5427 37.4646 63.7869 37.7094C64.0313 37.9544 64.1681 38.2852 64.1673 38.6298C64.1624 38.9792 64.0186 39.3125 63.7674 39.5573C63.5161 39.8019 63.1775 39.9383 62.8254 39.9366C62.4767 39.9328 62.1436 39.792 61.8995 39.5452C61.6551 39.2984 61.5191 38.9655 61.5215 38.6195C61.5199 38.4458 61.5539 38.2737 61.6213 38.1133C61.6885 37.9532 61.7878 37.8081 61.9132 37.6869C62.0388 37.5658 62.1875 37.471 62.3507 37.4085C62.514 37.346 62.6883 37.3169 62.8633 37.3231Z" fill="#038BD1"/>
<path d="M34.0198 46.4062C33.7594 46.406 33.5052 46.329 33.2889 46.185C33.0728 46.041 32.9046 45.8365 32.8057 45.5977C32.7067 45.3586 32.6815 45.096 32.7332 44.8428C32.785 44.5897 32.9114 44.3574 33.0961 44.1757C33.2811 43.9938 33.5163 43.8705 33.7719 43.8215C34.0276 43.7725 34.292 43.8 34.5319 43.9002C34.7718 44.0005 34.9762 44.1693 35.1194 44.3852C35.2623 44.6009 35.3377 44.8541 35.3357 45.1124C35.3357 45.2833 35.3017 45.4527 35.2353 45.6104C35.1691 45.7681 35.0718 45.9111 34.9496 46.0313C34.8273 46.1518 34.682 46.2468 34.5225 46.3112C34.3629 46.3755 34.192 46.4078 34.0198 46.4062Z" fill="#034C82"/>
<path d="M41.4556 46.4058C41.1953 46.4067 40.9407 46.3309 40.7237 46.1879C40.507 46.0449 40.338 45.8413 40.238 45.6029C40.1381 45.3644 40.1117 45.102 40.1623 44.8486C40.2127 44.5954 40.3378 44.3625 40.5216 44.1798C40.7055 43.9971 40.94 43.8726 41.1953 43.8222C41.4505 43.7718 41.7152 43.7978 41.9557 43.8967C42.1959 43.9959 42.4014 44.1634 42.5456 44.3783C42.6898 44.5934 42.7666 44.846 42.766 45.1043C42.767 45.2753 42.7338 45.4449 42.6683 45.6033C42.6029 45.7616 42.5065 45.9054 42.3846 46.0265C42.2627 46.1475 42.1179 46.2434 41.9583 46.3085C41.7989 46.3735 41.6279 46.4067 41.4556 46.4058Z" fill="#044C82"/>
<path d="M45.146 50.084C44.7982 50.0814 44.4656 49.9419 44.221 49.6961C43.9766 49.4505 43.8404 49.1186 43.842 48.7732C43.8379 48.5545 43.8891 48.3382 43.9911 48.1442C44.0934 47.9504 44.2429 47.7849 44.4262 47.6634C44.6096 47.5417 44.8208 47.4678 45.0403 47.4485C45.2601 47.4291 45.4812 47.4647 45.6831 47.5522C45.8446 47.622 45.9902 47.7232 46.1115 47.8498C46.2327 47.9764 46.3272 48.1259 46.389 48.2896C46.4511 48.4531 46.4794 48.6272 46.4722 48.8017C46.4708 48.9726 46.4351 49.1413 46.3675 49.2985C46.2999 49.4556 46.2016 49.5977 46.0783 49.717C45.955 49.8362 45.8091 49.93 45.6491 49.9931C45.4892 50.056 45.3181 50.0869 45.146 50.084Z" fill="#04609E"/>
<path d="M35.336 52.4865C35.3329 52.8323 35.1916 53.1627 34.9431 53.4054C34.6948 53.648 34.3595 53.7828 34.0111 53.7805C33.6639 53.7733 33.3332 53.6318 33.0897 53.3864C32.8461 53.1408 32.7089 52.8106 32.707 52.4658C32.7064 52.2921 32.7408 52.1199 32.8086 51.9595C32.8762 51.7991 32.9756 51.6538 33.1009 51.5322C33.2261 51.4105 33.3746 51.315 33.5377 51.2515C33.7007 51.1878 33.875 51.1573 34.0502 51.1618C34.3103 51.1637 34.5639 51.2431 34.7778 51.39C34.9916 51.5367 35.1561 51.744 35.2497 51.9849C35.3118 52.1448 35.3411 52.3153 35.336 52.4865Z" fill="#048BD1"/>
<path d="M46.4732 9.98656C46.4769 10.244 46.4033 10.4966 46.2622 10.7126C46.1211 10.9286 45.9187 11.0983 45.6803 11.2002C45.5221 11.2678 45.3521 11.3039 45.1796 11.3063C45.0047 11.3076 44.8312 11.2746 44.6692 11.2092C44.5071 11.1438 44.3596 11.0472 44.2353 10.925C44.111 10.8028 44.0122 10.6575 43.9446 10.4973C43.877 10.3371 43.8422 10.1653 43.8418 9.99166C43.8438 9.64691 43.9838 9.31711 44.2308 9.07456C44.4776 8.83203 44.8113 8.69657 45.1587 8.6979C45.4179 8.69405 45.6721 8.7674 45.8888 8.90846C46.1053 9.04951 46.2745 9.25179 46.3741 9.48914C46.44 9.64675 46.4738 9.81586 46.4732 9.98656Z" fill="#04AFEF"/>
<path d="M18.7163 23.8933C18.7147 23.5477 18.8511 23.2158 19.0953 22.9697C19.3397 22.7237 19.6721 22.5835 20.0203 22.5799C20.2817 22.5769 20.5382 22.6511 20.7572 22.7929C20.9761 22.9347 21.1476 23.1378 21.2502 23.3765C21.3268 23.5549 21.3625 23.7481 21.3547 23.942C21.3467 24.1358 21.2957 24.3255 21.2047 24.4972C21.114 24.669 20.986 24.8188 20.8297 24.9353C20.6736 25.0521 20.4931 25.1328 20.3016 25.1717C20.1103 25.2108 19.9124 25.2071 19.7225 25.1611C19.5326 25.1152 19.3552 25.0277 19.2036 24.9054C19.0519 24.7831 18.9294 24.6287 18.8452 24.4537C18.761 24.2786 18.7169 24.0873 18.7163 23.8933Z" fill="#03AFEF"/>
<path d="M56.7332 42.2977C56.7394 42.4696 56.7113 42.6411 56.6504 42.8023C56.5896 42.9633 56.4972 43.111 56.3788 43.2365C56.2604 43.3623 56.1181 43.4635 55.9601 43.5344C55.8022 43.6052 55.6316 43.6446 55.4583 43.6501C55.285 43.6554 55.1123 43.6268 54.9503 43.5657C54.788 43.5049 54.6397 43.4127 54.5135 43.2945C54.3874 43.1765 54.286 43.035 54.2151 42.8779C54.1442 42.7209 54.1053 42.5515 54.1006 42.3795C54.0912 42.0339 54.22 41.6988 54.4591 41.4472C54.6979 41.1959 55.0277 41.0486 55.3759 41.0378C55.7239 41.0269 56.0624 41.1533 56.3168 41.3895C56.5712 41.6257 56.7209 41.9522 56.7332 42.2977Z" fill="#044C82"/>
<path d="M35.336 48.7993C35.3362 48.9707 35.3016 49.1402 35.2346 49.2981C35.1678 49.4558 35.0697 49.5988 34.9462 49.7184C34.8226 49.8383 34.6764 49.9325 34.5158 49.9952C34.3552 50.058 34.1835 50.0882 34.0111 50.0841C33.6636 50.0816 33.3314 49.9423 33.087 49.6973C32.8426 49.4521 32.706 49.1209 32.707 48.7761C32.7105 48.431 32.8498 48.101 33.0952 47.8562C33.3404 47.6116 33.6725 47.4719 34.0203 47.4668C34.1952 47.467 34.3685 47.5018 34.5297 47.5692C34.6911 47.6366 34.8372 47.7353 34.9597 47.8593C35.0822 47.9834 35.1785 48.1305 35.2432 48.2919C35.3077 48.4531 35.3393 48.6258 35.336 48.7993Z" fill="#04609E"/>
<path d="M55.4092 32.5615C55.2146 32.5597 55.0227 32.5148 54.8478 32.4304C54.6726 32.346 54.5186 32.2241 54.3967 32.0734C54.275 31.9228 54.1884 31.747 54.1435 31.5592C54.0985 31.3712 54.0962 31.1757 54.1366 30.9867C54.1906 30.7341 54.3189 30.503 54.5055 30.3228C54.6921 30.1425 54.9283 30.0215 55.1843 29.9748C55.3756 29.9397 55.5725 29.9473 55.7607 29.9971C55.9488 30.0469 56.1233 30.1374 56.2718 30.2621C56.4203 30.3869 56.5391 30.543 56.6194 30.7189C56.6999 30.8947 56.7399 31.0862 56.7366 31.2792C56.7352 31.4502 56.6995 31.619 56.6319 31.7763C56.5639 31.9335 56.4656 32.0756 56.3421 32.1948C56.2188 32.314 56.0727 32.4079 55.9125 32.4708C55.7525 32.5338 55.5815 32.5646 55.4092 32.5615Z" fill="#044C82"/>
<path d="M46.4739 52.4504C46.4759 52.7091 46.4007 52.9625 46.2577 53.1786C46.1148 53.3947 45.9103 53.5639 45.6703 53.6644C45.4908 53.7398 45.2968 53.7749 45.102 53.7667C44.9074 53.7585 44.7169 53.7075 44.5444 53.6173C44.372 53.5272 44.2218 53.4002 44.1051 53.2455C43.9881 53.0909 43.9072 52.9123 43.8683 52.7228C43.8293 52.5333 43.8334 52.3377 43.8799 52.1498C43.9266 51.962 44.0147 51.7869 44.1378 51.6371C44.2609 51.4872 44.4162 51.3663 44.5922 51.2832C44.7681 51.2002 44.9605 51.1568 45.1555 51.1566C45.3278 51.1547 45.499 51.1869 45.6588 51.251C45.8186 51.3151 45.964 51.4102 46.0867 51.5304C46.2094 51.6509 46.3065 51.794 46.3731 51.952C46.4394 52.1099 46.4736 52.2793 46.4739 52.4504Z" fill="#048BD1"/>
<path d="M35.3357 56.1616C35.3357 56.3324 35.3015 56.5016 35.2354 56.6594C35.169 56.8171 35.0719 56.9603 34.9498 57.0805C34.8273 57.201 34.6823 57.2958 34.5227 57.3601C34.3632 57.4244 34.1923 57.4568 34.02 57.4554C33.6739 57.4484 33.3443 57.3063 33.1032 57.0596C32.8619 56.813 32.7285 56.482 32.732 56.1384C32.7355 55.7947 32.8754 55.4664 33.1214 55.2244C33.3674 54.9827 33.6997 54.8469 34.0461 54.8469C34.2183 54.8475 34.3886 54.8822 34.5473 54.9487C34.7059 55.0155 34.8495 55.1128 34.9695 55.2351C35.0897 55.3576 35.184 55.5026 35.2468 55.6618C35.3097 55.8207 35.34 55.9908 35.3357 56.1616ZM41.42 61.1325C41.2477 61.1315 41.0773 61.096 40.9189 61.0284C40.7606 60.9608 40.6174 60.8625 40.498 60.739C40.3785 60.6157 40.2853 60.4698 40.2239 60.3101C40.1622 60.1503 40.1336 59.9798 40.1395 59.8088C40.1436 59.6376 40.1815 59.4688 40.2515 59.3121C40.3214 59.1554 40.4216 59.0138 40.5465 58.8958C40.6715 58.7774 40.8187 58.6848 40.9798 58.623C41.1408 58.5613 41.3126 58.5316 41.4853 58.5357C41.8337 58.5441 42.1648 58.6893 42.4055 58.9397C42.5247 59.0636 42.6181 59.2096 42.6804 59.3696C42.7426 59.5294 42.7725 59.6998 42.7684 59.8711C42.7641 60.0419 42.7258 60.2103 42.6556 60.3666C42.5853 60.5227 42.4847 60.6634 42.3594 60.7808C42.2338 60.898 42.0863 60.9895 41.9251 61.0497C41.7639 61.1102 41.5922 61.1382 41.42 61.1325Z" fill="#04AFEF"/>
<path d="M25.0582 31.2392C25.0603 31.4973 24.9851 31.7501 24.8423 31.9657C24.6996 32.1814 24.4955 32.35 24.2561 32.4506C24.0166 32.551 23.7524 32.5788 23.4971 32.5303C23.2417 32.482 23.0065 32.3595 22.8212 32.1786C22.6827 32.0432 22.5762 31.8791 22.5094 31.698C22.4424 31.5167 22.417 31.3232 22.4346 31.1312C22.4522 30.9391 22.5127 30.7533 22.6114 30.5872C22.7101 30.421 22.8447 30.2787 23.0057 30.1703C23.2573 30.0009 23.5602 29.9233 23.863 29.9507C24.1657 29.978 24.4497 30.1087 24.6662 30.3205C24.9144 30.563 25.0554 30.8936 25.0582 31.2392Z" fill="#048BD1"/>
<path d="M46.4727 6.32502C46.4725 6.49602 46.4385 6.66533 46.3722 6.82314C46.3058 6.98097 46.2085 7.12415 46.086 7.24446C45.9635 7.36476 45.8183 7.45979 45.6585 7.52404C45.4989 7.58828 45.3279 7.6205 45.1556 7.61878C44.96 7.61913 44.7666 7.5763 44.5896 7.49338C44.4126 7.41048 44.2565 7.28954 44.1326 7.13937C44.0085 6.9892 43.9196 6.81355 43.8725 6.6251C43.8254 6.43666 43.8208 6.24018 43.8596 6.04986C43.8985 5.8595 43.9794 5.6801 44.0968 5.52464C44.2139 5.36917 44.3647 5.24155 44.5378 5.15101C44.7109 5.06047 44.9022 5.00928 45.0976 5.00115C45.2933 4.99301 45.4881 5.02815 45.6683 5.104C45.9092 5.20544 46.1145 5.3757 46.2576 5.59312C46.4008 5.81054 46.4756 6.0653 46.4727 6.32502Z" fill="#03AFEF"/>
<path d="M28.7695 23.893C28.7705 24.0636 28.7377 24.2328 28.6726 24.3907C28.6076 24.5489 28.512 24.6925 28.3907 24.8137C28.2696 24.9348 28.1254 25.0309 27.9665 25.0964C27.8077 25.1622 27.6375 25.1958 27.4654 25.196C27.1192 25.19 26.7894 25.0493 26.5471 24.8041C26.3048 24.5589 26.1694 24.2287 26.1704 23.8852C26.1714 23.5417 26.3087 23.2125 26.5527 22.9686C26.7964 22.7248 27.1272 22.586 27.4732 22.5823C27.6453 22.5832 27.8155 22.618 27.9738 22.6845C28.1322 22.7511 28.2758 22.8481 28.3962 22.9699C28.5167 23.0918 28.6117 23.2361 28.6756 23.3945C28.7397 23.5529 28.7715 23.7223 28.7695 23.893Z" fill="#03609E"/>
<path d="M52.6016 14.9812C52.4289 14.9812 52.2581 14.9475 52.0987 14.8819C51.9391 14.8164 51.7943 14.7203 51.6722 14.5992C51.5501 14.4781 51.4532 14.3344 51.3873 14.1761C51.3211 14.0179 51.2871 13.8483 51.2871 13.6771C51.2871 13.5058 51.3211 13.3362 51.3873 13.178C51.4532 13.0197 51.5501 12.8759 51.672 12.7548C51.7941 12.6337 51.9391 12.5376 52.0985 12.4721C52.2579 12.4065 52.4289 12.3728 52.6014 12.3728C52.95 12.3728 53.2843 12.5102 53.5307 12.7547C53.7774 12.9993 53.9158 13.331 53.9158 13.6769C53.9158 14.0228 53.7774 14.3545 53.5309 14.5991C53.2845 14.8437 52.9502 14.9812 52.6016 14.9812Z" fill="#048BD1"/>
<path d="M41.4636 14.9812C41.115 14.9831 40.7798 14.8477 40.532 14.6046C40.2839 14.3615 40.1434 14.0307 40.1411 13.6848C40.1397 13.4268 40.2153 13.1743 40.3583 12.9589C40.5015 12.7436 40.7057 12.5752 40.9453 12.4751C41.1848 12.375 41.4488 12.3476 41.7041 12.3964C41.9593 12.4451 42.1943 12.5679 42.3792 12.7492C42.5642 12.9305 42.6908 13.1621 42.743 13.4148C42.7953 13.6675 42.7709 13.9299 42.6728 14.1687C42.5749 14.4077 42.4077 14.6124 42.1924 14.7569C41.9771 14.9016 41.7235 14.9796 41.4636 14.9812Z" fill="#038BD1"/>
<path d="M46.4787 13.695C46.4789 13.9526 46.4011 14.2042 46.2554 14.4173C46.1096 14.6305 45.9027 14.7953 45.6616 14.8904C45.5014 14.9535 45.3301 14.9844 45.1579 14.9811C44.9633 14.9801 44.7711 14.9362 44.5956 14.8525C44.4202 14.7689 44.2656 14.6476 44.1431 14.4975C44.0206 14.3473 43.9331 14.1721 43.8872 13.9843C43.8414 13.7966 43.8379 13.6011 43.8774 13.4119C43.944 13.0943 44.1273 12.8126 44.3918 12.622C44.6562 12.4313 44.9827 12.3452 45.3078 12.3806C45.6327 12.416 45.9328 12.5702 46.1493 12.8132C46.3658 13.0563 46.4832 13.3707 46.4787 13.695Z" fill="#048BD1"/>
<path d="M41.4413 57.4551C41.269 57.4551 41.0984 57.4213 40.9396 57.3554C40.7 57.2566 40.4957 57.0889 40.3528 56.8742C40.2098 56.6593 40.1348 56.4069 40.1373 56.1497C40.1393 55.8037 40.2796 55.4726 40.5273 55.2295C40.65 55.1088 40.7954 55.0136 40.9552 54.9489C41.1152 54.8843 41.2862 54.8516 41.4589 54.8524C41.6314 54.8532 41.8022 54.8878 41.9614 54.9542C42.1205 55.0206 42.265 55.1175 42.3864 55.2393C42.5077 55.361 42.6038 55.5054 42.6689 55.664C42.734 55.8227 42.767 55.9925 42.766 56.1638C42.7648 56.335 42.7293 56.5042 42.6621 56.6618C42.5948 56.8193 42.4966 56.9623 42.3735 57.0821C42.2506 57.2021 42.1048 57.2968 41.9448 57.3609C41.7848 57.4248 41.6138 57.4569 41.4413 57.4551ZM67.8692 42.3234C67.8653 42.5815 67.7842 42.8327 67.6363 43.0451C67.4884 43.2573 67.2805 43.4214 67.0383 43.5164C66.8577 43.5873 66.6631 43.6176 66.4691 43.6051C66.2749 43.5926 66.086 43.5373 65.916 43.4435C65.746 43.3497 65.5991 43.2196 65.4858 43.0627C65.3728 42.9058 65.2959 42.726 65.2613 42.5361C65.2267 42.346 65.2351 42.151 65.2857 41.9646C65.3363 41.7781 65.4279 41.6053 65.5541 41.4582C65.68 41.3113 65.8373 41.1939 66.0147 41.1147C66.1921 41.0354 66.3849 40.9961 66.5795 40.9997C66.752 41.0016 66.9224 41.0374 67.0809 41.1052C67.2395 41.1728 67.3829 41.2712 67.5029 41.3943C67.623 41.5174 67.7172 41.6628 67.7801 41.8224C67.843 41.9818 67.8733 42.1522 67.8692 42.3234Z" fill="#04AFEF"/>
</g>
</svg>
