<svg width="274" height="68" viewBox="0 0 274 68" fill="none" xmlns="http://www.w3.org/2000/svg">
<path d="M136.298 14.345L133.303 38.7633H128.696L131.736 14.345H114.307L112.185 31.2329C111.952 33.5508 111.521 37.6858 112.437 40.57C114.475 47.0352 119.883 49.3511 119.883 49.3511L120.515 49.6954C122.779 50.8544 125.376 51.2292 127.721 51.2292H129.347C133.669 51.217 137.193 50.2617 140.07 48.8175C140.076 48.8012 140.245 48.7441 140.245 48.7441C141.184 48.184 146.514 45.422 149.83 38.8875C151.062 36.4208 151.161 35.8974 151.85 31.9092L153.984 14.345" fill="black"/>
<path d="M82.8202 49.7076L84.3381 37.3111H89.6033L89.701 37.2561L88.1728 49.7076H105.271L109.604 14.343H92.5032L91.0056 26.5971L90.9751 26.5827H85.6874L85.6387 26.5971L87.1283 14.343H70.0259L65.7158 49.7076H82.8202Z" fill="black"/>
<path d="M248.393 15.8786V17.111H248.993C249.64 17.111 249.935 16.9623 249.935 16.5182C249.935 16.0558 249.64 15.8786 248.973 15.8786H248.393ZM250.665 16.4469C250.665 16.9786 250.346 17.3452 249.804 17.4552L250.64 19.1682H249.848L249.094 17.5591H248.393V19.1682H247.692V15.4081H249.094C250.142 15.4081 250.665 15.7666 250.665 16.4469ZM251.058 15.3327C250.51 14.7767 249.804 14.4752 249.024 14.4752C248.248 14.4752 247.551 14.7726 247.027 15.3022C246.472 15.8705 246.156 16.5977 246.156 17.3533C246.156 18.1009 246.457 18.8158 247.003 19.3617C247.54 19.9137 248.256 20.2193 248.993 20.2193C249.767 20.2193 250.472 19.9219 251.051 19.3699C251.589 18.8484 251.873 18.1477 251.873 17.3798C251.873 16.5793 251.595 15.8705 251.058 15.3327ZM251.363 15.0374C251.969 15.6505 252.313 16.4754 252.313 17.3533C252.313 18.2577 251.984 19.0766 251.357 19.6734C250.701 20.3068 249.874 20.6592 249.018 20.6592C248.13 20.6592 247.318 20.3068 246.689 19.6611C246.066 19.0297 245.725 18.2231 245.725 17.3533C245.725 16.4795 246.087 15.6383 246.724 14.9783C247.329 14.3693 248.116 14.0454 249.018 14.0454C249.9 14.0454 250.726 14.3917 251.363 15.0374Z" fill="black"/>
<path d="M238.438 40.409L217.742 40.3928L218.38 35.7038H239.022L240.124 26.6884L219.612 26.7048L220.191 22.4578H240.639L241.633 14.3367H203.676L200.443 40.7207L187.458 34.0864C187.458 34.0864 191.042 33.0598 193.002 31.6931C195.043 30.257 195.903 28.8333 196.289 28.1693C197.01 26.9491 197.795 25.5315 197.882 22.8652C197.98 20.1215 196.537 18.1518 195.767 17.2515C194.988 16.3186 193.083 14.302 189.723 14.3448H158.66L157.66 22.3335H182.254L181.666 26.6477H157.151L154.32 49.7054H169.25L170.703 37.9973L198.741 54.9545L199.364 49.7136H237.304L238.438 40.409Z" fill="black"/>
<path d="M35.328 14.3389C33.0459 14.347 31.022 15.1332 29.3983 16.4104L29.3211 16.4246C29.3008 16.4246 29.3008 16.4104 29.3008 16.4104V16.4246C24.1169 20.4781 22.9931 29.361 30.3494 33.011C31.3329 33.4837 47.5919 40.0975 47.5919 40.0975L47.6224 40.1178L23.3812 40.1219L22.2026 49.732L51.9731 49.7198C56.5047 49.7239 59.6281 48.0007 61.7882 44.9372C62.5664 43.8901 63.0908 42.8493 63.4403 41.7881C64.5702 38.4537 64.3507 34.663 62.1052 32.836C61.6196 32.4632 61.205 32.1189 60.76 31.8561C60.4551 31.675 59.9472 31.3572 59.5122 31.1432C55.6471 29.3142 39.1241 22.3052 39.1241 22.3052L64.6799 22.293L65.6614 14.347L35.328 14.3389Z" fill="black"/>
</svg>
