<svg width="214" height="68" viewBox="0 0 214 68" fill="none" xmlns="http://www.w3.org/2000/svg">
<path fill-rule="evenodd" clip-rule="evenodd" d="M44.2045 40.9438L50.1015 33.5632L44.0298 33.561L41.1333 37.2049L44.2045 40.9438Z" fill="#D2592C"/>
<path fill-rule="evenodd" clip-rule="evenodd" d="M33.2243 37.2607C34.4022 37.2607 35.4117 37.7765 36.1478 38.6493C36.414 38.9647 36.4992 39.0534 36.703 39.3154C37.4026 40.2144 37.6439 40.5402 38.0524 41.056C37.6439 41.555 37.4079 41.8965 36.703 42.7975C36.5003 43.0554 36.415 43.1462 36.1478 43.4636C35.4117 44.3355 34.4033 44.8502 33.2243 44.8502C32.2409 44.8218 31.3073 44.4096 30.6218 43.701C29.9362 42.9924 29.5527 42.0434 29.5527 41.0555C29.5527 40.0675 29.9362 39.1185 30.6218 38.4099C31.3073 37.7013 32.2409 37.2891 33.2243 37.2607Z" fill="#4375B0"/>
<path fill-rule="evenodd" clip-rule="evenodd" d="M184.878 49.0585H189.896L189.901 43.0185L191.831 41.0566L196.827 49.0616H202.862L195.396 37.8617L202.084 30.9071H196.171L189.896 37.6446L189.903 23.8918H184.865L184.878 49.0585ZM151.486 49.0616L151.481 40.3769H154.313C160.375 40.4782 165.167 38.7565 165.167 32.0377C165.167 26.5511 160.947 23.6465 154.86 23.8887H146.148V49.0616H151.486ZM155.107 28.2206C158.125 28.0985 160 29.3117 160.03 32.0848C160.061 34.8923 157.981 36.0596 155.232 35.9866H151.497V28.2206H155.107ZM169.881 36.6005C169.881 36.6005 169.57 33.8138 173.459 33.8765C175.078 33.9057 176.551 34.7075 176.449 36.1369C176.376 37.1861 175.508 37.4566 173.747 37.7176C170.883 38.0768 168.869 38.5456 167.502 39.217C165.74 40.0836 164.25 41.9222 164.391 44.1732C164.606 47.6511 168.192 49.6902 171.697 49.5377C175.762 49.3633 176.513 46.9035 176.513 46.9035C176.575 47.3076 176.586 47.3107 176.67 47.8892C176.787 48.7003 176.954 49.071 176.954 49.071H182.078C181.8 48.8236 181.675 48.7297 181.52 48.4153C181.332 48.0113 181.303 47.6385 181.303 47.2032V36.7904C181.303 31.6776 177.214 30.3724 173.202 30.3056C165.645 30.1803 165.65 35.6106 165.491 36.4731V36.4783L169.881 36.6005ZM172.824 45.8803C171.302 46.0327 169.336 45.5974 169.263 43.6637C169.19 41.7781 171.838 41.2539 173.169 40.9825C174.252 40.7601 175.255 40.4824 175.995 40.1744C176.438 39.9937 176.522 39.8466 176.522 39.8466V42.3606C176.425 44.2452 175.173 45.6496 172.824 45.8803ZM72.8576 49.0616V28.3532H80.5084V23.8542H59.9897V28.3532H67.5221V49.0616H72.8576Z" fill="#2566AF"/>
<path fill-rule="evenodd" clip-rule="evenodd" d="M76.6782 40.5545C77.0161 47.2775 82.6801 49.7937 86.0569 49.6924C93.3928 49.4836 94.816 43.6722 94.816 43.6722L89.6833 43.3684C89.6833 43.3684 88.8713 45.6936 86.0445 45.679C81.7299 45.658 81.6176 41.3501 81.6176 41.3501H95.0095C95.0095 41.3501 95.5054 30.5178 85.5746 30.3757C79.9501 30.2954 76.4006 35.048 76.6782 40.5545ZM89.7249 37.8243H81.7622C81.7622 37.8243 82.1021 34.3506 85.6723 34.3193C89.1957 34.2859 89.7249 37.8243 89.7249 37.8243ZM109.081 49.0618H114.062V40.8229C114.062 38.5154 114.52 36.4294 116.577 35.3999C117.635 34.8706 118.483 34.809 119.665 34.9646V30.6576C119.506 30.5605 118.923 30.4989 118.363 30.4718C116.753 30.3861 115.214 31.3259 114.299 32.9724C114.193 33.1722 114.1 33.3783 114.019 33.5894L113.848 30.998H109.081V49.0618ZM95.3639 34.4153L97.8529 34.4237V43.6837C97.8529 45.182 98.0057 47.0748 99.4373 48.1377C100.87 49.1975 102.825 49.0618 104.663 49.0544C105.442 49.0513 106.209 49.0513 106.209 49.0513L106.217 45.325H105.042C104.233 45.325 103.758 45.2727 103.356 44.9627C102.727 44.4782 102.769 43.6732 102.769 43.2368V34.4143H106.108V30.9803H102.777V25.2482L97.8529 25.2263V30.9604L95.3639 30.9823V34.4153ZM125.184 36.5881C125.184 36.5881 124.873 33.8004 128.764 33.8609C130.385 33.8944 131.86 34.6941 131.759 36.1245C131.686 37.1748 130.815 37.4452 129.053 37.7073C126.187 38.0665 124.171 38.5363 122.803 39.2077C121.038 40.0743 119.548 41.914 119.689 44.165C119.906 47.6502 123.495 49.6893 127.004 49.5368C131.071 49.3624 131.822 46.8984 131.822 46.8984C131.884 47.3036 131.897 47.3098 131.981 47.885C132.096 48.6994 132.265 49.0701 132.265 49.0701H137.395C137.113 48.8227 136.989 48.7286 136.833 48.4144C136.647 48.0104 136.616 47.6376 136.616 47.1981V36.778C136.616 31.661 132.524 30.3538 128.509 30.288C120.946 30.1638 120.949 35.5982 120.792 36.4607V36.4638L125.184 36.5881ZM128.131 45.8804C126.605 46.0307 124.642 45.5954 124.566 43.6607C124.493 41.7741 127.143 41.2478 128.474 40.9743C129.56 40.753 130.564 40.4752 131.305 40.1672C131.747 39.9845 131.833 39.8383 131.833 39.8383V42.3546C131.734 44.2381 130.481 45.6465 128.131 45.8804ZM30.295 48.951C29.5558 48.7621 28.8592 48.3623 28.6367 48.2265C26.2591 46.7303 24.6808 44.1306 24.6808 41.0484C24.6808 36.3187 28.5057 32.49 33.2226 32.49C35.5474 32.49 37.8658 33.3858 39.707 35.5429L39.812 35.6682L39.889 35.6129L30.663 19.6279L13.7354 49.0304H30.2919L30.295 48.951ZM36.2907 48.951L36.2928 49.0304H47.6458V48.9395C47.6458 48.9395 47.4764 48.9156 47.2976 48.8947C46.6843 48.8065 46.0844 48.6424 45.5113 48.4061C43.7991 47.6951 42.3591 46.2949 41.1355 44.8478C41.1355 44.8478 40.2216 46.0402 39.4128 46.9287C38.2099 48.2495 36.9093 48.7976 36.2907 48.951Z" fill="#2566AF"/>
</svg>
