<svg width="289" height="68" viewBox="0 0 289 68" fill="none" xmlns="http://www.w3.org/2000/svg">
<path d="M49.8907 37.8618V32.0666C49.8907 26.9271 49.8907 26.017 49.824 24.9597C49.7574 23.8488 49.4907 23.3135 48.4104 23.0859C48.1437 23.019 47.597 22.9923 47.2902 22.9923C47.1569 22.9923 47.0234 22.9253 47.0234 22.7915C47.0234 22.5907 47.1835 22.5238 47.5435 22.5238C49.0239 22.5238 51.0777 22.6175 51.2511 22.6175C51.4778 22.6175 57.9992 22.6175 58.7593 22.5907C59.3861 22.564 59.9061 22.4971 60.1729 22.4301C60.333 22.4034 60.4663 22.2695 60.6264 22.2695C60.7197 22.2695 60.7597 22.4034 60.7597 22.564C60.7597 22.7915 60.5997 23.193 60.493 24.1031C60.4663 24.4377 60.3996 25.8832 60.333 26.2713C60.3063 26.4319 60.2396 26.6327 60.1063 26.6327C59.9061 26.6327 59.8395 26.4721 59.8395 26.2044C59.8395 25.9769 59.8129 25.4148 59.6395 25.0132C59.4127 24.4913 59.0794 24.0897 57.319 23.889C56.7589 23.8221 53.1847 23.7953 52.8247 23.7953C52.6913 23.7953 52.6247 23.889 52.6247 24.1299V33.2042C52.6247 33.4317 52.6514 33.5388 52.8247 33.5388C53.2514 33.5388 57.2789 33.5388 58.0391 33.4719C58.8259 33.4049 59.2794 33.3381 59.5861 33.0169C59.8129 32.7492 59.9462 32.5885 60.0795 32.5885C60.1729 32.5885 60.2396 32.6555 60.2396 32.8562C60.2396 33.057 60.0795 33.6191 59.9729 34.7032C59.9061 35.3591 59.8395 36.577 59.8395 36.8045C59.8395 37.0722 59.8395 37.4336 59.6127 37.4336C59.4528 37.4336 59.3861 37.2998 59.3861 37.1391C59.3861 36.8045 59.3861 36.4832 59.2527 36.055C59.1193 35.5999 58.8259 35.0379 57.5457 34.904C56.6655 34.8102 53.4115 34.7434 52.8647 34.7434C52.7047 34.7434 52.638 34.837 52.638 34.9709V37.8618C52.638 38.9727 52.6113 42.8005 52.638 43.4831C52.7313 45.7584 53.2248 46.1866 56.4388 46.1866C57.2923 46.1866 58.7327 46.1866 59.5861 45.8253C60.4396 45.4639 60.8264 44.8081 61.0665 43.4564C61.1331 43.095 61.1998 42.9611 61.3599 42.9611C61.5599 42.9611 61.5599 43.2288 61.5599 43.4564C61.5599 43.724 61.2932 45.9591 61.1331 46.6417C60.9064 47.4983 60.6396 47.4983 59.3594 47.4983C54.4116 47.4983 52.2113 47.2976 51.2643 47.2976C51.1044 47.2976 49.0372 47.3912 48.0503 47.3912C47.6902 47.3912 47.5302 47.3243 47.5302 47.1235C47.5302 47.0299 47.597 46.9227 47.797 46.9227C48.0904 46.9227 48.4904 46.8559 48.7838 46.7889C49.4374 46.655 49.5973 45.9323 49.7307 44.9821C49.8907 43.6169 49.8907 41.0205 49.8907 37.8618ZM64.9339 44.2995L71.2687 26.9138C71.602 25.9903 71.7086 25.8163 71.8821 25.8163C72.0421 25.8163 72.1621 25.9501 72.4956 26.8201C72.9089 27.8908 77.2965 39.4545 78.9902 43.7106C79.9904 46.2 80.8039 46.655 81.3907 46.8157C81.8042 46.9495 82.2309 46.9897 82.511 46.9897C82.6844 46.9897 82.791 47.0164 82.791 47.1637C82.791 47.3376 82.5377 47.3912 82.2309 47.3912C81.8175 47.3912 79.777 47.3912 77.8566 47.3376C77.3232 47.3109 77.0165 47.3109 77.0165 47.1369C77.0165 47.0299 77.0965 46.9629 77.2165 46.9362C77.3765 46.8826 77.55 46.6283 77.3765 46.1733L74.7761 39.2805C74.7226 39.1735 74.6693 39.1199 74.5226 39.1199H68.5214C68.388 39.1199 68.2946 39.2003 68.2413 39.3475L66.561 44.2995C66.3075 44.9955 66.1742 45.6646 66.1742 46.1733C66.1742 46.7354 66.761 46.9897 67.241 46.9897H67.5212C67.7212 46.9897 67.8012 47.0432 67.8012 47.1637C67.8012 47.3376 67.6278 47.3912 67.3877 47.3912C66.7209 47.3912 65.5207 47.3109 65.214 47.3109C64.9072 47.3109 63.3736 47.3912 62.0666 47.3912C61.7066 47.3912 61.5332 47.3376 61.5332 47.1637C61.5332 47.0566 61.6399 46.9897 61.7866 46.9897C61.9866 46.9897 62.3734 46.9629 62.6001 46.9362C63.867 46.7622 64.4272 45.7048 64.9339 44.2995ZM68.8415 38.1162H74.1759C74.3092 38.1162 74.3092 38.0358 74.2825 37.9154L71.6287 30.3534C71.4953 29.9386 71.3486 29.9386 71.2152 30.3534L68.7614 37.9154C68.6948 38.0625 68.7481 38.1162 68.8415 38.1162ZM86.9253 47.7793C88.4322 47.7793 89.9393 47.4448 91.1394 46.6015C93.0599 45.223 93.5133 43.1083 93.5133 41.9574C93.5133 39.7222 92.7264 37.9823 89.4324 35.3724L88.6456 34.7567C86.0184 32.602 85.2449 31.6517 85.2449 30.0589C85.2449 28.0112 86.7519 26.8067 88.6723 26.8067C91.2328 26.8067 91.9929 27.9845 92.1663 28.2923C92.3397 28.6001 92.4998 29.3497 92.5264 29.6976C92.5531 29.9251 92.5798 30.0589 92.7531 30.0589C92.8865 30.0589 92.9531 29.8582 92.9531 29.4165C92.9531 27.516 93.0599 26.5925 93.0599 26.4453C93.0599 26.3115 93.0066 26.2446 92.7798 26.2446C92.5531 26.2446 92.3397 26.2178 91.8063 26.0973C91.1127 25.9234 90.2993 25.8163 89.2058 25.8163C85.6583 25.8163 83.4311 27.864 83.4311 30.862C83.4311 32.7625 84.0979 34.5025 87.0586 36.9384L88.3122 37.9689C90.7127 39.9631 91.5262 41.074 91.5262 43.0147C91.5262 44.8081 90.2193 46.7354 87.5387 46.7354C85.6717 46.7354 83.8313 45.9458 83.4045 43.8846C83.3245 43.4965 83.3245 43.095 83.3245 42.854C83.3245 42.6265 83.2978 42.5463 83.1245 42.5463C82.991 42.5463 82.9244 42.6935 82.8978 43.0013C82.871 43.4429 82.7643 44.5672 82.7643 45.9725C82.7643 46.7354 82.791 46.8425 83.1778 47.0299C84.338 47.5786 85.6182 47.7793 86.9253 47.7793ZM103.929 27.4223L107.45 27.4759C110.13 27.5294 110.77 28.1719 110.877 29.015L110.904 29.3229C110.93 29.711 110.984 29.8047 111.13 29.8047C111.237 29.8047 111.33 29.6842 111.33 29.4433C111.33 29.1355 111.41 27.2082 111.41 26.365C111.41 26.191 111.41 26.0304 111.264 26.0304C111.037 26.0304 110.29 26.3115 108.503 26.3115H98.0343C97.7009 26.3115 96.6339 26.2579 95.8338 26.1776C95.0736 26.1241 94.8069 25.843 94.6069 25.843C94.5001 25.843 94.3802 26.2044 94.3268 26.3784C94.2734 26.6059 93.7133 29.015 93.7133 29.2961C93.7133 29.4701 93.7667 29.5504 93.8467 29.5504C93.9534 29.5504 94.0468 29.4969 94.1267 29.2693C94.2067 29.0686 94.3001 28.8812 94.6069 28.3994C95.047 27.7302 95.7271 27.5294 97.4475 27.5027L101.582 27.4491V39.2939C101.582 41.9841 101.582 44.1924 101.448 45.3702C101.342 46.1866 101.195 46.8023 100.635 46.9094C100.381 46.9629 100.048 47.0164 99.7946 47.0164C99.6212 47.0164 99.5679 47.0967 99.5679 47.1904C99.5679 47.3644 99.7012 47.4179 100.021 47.4179C100.862 47.4179 102.622 47.3376 102.755 47.3376C102.889 47.3376 104.649 47.4179 106.183 47.4179C106.489 47.4179 106.636 47.3376 106.636 47.1904C106.636 47.1101 106.583 47.0164 106.409 47.0164C106.156 47.0164 105.543 46.9629 105.156 46.9094C104.316 46.8023 104.156 46.1866 104.062 45.3702C103.929 44.1924 103.929 41.9841 103.929 39.2939V27.4223ZM132.628 24.2102C132.228 23.0859 132.041 22.671 131.801 22.671C131.601 22.671 131.468 22.8317 130.988 24.1834L124.04 42.921H123.973C123.48 41.181 120.079 29.1087 119.585 26.9941C119.252 25.5486 118.959 24.3976 118.959 23.9693C118.959 23.541 119.185 23.2733 119.385 23.1796C119.786 22.9789 120.399 22.9789 120.666 22.9789C120.826 22.9789 120.999 22.9521 120.999 22.7513C120.999 22.6175 120.866 22.5238 120.412 22.5238C118.772 22.5238 117.332 22.6175 117.038 22.6175C116.678 22.6175 114.878 22.5238 113.171 22.5238C112.837 22.5238 112.651 22.5907 112.651 22.7513C112.651 22.9521 112.784 22.9789 112.944 22.9789C113.171 22.9789 113.998 23.0056 114.424 23.1796C115.278 23.5142 115.705 24.0094 116.225 25.7494L122.04 45.2632C122.692 47.4983 122.853 47.8596 123.186 47.8596C123.573 47.8596 123.746 47.4983 124.266 46.1198C125.44 43.0682 129.934 31.0227 131.121 27.864H131.188L137.615 46.1598C138.07 47.4448 138.269 47.873 138.603 47.873C138.963 47.873 139.123 47.4716 139.977 45.049C141.257 41.3685 144.565 30.9022 146.005 26.7264C146.631 24.9196 147.151 23.541 148.139 23.1796C148.499 23.0458 149.125 23.019 149.258 23.019C149.458 23.019 149.552 22.9253 149.552 22.7513C149.552 22.6175 149.392 22.5506 149.098 22.5506C148.085 22.5506 146.672 22.6443 146.444 22.6443C146.151 22.6443 144.777 22.5506 143.098 22.5506C142.697 22.5506 142.537 22.6175 142.537 22.7781C142.537 22.912 142.67 23.0056 142.831 23.0056C144.337 23.0056 144.697 23.3938 144.697 23.9961C144.697 24.4243 144.67 24.8794 144.337 26.0973C143.191 30.3133 140.177 39.8427 139.296 42.8675H139.163L132.628 24.2102ZM150.645 39.2671C150.645 41.9574 150.645 44.1656 150.512 45.3434C150.406 46.1598 150.258 46.7755 149.699 46.8826C149.445 46.9362 149.112 46.9897 148.859 46.9897C148.685 46.9897 148.631 47.07 148.631 47.1637C148.631 47.3376 148.765 47.3912 149.085 47.3912C149.925 47.3912 151.686 47.3109 151.819 47.3109C152.632 47.3109 154.499 47.4716 158.714 47.4716C159.807 47.4716 160.021 47.4716 160.221 46.7487C160.354 46.1598 160.581 44.2593 160.581 44.0318C160.581 43.8311 160.581 43.6169 160.408 43.6169C160.261 43.6169 160.208 43.724 160.154 44.0318C159.955 45.1829 159.62 45.7316 158.9 46.0394C158.18 46.3473 156.953 46.3473 156.22 46.3473C153.486 46.3473 153.073 45.9859 152.98 44.0452C152.953 43.4564 152.98 40.204 152.98 39.2538V36.7911C152.98 36.6841 153.032 36.5904 153.18 36.5904C153.659 36.5904 156.42 36.6439 157.167 36.7242C158.247 36.8312 158.5 37.3131 158.62 37.7012C158.727 38.0626 158.727 38.3437 158.727 38.6247C158.727 38.7586 158.78 38.8791 158.927 38.8791C159.128 38.8791 159.128 38.5712 159.128 38.3437C159.128 38.1429 159.181 37.1123 159.233 36.5502C159.314 35.6268 159.461 35.1449 159.461 34.9842C159.461 34.8102 159.408 34.7567 159.327 34.7567C159.221 34.7567 159.101 34.8906 158.914 35.1181C158.661 35.3991 158.274 35.4527 157.607 35.5063C156.967 35.5598 153.526 35.5598 153.166 35.5598C153.032 35.5598 153.005 35.4795 153.005 35.2787V27.583C153.005 27.3822 153.059 27.3019 153.166 27.3019C153.472 27.3019 156.513 27.3287 156.994 27.3822C158.5 27.5562 158.78 27.8908 158.98 28.3324C159.114 28.6671 159.154 29.1488 159.154 29.3362C159.154 29.5637 159.208 29.6976 159.381 29.6976C159.488 29.6976 159.541 29.5237 159.581 29.3898C159.634 29.0552 159.687 27.8239 159.714 27.5428C159.794 26.7532 159.941 26.4186 159.941 26.2312C159.941 26.084 159.914 25.9769 159.834 25.9769C159.687 25.9769 159.581 26.084 159.447 26.1241C159.221 26.1776 158.78 26.2312 158.247 26.258C157.607 26.2847 152.046 26.2847 151.859 26.2847C151.725 26.2847 149.966 26.2044 148.711 26.2044C148.405 26.2044 148.271 26.2579 148.271 26.4319C148.271 26.539 148.378 26.6059 148.499 26.6059C148.752 26.6059 149.219 26.6327 149.445 26.6862C150.365 26.887 150.592 27.3287 150.645 28.2789C150.699 29.1757 150.699 29.9653 150.699 34.3285V39.2671H150.645ZM167.556 47.7793C169.063 47.7793 170.57 47.4448 171.77 46.6015C173.691 45.223 174.144 43.1083 174.144 41.9574C174.144 39.7222 173.357 37.9823 170.063 35.3724L169.276 34.7567C166.648 32.602 165.875 31.6517 165.875 30.0589C165.875 28.0112 167.382 26.8067 169.302 26.8067C171.876 26.8067 172.623 27.9845 172.796 28.2923C172.97 28.6001 173.131 29.3497 173.156 29.6976C173.183 29.9251 173.21 30.0589 173.384 30.0589C173.516 30.0589 173.584 29.8582 173.584 29.4165C173.584 27.516 173.691 26.5925 173.691 26.4453C173.691 26.3115 173.637 26.2446 173.411 26.2446C173.183 26.2446 172.957 26.2178 172.436 26.0973C171.743 25.9234 170.93 25.8163 169.837 25.8163C166.288 25.8163 164.062 27.864 164.062 30.862C164.062 32.7625 164.728 34.5025 167.689 36.9384L168.942 37.9689C171.343 39.9631 172.156 41.074 172.156 43.0147C172.156 44.8081 170.85 46.7354 168.169 46.7354C166.302 46.7354 164.461 45.9458 164.035 43.8846C163.955 43.4965 163.955 43.095 163.955 42.854C163.955 42.6265 163.928 42.5463 163.755 42.5463C163.621 42.5463 163.555 42.6935 163.529 43.0013C163.502 43.4429 163.395 44.5672 163.395 45.9725C163.395 46.7354 163.422 46.8425 163.808 47.0299C164.969 47.5786 166.249 47.7793 167.556 47.7793ZM184.559 27.4223L188.08 27.4759C190.76 27.5294 191.401 28.1719 191.507 29.015L191.534 29.3229C191.56 29.711 191.614 29.8047 191.761 29.8047C191.867 29.8047 191.961 29.6842 191.961 29.4433C191.961 29.1355 192.041 27.2082 192.041 26.365C192.041 26.191 192.041 26.0304 191.908 26.0304C191.681 26.0304 190.934 26.3115 189.147 26.3115H178.678C178.345 26.3115 177.277 26.2579 176.477 26.1776C175.717 26.1241 175.45 25.843 175.25 25.843C175.144 25.843 175.024 26.2044 174.971 26.3784C174.917 26.6059 174.357 29.015 174.357 29.2961C174.357 29.4701 174.411 29.5504 174.491 29.5504C174.598 29.5504 174.691 29.4969 174.771 29.2693C174.851 29.0686 174.944 28.8812 175.238 28.3994C175.691 27.7302 176.357 27.5294 178.078 27.5027L182.212 27.4491V39.2939C182.212 41.9841 182.212 44.1924 182.065 45.3702C181.958 46.1866 181.812 46.8023 181.252 46.9094C180.999 46.9629 180.665 47.0164 180.412 47.0164C180.238 47.0164 180.185 47.0967 180.185 47.1904C180.185 47.3644 180.318 47.4179 180.625 47.4179C181.466 47.4179 183.225 47.3376 183.359 47.3376C183.505 47.3376 185.252 47.4179 186.787 47.4179C187.093 47.4179 187.227 47.3376 187.227 47.1904C187.227 47.1101 187.173 47.0164 187 47.0164C186.746 47.0164 186.133 46.9629 185.746 46.9094C184.906 46.8023 184.746 46.1866 184.653 45.3702C184.519 44.1924 184.519 41.9841 184.519 39.2939V27.4223H184.559ZM198.683 37.8618V32.0666C198.683 26.9271 198.683 26.017 198.615 24.9597C198.549 23.8488 198.282 23.3135 197.202 23.0859C196.936 23.019 196.375 22.9923 196.082 22.9923C195.948 22.9923 195.815 22.9253 195.815 22.7915C195.815 22.5907 195.975 22.5238 196.335 22.5238C197.815 22.5238 199.87 22.6175 200.043 22.6175C200.829 22.6175 202.109 22.5238 203.617 22.5238C208.991 22.5238 210.164 25.8163 210.164 27.4625C210.164 30.1661 208.631 31.7721 207.084 33.3782C209.511 34.1411 212.752 36.4699 212.752 40.3244C212.752 43.8444 210.005 47.4983 204.39 47.4983C203.63 47.4983 200.296 47.2976 200.029 47.2976C199.87 47.2976 197.802 47.3912 196.815 47.3912C196.455 47.3912 196.295 47.3243 196.295 47.1235C196.295 47.0299 196.362 46.9227 196.562 46.9227C196.856 46.9227 197.242 46.8559 197.549 46.7889C198.202 46.655 198.362 45.9323 198.496 44.9821C198.683 43.6169 198.683 41.0205 198.683 37.8618ZM201.296 23.9827V32.8027C201.296 33.0302 201.362 33.0972 201.523 33.1641C201.722 33.1909 202.31 33.2979 203.524 33.2979C205.364 33.2979 205.817 33.231 206.51 32.4413C207.205 31.6517 207.697 30.4739 207.697 29.1221C207.697 26.3918 206.483 23.4607 203.27 23.4607C202.909 23.4607 202.216 23.4875 201.697 23.6213C201.403 23.6882 201.296 23.7819 201.296 23.9827ZM201.296 34.4088V36.2825C201.296 38.8121 201.296 42.8942 201.323 43.3894C201.416 45.0089 201.416 45.4639 202.444 45.9591C203.323 46.3875 204.736 46.4543 205.324 46.4543C207.098 46.4543 209.952 45.5041 209.952 41.7834C209.952 39.8159 209.298 36.9517 206.777 35.2118C205.657 34.449 204.843 34.3552 204.057 34.2615C203.63 34.1946 201.989 34.1946 201.496 34.1946C201.362 34.1813 201.296 34.2348 201.296 34.4088ZM214.912 44.2995L221.247 26.9138C221.581 25.9903 221.687 25.8163 221.86 25.8163C222.034 25.8163 222.14 25.9501 222.474 26.8201C222.887 27.8908 227.275 39.4545 228.982 43.7106C229.982 46.2 230.796 46.655 231.382 46.8157C231.796 46.9495 232.222 46.9897 232.489 46.9897C232.663 46.9897 232.769 47.0164 232.769 47.1637C232.769 47.3376 232.516 47.3912 232.209 47.3912C231.796 47.3912 229.755 47.3912 227.835 47.3376C227.302 47.3109 226.994 47.3109 226.994 47.1369C226.994 47.0299 227.075 46.9629 227.195 46.9362C227.354 46.8826 227.529 46.6283 227.354 46.1733L224.755 39.2805C224.701 39.1735 224.648 39.1199 224.501 39.1199H218.5C218.367 39.1199 218.273 39.2003 218.219 39.3475L216.54 44.2995C216.286 44.9955 216.153 45.6646 216.153 46.1733C216.153 46.7354 216.739 46.9897 217.206 46.9897H217.486C217.686 46.9897 217.766 47.0432 217.766 47.1637C217.766 47.3376 217.593 47.3912 217.353 47.3912C216.686 47.3912 215.486 47.3109 215.179 47.3109C214.873 47.3109 213.339 47.3912 212.032 47.3912C211.672 47.3912 211.499 47.3376 211.499 47.1637C211.499 47.0566 211.604 46.9897 211.752 46.9897C211.952 46.9897 212.338 46.9629 212.565 46.9362C213.859 46.7622 214.406 45.7048 214.912 44.2995ZM218.82 38.1162H224.154C224.288 38.1162 224.288 38.0358 224.261 37.9154L221.607 30.3534C221.461 29.9386 221.327 29.9386 221.194 30.3534L218.74 37.9154C218.673 38.0625 218.74 38.1162 218.82 38.1162ZM235.343 30.1661C236.236 31.1699 239.398 34.7032 242.625 38.2098C245.585 41.3952 249.6 45.5174 249.906 45.7986C251.387 47.2841 251.72 47.592 251.947 47.592C252.147 47.592 252.2 47.4581 252.2 45.5978L252.254 29.189C252.254 27.516 252.36 26.887 253.28 26.6996C253.614 26.6193 253.814 26.6193 253.947 26.6193C254.147 26.6193 254.254 26.539 254.254 26.4186C254.254 26.2446 254.054 26.2178 253.747 26.2178C252.601 26.2178 251.68 26.2981 251.373 26.2981C251.067 26.2981 249.733 26.2178 248.466 26.2178C248.133 26.2178 247.906 26.2446 247.906 26.4186C247.906 26.5256 247.933 26.6193 248.133 26.6193C248.359 26.6193 248.999 26.6461 249.507 26.7665C250.373 26.9941 250.573 27.6097 250.6 29.43L250.906 43.6571C250.013 42.7336 246.972 39.3207 244.211 36.3495C239.917 31.7319 235.757 27.2216 235.343 26.7398C235.063 26.4587 234.596 25.843 234.37 25.843C234.143 25.843 234.063 26.1509 234.063 27.2484L234.036 43.2957C234.036 45.8386 233.903 46.655 233.197 46.8559C232.783 46.9897 232.276 47.0299 232.049 47.0299C231.916 47.0299 231.823 47.0834 231.823 47.2039C231.823 47.3912 231.996 47.4314 232.263 47.4314C233.516 47.4314 234.689 47.3511 234.944 47.3511C235.197 47.3511 236.317 47.4314 237.904 47.4314C238.238 47.4314 238.411 47.3778 238.411 47.2039C238.411 47.0967 238.331 47.0299 238.184 47.0299C237.931 47.0299 237.317 47.0031 236.783 46.8559C236.024 46.6283 235.757 45.9056 235.69 43.6036L235.343 30.1661ZM258.695 39.2671C258.695 41.9574 258.695 44.1656 258.548 45.3434C258.442 46.1598 258.295 46.7755 257.735 46.8826C257.481 46.9362 257.148 46.9897 256.895 46.9897C256.721 46.9897 256.667 47.07 256.667 47.1637C256.667 47.3376 256.801 47.3912 257.108 47.3912C257.948 47.3912 259.562 47.3109 259.788 47.3109C260.015 47.3109 261.629 47.3912 263.002 47.3912C263.309 47.3912 263.442 47.3109 263.442 47.1637C263.442 47.0834 263.389 46.9897 263.216 46.9897C262.963 46.9897 262.522 46.9362 262.123 46.8826C261.282 46.7755 261.122 46.1598 261.029 45.3434C260.895 44.1656 260.895 41.9574 260.895 39.2671V36.5234H261.029C262.376 38.183 268.284 44.594 269.537 45.6246C270.738 46.5748 271.431 47.1904 272.911 47.3376C273.524 47.3912 274.058 47.3912 274.832 47.3912H276.258C276.739 47.3912 276.872 47.3109 276.872 47.1637C276.872 47.0566 276.699 46.9897 276.512 46.9897C276.312 46.9897 275.512 46.9362 274.779 46.6283C273.445 46.0662 272.964 45.6246 270.617 43.4295C269.471 42.3588 263.669 36.3495 262.949 35.5331C263.536 34.837 268.39 30.0724 269.084 29.4032C270.337 28.1986 270.95 27.5027 272.098 26.9941C272.658 26.7398 273.244 26.6059 273.658 26.6059C273.884 26.6059 273.938 26.5524 273.938 26.4052C273.938 26.2579 273.832 26.2044 273.524 26.2044C272.831 26.2044 270.991 26.2847 270.845 26.2847C270.178 26.2847 269.31 26.2044 268.75 26.2044C268.551 26.2044 268.417 26.2579 268.417 26.4052C268.417 26.5122 268.524 26.5792 268.67 26.6327C268.897 26.713 269.03 26.887 269.03 27.2216C269.03 27.7034 268.31 28.4261 267.524 29.2425C266.524 30.3401 261.469 35.4929 261.002 36.0148H260.882V34.3285C260.882 29.9653 260.882 29.1757 260.936 28.2789C260.989 27.3019 261.216 26.8201 261.963 26.6862C262.296 26.6327 262.469 26.6059 262.656 26.6059C262.763 26.6059 262.882 26.5524 262.882 26.4319C262.882 26.2579 262.749 26.2044 262.442 26.2044C261.602 26.2044 259.988 26.2847 259.735 26.2847C259.576 26.2847 257.922 26.2044 256.667 26.2044C256.361 26.2044 256.214 26.2579 256.214 26.4319C256.214 26.539 256.321 26.6059 256.441 26.6059C256.694 26.6059 257.161 26.6327 257.387 26.6862C258.308 26.887 258.535 27.3287 258.588 28.2789C258.642 29.1757 258.642 29.9653 258.642 34.3285V39.2671H258.695Z" fill="black"/>
<path d="M11.3623 46.2667V23.862C11.3623 23.3802 11.4023 22.8448 11.4023 22.8448C11.469 21.038 12.8293 19.7933 14.5896 19.6461C14.5896 19.6461 15.0831 19.5925 15.6032 19.5925H37.9145C38.4081 19.5925 38.9282 19.6327 38.9282 19.6327C40.7285 19.6996 41.9688 21.0648 42.1155 22.8315C42.1155 22.8315 42.1555 23.34 42.1555 23.8486V46.24C42.1555 46.7219 42.1155 47.2571 42.1155 47.2571C42.0488 49.064 40.6885 50.3087 38.9282 50.4559C38.9282 50.4559 38.4347 50.5094 37.9145 50.5094H15.6032C15.1231 50.5094 14.5896 50.4693 14.5896 50.4693C12.7893 50.4024 11.549 49.0373 11.4023 47.2706C11.4023 47.2839 11.3623 46.7754 11.3623 46.2667Z" fill="white"/>
<path d="M42.4505 22.8182C42.2906 20.8106 40.8369 19.3651 38.9431 19.2982C38.9165 19.2982 38.3964 19.2581 37.9029 19.2581H15.5915C15.0714 19.2581 14.5647 19.2982 14.5513 19.3116C12.5509 19.4722 11.1106 20.9311 11.0439 22.8316C11.0439 22.8316 11.0039 23.3669 11.0039 23.8755V46.2669C11.0039 46.7888 11.0439 47.2975 11.0439 47.3108C11.204 49.3184 12.6576 50.7639 14.5513 50.8308C14.5513 50.8308 15.0848 50.871 15.5915 50.871H37.9162C38.4364 50.871 38.9431 50.8174 38.9565 50.8174C40.9569 50.6568 42.3972 49.198 42.4639 47.2975C42.4639 47.2707 42.5039 46.7488 42.5039 46.2534V23.8621C42.5039 23.3402 42.4639 22.8316 42.4505 22.8182ZM41.8104 46.2534C41.8104 46.7219 41.7705 47.2305 41.7705 47.2573C41.717 48.8366 40.5568 49.9876 38.8898 50.1215C38.8898 50.1215 38.4097 50.175 37.9162 50.175H15.6049C15.1381 50.175 14.6313 50.1348 14.6047 50.1348C13.031 50.0813 11.8841 48.9169 11.7507 47.2573C11.7507 47.2573 11.7107 46.7621 11.7107 46.2669V23.8621C11.7107 23.3937 11.7507 22.8851 11.7507 22.8583C11.8041 21.2924 12.951 20.1414 14.618 19.9942C14.618 19.9942 15.1114 19.954 15.5915 19.954H37.9029C38.3697 19.954 38.8765 19.9942 38.9032 19.9942C40.4768 20.0477 41.6238 21.2121 41.7571 22.8717C41.7571 22.8717 41.7971 23.3669 41.7971 23.8621V46.2534H41.8104Z" fill="#DA291C"/>
<path d="M25.9667 27.8771L41.0098 28.1448V25.0129L25.46 25.2539L25.9667 27.8771Z" fill="#DA291C"/>
<path d="M26.8067 32.1067H41.023V28.9614L26.2466 29.2291L26.8067 32.1067Z" fill="#DA291C"/>
<path d="M37.6655 49.3719H37.9189C38.279 49.3719 38.6524 49.3451 38.6524 49.3451C40.0527 49.2112 40.9329 48.2343 40.9862 47.0029C40.9862 47.0029 41.0129 46.6415 41.0129 46.2668V32.8962L37.8922 33.5119L37.6655 49.3719Z" fill="#DA291C"/>
<path d="M33.9264 34.275L33.6597 49.3721H36.767L36.527 33.7664L33.9264 34.275Z" fill="#DA291C"/>
<path d="M12.4937 46.0129V46.2672C12.4937 46.6419 12.5203 47.0033 12.5203 47.0033C12.5737 48.2347 13.5072 49.2786 14.8542 49.3455C14.8542 49.3455 15.2409 49.3723 15.5876 49.3723H28.9105L28.297 46.2538L12.4937 46.0129Z" fill="#DA291C"/>
<path d="M27.5368 42.2516L12.4937 41.9839V45.1157L28.0437 44.8749L27.5368 42.2516Z" fill="#DA291C"/>
<path d="M38.6481 20.7838C38.6481 20.7838 38.2613 20.7571 37.9146 20.7571H24.5918L25.2053 23.8889L41.0086 24.1298V23.8622C41.0086 23.4874 40.9819 23.126 40.9819 23.126C40.9019 21.7743 39.9684 20.8642 38.6481 20.7838Z" fill="#DA291C"/>
<path d="M15.8477 20.7437H15.6077C15.2342 20.7437 14.8608 20.7838 14.8608 20.7838C13.5806 20.8909 12.5804 21.801 12.5403 23.126C12.5403 23.126 12.5137 23.5141 12.5137 23.8621V37.2327L15.621 36.617L15.8477 20.7437Z" fill="#DA291C"/>
<path d="M23.8037 35.011V20.7437H20.6831L20.9498 35.5731L23.8037 35.011Z" fill="#DA291C"/>
<path d="M19.5926 35.8544L19.8593 20.7439H16.752L16.9787 36.363L19.5926 35.8544Z" fill="#DA291C"/>
<path d="M26.71 38.009H12.4937V41.1676L27.2701 40.8866L26.71 38.009Z" fill="#DA291C"/>
<path d="M29.7026 35.1178V49.3717H32.8367L32.5566 34.5422L29.7026 35.1178Z" fill="#DA291C"/>
</svg>
