<svg width="170" height="69" viewBox="0 0 170 69" fill="none" xmlns="http://www.w3.org/2000/svg">
<path d="M60.5386 30.9238C57.638 33.8461 51.8124 39.658 51.8124 39.658C51.8124 39.658 51.8892 44.1925 50.8769 46.1802C48.7417 50.4136 41.151 56.3186 41.151 56.3186L39.8488 54.9031C39.8488 54.9031 43.7955 50.4976 43.3351 47.5731L41.0951 32.9023C38.8251 35.2638 36.4768 37.8685 34.0009 40.6585C34.1396 42.4497 34.0663 44.2652 33.2504 45.8696C31.1654 49.959 23.7887 55.9574 23.7887 55.9574L22.5312 54.5925C22.5312 54.5925 24.8928 52.251 25.4992 50.6955C25.7798 49.996 25.8489 49.2258 25.8923 48.5621C26.0965 45.6655 23.4335 32.0941 21.4647 21.98C20.8117 18.6497 19.4267 18.5656 18.4163 18.8442C17.5273 19.0966 15.7271 19.7382 15.7271 19.7382L15.48 18.4536L29.717 12.629L33.5065 36.5185L40.5658 29.5607L39.4446 22.4383C39.267 21.2621 38.8251 19.983 37.2965 19.7608C35.9343 19.5756 33.5294 20.7104 33.5294 20.7104L32.9101 19.1734L47.4729 12.5766L51.3183 35.8696C51.3183 35.8696 56.2457 30.823 56.59 30.4338C57.4903 29.4427 57.346 27.4646 56.502 23.2726C56.2549 21.2959 55.9277 19.1476 54.6122 18.7344C53.1503 18.2838 50.6672 19.3963 50.6672 19.3963L50.1398 17.9117L63.3829 12.0605C63.3829 12.0605 65.3742 20.3496 65.1609 20.3496C65.7466 24.5925 65.0601 25.5348 64.0907 26.9708C63.1062 28.4536 60.5386 30.9238 60.5386 30.9238ZM67.8723 45.0826C67.5541 43.3753 68.0747 41.67 68.735 40.2039C69.9067 37.5747 73.5597 36.9804 76.2131 36.7425C78.1278 36.5632 79.8566 40.3027 79.8566 40.3027L76.7408 42.1165C76.7408 42.1165 75.99 40.2283 75.313 39.551C74.787 39.0142 73.8719 38.9023 73.2786 39.5213C71.7721 41.0804 71.9293 43.2851 71.9184 43.1149C72.0102 44.0256 73.4508 44.4293 73.4249 44.4089C74.909 45.3421 76.7893 45.7572 77.5756 47.3077C78.0022 48.1339 77.2724 50.6286 76.5855 51.5971C75.698 52.8126 72.2773 55.4919 69.2965 55.0807C65.6793 54.6205 64.8352 50.5668 64.8352 50.5668L68.5667 48.4106C68.5667 48.4106 69.9626 53.2443 71.6509 52.242C72.5602 51.7128 73.2451 50.1157 72.8634 48.9043C72.6183 48.0961 71.2429 47.788 69.9852 47.0007C69.1638 46.483 68.0747 46.1016 67.8723 45.0826ZM83.9272 33.7114C84.253 32.8833 83.5584 31.2191 83.5584 31.2191L87.0786 29.5548C87.0786 29.5548 88.4017 30.4335 88.235 32.3203C88.089 33.8875 87.4134 37.0793 87.4134 37.0793H92.3634C92.3634 37.0793 93.432 33.1489 94.227 30.3404C94.5961 29.0539 95.0918 28.3753 96.1398 27.689C97.5452 26.7692 102.546 22.4758 105.686 24.5681C106.653 25.217 107.63 26.3222 107.453 27.4869C107.046 29.9331 106.79 31.3089 105.892 33.7791C104.656 33.8649 102.158 33.7791 102.158 33.7791C102.158 33.7791 103.888 29.389 102.654 27.8912C101.204 26.1128 99.523 28.3437 99.523 28.3437C98.2993 29.114 96.658 37.0796 96.658 37.0796H105.306C105.306 37.0796 102.673 47.1134 101.584 50.5314C101.269 51.5076 101.357 51.769 101.795 52.1827C102.501 52.8518 104.067 51.5076 104.067 51.5076L104.845 52.7922C104.845 52.7922 102.673 54.4863 101.246 55.2381C99.0738 56.3916 96.7479 52.0219 96.9369 51.3469C97.9735 47.7531 98.7784 44.7799 99.6576 41.1243C99.8055 40.5207 99.7047 39.9839 99.48 39.5521C99.0629 38.7706 96.0761 38.9837 96.0761 38.9837L91.3863 55.0592H87.3458L91.9567 38.9837H86.5152C86.5152 38.9837 84.2882 46.7439 83.5025 50.5543C83.3768 51.1098 83.5584 51.6426 83.9964 51.9717C84.7352 52.5194 86.8743 50.9115 86.8743 50.9115L87.4732 52.183C87.4732 52.183 83.1432 55.5676 81.9136 55.3731C80.9931 55.2384 79.2303 53.417 78.9682 52.5907C78.689 51.5982 82.3084 38.9837 82.3084 38.9837H80.162L80.4074 37.0804H82.9732C82.9732 37.0804 83.4667 34.8634 83.9272 33.7114ZM126.806 27.3315C128.29 23.3508 135.721 23.8353 135.721 23.8353L135.835 25.1009C135.835 25.1009 131.83 25.2861 130.895 28.0047C128.391 35.2056 126.806 42.6158 124.564 50.0485C124.412 50.5176 124.397 51.1403 124.736 51.4283C126.007 52.5688 128.29 49.9586 128.29 49.9586C128.29 49.9586 129.641 42.6887 131.496 39.4707C132.654 37.4528 135.229 36.5797 137.477 36.0505C138.927 35.686 141.321 37.107 141.321 37.107C141.321 37.107 142.326 33.3991 143.552 29.4646C143.819 28.6121 144.064 26.7234 145.204 25.9833C149.104 23.4738 152.795 23.7691 152.795 23.7691L152.94 24.9453C152.94 24.9453 148.925 25.577 148.113 28.0138C145.516 35.7759 143.808 41.7142 142 49.62C141.899 50.3398 141.727 51.7833 142.468 51.9892C143.616 52.3164 146.317 50.1939 146.317 50.1939L147.092 51.7833C147.092 51.7833 143.985 53.8215 142.425 54.7041C140.433 55.8858 137.873 52.8341 137.873 52.8341C137.873 52.8341 133.801 55.1246 132.607 54.8794C130.635 54.4474 128.889 51.9364 128.889 51.9364C128.889 51.9364 127.481 52.9966 123.77 54.7038C122.387 55.3471 120.183 53.7743 119.88 52.2504C119.667 51.1693 120.057 50.0924 120.348 49.0304C121.635 44.5202 122.758 40.2028 124.119 35.7094C124.918 33.1136 125.78 30.1047 126.806 27.3315ZM109.995 38.9026C112.49 37.8257 114.986 36.1632 117.785 36.4531C119.498 36.6105 120.016 37.8929 120.226 39.5853C120.43 41.2252 119.88 42.7436 119.17 44.1366C116.827 48.7271 110.792 46.3427 110.792 46.3427C110.792 46.3427 109.823 48.5867 110.038 49.959C110.196 50.9258 111.601 52.3841 112.471 52.4234C114.166 52.502 117.146 50.3983 117.146 50.3983L118.048 51.6887C118.048 51.6887 114.186 54.1179 111.994 55.3275C110.252 56.2943 106.967 53.3508 105.835 51.9375C104.606 50.4489 106.013 46.6569 106.79 44.1366C107.374 42.1919 107.982 39.7776 109.995 38.9026ZM56.4442 38.8109C58.9519 37.7358 61.54 36.58 64.3299 36.859C66.0272 37.0401 66.5777 37.9697 66.7815 39.6638C66.9839 41.3037 66.4317 42.8352 65.7128 44.2151C63.5848 48.3754 57.4113 47.0742 57.4113 47.0742C57.4113 47.0742 56.526 48.4969 56.751 49.8732C56.9174 50.8327 57.896 52.031 58.7623 52.0833C60.471 52.1822 63.1922 50.0488 63.1922 50.0488L64.1013 51.3726C64.1013 51.3726 60.3024 53.9157 58.0532 55.0021C55.6488 56.1615 53.3614 53.5978 52.2069 52.1822C50.9832 50.6955 52.5531 46.7427 53.3316 44.2053C53.9122 42.2758 54.4436 39.6896 56.4442 38.8109ZM132.708 49.0315C132.034 52.4343 136.868 52.7919 137.904 49.8095C138.938 46.8196 139.422 44.1925 140.219 41.1237C140.433 40.3177 139.605 38.7415 138.352 38.4069C137.141 38.0569 135.674 38.5356 135.206 40.1813C134.809 41.5576 134.64 41.75 134.349 43.1149C133.812 45.5179 133.258 46.3427 132.708 49.0315ZM61.4294 44.4089C62.2042 42.6214 62.3499 42.0474 62.5635 40.8098C62.934 38.5847 60.0538 38.0141 59.0772 40.5556C58.2332 42.7436 58.3231 41.715 58.2462 44.0354C58.1793 45.8957 60.9657 45.488 61.4294 44.4089ZM115.076 43.9678C115.841 42.2101 116.001 41.6194 116.214 40.3813C116.592 38.1617 113.693 37.5747 112.716 40.1366C111.872 42.3278 111.975 41.2976 111.883 43.6107C111.825 45.464 114.606 45.06 115.076 43.9678Z" fill="#ED1B2D"/>
</svg>
