<svg width="214" height="69" viewBox="0 0 214 69" fill="none" xmlns="http://www.w3.org/2000/svg">
<path d="M32.0546 23.1911C31.0992 23.8272 30.6214 24.9402 30.7807 26.0532C30.9399 26.7687 31.2584 27.4046 31.7362 27.8817C31.4973 26.8482 31.8954 25.7352 32.6917 25.0196L32.7712 24.9402C33.5675 24.2247 35.6377 22.6347 35.7969 21.9192C35.9562 22.3962 36.0358 22.8731 35.9562 23.3502C36.3543 22.9527 36.7524 22.4756 37.0709 21.9987C37.6282 20.8857 37.6282 19.6137 36.9913 18.5802C36.5931 17.9441 36.0358 17.3876 35.3988 16.9106C36.195 19.9317 33.0897 22.4756 32.0546 23.1911ZM33.9656 26.1326C32.612 27.0072 31.8954 28.5972 32.1343 30.2667C32.2139 30.5053 32.2139 30.7437 32.2936 30.9822H33.8064C33.7268 30.1077 34.1249 29.3127 34.8415 28.8357C34.8415 28.8357 38.2653 26.3712 39.5392 24.5427C39.778 25.0992 39.9373 25.6557 40.0169 26.2917C41.2908 24.9402 42.1667 23.4297 41.6094 21.9987C41.052 20.6472 40.1761 19.5341 38.9022 18.8187C39.4595 21.8397 35.3988 25.0196 33.9656 26.1326ZM41.3705 25.4967C41.052 26.3712 38.0263 28.9947 36.9913 29.9487C36.6728 30.1872 36.4338 30.5053 36.2747 30.9027H39.141C39.6984 30.4257 40.7335 29.7102 40.8132 29.3127C40.9723 29.6307 40.9723 29.9487 40.8927 30.2667C41.9279 29.2333 42.8037 28.0407 42.326 27.0072C42.0871 26.3712 41.7686 25.8942 41.3705 25.4967Z" fill="url(#paint0_linear_245_2627)"/>
<path d="M64.7788 16.1147C64.9381 15.7967 65.0177 15.5582 65.0974 15.2402C65.0974 14.6837 64.6196 14.6042 63.8234 14.6042C63.1864 14.6042 62.7087 14.6837 62.7087 15.1607C62.7883 15.5582 62.8679 15.8762 63.1068 16.1942L63.9827 18.1022L64.7788 16.1147ZM63.0271 22.4747L60.0811 29.2322H59.2849L53.7113 16.4327C53.2336 15.3992 52.9947 14.5247 51.8003 14.5247H51.4819V13.8887C52.3578 13.8887 53.6318 13.9682 54.6668 13.9682C55.6223 13.9682 56.737 13.8887 57.4536 13.8887V14.5247H57.2944C56.8166 14.5247 56.3388 14.6042 56.3388 15.0017C56.4981 15.7967 56.737 16.5122 57.1351 17.2277L60.7977 25.4957L62.629 21.2822L59.8423 15.0812C59.6033 14.6042 59.046 14.5247 58.4886 14.5247V13.8887C59.5238 13.8887 60.5589 13.9682 61.5939 13.9682C62.3902 13.9682 63.1864 13.8887 64.0622 13.8887C64.9381 13.8887 65.4955 13.9682 66.2121 13.9682C66.9287 13.9682 67.5656 13.8887 68.2026 13.8887V14.5247H67.9637C66.849 14.5247 66.6102 14.9222 66.0528 16.1147L64.7788 19.0562L67.486 25.3367L70.6709 16.3532C70.8301 15.9557 70.9098 15.5582 70.9894 15.1607C70.9894 14.6837 70.5913 14.5247 69.6358 14.5247H69.3969V13.8887C70.1135 13.8887 70.8301 13.9682 71.6264 13.9682C72.4226 13.9682 72.9799 13.8887 73.617 13.8887V14.5247H73.378C72.7411 14.5247 72.343 15.2402 72.0245 15.9557L66.7694 29.3118H65.9732L63.0271 22.4747Z" fill="#00535D"/>
<path d="M74.1739 28.3577H74.4128C75.1294 28.3577 75.846 28.2782 75.846 27.3242V17.6252C75.846 16.6712 75.1294 16.5917 74.4128 16.5917H74.1739V16.0352C75.3682 16.0352 77.2792 16.1147 78.9512 16.1147C80.6233 16.1147 82.5343 16.0352 83.8082 16.0352C83.7285 16.9892 83.7285 17.9432 83.8082 18.8972L83.2509 19.0562C83.1712 17.8637 82.9324 16.9097 80.9418 16.9097H78.3142V21.7592H80.5437C81.6584 21.7592 81.8972 21.1232 82.0565 20.1692H82.6138C82.6138 20.8847 82.5343 21.6002 82.5343 22.3156C82.5343 23.0311 82.5343 23.7467 82.6138 24.3827L82.0565 24.4622C81.8972 23.3492 81.8972 22.6337 80.5437 22.6337H78.2346V26.9267C78.2346 28.1192 79.3493 28.1192 80.5437 28.1192C82.8527 28.1192 83.8082 27.9603 84.3656 25.8932L84.9229 26.0522C84.6841 27.0062 84.4451 28.0397 84.2859 28.9937C83.0916 28.9937 80.8621 28.9142 79.1901 28.9142C77.518 28.9142 75.2089 28.9937 74.0942 28.9937L74.1739 28.3577Z" fill="#00535D"/>
<path d="M94.159 18.8177C94.159 17.5457 93.2035 16.5122 91.9296 16.4326C90.7352 16.2737 89.7002 17.1482 89.6205 18.3407C89.6205 18.4997 89.6205 18.6587 89.6205 18.8177C89.6205 21.8387 95.3534 20.9642 95.3534 25.4162C95.3534 27.9602 93.2035 29.3117 90.7352 29.3117C89.7002 29.3117 88.6651 28.9937 87.7096 28.5167C87.6299 27.5627 87.4707 26.6882 87.3911 25.7342L87.9485 25.6547C88.1873 27.2447 89.0632 28.5962 90.8945 28.5962C92.0888 28.6757 93.1239 27.8807 93.2035 26.6882C93.2035 26.6087 93.2035 26.6087 93.2035 26.5292C93.2035 23.2696 87.63 24.3032 87.63 19.8512C87.63 17.4662 89.3817 16.0352 91.8499 16.0352C92.4073 16.0352 93.9997 16.1942 94.5571 16.2737C94.5571 17.1482 94.6368 18.0227 94.7163 18.8972L94.159 18.8177Z" fill="#00535D"/>
<path d="M99.0957 16.9893C97.6625 16.9893 97.5828 17.3073 97.344 18.6588H96.7866C96.8662 18.1023 96.9459 17.6253 97.0255 17.0688C97.1051 16.5123 97.1847 16.0353 97.1847 15.4788H97.6625C97.8217 16.0353 98.2994 16.0353 98.7772 16.0353H108.571C109.048 16.0353 109.526 16.0353 109.606 15.4788L110.084 15.5583C110.004 16.0353 109.924 16.5123 109.845 17.0688C109.765 17.5458 109.845 18.0228 109.845 18.5793L109.287 18.8178C109.287 18.1023 109.128 17.0688 107.854 17.0688H104.669V26.9269C104.669 28.3579 105.306 28.5168 106.262 28.5168H106.58V29.0733C105.864 29.0733 104.51 28.9938 103.475 28.9938C102.44 28.9938 101.007 29.0733 100.29 29.0733V28.5168H100.608C101.644 28.5168 102.201 28.4373 102.201 26.9269V16.9893H99.0957Z" fill="#00535D"/>
<path d="M131.024 18.3408C130.386 16.2738 129.352 14.5248 126.087 14.5248C122.424 14.5248 120.513 17.3073 120.513 21.0438C120.513 24.6214 122.424 28.2784 126.564 28.2784C128.715 28.3579 130.626 26.8473 131.103 24.7008L131.74 24.7804C131.501 25.8934 131.263 27.0859 131.183 28.2784C129.59 28.9144 127.839 29.2323 126.087 29.2323C121.071 29.2323 117.408 26.6089 117.408 21.2028C117.408 16.3533 121.389 13.5708 126.007 13.5708C128.634 13.5708 129.431 14.3658 131.501 14.6043C131.501 15.7968 131.501 16.9893 131.66 18.1818L131.024 18.3408Z" fill="#00535D"/>
<path d="M140.898 28.4384C144.56 28.4384 145.198 25.2583 145.198 22.5554C145.198 19.8524 143.685 16.5929 140.5 16.5929C137.155 16.5929 136.2 19.4549 136.2 21.9194C136.2 25.2583 137.793 28.4384 140.898 28.4384ZM140.579 15.7979C144.64 15.7979 147.904 18.2624 147.904 22.1578C147.984 25.9739 145.038 29.1539 141.216 29.2334C141.057 29.2334 140.898 29.2334 140.738 29.2334C136.678 29.2334 133.652 26.6099 133.652 22.6349C133.652 18.8984 136.678 15.7979 140.5 15.7979H140.579Z" fill="#00535D"/>
<path d="M153.557 18.1019L151.806 23.3489H155.389L153.557 18.1019ZM150.77 26.2904C150.611 26.7674 150.452 27.2445 150.372 27.7214C150.372 28.2779 151.168 28.3575 151.806 28.3575H152.044V28.914C151.327 28.8344 150.531 28.8344 149.736 28.8344C148.939 28.8344 148.382 28.8344 147.665 28.914V28.3575H147.744C148.461 28.3575 149.178 27.8804 149.416 27.1649L152.442 18.7379C152.761 18.0224 152.999 17.2274 153.158 16.4324C153.796 16.1939 154.353 15.9554 154.91 15.6374C154.99 15.6374 154.99 15.6374 155.069 15.5579C155.15 15.5579 155.15 15.5579 155.23 15.6374C155.309 15.7169 155.309 15.9554 155.389 16.1144L158.892 25.7339C159.131 26.3699 159.37 27.0855 159.608 27.6419C159.847 28.1189 160.325 28.4369 160.883 28.3575H161.042V28.914C160.165 28.8344 159.37 28.8344 158.414 28.8344C157.459 28.8344 156.503 28.8344 155.548 28.914V28.3575H155.787C156.264 28.3575 156.981 28.2779 156.981 27.801C156.901 27.3239 156.742 26.9264 156.582 26.4494L155.866 24.3029H151.487L150.77 26.2904Z" fill="#00535D"/>
<path d="M169.242 18.8177C169.242 17.5457 168.287 16.5122 167.013 16.4326C165.818 16.2737 164.784 17.1482 164.704 18.3407C164.704 18.4997 164.704 18.6587 164.704 18.8177C164.704 21.8387 170.437 20.9642 170.437 25.4162C170.437 27.9602 168.287 29.3117 165.818 29.3117C164.784 29.3117 163.748 28.9937 162.792 28.5167C162.713 27.5627 162.554 26.6882 162.474 25.7342L163.032 25.6547C163.271 27.2447 164.146 28.5962 165.978 28.5962C167.172 28.6757 168.207 27.8807 168.287 26.6882C168.287 26.6087 168.287 26.6087 168.287 26.5292C168.287 23.2696 162.713 24.3032 162.713 19.8512C162.713 17.4662 164.465 16.0352 166.934 16.0352C167.491 16.0352 169.083 16.1942 169.64 16.2737C169.64 17.1482 169.72 18.0227 169.799 18.8972L169.242 18.8177Z" fill="#00535D"/>
<path d="M174.179 16.9893C172.746 16.9893 172.666 17.3073 172.428 18.6588H171.87C171.949 18.1023 172.029 17.6253 172.108 17.0688C172.188 16.5123 172.268 16.0353 172.188 15.4788H172.666C172.826 16.0353 173.303 16.0353 173.781 16.0353H183.575C184.052 16.0353 184.53 16.0353 184.609 15.4788L185.088 15.5583C185.007 16.0353 184.928 16.5123 184.848 17.0688C184.768 17.6253 184.768 18.1023 184.768 18.5793L184.211 18.8178C184.211 18.1023 184.052 17.0688 182.778 17.0688H179.673V26.9269C179.673 28.3579 180.31 28.5168 181.265 28.5168H181.584V29.0733C180.867 29.0733 179.513 28.9938 178.479 28.9938C177.364 28.9938 176.011 29.0733 175.294 29.0733V28.5168H175.612C176.647 28.5168 177.204 28.4373 177.204 26.9269V16.9893H174.179Z" fill="#00535D"/>
<path d="M30.4613 34.3997C30.4613 32.8096 29.6651 32.8096 28.7095 32.8096H28.4707V32.1736C29.4261 32.1736 30.6205 32.2531 31.9741 32.2531C33.4073 32.2531 34.4424 32.1736 35.3183 32.1736V32.8096H35.0793C34.2036 32.8096 33.3277 32.8096 33.3277 34.3997V41.7932C33.3277 44.4961 34.3627 46.4042 37.5477 46.4042C40.4937 46.4042 41.7676 44.5757 41.7676 41.7137V34.3997C41.7676 32.8096 40.8918 32.8096 40.1751 32.8096H39.6975V32.1736C40.5733 32.1736 41.5288 32.2531 42.4046 32.2531C43.2805 32.2531 44.0767 32.1736 44.9526 32.1736V32.8096H44.4748C43.8379 32.8096 43.0416 32.8096 43.0416 34.3997V41.2366C43.0416 46.0862 40.4141 47.5172 37.0699 47.5172C32.7703 47.5172 30.4613 46.0067 30.4613 42.1112V34.3997Z" fill="#00535D"/>
<path d="M58.2493 43.5425V36.626C58.4085 35.7514 57.7715 35.0359 56.9753 34.8769C56.8956 34.8769 56.8161 34.8769 56.6568 34.8769H56.2587V34.3204C57.1346 34.3204 58.0103 34.3999 58.8862 34.3999C59.7621 34.3999 60.4787 34.3204 61.2749 34.3204V34.8769H60.9565C60.1602 34.8769 59.2843 35.0359 59.2843 37.1825V45.6094C59.2843 46.2455 59.2843 46.8815 59.364 47.4379H58.6474L48.8538 36.8644V44.4965C48.8538 46.0865 49.1723 46.643 50.6055 46.643H50.924V47.1995C50.1278 47.1995 49.2519 47.12 48.4557 47.12C47.6594 47.12 46.704 47.1995 45.8281 47.1995V46.643H46.0671C47.4206 46.643 47.8187 45.7685 47.8187 44.258V36.4669C47.8187 35.513 47.0225 34.7975 46.1466 34.7975H45.8281V34.241C46.5447 34.241 47.2613 34.3204 48.0576 34.3204C48.615 34.3204 49.1723 34.241 49.7297 34.241L58.2493 43.5425Z" fill="#00535D"/>
<path d="M63.1064 46.6424H63.3454C64.0619 46.6424 64.7785 46.5629 64.7785 45.6089V35.9099C64.7785 34.9559 64.0619 34.8763 63.3454 34.8763H63.1064V34.3198C63.823 34.3198 65.0174 34.3993 65.8933 34.3993C66.769 34.3993 67.9634 34.3198 68.9189 34.3198V34.8763H68.68C67.9634 34.8763 67.2468 34.9559 67.2468 35.9099V45.6089C67.2468 46.5629 67.9634 46.6424 68.68 46.6424H68.8393V47.1989C67.8838 47.1989 66.769 47.1194 65.8136 47.1194C64.8582 47.1194 63.7435 47.1989 63.0269 47.1989V46.6424H63.1064Z" fill="#00535D"/>
<path d="M76.6424 34.8769H76.1647C75.4481 34.8769 75.2092 35.1154 75.2092 35.4334C75.2092 35.672 75.2889 35.8309 75.3685 35.9899L78.633 44.1784L81.6587 36.4669C81.8179 36.1489 81.8975 35.7514 81.8975 35.4334C81.8975 34.8769 81.3402 34.7975 80.7031 34.7975H80.3847V34.241C81.0217 34.241 81.7383 34.3204 82.6141 34.3204C83.1715 34.3204 83.8084 34.241 84.3659 34.241V34.7975H84.2066C83.7288 34.7975 83.3307 35.0359 83.1715 35.4334C83.0122 35.672 80.2255 42.5089 79.0311 45.6094C78.7923 46.2455 78.4737 46.802 78.2349 47.4379H77.5183L72.741 35.9105C72.5817 35.1949 71.8651 34.7179 71.1485 34.8769H70.9893V34.3204C71.9447 34.3204 72.9798 34.3999 73.9353 34.3999C74.8907 34.3999 76.1647 34.3204 76.722 34.3204V34.8769H76.6424Z" fill="#00535D"/>
<path d="M85.9576 46.6424H86.1964C86.9131 46.6424 87.6297 46.5629 87.6297 45.6089V35.9099C87.6297 34.9559 86.9131 34.8763 86.1964 34.8763H85.9576V34.3198C87.1519 34.3198 89.1424 34.3993 90.7349 34.3993C92.3274 34.3993 94.318 34.3198 95.5919 34.3198C95.5123 35.2738 95.5123 36.2279 95.5919 37.1819L95.0346 37.3409C94.9549 36.1483 94.716 35.1943 92.7255 35.1943H90.098V40.0439H92.3274C93.4421 40.0439 93.6809 39.4078 93.8402 38.4539H94.3975C94.3975 39.1694 94.318 39.8849 94.318 40.6004C94.318 41.3159 94.318 42.0314 94.3975 42.7468L93.8402 42.8264C93.6809 41.7134 93.6809 40.9979 92.3274 40.9979H90.0183V45.2909C90.0183 46.4834 91.133 46.4834 92.3274 46.4834C94.6365 46.4834 95.5919 46.3244 96.1493 44.2574L96.7066 44.4164C96.4678 45.3704 96.2288 46.4039 96.0697 47.3579C94.8753 47.3579 92.6459 47.2784 90.9739 47.2784C89.3017 47.2784 86.9927 47.3579 85.8779 47.3579L85.9576 46.6424Z" fill="#00535D"/>
<path d="M103.396 40.5208H104.351C106.262 40.5208 107.297 39.8053 107.297 37.6588C107.377 36.2279 106.342 35.0353 104.909 34.9559C104.749 34.9559 104.67 34.9559 104.51 34.9559C104.112 34.9559 103.794 34.9559 103.396 35.0353V40.5208ZM100.927 36.3073C100.927 34.9559 100.131 34.8763 99.5738 34.8763H99.2554V34.3198C99.8923 34.3198 101.007 34.3993 102.201 34.3993C103.396 34.3993 104.272 34.3198 105.227 34.3198C107.616 34.3198 109.766 34.9559 109.766 37.5793C109.766 39.2488 108.651 40.2824 107.138 40.8389L110.402 45.6089C110.801 46.3244 111.517 46.7218 112.234 46.7218V47.2784C111.597 47.2784 110.96 47.1989 110.402 47.1989C109.766 47.1989 109.208 47.2784 108.651 47.2784C107.218 45.3704 105.864 43.3829 104.67 41.3159H103.396V45.2909C103.396 46.7218 104.112 46.8014 104.988 46.8014H105.307V47.3579C104.192 47.3579 103.077 47.2784 102.042 47.2784C101.087 47.2784 100.211 47.3579 99.2554 47.3579V46.8014H99.5738C100.29 46.8014 100.927 46.4834 100.927 45.7679V36.3073Z" fill="#00535D"/>
<path d="M120.673 37.0237C120.673 35.7517 119.638 34.7181 118.443 34.7181C117.249 34.5592 116.214 35.4336 116.134 36.6262C116.134 36.7852 116.134 36.9442 116.134 37.0237C116.134 40.1242 121.867 39.1702 121.867 43.6223C121.867 46.1663 119.717 47.5177 117.249 47.5177C116.214 47.5177 115.179 47.1997 114.223 46.7228C114.144 45.7687 113.984 44.8943 113.905 43.9402L114.462 43.7812C114.701 45.3712 115.577 46.7228 117.408 46.7228C118.603 46.8022 119.638 46.0072 119.717 44.8147C119.717 44.7352 119.717 44.7352 119.717 44.6557C119.717 41.3962 114.144 42.4297 114.144 37.9776C114.144 35.5926 115.895 34.1616 118.364 34.1616C118.921 34.1616 120.513 34.4002 121.071 34.4002C121.071 35.2746 121.15 36.1491 121.23 37.0237H120.673Z" fill="#00535D"/>
<path d="M123.856 46.6424H124.096C124.812 46.6424 125.529 46.5629 125.529 45.6089V35.9099C125.529 34.9559 124.812 34.8763 124.096 34.8763H123.856V34.3198C124.574 34.3198 125.768 34.3993 126.644 34.3993C127.6 34.3993 128.714 34.3198 129.67 34.3198V34.8763H129.431C128.714 34.8763 127.998 34.9559 127.998 35.9099V45.6089C127.998 46.5629 128.714 46.6424 129.431 46.6424H129.67V47.1989C128.714 47.1989 127.6 47.1194 126.644 47.1194C125.688 47.1194 124.574 47.1989 123.856 47.1989V46.6424Z" fill="#00535D"/>
<path d="M134.128 35.1953C132.696 35.1953 132.616 35.5133 132.377 36.8648H131.819C131.899 36.3083 131.978 35.8313 132.058 35.2748C132.138 34.7182 132.138 34.2413 132.138 33.6848H132.616C132.775 34.2413 133.253 34.2413 133.73 34.2413H143.524C144.002 34.2413 144.479 34.2413 144.559 33.6848L145.036 33.7643C144.957 34.2413 144.877 34.7978 144.798 35.2748C144.718 35.7518 144.718 36.3083 144.718 36.7853L144.161 37.0238C144.161 36.3083 144.002 35.2748 142.728 35.2748H139.703V45.2123C139.703 46.6433 140.339 46.8023 141.294 46.8023H141.693V47.3588C140.976 47.3588 139.623 47.2794 138.588 47.2794C137.552 47.2794 136.12 47.3588 135.402 47.3588V46.8023H135.721C136.756 46.8023 137.313 46.7229 137.313 45.2123V35.1953H134.128Z" fill="#00535D"/>
<path d="M152.363 41.1577L148.541 36.0697C147.983 35.2746 147.585 34.7977 146.71 34.7977H146.551V34.2412C147.585 34.2412 148.541 34.3206 149.576 34.3206C150.611 34.3206 151.487 34.2412 152.363 34.2412V34.7977H152.124C151.646 34.7977 151.168 34.9567 151.168 35.1952C151.168 35.4336 151.407 35.6722 151.487 35.8312L154.353 39.7267L156.742 36.3877C157.06 35.8312 157.3 35.5132 157.3 35.1952C157.3 34.8771 156.503 34.7181 156.185 34.7181H155.866V34.1616C156.583 34.1616 157.299 34.2412 158.016 34.2412C158.732 34.2412 159.211 34.1616 159.847 34.1616V34.7181C159.211 34.7181 158.732 35.0361 158.334 35.5926L154.831 40.4422V44.9737C154.831 46.5637 155.388 46.6432 156.423 46.6432H156.742V47.1997C155.628 47.1997 154.513 47.1202 153.636 47.1202C152.761 47.1202 151.566 47.1997 150.452 47.1997V46.6432H150.77C151.886 46.6432 152.363 46.3252 152.363 45.1327V41.1577Z" fill="#00535D"/>
<path d="M120.435 52.8443H121.31C121.629 52.8443 121.709 52.6852 121.709 52.3673H121.868C121.868 52.6058 121.868 52.7648 121.868 53.0033C121.868 53.2417 121.868 53.4803 121.868 53.7188H121.709C121.709 53.4008 121.629 53.1623 121.231 53.1623H120.514V54.6728C120.514 54.9908 120.833 54.9908 121.072 54.9908H121.151V55.1498H120.116C119.798 55.1498 119.399 55.1498 119.161 55.1498V54.9908H119.24C119.479 54.9908 119.718 54.9908 119.718 54.6728V51.5723C119.718 51.2542 119.479 51.2542 119.24 51.2542H119.161V51.0952C119.559 51.0952 120.196 51.0952 120.673 51.0952H122.266C122.266 51.4132 122.266 51.7313 122.266 51.9697L122.107 52.0493C122.107 51.6518 121.947 51.3338 121.47 51.3338H120.514V52.8443H120.435Z" fill="#00535D"/>
<path d="M123.221 53.878C123.221 54.3551 123.38 55.0706 123.938 55.0706C124.495 55.0706 124.655 54.5141 124.655 53.9576C124.655 53.4011 124.495 52.6856 123.938 52.6856C123.301 52.606 123.221 53.4011 123.221 53.878ZM123.938 52.447C124.655 52.3676 125.291 52.9241 125.371 53.6396C125.371 53.719 125.371 53.719 125.371 53.7986C125.371 54.5935 124.734 55.2296 123.938 55.2296C123.142 55.2296 122.505 54.5935 122.505 53.7986C122.505 53.0831 123.142 52.447 123.938 52.447Z" fill="#00535D"/>
<path d="M126.087 52.9239C126.087 52.8445 126.087 52.765 125.928 52.765L125.689 52.6855V52.5264C126.007 52.5264 126.406 52.447 126.725 52.3674H126.804C126.804 52.5264 126.804 52.6855 126.804 52.9239V54.2755C126.804 54.5935 126.963 54.7525 127.282 54.7525C127.52 54.7525 127.679 54.673 127.839 54.514V53.0035C127.839 52.8445 127.839 52.8445 127.679 52.8445L127.361 52.765V52.606C127.759 52.606 128.077 52.5264 128.476 52.447H128.556C128.556 52.606 128.556 52.765 128.556 53.0035V54.673C128.556 54.832 128.635 54.9114 128.715 54.9114H128.874V55.0705C128.556 55.15 128.238 55.15 127.918 55.309L127.839 55.2295V54.832C127.6 55.0705 127.202 55.2295 126.884 55.309C126.326 55.309 126.166 54.991 126.166 54.5935L126.087 52.9239Z" fill="#00535D"/>
<path d="M129.114 54.9903C129.352 54.9903 129.432 54.9903 129.432 54.8313V53.1618C129.432 53.0822 129.432 53.0028 129.273 53.0028L129.034 52.9232V52.7643C129.193 52.6848 129.432 52.6053 129.591 52.6053C129.75 52.6053 129.91 52.4463 129.989 52.4463L130.069 52.5257V52.9232C130.307 52.6848 130.626 52.5257 131.025 52.5257C131.423 52.4463 131.741 52.7643 131.741 53.0822C131.741 53.1618 131.741 53.2413 131.741 53.3208V54.9107C131.741 55.0698 131.9 55.0698 132.059 55.0698H132.139V55.2288C131.9 55.2288 131.661 55.2288 131.423 55.2288C131.184 55.2288 130.945 55.2288 130.705 55.2288V55.0698H130.786C130.865 55.0698 131.104 55.0698 131.104 54.9107V53.4797C131.104 53.1618 130.945 53.0028 130.626 53.0028C130.387 53.0028 130.228 53.0822 130.069 53.1618V54.9107C130.069 55.0698 130.228 55.0698 130.387 55.0698H130.467V55.2288C130.228 55.2288 129.989 55.2288 129.75 55.2288C129.512 55.2288 129.273 55.2288 129.034 55.2288V54.9903H129.114Z" fill="#00535D"/>
<path d="M134.527 53.0835C134.447 52.845 134.209 52.686 133.89 52.686C133.332 52.686 133.173 53.2425 133.173 53.7195C133.173 54.3555 133.491 54.8325 133.97 54.8325C134.129 54.8325 134.288 54.7531 134.447 54.6735L134.527 53.0835ZM135.243 54.8325H135.561V54.9915C135.402 54.9915 135.243 55.071 135.084 55.1506L134.607 55.3096H134.527V54.9915C134.288 55.23 133.97 55.389 133.651 55.389C133.014 55.3096 132.537 54.7531 132.616 54.117C132.616 53.2425 133.253 52.6065 134.129 52.527C134.288 52.527 134.447 52.527 134.607 52.6065V51.3345L134.209 51.1755V51.096C134.527 51.0165 134.925 50.8575 135.243 50.6985L135.323 50.778L135.243 54.8325Z" fill="#00535D"/>
<path d="M137.235 53.3208C137.553 53.3208 137.633 53.3208 137.633 53.0822C137.633 52.8438 137.474 52.6053 137.235 52.6053C136.837 52.6053 136.678 52.9232 136.597 53.3208H137.235ZM138.27 54.5133C138.031 54.9107 137.633 55.2288 137.076 55.2288C136.359 55.2288 135.881 54.5928 135.881 53.8773C135.802 53.0822 136.438 52.4463 137.235 52.4463C137.713 52.4463 138.19 52.8438 138.19 53.3208C138.19 53.4003 138.19 53.4003 138.19 53.4797L138.11 53.5593H136.518C136.518 54.1952 136.837 54.7518 137.474 54.7518C137.713 54.7518 138.031 54.6723 138.19 54.4338L138.27 54.5133Z" fill="#00535D"/>
<path d="M140.658 53.0832C140.578 52.8448 140.34 52.6858 140.021 52.6858C139.463 52.6858 139.304 53.2423 139.304 53.7193C139.304 54.3552 139.623 54.8323 140.101 54.8323C140.26 54.8323 140.419 54.7527 140.578 54.6733L140.658 53.0832ZM141.295 54.8323H141.614V54.9913C141.455 54.9913 141.295 55.0708 141.135 55.1502L140.658 55.3092H140.578V54.9913C140.34 55.2298 140.021 55.3888 139.703 55.3888C139.065 55.3092 138.588 54.7527 138.588 54.1168C138.588 53.2423 139.225 52.6062 140.101 52.5267C140.26 52.5267 140.419 52.5267 140.578 52.6062V51.3342L140.18 51.1753V51.0957C140.499 51.0163 140.897 50.8573 141.215 50.6982L141.295 50.7777V54.8323Z" fill="#00535D"/>
<path d="M145.595 54.6721C145.595 54.9902 145.833 54.9902 146.153 54.9902H146.312V55.1492H145.276C144.878 55.1492 144.56 55.1492 144.161 55.1492V54.9902H144.321C144.56 54.9902 144.878 54.9902 144.878 54.6721V51.7306L144.082 52.1281L144.002 51.9691C144.241 51.8101 144.48 51.7306 144.799 51.4921L145.515 51.0151H145.674L145.595 54.6721Z" fill="#00535D"/>
<path d="M149.018 52.9239C148.78 53.2418 148.461 53.4008 148.143 53.4008C147.586 53.4008 147.107 52.9239 147.107 52.3674V52.2879C147.187 51.4929 147.825 50.9364 148.541 51.0158C149.338 51.0158 149.974 51.6519 149.974 52.4469C149.974 52.5264 149.974 52.5264 149.974 52.6059C149.974 54.0369 148.461 55.0704 147.107 55.2293L147.028 55.0704C148.223 54.9114 149.177 53.8779 149.177 52.6059C149.177 52.1288 149.018 51.1749 148.382 51.1749C147.904 51.1749 147.745 51.4929 147.745 51.8904C147.745 52.2879 148.063 52.9239 148.541 52.9239C148.7 52.9239 148.859 52.8443 149.018 52.7649V52.9239Z" fill="#00535D"/>
<path d="M151.167 53.0821C151.167 53.4001 151.167 55.0696 151.884 55.0696C152.6 55.0696 152.6 53.4796 152.6 53.0821C152.6 52.6846 152.6 51.2536 151.884 51.2536C151.167 51.2536 151.167 52.6846 151.167 53.0821ZM153.318 53.0821C153.318 54.1156 152.998 55.2286 151.884 55.2286C150.769 55.2286 150.451 54.0361 150.451 53.0821C150.451 52.1281 150.769 51.0151 151.884 51.0151C152.998 51.0151 153.318 52.0487 153.318 53.0821Z" fill="#00535D"/>
<path d="M155.787 52.9231C155.547 53.2411 155.229 53.4001 154.91 53.4001C154.353 53.4001 153.876 52.9231 153.876 52.3666V52.287C153.876 51.5715 154.592 50.9356 155.308 51.015C156.105 51.015 156.742 51.6511 156.742 52.5256V52.6051C156.742 54.0361 155.229 55.0696 153.876 55.2286L153.796 55.0696C154.99 54.9106 155.946 53.8771 155.946 52.6051C155.946 52.1281 155.787 51.174 155.149 51.174C154.751 51.174 154.513 51.4921 154.513 51.8896C154.513 52.287 154.831 52.9231 155.308 52.9231C155.467 52.9231 155.628 52.8435 155.787 52.7641V52.9231Z" fill="#00535D"/>
<defs>
<linearGradient id="paint0_linear_245_2627" x1="36.5751" y1="30.823" x2="36.5751" y2="17.215" gradientUnits="userSpaceOnUse">
<stop stop-color="white"/>
<stop offset="0.66" stop-color="#00535D"/>
<stop offset="1" stop-color="#00535D"/>
</linearGradient>
</defs>
</svg>
