<svg width="108" height="36" viewBox="0 0 108 36" fill="none" xmlns="http://www.w3.org/2000/svg">
<g clip-path="url(#clip0_1_931)">
<path d="M25.1198 19.1284C25.0752 14.5731 28.9389 12.3844 29.1127 12.2802C26.938 9.18392 23.56 8.75835 22.3568 8.71058C19.4825 8.42397 16.7463 10.3608 15.2846 10.3608C13.8229 10.3608 11.5724 8.74966 9.18827 8.79743C6.05099 8.84086 3.15881 10.5735 1.54115 13.3094C-1.712 18.8071 0.712264 26.9711 3.88965 31.4397C5.44492 33.624 7.28986 36.0862 9.72303 35.995C12.0671 35.9038 12.9494 34.5185 15.7748 34.5185C18.6001 34.5185 19.3978 35.995 21.8711 35.9516C24.3889 35.9038 25.9843 33.7195 27.5262 31.5265C29.2998 28.9861 30.0351 26.5325 30.0797 26.4023C30.0218 26.3805 25.1733 24.5697 25.1198 19.1284Z" fill="black"/>
<path d="M20.4729 5.74958C21.7652 4.22533 22.6342 2.11049 22.398 0C20.5397 0.0738239 18.2893 1.20724 16.9568 2.73148C15.7625 4.07768 14.7153 6.23161 15.0005 8.29867C17.0638 8.45501 19.185 7.26948 20.4729 5.74958ZM41.4178 23.6063L39.2788 29.9247H36.5292L43.5301 9.84463H46.7387L53.7664 29.9247H50.9232L48.7218 23.6063H41.4178ZM48.1737 21.5783L46.1594 15.7983C45.7004 14.4869 45.3973 13.297 45.0899 12.1332H45.0319C44.7244 13.323 44.3902 14.5433 43.9936 15.7679L41.9793 21.5739L48.1737 21.5783ZM55.852 20.2104C55.852 18.3648 55.794 16.8709 55.7272 15.503H58.1425L58.2673 17.9783H58.3253C59.426 16.2195 61.1684 15.1773 63.5838 15.1773C67.1622 15.1773 69.8494 18.1259 69.8494 22.5076C69.8494 27.6926 66.6096 30.2504 63.1248 30.2504C61.1684 30.2504 59.4572 29.4166 58.5704 27.9879H58.5124V35.822H55.852V20.2104ZM58.508 24.0536C58.508 24.4444 58.5659 24.7961 58.6327 25.1262C59.1229 26.9414 60.7406 28.1964 62.6702 28.1964C65.5134 28.1964 67.1667 25.9339 67.1667 22.6249C67.1667 19.7327 65.607 17.2661 62.7638 17.2661C60.9322 17.2661 59.221 18.5472 58.6951 20.5144C58.6016 20.84 58.5124 21.2309 58.5124 21.587L58.508 24.0536ZM72.6302 20.2104C72.6302 18.3648 72.5723 16.8709 72.5054 15.503H74.9208L75.0455 17.9783H75.1035C76.2042 16.2195 77.9466 15.1773 80.362 15.1773C83.9404 15.1773 86.6276 18.1259 86.6276 22.5076C86.6276 27.6926 83.3879 30.2504 79.903 30.2504C77.9466 30.2504 76.2354 29.4166 75.3486 27.9879H75.2906V35.822H72.6302V20.2104ZM75.2906 24.0536C75.2906 24.4444 75.3486 24.7961 75.4154 25.1262C75.9056 26.9414 77.5233 28.1964 79.4529 28.1964C82.296 28.1964 83.9494 25.9339 83.9494 22.6249C83.9494 19.7327 82.3896 17.2661 79.5465 17.2661C77.7149 17.2661 76.0037 18.5472 75.4778 20.5144C75.3842 20.84 75.2951 21.2309 75.2951 21.587L75.2906 24.0536ZM89.4129 8.77201H92.1045V29.9204H89.4129V8.77201ZM97.5145 23.1894C97.5725 26.7329 99.8987 28.1964 102.586 28.1964C104.511 28.1964 105.674 27.8707 106.681 27.4538L107.14 29.3298C106.196 29.7467 104.573 30.2244 102.22 30.2244C97.666 30.2244 94.9432 27.3062 94.9432 22.9549C94.9432 18.6036 97.5725 15.1773 101.882 15.1773C106.712 15.1773 107.996 19.3158 107.996 21.9691C107.996 22.5076 107.938 22.9201 107.902 23.1894H97.5145ZM105.402 21.3134C105.433 19.6458 104.698 17.0533 101.672 17.0533C98.9495 17.0533 97.7596 19.4982 97.5457 21.3134H105.402Z" fill="black"/>
</g>
<defs>
<clipPath id="clip0_1_931">
<rect width="108" height="36" fill="white"/>
</clipPath>
</defs>
</svg>
