<svg width="104" height="39" viewBox="0 0 104 39" fill="none" xmlns="http://www.w3.org/2000/svg">
<path d="M14.4395 17.4528V13.9286H26.1798C26.2996 14.5504 26.3706 15.2877 26.3706 16.0888C26.3706 18.7308 25.6515 22.0018 23.3328 24.3316C21.0776 26.6909 18.1988 27.9492 14.3784 27.9492C7.3024 27.9492 1.354 22.1615 1.354 15.0517C1.354 7.94192 7.3024 2.1543 14.3784 2.1543C18.2918 2.1543 21.0776 3.69521 23.1762 5.70797L20.7034 8.1926C19.2017 6.77703 17.1667 5.67603 14.3784 5.67603C9.21264 5.67603 5.17448 9.85885 5.17448 15.0517C5.17448 20.2446 9.21264 24.4275 14.3784 24.4275C17.7292 24.4275 19.637 23.0758 20.86 21.847C21.8554 20.8467 22.5109 19.414 22.7653 17.4528H14.4395Z" fill="#4285F4"/>
<path d="M44.2596 19.6425C44.2596 24.4249 40.5345 27.9467 35.9632 27.9467C31.3918 27.9467 27.6667 24.4225 27.6667 19.6425C27.6667 14.8305 31.3918 11.3383 35.9632 11.3383C40.5345 11.3383 44.2596 14.8305 44.2596 19.6425ZM40.6275 19.6425C40.6275 16.654 38.4678 14.6093 35.9632 14.6093C33.4586 14.6093 31.2989 16.654 31.2989 19.6425C31.2989 22.5989 33.4586 24.6756 35.9632 24.6756C38.4678 24.6781 40.6275 22.6014 40.6275 19.6425Z" fill="#EA4335"/>
<path d="M62.1151 19.6423C62.1151 24.4248 58.39 27.9465 53.8187 27.9465C49.2473 27.9465 45.5222 24.4224 45.5222 19.6423C45.5222 14.8304 49.2473 11.3381 53.8187 11.3381C58.39 11.3381 62.1151 14.8304 62.1151 19.6423ZM58.483 19.6423C58.483 16.6539 56.3232 14.6092 53.8187 14.6092C51.3141 14.6092 49.1544 16.6539 49.1544 19.6423C49.1544 22.5988 51.3141 24.6755 53.8187 24.6755C56.3232 24.6779 58.483 22.6013 58.483 19.6423Z" fill="#FBBC05"/>
<path d="M79.2548 11.8375V26.7526C79.2548 32.8868 75.6545 35.4034 71.3962 35.4034C67.3898 35.4034 64.9782 32.6976 64.0708 30.4956L67.2333 29.1734C67.7959 30.525 69.1753 32.1299 71.3962 32.1299C74.1209 32.1299 75.811 30.4317 75.811 27.254V26.0596H75.6863C74.8718 27.0672 73.3064 27.947 71.3351 27.947C67.2015 27.947 63.4128 24.3295 63.4128 19.6723C63.4128 14.9857 67.2015 11.3362 71.3351 11.3362C73.3064 11.3362 74.8718 12.216 75.6863 13.1917H75.811V11.8351H79.2548V11.8375ZM76.0605 19.6748C76.0605 16.7478 74.1185 14.6097 71.6457 14.6097C69.1411 14.6097 67.0425 16.7478 67.0425 19.6748C67.0425 22.5698 69.1411 24.676 71.6457 24.676C74.1209 24.6784 76.0605 22.5698 76.0605 19.6748Z" fill="#4285F4"/>
<path d="M85.3692 3.11548V27.4456H81.7371V3.11548H85.3692Z" fill="#34A853"/>
<path d="M99.1511 22.3796L101.969 24.267C101.061 25.6187 98.8699 27.9485 95.0812 27.9485C90.3851 27.9485 86.8777 24.299 86.8777 19.6443C86.8777 14.7045 90.4144 11.3401 94.6727 11.3401C98.9628 11.3401 101.059 14.7684 101.749 16.6239L102.125 17.5676L91.0724 22.1609C91.9187 23.8271 93.2321 24.6774 95.0787 24.6774C96.9278 24.6774 98.2119 23.7632 99.1511 22.3796ZM90.478 19.3912L97.8671 16.3093C97.461 15.2722 96.2381 14.5472 94.7999 14.5472C92.9508 14.5472 90.3851 16.1815 90.478 19.3912Z" fill="#EA4335"/>
</svg>
