<svg width="22" height="18" viewBox="0 0 22 18" fill="none" xmlns="http://www.w3.org/2000/svg">
<path d="M1.35869 7.98364C0.796986 8.54535 0.796986 9.45492 1.35869 10.0163L8.54619 17.2038C8.82686 17.4844 9.19486 17.625 9.5625 17.625C9.93014 17.625 10.2981 17.4844 10.5788 17.2038C11.1405 16.6421 11.1405 15.7325 10.5788 15.1711L5.84513 10.4375H19.625C20.4189 10.4375 21.0625 9.79453 21.0625 8.99996C21.0625 8.20538 20.4189 7.56246 19.625 7.56246H5.84513L10.5788 2.82877C11.1405 2.26706 11.1405 1.35749 10.5788 0.796143C10.0171 0.234799 9.10753 0.234439 8.54619 0.796143L1.35869 7.98364Z" fill="#A6B0B6"/>
</svg>
