<svg width="176" height="39" viewBox="0 0 176 39" fill="none" xmlns="http://www.w3.org/2000/svg">
<g clip-path="url(#clip0_1_1002)">
<path d="M62.6454 22.4188L61.6029 25.3725H61.516C61.3423 24.7065 61.0237 23.6929 60.5025 22.4767L54.9137 8.43226H49.4407V30.8165H53.0604V17.0037C53.0604 16.135 53.0604 15.1504 53.0314 13.9342C53.0025 13.3261 52.9445 12.8628 52.9156 12.5153H53.0025C53.1762 13.384 53.3789 14.0211 53.5237 14.4265L60.2419 30.7586H62.7901L69.4504 14.2817C69.5952 13.9053 69.74 13.1524 69.8848 12.5153H69.9716C69.8848 14.1659 69.8268 15.6427 69.7979 16.5404V30.7296H73.6493V8.37434H68.379L62.6454 22.4188ZM77.2979 14.6871H81.0624V30.7296H77.2979V14.6871ZM79.2091 7.91102C78.5721 7.91102 78.0508 8.14268 77.6165 8.54809C77.1821 8.95349 76.9504 9.47473 76.9504 10.1118C76.9504 10.7199 77.1821 11.2411 77.6165 11.6466C78.0508 12.052 78.5721 12.2547 79.2091 12.2547C79.8462 12.2547 80.3964 12.023 80.8018 11.6466C81.2362 11.2411 81.4678 10.7199 81.4678 10.1118C81.4678 9.50369 81.2362 8.98245 80.8018 8.54809C80.4253 8.14268 79.8751 7.91102 79.2091 7.91102ZM94.4119 14.5423C93.7169 14.3975 92.993 14.3107 92.298 14.3107C90.5895 14.3107 89.0258 14.6871 87.7227 15.44C86.4196 16.1929 85.3771 17.2354 84.7111 18.5385C84.0161 19.8705 83.6686 21.4053 83.6686 23.1717C83.6686 24.7065 84.0161 26.0675 84.6821 27.3126C85.3481 28.5289 86.2748 29.5134 87.52 30.1794C88.7072 30.8455 90.0972 31.193 91.6609 31.193C93.4563 31.193 94.991 30.8165 96.2073 30.1215L96.2362 30.0926V26.6177L96.0914 26.7335C95.5412 27.1389 94.9042 27.4864 94.2671 27.6891C93.6011 27.9208 92.993 28.0366 92.4717 28.0366C90.9659 28.0366 89.7787 27.6022 88.9389 26.6466C88.0702 25.72 87.6358 24.4458 87.6358 22.8532C87.6358 21.2026 88.0702 19.8995 88.9678 18.9439C89.8655 17.9883 91.0528 17.496 92.5007 17.496C93.7169 17.496 94.9621 17.9014 96.0914 18.7122L96.2362 18.8281V15.1504L96.2073 15.1215C95.715 14.9188 95.1648 14.6871 94.4119 14.5423ZM106.835 14.4265C105.908 14.4265 105.039 14.7161 104.286 15.3242C103.649 15.8454 103.215 16.5983 102.839 17.496H102.81V14.6871H99.0451V30.7296H102.81V22.5346C102.81 21.1447 103.099 19.9864 103.736 19.1466C104.373 18.2779 105.184 17.8435 106.169 17.8435C106.516 17.8435 106.864 17.9304 107.298 17.9883C107.703 18.1041 107.993 18.2199 108.196 18.3647L108.341 18.4806V14.7161L108.254 14.6871C107.993 14.5134 107.472 14.4265 106.835 14.4265ZM117.086 14.3396C114.451 14.3396 112.337 15.1215 110.86 16.6562C109.354 18.191 108.63 20.3049 108.63 22.969C108.63 25.4594 109.383 27.4864 110.831 28.9632C112.279 30.4111 114.248 31.164 116.709 31.164C119.286 31.164 121.342 30.3822 122.819 28.8184C124.325 27.2547 125.049 25.1698 125.049 22.5925C125.049 20.0443 124.354 18.0172 122.935 16.5404C121.574 15.0636 119.576 14.3396 117.086 14.3396ZM120.097 26.6756C119.402 27.5733 118.302 28.0076 116.941 28.0076C115.58 28.0076 114.48 27.5733 113.698 26.6177C112.916 25.72 112.539 24.4169 112.539 22.7663C112.539 21.0578 112.945 19.7547 113.698 18.8281C114.48 17.9014 115.551 17.4381 116.912 17.4381C118.244 17.4381 119.286 17.8724 120.039 18.7701C120.792 19.6678 121.198 20.9709 121.198 22.6794C121.14 24.4169 120.821 25.7779 120.097 26.6756ZM133.447 21.3474C132.26 20.8551 131.507 20.4786 131.159 20.1601C130.87 19.8705 130.725 19.4651 130.725 18.9439C130.725 18.5095 130.899 18.0752 131.333 17.7856C131.767 17.496 132.26 17.3512 132.983 17.3512C133.621 17.3512 134.287 17.467 134.924 17.6408C135.561 17.8145 136.14 18.0752 136.603 18.4226L136.748 18.5385V15.0056L136.661 14.9767C136.227 14.8029 135.648 14.6292 134.953 14.4844C134.258 14.3686 133.621 14.3107 133.099 14.3107C131.304 14.3107 129.827 14.745 128.669 15.7006C127.51 16.5983 126.96 17.8145 126.96 19.2335C126.96 19.9864 127.076 20.6524 127.337 21.2026C127.597 21.7528 127.974 22.274 128.495 22.7084C129.016 23.1138 129.769 23.5771 130.812 24.0115C131.68 24.3879 132.346 24.6775 132.752 24.9092C133.157 25.1408 133.418 25.4014 133.621 25.6041C133.765 25.8358 133.852 26.1254 133.852 26.5018C133.852 27.5733 133.041 28.0945 131.391 28.0945C130.754 28.0945 130.088 27.9787 129.306 27.718C128.524 27.4574 127.8 27.081 127.192 26.6466L127.047 26.5308V30.2084L127.134 30.2374C127.684 30.498 128.35 30.6717 129.161 30.8744C129.972 31.0192 130.696 31.1351 131.333 31.1351C133.273 31.1351 134.866 30.7007 135.995 29.7451C137.153 28.8184 137.761 27.6312 137.761 26.0964C137.761 25.025 137.472 24.0694 136.835 23.3454C135.995 22.6505 134.953 21.9265 133.447 21.3474ZM147.694 14.3396C145.059 14.3396 142.945 15.1215 141.468 16.6562C139.991 18.191 139.238 20.3049 139.238 22.969C139.238 25.4594 139.991 27.4864 141.439 28.9632C142.887 30.4111 144.856 31.164 147.317 31.164C149.895 31.164 151.951 30.3822 153.428 28.8184C154.933 27.2547 155.657 25.1698 155.657 22.5925C155.657 20.0443 154.962 18.0172 153.543 16.5404C152.182 15.0636 150.184 14.3396 147.694 14.3396ZM150.677 26.6756C149.982 27.5733 148.881 28.0076 147.52 28.0076C146.13 28.0076 145.059 27.5733 144.277 26.6177C143.495 25.72 143.119 24.4169 143.119 22.7663C143.119 21.0578 143.524 19.7547 144.277 18.8281C145.059 17.9014 146.13 17.4381 147.491 17.4381C148.794 17.4381 149.866 17.8724 150.619 18.7701C151.372 19.6678 151.777 20.9709 151.777 22.6794C151.777 24.4169 151.401 25.7779 150.677 26.6756ZM175.783 17.7856V14.6871H171.989V9.93805L171.874 9.96701L168.283 11.0384L168.196 11.0674V14.6871H162.52V12.6601C162.52 11.7334 162.752 11.0095 163.157 10.5462C163.563 10.0828 164.171 9.85118 164.924 9.85118C165.445 9.85118 165.995 9.96701 166.603 10.2276L166.748 10.3145V7.04229L166.661 7.01333C166.14 6.83959 165.445 6.72375 164.547 6.72375C163.418 6.72375 162.433 6.98437 161.536 7.41874C160.638 7.91102 159.972 8.57704 159.48 9.47473C158.987 10.3435 158.727 11.328 158.727 12.4574V14.6871H156.092V17.7566H158.727V30.7296H162.52V17.7856H168.196V26.0385C168.196 29.4266 169.789 31.1351 172.974 31.1351C173.495 31.1351 174.045 31.0482 174.567 30.9613C175.117 30.8455 175.522 30.7007 175.754 30.5849L175.783 30.5559V27.4574L175.638 27.5733C175.406 27.718 175.204 27.8339 174.856 27.9208C174.567 28.0076 174.306 28.0366 174.103 28.0366C173.35 28.0366 172.829 27.8628 172.453 27.4285C172.105 27.0231 171.931 26.357 171.931 25.3725V17.7856H175.783Z" fill="#737373"/>
<path d="M0.911377 0.903442H18.6624V18.6545H0.911377V0.903442Z" fill="#F25022"/>
<path d="M20.5129 0.90332H38.264V18.6544H20.5129V0.90332Z" fill="#7FBA00"/>
<path d="M0.907471 20.5079H18.6585V38.259H0.907471V20.5079Z" fill="#00A4EF"/>
<path d="M20.5129 20.5079H38.264V38.259H20.5129V20.5079Z" fill="#FFB900"/>
</g>
<defs>
<clipPath id="clip0_1_1002">
<rect width="174.885" height="37.3554" fill="white" transform="translate(0.903564 0.903442)"/>
</clipPath>
</defs>
</svg>
