<svg width="22" height="18" viewBox="0 0 22 18" fill="none" xmlns="http://www.w3.org/2000/svg">
<path d="M20.6413 7.98364C21.203 8.54535 21.203 9.45492 20.6413 10.0163L13.4538 17.2038C13.1731 17.4844 12.8051 17.625 12.4375 17.625C12.0699 17.625 11.7019 17.4844 11.4212 17.2038C10.8595 16.6421 10.8595 15.7325 11.4212 15.1711L16.1549 10.4375H2.375C1.58114 10.4375 0.9375 9.79453 0.9375 8.99996C0.9375 8.20538 1.58114 7.56246 2.375 7.56246H16.1549L11.4212 2.82877C10.8595 2.26706 10.8595 1.35749 11.4212 0.796143C11.9829 0.234799 12.8925 0.234439 13.4538 0.796143L20.6413 7.98364Z" fill="#A6B0B6"/>
</svg>
