<svg width="116" height="39" viewBox="0 0 116 39" fill="none" xmlns="http://www.w3.org/2000/svg">
<path d="M7.61279 12.3603H13.6513L17.1675 21.3561L20.7293 12.3603H26.6088L17.7556 33.6562H11.8388L14.2622 28.0131L7.61279 12.3603ZM32.7337 12.0023C28.1966 12.0023 25.3284 16.0712 25.3284 20.1233C25.3284 24.6831 28.473 28.2982 32.6476 28.2982C35.7616 28.2982 36.9358 26.4009 36.9358 26.4009V27.8788H42.2025V12.3604H36.9358V13.7712C36.9358 13.7712 35.6258 12.0023 32.7337 12.0023ZM33.8539 16.9892C35.9473 16.9892 37.0276 18.6457 37.0276 20.1404C37.0276 21.7498 35.8702 23.3293 33.8539 23.3293C32.1828 23.3293 30.6726 21.9636 30.6726 20.2088C30.6726 18.4292 31.8873 16.9892 33.8539 16.9892ZM44.0164 27.8788V5.50806H49.5251V13.8249C49.5251 13.8249 50.8335 12.0041 53.5739 12.0041C56.9259 12.0041 58.8899 14.5017 58.8899 18.0706V27.8788H53.4215V19.4141C53.4215 18.2064 52.8462 17.0396 51.543 17.0396C50.2164 17.0396 49.5251 18.224 49.5251 19.4142V27.8787L44.0164 27.8788ZM68.282 12.0041C63.0863 12.0041 59.9925 15.9549 59.9925 20.1879C59.9925 25.005 63.7383 28.2982 68.3017 28.2982C72.7247 28.2982 76.5949 25.1545 76.5949 20.2687C76.5949 14.9227 72.5427 12.0041 68.282 12.0041ZM68.3316 17.0349C70.167 17.0349 71.4368 18.5635 71.4368 20.1936C71.4368 21.584 70.2535 23.2989 68.3316 23.2989C66.5706 23.2989 65.249 21.8862 65.249 20.1784C65.249 18.5332 66.3478 17.0349 68.3316 17.0349ZM85.7722 12.0041C80.5764 12.0041 77.4826 15.9549 77.4826 20.1879C77.4826 25.005 81.2285 28.2982 85.7918 28.2982C90.2149 28.2982 94.0851 25.1545 94.0851 20.2687C94.0851 14.9227 90.0328 12.0041 85.7722 12.0041ZM85.8218 17.0349C87.6571 17.0349 88.927 18.5635 88.927 20.1936C88.927 21.584 87.7437 23.2989 85.8218 23.2989C84.0607 23.2989 82.7392 21.8862 82.7392 20.1784C82.7392 18.5332 83.8379 17.0349 85.8218 17.0349Z" fill="#5F01D1"/>
<path d="M98.4309 28.2078C100.451 28.2078 102.089 26.5701 102.089 24.5498C102.089 22.5296 100.451 20.8918 98.4309 20.8918C96.4107 20.8918 94.7729 22.5296 94.7729 24.5498C94.7729 26.5701 96.4107 28.2078 98.4309 28.2078Z" fill="#5F01D1"/>
<path d="M103.292 19.5485H96.7065L102.551 5.50806H109.112L103.292 19.5485Z" fill="#5F01D1"/>
</svg>
