<svg width="47" height="47" viewBox="0 0 47 47" fill="none" xmlns="http://www.w3.org/2000/svg">
<circle opacity="0.3" cx="23.5" cy="23.5" r="23.5" fill="url(#paint0_linear_733_12872)"/>
<circle cx="23.5" cy="23.5" r="19.5" fill="url(#paint1_linear_733_12872)"/>
<mask id="mask0_733_12872" style="mask-type:luminance" maskUnits="userSpaceOnUse" x="12" y="12" width="24" height="24">
<path d="M12 12H36V36H12V12Z" fill="white"/>
</mask>
<g mask="url(#mask0_733_12872)">
<path d="M25.1328 17.1756V18.4141" stroke="white" stroke-width="0.78" stroke-miterlimit="10"/>
<path d="M22.6094 20.2656H25.1323" stroke="white" stroke-width="0.78" stroke-miterlimit="10"/>
<path d="M26.0137 23.2817V18.4141H21.7266V29.6523H25.0762" stroke="white" stroke-width="0.78" stroke-miterlimit="10"/>
<path d="M30.327 29.6523H26.0117V24.5275L28.1694 22.6396L30.327 24.5275V29.6523Z" stroke="white" stroke-width="0.78" stroke-miterlimit="10"/>
<path d="M19.0391 22.9324V28.5625" stroke="white" stroke-width="0.78" stroke-miterlimit="10"/>
<path d="M20.3594 22.9324V28.5625" stroke="white" stroke-width="0.78" stroke-miterlimit="10" stroke-dasharray="0.94 0.62 0.94 0.62 21.87 0.94 0.62 0.94"/>
<path d="M22.6094 21.6328H25.1323" stroke="white" stroke-width="0.78" stroke-miterlimit="10"/>
<path d="M22.6094 23.0078H25.1323" stroke="white" stroke-width="0.78" stroke-miterlimit="10"/>
<path d="M22.6094 24.375H25.1323" stroke="white" stroke-width="0.78" stroke-miterlimit="10"/>
<path d="M22.6094 25.7422H25.1323" stroke="white" stroke-width="0.78" stroke-miterlimit="10"/>
<path d="M27.0391 25.7422H27.8165" stroke="white" stroke-width="0.78" stroke-miterlimit="10"/>
<path d="M28.5039 25.7422H29.2813" stroke="white" stroke-width="0.78" stroke-miterlimit="10"/>
<path d="M27.0391 27.1562H27.8165" stroke="white" stroke-width="0.78" stroke-miterlimit="10"/>
<path d="M28.5039 27.1562H29.2813" stroke="white" stroke-width="0.78" stroke-miterlimit="10"/>
<path d="M17.6718 29.6523H15.7031" stroke="white" stroke-width="0.78" stroke-miterlimit="10"/>
<path d="M32.2968 29.6523H30.3281" stroke="white" stroke-width="0.78" stroke-miterlimit="10"/>
<path d="M22.9727 33.4214C22.9727 32.8538 23.4328 32.3936 24.0005 32.3936C24.5681 32.3936 25.0283 32.8538 25.0283 33.4214C25.0283 33.989 24.5681 34.4492 24.0005 34.4492C23.4328 34.4492 22.9727 33.989 22.9727 33.4214Z" stroke="white" stroke-width="0.78" stroke-miterlimit="10"/>
<path d="M26.8477 34.6206C26.8477 34.053 27.3078 33.5928 27.8755 33.5928C28.4431 33.5928 28.9033 34.053 28.9033 34.6206C28.9033 35.1883 28.4431 35.6484 27.8755 35.6484C27.3078 35.6484 26.8477 35.1883 26.8477 34.6206Z" stroke="white" stroke-width="0.78" stroke-miterlimit="10"/>
<path d="M21.1494 34.6206C21.1494 34.053 20.6892 33.5928 20.1215 33.5928C19.5539 33.5928 19.0938 34.053 19.0938 34.6206C19.0938 35.1883 19.5539 35.6484 20.1215 35.6484C20.6892 35.6484 21.1494 35.1883 21.1494 34.6206Z" stroke="white" stroke-width="0.78" stroke-miterlimit="10"/>
<path d="M27.8777 33.5938V31.9373L26.5312 30.5908" stroke="white" stroke-width="0.78" stroke-miterlimit="10"/>
<path d="M20.125 33.5938V31.9373L21.4715 30.5908" stroke="white" stroke-width="0.78" stroke-miterlimit="10"/>
<path d="M24 32.3945V30.589" stroke="white" stroke-width="0.78" stroke-miterlimit="10"/>
<path d="M31.2671 27.75C33.7285 27.4972 35.6484 25.4175 35.6484 22.8894C35.6484 20.3605 33.7274 18.2804 31.265 18.0285C31.2651 18.02 31.2653 18.0115 31.2653 18.003C31.2653 14.8821 28.7354 12.3521 25.6145 12.3521C23.1832 12.3521 21.1107 13.8877 20.3135 16.0419C19.9809 15.8499 19.5953 15.7394 19.1836 15.7394C17.9335 15.7394 16.9201 16.7528 16.9201 18.003C16.9201 18.0065 16.9203 18.0099 16.9204 18.0135C14.3697 18.1772 12.3516 20.2974 12.3516 22.8894C12.3516 25.4175 14.2715 27.4972 16.7329 27.75" stroke="white" stroke-width="0.78" stroke-miterlimit="10"/>
<path d="M20.7873 20.7137L17.668 22.2182V29.6523H20.7873" stroke="white" stroke-width="0.78" stroke-miterlimit="10"/>
</g>
<defs>
<linearGradient id="paint0_linear_733_12872" x1="49.3671" y1="-3.01527" x2="34.2746" y2="44.0172" gradientUnits="userSpaceOnUse">
<stop stop-color="#0FA6FC"/>
<stop offset="0.953125" stop-color="#D048FC"/>
</linearGradient>
<linearGradient id="paint1_linear_733_12872" x1="44.9642" y1="1.49796" x2="32.4406" y2="40.5249" gradientUnits="userSpaceOnUse">
<stop stop-color="#0FA6FC"/>
<stop offset="0.953125" stop-color="#D048FC"/>
</linearGradient>
</defs>
</svg>
