<svg width="44" height="56" viewBox="0 0 44 56" fill="none" xmlns="http://www.w3.org/2000/svg">
<path opacity="0.4" d="M43.6949 49.2197C44.0924 48.8364 44.104 48.2033 43.7206 47.8057L37.4736 41.3269C37.0903 40.9293 36.4572 40.9178 36.0596 41.3011C35.6621 41.6845 35.6505 42.3176 36.0339 42.7151L41.5868 48.4741L35.8278 54.027C35.4302 54.4103 35.4187 55.0434 35.8021 55.4409C36.1854 55.8385 36.8185 55.85 37.216 55.4667L43.6949 49.2197ZM6.09135 0.0839957C5.83336 0.646238 5.56369 1.24351 5.28775 1.87185L7.11894 2.67605C7.38964 2.05965 7.65471 1.47254 7.90912 0.918086L6.09135 0.0839957ZM3.77404 5.52826C3.31496 6.7154 2.86413 7.96828 2.4448 9.27057L4.34854 9.88357C4.75449 8.62283 5.1921 7.40636 5.63942 6.24963L3.77404 5.52826ZM1.35519 13.1007C1.04149 14.3806 0.773273 15.6916 0.569455 17.0205L2.54634 17.3237C2.74024 16.0595 2.99632 14.8065 3.2977 13.5768L1.35519 13.1007ZM0.171282 21.0193C0.114262 22.3641 0.139458 23.7162 0.266303 25.062L2.25748 24.8743C2.14003 23.6282 2.11591 22.3677 2.16949 21.104L0.171282 21.0193ZM0.972192 29.0706C1.31797 30.3751 1.78198 31.6597 2.38264 32.9108L4.1856 32.0451C3.64248 30.9139 3.22087 29.7482 2.90543 28.5582L0.972192 29.0706ZM4.50827 36.4109C5.29733 37.4632 6.20784 38.4741 7.25108 39.4351L8.60606 37.964C7.65097 37.0843 6.82283 36.1638 6.10834 35.211L4.50827 36.4109ZM10.466 41.9465C11.5285 42.6527 12.6858 43.3191 13.9441 43.9415L14.8308 42.1488C13.6443 41.5619 12.561 40.9375 11.5732 40.2809L10.466 41.9465ZM17.6328 45.5276C18.8294 45.9732 20.099 46.3861 21.445 46.764L21.9856 44.8385C20.6895 44.4746 19.4726 44.0785 18.3308 43.6533L17.6328 45.5276ZM25.3109 47.7066C26.5548 47.9676 27.8548 48.2026 29.2129 48.4103L29.5152 46.4332C28.1914 46.2308 26.9277 46.0022 25.7215 45.7492L25.3109 47.7066ZM33.1321 48.915C34.3917 49.0488 35.6959 49.1614 37.0459 49.2519L37.1797 47.2564C35.8543 47.1675 34.576 47.0571 33.3432 46.9262L33.1321 48.915ZM40.967 49.4476C41.6288 49.4699 42.3006 49.4872 42.9825 49.4997L43.019 47.5C42.3471 47.4878 41.6855 47.4706 41.0342 47.4488L40.967 49.4476Z" fill="url(#paint0_linear_829_4108)"/>
<defs>
<linearGradient id="paint0_linear_829_4108" x1="-13.5819" y1="-135.21" x2="27.152" y2="61.3309" gradientUnits="userSpaceOnUse">
<stop stop-color="#468CFD"/>
<stop offset="0.568599" stop-color="#27529E"/>
<stop offset="0.770397" stop-color="#11285A"/>
<stop offset="0.996089" stop-color="#091941"/>
</linearGradient>
</defs>
</svg>
