<svg width="48" height="48" viewBox="0 0 48 48" fill="none" xmlns="http://www.w3.org/2000/svg">
<g clip-path="url(#clip0_491_2741)">
<path d="M24.0687 36.5989V34.2492C24.0687 30.7906 21.7943 27.8703 18.6951 26.9471C20.163 25.8597 21.1223 24.0968 21.1223 22.1078C21.1223 18.808 18.4948 16.1245 15.2638 16.1245C12.0327 16.1245 9.4052 18.808 9.4052 22.1078C9.4052 24.0968 10.3645 25.8597 11.8324 26.9471C8.7358 27.8703 6.46143 30.7906 6.46143 34.2492V36.5989C6.46143 37.0188 6.79349 37.3579 7.20462 37.3579H23.3255C23.7367 37.3579 24.0687 37.0188 24.0687 36.5989ZM10.8916 22.1078C10.8916 19.645 12.8523 17.6425 15.2638 17.6425C17.6752 17.6425 19.6359 19.645 19.6359 22.1078C19.6359 24.5705 17.6752 26.573 15.2638 26.573C12.8523 26.573 10.8916 24.5705 10.8916 22.1078ZM22.5823 35.8399H7.94781V34.2492C7.94781 30.8902 10.6228 28.1583 13.9118 28.1583H16.6184C19.9074 28.1583 22.5823 30.8902 22.5823 34.2492V35.8399Z" fill="url(#paint0_linear_491_2741)"/>
<path d="M36.8164 18.0653C38.2843 16.9779 39.2436 15.215 39.2436 13.2259C39.2436 9.92612 36.6161 7.24268 33.385 7.24268C30.154 7.24268 27.5265 9.92612 27.5265 13.2259C27.5265 15.215 28.4858 16.9779 29.9537 18.0653C26.8545 18.9858 24.5801 21.9088 24.5801 25.3674V27.7171C24.5801 28.1369 24.9121 28.4761 25.3233 28.4761H41.4442C41.8553 28.4761 42.1874 28.1369 42.1874 27.7171V25.3674C42.1874 21.9088 39.913 18.9858 36.8137 18.0653H36.8164ZM29.0129 13.2259C29.0129 10.7632 30.9736 8.76069 33.385 8.76069C35.7965 8.76069 37.7572 10.7632 37.7572 13.2259C37.7572 15.6887 35.7965 17.6912 33.385 17.6912C30.9736 17.6912 29.0129 15.6887 29.0129 13.2259ZM40.7036 26.9581H26.0691V25.3674C26.0691 22.0084 28.7441 19.2765 32.0331 19.2765H34.7397C38.0287 19.2765 40.7036 22.0084 40.7036 25.3674V26.9581Z" fill="url(#paint1_linear_491_2741)"/>
<path d="M33.8807 32.5215C33.5987 32.1608 33.0031 32.1608 32.7211 32.5215L28.8101 37.5169C28.6309 37.7457 28.5966 38.0552 28.7205 38.319C28.8444 38.5828 29.1053 38.7497 29.3899 38.7497H29.7536C27.6558 40.9029 24.293 41.1936 21.8394 39.3203C21.2333 38.86 20.4215 39.514 20.7088 40.2192C23.7264 47.5994 34.3392 46.5874 35.9548 38.7497H37.2119C37.4965 38.7497 37.7574 38.5828 37.8813 38.319C38.0051 38.0552 37.9709 37.7457 37.7916 37.5169L33.8807 32.5215ZM35.3275 37.2316C34.9533 37.2316 34.637 37.5169 34.5896 37.8964C33.9123 43.3845 27.3422 45.6696 23.5182 41.8153C26.6649 42.6793 30.0988 41.3981 31.9067 38.389C32.0464 38.1548 32.0517 37.8614 31.9226 37.6219C31.7908 37.3824 31.543 37.2343 31.2742 37.2343H30.9343L33.3009 34.2117L35.6675 37.2343H35.3275V37.2316Z" fill="url(#paint2_linear_491_2741)"/>
<path d="M15.0609 14.5744C15.3587 14.9539 15.9227 14.9539 16.2205 14.5744L20.1314 9.57893C20.5188 9.08369 20.1736 8.34621 19.5516 8.34621H19.1879C20.3106 7.19424 21.8339 6.53482 23.4679 6.53482C24.7803 6.53482 26.0374 6.96277 27.1021 7.77561C27.7057 8.23586 28.5226 7.58451 28.2327 6.87664C26.9809 3.82177 24.0767 1.84619 20.8298 1.84619C17.0216 1.84619 13.759 4.59692 12.9868 8.34621H11.7297C11.1077 8.34621 10.7625 9.081 11.1499 9.57893L15.0609 14.5744ZM13.614 9.86423C13.9882 9.86423 14.3045 9.57893 14.3519 9.19942C14.7631 5.87271 17.5487 3.36152 20.8298 3.36152C22.5877 3.36152 24.2243 4.07208 25.4234 5.28057C24.7909 5.10831 24.1373 5.01949 23.4705 5.01949C20.8298 5.01949 18.4237 6.39755 17.0348 8.70957C16.8951 8.94373 16.8899 9.23711 17.019 9.47665C17.2483 9.89384 17.5724 9.86423 18.0073 9.86423L15.6407 12.8868L13.274 9.86423H13.614Z" fill="url(#paint3_linear_491_2741)"/>
</g>
<defs>
<linearGradient id="paint0_linear_491_2741" x1="24.9555" y1="14.7623" x2="17.0674" y2="35.1458" gradientUnits="userSpaceOnUse">
<stop stop-color="#0FA6FC"/>
<stop offset="0.953125" stop-color="#D048FC"/>
</linearGradient>
<linearGradient id="paint1_linear_491_2741" x1="43.0742" y1="5.88045" x2="35.1861" y2="26.264" gradientUnits="userSpaceOnUse">
<stop stop-color="#0FA6FC"/>
<stop offset="0.953125" stop-color="#D048FC"/>
</linearGradient>
<linearGradient id="paint2_linear_491_2741" x1="38.8264" y1="31.4184" x2="35.568" y2="44.9585" gradientUnits="userSpaceOnUse">
<stop stop-color="#0FA6FC"/>
<stop offset="0.953125" stop-color="#D048FC"/>
</linearGradient>
<linearGradient id="paint3_linear_491_2741" x1="29.1647" y1="1.01136" x2="25.8899" y2="14.5839" gradientUnits="userSpaceOnUse">
<stop stop-color="#0FA6FC"/>
<stop offset="0.953125" stop-color="#D048FC"/>
</linearGradient>
<clipPath id="clip0_491_2741">
<rect width="35.7285" height="43.3846" fill="white" transform="translate(6.46143 1.84619)"/>
</clipPath>
</defs>
</svg>
