<svg width="14" height="15" viewBox="0 0 14 15" fill="none" xmlns="http://www.w3.org/2000/svg">
<g opacity="0.5">
<path d="M11.8068 1.83699H10.634V1.21147C10.634 1.04557 10.5681 0.88646 10.4508 0.769151C10.3335 0.651841 10.1744 0.585938 10.0085 0.585938C9.84255 0.585938 9.68345 0.651841 9.56614 0.769151C9.44883 0.88646 9.38293 1.04557 9.38293 1.21147V1.83699H7.50634V1.21147C7.50634 1.04557 7.44044 0.88646 7.32313 0.769151C7.20582 0.651841 7.04671 0.585938 6.88081 0.585938C6.71491 0.585938 6.55581 0.651841 6.4385 0.769151C6.32119 0.88646 6.25528 1.04557 6.25528 1.21147V1.83699H4.3787V1.21147C4.3787 1.04557 4.3128 0.88646 4.19549 0.769151C4.07818 0.651841 3.91907 0.585938 3.75317 0.585938C3.58727 0.585938 3.42816 0.651841 3.31086 0.769151C3.19355 0.88646 3.12764 1.04557 3.12764 1.21147V1.83699H1.95478C1.43654 1.83766 0.93972 2.04382 0.573272 2.41027C0.206824 2.77671 0.000662071 3.27354 0 3.79177V5.59017H13.7616V3.79177C13.761 3.27354 13.5548 2.77671 13.1884 2.41027C12.8219 2.04382 12.3251 1.83766 11.8068 1.83699Z" fill="#01142B" fill-opacity="0.74"/>
<path d="M0 12.3914C0.000662071 12.9096 0.206824 13.4065 0.573272 13.7729C0.93972 14.1394 1.43654 14.3455 1.95478 14.3462H11.8068C12.3251 14.3455 12.8219 14.1394 13.1884 13.7729C13.5548 13.4065 13.761 12.9096 13.7616 12.3914V6.83984H0V12.3914ZM4.56198 9.87804C4.67928 9.76077 4.83836 9.69489 5.00423 9.69489C5.17009 9.69489 5.32917 9.76077 5.44648 9.87804L6.25528 10.6862L8.31515 8.62698C8.43313 8.51303 8.59114 8.44998 8.75515 8.45141C8.91916 8.45283 9.07605 8.51862 9.19203 8.6346C9.308 8.75058 9.37379 8.90747 9.37522 9.07148C9.37664 9.23549 9.31359 9.3935 9.19965 9.51148L6.69753 12.0136C6.58023 12.1309 6.42115 12.1967 6.25528 12.1967C6.08942 12.1967 5.93034 12.1309 5.81304 12.0136L4.56198 10.7625C4.44471 10.6452 4.37883 10.4862 4.37883 10.3203C4.37883 10.1544 4.44471 9.99534 4.56198 9.87804Z" fill="#01142B" fill-opacity="0.74"/>
</g>
</svg>
