<svg width="14" height="15" viewBox="0 0 14 15" fill="none" xmlns="http://www.w3.org/2000/svg">
<g opacity="0.5" clip-path="url(#clip0_1392_2296)">
<path d="M6.88081 0.587891C3.08658 0.587891 0 3.67447 0 7.4687C0 11.2629 3.08658 14.3495 6.88081 14.3495C10.675 14.3495 13.7616 11.2629 13.7616 7.4687C13.7616 3.67447 10.675 0.587891 6.88081 0.587891ZM10.1532 11.0278C10.0414 11.1396 9.89463 11.1958 9.74785 11.1958C9.60107 11.1958 9.45419 11.1396 9.34247 11.0278L6.47543 8.16082C6.36761 8.05362 6.30745 7.90789 6.30745 7.75544V4.0283C6.30745 3.71122 6.56426 3.45493 6.88081 3.45493C7.19737 3.45493 7.45418 3.71122 7.45418 4.0283V7.51805L10.1532 10.217C10.3774 10.4413 10.3774 10.8036 10.1532 11.0278Z" fill="#01142B" fill-opacity="0.74"/>
</g>
<defs>
<clipPath id="clip0_1392_2296">
<rect width="13.7616" height="13.7616" fill="white" transform="translate(0 0.589844)"/>
</clipPath>
</defs>
</svg>
