<svg width="48" height="48" viewBox="0 0 48 48" fill="none" xmlns="http://www.w3.org/2000/svg">
<mask id="path-1-inside-1_494_3195" fill="white">
<path d="M30.3766 8.98287V10.0565C29.1883 9.67061 27.9491 9.4758 26.6805 9.4758C25.4118 9.4758 24.1727 9.67061 22.9843 10.0565V8.98287C22.9843 7.62362 23.7152 6.43558 24.8055 5.79137C25.0479 6.03267 25.3301 6.22158 25.6432 6.35441C25.9717 6.49387 26.321 6.56397 26.6805 6.56397C27.04 6.56397 27.3885 6.49313 27.717 6.35441C28.0309 6.22158 28.3123 6.03194 28.5554 5.79137C28.8258 5.95077 29.0733 6.1441 29.2944 6.36474C29.9633 7.03477 30.3766 7.96012 30.3766 8.98287Z"/>
<path d="M28.5746 3.89719C28.5746 4.53622 28.2593 5.10147 27.7752 5.44534C27.4666 5.66524 27.0886 5.79437 26.6805 5.79437C26.2723 5.79437 25.8951 5.66524 25.5857 5.44534C25.1024 5.10147 24.7864 4.53622 24.7864 3.89719C24.7864 2.84934 25.6343 2 26.6805 2C27.7266 2 28.5746 2.84934 28.5746 3.89719Z"/>
<path d="M21.2177 10.79C20.103 11.3604 19.0886 12.1006 18.1942 12.9964C17.2998 13.8922 16.5609 14.9083 15.9914 16.0248L15.2326 15.2648C14.2734 14.304 13.9514 12.9455 14.2675 11.7183C14.6093 11.7169 14.9423 11.6512 15.2576 11.5228C15.5884 11.3885 15.8846 11.1915 16.1387 10.9369C16.3929 10.6823 16.5896 10.3856 16.7237 10.0543C16.8519 9.73849 16.9174 9.40496 16.9189 9.06256C17.2224 8.98434 17.5341 8.94449 17.8457 8.94449C18.7917 8.94449 19.7376 9.30607 20.4596 10.0292L21.2184 10.7893L21.2177 10.79Z"/>
<path d="M16.1233 9.37179C16.0599 9.74592 15.8838 10.1045 15.595 10.3938C15.3062 10.6831 14.9482 10.8587 14.5747 10.9222C14.4693 10.9399 14.3625 10.9495 14.2557 10.9495C13.7709 10.9495 13.2862 10.7642 12.9163 10.3938C12.1767 9.65294 12.1767 8.45161 12.9163 7.71074C13.2862 7.34031 13.7709 7.15509 14.2557 7.15509C14.7404 7.15509 15.2252 7.34031 15.595 7.71074C16.0467 8.16308 16.222 8.78589 16.1233 9.37179Z"/>
<path d="M38.1284 15.2655L37.3696 16.0256C36.8001 14.9091 36.0612 13.893 35.1668 12.9972C34.2724 12.1006 33.2579 11.3612 32.1433 10.7901L32.9021 10.03C33.6241 9.30685 34.57 8.94527 35.516 8.94527C35.8276 8.94527 36.1392 8.98438 36.4428 9.06334C36.4442 9.40573 36.5098 9.73853 36.638 10.0551C36.7721 10.3864 36.9688 10.6838 37.223 10.9376C37.4771 11.1922 37.7733 11.3893 38.1041 11.5236C38.4194 11.652 38.7531 11.7176 39.0942 11.7191C39.4103 12.9463 39.0883 14.304 38.1291 15.2655H38.1284Z"/>
<path d="M40.4446 10.3938C40.0748 10.7642 39.59 10.9494 39.1053 10.9494C38.9984 10.9494 38.8916 10.9406 38.7863 10.9221C38.4128 10.8587 38.0547 10.6823 37.7659 10.3938C37.4771 10.1053 37.3018 9.74591 37.2384 9.37178C37.139 8.78587 37.315 8.16307 37.7667 7.71073C38.1365 7.34029 38.6212 7.15508 39.106 7.15508C39.5908 7.15508 40.0755 7.34029 40.4454 7.71073C41.185 8.4516 41.185 9.65293 40.4454 10.3938H40.4446Z"/>
<path d="M37.8234 19.944C37.816 19.8908 37.8028 19.8399 37.7836 19.7927C37.6864 19.5455 37.4455 19.3787 37.1736 19.3787C37.1537 19.3787 37.1338 19.3795 37.1139 19.3817C37.0513 19.3876 36.9887 19.3898 36.9261 19.3898C36.4192 19.3898 35.9271 19.2075 35.5425 18.8806C35.3598 18.7257 35.2014 18.5375 35.0776 18.3205C35.0334 18.2431 34.9936 18.1619 34.9583 18.0778C34.8492 17.8136 34.7977 17.5398 34.7977 17.2697C34.7977 16.6403 35.0784 16.0323 35.5661 15.6264C35.79 15.4397 35.8608 15.1342 35.7561 14.8752C35.7355 14.8228 35.7068 14.7726 35.6722 14.7261C35.0364 13.8798 34.2842 13.1263 33.4392 12.4895C33.392 12.4541 33.3419 12.4261 33.2896 12.4047C33.2115 12.3729 33.1283 12.3574 33.0458 12.3574C32.8572 12.3574 32.67 12.4393 32.5404 12.595C32.1352 13.0835 31.5281 13.3647 30.8997 13.3647C30.8083 13.3647 30.717 13.3588 30.6256 13.347C30.5424 13.3359 30.4584 13.3197 30.3759 13.2983C30.2808 13.2739 30.1865 13.2422 30.093 13.2038C30.009 13.1691 29.928 13.1293 29.8506 13.0843C29.1809 12.6998 28.7831 11.9826 28.7831 11.2328C28.7831 11.1701 28.786 11.1074 28.7912 11.0447C28.8177 10.7488 28.6453 10.4787 28.3816 10.3739C28.3337 10.3547 28.2829 10.3414 28.2298 10.3341C27.7229 10.264 27.205 10.2278 26.679 10.2278C26.153 10.2278 25.6351 10.264 25.1282 10.3341C25.0752 10.3414 25.0243 10.3547 24.9764 10.3739C24.7127 10.4787 24.5403 10.7488 24.5668 11.0447C24.6398 11.8601 24.2338 12.6681 23.5082 13.0843C23.4308 13.1286 23.3498 13.1684 23.2658 13.2038C23.1722 13.2422 23.0779 13.2739 22.9829 13.2983C22.9438 13.3086 22.9041 13.3175 22.8643 13.3256C22.8201 13.3344 22.7766 13.3418 22.7324 13.347C22.641 13.3588 22.5497 13.3647 22.4583 13.3647C21.8299 13.3647 21.2229 13.0835 20.8177 12.595C20.688 12.4386 20.5009 12.3574 20.3123 12.3574C20.2298 12.3574 20.1472 12.3729 20.0691 12.4047C20.0168 12.4253 19.9667 12.4541 19.9196 12.4895C19.0746 13.1263 18.3224 13.8798 17.6866 14.7261C17.6512 14.7734 17.6232 14.8236 17.6026 14.8759C17.498 15.135 17.5687 15.4397 17.7927 15.6264C18.4889 16.2064 18.7637 17.1982 18.4005 18.0778C18.3658 18.1626 18.3261 18.2431 18.2811 18.3205C18.1574 18.5368 17.999 18.7249 17.8163 18.8799C17.7485 18.9374 17.677 18.9906 17.6026 19.0393C17.2571 19.2651 16.8497 19.389 16.4327 19.389C16.3701 19.389 16.3074 19.3861 16.2448 19.3809C16.2249 19.3795 16.205 19.378 16.1852 19.378C15.9133 19.378 15.6724 19.5448 15.5751 19.7912C15.556 19.8392 15.5427 19.8901 15.5354 19.9432C15.4654 20.4509 15.4293 20.9697 15.4293 21.4965C15.4293 22.0234 15.4654 22.5422 15.5354 23.0499C15.5427 23.103 15.556 23.1539 15.5751 23.2011C15.6724 23.4483 15.9133 23.6144 16.1852 23.6144C16.205 23.6144 16.2249 23.6136 16.2448 23.6114C16.3074 23.6055 16.3701 23.6033 16.4327 23.6033C17.2667 23.6033 18.0623 24.0984 18.3997 24.9153C18.7637 25.7949 18.4881 26.7867 17.7919 27.3667C17.568 27.5534 17.4973 27.8589 17.6019 28.1171C17.6225 28.1695 17.6505 28.2197 17.6859 28.2669C18.3216 29.1133 19.0738 29.8667 19.9189 30.5036C19.966 30.539 20.0161 30.567 20.0684 30.5884C20.1465 30.6202 20.229 30.6357 20.3115 30.6357C20.5001 30.6357 20.6873 30.5537 20.8169 30.398C21.2221 29.9095 21.8292 29.6284 22.4576 29.6284C22.7272 29.6284 23.0006 29.6801 23.2643 29.7893C24.141 30.1531 24.6464 31.0459 24.5654 31.9477C24.5388 32.2436 24.7112 32.5137 24.975 32.6184C25.0229 32.6376 25.0737 32.6509 25.1267 32.6583C25.6336 32.7284 26.1515 32.7646 26.6775 32.7646C27.2036 32.7646 27.7215 32.7284 28.2283 32.6583C28.2814 32.6509 28.3322 32.6376 28.3801 32.6184C28.6438 32.5137 28.8162 32.2436 28.7897 31.9477C28.7094 31.0459 29.2148 30.1523 30.0908 29.7893C30.3538 29.6801 30.6278 29.6284 30.8975 29.6284C31.5259 29.6284 32.133 29.9095 32.5382 30.398C32.6678 30.5545 32.8549 30.6357 33.0435 30.6357C33.1261 30.6357 33.2086 30.6202 33.2874 30.5884C33.3397 30.5678 33.3898 30.539 33.437 30.5036C34.282 29.8667 35.0342 29.1133 35.67 28.2669C35.7053 28.2197 35.7333 28.1695 35.7539 28.1179C35.8586 27.8589 35.7878 27.5541 35.5639 27.3667C34.8677 26.7867 34.5929 25.7949 34.9561 24.9153C35.2942 24.0984 36.0891 23.6033 36.9231 23.6033C36.9857 23.6033 37.0484 23.6062 37.111 23.6114C37.1309 23.6129 37.1508 23.6144 37.1707 23.6144C37.4425 23.6144 37.6834 23.4476 37.7807 23.2004C37.7991 23.1524 37.8131 23.1023 37.8204 23.0491C37.8904 22.5414 37.9265 22.0227 37.9265 21.4958C37.9265 20.9689 37.8904 20.4502 37.8204 19.9425L37.8234 19.944ZM26.6797 26.3978C23.9819 26.3978 21.7872 24.1995 21.7872 21.4973C21.7872 18.795 23.9819 16.5968 26.6797 16.5968C29.3776 16.5968 31.5723 18.795 31.5723 21.4973C31.5723 24.1995 29.3776 26.3978 26.6797 26.3978Z"/>
</mask>
<path d="M30.3766 8.98287V10.0565C29.1883 9.67061 27.9491 9.4758 26.6805 9.4758C25.4118 9.4758 24.1727 9.67061 22.9843 10.0565V8.98287C22.9843 7.62362 23.7152 6.43558 24.8055 5.79137C25.0479 6.03267 25.3301 6.22158 25.6432 6.35441C25.9717 6.49387 26.321 6.56397 26.6805 6.56397C27.04 6.56397 27.3885 6.49313 27.717 6.35441C28.0309 6.22158 28.3123 6.03194 28.5554 5.79137C28.8258 5.95077 29.0733 6.1441 29.2944 6.36474C29.9633 7.03477 30.3766 7.96012 30.3766 8.98287Z" stroke="url(#paint0_linear_494_3195)" stroke-width="2" mask="url(#path-1-inside-1_494_3195)"/>
<path d="M28.5746 3.89719C28.5746 4.53622 28.2593 5.10147 27.7752 5.44534C27.4666 5.66524 27.0886 5.79437 26.6805 5.79437C26.2723 5.79437 25.8951 5.66524 25.5857 5.44534C25.1024 5.10147 24.7864 4.53622 24.7864 3.89719C24.7864 2.84934 25.6343 2 26.6805 2C27.7266 2 28.5746 2.84934 28.5746 3.89719Z" stroke="url(#paint1_linear_494_3195)" stroke-width="2" mask="url(#path-1-inside-1_494_3195)"/>
<path d="M21.2177 10.79C20.103 11.3604 19.0886 12.1006 18.1942 12.9964C17.2998 13.8922 16.5609 14.9083 15.9914 16.0248L15.2326 15.2648C14.2734 14.304 13.9514 12.9455 14.2675 11.7183C14.6093 11.7169 14.9423 11.6512 15.2576 11.5228C15.5884 11.3885 15.8846 11.1915 16.1387 10.9369C16.3929 10.6823 16.5896 10.3856 16.7237 10.0543C16.8519 9.73849 16.9174 9.40496 16.9189 9.06256C17.2224 8.98434 17.5341 8.94449 17.8457 8.94449C18.7917 8.94449 19.7376 9.30607 20.4596 10.0292L21.2184 10.7893L21.2177 10.79Z" stroke="url(#paint2_linear_494_3195)" stroke-width="2" mask="url(#path-1-inside-1_494_3195)"/>
<path d="M16.1233 9.37179C16.0599 9.74592 15.8838 10.1045 15.595 10.3938C15.3062 10.6831 14.9482 10.8587 14.5747 10.9222C14.4693 10.9399 14.3625 10.9495 14.2557 10.9495C13.7709 10.9495 13.2862 10.7642 12.9163 10.3938C12.1767 9.65294 12.1767 8.45161 12.9163 7.71074C13.2862 7.34031 13.7709 7.15509 14.2557 7.15509C14.7404 7.15509 15.2252 7.34031 15.595 7.71074C16.0467 8.16308 16.222 8.78589 16.1233 9.37179Z" stroke="url(#paint3_linear_494_3195)" stroke-width="2" mask="url(#path-1-inside-1_494_3195)"/>
<path d="M38.1284 15.2655L37.3696 16.0256C36.8001 14.9091 36.0612 13.893 35.1668 12.9972C34.2724 12.1006 33.2579 11.3612 32.1433 10.7901L32.9021 10.03C33.6241 9.30685 34.57 8.94527 35.516 8.94527C35.8276 8.94527 36.1392 8.98438 36.4428 9.06334C36.4442 9.40573 36.5098 9.73853 36.638 10.0551C36.7721 10.3864 36.9688 10.6838 37.223 10.9376C37.4771 11.1922 37.7733 11.3893 38.1041 11.5236C38.4194 11.652 38.7531 11.7176 39.0942 11.7191C39.4103 12.9463 39.0883 14.304 38.1291 15.2655H38.1284Z" stroke="url(#paint4_linear_494_3195)" stroke-width="2" mask="url(#path-1-inside-1_494_3195)"/>
<path d="M40.4446 10.3938C40.0748 10.7642 39.59 10.9494 39.1053 10.9494C38.9984 10.9494 38.8916 10.9406 38.7863 10.9221C38.4128 10.8587 38.0547 10.6823 37.7659 10.3938C37.4771 10.1053 37.3018 9.74591 37.2384 9.37178C37.139 8.78587 37.315 8.16307 37.7667 7.71073C38.1365 7.34029 38.6212 7.15508 39.106 7.15508C39.5908 7.15508 40.0755 7.34029 40.4454 7.71073C41.185 8.4516 41.185 9.65293 40.4454 10.3938H40.4446Z" stroke="url(#paint5_linear_494_3195)" stroke-width="2" mask="url(#path-1-inside-1_494_3195)"/>
<path d="M37.8234 19.944C37.816 19.8908 37.8028 19.8399 37.7836 19.7927C37.6864 19.5455 37.4455 19.3787 37.1736 19.3787C37.1537 19.3787 37.1338 19.3795 37.1139 19.3817C37.0513 19.3876 36.9887 19.3898 36.9261 19.3898C36.4192 19.3898 35.9271 19.2075 35.5425 18.8806C35.3598 18.7257 35.2014 18.5375 35.0776 18.3205C35.0334 18.2431 34.9936 18.1619 34.9583 18.0778C34.8492 17.8136 34.7977 17.5398 34.7977 17.2697C34.7977 16.6403 35.0784 16.0323 35.5661 15.6264C35.79 15.4397 35.8608 15.1342 35.7561 14.8752C35.7355 14.8228 35.7068 14.7726 35.6722 14.7261C35.0364 13.8798 34.2842 13.1263 33.4392 12.4895C33.392 12.4541 33.3419 12.4261 33.2896 12.4047C33.2115 12.3729 33.1283 12.3574 33.0458 12.3574C32.8572 12.3574 32.67 12.4393 32.5404 12.595C32.1352 13.0835 31.5281 13.3647 30.8997 13.3647C30.8083 13.3647 30.717 13.3588 30.6256 13.347C30.5424 13.3359 30.4584 13.3197 30.3759 13.2983C30.2808 13.2739 30.1865 13.2422 30.093 13.2038C30.009 13.1691 29.928 13.1293 29.8506 13.0843C29.1809 12.6998 28.7831 11.9826 28.7831 11.2328C28.7831 11.1701 28.786 11.1074 28.7912 11.0447C28.8177 10.7488 28.6453 10.4787 28.3816 10.3739C28.3337 10.3547 28.2829 10.3414 28.2298 10.3341C27.7229 10.264 27.205 10.2278 26.679 10.2278C26.153 10.2278 25.6351 10.264 25.1282 10.3341C25.0752 10.3414 25.0243 10.3547 24.9764 10.3739C24.7127 10.4787 24.5403 10.7488 24.5668 11.0447C24.6398 11.8601 24.2338 12.6681 23.5082 13.0843C23.4308 13.1286 23.3498 13.1684 23.2658 13.2038C23.1722 13.2422 23.0779 13.2739 22.9829 13.2983C22.9438 13.3086 22.9041 13.3175 22.8643 13.3256C22.8201 13.3344 22.7766 13.3418 22.7324 13.347C22.641 13.3588 22.5497 13.3647 22.4583 13.3647C21.8299 13.3647 21.2229 13.0835 20.8177 12.595C20.688 12.4386 20.5009 12.3574 20.3123 12.3574C20.2298 12.3574 20.1472 12.3729 20.0691 12.4047C20.0168 12.4253 19.9667 12.4541 19.9196 12.4895C19.0746 13.1263 18.3224 13.8798 17.6866 14.7261C17.6512 14.7734 17.6232 14.8236 17.6026 14.8759C17.498 15.135 17.5687 15.4397 17.7927 15.6264C18.4889 16.2064 18.7637 17.1982 18.4005 18.0778C18.3658 18.1626 18.3261 18.2431 18.2811 18.3205C18.1574 18.5368 17.999 18.7249 17.8163 18.8799C17.7485 18.9374 17.677 18.9906 17.6026 19.0393C17.2571 19.2651 16.8497 19.389 16.4327 19.389C16.3701 19.389 16.3074 19.3861 16.2448 19.3809C16.2249 19.3795 16.205 19.378 16.1852 19.378C15.9133 19.378 15.6724 19.5448 15.5751 19.7912C15.556 19.8392 15.5427 19.8901 15.5354 19.9432C15.4654 20.4509 15.4293 20.9697 15.4293 21.4965C15.4293 22.0234 15.4654 22.5422 15.5354 23.0499C15.5427 23.103 15.556 23.1539 15.5751 23.2011C15.6724 23.4483 15.9133 23.6144 16.1852 23.6144C16.205 23.6144 16.2249 23.6136 16.2448 23.6114C16.3074 23.6055 16.3701 23.6033 16.4327 23.6033C17.2667 23.6033 18.0623 24.0984 18.3997 24.9153C18.7637 25.7949 18.4881 26.7867 17.7919 27.3667C17.568 27.5534 17.4973 27.8589 17.6019 28.1171C17.6225 28.1695 17.6505 28.2197 17.6859 28.2669C18.3216 29.1133 19.0738 29.8667 19.9189 30.5036C19.966 30.539 20.0161 30.567 20.0684 30.5884C20.1465 30.6202 20.229 30.6357 20.3115 30.6357C20.5001 30.6357 20.6873 30.5537 20.8169 30.398C21.2221 29.9095 21.8292 29.6284 22.4576 29.6284C22.7272 29.6284 23.0006 29.6801 23.2643 29.7893C24.141 30.1531 24.6464 31.0459 24.5654 31.9477C24.5388 32.2436 24.7112 32.5137 24.975 32.6184C25.0229 32.6376 25.0737 32.6509 25.1267 32.6583C25.6336 32.7284 26.1515 32.7646 26.6775 32.7646C27.2036 32.7646 27.7215 32.7284 28.2283 32.6583C28.2814 32.6509 28.3322 32.6376 28.3801 32.6184C28.6438 32.5137 28.8162 32.2436 28.7897 31.9477C28.7094 31.0459 29.2148 30.1523 30.0908 29.7893C30.3538 29.6801 30.6278 29.6284 30.8975 29.6284C31.5259 29.6284 32.133 29.9095 32.5382 30.398C32.6678 30.5545 32.8549 30.6357 33.0435 30.6357C33.1261 30.6357 33.2086 30.6202 33.2874 30.5884C33.3397 30.5678 33.3898 30.539 33.437 30.5036C34.282 29.8667 35.0342 29.1133 35.67 28.2669C35.7053 28.2197 35.7333 28.1695 35.7539 28.1179C35.8586 27.8589 35.7878 27.5541 35.5639 27.3667C34.8677 26.7867 34.5929 25.7949 34.9561 24.9153C35.2942 24.0984 36.0891 23.6033 36.9231 23.6033C36.9857 23.6033 37.0484 23.6062 37.111 23.6114C37.1309 23.6129 37.1508 23.6144 37.1707 23.6144C37.4425 23.6144 37.6834 23.4476 37.7807 23.2004C37.7991 23.1524 37.8131 23.1023 37.8204 23.0491C37.8904 22.5414 37.9265 22.0227 37.9265 21.4958C37.9265 20.9689 37.8904 20.4502 37.8204 19.9425L37.8234 19.944ZM26.6797 26.3978C23.9819 26.3978 21.7872 24.1995 21.7872 21.4973C21.7872 18.795 23.9819 16.5968 26.6797 16.5968C29.3776 16.5968 31.5723 18.795 31.5723 21.4973C31.5723 24.1995 29.3776 26.3978 26.6797 26.3978Z" stroke="url(#paint6_linear_494_3195)" stroke-width="2" mask="url(#path-1-inside-1_494_3195)"/>
<path d="M6 43.3116H5.5C5.5 43.5878 5.72386 43.8116 6 43.8116V43.3116ZM6 31.3179V30.8179C5.72386 30.8179 5.5 31.0417 5.5 31.3179H6ZM27.9183 38.5974C27.6571 38.6869 27.5178 38.9712 27.6073 39.2324C27.6967 39.4937 27.981 39.633 28.2423 39.5435L27.9183 38.5974ZM36.3007 36.256L36.4627 36.7291L36.4698 36.7265L36.3007 36.256ZM38.6595 37.0548L38.22 37.2933L38.2201 37.2933L38.6595 37.0548ZM37.7129 39.7921L37.5278 39.3276C37.5225 39.3297 37.5173 39.3319 37.5121 39.3342L37.7129 39.7921ZM25.2131 45.274L25.0122 44.816L25.0067 44.8185L25.2131 45.274ZM17.9138 44.8608L18.1704 44.4316L18.1703 44.4316L17.9138 44.8608ZM14.4151 42.7699L14.6716 42.3407L14.6716 42.3407L14.4151 42.7699ZM16.6481 32.6505L16.6481 32.1505L16.6481 32.1505L16.6481 32.6505ZM18.6163 33.1642L18.3716 33.6003L18.3719 33.6005L18.6163 33.1642ZM22.1511 35.1445L22.3958 34.7085L22.3955 34.7083L22.1511 35.1445ZM28.1278 39.0545L27.8823 38.6189L27.8813 38.6195L28.1278 39.0545ZM20.3389 38.8137C20.0627 38.8137 19.8389 39.0376 19.8389 39.3137C19.8389 39.5899 20.0627 39.8137 20.3389 39.8137V38.8137ZM8.67591 33.8169C8.77092 33.8169 8.84489 33.8934 8.84489 33.9832H9.84489C9.84489 33.3374 9.31945 32.8169 8.67591 32.8169V33.8169ZM8.84489 33.9832C8.84489 34.073 8.77092 34.1495 8.67591 34.1495V35.1495C9.31945 35.1495 9.84489 34.629 9.84489 33.9832H8.84489ZM8.67591 34.1495C8.5809 34.1495 8.50693 34.073 8.50693 33.9832H7.50693C7.50693 34.629 8.03237 35.1495 8.67591 35.1495V34.1495ZM8.50693 33.9832C8.50693 33.8934 8.5809 33.8169 8.67591 33.8169V32.8169C8.03237 32.8169 7.50693 33.3374 7.50693 33.9832H8.50693ZM10.8518 41.9816C10.8506 42.4385 10.4781 42.8116 10.0139 42.8116V43.8116C11.0255 43.8116 11.8491 42.9962 11.8518 41.9844L10.8518 41.9816ZM10.0139 42.8116H6V43.8116H10.0139V42.8116ZM6.5 43.3116V31.3179H5.5V43.3116H6.5ZM6 31.8179H10.0139V30.8179H6V31.8179ZM10.0139 31.8179C10.4788 31.8179 10.8518 32.1923 10.8518 32.6505H11.8518C11.8518 31.6363 11.0274 30.8179 10.0139 30.8179V31.8179ZM10.8518 32.6505V41.983H11.8518V32.6505H10.8518ZM28.2423 39.5435L36.4627 36.729L36.1387 35.783L27.9183 38.5974L28.2423 39.5435ZM36.4698 36.7265C37.1589 36.4789 37.9161 36.7331 38.22 37.2933L39.099 36.8164C38.5172 35.7442 37.1966 35.4027 36.1316 35.7855L36.4698 36.7265ZM38.2201 37.2933C38.6743 38.1304 38.2796 39.0281 37.5278 39.3276L37.898 40.2566C39.1893 39.742 39.8475 38.1956 39.099 36.8164L38.2201 37.2933ZM37.5121 39.3342L25.0122 44.8161L25.4139 45.7319L37.9137 40.25L37.5121 39.3342ZM25.0067 44.8185C24.0493 45.2523 23.0098 45.4769 21.9585 45.4769V46.4769C23.1522 46.4769 24.3324 46.2219 25.4194 45.7294L25.0067 44.8185ZM21.9585 45.4769C20.6238 45.4769 19.3143 45.1155 18.1704 44.4316L17.6573 45.2899C18.9565 46.0667 20.4433 46.4769 21.9585 46.4769V45.4769ZM18.1703 44.4316L14.6716 42.3407L14.1586 43.1991L17.6574 45.29L18.1703 44.4316ZM14.6716 42.3407C13.7649 41.799 12.3544 41.519 11.37 41.4833L11.3337 42.4827C12.2264 42.515 13.4503 42.7759 14.1586 43.1992L14.6716 42.3407ZM11.3518 33.1505L16.6481 33.1505L16.6481 32.1505L11.3518 32.1505L11.3518 33.1505ZM16.6481 33.1505C17.2525 33.1505 17.8458 33.3052 18.3716 33.6003L18.861 32.7282C18.1852 32.3489 17.4232 32.1505 16.6481 32.1505V33.1505ZM18.3719 33.6005L21.9068 35.5808L22.3955 34.7083L18.8606 32.728L18.3719 33.6005ZM21.9065 35.5806C22.1823 35.7353 22.492 35.8158 22.8074 35.8158V34.8158C22.6625 34.8158 22.5214 34.779 22.3958 34.7085L21.9065 35.5806ZM22.8074 35.8158H27.1397V34.8158H22.8074V35.8158ZM27.1397 35.8158C27.9739 35.8158 28.6466 36.4887 28.6466 37.3147H29.6466C29.6466 35.9326 28.5225 34.8158 27.1397 34.8158V35.8158ZM28.6466 37.3147C28.6466 37.8728 28.3407 38.3606 27.8823 38.6189L28.3733 39.4901C29.1325 39.0622 29.6466 38.2492 29.6466 37.3147H28.6466ZM27.8813 38.6195C27.6632 38.7431 27.4107 38.8137 27.1397 38.8137V39.8137C27.5872 39.8137 28.009 39.6965 28.3743 39.4895L27.8813 38.6195ZM27.1397 38.8137H20.3389V39.8137H27.1397V38.8137Z" fill="url(#paint7_linear_494_3195)"/>
<defs>
<linearGradient id="paint0_linear_494_3195" x1="42.4425" y1="0.0263078" x2="31.9804" y2="30.3758" gradientUnits="userSpaceOnUse">
<stop stop-color="#0FA6FC"/>
<stop offset="0.953125" stop-color="#D048FC"/>
</linearGradient>
<linearGradient id="paint1_linear_494_3195" x1="42.4425" y1="0.0263078" x2="31.9804" y2="30.3758" gradientUnits="userSpaceOnUse">
<stop stop-color="#0FA6FC"/>
<stop offset="0.953125" stop-color="#D048FC"/>
</linearGradient>
<linearGradient id="paint2_linear_494_3195" x1="42.4425" y1="0.0263078" x2="31.9804" y2="30.3758" gradientUnits="userSpaceOnUse">
<stop stop-color="#0FA6FC"/>
<stop offset="0.953125" stop-color="#D048FC"/>
</linearGradient>
<linearGradient id="paint3_linear_494_3195" x1="42.4425" y1="0.0263078" x2="31.9804" y2="30.3758" gradientUnits="userSpaceOnUse">
<stop stop-color="#0FA6FC"/>
<stop offset="0.953125" stop-color="#D048FC"/>
</linearGradient>
<linearGradient id="paint4_linear_494_3195" x1="42.4425" y1="0.0263078" x2="31.9804" y2="30.3758" gradientUnits="userSpaceOnUse">
<stop stop-color="#0FA6FC"/>
<stop offset="0.953125" stop-color="#D048FC"/>
</linearGradient>
<linearGradient id="paint5_linear_494_3195" x1="42.4425" y1="0.0263078" x2="31.9804" y2="30.3758" gradientUnits="userSpaceOnUse">
<stop stop-color="#0FA6FC"/>
<stop offset="0.953125" stop-color="#D048FC"/>
</linearGradient>
<linearGradient id="paint6_linear_494_3195" x1="42.4425" y1="0.0263078" x2="31.9804" y2="30.3758" gradientUnits="userSpaceOnUse">
<stop stop-color="#0FA6FC"/>
<stop offset="0.953125" stop-color="#D048FC"/>
</linearGradient>
<linearGradient id="paint7_linear_494_3195" x1="40.5713" y1="30.3774" x2="38.3052" y2="46.2332" gradientUnits="userSpaceOnUse">
<stop stop-color="#0FA6FC"/>
<stop offset="0.953125" stop-color="#D048FC"/>
</linearGradient>
</defs>
</svg>
