<svg width="30" height="30" viewBox="0 0 30 30" fill="none" xmlns="http://www.w3.org/2000/svg">
<circle cx="15" cy="15" r="14.5" fill="#1589FF" stroke="white"/>
<path d="M16.2237 16.6672C16.0441 16.4871 15.858 16.3272 15.6714 16.1918C15.4886 16.0584 15.2329 16.0993 15.1003 16.2818C15.0471 16.3546 15.0291 16.4389 15.0291 16.5227C15.0291 16.6492 15.0803 16.7735 15.1903 16.8533C15.3421 16.9642 15.4951 17.0959 15.6449 17.2456C16.4803 18.081 16.9405 19.193 16.9405 20.3762V20.5238C16.9405 20.7497 16.7572 20.933 16.5314 20.933H8.49686C8.27144 20.933 8.08775 20.7497 8.08775 20.5238V20.3766C8.08775 18.977 8.7276 17.6916 9.84366 16.8492C9.95003 16.769 9.99953 16.6467 9.99953 16.5227C9.99953 16.4368 9.97989 16.3501 9.92384 16.2765C9.78761 16.096 9.53151 16.0604 9.35068 16.1963C8.02843 17.1941 7.26953 18.7176 7.26953 20.3766V20.5238C7.26953 21.2005 7.82019 21.7512 8.49686 21.7512H16.5318C17.2085 21.7512 17.7591 21.2005 17.7591 20.5238V20.3766C17.7591 18.9745 17.2138 17.6572 16.2237 16.6672Z" fill="white"/>
<path d="M14.076 16.5235C15.1152 15.9647 15.8234 14.8671 15.8234 13.607C15.8234 11.7815 14.3383 10.2969 12.5132 10.2969C10.6882 10.2969 9.20312 11.7815 9.20312 13.607C9.20312 14.8675 9.9113 15.9647 10.9504 16.5235C11.8685 17.0431 13.1576 17.0431 14.076 16.5235ZM12.5132 11.1151C13.887 11.1151 15.0051 12.2328 15.0051 13.607C15.0051 14.9812 13.887 16.0989 12.5132 16.0989C11.1394 16.0989 10.0213 14.9812 10.0213 13.607C10.0213 12.2328 11.1394 11.1151 12.5132 11.1151Z" fill="white"/>
<path d="M19.4915 9.60209C19.4921 9.44971 19.5374 9.29751 19.6719 9.19644C19.8515 8.99395 20.1643 9.04594 20.2976 9.24962C21.9432 11.5415 21.9308 14.7922 20.2678 17.0715C20.0882 17.274 19.8197 17.3238 19.6417 17.1199C19.4636 16.9161 19.42 16.6112 19.5997 16.4087C20.9929 14.5347 21.0033 11.7919 19.6245 9.90735C19.4905 9.85605 19.4911 9.70367 19.4915 9.60209Z" fill="white"/>
<path d="M21.0946 18.3709C21.0949 18.2721 21.1426 18.1243 21.2373 18.0259C23.605 15.2216 23.621 11.0264 21.2746 8.25354C21.0867 8.0554 21.135 7.75945 21.3243 7.56275C21.5136 7.36604 21.7963 7.41648 21.9841 7.61462C24.659 10.7836 24.6408 15.5711 21.9418 18.7196C21.7525 18.9163 21.4694 18.9646 21.2816 18.7664C21.1408 18.6178 21.094 18.5189 21.0946 18.3709Z" fill="white"/>
<path d="M17.4264 14.7156C17.4267 14.6147 17.4803 14.514 17.5339 14.4133C18.1758 13.5582 18.1804 12.3476 17.5451 11.4876C17.3864 11.2348 17.4408 10.9323 17.6542 10.7818C17.9209 10.6315 18.24 10.6831 18.3989 10.8855C19.299 12.0996 19.2926 13.7642 18.3833 14.9714C18.2227 15.223 17.9032 15.2723 17.6379 15.0695C17.4784 15.0184 17.4258 14.8669 17.4264 14.7156Z" fill="white"/>
</svg>
