<svg width="20" height="24" viewBox="0 0 20 24" fill="none" xmlns="http://www.w3.org/2000/svg">
<path d="M11.7972 22.5618V20.5011C11.7972 20.3807 11.7494 20.2653 11.6643 20.1801L10.7827 19.2985C10.6975 19.2134 10.6497 19.0979 10.6497 18.9775V18.4177C10.6497 18.1671 10.4465 17.9639 10.1959 17.9639H9.55376C9.43338 17.9639 9.31794 18.0117 9.23283 18.0968L8.07977 19.2498C7.99466 19.335 7.87922 19.3828 7.75884 19.3828H5.95125C5.83087 19.3828 5.71543 19.335 5.63032 19.2498L5.48926 19.1088" stroke="#01142B" stroke-miterlimit="10" stroke-linecap="round" stroke-linejoin="round"/>
<path d="M4.48326 18.1062L4.3332 17.9561C4.24809 17.871 4.20028 17.7555 4.20028 17.6352V15.8301C4.20028 15.7098 4.24809 15.5943 4.3332 15.5092L5.09194 14.7505C5.17705 14.6654 5.29249 14.6175 5.41287 14.6175H7.23158C7.35196 14.6175 7.4674 14.5697 7.55251 14.4846L8.50717 13.53C8.59229 13.4448 8.6401 13.3294 8.6401 13.209V11.5444C8.6401 11.4241 8.59229 11.3086 8.50717 11.2235L7.59055 10.3069C7.50544 10.2218 7.38999 10.174 7.26962 10.174H6.46575C6.34537 10.174 6.22993 10.2218 6.14482 10.3069L5.35779 11.0939C5.27267 11.179 5.15723 11.2268 5.03685 11.2268H4.30547C4.18509 11.2268 4.06965 11.179 3.98453 11.0939L2.63867 9.74805" stroke="#01142B" stroke-miterlimit="10" stroke-linecap="round" stroke-linejoin="round"/>
<path d="M18.3843 15.9438H16.3111C16.1907 15.9438 16.0752 15.896 15.9901 15.8109L15.0101 14.8309C14.925 14.7458 14.8096 14.698 14.6892 14.698H13.8556C13.605 14.698 13.4018 14.4948 13.4018 14.2441V13.2794C13.4018 13.159 13.354 13.0436 13.2689 12.9585L12.5675 12.2572C12.4824 12.1721 12.367 12.1242 12.2466 12.1242H11.6538C11.1525 12.1242 10.7461 11.7179 10.7461 11.2165V9.88296C10.7461 9.6323 10.9493 9.4291 11.2 9.4291H12.0335C12.1539 9.4291 12.2693 9.38129 12.3544 9.29618L12.9738 8.67682C13.0589 8.5917 13.1743 8.54389 13.2947 8.54389H13.9325C14.0529 8.54389 14.1683 8.49608 14.2534 8.41097L15.2601 7.4043" stroke="#01142B" stroke-miterlimit="10" stroke-linecap="round" stroke-linejoin="round"/>
<path d="M1.41992 14.5981C1.64038 19.1405 5.39278 22.7556 9.98975 22.7556C11.9847 22.7556 13.8206 22.0746 15.2779 20.9326" stroke="#01142B" stroke-miterlimit="10" stroke-linecap="round" stroke-linejoin="round"/>
<path d="M7.89193 5.85059C4.48115 6.70828 1.88185 9.60822 1.46875 13.1745" stroke="#01142B" stroke-miterlimit="10" stroke-linecap="round" stroke-linejoin="round"/>
<path d="M16.3187 19.9631C17.7156 18.4369 18.5681 16.4041 18.5681 14.1721C18.5681 10.1285 15.7711 6.73832 12.0063 5.83057" stroke="#01142B" stroke-miterlimit="10" stroke-linecap="round" stroke-linejoin="round"/>
<path d="M13.8945 6.53563C15.7337 5.67128 17.2215 5.50058 17.9462 6.2253C19.4481 7.72719 17.1045 12.5058 12.7116 16.8986C8.31877 21.2915 3.54019 23.6351 2.0383 22.1332C1.32111 21.416 1.48081 19.9516 2.32181 18.1388" stroke="#01142B" stroke-miterlimit="10" stroke-linecap="round" stroke-linejoin="round"/>
<path d="M12.6429 3.90858C12.6429 5.33224 11.1967 7.13282 10.4417 7.9758C10.203 8.24226 9.78609 8.24226 9.54741 7.9758C8.7924 7.13282 7.34619 5.33224 7.34619 3.90858C7.34619 2.44593 8.53187 1.26025 9.99452 1.26025C11.4572 1.26025 12.6429 2.44593 12.6429 3.90858Z" stroke="#01142B" stroke-miterlimit="10" stroke-linecap="round" stroke-linejoin="round"/>
<path d="M9.99542 5.0338C10.6182 5.0338 11.1232 4.52889 11.1232 3.90606C11.1232 3.28323 10.6182 2.77832 9.99542 2.77832C9.37258 2.77832 8.86768 3.28323 8.86768 3.90606C8.86768 4.52889 9.37258 5.0338 9.99542 5.0338Z" stroke="#01142B" stroke-miterlimit="10" stroke-linecap="round" stroke-linejoin="round"/>
</svg>
