<svg width="176" height="42" viewBox="0 0 176 42" fill="none" xmlns="http://www.w3.org/2000/svg">
<path d="M58.749 18.3466V14.7435H61.0652C61.0652 20.81 61.0652 26.8396 61.0652 32.9061H58.7857V29.303C57.2048 31.9869 54.3003 33.2737 51.5796 33.2737C46.4323 33.2737 42.3145 29.5971 42.3145 23.8248C42.3145 18.0893 46.469 14.4862 51.6163 14.4862C54.4106 14.4862 57.3886 15.773 58.749 18.3466ZM51.6898 16.7289C47.8662 16.7289 44.7778 19.5599 44.7778 23.8248C44.7778 28.1264 47.8662 30.9574 51.6898 30.9574C61.0652 30.9574 61.0652 16.7289 51.6898 16.7289Z" fill="#0365C8"/>
<path d="M66.0577 7.16968H68.4843V17.9054C69.9917 15.4421 72.3815 14.5229 74.8081 14.4862C79.8818 14.4862 82.3819 17.8319 82.3819 22.7218V32.9061H79.9186V22.7218C79.9186 19.0819 78.1538 16.8392 74.5139 16.8392C70.9844 16.8392 68.521 19.5967 68.521 23.1262V32.9061H66.0577V7.16968Z" fill="#0365C8"/>
<path d="M102.41 18.3466V14.7435H104.727C104.727 20.81 104.727 26.8396 104.727 32.9061H102.447V29.303C100.866 31.9869 97.9616 33.2737 95.2409 33.2737C90.0936 33.2737 85.9758 29.5971 85.9758 23.8248C85.9758 18.0893 90.1304 14.4862 95.2777 14.4862C98.0719 14.4862 101.05 15.773 102.41 18.3466ZM95.3512 16.7289C91.5275 16.7289 88.4392 19.5599 88.4392 23.8248C88.4392 28.1264 91.5275 30.9574 95.3512 30.9574C104.727 30.9574 104.727 16.7289 95.3512 16.7289Z" fill="#0365C8"/>
<path d="M124.977 18.3466V14.7435H127.293C127.293 20.81 127.293 26.8396 127.293 32.9061H125.014V29.303C123.433 31.9869 120.528 33.2737 117.808 33.2737C112.66 33.2737 108.543 29.5971 108.543 23.8248C108.543 18.0893 112.697 14.4862 117.844 14.4862C120.639 14.4862 123.617 15.773 124.977 18.3466ZM117.918 16.7289C114.094 16.7289 111.006 19.5599 111.006 23.8248C111.006 28.1264 114.094 30.9574 117.918 30.9574C127.293 30.9574 127.293 16.7289 117.918 16.7289Z" fill="#0365C8"/>
<path d="M145.632 14.7435H148.353L136.845 41.5829H134.161L137.985 32.6855L130.705 14.7435H133.462L137.323 24.7807L139.345 30.0015L141.404 24.7807L145.632 14.7435Z" fill="#0365C8"/>
<path d="M165.946 18.3466V14.7435H168.262C168.262 20.81 168.262 26.8396 168.262 32.9061H165.982V29.303C164.401 31.9869 161.497 33.2737 158.776 33.2737C153.629 33.2737 149.511 29.5971 149.511 23.8248C149.511 18.0893 153.666 14.4862 158.813 14.4862C161.607 14.4862 164.585 15.773 165.946 18.3466ZM158.886 16.7289C155.063 16.7289 151.974 19.5599 151.974 23.8248C151.974 28.1264 155.063 30.9574 158.886 30.9574C168.262 30.9574 168.262 16.7289 158.886 16.7289Z" fill="#0365C8"/>
<path d="M4.88477 2.98926V11.9185L14.2219 18.9277L20.0171 14.2084L4.88477 2.98926Z" fill="#0365C8"/>
<path d="M15.4121 19.8468L21.7585 24.5965L29.7818 18.3836L29.4843 34.6222H35.7974V3.02173L15.4121 19.8468Z" fill="url(#paint0_linear_2096_2063)"/>
<path d="M4.89062 13.8262L13.881 20.5953V34.6074H4.89062V13.8262Z" fill="#0365C8"/>
<defs>
<linearGradient id="paint0_linear_2096_2063" x1="36.8241" y1="0.994405" x2="22.9156" y2="28.9544" gradientUnits="userSpaceOnUse">
<stop stop-color="#0FA6FC"/>
<stop offset="0.953125" stop-color="#D048FC"/>
</linearGradient>
</defs>
</svg>
