<svg width="184" height="44" viewBox="0 0 184 44" fill="none" xmlns="http://www.w3.org/2000/svg">
<path d="M72.2357 15.2399L64.649 25.8135H64.1113L56.5246 15.1801V32.3846H53.9559V11.4764H57.0623L64.41 22.2292L71.6981 11.4764H74.8044V32.3846H72.2357V15.2399ZM91.0552 32.3846L90.9955 32.4444L90.9358 29.7562C89.7709 31.7873 87.5307 32.7431 85.4996 32.7431C81.2582 32.7431 77.9428 29.8159 77.9428 25.007C77.9428 20.228 81.318 17.3606 85.5295 17.3904C87.7398 17.3904 89.9202 18.406 90.9955 20.3176L91.0254 17.6294H93.4149V32.3846H91.0552ZM85.649 19.6903L85.6191 19.7202C82.6919 19.7202 80.3323 21.811 80.3323 25.0966C80.3323 28.3822 82.6919 30.5029 85.6191 30.5029C92.7279 30.5029 92.7279 19.6903 85.649 19.6903ZM99.7088 11.4764V11.5062V20.0786C100.963 18.1372 102.935 17.48 104.816 17.4502C108.968 17.4502 110.999 20.1981 110.999 24.2603V32.3846H108.58V24.2902C108.58 21.3929 107.086 19.7501 104.398 19.7501C101.71 19.7501 99.7387 21.8708 99.7387 24.559V32.3846H97.2894V11.4764H99.7088ZM126.847 32.3846L126.787 32.4444L126.727 29.7562C125.562 31.7873 123.322 32.7431 121.291 32.7431C117.05 32.7431 113.734 29.8159 113.734 25.007C113.734 20.228 117.109 17.3606 121.321 17.3904C123.531 17.3904 125.712 18.406 126.787 20.3176L126.817 17.6294H129.206V32.3846H126.847ZM121.44 19.6903L121.41 19.7202C118.483 19.7202 116.124 21.811 116.124 25.0966C116.124 28.3822 118.483 30.5029 121.41 30.5029C128.519 30.5029 128.519 19.6903 121.44 19.6903ZM145.267 32.3846L145.208 32.4444L145.148 29.7562C143.983 31.7873 141.743 32.7431 139.712 32.7431C135.47 32.7431 132.155 29.8159 132.155 25.007C132.155 20.228 135.53 17.3606 139.742 17.3904C141.952 17.3904 144.132 18.406 145.208 20.3176L145.238 17.6294H147.627V32.3846H145.267ZM139.861 19.6903L139.831 19.7202C136.904 19.7202 134.544 21.811 134.544 25.0966C134.544 28.3822 136.904 30.5029 139.831 30.5029C146.94 30.5029 146.94 19.6903 139.861 19.6903ZM164.972 17.6294L155.653 39.3441H153.025L156.101 32.1756L150.157 17.6294H152.935L155.833 25.3057L157.446 29.5172L159.029 25.3356L162.284 17.6294H164.972ZM178.871 32.3846L178.811 32.4444L178.752 29.7562C177.587 31.7873 175.347 32.7431 173.315 32.7431C169.074 32.7431 165.759 29.8159 165.759 25.007C165.759 20.228 169.134 17.3606 173.345 17.3904C175.556 17.3904 177.736 18.406 178.811 20.3176L178.841 17.6294H181.231V32.3846H178.871ZM173.465 19.6903L173.435 19.7202C170.508 19.7202 168.148 21.811 168.148 25.0966C168.148 28.3822 170.508 30.5029 173.435 30.5029C180.544 30.5029 180.544 19.6903 173.465 19.6903Z" fill="url(#paint0_linear_379_1894)"/>
<path d="M0 0.0983887V11.7156L11.6388 20.1185L20.3517 13.7855L0 0.0983887Z" fill="white"/>
<path d="M14.5864 22.2312L23.8568 28.9116L35.5705 20.4776L35.1454 43.6791H44.1655V0.09021L14.5864 22.2312Z" fill="url(#paint1_linear_379_1894)"/>
<path d="M0.00683594 15.4004L21.6666 30.9295L7.48818 43.6604H0.00683594V15.4004Z" fill="white"/>
<defs>
<linearGradient id="paint0_linear_379_1894" x1="176.811" y1="5.38493" x2="176.066" y2="38.7153" gradientUnits="userSpaceOnUse">
<stop stop-color="#0FA6FC"/>
<stop offset="1" stop-color="#D048FC"/>
</linearGradient>
<linearGradient id="paint1_linear_379_1894" x1="45.6553" y1="-2.70622" x2="27.0623" y2="36.612" gradientUnits="userSpaceOnUse">
<stop stop-color="#0FA6FC"/>
<stop offset="0.953125" stop-color="#D048FC"/>
</linearGradient>
</defs>
</svg>
