<svg width="176" height="43" viewBox="0 0 176 43" fill="none" xmlns="http://www.w3.org/2000/svg">
<path d="M58.749 18.9313V15.3282H61.0652C61.0652 21.3947 61.0652 27.4243 61.0652 33.4908H58.7857V29.8877C57.2048 32.5716 54.3003 33.8584 51.5796 33.8584C46.4323 33.8584 42.3145 30.1818 42.3145 24.4095C42.3145 18.674 46.469 15.0709 51.6163 15.0709C54.4106 15.0709 57.3886 16.3577 58.749 18.9313ZM51.6898 17.3136C47.8662 17.3136 44.7778 20.1446 44.7778 24.4095C44.7778 28.7112 47.8662 31.5422 51.6898 31.5422C61.0652 31.5422 61.0652 17.3136 51.6898 17.3136Z" fill="#0365C8"/>
<path d="M66.0577 7.75439H68.4843V18.4901C69.9917 16.0268 72.3815 15.1076 74.8081 15.0709C79.8818 15.0709 82.3819 18.4166 82.3819 23.3065V33.4908H79.9186V23.3065C79.9186 19.6667 78.1538 17.4239 74.5139 17.4239C70.9844 17.4239 68.521 20.1814 68.521 23.711V33.4908H66.0577V7.75439Z" fill="#0365C8"/>
<path d="M102.41 18.9313V15.3282H104.727C104.727 21.3947 104.727 27.4243 104.727 33.4908H102.447V29.8877C100.866 32.5716 97.9616 33.8584 95.2409 33.8584C90.0936 33.8584 85.9758 30.1818 85.9758 24.4095C85.9758 18.674 90.1304 15.0709 95.2777 15.0709C98.0719 15.0709 101.05 16.3577 102.41 18.9313ZM95.3512 17.3136C91.5275 17.3136 88.4392 20.1446 88.4392 24.4095C88.4392 28.7112 91.5275 31.5422 95.3512 31.5422C104.727 31.5422 104.727 17.3136 95.3512 17.3136Z" fill="#0365C8"/>
<path d="M124.977 18.9313V15.3282H127.293C127.293 21.3947 127.293 27.4243 127.293 33.4908H125.014V29.8877C123.433 32.5716 120.528 33.8584 117.808 33.8584C112.66 33.8584 108.543 30.1818 108.543 24.4095C108.543 18.674 112.697 15.0709 117.844 15.0709C120.639 15.0709 123.617 16.3577 124.977 18.9313ZM117.918 17.3136C114.094 17.3136 111.006 20.1446 111.006 24.4095C111.006 28.7112 114.094 31.5422 117.918 31.5422C127.293 31.5422 127.293 17.3136 117.918 17.3136Z" fill="#0365C8"/>
<path d="M145.632 15.3282H148.353L136.845 42.1676H134.161L137.985 33.2702L130.705 15.3282H133.462L137.323 25.3654L139.345 30.5862L141.404 25.3654L145.632 15.3282Z" fill="#0365C8"/>
<path d="M165.946 18.9313V15.3282H168.262C168.262 21.3947 168.262 27.4243 168.262 33.4908H165.982V29.8877C164.401 32.5716 161.497 33.8584 158.776 33.8584C153.629 33.8584 149.511 30.1818 149.511 24.4095C149.511 18.674 153.666 15.0709 158.813 15.0709C161.607 15.0709 164.585 16.3577 165.946 18.9313ZM158.886 17.3136C155.063 17.3136 151.974 20.1446 151.974 24.4095C151.974 28.7112 155.063 31.5422 158.886 31.5422C168.262 31.5422 168.262 17.3136 158.886 17.3136Z" fill="#0365C8"/>
<path d="M4.88574 3.57422V12.5034L14.2229 19.5127L20.0181 14.7934L4.88574 3.57422Z" fill="#0365C8"/>
<path d="M15.4121 20.4315L21.7585 25.1812L29.7818 18.9684L29.4843 35.207H35.7974V3.60645L15.4121 20.4315Z" fill="url(#paint0_linear_470_3533)"/>
<path d="M4.89062 14.4111L13.881 21.1803V35.1923H4.89062V14.4111Z" fill="#0365C8"/>
<defs>
<linearGradient id="paint0_linear_470_3533" x1="36.8241" y1="1.57912" x2="22.9156" y2="29.5391" gradientUnits="userSpaceOnUse">
<stop stop-color="#0FA6FC"/>
<stop offset="0.953125" stop-color="#D048FC"/>
</linearGradient>
</defs>
</svg>
