<svg width="192" height="47" viewBox="0 0 192 47" fill="none" xmlns="http://www.w3.org/2000/svg">
<path d="M65.4043 18.9799V15.1685H67.8544C67.8544 21.5856 67.8544 27.9637 67.8544 34.3807H65.4432V30.5694C63.7709 33.4084 60.6985 34.7696 57.8206 34.7696C52.3758 34.7696 48.02 30.8805 48.02 24.7746C48.02 18.7076 52.4147 14.8963 57.8595 14.8963C60.8152 14.8963 63.9653 16.2575 65.4043 18.9799ZM57.9372 17.2687C53.8926 17.2687 50.6257 20.2633 50.6257 24.7746C50.6257 29.3249 53.8926 32.3195 57.9372 32.3195C67.8544 32.3195 67.8544 17.2687 57.9372 17.2687Z" fill="url(#paint0_linear_399_4358)"/>
<path d="M73.1354 7.15698H75.7022V18.5132C77.2968 15.9075 79.8247 14.9352 82.3915 14.8963C87.7584 14.8963 90.403 18.4354 90.403 23.6079V34.3807H87.7973V23.6079C87.7973 19.7577 85.9306 17.3853 82.0804 17.3853C78.3468 17.3853 75.7411 20.3021 75.7411 24.0357V34.3807H73.1354V7.15698Z" fill="url(#paint1_linear_399_4358)"/>
<path d="M111.589 18.9799V15.1685H114.039C114.039 21.5856 114.039 27.9637 114.039 34.3807H111.628V30.5694C109.955 33.4084 106.883 34.7696 104.005 34.7696C98.5604 34.7696 94.2046 30.8805 94.2046 24.7746C94.2046 18.7076 98.5993 14.8963 104.044 14.8963C107 14.8963 110.15 16.2575 111.589 18.9799ZM104.122 17.2687C100.077 17.2687 96.8103 20.2633 96.8103 24.7746C96.8103 29.3249 100.077 32.3195 104.122 32.3195C114.039 32.3195 114.039 17.2687 104.122 17.2687Z" fill="url(#paint2_linear_399_4358)"/>
<path d="M135.46 18.9799V15.1685H137.91C137.91 21.5856 137.91 27.9637 137.91 34.3807H135.499V30.5694C133.826 33.4084 130.754 34.7696 127.876 34.7696C122.431 34.7696 118.076 30.8805 118.076 24.7746C118.076 18.7076 122.47 14.8963 127.915 14.8963C130.871 14.8963 134.021 16.2575 135.46 18.9799ZM127.993 17.2687C123.948 17.2687 120.681 20.2633 120.681 24.7746C120.681 29.3249 123.948 32.3195 127.993 32.3195C137.91 32.3195 137.91 17.2687 127.993 17.2687Z" fill="url(#paint3_linear_399_4358)"/>
<path d="M157.308 15.1685H160.186L148.013 43.559H145.174L149.219 34.1474L141.519 15.1685H144.435L148.519 25.7858L150.658 31.3083L152.836 25.7858L157.308 15.1685Z" fill="url(#paint4_linear_399_4358)"/>
<path d="M178.796 18.9799V15.1685H181.246C181.246 21.5856 181.246 27.9637 181.246 34.3807H178.835V30.5694C177.163 33.4084 174.09 34.7696 171.212 34.7696C165.767 34.7696 161.412 30.8805 161.412 24.7746C161.412 18.7076 165.806 14.8963 171.251 14.8963C174.207 14.8963 177.357 16.2575 178.796 18.9799ZM171.329 17.2687C167.284 17.2687 164.017 20.2633 164.017 24.7746C164.017 29.3249 167.284 32.3195 171.329 32.3195C181.246 32.3195 181.246 17.2687 171.329 17.2687Z" fill="url(#paint5_linear_399_4358)"/>
<path d="M10.7539 3.44092V12.5716L18.7855 18.3701L24.798 14L10.7539 3.44092Z" fill="#000825"/>
<path d="M20.8193 19.8281L27.3892 24.7436L35.2998 18.618L35.0064 34.6286H41.231V4.54932L20.8193 19.8281Z" fill="url(#paint6_linear_399_4358)"/>
<path d="M10.7588 15.114L25.8262 25.9644L14.7485 34.6153H10.7588V15.114Z" fill="#000825"/>
<defs>
<linearGradient id="paint0_linear_399_4358" x1="177.259" y1="-0.543277" x2="176.063" y2="42.5577" gradientUnits="userSpaceOnUse">
<stop stop-color="#0FA6FC"/>
<stop offset="1" stop-color="#D048FC"/>
</linearGradient>
<linearGradient id="paint1_linear_399_4358" x1="177.259" y1="-0.543277" x2="176.063" y2="42.5577" gradientUnits="userSpaceOnUse">
<stop stop-color="#0FA6FC"/>
<stop offset="1" stop-color="#D048FC"/>
</linearGradient>
<linearGradient id="paint2_linear_399_4358" x1="177.259" y1="-0.543277" x2="176.063" y2="42.5577" gradientUnits="userSpaceOnUse">
<stop stop-color="#0FA6FC"/>
<stop offset="1" stop-color="#D048FC"/>
</linearGradient>
<linearGradient id="paint3_linear_399_4358" x1="177.259" y1="-0.543277" x2="176.063" y2="42.5577" gradientUnits="userSpaceOnUse">
<stop stop-color="#0FA6FC"/>
<stop offset="1" stop-color="#D048FC"/>
</linearGradient>
<linearGradient id="paint4_linear_399_4358" x1="177.259" y1="-0.543277" x2="176.063" y2="42.5577" gradientUnits="userSpaceOnUse">
<stop stop-color="#0FA6FC"/>
<stop offset="1" stop-color="#D048FC"/>
</linearGradient>
<linearGradient id="paint5_linear_399_4358" x1="177.259" y1="-0.543277" x2="176.063" y2="42.5577" gradientUnits="userSpaceOnUse">
<stop stop-color="#0FA6FC"/>
<stop offset="1" stop-color="#D048FC"/>
</linearGradient>
<linearGradient id="paint6_linear_399_4358" x1="42.259" y1="2.61959" x2="29.4285" y2="29.7519" gradientUnits="userSpaceOnUse">
<stop stop-color="#0FA6FC"/>
<stop offset="0.953125" stop-color="#D048FC"/>
</linearGradient>
</defs>
</svg>
