<svg width="176" height="43" viewBox="0 0 176 43" fill="none" xmlns="http://www.w3.org/2000/svg">
<path d="M58.749 18.9316V15.3285H61.0652C61.0652 21.3949 61.0652 27.4246 61.0652 33.491H58.7857V29.8879C57.2048 32.5719 54.3003 33.8587 51.5796 33.8587C46.4323 33.8587 42.3145 30.1821 42.3145 24.4098C42.3145 18.6742 46.469 15.0711 51.6163 15.0711C54.4106 15.0711 57.3886 16.3579 58.749 18.9316ZM51.6898 17.3139C47.8662 17.3139 44.7778 20.1449 44.7778 24.4098C44.7778 28.7114 47.8662 31.5424 51.6898 31.5424C61.0652 31.5424 61.0652 17.3139 51.6898 17.3139Z" fill="#0365C8"/>
<path d="M66.0577 7.75464H68.4843V18.4904C69.9917 16.027 72.3815 15.1079 74.8081 15.0711C79.8818 15.0711 82.3819 18.4169 82.3819 23.3068V33.491H79.9186V23.3068C79.9186 19.6669 78.1538 17.4242 74.5139 17.4242C70.9844 17.4242 68.521 20.1816 68.521 23.7112V33.491H66.0577V7.75464Z" fill="#0365C8"/>
<path d="M102.41 18.9316V15.3285H104.727C104.727 21.3949 104.727 27.4246 104.727 33.491H102.447V29.8879C100.866 32.5719 97.9616 33.8587 95.2409 33.8587C90.0936 33.8587 85.9758 30.1821 85.9758 24.4098C85.9758 18.6742 90.1304 15.0711 95.2777 15.0711C98.0719 15.0711 101.05 16.3579 102.41 18.9316ZM95.3512 17.3139C91.5275 17.3139 88.4392 20.1449 88.4392 24.4098C88.4392 28.7114 91.5275 31.5424 95.3512 31.5424C104.727 31.5424 104.727 17.3139 95.3512 17.3139Z" fill="#0365C8"/>
<path d="M124.977 18.9316V15.3285H127.293C127.293 21.3949 127.293 27.4246 127.293 33.491H125.014V29.8879C123.433 32.5719 120.528 33.8587 117.808 33.8587C112.66 33.8587 108.543 30.1821 108.543 24.4098C108.543 18.6742 112.697 15.0711 117.844 15.0711C120.639 15.0711 123.617 16.3579 124.977 18.9316ZM117.918 17.3139C114.094 17.3139 111.006 20.1449 111.006 24.4098C111.006 28.7114 114.094 31.5424 117.918 31.5424C127.293 31.5424 127.293 17.3139 117.918 17.3139Z" fill="#0365C8"/>
<path d="M145.632 15.3285H148.353L136.845 42.1679H134.161L137.985 33.2704L130.705 15.3285H133.462L137.323 25.3657L139.345 30.5865L141.404 25.3657L145.632 15.3285Z" fill="#0365C8"/>
<path d="M165.946 18.9316V15.3285H168.262C168.262 21.3949 168.262 27.4246 168.262 33.491H165.982V29.8879C164.401 32.5719 161.497 33.8587 158.776 33.8587C153.629 33.8587 149.511 30.1821 149.511 24.4098C149.511 18.6742 153.666 15.0711 158.813 15.0711C161.607 15.0711 164.585 16.3579 165.946 18.9316ZM158.886 17.3139C155.063 17.3139 151.974 20.1449 151.974 24.4098C151.974 28.7114 155.063 31.5424 158.886 31.5424C168.262 31.5424 168.262 17.3139 158.886 17.3139Z" fill="#0365C8"/>
<path d="M4.88574 3.57422V12.5034L14.2229 19.5127L20.0181 14.7934L4.88574 3.57422Z" fill="#0365C8"/>
<path d="M15.4121 20.4318L21.7585 25.1815L29.7818 18.9686L29.4843 35.2072H35.7974V3.60669L15.4121 20.4318Z" fill="url(#paint0_linear_470_3521)"/>
<path d="M4.89062 14.4111L13.881 21.1803V35.1923H4.89062V14.4111Z" fill="#0365C8"/>
<defs>
<linearGradient id="paint0_linear_470_3521" x1="36.8241" y1="1.57937" x2="22.9156" y2="29.5393" gradientUnits="userSpaceOnUse">
<stop stop-color="#0FA6FC"/>
<stop offset="0.953125" stop-color="#D048FC"/>
</linearGradient>
</defs>
</svg>
