<svg width="240" height="73" viewBox="0 0 240 73" fill="none" xmlns="http://www.w3.org/2000/svg">
<path d="M80.3781 25.1007V20.1711H83.5472C83.5472 28.4709 83.5472 36.7205 83.5472 45.0203H80.4284V40.0907C78.2654 43.7628 74.2916 45.5234 70.5692 45.5234C63.5269 45.5234 57.8931 40.4932 57.8931 32.5957C57.8931 24.7486 63.5772 19.819 70.6195 19.819C74.4425 19.819 78.517 21.5795 80.3781 25.1007ZM70.7201 22.8874C65.4887 22.8874 61.2633 26.7607 61.2633 32.5957C61.2633 38.4811 65.4887 42.3543 70.7201 42.3543C83.5472 42.3543 83.5472 22.8874 70.7201 22.8874Z" fill="#0365C8"/>
<path d="M90.3777 9.80884H93.6976V24.4971C95.76 21.1268 99.0296 19.8693 102.35 19.819C109.291 19.819 112.712 24.3965 112.712 31.0866V45.0203H109.342V31.0866C109.342 26.1067 106.927 23.0383 101.947 23.0383C97.1181 23.0383 93.7479 26.811 93.7479 31.64V45.0203H90.3777V9.80884Z" fill="#0365C8"/>
<path d="M140.114 25.1007V20.1711H143.283C143.283 28.4709 143.283 36.7205 143.283 45.0203H140.164V40.0907C138.001 43.7628 134.027 45.5234 130.305 45.5234C123.263 45.5234 117.629 40.4932 117.629 32.5957C117.629 24.7486 123.313 19.819 130.355 19.819C134.178 19.819 138.253 21.5795 140.114 25.1007ZM130.456 22.8874C125.224 22.8874 120.999 26.7607 120.999 32.5957C120.999 38.4811 125.224 42.3543 130.456 42.3543C143.283 42.3543 143.283 22.8874 130.456 22.8874Z" fill="#0365C8"/>
<path d="M170.989 25.1007V20.1711H174.158C174.158 28.4709 174.158 36.7205 174.158 45.0203H171.039V40.0907C168.876 43.7628 164.902 45.5234 161.18 45.5234C154.138 45.5234 148.504 40.4932 148.504 32.5957C148.504 24.7486 154.188 19.819 161.23 19.819C165.053 19.819 169.128 21.5795 170.989 25.1007ZM161.331 22.8874C156.099 22.8874 151.874 26.7607 151.874 32.5957C151.874 38.4811 156.099 42.3543 161.331 42.3543C174.158 42.3543 174.158 22.8874 161.331 22.8874Z" fill="#0365C8"/>
<path d="M199.248 20.1711H202.97L187.226 56.8917H183.554L188.785 44.7185L178.825 20.1711H182.598L187.88 33.9036L190.646 41.0465L193.463 33.9036L199.248 20.1711Z" fill="#0365C8"/>
<path d="M227.04 25.1007V20.1711H230.209C230.209 28.4709 230.209 36.7205 230.209 45.0203H227.091V40.0907C224.928 43.7628 220.954 45.5234 217.231 45.5234C210.189 45.5234 204.555 40.4932 204.555 32.5957C204.555 24.7486 210.239 19.819 217.282 19.819C221.105 19.819 225.179 21.5795 227.04 25.1007ZM217.382 22.8874C212.151 22.8874 207.926 26.7607 207.926 32.5957C207.926 38.4811 212.151 42.3543 217.382 42.3543C230.209 42.3543 230.209 22.8874 217.382 22.8874Z" fill="#0365C8"/>
<path d="M6.68457 4.09058V16.3072L19.4593 25.897L27.3881 19.4402L6.68457 4.09058Z" fill="#0365C8"/>
<path d="M21.0869 27.1549L29.7698 33.6533L40.7469 25.1531L40.3399 47.3701H48.9773V4.1355L21.0869 27.1549Z" fill="url(#paint0_linear_1290_2006)"/>
<path d="M6.69238 18.9163L18.9926 28.1775V47.3483H6.69238V18.9163Z" fill="#0365C8"/>
<path d="M11.3726 60.1051H14.8238C16.2561 60.1051 17.4742 60.8156 17.4742 62.3157C17.4742 63.0375 17.0569 63.6465 16.3013 63.9398C17.2599 64.2104 17.7223 65.0902 17.7223 65.8233C17.7223 67.5037 16.3125 68 14.8238 68H11.3726V60.1051ZM12.3538 60.9961V63.4999H14.8689C15.8163 63.4999 16.5043 63.1503 16.5043 62.3269C16.5043 61.4472 15.7937 60.9961 14.8238 60.9961H12.3538ZM12.3538 64.3909V67.0752H14.8238C15.6471 67.0752 16.7411 66.8609 16.7411 65.7894C16.7298 64.7969 15.7261 64.3909 14.8689 64.3909H12.3538ZM23.4634 68H23.4747L23.4296 67.109C22.9333 67.7857 22.2679 68.0789 21.4897 68.0902C20.0686 68.0902 19.0648 67.1316 19.0648 65.5075V62.4284H19.9897V65.4962C19.9897 66.5676 20.6213 67.2331 21.6814 67.2331C22.6965 67.2218 23.3958 66.421 23.3958 65.4172V62.4284H24.3206V68H23.4634ZM25.8812 60.7254C25.8812 61.5374 27.0993 61.5374 27.0993 60.7367C27.0993 59.9246 25.8812 59.9246 25.8812 60.7254ZM26.0166 62.4059H26.9414V68H26.0166V62.4059ZM29.6305 60.1051V68H28.7056V60.1051H29.6305ZM36.8615 60.1051L36.8728 60.0938V67.9887H36.0044L35.9593 66.9737C35.5081 67.7406 34.6961 68.1015 33.8727 68.1015C32.2825 68.1015 31.0531 67.0526 31.0531 65.2142C31.0531 63.342 32.2825 62.3269 33.8615 62.3269C34.651 62.3269 35.5532 62.6878 35.948 63.4435V60.1051H36.8615ZM33.9291 63.1841H33.9404C32.8577 63.1841 31.978 63.8946 31.978 65.2029C31.978 66.4887 32.8577 67.2218 33.9404 67.2218C35.0457 67.2218 35.9141 66.4097 35.9141 65.1917C35.9141 63.9961 35.0344 63.1841 33.9291 63.1841ZM40.6868 62.4284H41.7131L43.2132 67.0188L44.6906 62.4284H45.4463L46.9238 67.0188L48.4238 62.4284H49.4389L47.4877 68.0113H46.4275L45.6719 65.936L45.0741 63.9059L44.4651 65.936L43.7094 68.0113H42.6605L40.6868 62.4284ZM50.5088 60.7254C50.5088 61.5374 51.7269 61.5374 51.7269 60.7367C51.7269 59.9246 50.5088 59.9246 50.5088 60.7254ZM50.6442 62.4059H51.569V68H50.6442V62.4059ZM54.8332 60.8043V62.4397H56.5588V63.2292H54.822V66.1729C54.822 66.827 55.0362 67.2443 55.7017 67.2443C55.9498 67.2443 56.2318 67.1654 56.4799 67.0413L56.7506 67.8083C56.3784 67.9774 56.04 68.0677 55.6678 68.0789C54.4723 68.1015 53.9084 67.4022 53.9084 66.1729V63.2292H52.7918V62.4397H53.9084V60.9058L54.8332 60.8043ZM58.6618 60.1051V60.1164V63.3533C59.1355 62.6202 59.8799 62.372 60.5904 62.3608C62.1581 62.3608 62.9251 63.3984 62.9251 64.9323V68H62.0115V64.9435C62.0115 63.8495 61.4476 63.2292 60.4325 63.2292C59.4175 63.2292 58.6731 64.03 58.6731 65.045V68H57.7483V60.1051H58.6618ZM74.5241 61.5262L71.6594 65.5187H71.4564L68.5916 61.5036V68H67.6217V60.1051H68.7946L71.5691 64.1653L74.3211 60.1051H75.494V68H74.5241V61.5262ZM77.2511 60.7254C77.2511 61.5374 78.4692 61.5374 78.4692 60.7367C78.4692 59.9246 77.2511 59.9246 77.2511 60.7254ZM77.3864 62.4059H78.3113V68H77.3864V62.4059ZM84.6545 67.2556L84.6433 67.2443C84.0455 67.8421 83.335 68.1015 82.568 68.1015C80.9778 68.1015 79.6582 67.0752 79.6582 65.2142C79.6582 63.3533 80.9552 62.3269 82.568 62.3269C83.3237 62.3269 84.0004 62.5863 84.5869 63.1615L84.0004 63.7706C83.6056 63.3871 83.0868 63.2067 82.5906 63.2067C81.4853 63.2067 80.5943 63.9623 80.5943 65.2142C80.5943 66.5112 81.4966 67.2218 82.5793 67.2218C83.1094 67.2218 83.6395 67.0413 84.0342 66.6353L84.6545 67.2556ZM86.6804 62.4284L86.6917 62.4172L86.7594 63.2518C87.1428 62.5299 87.8308 62.3269 88.4737 62.3269C88.9587 62.3157 89.4324 62.4848 89.7707 62.7442L89.3534 63.5337C89.0602 63.3307 88.7669 63.2292 88.3835 63.2292C87.4925 63.2405 86.7481 63.8721 86.7481 64.8984V68H85.8233V62.4284H86.6804ZM90.1103 65.2255C90.1103 63.4999 91.3397 62.3044 92.9976 62.3044C94.7006 62.3044 95.8962 63.4999 95.8962 65.2255C95.8962 66.9173 94.6781 68.1015 92.9976 68.1015C91.3284 68.1015 90.1103 66.9173 90.1103 65.2255ZM94.9826 65.2255C94.9826 63.9849 94.1254 63.1503 93.0089 63.1503C91.8697 63.1503 91.0351 63.9849 91.0351 65.2255C91.0351 66.3985 91.8585 67.2331 92.9976 67.2331C94.148 67.2331 94.9713 66.3985 94.9826 65.2255ZM100.809 63.6578L100.798 63.6691C100.313 63.2292 99.8056 63.1277 99.2304 63.1277C98.4635 63.1164 97.8432 63.3871 97.8545 63.9398C97.8657 64.515 98.5425 64.6841 99.2417 64.7631C100.257 64.8871 101.61 65.0902 101.588 66.4661C101.565 67.5827 100.505 68.1353 99.253 68.1353C98.3169 68.1353 97.3921 67.8759 96.7605 67.0864L97.2905 66.4436C97.7868 67.0526 98.5876 67.3007 99.2756 67.3007C99.8846 67.3007 100.663 67.109 100.685 66.4323C100.697 65.8233 100.042 65.6428 99.1853 65.5413C98.1139 65.406 96.9635 65.124 96.9635 63.9398C96.9522 62.7555 98.1477 62.2931 99.2192 62.3044C100.054 62.3044 100.742 62.5074 101.34 63.0488L100.809 63.6578ZM102.49 65.2255C102.49 63.4999 103.72 62.3044 105.377 62.3044C107.081 62.3044 108.276 63.4999 108.276 65.2255C108.276 66.9173 107.058 68.1015 105.377 68.1015C103.708 68.1015 102.49 66.9173 102.49 65.2255ZM107.362 65.2255C107.362 63.9849 106.505 63.1503 105.389 63.1503C104.25 63.1503 103.415 63.9849 103.415 65.2255C103.415 66.3985 104.238 67.2331 105.377 67.2331C106.528 67.2331 107.351 66.3985 107.362 65.2255ZM110.124 68L110.135 68.0113V63.3082H109.041V62.4961H110.135V62.0563C110.135 60.7818 110.834 60.0374 112.007 60.0374C112.458 60.0374 112.887 60.184 113.27 60.4434L112.887 61.1314C112.582 60.951 112.346 60.8495 112.03 60.8495C111.432 60.8495 111.049 61.2216 111.049 62.0563V62.4961H112.797V63.3082H111.049V68H110.124ZM115.389 60.8043V62.4397H117.114V63.2292H115.378V66.1729C115.378 66.827 115.592 67.2443 116.257 67.2443C116.505 67.2443 116.787 67.1654 117.036 67.0413L117.306 67.8083C116.934 67.9774 116.596 68.0677 116.223 68.0789C115.028 68.1015 114.464 67.4022 114.464 66.1729V63.2292H113.347V62.4397H114.464V60.9058L115.389 60.8043ZM118.191 67.4925C118.191 66.6917 119.409 66.6917 119.409 67.5037C119.409 68.3045 118.191 68.3045 118.191 67.4925ZM123.336 60.1051H124.441L126.618 66.6353L128.806 60.1051H129.437L131.648 66.6353L133.802 60.1051H134.919L132.155 68.0113H131.174L129.122 62.1014L127.08 68.0113H126.088L123.336 60.1051ZM135.923 60.7254C135.923 61.5374 137.141 61.5374 137.141 60.7367C137.141 59.9246 135.923 59.9246 135.923 60.7254ZM136.059 62.4059H136.984V68H136.059V62.4059ZM138.68 62.4284V62.4172H139.526L139.571 63.3082C140.056 62.6427 140.733 62.3382 141.477 62.3382C142.887 62.3382 143.925 63.2856 143.925 64.921V68H143V64.9323C143 63.8608 142.368 63.1954 141.308 63.1954C140.293 63.2067 139.594 64.0074 139.594 65.0112V68H138.68V62.4284ZM147.667 62.4284H148.693L150.193 67.0188L151.671 62.4284H152.426L153.904 67.0188L155.404 62.4284H156.419L154.468 68.0113H153.408L152.652 65.936L152.054 63.9059L151.445 65.936L150.69 68.0113H149.641L147.667 62.4284ZM157.489 60.7254C157.489 61.5374 158.707 61.5374 158.707 60.7367C158.707 59.9246 157.489 59.9246 157.489 60.7254ZM157.624 62.4059H158.549V68H157.624V62.4059ZM161.813 60.8043V62.4397H163.539V63.2292H161.802V66.1729C161.802 66.827 162.016 67.2443 162.682 67.2443C162.93 67.2443 163.212 67.1654 163.46 67.0413L163.731 67.8083C163.359 67.9774 163.02 68.0677 162.648 68.0789C161.452 68.1015 160.889 67.4022 160.889 66.1729V63.2292H159.772V62.4397H160.889V60.9058L161.813 60.8043ZM165.642 60.1051V60.1164V63.3533C166.116 62.6202 166.86 62.372 167.571 62.3608C169.138 62.3608 169.905 63.3984 169.905 64.9323V68H168.992V64.9435C168.992 63.8495 168.428 63.2292 167.413 63.2292C166.398 63.2292 165.653 64.03 165.653 65.045V68H164.728V60.1051H165.642ZM181.504 61.5262L178.64 65.5187H178.437L175.572 61.5036V68H174.602V60.1051H175.775L178.549 64.1653L181.301 60.1051H182.474V68H181.504V61.5262ZM188.968 68L188.946 68.0226L188.923 67.0075C188.483 67.7744 187.637 68.1353 186.87 68.1353C185.269 68.1353 184.017 67.0301 184.017 65.2142C184.017 63.4097 185.291 62.3269 186.882 62.3382C187.716 62.3382 188.54 62.7217 188.946 63.4435L188.957 62.4284H189.859V68H188.968ZM186.927 63.2067L186.916 63.2179C185.81 63.2179 184.919 64.0074 184.919 65.2481C184.919 66.4887 185.81 67.2895 186.916 67.2895C189.6 67.2895 189.6 63.2067 186.927 63.2067ZM192.461 60.1051V60.1164V63.3533C192.935 62.6202 193.679 62.372 194.39 62.3608C195.958 62.3608 196.725 63.3984 196.725 64.9323V68H195.811V64.9435C195.811 63.8495 195.247 63.2292 194.232 63.2292C193.217 63.2292 192.473 64.03 192.473 65.045V68H191.548V60.1051H192.461ZM202.934 68L202.912 68.0226L202.889 67.0075C202.449 67.7744 201.603 68.1353 200.836 68.1353C199.235 68.1353 197.983 67.0301 197.983 65.2142C197.983 63.4097 199.257 62.3269 200.848 62.3382C201.682 62.3382 202.506 62.7217 202.912 63.4435L202.923 62.4284H203.825V68H202.934ZM200.893 63.2067L200.881 63.2179C199.776 63.2179 198.885 64.0074 198.885 65.2481C198.885 66.4887 199.776 67.2895 200.881 67.2895C203.566 67.2895 203.566 63.2067 200.893 63.2067ZM210.115 68L210.093 68.0226L210.07 67.0075C209.63 67.7744 208.784 68.1353 208.018 68.1353C206.416 68.1353 205.164 67.0301 205.164 65.2142C205.164 63.4097 206.439 62.3269 208.029 62.3382C208.863 62.3382 209.687 62.7217 210.093 63.4435L210.104 62.4284H211.006V68H210.115ZM208.074 63.2067L208.063 63.2179C206.957 63.2179 206.066 64.0074 206.066 65.2481C206.066 66.4887 206.957 67.2895 208.063 67.2895C210.747 67.2895 210.747 63.2067 208.074 63.2067ZM217.781 62.4284L214.263 70.6279H213.27L214.432 67.9211L212.187 62.4284H213.236L214.33 65.327L214.939 66.9173L215.537 65.3383L216.766 62.4284H217.781ZM223.255 68L223.233 68.0226L223.21 67.0075C222.77 67.7744 221.924 68.1353 221.157 68.1353C219.556 68.1353 218.304 67.0301 218.304 65.2142C218.304 63.4097 219.578 62.3269 221.169 62.3382C222.003 62.3382 222.827 62.7217 223.233 63.4435L223.244 62.4284H224.146V68H223.255ZM221.214 63.2067L221.202 63.2179C220.097 63.2179 219.206 64.0074 219.206 65.2481C219.206 66.4887 220.097 67.2895 221.202 67.2895C223.887 67.2895 223.887 63.2067 221.214 63.2067ZM225.722 67.4925C225.722 66.6917 226.94 66.6917 226.94 67.5037C226.94 68.3045 225.722 68.3045 225.722 67.4925Z" fill="#8110A6"/>
<defs>
<linearGradient id="paint0_linear_1290_2006" x1="50.382" y1="1.36179" x2="31.353" y2="39.6155" gradientUnits="userSpaceOnUse">
<stop stop-color="#0FA6FC"/>
<stop offset="0.953125" stop-color="#D048FC"/>
</linearGradient>
</defs>
</svg>
