<svg width="48" height="48" viewBox="0 0 48 48" fill="none" xmlns="http://www.w3.org/2000/svg">
<path d="M33.5299 36.5001L29.7731 34.2744M33.5299 36.5001C34.1578 36.8721 34.3652 37.6827 33.9932 38.3105C33.6213 38.9383 32.8108 39.1458 32.1829 38.7738L31.1922 38.1869M33.5299 36.5001L34.7423 37.2184C35.3701 37.5903 36.1806 37.3829 36.5525 36.7551C36.9244 36.1273 36.717 35.3169 36.0892 34.9449M31.1922 38.1869L28.4241 36.547M31.1922 38.1869C31.82 38.5589 32.0275 39.3694 31.6556 39.9972C31.2836 40.6251 30.4731 40.8325 29.8451 40.4605L28.3591 39.5802M28.3591 39.5802L27.2744 38.9376M28.3591 39.5802C28.9869 39.9521 29.1945 40.7627 28.8224 41.3905C28.4505 42.0183 27.64 42.2259 27.0121 41.8539L25.2218 40.7932M11.9878 15.2711H30.2629M11.9878 11.377H21.1253M11.9878 18.7215H30.2629M27.8737 5.15711V9.07463C27.8737 10.3462 28.9045 11.377 30.176 11.377H34.0936M34.2507 21.6593V12.0995C34.2507 11.6369 34.0669 11.1933 33.7399 10.8662L28.3846 5.51087C28.0574 5.18378 27.6138 5 27.1512 5H10.3023C9.03082 5 8 6.03075 8 7.30236V36.9589C8 38.2304 9.03082 39.2611 10.3023 39.2611H16.1508M26.5027 27.2776L26.3118 27.1647C25.2144 26.5349 24.7011 26.4185 23.711 26.8012L22.6319 27.2184C21.9752 27.4723 21.2383 27.411 20.6326 27.0522L19.9653 26.6587M15.831 33.5656L16.9492 34.2256M33.3143 26.9616L33.1587 27.0521C32.553 27.4109 31.8161 27.4723 31.1594 27.2184L29.9424 26.7402C29.5617 26.5907 29.1439 26.5643 28.7474 26.6647L26.8827 27.1365C26.0147 27.3562 25.4067 28.1373 25.4067 29.0327V31.5217C25.4067 31.8737 25.6919 32.1599 26.0438 32.1602C27.1051 32.1608 27.9656 31.3007 27.9656 30.2396V30.1342L35.947 34.8606C36.0948 34.7032 36.2644 34.567 36.4508 34.4565L37.5817 33.7958M18.2131 36.9652C17.7876 37.5578 16.9623 37.6934 16.3697 37.2679C15.777 36.8425 15.6415 36.0171 16.0669 35.4244L16.8152 34.3822C17.2407 33.7896 18.066 33.654 18.6587 34.0794C19.2514 34.5049 19.3868 35.3303 18.9614 35.9229M18.2131 36.9652C17.7876 37.5578 17.9231 38.3832 18.5158 38.8087C19.1084 39.2341 19.9338 39.0986 20.3592 38.5059M18.2131 36.9652L19.7871 34.7726C20.2127 34.18 21.0379 34.0445 21.6306 34.47C22.2233 34.8955 22.3588 35.7207 21.9333 36.3134M21.9333 36.3134L20.3592 38.5059M21.9333 36.3134C22.3588 35.7207 23.1841 35.5853 23.7767 36.0107C24.3694 36.4361 24.5049 37.2615 24.0795 37.8542L22.5054 40.0467C22.0799 40.6394 21.2546 40.7748 20.6619 40.3494C20.0693 39.9239 19.9338 39.0986 20.3592 38.5059M23.38 38.8284C23.8055 38.2358 24.6308 38.1003 25.2234 38.5257C25.8161 38.9512 25.9517 39.7765 25.5262 40.3691L25.0027 41.0983C24.5772 41.6909 23.752 41.8265 23.1593 41.401C22.5667 40.9756 22.4312 40.1501 22.8566 39.5575M19.2904 24.6293L18.1335 23.9439C17.8152 23.7553 17.4043 23.8605 17.2157 24.1788L12.4591 32.2078C12.2705 32.5262 12.3757 32.937 12.694 33.1256L13.851 33.811C14.627 34.2707 15.6287 34.0143 16.0885 33.2383L19.8631 26.8669C20.3229 26.0908 20.0665 25.0891 19.2904 24.6293ZM37.0327 33.2383C37.4926 34.0143 38.4944 34.2707 39.2704 33.811L40.4274 33.1256C40.7457 32.937 40.8508 32.5262 40.6622 32.2078L35.9056 24.1788C35.717 23.8605 35.3061 23.7553 34.9879 23.9439L33.8309 24.6294C33.0549 25.0891 32.7984 26.0909 33.2582 26.867L37.0327 33.2383Z" stroke="url(#paint0_linear_494_3098)" stroke-width="1.3" stroke-miterlimit="10" stroke-linecap="round" stroke-linejoin="round"/>
<defs>
<linearGradient id="paint0_linear_494_3098" x1="42.4057" y1="2.6238" x2="29.2977" y2="38.7484" gradientUnits="userSpaceOnUse">
<stop stop-color="#0FA6FC"/>
<stop offset="0.953125" stop-color="#D048FC"/>
</linearGradient>
</defs>
</svg>
