<svg width="30" height="30" viewBox="0 0 30 30" fill="none" xmlns="http://www.w3.org/2000/svg">
<circle cx="15" cy="15" r="14.5" fill="#1589FF" stroke="white"/>
<path d="M19.6406 15.7129C19.6406 15.4022 19.3888 15.1504 19.0781 15.1504C18.7675 15.1504 18.5156 15.4022 18.5156 15.7129C18.5156 17.884 16.7493 19.6504 14.5781 19.6504C12.407 19.6504 10.6406 17.884 10.6406 15.7129C10.6406 15.4022 10.3888 15.1504 10.0781 15.1504C9.76746 15.1504 9.51562 15.4022 9.51562 15.7129C9.51562 18.3142 11.4879 20.4632 14.0156 20.744V21.6754H12.3281C12.0175 21.6754 11.7656 21.9272 11.7656 22.2379C11.7656 22.5486 12.0175 22.8004 12.3281 22.8004H16.8281C17.1388 22.8004 17.3906 22.5486 17.3906 22.2379C17.3906 21.9272 17.1388 21.6754 16.8281 21.6754H15.1406V20.744C17.6683 20.4632 19.6406 18.3142 19.6406 15.7129Z" fill="white"/>
<path d="M14.5781 18.5254C13.0273 18.5254 11.7656 17.2637 11.7656 15.7129V11.2129C11.7656 9.66208 13.0273 8.40039 14.5781 8.40039C16.1289 8.40039 17.3906 9.66208 17.3906 11.2129V15.7129C17.3906 17.2637 16.1289 18.5254 14.5781 18.5254ZM14.5781 9.52539C13.6476 9.52539 12.8906 10.2824 12.8906 11.2129V15.7129C12.8906 16.6434 13.6476 17.4004 14.5781 17.4004C15.5086 17.4004 16.2656 16.6434 16.2656 15.7129V11.2129C16.2656 10.2824 15.5086 9.52539 14.5781 9.52539Z" fill="white"/>
<path d="M19.0781 14.0254C18.7675 14.0254 18.5156 13.7736 18.5156 13.4629V12.3379C18.5156 12.0272 18.7675 11.7754 19.0781 11.7754C19.3888 11.7754 19.6406 12.0272 19.6406 12.3379V13.4629C19.6406 13.7736 19.3888 14.0254 19.0781 14.0254Z" fill="white"/>
<path d="M21.2148 15.1504C20.9042 15.1504 20.6523 14.8986 20.6523 14.5879V11.2129C20.6523 10.9022 20.9042 10.6504 21.2148 10.6504C21.5255 10.6504 21.7773 10.9022 21.7773 11.2129V14.5879C21.7773 14.8986 21.5255 15.1504 21.2148 15.1504Z" fill="white"/>
</svg>
