<svg width="28" height="29" viewBox="0 0 28 29" fill="none" xmlns="http://www.w3.org/2000/svg">
<path fill-rule="evenodd" clip-rule="evenodd" d="M2.52865 5.70861C2.52865 5.1744 2.96171 4.74134 3.49592 4.74134H24.5046C25.0388 4.74134 25.4718 5.1744 25.4718 5.7086V20.0591C25.4718 20.5933 25.0388 21.0264 24.5046 21.0264H3.49592C2.96171 21.0264 2.52865 20.5933 2.52865 20.0591V5.70861ZM3.49592 3.83134C2.45913 3.83134 1.61865 4.67182 1.61865 5.70861V20.0591C1.61865 21.0959 2.45913 21.9364 3.49592 21.9364H13.6162C13.5714 22.0068 13.5455 22.0904 13.5455 22.1801V24.165C13.5455 24.1842 13.5467 24.2031 13.549 24.2216L10.2808 24.1927C10.0295 24.1905 9.82404 24.3924 9.82182 24.6437C9.81959 24.895 10.0215 25.1005 10.2728 25.1027L17.718 25.1685C17.9693 25.1707 18.1748 24.9688 18.177 24.7175C18.1792 24.4663 17.9773 24.2608 17.7261 24.2585L14.451 24.2296C14.454 24.2085 14.4555 24.187 14.4555 24.165V22.1801C14.4555 22.0904 14.4296 22.0068 14.3848 21.9364H24.5046C25.5413 21.9364 26.3818 21.0959 26.3818 20.0591V5.7086C26.3818 4.67182 25.5413 3.83134 24.5046 3.83134H3.49592Z" fill="url(#paint0_linear_1591_2782)"/>
<path fill-rule="evenodd" clip-rule="evenodd" d="M18.9308 9.04333L18.9308 19.4391H19.8408L19.8408 9.04333H18.9308ZM13.8096 13.5014L13.8096 19.4391H14.7196L14.7196 13.5014H13.8096ZM21.4912 19.4391L21.4912 12.3526H22.4012V19.4391H21.4912ZM16.3699 15.2461L16.3699 19.4391H17.2799L17.2799 15.2461H16.3699Z" fill="url(#paint1_linear_1591_2782)"/>
<path fill-rule="evenodd" clip-rule="evenodd" d="M7.70848 14.2259L7.70848 11.4458L5.55756 9.48169C5.53999 9.46565 5.52396 9.44854 5.50949 9.43056C5.25668 9.89742 5.11312 10.4321 5.11312 11.0003C5.11312 12.5812 6.22443 13.9026 7.70848 14.2259ZM6.02672 8.72052C6.62785 8.09114 7.47532 7.69906 8.41436 7.69906C9.79148 7.69906 10.9717 8.54229 11.4667 9.74059L8.27753 10.7331L6.17118 8.8097C6.1277 8.76999 6.0786 8.74031 6.02672 8.72052ZM11.6942 10.6228L8.61848 11.58L8.61848 14.2953C10.3466 14.1899 11.7156 12.755 11.7156 11.0003C11.7156 10.8727 11.7083 10.7467 11.6942 10.6228ZM12.6256 11.0003C12.6256 13.3261 10.7402 15.2115 8.41436 15.2115C6.08856 15.2115 4.20312 13.3261 4.20312 11.0003C4.20312 8.6745 6.08856 6.78906 8.41436 6.78906C10.7402 6.78906 12.6256 8.6745 12.6256 11.0003Z" fill="url(#paint2_linear_1591_2782)"/>
<defs>
<linearGradient id="paint0_linear_1591_2782" x1="27.629" y1="2.46246" x2="21.5797" y2="24.3405" gradientUnits="userSpaceOnUse">
<stop stop-color="#0FA6FC"/>
<stop offset="0.953125" stop-color="#D048FC"/>
</linearGradient>
<linearGradient id="paint1_linear_1591_2782" x1="22.8339" y1="8.3764" x2="18.9624" y2="18.3473" gradientUnits="userSpaceOnUse">
<stop stop-color="#0FA6FC"/>
<stop offset="0.953125" stop-color="#D048FC"/>
</linearGradient>
<linearGradient id="paint2_linear_1591_2782" x1="13.0498" y1="6.24872" x2="10.3452" y2="14.677" gradientUnits="userSpaceOnUse">
<stop stop-color="#0FA6FC"/>
<stop offset="0.953125" stop-color="#D048FC"/>
</linearGradient>
</defs>
</svg>
