<svg width="29" height="29" viewBox="0 0 29 29" fill="none" xmlns="http://www.w3.org/2000/svg">
<path d="M16.1576 1.86283C10.4736 1.86283 5.85361 6.45483 5.79761 12.1388L3.38961 16.9548C3.33361 17.0948 3.33361 17.2348 3.41761 17.3748C3.50161 17.4868 3.64161 17.5708 3.78161 17.5708H6.46961V22.3308C6.46961 23.2268 7.19762 23.9548 8.09362 23.9548H10.7256V26.6708C10.7256 26.7828 10.7816 26.8948 10.8376 26.9788C10.9216 27.0628 11.0336 27.0908 11.1456 27.0908H20.9456C21.1696 27.0908 21.3656 26.8948 21.3656 26.6708V22.8068C24.8936 20.8188 26.5176 15.9748 26.5176 12.2228C26.5176 6.51083 21.8696 1.86283 16.1576 1.86283ZM14.9256 23.3668C14.4776 23.3668 14.0856 23.0028 14.0856 22.5548C14.0856 22.1068 14.4496 21.7428 14.9256 21.7428C15.3736 21.7428 15.7376 22.1068 15.7376 22.5548C15.7376 23.0028 15.3736 23.3668 14.9256 23.3668ZM20.7496 22.1908C20.6096 22.2748 20.5256 22.4148 20.5256 22.5548V26.2228H18.5656V24.2068C18.5656 23.9828 18.3696 23.7868 18.1456 23.7868C17.9216 23.7868 17.7256 23.9828 17.7256 24.2068V26.2228H15.3736V24.1508C16.1016 23.9548 16.6056 23.3108 16.6056 22.5548C16.6056 21.6308 15.8496 20.9028 14.9536 20.9028C14.0296 20.9028 13.2736 21.6588 13.2736 22.5548C13.2736 23.3388 13.8056 23.9828 14.5336 24.1508V26.2228H11.5376V23.5068C11.5376 23.3948 11.4816 23.2828 11.4256 23.1988C11.3416 23.1148 11.2296 23.0868 11.1176 23.0868H8.03761C7.61761 23.0868 7.25362 22.7508 7.25362 22.3028V17.1508C7.25362 16.9268 7.05762 16.7308 6.83362 16.7308H4.98565C4.71549 16.7308 4.53977 16.4465 4.66059 16.2049L6.55362 12.4188C6.58161 12.3628 6.60961 12.3068 6.60961 12.2228C6.60961 6.95883 10.8936 2.70283 16.1296 2.70283C21.3936 2.70283 25.6496 6.98683 25.6496 12.2228C25.6776 15.9188 23.9696 20.5388 20.7496 22.1908Z" fill="url(#paint0_linear_1591_2832)"/>
<path d="M23.6058 11.9428H21.3658V10.4588H22.6818C22.9058 10.4588 23.1018 10.2628 23.1018 10.0388C23.1018 9.81483 22.9058 9.61883 22.6818 9.61883H21.3658V8.63883C21.3658 7.93883 20.8058 7.37883 20.1058 7.37883H19.1258V6.06283C19.1258 5.83883 18.9298 5.64283 18.7058 5.64283C18.4818 5.64283 18.2858 5.83883 18.2858 6.06283V7.37883H16.8018V5.13883C16.8018 4.91483 16.6058 4.71883 16.3818 4.71883C16.1578 4.71883 15.9618 4.91483 15.9618 5.13883V7.37883H14.4778V6.06283C14.4778 5.83883 14.2818 5.64283 14.0578 5.64283C13.8338 5.64283 13.6378 5.83883 13.6378 6.06283V7.37883H12.6578C11.9578 7.37883 11.3978 7.93883 11.3978 8.63883V9.61883H10.0818C9.85779 9.61883 9.66179 9.81483 9.66179 10.0388C9.66179 10.2628 9.85779 10.4588 10.0818 10.4588H11.3978V11.9428H9.15779C8.93379 11.9428 8.73779 12.1388 8.73779 12.3628C8.73779 12.5868 8.93379 12.7828 9.15779 12.7828H11.3978V14.2668H10.0818C9.85779 14.2668 9.66179 14.4628 9.66179 14.6868C9.66179 14.9108 9.85779 15.1068 10.0818 15.1068H11.3978V16.0868C11.3978 16.7868 11.9578 17.3468 12.6578 17.3468H13.6378V18.6628C13.6378 18.8868 13.8338 19.0828 14.0578 19.0828C14.2818 19.0828 14.4778 18.8868 14.4778 18.6628V17.3468H15.9618V19.5868C15.9618 19.8108 16.1578 20.0068 16.3818 20.0068C16.6058 20.0068 16.8018 19.8108 16.8018 19.5868V17.3468H18.2858V18.6628C18.2858 18.8868 18.4818 19.0828 18.7058 19.0828C18.9298 19.0828 19.1258 18.8868 19.1258 18.6628V17.3468H20.1058C20.8058 17.3468 21.3658 16.7868 21.3658 16.0868V15.1068H22.6818C22.9058 15.1068 23.1018 14.9108 23.1018 14.6868C23.1018 14.4628 22.9058 14.2668 22.6818 14.2668H21.3658V12.7828H23.6058C23.8298 12.7828 24.0258 12.5868 24.0258 12.3628C24.0258 12.1388 23.8578 11.9428 23.6058 11.9428ZM20.5258 16.0588C20.5258 16.2828 20.3298 16.4788 20.1058 16.4788H12.7138C12.4898 16.4788 12.2938 16.2828 12.2938 16.0588V8.66683C12.2938 8.44283 12.4898 8.24683 12.7138 8.24683H20.1338C20.3578 8.24683 20.5538 8.44283 20.5538 8.66683V16.0588H20.5258Z" fill="url(#paint1_linear_1591_2832)"/>
<path d="M15.6255 10.0948C15.5695 9.95483 15.4015 9.84283 15.2335 9.84283C15.0655 9.84283 14.9255 9.95483 14.8415 10.0948L13.0495 14.2668C12.9655 14.4908 13.0495 14.7148 13.2735 14.8268C13.3295 14.8548 13.3855 14.8548 13.4415 14.8548C13.6095 14.8548 13.7495 14.7708 13.8335 14.6028L14.2255 13.7068H16.2695L16.6615 14.6028C16.7455 14.8268 16.9975 14.9108 17.2215 14.8268C17.4455 14.7428 17.5295 14.4908 17.4455 14.2668L15.6255 10.0948ZM14.5895 12.8668L15.2615 11.3268L15.9335 12.8668H14.5895Z" fill="url(#paint2_linear_1591_2832)"/>
<path d="M19.0699 9.84283C18.8459 9.84283 18.6499 10.0388 18.6499 10.2628V14.4348C18.6499 14.6588 18.8459 14.8548 19.0699 14.8548C19.2939 14.8548 19.4899 14.6588 19.4899 14.4348V10.2628C19.4899 10.0388 19.2939 9.84283 19.0699 9.84283Z" fill="url(#paint3_linear_1591_2832)"/>
<defs>
<linearGradient id="paint0_linear_1591_2832" x1="27.6844" y1="0.244335" x2="19.013" y2="25.0592" gradientUnits="userSpaceOnUse">
<stop stop-color="#0FA6FC"/>
<stop offset="0.953125" stop-color="#D048FC"/>
</linearGradient>
<linearGradient id="paint1_linear_1591_2832" x1="24.7958" y1="3.73804" x2="19.8865" y2="19.0366" gradientUnits="userSpaceOnUse">
<stop stop-color="#0FA6FC"/>
<stop offset="0.953125" stop-color="#D048FC"/>
</linearGradient>
<linearGradient id="paint2_linear_1591_2832" x1="17.7021" y1="9.52104" x2="15.9343" y2="14.4193" gradientUnits="userSpaceOnUse">
<stop stop-color="#0FA6FC"/>
<stop offset="0.953125" stop-color="#D048FC"/>
</linearGradient>
<linearGradient id="paint3_linear_1591_2832" x1="19.5322" y1="9.52129" x2="17.2622" y2="10.7069" gradientUnits="userSpaceOnUse">
<stop stop-color="#0FA6FC"/>
<stop offset="0.953125" stop-color="#D048FC"/>
</linearGradient>
</defs>
</svg>
