<svg width="28" height="28" viewBox="0 0 28 28" fill="none" xmlns="http://www.w3.org/2000/svg">
<path d="M22.4585 8.16667H22.1266C21.839 5.86542 19.8796 4.08333 17.5002 4.08333C16.6666 4.08333 15.8855 4.30442 15.2082 4.68767C14.3525 2.94933 12.5687 1.75 10.5002 1.75C7.60041 1.75 5.25016 4.10025 5.25016 7C5.25016 7.40425 5.30033 7.79625 5.38666 8.17425C2.72083 8.25708 0.583496 10.4387 0.583496 13.125C0.583496 15.8632 2.80366 18.0833 5.54183 18.0833H22.4585C25.1967 18.0833 27.4168 15.8632 27.4168 13.125C27.4168 10.3868 25.1967 8.16667 22.4585 8.16667Z" fill="white"/>
<path d="M22.4583 18.6667C25.5138 18.6667 28 16.1805 28 13.125C28 10.122 25.599 7.66909 22.6164 7.58567C22.0815 5.22375 19.9663 3.5 17.5 3.5C16.7953 3.5 16.0965 3.64409 15.4478 3.91942C14.3879 2.20734 12.5405 1.16667 10.5 1.16667C7.2835 1.16667 4.66667 3.7835 4.66667 7C4.66667 7.21467 4.6795 7.43167 4.70458 7.651C2.01892 8.05175 0 10.3408 0 13.125C0 16.1805 2.48617 18.6667 5.54167 18.6667H8.75V20.7585L7.74958 21.7589C7.5215 21.6498 7.26892 21.5833 7 21.5833C6.03517 21.5833 5.25 22.3685 5.25 23.3333C5.25 24.2982 6.03517 25.0833 7 25.0833C7.96483 25.0833 8.75 24.2982 8.75 23.3333C8.75 23.0638 8.68408 22.8118 8.57442 22.5838L9.74575 21.4124C9.85542 21.3028 9.91667 21.1552 9.91667 21V18.6667H13.4167V23.4407C12.7394 23.6822 12.25 24.3238 12.25 25.0833C12.25 26.0482 13.0352 26.8333 14 26.8333C14.9648 26.8333 15.75 26.0482 15.75 25.0833C15.75 24.3238 15.2606 23.6822 14.5833 23.4407V18.6667H18.0833V21C18.0833 21.1552 18.1446 21.3033 18.2542 21.4124L19.4256 22.5838C19.3165 22.8118 19.25 23.0644 19.25 23.3333C19.25 24.2982 20.0352 25.0833 21 25.0833C21.9648 25.0833 22.75 24.2982 22.75 23.3333C22.75 22.3685 21.9648 21.5833 21 21.5833C20.7305 21.5833 20.4785 21.6493 20.2504 21.7589L19.25 20.7585V18.6667H22.4583ZM7 23.9167C6.678 23.9167 6.41667 23.6553 6.41667 23.3333C6.41667 23.0113 6.678 22.75 7 22.75C7.322 22.75 7.58333 23.0113 7.58333 23.3333C7.58333 23.6553 7.322 23.9167 7 23.9167ZM14 25.6667C13.678 25.6667 13.4167 25.4053 13.4167 25.0833C13.4167 24.7613 13.678 24.5 14 24.5C14.322 24.5 14.5833 24.7613 14.5833 25.0833C14.5833 25.4053 14.322 25.6667 14 25.6667ZM21.5833 23.3333C21.5833 23.6553 21.322 23.9167 21 23.9167C20.678 23.9167 20.4167 23.6553 20.4167 23.3333C20.4167 23.0113 20.678 22.75 21 22.75C21.322 22.75 21.5833 23.0113 21.5833 23.3333ZM5.54167 17.5C3.129 17.5 1.16667 15.5377 1.16667 13.125C1.16667 10.7497 3.02808 8.83167 5.40517 8.75759C5.57958 8.75234 5.74175 8.66892 5.84908 8.53067C5.95583 8.393 5.99492 8.2145 5.95583 8.04417C5.87475 7.69067 5.83392 7.3395 5.83392 6.99942C5.83392 4.42634 7.9275 2.33275 10.5006 2.33275C12.2885 2.33275 13.8915 3.33375 14.6848 4.94492C14.756 5.089 14.8832 5.1975 15.0366 5.24475C15.19 5.29259 15.3557 5.27392 15.4957 5.19517C16.1082 4.84925 16.8012 4.66609 17.5012 4.66609C19.5545 4.66609 21.294 6.202 21.5483 8.23842C21.5845 8.53009 21.833 8.74942 22.127 8.74942H22.4589C24.8716 8.74942 26.8339 10.7118 26.8339 13.1244C26.8339 15.5371 24.8716 17.4994 22.4589 17.4994L5.54167 17.5Z" fill="url(#paint0_linear_1591_2748)"/>
<defs>
<linearGradient id="paint0_linear_1591_2748" x1="29.4102" y1="-0.479967" x2="21.7406" y2="25.5932" gradientUnits="userSpaceOnUse">
<stop stop-color="#0FA6FC"/>
<stop offset="0.953125" stop-color="#D048FC"/>
</linearGradient>
</defs>
</svg>
