<svg width="28" height="28" viewBox="0 0 28 28" fill="none" xmlns="http://www.w3.org/2000/svg">
<g clip-path="url(#clip0_1591_2810)">
<path d="M22.2064 9.70039C22.2175 9.60519 22.197 9.50899 22.148 9.42658C22.0991 9.34418 22.0244 9.28013 21.9355 9.2443L18.782 7.97239C17.5852 7.49456 16.4828 6.80776 15.5264 5.94404L14.1909 4.73216C14.1104 4.65916 14.0056 4.61873 13.8969 4.61873C13.7882 4.61873 13.6835 4.65916 13.603 4.73216L12.2674 5.94404C11.311 6.80776 10.2086 7.49456 9.01177 7.97239L5.85827 9.2443C5.76938 9.28013 5.69473 9.34418 5.64578 9.42658C5.59684 9.50899 5.57633 9.60519 5.5874 9.70039L5.88305 12.2485C6.42608 16.9277 9.20703 21.1053 13.5124 23.71L13.67 23.8055C13.7385 23.8469 13.8169 23.8687 13.8969 23.8687C13.9769 23.8687 14.0553 23.8469 14.1238 23.8055L14.281 23.71C18.5868 21.1053 21.3677 16.9277 21.9108 12.2485L22.2064 9.70039ZM21.0417 12.1476C20.5329 16.5312 17.9305 20.4531 13.8969 22.9196C9.86329 20.4533 7.26092 16.5314 6.75209 12.1476L6.49488 9.93087L9.33907 8.78371C10.6318 8.26736 11.8224 7.5253 12.8553 6.59215L13.8969 5.64687L14.9386 6.59215C15.9715 7.5253 17.1621 8.26737 18.4548 8.78371L21.299 9.93087L21.0417 12.1476Z" fill="url(#paint0_linear_1591_2810)"/>
<path d="M13.897 27.5875C16.1025 27.5871 18.2749 27.0502 20.2266 26.0229L19.8173 25.2491C17.346 26.5518 14.5138 27.0026 11.7602 26.5315C9.00653 26.0605 6.48525 24.694 4.5874 22.6439C2.68956 20.5939 1.5212 17.9749 1.26356 15.1932C1.00591 12.4114 1.67337 9.6224 3.16241 7.25867L2.42243 6.79126C1.12957 8.84332 0.410522 11.2045 0.34018 13.6288C0.269838 16.0532 0.850771 18.4521 2.02248 20.5756C3.19418 22.6992 4.9138 24.4698 7.00226 25.703C9.09071 26.9362 11.4716 27.587 13.897 27.5875Z" fill="url(#paint1_linear_1591_2810)"/>
<path d="M13.897 1.33746C16.1659 1.33788 18.3931 1.94658 20.3468 3.10016C22.3005 4.25374 23.9092 5.91002 25.0053 7.8965C26.1014 9.88299 26.6449 12.127 26.5792 14.3949C26.5135 16.6628 25.8409 18.8716 24.6316 20.7913L25.3716 21.2587C26.963 18.7318 27.6763 15.7504 27.4007 12.7769C27.1251 9.80341 25.8761 7.0039 23.8474 4.81253C21.8187 2.62117 19.1236 1.16041 16.1801 0.656786C13.2367 0.15316 10.2092 0.63481 7.56738 2.02704L7.97669 2.80078C9.80217 1.83986 11.8341 1.33763 13.897 1.33746Z" fill="url(#paint2_linear_1591_2810)"/>
<path d="M16.9595 9.64996H10.8345C10.4865 9.65034 10.1529 9.78875 9.90681 10.0348C9.66076 10.2809 9.52235 10.6145 9.52197 10.9625V11.8375C9.52298 12.1614 9.64469 12.4734 9.86334 12.7125C9.64469 12.9515 9.52298 13.2635 9.52197 13.5875V14.4625C9.52298 14.7864 9.64469 15.0984 9.86334 15.3375C9.64469 15.5765 9.52298 15.8885 9.52197 16.2125V17.0875C9.52235 17.4354 9.66076 17.7691 9.90681 18.0151C10.1529 18.2612 10.4865 18.3996 10.8345 18.4H16.9595C17.3075 18.3996 17.6411 18.2612 17.8871 18.0151C18.1332 17.7691 18.2716 17.4354 18.272 17.0875V16.2125C18.271 15.8885 18.1493 15.5765 17.9306 15.3375C18.1493 15.0984 18.271 14.7864 18.272 14.4625V13.5875C18.271 13.2635 18.1493 12.9515 17.9306 12.7125C18.1493 12.4734 18.271 12.1614 18.272 11.8375V10.9625C18.2716 10.6145 18.1332 10.2809 17.8871 10.0348C17.6411 9.78875 17.3075 9.65034 16.9595 9.64996ZM17.397 17.0875C17.3969 17.2035 17.3507 17.3147 17.2687 17.3967C17.1867 17.4787 17.0755 17.5248 16.9595 17.525H10.8345C10.7185 17.5248 10.6073 17.4787 10.5252 17.3967C10.4432 17.3147 10.3971 17.2035 10.397 17.0875V16.2125C10.3971 16.0965 10.4432 15.9853 10.5252 15.9032C10.6073 15.8212 10.7185 15.7751 10.8345 15.775H16.9595C17.0755 15.7751 17.1867 15.8212 17.2687 15.9032C17.3507 15.9853 17.3969 16.0965 17.397 16.2125V17.0875ZM17.397 14.4625C17.3969 14.5785 17.3507 14.6897 17.2687 14.7717C17.1867 14.8537 17.0755 14.8998 16.9595 14.9H10.8345C10.7185 14.8998 10.6073 14.8537 10.5252 14.7717C10.4432 14.6897 10.3971 14.5785 10.397 14.4625V13.5875C10.3971 13.4715 10.4432 13.3603 10.5252 13.2782C10.6073 13.1962 10.7185 13.1501 10.8345 13.15H16.9595C17.0755 13.1501 17.1867 13.1962 17.2687 13.2782C17.3507 13.3603 17.3969 13.4715 17.397 13.5875V14.4625ZM17.397 11.8375C17.3969 11.9535 17.3507 12.0647 17.2687 12.1467C17.1867 12.2287 17.0755 12.2748 16.9595 12.275H10.8345C10.7185 12.2748 10.6073 12.2287 10.5252 12.1467C10.4432 12.0647 10.3971 11.9535 10.397 11.8375V10.9625C10.3971 10.8465 10.4432 10.7353 10.5252 10.6532C10.6073 10.5712 10.7185 10.5251 10.8345 10.525H16.9595C17.0755 10.5251 17.1867 10.5712 17.2687 10.6532C17.3507 10.7353 17.3969 10.8465 17.397 10.9625V11.8375Z" fill="url(#paint3_linear_1591_2810)"/>
<path d="M10.8345 10.9624H11.7095V11.8374H10.8345V10.9624Z" fill="url(#paint4_linear_1591_2810)"/>
<path d="M13.4595 10.9624H16.9595V11.8374H13.4595V10.9624Z" fill="url(#paint5_linear_1591_2810)"/>
<path d="M10.8345 13.5874H11.7095V14.4624H10.8345V13.5874Z" fill="url(#paint6_linear_1591_2810)"/>
<path d="M13.4595 13.5874H16.9595V14.4624H13.4595V13.5874Z" fill="url(#paint7_linear_1591_2810)"/>
<path d="M10.8345 16.2124H11.7095V17.0874H10.8345V16.2124Z" fill="url(#paint8_linear_1591_2810)"/>
<path d="M13.4595 16.2124H16.9595V17.0874H13.4595V16.2124Z" fill="url(#paint9_linear_1591_2810)"/>
<path d="M21.3345 25.4H23.9595C24.0169 25.4 24.0738 25.3887 24.1269 25.3667C24.18 25.3447 24.2282 25.3125 24.2689 25.2719C24.3095 25.2312 24.3417 25.183 24.3637 25.1299C24.3857 25.0768 24.397 25.0199 24.397 24.9625V22.3375C24.397 22.28 24.3857 22.2231 24.3637 22.17C24.3417 22.1169 24.3095 22.0687 24.2689 22.0281C24.2282 21.9874 24.18 21.9552 24.1269 21.9332C24.0738 21.9113 24.0169 21.8999 23.9595 21.9H21.3345C21.277 21.8999 21.2201 21.9113 21.167 21.9332C21.1139 21.9552 21.0657 21.9874 21.0251 22.0281C20.9844 22.0687 20.9522 22.1169 20.9302 22.17C20.9083 22.2231 20.897 22.28 20.897 22.3375V24.9625C20.897 25.0199 20.9083 25.0768 20.9302 25.1299C20.9522 25.183 20.9845 25.2312 21.0251 25.2719C21.0657 25.3125 21.1139 25.3447 21.167 25.3667C21.2201 25.3887 21.277 25.4 21.3345 25.4ZM21.772 22.775H23.522V24.525H21.772V22.775Z" fill="url(#paint10_linear_1591_2810)"/>
<path d="M3.83447 6.14996H6.45947C6.51693 6.14998 6.57383 6.13867 6.62691 6.11669C6.68 6.09471 6.72824 6.06248 6.76887 6.02186C6.80949 5.98123 6.84172 5.93299 6.8637 5.8799C6.88568 5.82682 6.89699 5.76992 6.89697 5.71246V3.08746C6.89699 3.03001 6.88568 2.97311 6.8637 2.92002C6.84172 2.86694 6.80949 2.8187 6.76887 2.77807C6.72824 2.73744 6.68 2.70522 6.62691 2.68324C6.57383 2.66125 6.51693 2.64995 6.45947 2.64996H3.83447C3.77702 2.64995 3.72012 2.66125 3.66703 2.68323C3.61394 2.70522 3.56571 2.73744 3.52508 2.77807C3.48445 2.8187 3.45222 2.86693 3.43024 2.92002C3.40826 2.97311 3.39696 3.03001 3.39697 3.08746V5.71246C3.39696 5.76992 3.40826 5.82682 3.43025 5.8799C3.45223 5.93299 3.48445 5.98123 3.52508 6.02186C3.56571 6.06248 3.61394 6.09471 3.66703 6.11669C3.72012 6.13867 3.77702 6.14998 3.83447 6.14996ZM4.27197 3.52496H6.02197V5.27496H4.27197V3.52496Z" fill="url(#paint11_linear_1591_2810)"/>
</g>
<defs>
<linearGradient id="paint0_linear_1591_2810" x1="23.0466" y1="3.38375" x2="16.1097" y2="22.0531" gradientUnits="userSpaceOnUse">
<stop stop-color="#0FA6FC"/>
<stop offset="0.953125" stop-color="#D048FC"/>
</linearGradient>
<linearGradient id="paint1_linear_1591_2810" x1="21.2285" y1="5.45708" x2="14.307" y2="26.0886" gradientUnits="userSpaceOnUse">
<stop stop-color="#0FA6FC"/>
<stop offset="0.953125" stop-color="#D048FC"/>
</linearGradient>
<linearGradient id="paint2_linear_1591_2810" x1="28.4604" y1="-0.871728" x2="21.5387" y2="19.7596" gradientUnits="userSpaceOnUse">
<stop stop-color="#0FA6FC"/>
<stop offset="0.953125" stop-color="#D048FC"/>
</linearGradient>
<linearGradient id="paint3_linear_1591_2810" x1="18.7127" y1="9.08861" x2="15.9029" y2="17.8446" gradientUnits="userSpaceOnUse">
<stop stop-color="#0FA6FC"/>
<stop offset="0.953125" stop-color="#D048FC"/>
</linearGradient>
<linearGradient id="paint4_linear_1591_2810" x1="11.7535" y1="10.9063" x2="11.4726" y2="11.7819" gradientUnits="userSpaceOnUse">
<stop stop-color="#0FA6FC"/>
<stop offset="0.953125" stop-color="#D048FC"/>
</linearGradient>
<linearGradient id="paint5_linear_1591_2810" x1="17.1357" y1="10.9063" x2="17.0588" y2="11.8659" gradientUnits="userSpaceOnUse">
<stop stop-color="#0FA6FC"/>
<stop offset="0.953125" stop-color="#D048FC"/>
</linearGradient>
<linearGradient id="paint6_linear_1591_2810" x1="11.7535" y1="13.5313" x2="11.4726" y2="14.4069" gradientUnits="userSpaceOnUse">
<stop stop-color="#0FA6FC"/>
<stop offset="0.953125" stop-color="#D048FC"/>
</linearGradient>
<linearGradient id="paint7_linear_1591_2810" x1="17.1357" y1="13.5313" x2="17.0588" y2="14.4909" gradientUnits="userSpaceOnUse">
<stop stop-color="#0FA6FC"/>
<stop offset="0.953125" stop-color="#D048FC"/>
</linearGradient>
<linearGradient id="paint8_linear_1591_2810" x1="11.7535" y1="16.1563" x2="11.4726" y2="17.0319" gradientUnits="userSpaceOnUse">
<stop stop-color="#0FA6FC"/>
<stop offset="0.953125" stop-color="#D048FC"/>
</linearGradient>
<linearGradient id="paint9_linear_1591_2810" x1="17.1357" y1="16.1563" x2="17.0588" y2="17.1159" gradientUnits="userSpaceOnUse">
<stop stop-color="#0FA6FC"/>
<stop offset="0.953125" stop-color="#D048FC"/>
</linearGradient>
<linearGradient id="paint10_linear_1591_2810" x1="24.5732" y1="21.6754" x2="23.4493" y2="25.1778" gradientUnits="userSpaceOnUse">
<stop stop-color="#0FA6FC"/>
<stop offset="0.953125" stop-color="#D048FC"/>
</linearGradient>
<linearGradient id="paint11_linear_1591_2810" x1="7.07325" y1="2.42542" x2="5.94933" y2="5.92784" gradientUnits="userSpaceOnUse">
<stop stop-color="#0FA6FC"/>
<stop offset="0.953125" stop-color="#D048FC"/>
</linearGradient>
<clipPath id="clip0_1591_2810">
<rect width="28" height="28" fill="white"/>
</clipPath>
</defs>
</svg>
