<svg width="28" height="28" viewBox="0 0 28 28" fill="none" xmlns="http://www.w3.org/2000/svg">
<path d="M26.5927 13.3217C25.7817 12.3236 24.6773 11.5938 23.4515 11.2391C23.3104 7.45116 20.1848 4.41306 16.3631 4.41306C14.7453 4.41306 13.1626 4.97219 11.9069 5.98747C10.8284 6.85944 10.0258 8.03568 9.60582 9.34527C9.0408 9.11933 8.4341 9.00154 7.82236 9.00154C5.18485 9.00154 3.03692 11.1379 3.01833 13.7712C1.19921 14.5963 0 16.4339 0 18.4509C0 21.2829 2.30399 23.5869 5.13597 23.5869H21.7027C25.1751 23.5869 28.0001 20.7619 28 17.2896C28 15.8478 27.5002 14.4387 26.5927 13.3217ZM21.7027 22.6054H5.13597C2.8452 22.6054 0.981508 20.7417 0.981508 18.4509C0.981508 16.7222 2.0702 15.1566 3.69047 14.5551C3.8941 14.4795 4.02379 14.2792 4.00939 14.0625C4.00279 13.963 3.99971 13.8813 3.99971 13.8056C3.99971 11.6978 5.71454 9.98299 7.82236 9.98299C8.47375 9.98299 9.11768 10.1508 9.6846 10.4681C9.81959 10.5438 9.98246 10.5512 10.1238 10.4883C10.2652 10.4253 10.3686 10.2994 10.4029 10.1485C10.7043 8.81957 11.4576 7.61297 12.524 6.75082C13.6057 5.87623 14.9691 5.39463 16.3631 5.39463C19.7332 5.39463 22.475 8.13638 22.475 11.5065C22.475 11.5355 22.4744 11.5645 22.4739 11.5934L22.4736 11.6127C22.4697 11.8459 22.6304 12.0497 22.8581 12.1001C24.0199 12.3575 25.0757 13.0112 25.8309 13.9407C26.5968 14.8832 27.0185 16.0726 27.0185 17.2896C27.0185 20.2207 24.6338 22.6054 21.7027 22.6054Z" fill="url(#paint0_linear_1591_2652)"/>
<path d="M10.1943 20.4212V18.5325C10.1943 18.379 10.1314 18.2318 10.0194 18.1233C9.90742 18.0147 9.75553 17.9537 9.59716 17.9537C9.43879 17.9537 9.2869 18.0147 9.17491 18.1233C9.06293 18.2318 9.00002 18.379 9.00002 18.5325V20.4212C9.00002 20.5747 9.06293 20.7219 9.17491 20.8304C9.2869 20.939 9.43879 20.9999 9.59716 20.9999C9.75553 20.9999 9.90742 20.939 10.0194 20.8304C10.1314 20.7219 10.1943 20.5747 10.1943 20.4212Z" fill="url(#paint1_linear_1591_2652)"/>
<path d="M13.1295 20.4212V15.5985C13.1295 15.445 13.0666 15.2978 12.9546 15.1892C12.8426 15.0807 12.6907 15.0197 12.5324 15.0197C12.374 15.0197 12.2221 15.0807 12.1101 15.1892C11.9981 15.2978 11.9352 15.445 11.9352 15.5985V20.4212C11.9352 20.5747 11.9981 20.7219 12.1101 20.8304C12.2221 20.939 12.374 20.9999 12.5324 20.9999C12.6907 20.9999 12.8426 20.939 12.9546 20.8304C13.0666 20.7219 13.1295 20.5747 13.1295 20.4212Z" fill="url(#paint2_linear_1591_2652)"/>
<path d="M16.0647 20.4212V16.9861C16.0647 16.8326 16.0018 16.6854 15.8898 16.5769C15.7778 16.4683 15.626 16.4074 15.4676 16.4074C15.3092 16.4074 15.1573 16.4683 15.0453 16.5769C14.9334 16.6854 14.8704 16.8326 14.8704 16.9861V20.4212C14.8704 20.5747 14.9334 20.7219 15.0453 20.8304C15.1573 20.939 15.3092 20.9999 15.4676 20.9999C15.626 20.9999 15.7778 20.939 15.8898 20.8304C16.0018 20.7219 16.0647 20.5747 16.0647 20.4212Z" fill="url(#paint3_linear_1591_2652)"/>
<path d="M19 20.4211V13.6205C19 13.467 18.9371 13.3198 18.8251 13.2113C18.7131 13.1027 18.5612 13.0418 18.4029 13.0418C18.2445 13.0418 18.0926 13.1027 17.9806 13.2113C17.8686 13.3198 17.8057 13.467 17.8057 13.6205V20.4211C17.8057 20.5746 17.8686 20.7218 17.9806 20.8303C18.0926 20.9389 18.2445 20.9998 18.4029 20.9998C18.5612 20.9998 18.7131 20.9389 18.8251 20.8303C18.9371 20.7218 19 20.5746 19 20.4211Z" fill="url(#paint4_linear_1591_2652)"/>
<path d="M12.0701 12.1881L9.13482 15.6681C9.03458 15.7869 8.98716 15.94 9.00299 16.0927C9.01882 16.2454 9.0966 16.3858 9.21922 16.483C9.34184 16.5801 9.49925 16.6261 9.65684 16.6108C9.81442 16.5954 9.95926 16.52 10.0595 16.4012L12.6955 13.2758L15.2058 14.4623C15.3252 14.5188 15.4607 14.535 15.5907 14.5085C15.7207 14.4819 15.8379 14.4141 15.9237 14.3157L20.2274 9.38603C20.3287 9.26869 20.378 9.11725 20.3644 8.96482C20.3508 8.8124 20.2755 8.67139 20.1549 8.57263C20.0344 8.47386 19.8784 8.42538 19.721 8.43778C19.5637 8.45017 19.4178 8.52245 19.3153 8.63879L15.3116 13.2244L12.7942 12.0343C12.6732 11.9771 12.5359 11.9612 12.4045 11.9891C12.2731 12.017 12.1552 12.0872 12.0701 12.1881Z" fill="url(#paint5_linear_1591_2652)"/>
<path fill-rule="evenodd" clip-rule="evenodd" d="M20.7883 18.2432C20.7883 17.167 21.6607 16.2945 22.737 16.2945C23.8132 16.2945 24.6857 17.167 24.6857 18.2432C24.6857 19.3194 23.8132 20.1919 22.737 20.1919C21.6607 20.1919 20.7883 19.3194 20.7883 18.2432ZM22.737 14.9945C20.9428 14.9945 19.4883 16.449 19.4883 18.2432C19.4883 20.0374 20.9428 21.4919 22.737 21.4919C23.399 21.4919 24.0148 21.2939 24.5284 20.9538L26.4356 22.861C26.6894 23.1148 27.1009 23.1148 27.3548 22.861C27.6086 22.6072 27.6086 22.1956 27.3548 21.9418L25.4476 20.0346C25.7877 19.521 25.9857 18.9053 25.9857 18.2432C25.9857 16.449 24.5312 14.9945 22.737 14.9945Z" fill="url(#paint6_linear_1591_2652)"/>
<defs>
<linearGradient id="paint0_linear_1591_2652" x1="29.4102" y1="3.18297" x2="24.974" y2="23.371" gradientUnits="userSpaceOnUse">
<stop stop-color="#0FA6FC"/>
<stop offset="0.953125" stop-color="#D048FC"/>
</linearGradient>
<linearGradient id="paint1_linear_1591_2652" x1="20.9391" y1="7.62983" x2="16.5699" y2="19.9475" gradientUnits="userSpaceOnUse">
<stop stop-color="#0FA6FC"/>
<stop offset="0.953125" stop-color="#D048FC"/>
</linearGradient>
<linearGradient id="paint2_linear_1591_2652" x1="20.9391" y1="7.62983" x2="16.5699" y2="19.9475" gradientUnits="userSpaceOnUse">
<stop stop-color="#0FA6FC"/>
<stop offset="0.953125" stop-color="#D048FC"/>
</linearGradient>
<linearGradient id="paint3_linear_1591_2652" x1="20.9391" y1="7.62983" x2="16.5699" y2="19.9475" gradientUnits="userSpaceOnUse">
<stop stop-color="#0FA6FC"/>
<stop offset="0.953125" stop-color="#D048FC"/>
</linearGradient>
<linearGradient id="paint4_linear_1591_2652" x1="20.9391" y1="7.62983" x2="16.5699" y2="19.9475" gradientUnits="userSpaceOnUse">
<stop stop-color="#0FA6FC"/>
<stop offset="0.953125" stop-color="#D048FC"/>
</linearGradient>
<linearGradient id="paint5_linear_1591_2652" x1="20.9391" y1="7.62983" x2="16.5699" y2="19.9475" gradientUnits="userSpaceOnUse">
<stop stop-color="#0FA6FC"/>
<stop offset="0.953125" stop-color="#D048FC"/>
</linearGradient>
<linearGradient id="paint6_linear_1591_2652" x1="27.951" y1="14.4776" x2="25.3637" y2="22.5401" gradientUnits="userSpaceOnUse">
<stop stop-color="#0FA6FC"/>
<stop offset="0.953125" stop-color="#D048FC"/>
</linearGradient>
</defs>
</svg>
