<svg width="28" height="28" viewBox="0 0 28 28" fill="none" xmlns="http://www.w3.org/2000/svg">
<path d="M11.0832 4.08333V7.58333C11.0832 8.20217 10.8373 8.79567 10.3998 9.23325C9.96217 9.67084 9.36868 9.91667 8.74984 9.91667C8.131 9.91667 7.53751 9.67084 7.09992 9.23325C6.66234 8.79567 6.4165 8.20217 6.4165 7.58333C6.4165 7.42862 6.47796 7.28025 6.58736 7.17086C6.69675 7.06146 6.84513 7 6.99984 7C7.15455 7 7.30292 7.06146 7.41232 7.17086C7.52171 7.28025 7.58317 7.42862 7.58317 7.58333C7.58546 7.89205 7.70911 8.18746 7.92741 8.40576C8.14571 8.62406 8.44113 8.74771 8.74984 8.75C9.05897 8.74908 9.35518 8.62586 9.57378 8.40727C9.79237 8.18868 9.91558 7.89247 9.9165 7.58333V4.08333C9.91421 3.77462 9.79056 3.4792 9.57227 3.26091C9.35397 3.04261 9.05855 2.91896 8.74984 2.91667C8.4407 2.91759 8.14449 3.0408 7.9259 3.2594C7.70731 3.47799 7.58409 3.7742 7.58317 4.08333H6.4165C6.4165 3.4645 6.66234 2.871 7.09992 2.43342C7.53751 1.99583 8.131 1.75 8.74984 1.75C9.36868 1.75 9.96217 1.99583 10.3998 2.43342C10.8373 2.871 11.0832 3.4645 11.0832 4.08333Z" fill="url(#paint0_linear_1591_2854)"/>
<path d="M19.8337 21.5833C19.679 21.5833 19.5306 21.5218 19.4212 21.4124L18.2546 20.2458C18.1483 20.1357 18.0895 19.9884 18.0908 19.8354C18.0922 19.6825 18.1535 19.5362 18.2617 19.428C18.3698 19.3199 18.5161 19.2585 18.6691 19.2572C18.822 19.2559 18.9694 19.3147 19.0794 19.4209L19.8337 20.1752L21.7546 18.2543C21.8646 18.148 22.0119 18.0892 22.1649 18.0905C22.3178 18.0919 22.4641 18.1532 22.5723 18.2614C22.6805 18.3695 22.7418 18.5158 22.7431 18.6688C22.7445 18.8217 22.6857 18.9691 22.5794 19.0791L20.2461 21.4124C20.1367 21.5218 19.9883 21.5833 19.8337 21.5833Z" fill="url(#paint1_linear_1591_2854)"/>
<path d="M17.4998 9.91667H13.9998C13.8451 9.91667 13.6968 9.85521 13.5874 9.74581C13.478 9.63642 13.4165 9.48804 13.4165 9.33333C13.4165 9.17862 13.478 9.03025 13.5874 8.92085C13.6968 8.81146 13.8451 8.75 13.9998 8.75H17.4998C17.6545 8.75 17.8029 8.81146 17.9123 8.92085C18.0217 9.03025 18.0832 9.17862 18.0832 9.33333C18.0832 9.48804 18.0217 9.63642 17.9123 9.74581C17.8029 9.85521 17.6545 9.91667 17.4998 9.91667Z" fill="url(#paint2_linear_1591_2854)"/>
<path d="M17.5 13.4167H12.8333C12.6786 13.4167 12.5303 13.3552 12.4209 13.2458C12.3115 13.1364 12.25 12.988 12.25 12.8333C12.25 12.6786 12.3115 12.5303 12.4209 12.4209C12.5303 12.3115 12.6786 12.25 12.8333 12.25H17.5C17.6547 12.25 17.8031 12.3115 17.9125 12.4209C18.0219 12.5303 18.0833 12.6786 18.0833 12.8333C18.0833 12.988 18.0219 13.1364 17.9125 13.2458C17.8031 13.3552 17.6547 13.4167 17.5 13.4167Z" fill="url(#paint3_linear_1591_2854)"/>
<path d="M11.0833 13.4167H5.83333C5.67862 13.4167 5.53025 13.3552 5.42085 13.2458C5.31146 13.1364 5.25 12.988 5.25 12.8333C5.25 12.6786 5.31146 12.5303 5.42085 12.4209C5.53025 12.3115 5.67862 12.25 5.83333 12.25H11.0833C11.238 12.25 11.3864 12.3115 11.4958 12.4209C11.6052 12.5303 11.6667 12.6786 11.6667 12.8333C11.6667 12.988 11.6052 13.1364 11.4958 13.2458C11.3864 13.3552 11.238 13.4167 11.0833 13.4167Z" fill="url(#paint4_linear_1591_2854)"/>
<path d="M7.58333 16.9167H5.83333C5.67862 16.9167 5.53025 16.8552 5.42085 16.7458C5.31146 16.6364 5.25 16.488 5.25 16.3333C5.25 16.1786 5.31146 16.0303 5.42085 15.9209C5.53025 15.8115 5.67862 15.75 5.83333 15.75H7.58333C7.73804 15.75 7.88642 15.8115 7.99581 15.9209C8.10521 16.0303 8.16667 16.1786 8.16667 16.3333C8.16667 16.488 8.10521 16.6364 7.99581 16.7458C7.88642 16.8552 7.73804 16.9167 7.58333 16.9167Z" fill="url(#paint5_linear_1591_2854)"/>
<path d="M12.8333 16.9167H9.33333C9.17862 16.9167 9.03025 16.8552 8.92085 16.7458C8.81146 16.6364 8.75 16.488 8.75 16.3333C8.75 16.1786 8.81146 16.0303 8.92085 15.9209C9.03025 15.8115 9.17862 15.75 9.33333 15.75H12.8333C12.988 15.75 13.1364 15.8115 13.2458 15.9209C13.3552 16.0303 13.4167 16.1786 13.4167 16.3333C13.4167 16.488 13.3552 16.6364 13.2458 16.7458C13.1364 16.8552 12.988 16.9167 12.8333 16.9167Z" fill="url(#paint6_linear_1591_2854)"/>
<path d="M12.8333 20.4167H11.0833C10.9286 20.4167 10.7803 20.3552 10.6709 20.2458C10.5615 20.1364 10.5 19.988 10.5 19.8333C10.5 19.6786 10.5615 19.5303 10.6709 19.4209C10.7803 19.3115 10.9286 19.25 11.0833 19.25H12.8333C12.988 19.25 13.1364 19.3115 13.2458 19.4209C13.3552 19.5303 13.4167 19.6786 13.4167 19.8333C13.4167 19.988 13.3552 20.1364 13.2458 20.2458C13.1364 20.3552 12.988 20.4167 12.8333 20.4167Z" fill="url(#paint7_linear_1591_2854)"/>
<path d="M9.33333 20.4167H5.83333C5.67862 20.4167 5.53025 20.3552 5.42085 20.2458C5.31146 20.1364 5.25 19.988 5.25 19.8333C5.25 19.6786 5.31146 19.5303 5.42085 19.4209C5.53025 19.3115 5.67862 19.25 5.83333 19.25H9.33333C9.48804 19.25 9.63642 19.3115 9.74581 19.4209C9.85521 19.5303 9.91667 19.6786 9.91667 19.8333C9.91667 19.988 9.85521 20.1364 9.74581 20.2458C9.63642 20.3552 9.48804 20.4167 9.33333 20.4167Z" fill="url(#paint8_linear_1591_2854)"/>
<path d="M18.6667 26.25H4.66667C3.8934 26.2491 3.15208 25.9415 2.6053 25.3947C2.05851 24.8479 1.75093 24.1066 1.75 23.3333V7C1.75093 6.22674 2.05851 5.48541 2.6053 4.93863C3.15208 4.39185 3.8934 4.08426 4.66667 4.08333H18.6667C19.4399 4.08426 20.1813 4.39185 20.728 4.93863C21.2748 5.48541 21.5824 6.22674 21.5833 7V12.5592C21.5833 12.7139 21.5219 12.8622 21.4125 12.9716C21.3031 13.081 21.1547 13.1425 21 13.1425C20.8453 13.1425 20.6969 13.081 20.5875 12.9716C20.4781 12.8622 20.4167 12.7139 20.4167 12.5592V7C20.4167 6.53587 20.2323 6.09075 19.9041 5.76256C19.5759 5.43437 19.1308 5.25 18.6667 5.25H4.66667C4.20254 5.25 3.75742 5.43437 3.42923 5.76256C3.10104 6.09075 2.91667 6.53587 2.91667 7V23.3333C2.91667 23.7975 3.10104 24.2426 3.42923 24.5708C3.75742 24.899 4.20254 25.0833 4.66667 25.0833H18.6667C18.9764 25.0839 19.2806 25.0013 19.5475 24.8442C19.6134 24.8051 19.6864 24.7795 19.7622 24.7686C19.8381 24.7578 19.9153 24.762 19.9895 24.781C20.0637 24.8 20.1334 24.8335 20.1947 24.8794C20.256 24.9254 20.3076 24.983 20.3467 25.0489C20.3857 25.1148 20.4114 25.1878 20.4222 25.2636C20.433 25.3395 20.4288 25.4167 20.4098 25.4909C20.3908 25.5651 20.3574 25.6349 20.3114 25.6961C20.2654 25.7574 20.2078 25.8091 20.1419 25.8481C19.6951 26.112 19.1856 26.2508 18.6667 26.25Z" fill="url(#paint9_linear_1591_2854)"/>
<path d="M8.74984 9.91667C8.131 9.91667 7.53751 9.67084 7.09992 9.23325C6.66234 8.79567 6.4165 8.20217 6.4165 7.58333C6.4165 7.42862 6.47796 7.28025 6.58736 7.17086C6.69675 7.06146 6.84513 7 6.99984 7C7.15455 7 7.30292 7.06146 7.41232 7.17086C7.52171 7.28025 7.58317 7.42862 7.58317 7.58333C7.58317 7.89275 7.70609 8.1895 7.92488 8.40829C8.14367 8.62708 8.44042 8.75 8.74984 8.75C9.05926 8.75 9.356 8.62708 9.5748 8.40829C9.79359 8.1895 9.9165 7.89275 9.9165 7.58333V4.08333C9.9165 3.77391 9.79359 3.47717 9.5748 3.25838C9.356 3.03958 9.05926 2.91667 8.74984 2.91667C8.44042 2.91667 8.14367 3.03958 7.92488 3.25838C7.70609 3.47717 7.58317 3.77391 7.58317 4.08333V4.66667C7.58317 4.82138 7.52171 4.96975 7.41232 5.07915C7.30292 5.18854 7.15455 5.25 6.99984 5.25C6.84513 5.25 6.69675 5.18854 6.58736 5.07915C6.47796 4.96975 6.4165 4.82138 6.4165 4.66667V4.08333C6.4165 3.4645 6.66234 2.871 7.09992 2.43342C7.53751 1.99583 8.131 1.75 8.74984 1.75C9.36868 1.75 9.96217 1.99583 10.3998 2.43342C10.8373 2.871 11.0832 3.4645 11.0832 4.08333V7.58333C11.0832 8.20217 10.8373 8.79567 10.3998 9.23325C9.96217 9.67084 9.36868 9.91667 8.74984 9.91667Z" fill="url(#paint10_linear_1591_2854)"/>
<path d="M20.3584 26.1654C20.1381 26.1654 19.9228 26.0999 19.74 25.977L18.0349 24.8407C16.9356 24.1095 16.0342 23.1177 15.4112 21.9536C14.7882 20.7895 14.4629 19.4894 14.4644 18.1691V17.262C14.4652 17.0114 14.5503 16.7683 14.7059 16.5719C14.8615 16.3754 15.0787 16.237 15.3224 16.1788C16.8942 15.7438 18.3896 15.0691 19.7558 14.1785C19.9357 14.0626 20.1452 14.0009 20.3592 14.0009C20.5733 14.0009 20.7828 14.0626 20.9627 14.1785C22.3285 15.0697 23.8239 15.7443 25.396 16.1782C25.639 16.2374 25.8552 16.3763 26.01 16.5728C26.1648 16.7692 26.2493 17.0119 26.25 17.262V18.1691C26.2514 19.4894 25.9261 20.7895 25.3031 21.9536C24.6801 23.1177 23.7788 24.1095 22.6794 24.8407L20.9744 25.9776C20.7921 26.0998 20.5778 26.1652 20.3584 26.1654ZM20.3584 15.1778C18.8918 16.1289 17.2875 16.8486 15.6019 17.3116L15.631 18.1691C15.6298 19.2973 15.9077 20.4082 16.44 21.4029C16.9723 22.3976 17.7425 23.2452 18.6819 23.87L20.3584 24.9871L22.0325 23.87C22.9719 23.2452 23.7421 22.3976 24.2744 21.4029C24.8067 20.4082 25.0846 19.2973 25.0834 18.1691V17.262C23.4058 16.8278 21.81 16.1239 20.3584 15.1778Z" fill="url(#paint11_linear_1591_2854)"/>
<defs>
<linearGradient id="paint0_linear_1591_2854" x1="11.3182" y1="1.22607" x2="7.4699" y2="8.07883" gradientUnits="userSpaceOnUse">
<stop stop-color="#0FA6FC"/>
<stop offset="0.953125" stop-color="#D048FC"/>
</linearGradient>
<linearGradient id="paint1_linear_1591_2854" x1="22.9775" y1="17.8664" x2="22.0996" y2="21.5101" gradientUnits="userSpaceOnUse">
<stop stop-color="#0FA6FC"/>
<stop offset="0.953125" stop-color="#D048FC"/>
</linearGradient>
<linearGradient id="paint2_linear_1591_2854" x1="18.3182" y1="8.67515" x2="18.2156" y2="9.95461" gradientUnits="userSpaceOnUse">
<stop stop-color="#0FA6FC"/>
<stop offset="0.953125" stop-color="#D048FC"/>
</linearGradient>
<linearGradient id="paint3_linear_1591_2854" x1="18.3771" y1="12.1752" x2="18.2948" y2="13.4576" gradientUnits="userSpaceOnUse">
<stop stop-color="#0FA6FC"/>
<stop offset="0.953125" stop-color="#D048FC"/>
</linearGradient>
<linearGradient id="paint4_linear_1591_2854" x1="11.9898" y1="12.1752" x2="11.915" y2="13.4585" gradientUnits="userSpaceOnUse">
<stop stop-color="#0FA6FC"/>
<stop offset="0.953125" stop-color="#D048FC"/>
</linearGradient>
<linearGradient id="paint5_linear_1591_2854" x1="8.31356" y1="15.6752" x2="8.15096" y2="16.942" gradientUnits="userSpaceOnUse">
<stop stop-color="#0FA6FC"/>
<stop offset="0.953125" stop-color="#D048FC"/>
</linearGradient>
<linearGradient id="paint6_linear_1591_2854" x1="13.6517" y1="15.6752" x2="13.5491" y2="16.9546" gradientUnits="userSpaceOnUse">
<stop stop-color="#0FA6FC"/>
<stop offset="0.953125" stop-color="#D048FC"/>
</linearGradient>
<linearGradient id="paint7_linear_1591_2854" x1="13.5636" y1="19.1752" x2="13.401" y2="20.442" gradientUnits="userSpaceOnUse">
<stop stop-color="#0FA6FC"/>
<stop offset="0.953125" stop-color="#D048FC"/>
</linearGradient>
<linearGradient id="paint8_linear_1591_2854" x1="10.1517" y1="19.1752" x2="10.0491" y2="20.4546" gradientUnits="userSpaceOnUse">
<stop stop-color="#0FA6FC"/>
<stop offset="0.953125" stop-color="#D048FC"/>
</linearGradient>
<linearGradient id="paint9_linear_1591_2854" x1="22.5822" y1="2.66123" x2="14.8075" y2="24.339" gradientUnits="userSpaceOnUse">
<stop stop-color="#0FA6FC"/>
<stop offset="0.953125" stop-color="#D048FC"/>
</linearGradient>
<linearGradient id="paint10_linear_1591_2854" x1="11.3182" y1="1.22607" x2="7.4699" y2="8.07883" gradientUnits="userSpaceOnUse">
<stop stop-color="#0FA6FC"/>
<stop offset="0.953125" stop-color="#D048FC"/>
</linearGradient>
<linearGradient id="paint11_linear_1591_2854" x1="26.8436" y1="13.2205" x2="22.8363" y2="25.3196" gradientUnits="userSpaceOnUse">
<stop stop-color="#0FA6FC"/>
<stop offset="0.953125" stop-color="#D048FC"/>
</linearGradient>
</defs>
</svg>
