<svg width="28" height="28" viewBox="0 0 28 28" fill="none" xmlns="http://www.w3.org/2000/svg">
<path d="M1.16013 11.5517C0.587809 11.6446 0.14508 12.1034 0.072797 12.6787C-0.0233042 13.5501 -0.0242717 14.4293 0.0699868 15.3009C0.135682 15.8851 0.581129 16.3548 1.16105 16.4513L2.64597 16.6944C2.93105 17.9086 3.41229 19.0683 4.07067 20.1276L3.19664 21.3484C2.84835 21.8206 2.85678 22.4669 3.21719 22.9299C3.49535 23.2702 3.79135 23.5957 4.10384 23.9048C4.39039 24.1918 4.70722 24.4802 5.08757 24.7998C5.54693 25.1531 6.18435 25.1605 6.65181 24.818L7.87865 23.9379C8.93691 24.5962 10.0954 25.0776 11.3086 25.3631L11.5522 26.8504C11.6448 27.4229 12.1038 27.8658 12.6792 27.9382C12.9452 27.968 13.2154 27.989 13.4875 28.0002H13.5271C13.7704 28 14.0042 27.9065 14.1805 27.7389C14.3637 27.5638 14.4671 27.3212 14.4665 27.0678V23.328C14.4637 22.8283 14.0693 22.4186 13.57 22.397C9.10345 22.1638 5.60143 18.4742 5.60143 14.0015C5.60143 9.52883 9.10345 5.83921 13.57 5.60601C14.0701 5.58408 14.4648 5.17323 14.4665 4.67268V0.934731C14.4672 0.681026 14.3636 0.438239 14.18 0.263221C13.9966 0.0833187 13.7463 -0.0116308 13.4897 0.00140694C13.2182 0.0121412 12.9489 0.0317207 12.6726 0.0597311C12.0975 0.133857 11.6408 0.579534 11.5526 1.15264L11.3095 2.63848C10.0963 2.9242 8.93779 3.40572 7.87952 4.06415L6.65269 3.18588C6.18089 2.84086 5.5373 2.85113 5.07679 3.21108C4.73845 3.48805 4.41463 3.78225 4.10661 4.09262C3.78914 4.40294 3.49029 4.73174 3.21157 5.07726C2.85549 5.53722 2.84637 6.17718 3.18918 6.64713L4.06883 7.87539C3.411 8.93463 2.9304 10.0942 2.64597 11.3082L1.16013 11.5517ZM3.49019 11.8121C3.7615 10.4941 4.28199 9.23998 5.02367 8.11712C5.12995 7.95565 5.12567 7.74539 5.01293 7.58838L3.94849 6.10208C3.85009 5.97221 3.84723 5.79355 3.94149 5.6606C4.19727 5.34359 4.47171 5.04207 4.76328 4.75759C5.04652 4.47149 5.34399 4.19982 5.65459 3.94372C5.78828 3.84182 5.97358 3.84182 6.10727 3.94372L7.59126 5.00867C7.74845 5.12112 7.95872 5.12499 8.12001 5.01848C9.24189 4.27653 10.4953 3.75585 11.8127 3.48455C12.0021 3.44553 12.1478 3.29368 12.1791 3.10281L12.4726 1.30568C12.4937 1.14449 12.6175 1.01595 12.7778 0.988817C13.0246 0.963156 13.2748 0.944959 13.5333 0.934685L13.523 4.6731C8.55476 4.92685 4.65741 9.03059 4.66018 14.0054C4.6629 18.9801 8.56476 23.0796 13.5333 23.3279L13.5268 27.0677C13.2762 27.0574 13.0279 27.0379 12.7829 27.0103C12.6219 26.9868 12.4957 26.8598 12.4731 26.6986L12.1791 24.9005C12.1478 24.7096 12.0022 24.5578 11.8127 24.5188C10.4953 24.2472 9.24189 23.7265 8.12001 22.9844C7.95862 22.878 7.74841 22.8821 7.59126 22.9947L6.10589 24.0605C5.9792 24.159 5.80321 24.1638 5.67141 24.0722C5.32842 23.7833 5.03113 23.5122 4.76328 23.2448C4.47714 22.962 4.20566 22.6649 3.94988 22.3544C3.84921 22.2199 3.84921 22.0353 3.94988 21.9008L5.01339 20.4159C5.12599 20.2588 5.13009 20.0485 5.02367 19.8871C4.28195 18.7645 3.76145 17.5105 3.49019 16.1926C3.45122 16.0033 3.2996 15.8576 3.10892 15.8262L1.31225 15.5317C1.14502 15.5041 1.01663 15.3685 0.998197 15.2C0.910803 14.3973 0.911725 13.5874 1.00101 12.785C1.02423 12.6238 1.15101 12.4972 1.31225 12.4742L3.10842 12.1802C3.29983 12.1489 3.45182 12.0023 3.49019 11.8121Z" fill="url(#paint0_linear_1591_2639)"/>
<path d="M26.5998 12.6011C26.0087 12.6035 25.4828 12.977 25.2857 13.5344H14.4666V12.1344H21.9332C22.7064 12.1344 23.3332 11.5076 23.3332 10.7344V8.31524C23.976 8.08798 24.3616 7.43061 24.2463 6.7586C24.131 6.08658 23.5483 5.59534 22.8665 5.59534C22.1847 5.59534 21.602 6.08658 21.4867 6.7586C21.3713 7.43061 21.7569 8.08798 22.3998 8.31524V10.7344C22.3998 10.9921 22.1909 11.2011 21.9331 11.2011H14.4666V9.80108H19.5999C19.8576 9.80108 20.0665 9.59216 20.0665 9.3344C20.0665 9.07664 19.8576 8.86771 19.5999 8.86771H14.4666V7.93439H17.2666C18.0398 7.93439 18.6666 7.30761 18.6666 6.53438V3.64862C19.3094 3.42136 19.6951 2.76399 19.5797 2.09198C19.4644 1.41996 18.8817 0.928719 18.1999 0.928719C17.5181 0.928719 16.9354 1.41996 16.8201 2.09198C16.7048 2.76399 17.0904 3.42136 17.7332 3.64862V6.53447C17.7332 6.79218 17.5243 7.00115 17.2665 7.00115H14.3434C14.1828 6.70276 13.8624 6.52604 13.5244 6.54944C9.59185 6.79854 6.52979 10.0607 6.52979 14.0011C6.52979 17.9415 9.59185 21.2037 13.5244 21.4528H13.579C13.8978 21.4554 14.1919 21.2816 14.3434 21.0011H17.2665C17.5242 21.0011 17.7332 21.21 17.7332 21.4677V24.3536C17.0904 24.5809 16.7048 25.2382 16.8201 25.9102C16.9354 26.5823 17.5181 27.0735 18.1999 27.0735C18.8817 27.0735 19.4644 26.5823 19.5797 25.9102C19.6951 25.2382 19.3094 24.5809 18.6666 24.3536V21.4677C18.6666 20.6946 18.0398 20.0677 17.2666 20.0677H14.4666V19.1344H19.5999C19.8576 19.1344 20.0665 18.9255 20.0665 18.6678C20.0665 18.4101 19.8576 18.2011 19.5999 18.2011H14.4666V16.8011H21.9332C22.1909 16.8011 22.3999 17.0101 22.3999 17.2678V19.6869C21.757 19.9142 21.3714 20.5716 21.4867 21.2436C21.6021 21.9156 22.1847 22.4068 22.8666 22.4068C23.5484 22.4068 24.1311 21.9156 24.2464 21.2436C24.3617 20.5716 23.9761 19.9142 23.3333 19.6869V17.2678C23.3333 16.4946 22.7065 15.8678 21.9333 15.8678H14.4666V14.4677H25.2857C25.5241 15.1372 26.227 15.5211 26.9192 15.3599C27.6114 15.1988 28.0724 14.5439 27.9907 13.8379C27.9089 13.1321 27.3104 12.5998 26.5998 12.6011ZM22.8665 6.53447C23.1242 6.53447 23.3332 6.74339 23.3332 7.00115C23.3332 7.25891 23.1242 7.46784 22.8665 7.46784C22.6088 7.46784 22.3999 7.25891 22.3999 7.00115C22.3999 6.74339 22.6088 6.53447 22.8665 6.53447ZM18.1999 1.86785C18.4576 1.86785 18.6666 2.07677 18.6666 2.33453C18.6666 2.59229 18.4577 2.80117 18.1999 2.80117C17.9421 2.80117 17.7333 2.59225 17.7333 2.33453C17.7333 2.07682 17.9421 1.86785 18.1999 1.86785ZM18.1999 26.1343C17.9422 26.1343 17.7333 25.9254 17.7333 25.6676C17.7333 25.4098 17.9422 25.2009 18.1999 25.2009C18.4576 25.2009 18.6666 25.4098 18.6666 25.6676C18.6666 25.9254 18.4576 26.1343 18.1999 26.1343ZM22.8665 21.4677C22.6088 21.4677 22.3999 21.2587 22.3999 21.001C22.3999 20.7432 22.6088 20.5343 22.8665 20.5343C23.1242 20.5343 23.3332 20.7433 23.3332 21.001C23.3332 21.2587 23.1242 21.4677 22.8665 21.4677ZM7.46666 14.0011C7.47057 10.5755 10.1167 7.73315 13.5333 7.48461V20.5176C10.1167 20.269 7.47057 17.4266 7.46666 14.0011ZM26.5998 14.4677C26.3421 14.4677 26.1331 14.2588 26.1331 14.001C26.1331 13.7433 26.3421 13.5344 26.5998 13.5344C26.8576 13.5344 27.0665 13.7433 27.0665 14.001C27.0665 14.2587 26.8575 14.4677 26.5998 14.4677Z" fill="url(#paint1_linear_1591_2639)"/>
<defs>
<linearGradient id="paint0_linear_1591_2639" x1="15.1951" y1="-1.79611" x2="1.34369" y2="20.5054" gradientUnits="userSpaceOnUse">
<stop stop-color="#0FA6FC"/>
<stop offset="0.953125" stop-color="#D048FC"/>
</linearGradient>
<linearGradient id="paint1_linear_1591_2639" x1="29.0814" y1="-0.748593" x2="19.299" y2="24.2857" gradientUnits="userSpaceOnUse">
<stop stop-color="#0FA6FC"/>
<stop offset="0.953125" stop-color="#D048FC"/>
</linearGradient>
</defs>
</svg>
