<svg width="28" height="28" viewBox="0 0 28 28" fill="none" xmlns="http://www.w3.org/2000/svg">
<path d="M21.535 7.20465C20.8424 7.20465 20.281 7.7661 20.281 8.45871C20.281 9.1513 20.8424 9.71275 21.535 9.71275C22.2276 9.71275 22.7891 9.1513 22.7891 8.45871C22.7891 7.7661 22.2276 7.20465 21.535 7.20465ZM25.0549 7.56381L24.7154 7.84332C24.3281 8.16217 24.3281 8.75523 24.7154 9.07408L25.0549 9.35359C25.1752 9.45265 25.2063 9.62418 25.1284 9.75916L24.4579 10.9204C24.38 11.0554 24.2159 11.1142 24.07 11.0596L23.6581 10.9053C23.1884 10.7293 22.6747 11.0258 22.5923 11.5207L22.52 11.9545C22.4943 12.1082 22.3613 12.2209 22.2055 12.2209H20.8646C20.7087 12.2209 20.5757 12.1082 20.5501 11.9545L20.4778 11.5207C20.3953 11.0258 19.8817 10.7293 19.4119 10.9053L19.0001 11.0596C18.8541 11.1142 18.69 11.0554 18.6121 10.9204L17.9417 9.75916C17.8637 9.62418 17.8948 9.45265 18.0151 9.35359L18.3547 9.07408C18.742 8.75523 18.742 8.16217 18.3547 7.84332L18.0151 7.56381C17.8948 7.46475 17.8637 7.29322 17.9417 7.15824L18.6121 5.99699C18.69 5.86201 18.8541 5.80316 19.0001 5.85784L19.4119 6.01212C19.8817 6.18811 20.3953 5.89159 20.4778 5.39675L20.5501 4.96293C20.5757 4.80921 20.7087 4.69654 20.8646 4.69654H22.2055C22.3613 4.69654 22.4943 4.80921 22.52 4.96293L22.5923 5.39675C22.6747 5.89159 23.1884 6.18811 23.6581 6.01212L24.07 5.85784C24.2159 5.80316 24.38 5.86201 24.4579 5.99699L25.1284 7.15824C25.2063 7.29322 25.1752 7.46475 25.0549 7.56381Z" stroke="url(#paint0_linear_1591_2751)" stroke-width="0.938691" stroke-miterlimit="10" stroke-linecap="round" stroke-linejoin="round"/>
<path d="M24.4038 11.2935L26.1228 13.5625" stroke="url(#paint1_linear_1591_2751)" stroke-width="0.938691" stroke-linecap="round"/>
<path fill-rule="evenodd" clip-rule="evenodd" d="M2.56125 5.93541C2.56125 5.38436 3.00796 4.93765 3.55901 4.93765H14.9301V3.99895H3.55901C2.48954 3.99895 1.62256 4.86593 1.62256 5.93541V19.454C1.62256 20.5234 2.48954 21.3904 3.55901 21.3904H13.3533V23.4889C13.3533 23.4955 13.3535 23.5021 13.3537 23.5087L10.2636 23.4814C10.0044 23.4791 9.79245 23.6874 9.79016 23.9466C9.78787 24.2058 9.99614 24.4178 10.2553 24.4201L17.3792 24.483C17.6384 24.4853 17.8504 24.2771 17.8527 24.0178C17.855 23.7586 17.6467 23.5467 17.3875 23.5444L14.2912 23.517C14.2917 23.5077 14.292 23.4983 14.292 23.4889V21.3904H23.4483C24.5177 21.3904 25.3847 20.5234 25.3847 19.454V15.2886H24.446V19.454C24.446 20.005 23.9993 20.4517 23.4483 20.4517H3.55901C3.00796 20.4517 2.56125 20.005 2.56125 19.454V5.93541ZM12.9476 11.3332L16.2438 14.5383C16.5039 14.3647 16.8163 14.2635 17.1524 14.2635C17.3718 14.2635 17.581 14.3066 17.7723 14.3848L18.7292 12.913L18.985 12.5195L19.772 13.0311L19.5162 13.4246L18.506 14.9785C18.6857 15.2414 18.7909 15.5594 18.7909 15.902C18.7909 16.8069 18.0573 17.5405 17.1524 17.5405C16.2475 17.5405 15.5139 16.8069 15.5139 15.902C15.5139 15.6755 15.5599 15.4596 15.643 15.2634L12.2965 12.0094C12.0586 12.144 11.7837 12.2208 11.4908 12.2208C11.1831 12.2208 10.8951 12.1359 10.6491 11.9884L7.03052 15.163C7.14293 15.385 7.20627 15.6361 7.20627 15.902C7.20627 16.8069 6.47269 17.5405 5.56777 17.5405C4.66285 17.5405 3.92927 16.8069 3.92927 15.902C3.92927 14.9971 4.66285 14.2635 5.56777 14.2635C5.8651 14.2635 6.14393 14.3427 6.38432 14.4812L10.0153 11.2956C9.91091 11.08 9.85234 10.838 9.85234 10.5823C9.85234 9.67738 10.5859 8.9438 11.4908 8.9438C12.3958 8.9438 13.1293 9.67738 13.1293 10.5823C13.1293 10.8529 13.0637 11.1082 12.9476 11.3332ZM5.56777 16.6018C5.95426 16.6018 6.26758 16.2885 6.26758 15.902C6.26758 15.5155 5.95426 15.2022 5.56777 15.2022C5.18127 15.2022 4.86796 15.5155 4.86796 15.902C4.86796 16.2885 5.18127 16.6018 5.56777 16.6018ZM12.1907 10.5823C12.1907 10.9688 11.8773 11.2821 11.4908 11.2821C11.1044 11.2821 10.791 10.9688 10.791 10.5823C10.791 10.1958 11.1044 9.88249 11.4908 9.88249C11.8773 9.88249 12.1907 10.1958 12.1907 10.5823Z" fill="url(#paint2_linear_1591_2751)"/>
<defs>
<linearGradient id="paint0_linear_1591_2751" x1="25.5374" y1="12.7036" x2="23.0538" y2="5.22333" gradientUnits="userSpaceOnUse">
<stop stop-color="#0FA6FC"/>
<stop offset="0.953125" stop-color="#D048FC"/>
</linearGradient>
<linearGradient id="paint1_linear_1591_2751" x1="26.5026" y1="11.4372" x2="25.5875" y2="13.3574" gradientUnits="userSpaceOnUse">
<stop stop-color="#0FA6FC"/>
<stop offset="0.953125" stop-color="#D048FC"/>
</linearGradient>
<linearGradient id="paint2_linear_1591_2751" x1="26.5815" y1="2.6848" x2="20.7718" y2="23.6867" gradientUnits="userSpaceOnUse">
<stop stop-color="#0FA6FC"/>
<stop offset="0.953125" stop-color="#D048FC"/>
</linearGradient>
</defs>
</svg>
