<svg width="68" height="68" viewBox="0 0 68 68" fill="none" xmlns="http://www.w3.org/2000/svg">
<circle cx="34" cy="34" r="34" fill="#E3E3E3" fill-opacity="0.43"/>
<g clip-path="url(#clip0_2539_2626)">
<path d="M20.1848 33.8382H16.0333C15.4627 33.8382 15 33.3755 15 32.8048C15 32.2342 15.4627 31.7715 16.0333 31.7715H20.1848C20.7555 31.7715 21.2182 32.2342 21.2182 32.8048C21.2182 33.3755 20.7555 33.8382 20.1848 33.8382Z" fill="#6CF5C2"/>
<path d="M50.9406 46.1094H20.6938C19.5566 46.1094 18.6348 45.1875 18.6348 44.0503V39.072C18.6348 29.5824 26.3276 21.8896 35.8172 21.8896C45.3068 21.8896 52.9995 29.5825 52.9995 39.072V44.0503C52.9996 45.1875 52.0777 46.1094 50.9406 46.1094Z" fill="#7CA1B1"/>
<path d="M35.8178 21.8896C35.3144 21.8896 34.8165 21.9126 34.3242 21.955C43.1142 22.712 50.013 30.0858 50.013 39.072V44.0503C50.013 45.1875 49.0912 46.1094 47.954 46.1094H50.9411C52.0783 46.1094 53.0002 45.1875 53.0002 44.0503V39.072C53.0002 29.5825 45.3073 21.8896 35.8178 21.8896Z" fill="#678D98"/>
<path d="M34.9572 41.9846L31.647 44.0513H27.9082L20.7017 42.4897L20.7012 39.0719C20.7012 34.6251 22.6317 30.6193 25.6993 27.8516L34.9572 41.9846Z" fill="#EEF5F6"/>
<path d="M44.4005 28.0237L45.3674 29.5888L43.6616 34.8124L38.5595 41.7756L33.4926 41.8153L25.6992 27.8516C28.0411 25.7367 31.0475 24.3445 34.362 24.0264C38.309 24.0264 41.7199 25.6038 44.4005 28.0237Z" fill="#A8D3D8"/>
<path d="M45.9351 27.8518L45.3678 29.589L44.8433 29.8084C44.2951 29.1043 43.6864 28.449 43.0243 27.8519C40.6824 25.7378 37.6768 24.3448 34.3623 24.0266C34.8417 23.9808 35.3265 23.957 35.8173 23.957C39.7045 23.957 43.2545 25.4319 45.9351 27.8518Z" fill="#8EBAC5"/>
<path d="M49.5681 39.0741V43.4083C49.5681 43.7596 47.8598 44.0427 47.5086 44.0427L39.9883 44.0508L39.4561 42.6307V39.4541L44.8438 29.8076C47.9122 32.5755 49.5681 34.6272 49.5681 39.0741Z" fill="#6CF5C2"/>
<path d="M45.9348 27.8516L44.8428 29.8083C46.8349 32.3688 48.0221 35.5846 48.0221 39.072V43.2762C48.0221 43.6126 47.8189 43.9156 47.5077 44.0433H50.2968C50.6481 44.0433 50.9329 43.7585 50.9329 43.4072V39.072C50.9329 34.6251 49.003 30.6194 45.9348 27.8516Z" fill="#00F2A6"/>
<path d="M27.9086 44.0511H16.0333C15.4627 44.0511 15 43.5884 15 43.0177C15 42.4471 15.4627 41.9844 16.0333 41.9844H27.9086C28.4792 41.9844 28.9419 42.4471 28.9419 43.0177C28.9419 43.5884 28.4792 44.0511 27.9086 44.0511Z" fill="#6CF5C2"/>
<path d="M22.7236 38.9446H16.0333C15.4627 38.9446 15 38.482 15 37.9113C15 37.3406 15.4627 36.8779 16.0333 36.8779H22.7236C23.2943 36.8779 23.757 37.3406 23.757 37.9113C23.757 38.482 23.2943 38.9446 22.7236 38.9446Z" fill="#00F2A6"/>
<path d="M27.4605 38.9446H27.0148C26.4441 38.9446 25.9814 38.4819 25.9814 37.9113C25.9814 37.3406 26.4441 36.8779 27.0148 36.8779H27.4605C28.0311 36.8779 28.4938 37.3406 28.4938 37.9113C28.4938 38.482 28.0312 38.9446 27.4605 38.9446Z" fill="#6CF5C2"/>
<path d="M34.5904 33.8382H26.1291C25.5584 33.8382 25.0957 33.3755 25.0957 32.8048C25.0957 32.2342 25.5584 31.7715 26.1291 31.7715H34.5905C35.1612 31.7715 35.6239 32.2342 35.6239 32.8048C35.6238 33.3755 35.1612 33.8382 34.5904 33.8382Z" fill="#00F2A6"/>
<path d="M44.7437 35.974L40.0693 38.8162C39.8129 38.9722 39.6014 39.1922 39.4557 39.4546L38.3096 41.5199L39.6165 42.7871L41.6455 41.5778C41.9033 41.4241 42.1167 41.206 42.2646 40.9448L44.9614 36.185C45.0409 36.0445 44.8816 35.8901 44.7437 35.974Z" fill="#FE76A8"/>
<path d="M37.0008 44.051H31.6475V43.7496C31.6475 41.9728 32.7587 40.4566 34.3241 39.8559C34.3241 39.8559 37.2825 39.5793 38.1867 43.0176L37.0008 44.051Z" fill="#7CA1B1"/>
<path d="M35.8178 39.5801C35.2913 39.5801 34.7881 39.6786 34.3242 39.8567C35.8893 40.4575 37.0008 41.9737 37.0008 43.7504V44.0518H39.988V43.7504C39.988 41.4472 38.121 39.5801 35.8178 39.5801Z" fill="#678D98"/>
</g>
<defs>
<clipPath id="clip0_2539_2626">
<rect width="38" height="38" fill="white" transform="translate(15 15)"/>
</clipPath>
</defs>
</svg>
