<svg width="64" height="64" viewBox="0 0 64 64" fill="none" xmlns="http://www.w3.org/2000/svg">
<g clip-path="url(#clip0_3377_247)">
<path d="M62.3027 0.930664H38.4084C37.472 0.930664 36.7129 1.78818 36.7129 2.84595V40.7353C36.7129 41.7931 37.472 42.6506 38.4084 42.6506H62.3027C63.2391 42.6506 63.9981 41.7931 63.9981 40.7353V2.84595C63.9981 1.78818 63.239 0.930664 62.3027 0.930664Z" fill="#3A556A"/>
<path d="M62.3027 0.00146484H38.4084C37.472 0.00146484 36.7129 0.85898 36.7129 1.91675V39.8061C36.7129 40.8639 37.472 41.7214 38.4084 41.7214H62.3027C63.2391 41.7214 63.9981 40.8639 63.9981 39.8061V1.91688C63.9981 0.85898 63.239 0.00146484 62.3027 0.00146484Z" fill="#64798A"/>
<path d="M61.2873 2.35205H39.4189V12.5036H61.2873V2.35205Z" fill="#44C4A1"/>
<path d="M61.2873 11.0957H39.4189V12.5044H61.2873V11.0957Z" fill="#3EA69B"/>
<path d="M49.5052 14.666H39.4189V26.0589H49.5052V14.666Z" fill="#FCD462"/>
<path d="M61.2914 14.666H51.2051V26.0589H61.2914V14.666Z" fill="#27A2DB"/>
<path d="M49.5052 24.4624H39.4189V26.0576H49.5052V24.4624Z" fill="#F6C358"/>
<path d="M61.2914 24.4624H51.2051V26.0576H61.2914V24.4624Z" fill="#2D93BA"/>
<path d="M49.5052 27.9795H39.4189V39.3724H49.5052V27.9795Z" fill="#E56353"/>
<path d="M61.2914 27.9795H51.2051V39.3724H61.2914V27.9795Z" fill="#EBF0F3"/>
<path d="M49.5052 37.7759H39.4189V39.3711H49.5052V37.7759Z" fill="#D15241"/>
<path d="M47.4578 19.8877H41.4653V20.8357H47.4578V19.8877Z" fill="#DC8744"/>
<path d="M44.8847 16.9766H44.0454V23.7455H44.8847V16.9766Z" fill="#DC8744"/>
<path d="M46.2849 36.4031L46.8782 35.7329L42.6412 30.9463L42.0479 31.6166L46.2849 36.4031Z" fill="white"/>
<path d="M42.0479 35.7329L42.6412 36.4031L46.8782 31.6166L46.2849 30.9463L42.0479 35.7329Z" fill="white"/>
<path d="M59.2444 31.3999H53.252V32.3479H59.2444V31.3999Z" fill="#64798A"/>
<path d="M59.2444 34.9995H53.252V35.9475H59.2444V34.9995Z" fill="#64798A"/>
<path d="M59.2444 19.8877H53.252V20.8357H59.2444V19.8877Z" fill="white"/>
<path d="M61.2914 37.7759H51.2051V39.3711H61.2914V37.7759Z" fill="#E1E6E9"/>
<path d="M17.0661 62.8409L46.0337 30.5781L28.9662 15.2539L-0.00136184 47.5167L17.0661 62.8409Z" fill="#3EA69B"/>
<path d="M15.4141 59.2408L3.76145 48.7793C4.49931 47.9574 4.43121 46.6929 3.60938 45.955L27.7966 19.0144C28.6185 19.7522 29.883 19.6841 30.6209 18.8623L42.2735 29.324C41.5356 30.1458 41.6037 31.4103 42.4256 32.1482L18.2383 59.0887C17.4165 58.3509 16.1519 58.4189 15.4141 59.2408Z" fill="#44C4A1"/>
<path d="M26.9936 34.628C23.7781 31.741 19.3925 31.3818 17.1981 33.8258C15.0038 36.2698 15.8315 40.5915 19.047 43.4786C22.2625 46.3656 26.648 46.7248 28.8424 44.2808C31.0368 41.8368 30.2091 37.5151 26.9936 34.628Z" fill="#3EA69B"/>
<path d="M35.1726 25.5133C34.5978 24.9972 33.7291 25.0275 33.2322 25.5808C32.7354 26.1342 32.7986 27.0012 33.3733 27.5172C33.9481 28.0333 34.8168 28.0031 35.3137 27.4497C35.8106 26.8963 35.7474 26.0294 35.1726 25.5133Z" fill="#3EA69B"/>
<path d="M12.6711 50.5836C12.0964 50.0675 11.2276 50.0978 10.7308 50.6511C10.2339 51.2045 10.2971 52.0715 10.8719 52.5875C11.4466 53.1036 12.3154 53.0734 12.8122 52.52C13.3091 51.9666 13.2459 51.0997 12.6711 50.5836Z" fill="#3EA69B"/>
<path d="M27.4919 43.5003L26.6662 42.7589C25.6678 43.6589 24.4552 44.1827 23.0296 44.3298L22.7588 42.6518C23.8564 42.5367 24.7471 42.2038 25.4334 41.6522L23.2387 39.6819C22.2989 40.3193 21.4919 40.6793 20.8181 40.7623C20.1443 40.8452 19.4813 40.5938 18.829 40.0083C18.1768 39.4228 17.8397 38.725 17.8189 37.9129C17.7986 37.1012 18.0854 36.3271 18.6799 35.5891L18.1142 35.0811L18.7392 34.3849L19.316 34.9028C20.0931 34.1593 21.0532 33.6584 22.1972 33.4009L22.6025 35.0429C21.8179 35.2038 21.1341 35.5257 20.549 36.0098L22.6756 37.9189L22.705 37.8861C23.658 37.2348 24.4834 36.8691 25.1816 36.7888C25.8809 36.708 26.5602 36.9643 27.2198 37.5566C27.8798 38.1491 28.2154 38.8568 28.2257 39.6786C28.2369 40.5014 27.9294 41.2985 27.3023 42.0729L28.1166 42.804L27.4919 43.5003ZM19.5008 37.7129C19.5041 38.0502 19.6326 38.3319 19.8853 38.5587C20.1381 38.7855 20.403 38.8923 20.6802 38.8789C20.9572 38.8668 21.3466 38.7173 21.8474 38.4327L19.8901 36.6756C19.6271 37.0296 19.4972 37.3753 19.5008 37.7129ZM26.5181 39.8747C26.5271 39.5165 26.3999 39.2183 26.1357 38.9811C25.8719 38.7443 25.5909 38.6359 25.2932 38.6566C24.9946 38.6781 24.5824 38.8456 24.0562 39.1584L26.0921 40.9862C26.3672 40.6047 26.5087 40.2342 26.5181 39.8747Z" fill="#44C4A1"/>
<path d="M17.0685 51.5968L46.0361 19.334L28.9687 4.00975L0.00108098 36.2726L17.0685 51.5968Z" fill="#3EA69B"/>
<path d="M15.4141 47.9948L3.76145 37.5332C4.49931 36.7113 4.43121 35.4468 3.60938 34.7089L27.7966 7.76829C28.6185 8.50615 29.883 8.43805 30.6209 7.61621L42.2735 18.0779C41.5356 18.8997 41.6037 20.1642 42.4256 20.9021L18.2383 47.8427C17.4165 47.1049 16.1519 47.173 15.4141 47.9948Z" fill="#44C4A1"/>
<path d="M26.9921 23.38C23.7766 20.4929 19.3911 20.1338 17.1967 22.5778C15.0023 25.0218 15.8301 29.3435 19.0455 32.2305C22.261 35.1176 26.6466 35.4767 28.841 33.0327C31.0353 30.5887 30.2076 26.267 26.9921 23.38Z" fill="#3EA69B"/>
<path d="M35.1721 14.2687C34.5973 13.7526 33.7286 13.7828 33.2318 14.3362C32.7349 14.8896 32.7981 15.7565 33.3728 16.2726C33.9476 16.7887 34.8164 16.7584 35.3132 16.2051C35.8101 15.6517 35.7469 14.7847 35.1721 14.2687Z" fill="#3EA69B"/>
<path d="M12.6672 39.3375C12.0925 38.8214 11.2237 38.8517 10.7269 39.405C10.23 39.9584 10.2932 40.8254 10.868 41.3414C11.4427 41.8575 12.3115 41.8273 12.8083 41.2739C13.3052 40.7205 13.242 39.8536 12.6672 39.3375Z" fill="#3EA69B"/>
<path d="M27.4919 32.2542L26.6662 31.5128C25.6678 32.4128 24.4552 32.9366 23.0296 33.0837L22.7588 31.4057C23.8564 31.2906 24.7471 30.9577 25.4334 30.4061L23.2387 28.4358C22.2989 29.0732 21.4919 29.4333 20.8181 29.5162C20.1443 29.5991 19.4813 29.3477 18.829 28.7622C18.1767 28.1767 17.8397 27.4789 17.8189 26.6668C17.7986 25.8551 18.0854 25.081 18.6799 24.343L18.1142 23.8351L18.7392 23.1389L19.316 23.6567C20.0931 22.9132 21.0532 22.4123 22.1972 22.1548L22.6025 23.7968C21.8179 23.9577 21.1341 24.2796 20.549 24.7637L22.6756 26.6728L22.705 26.64C23.658 25.9887 24.4834 25.623 25.1816 25.5427C25.8809 25.4619 26.5602 25.7182 27.2198 26.3105C27.8798 26.903 28.2154 27.6107 28.2257 28.4325C28.2369 29.2553 27.9294 30.0524 27.3023 30.8268L28.1166 31.5579L27.4919 32.2542ZM19.5008 26.4668C19.5041 26.8041 19.6326 27.0858 19.8853 27.3126C20.1381 27.5395 20.403 27.6462 20.6802 27.6328C20.9572 27.6207 21.3466 27.4712 21.8474 27.1866L19.8901 25.4295C19.6271 25.7835 19.4972 26.1292 19.5008 26.4668ZM26.5181 28.6286C26.5271 28.2704 26.3999 27.9722 26.1357 27.735C25.8719 27.4982 25.5909 27.39 25.2932 27.4105C24.9946 27.432 24.5824 27.5995 24.0562 27.9125L26.0921 29.7403C26.3672 29.3586 26.5087 28.9881 26.5181 28.6286Z" fill="#44C4A1"/>
<path d="M40.7698 59.3675C40.7698 61.9252 35.8383 63.9987 29.755 63.9987C23.6717 63.9987 18.7402 61.9252 18.7402 59.3675V55.5791H40.7696V59.3675H40.7698Z" fill="#F6C358"/>
<path d="M29.7546 60.2101C35.838 60.2101 40.7695 58.1367 40.7695 55.5789C40.7695 53.0212 35.838 50.9478 29.7546 50.9478C23.6713 50.9478 18.7397 53.0212 18.7397 55.5789C18.7397 58.1367 23.6713 60.2101 29.7546 60.2101Z" fill="#FCD462"/>
<path d="M29.7552 51.8525C24.4461 51.8525 20.1421 53.521 20.1421 55.5791C20.1421 57.6372 24.4461 59.3056 29.7552 59.3056C35.0644 59.3056 39.3683 57.6372 39.3683 55.5791C39.3683 53.5208 35.0644 51.8525 29.7552 51.8525ZM29.7552 58.8914C25.036 58.8914 21.2103 57.4084 21.2103 55.5789C21.2103 53.7495 25.036 52.2665 29.7552 52.2665C34.4744 52.2665 38.3002 53.7495 38.3002 55.5789C38.3002 57.4084 34.4744 58.8914 29.7552 58.8914Z" fill="#DC8744"/>
<path d="M29.4029 58.1535V57.7001C27.9387 57.6423 26.6244 57.4165 25.4614 57.0233L26.6309 56.483C27.528 56.7852 28.451 56.9651 29.4029 57.0233V55.8184C28.1956 55.7067 27.3116 55.5596 26.751 55.3774C26.1903 55.1953 25.91 54.9251 25.91 54.5669C25.91 54.2089 26.232 53.9159 26.8787 53.6879C27.5254 53.4602 28.3664 53.3361 29.4029 53.3154V53.0049H30.4278V53.3215C31.6026 53.3549 32.7133 53.5101 33.7604 53.7875L32.7187 54.3589C32.0132 54.1642 31.2505 54.0442 30.4279 53.9985V55.166H30.4762C31.7044 55.278 32.6067 55.4291 33.183 55.6194C33.7606 55.8098 34.0487 56.0864 34.0487 56.4485C34.0487 56.8108 33.7175 57.106 33.0551 57.3335C32.3928 57.5615 31.5179 57.6855 30.4279 57.7062V58.1534H29.4029V58.1535ZM28.2725 54.1447C28 54.2376 27.8644 54.3537 27.8644 54.4925C27.8644 54.6312 27.9713 54.7409 28.1851 54.8215C28.3976 54.9023 28.8045 54.9799 29.4029 55.0545V53.98C28.9218 53.9965 28.545 54.0513 28.2725 54.1447ZM31.6455 56.8679C31.9441 56.7728 32.0941 56.6528 32.0941 56.5077C32.0941 56.3629 31.9768 56.248 31.742 56.1631C31.506 56.0782 31.068 55.9985 30.4278 55.924V57.0418C30.9402 57.0212 31.3457 56.9632 31.6455 56.8679Z" fill="#DC8744"/>
<path d="M40.7698 54.7664C40.7698 57.3241 35.8383 59.3976 29.755 59.3976C23.6717 59.3976 18.7402 57.3241 18.7402 54.7664V50.978H40.7696V54.7664H40.7698Z" fill="#F6C358"/>
<path d="M29.7546 55.6105C35.838 55.6105 40.7695 53.5371 40.7695 50.9793C40.7695 48.4216 35.838 46.3481 29.7546 46.3481C23.6713 46.3481 18.7397 48.4216 18.7397 50.9793C18.7397 53.5371 23.6713 55.6105 29.7546 55.6105Z" fill="#FCD462"/>
<path d="M29.7552 47.2515C24.4461 47.2515 20.1421 48.9199 20.1421 50.978C20.1421 53.0361 24.4461 54.7045 29.7552 54.7045C35.0644 54.7045 39.3683 53.0361 39.3683 50.978C39.3683 48.9199 35.0644 47.2515 29.7552 47.2515ZM29.7552 54.2905C25.036 54.2905 21.2103 52.8075 21.2103 50.978C21.2103 49.1485 25.036 47.6655 29.7552 47.6655C34.4744 47.6655 38.3002 49.1485 38.3002 50.978C38.3002 52.8075 34.4744 54.2905 29.7552 54.2905Z" fill="#DC8744"/>
<path d="M29.4029 53.5524V53.0991C27.9387 53.0412 26.6244 52.8155 25.4614 52.4223L26.6309 51.8819C27.528 52.1841 28.451 52.3641 29.4029 52.4223V51.2174C28.1956 51.1056 27.3116 50.9585 26.751 50.7764C26.1903 50.5942 25.91 50.324 25.91 49.9659C25.91 49.6077 26.232 49.3148 26.8787 49.0869C27.5254 48.8591 28.3664 48.735 29.4029 48.7143V48.4038H30.4278V48.7205C31.6026 48.7538 32.7133 48.909 33.7604 49.1865L32.7187 49.7578C32.0132 49.5631 31.2505 49.4432 30.4279 49.3974V50.5649H30.4762C31.7044 50.6769 32.6067 50.8281 33.183 51.0183C33.7606 51.2089 34.0487 51.4853 34.0487 51.8474C34.0487 52.2098 33.7175 52.5049 33.0551 52.7324C32.3928 52.9604 31.5179 53.0845 30.4279 53.1052V53.5523L29.4029 53.5524ZM28.2725 49.5435C28 49.6364 27.8644 49.7525 27.8644 49.8912C27.8644 50.03 27.9713 50.1397 28.1851 50.2203C28.3976 50.3011 28.8045 50.3787 29.4029 50.4533V49.3788C28.9218 49.3954 28.545 49.4503 28.2725 49.5435ZM31.6455 52.2668C31.9441 52.1717 32.0941 52.0517 32.0941 51.9067C32.0941 51.7619 31.9768 51.6469 31.742 51.562C31.506 51.4771 31.068 51.3974 30.4278 51.323V52.4407C30.9402 52.4202 31.3457 52.3621 31.6455 52.2668Z" fill="#DC8744"/>
<path d="M40.7698 50.1653C40.7698 52.723 35.8383 54.7965 29.755 54.7965C23.6717 54.7965 18.7402 52.723 18.7402 50.1653V46.377H40.7696V50.1653H40.7698Z" fill="#F6C358"/>
<path d="M29.7546 51.0104C35.838 51.0104 40.7695 48.937 40.7695 46.3792C40.7695 43.8215 35.838 41.748 29.7546 41.748C23.6713 41.748 18.7397 43.8215 18.7397 46.3792C18.7397 48.937 23.6713 51.0104 29.7546 51.0104Z" fill="#FCD462"/>
<path d="M29.7552 42.6504C24.4461 42.6504 20.1421 44.3188 20.1421 46.3769C20.1421 48.435 24.4461 50.1035 29.7552 50.1035C35.0644 50.1035 39.3683 48.435 39.3683 46.3769C39.3683 44.3188 35.0644 42.6504 29.7552 42.6504ZM29.7552 49.6894C25.036 49.6894 21.2103 48.2064 21.2103 46.3769C21.2103 44.5474 25.036 43.0644 29.7552 43.0644C34.4744 43.0644 38.3002 44.5474 38.3002 46.3769C38.3002 48.2063 34.4744 49.6894 29.7552 49.6894Z" fill="#DC8744"/>
<path d="M29.4029 48.9513V48.498C27.9387 48.4402 26.6244 48.2144 25.4614 47.8212L26.6309 47.2808C27.528 47.583 28.451 47.763 29.4029 47.8212V46.6163C28.1956 46.5046 27.3116 46.3574 26.751 46.1753C26.1903 45.9931 25.91 45.723 25.91 45.3648C25.91 45.0067 26.232 44.7138 26.8787 44.4858C27.5254 44.2581 28.3664 44.134 29.4029 44.1133V43.8027H30.4278V44.1194C31.6026 44.1527 32.7133 44.3079 33.7604 44.5854L32.7187 45.1567C32.0132 44.9621 31.2505 44.8421 30.4279 44.7963V45.9638H30.4762C31.7044 46.0758 32.6067 46.227 33.183 46.4172C33.7606 46.6077 34.0487 46.8842 34.0487 47.2463C34.0487 47.6087 33.7175 47.9039 33.0551 48.1313C32.3928 48.3593 31.5179 48.4834 30.4279 48.5041V48.9512H29.4029V48.9513ZM28.2725 44.9425C28 45.0355 27.8644 45.1515 27.8644 45.2903C27.8644 45.4291 27.9713 45.5387 28.1851 45.6193C28.3976 45.7002 28.8045 45.7778 29.4029 45.8524V44.7778C28.9218 44.7945 28.545 44.8493 28.2725 44.9425ZM31.6455 47.6658C31.9441 47.5708 32.0941 47.4508 32.0941 47.3057C32.0941 47.1609 31.9768 47.046 31.742 46.9611C31.506 46.8762 31.068 46.7965 30.4278 46.722V47.8398C30.9402 47.8192 31.3457 47.7612 31.6455 47.6658Z" fill="#DC8744"/>
<path d="M40.7698 45.5643C40.7698 48.122 35.8383 50.1954 29.755 50.1954C23.6717 50.1954 18.7402 48.122 18.7402 45.5643V41.7759H40.7696V45.5643H40.7698Z" fill="#F6C358"/>
<path d="M29.7546 46.404C35.838 46.404 40.7695 44.3305 40.7695 41.7728C40.7695 39.2151 35.838 37.1416 29.7546 37.1416C23.6713 37.1416 18.7397 39.2151 18.7397 41.7728C18.7397 44.3305 23.6713 46.404 29.7546 46.404Z" fill="#FCD462"/>
<path d="M29.7552 38.0493C24.4461 38.0493 20.1421 39.7177 20.1421 41.7759C20.1421 43.834 24.4461 45.5024 29.7552 45.5024C35.0644 45.5024 39.3683 43.834 39.3683 41.7759C39.3683 39.7177 35.0644 38.0493 29.7552 38.0493ZM29.7552 45.0882C25.036 45.0882 21.2103 43.6052 21.2103 41.7757C21.2103 39.9462 25.036 38.4632 29.7552 38.4632C34.4744 38.4632 38.3002 39.9462 38.3002 41.7757C38.3002 43.6052 34.4744 45.0882 29.7552 45.0882Z" fill="#DC8744"/>
<path d="M29.4029 44.3503V43.8969C27.9387 43.8391 26.6244 43.6133 25.4614 43.2201L26.6309 42.6798C27.528 42.982 28.451 43.1619 29.4029 43.2201V42.0152C28.1956 41.9035 27.3116 41.7565 26.751 41.5742C26.1903 41.3921 25.91 41.1219 25.91 40.7637C25.91 40.4056 26.232 40.1127 26.8787 39.8847C27.5254 39.657 28.3664 39.5329 29.4029 39.5122V39.2017H30.4278V39.5183C31.6026 39.5516 32.7133 39.7068 33.7604 39.9843L32.7187 40.5556C32.0132 40.361 31.2505 40.2411 30.4279 40.1952V41.3628H30.4762C31.7044 41.4747 32.6067 41.6259 33.183 41.8161C33.7606 42.0066 34.0487 42.2832 34.0487 42.6453C34.0487 43.0076 33.7175 43.3028 33.0551 43.5303C32.3928 43.7582 31.5179 43.8823 30.4279 43.903V44.3501H29.4029V44.3503ZM28.2725 40.3415C28 40.4344 27.8644 40.5504 27.8644 40.6892C27.8644 40.828 27.9713 40.9377 28.1851 41.0182C28.3976 41.0991 28.8045 41.1767 29.4029 41.2513V40.1768C28.9218 40.1934 28.545 40.2482 28.2725 40.3415ZM31.6455 43.0648C31.9441 42.9697 32.0941 42.8497 32.0941 42.7046C32.0941 42.5598 31.9768 42.4449 31.742 42.36C31.506 42.2751 31.068 42.1954 30.4278 42.1209V43.2387C30.9402 43.2182 31.3457 43.16 31.6455 43.0648Z" fill="#DC8744"/>
<path d="M63.9978 59.3675C63.9978 61.9252 59.0664 63.9987 52.983 63.9987C46.8997 63.9987 41.9683 61.9252 41.9683 59.3675V55.5791H63.9977V59.3675H63.9978Z" fill="#F6C358"/>
<path d="M52.9851 60.2101C59.0685 60.2101 64 58.1367 64 55.5789C64 53.0212 59.0685 50.9478 52.9851 50.9478C46.9017 50.9478 41.9702 53.0212 41.9702 55.5789C41.9702 58.1367 46.9017 60.2101 52.9851 60.2101Z" fill="#FCD462"/>
<path d="M52.9832 51.8525C47.6741 51.8525 43.3701 53.521 43.3701 55.5791C43.3701 57.6372 47.6741 59.3056 52.9832 59.3056C58.2924 59.3056 62.5964 57.6372 62.5964 55.5791C62.5962 53.5208 58.2924 51.8525 52.9832 51.8525ZM52.9832 58.8914C48.264 58.8914 44.4383 57.4084 44.4383 55.5789C44.4383 53.7495 48.264 52.2665 52.9832 52.2665C57.7024 52.2665 61.5282 53.7495 61.5282 55.5789C61.5282 57.4084 57.7023 58.8914 52.9832 58.8914Z" fill="#DC8744"/>
<path d="M52.631 58.1535V57.7001C51.1667 57.6423 49.8524 57.4165 48.6895 57.0233L49.8589 56.483C50.756 56.7852 51.679 56.9651 52.631 57.0233V55.8184C51.4236 55.7067 50.5396 55.5596 49.979 55.3774C49.4183 55.1953 49.138 54.9251 49.138 54.5669C49.138 54.2089 49.46 53.9159 50.1067 53.6879C50.7534 53.4602 51.5944 53.3361 52.631 53.3154V53.0049H53.6558V53.3215C54.8305 53.3549 55.9414 53.5101 56.9883 53.7875L55.9466 54.3589C55.2411 54.1642 54.4784 54.0442 53.6558 53.9985V55.166H53.7041C54.9323 55.278 55.8346 55.4291 56.4109 55.6194C56.9885 55.8098 57.2766 56.0864 57.2766 56.4485C57.2766 56.8108 56.9455 57.106 56.283 57.3335C55.6207 57.5615 54.7458 57.6855 53.6558 57.7062V58.1534H52.631V58.1535ZM51.5005 54.1447C51.228 54.2376 51.0925 54.3537 51.0925 54.4925C51.0925 54.6312 51.1994 54.7409 51.4132 54.8215C51.6257 54.9023 52.0325 54.9799 52.631 55.0545V53.98C52.1499 53.9965 51.773 54.0513 51.5005 54.1447ZM54.8736 56.8679C55.1721 56.7728 55.3221 56.6528 55.3221 56.5077C55.3221 56.3629 55.2048 56.248 54.97 56.1631C54.734 56.0782 54.296 55.9985 53.6558 55.924V57.0418C54.1681 57.0212 54.5737 56.9632 54.8736 56.8679Z" fill="#DC8744"/>
<path d="M63.9978 54.7664C63.9978 57.3241 59.0664 59.3976 52.983 59.3976C46.8997 59.3976 41.9683 57.3241 41.9683 54.7664V50.978H63.9977V54.7664H63.9978Z" fill="#F6C358"/>
<path d="M52.9851 55.6105C59.0685 55.6105 64 53.5371 64 50.9793C64 48.4216 59.0685 46.3481 52.9851 46.3481C46.9017 46.3481 41.9702 48.4216 41.9702 50.9793C41.9702 53.5371 46.9017 55.6105 52.9851 55.6105Z" fill="#FCD462"/>
<path d="M52.9832 47.2515C47.6741 47.2515 43.3701 48.9199 43.3701 50.978C43.3701 53.0361 47.6741 54.7045 52.9832 54.7045C58.2924 54.7045 62.5964 53.0361 62.5964 50.978C62.5962 48.9199 58.2924 47.2515 52.9832 47.2515ZM52.9832 54.2905C48.264 54.2905 44.4383 52.8075 44.4383 50.978C44.4383 49.1485 48.264 47.6655 52.9832 47.6655C57.7024 47.6655 61.5282 49.1485 61.5282 50.978C61.5282 52.8075 57.7023 54.2905 52.9832 54.2905Z" fill="#DC8744"/>
<path d="M52.631 53.5524V53.0991C51.1667 53.0412 49.8524 52.8155 48.6895 52.4223L49.8589 51.8819C50.756 52.1841 51.679 52.3641 52.631 52.4223V51.2174C51.4236 51.1056 50.5396 50.9585 49.979 50.7764C49.4183 50.5942 49.138 50.324 49.138 49.9659C49.138 49.6077 49.46 49.3148 50.1067 49.0869C50.7534 48.8591 51.5944 48.735 52.631 48.7143V48.4038H53.6558V48.7205C54.8305 48.7538 55.9414 48.909 56.9883 49.1865L55.9466 49.7578C55.2411 49.5631 54.4784 49.4432 53.6558 49.3974V50.5649H53.7041C54.9323 50.6769 55.8346 50.8281 56.4109 51.0183C56.9885 51.2089 57.2766 51.4853 57.2766 51.8474C57.2766 52.2098 56.9455 52.5049 56.283 52.7324C55.6207 52.9604 54.7458 53.0845 53.6558 53.1052V53.5523L52.631 53.5524ZM51.5005 49.5435C51.228 49.6364 51.0925 49.7525 51.0925 49.8912C51.0925 50.03 51.1994 50.1397 51.4132 50.2203C51.6257 50.3011 52.0325 50.3787 52.631 50.4533V49.3788C52.1499 49.3954 51.773 49.4503 51.5005 49.5435ZM54.8736 52.2668C55.1721 52.1717 55.3221 52.0517 55.3221 51.9067C55.3221 51.7619 55.2048 51.6469 54.97 51.562C54.734 51.4771 54.296 51.3974 53.6558 51.323V52.4407C54.1681 52.4202 54.5737 52.3621 54.8736 52.2668Z" fill="#DC8744"/>
<path d="M51.5534 50.2904C50.6287 52.675 45.2811 52.8253 39.6093 50.6258C33.9376 48.4264 30.0894 44.7103 31.0141 42.3256L32.3839 38.7935L52.9231 46.7582L51.5534 50.2904Z" fill="#EFB652"/>
<path d="M44.3251 38.4516C38.653 36.2518 33.305 36.4019 32.3802 38.7867C31.4553 41.1715 35.3037 44.8881 40.9758 47.0878C46.6479 49.2876 51.9959 49.1375 52.9207 46.7527C53.8456 44.3679 49.9972 40.6513 44.3251 38.4516Z" fill="#FCD462"/>
<path d="M44.0009 39.3014C39.0509 37.3818 34.4349 37.3813 33.6908 39.3002C32.9467 41.219 36.3563 44.3307 41.3062 46.2503C46.2563 48.1699 50.8722 48.1704 51.6163 46.2514C52.3604 44.3325 48.9508 41.2208 44.0009 39.3014ZM41.456 45.8641C37.056 44.1579 34.0253 41.392 34.6867 39.6864C35.3482 37.9807 39.4514 37.9812 43.8512 39.6874C48.2511 41.3936 51.2819 44.1595 50.6204 45.8651C49.959 47.5708 45.8559 47.5703 41.456 45.8641Z" fill="#DC8744"/>
<path d="M41.3947 45.0487L41.5586 44.6259C40.2144 44.0426 39.0706 43.357 38.1284 42.5699L39.4142 42.489C40.1412 43.0951 40.9369 43.5967 41.8033 43.995L42.2389 42.8716C41.1537 42.331 40.3826 41.8742 39.9257 41.5016C39.4689 41.1289 39.3052 40.7758 39.4346 40.4419C39.564 40.108 39.9703 39.9514 40.6557 39.9726C41.3409 39.9941 42.1699 40.1825 43.1438 40.5379L43.2561 40.2484L44.2115 40.6189L44.097 40.9141C45.1803 41.3699 46.1598 41.9163 47.0357 42.5535L45.8579 42.7096C45.2706 42.2732 44.6029 41.8854 43.8523 41.5453L43.4301 42.6339L43.4751 42.6514C44.5797 43.1998 45.3663 43.667 45.8349 44.0528C46.3045 44.4392 46.4732 44.8012 46.3423 45.1388C46.2113 45.4767 45.7958 45.6321 45.096 45.6048C44.396 45.5778 43.5355 45.3772 42.5117 45.0025L42.3501 45.4192L41.3947 45.0487ZM41.7901 40.9023C41.5024 40.8904 41.334 40.9495 41.2839 41.0789C41.2338 41.2082 41.2938 41.3492 41.464 41.5017C41.6328 41.6539 41.9841 41.8733 42.5151 42.1592L42.9036 41.1573C42.4491 40.999 42.0779 40.9138 41.7901 40.9023ZM43.9503 44.6608C44.2631 44.6802 44.4462 44.6224 44.4987 44.4873C44.5511 44.3522 44.4832 44.2026 44.2951 44.0386C44.1058 43.8741 43.7261 43.6415 43.1562 43.3406L42.752 44.3827C43.2372 44.5488 43.6363 44.6413 43.9503 44.6608Z" fill="#DC8744"/>
</g>
<defs>
<clipPath id="clip0_3377_247">
<rect width="64" height="64" fill="white"/>
</clipPath>
</defs>
</svg>
