<svg width="68" height="68" viewBox="0 0 68 68" fill="none" xmlns="http://www.w3.org/2000/svg">
<circle cx="34" cy="34" r="34" fill="#E3E3E3" fill-opacity="0.43"/>
<path d="M49.4346 15H39.36C36.3997 15 33.9998 17.3999 33.9998 20.3602C33.9998 17.3999 31.5999 15 28.6396 15H18.565C17.8673 15 17.3018 15.5655 17.3018 16.2632V35.8174L33.9998 37.0016L50.6978 35.8174V16.2632C50.6978 15.5655 50.1323 15 49.4346 15Z" fill="#EAF9FA"/>
<path d="M28.6393 15H26.0273C28.9877 15 31.3875 17.3999 31.3875 20.3602V35.8174H33.9996V20.3602C33.9996 17.3999 31.5997 15 28.6393 15Z" fill="#DCF5F8"/>
<path d="M33.9998 35.8174H17.3018V37.3506C17.3018 38.0482 17.8673 38.6138 18.565 38.6138H32.3875C33.2779 38.6138 33.9997 37.8919 33.9997 37.0015V35.8174H33.9998Z" fill="#59A4F9"/>
<path d="M50.6972 16.2631V35.8175H48.0853V16.2631C48.0853 15.5658 47.5196 15 46.8223 15H49.4341C50.1321 15 50.6972 15.5658 50.6972 16.2631Z" fill="#DCF5F8"/>
<path d="M34 35.8174L48.086 35.8175L50.698 37.3506C50.698 38.0482 50.1325 38.6138 49.4348 38.6138H35.6123C34.7219 38.6138 34.0001 37.8919 34.0001 37.0015V35.8174H34Z" fill="#59A4F9"/>
<path d="M50.6972 35.8174V37.3504C50.6972 38.0485 50.1322 38.6135 49.4341 38.6135H46.8223C47.5196 38.6135 48.0854 38.0485 48.0854 37.3504V35.8174H50.6972Z" fill="#4A92F9"/>
<path d="M35.612 38.6134H33.0002C32.1094 38.6134 31.3877 37.8916 31.3877 37.0017V35.8174H33.9995V37.0017C33.9995 37.8916 34.7212 38.6134 35.612 38.6134Z" fill="#FFD15B"/>
<path d="M44.6517 46.0519L43.2693 48.4458C42.8159 49.2318 41.8112 49.5009 41.0252 49.0468L40.0626 48.4909C39.7858 48.3311 39.4402 48.3502 39.1826 48.5407C38.6642 48.923 38.1022 49.2495 37.5051 49.5109C37.213 49.6394 37.0241 49.9284 37.0241 50.2473V51.3574C37.0241 52.2642 36.2886 52.9997 35.3818 52.9997H32.617C31.8028 52.9997 31.1261 52.4064 30.9977 51.6281C30.9824 51.5401 30.9747 51.45 30.9747 51.3574V50.2473C30.9747 49.9284 30.7858 49.6394 30.4938 49.5109C29.8966 49.2495 29.3346 48.923 28.8163 48.5407C28.5586 48.3503 28.213 48.3311 27.9363 48.4909L26.9737 49.0468C26.1877 49.5009 25.183 49.2318 24.7296 48.4458L23.3472 46.0519C22.8938 45.2659 23.1629 44.2612 23.9481 43.8078L24.9123 43.2512C25.1891 43.0914 25.3451 42.7825 25.3092 42.4644C25.2732 42.1471 25.2548 41.8244 25.2548 41.498C25.2548 41.1707 25.2732 40.848 25.3092 40.5308C25.3451 40.2127 25.1892 39.9038 24.9123 39.744L23.9481 39.1873C23.1629 38.7339 22.8938 37.7292 23.3472 36.9441L24.7296 34.5494C25.183 33.7642 26.1877 33.495 26.9737 33.9484L27.9363 34.5043C28.213 34.6641 28.5587 34.645 28.8163 34.4545C29.3347 34.0722 29.8967 33.7458 30.4938 33.4843C30.7858 33.3566 30.9747 33.0668 30.9747 32.748V31.6385C30.9747 31.546 30.9824 31.4558 30.9977 31.3671C32.6933 30.8612 35.3199 32.2076 35.612 32.3353C36.2092 32.5968 43.0866 39.744 43.0866 39.744C42.8099 39.9038 42.6539 40.2127 42.6898 40.5308C42.7257 40.848 42.7441 41.1707 42.7441 41.498C42.7441 41.8245 42.7258 42.1471 42.6898 42.4644C42.6539 42.7825 42.8098 43.0913 43.0866 43.2512L44.0507 43.8078C44.836 44.2613 45.1051 45.2659 44.6517 46.0519Z" fill="#9FACBA"/>
<path d="M33.9992 30.9863C33.6824 30.9863 33.4258 30.7295 33.4258 30.4128V25.1838C33.4258 24.8671 33.6825 24.6104 33.9992 24.6104C34.3159 24.6104 34.5726 24.8671 34.5726 25.1838V30.4128C34.5726 30.7295 34.316 30.9863 33.9992 30.9863Z" fill="#9FACBA"/>
<path d="M37.0246 34.5741C36.7078 34.5741 36.4512 34.3174 36.4512 34.0007V27.0812C36.4512 26.7645 36.7079 26.5078 37.0246 26.5078H41.0262C41.343 26.5078 41.5997 26.7645 41.5997 27.0812C41.5997 27.3979 41.3429 27.6546 41.0262 27.6546H37.5981V34.0007C37.598 34.3174 37.3413 34.5741 37.0246 34.5741Z" fill="#9FACBA"/>
<path d="M39.59 35.3424C39.2732 35.3424 39.0166 35.0857 39.0166 34.769V30.258C39.0166 29.9413 39.2733 29.6846 39.59 29.6846H45.079C45.3958 29.6846 45.6524 29.9413 45.6524 30.258C45.6524 30.5747 45.3957 30.8314 45.079 30.8314H40.1634V34.769C40.1634 35.0856 39.9068 35.3424 39.59 35.3424Z" fill="#9FACBA"/>
<path d="M44.6521 46.0523L43.2697 48.4462C42.8163 49.2322 41.8116 49.5013 41.0256 49.0472L40.063 48.4913C39.7862 48.3315 39.4406 48.3506 39.183 48.5411C38.6645 48.9234 38.1026 49.2498 37.5055 49.5113C37.2134 49.6398 37.0245 49.9288 37.0245 50.2476V51.3578C37.0245 52.2646 36.289 53.0001 35.3822 53.0001H32.6174C31.8032 53.0001 31.1264 52.4068 30.998 51.6285L30.9988 51.6277C36.2255 51.208 40.3367 46.833 40.3367 41.4985C40.3367 36.1632 36.2255 31.789 30.9988 31.3685C30.9988 31.3685 30.9988 31.3677 30.998 31.3677C31.1265 30.5894 31.8032 29.9961 32.6174 29.9961H35.3822C36.289 29.9961 37.0245 30.7316 37.0245 31.6392V32.7486C37.0245 33.0675 37.2134 33.3572 37.5055 33.485C38.1026 33.7464 38.6645 34.0729 39.183 34.4552C39.4407 34.6456 39.7862 34.6648 40.063 34.505L41.0256 33.9491C41.8116 33.4957 42.8163 33.7648 43.2697 34.5501L44.6521 36.9447C45.1055 37.73 44.8364 38.7347 44.0511 39.188L43.087 39.7447C42.8103 39.9044 42.6543 40.2133 42.6902 40.5314C42.7261 40.8487 42.7445 41.1714 42.7445 41.4987C42.7445 41.8252 42.7262 42.1478 42.6902 42.4651C42.6543 42.7832 42.8102 43.092 43.087 43.2519L44.0511 43.8085C44.8364 44.2617 45.1055 45.2663 44.6521 46.0523Z" fill="#8D9CA8"/>
<path d="M33.9992 26.0354C34.6281 26.0354 35.138 25.5256 35.138 24.8966C35.138 24.2677 34.6281 23.7578 33.9992 23.7578C33.3702 23.7578 32.8604 24.2677 32.8604 24.8966C32.8604 25.5256 33.3702 26.0354 33.9992 26.0354Z" fill="#6BD9E7"/>
<path d="M41.5997 28.219C42.2287 28.219 42.7386 27.7092 42.7386 27.0802C42.7386 26.4513 42.2287 25.9414 41.5997 25.9414C40.9708 25.9414 40.4609 26.4513 40.4609 27.0802C40.4609 27.7092 40.9708 28.219 41.5997 28.219Z" fill="#6BD9E7"/>
<path d="M45.6525 31.3968C46.2814 31.3968 46.7913 30.8869 46.7913 30.258C46.7913 29.629 46.2814 29.1191 45.6525 29.1191C45.0235 29.1191 44.5137 29.629 44.5137 30.258C44.5137 30.8869 45.0235 31.3968 45.6525 31.3968Z" fill="#6BD9E7"/>
<path d="M25.1293 19.2084H19.7443C19.4275 19.2084 19.1709 18.9516 19.1709 18.6349C19.1709 18.3182 19.4276 18.0615 19.7443 18.0615H25.1293C25.4461 18.0615 25.7027 18.3182 25.7027 18.6349C25.7027 18.9516 25.446 19.2084 25.1293 19.2084Z" fill="#8D9CA8"/>
<path d="M30.5253 21.2113H19.7443C19.4275 21.2113 19.1709 20.9546 19.1709 20.6379C19.1709 20.3212 19.4276 20.0645 19.7443 20.0645H30.5254C30.8422 20.0645 31.0988 20.3212 31.0988 20.6379C31.0988 20.9546 30.8421 21.2113 30.5253 21.2113Z" fill="#8D9CA8"/>
<path d="M30.5253 23.2142H19.7443C19.4275 23.2142 19.1709 22.9575 19.1709 22.6408C19.1709 22.3241 19.4276 22.0674 19.7443 22.0674H30.5254C30.8422 22.0674 31.0988 22.3241 31.0988 22.6408C31.0987 22.9575 30.8421 23.2142 30.5253 23.2142Z" fill="#8D9CA8"/>
<path d="M30.5253 25.2162H19.7443C19.4275 25.2162 19.1709 24.9594 19.1709 24.6427C19.1709 24.3261 19.4276 24.0693 19.7443 24.0693H30.5254C30.8422 24.0693 31.0988 24.3261 31.0988 24.6427C31.0988 24.9594 30.8421 25.2162 30.5253 25.2162Z" fill="#8D9CA8"/>
<path d="M30.5253 27.2191H19.7443C19.4275 27.2191 19.1709 26.9624 19.1709 26.6457C19.1709 26.329 19.4276 26.0723 19.7443 26.0723H30.5254C30.8422 26.0723 31.0988 26.329 31.0988 26.6457C31.0988 26.9624 30.8421 27.2191 30.5253 27.2191Z" fill="#8D9CA8"/>
<path d="M41.1056 21.5244H40.5531V20.9719C40.5531 20.6552 40.2964 20.3984 39.9797 20.3984C39.663 20.3984 39.4062 20.6552 39.4062 20.9719V21.5244H38.8537C38.5369 21.5244 38.2803 21.7811 38.2803 22.0978C38.2803 22.4145 38.537 22.6712 38.8537 22.6712H39.4062V23.2238C39.4062 23.5405 39.663 23.7972 39.9797 23.7972C40.2964 23.7972 40.5531 23.5405 40.5531 23.2238V22.6712H41.1056C41.4224 22.6712 41.679 22.4145 41.679 22.0978C41.6791 21.7811 41.4224 21.5244 41.1056 21.5244Z" fill="#6BD9E7"/>
<path d="M39.649 41.5145C39.649 47.5367 33.1692 47.8827 32.6939 47.906C29.7175 47.3011 27.4775 44.6695 27.4775 41.5145C27.4775 38.3625 29.7218 35.7313 32.6939 35.123L34 35.2244C34 35.2244 39.649 37.9123 39.649 41.5145Z" fill="#FFE177"/>
<path d="M34.0004 34.9922C33.5531 34.9922 33.1163 35.0374 32.6943 35.1232C35.6707 35.7281 37.9107 38.3597 37.9107 41.5147C37.9107 44.6696 35.6707 47.3011 32.6943 47.9062C33.1163 47.992 33.5531 48.0372 34.0004 48.0372C37.6027 48.0372 40.5229 45.117 40.5229 41.5147C40.5229 37.9124 37.6027 34.9922 34.0004 34.9922Z" fill="#FFD15B"/>
<path d="M33.0158 39.8933C32.699 39.8933 32.4424 39.6366 32.4424 39.3199V37.6984C32.4424 37.3817 32.6991 37.125 33.0158 37.125C33.3326 37.125 33.5892 37.3817 33.5892 37.6984V39.3199C33.5893 39.6366 33.3326 39.8933 33.0158 39.8933Z" fill="#9FACBA"/>
<path d="M34.9836 39.8933C34.6668 39.8933 34.4102 39.6366 34.4102 39.3199V37.6984C34.4102 37.3817 34.6669 37.125 34.9836 37.125C35.3003 37.125 35.557 37.3817 35.557 37.6984V39.3199C35.5571 39.6366 35.3003 39.8933 34.9836 39.8933Z" fill="#9FACBA"/>
<path d="M33.0158 45.904C32.699 45.904 32.4424 45.6473 32.4424 45.3306V43.7092C32.4424 43.3925 32.6991 43.1357 33.0158 43.1357C33.3326 43.1357 33.5892 43.3925 33.5892 43.7092V45.3306C33.5893 45.6473 33.3326 45.904 33.0158 45.904Z" fill="#9FACBA"/>
<path d="M34.9836 45.904C34.6668 45.904 34.4102 45.6473 34.4102 45.3306V43.7092C34.4102 43.3925 34.6669 43.1357 34.9836 43.1357C35.3003 43.1357 35.557 43.3925 35.557 43.7092V45.3306C35.5571 45.6473 35.3003 45.904 34.9836 45.904Z" fill="#9FACBA"/>
<path d="M38.3889 40.5304C38.3889 40.8195 38.1756 41.058 37.8972 41.0978C37.8704 41.1016 37.843 41.1039 37.8154 41.1039H36.1945C35.878 41.1039 35.6211 40.847 35.6211 40.5304C35.6211 40.2139 35.878 39.957 36.1945 39.957H37.8154C38.1327 39.957 38.3889 40.2139 38.3889 40.5304Z" fill="#9FACBA"/>
<path d="M38.3889 42.4982C38.3889 42.8148 38.1327 43.0716 37.8154 43.0716H36.1945C35.878 43.0716 35.6211 42.8148 35.6211 42.4982C35.6211 42.1817 35.878 41.9248 36.1945 41.9248H37.8154C37.843 41.9248 37.8705 41.9271 37.8972 41.9309C38.1756 41.9707 38.3889 42.2092 38.3889 42.4982Z" fill="#9FACBA"/>
<path d="M31.8052 41.1039H30.1838C29.867 41.1039 29.6104 40.8471 29.6104 40.5304C29.6104 40.2138 29.8671 39.957 30.1838 39.957H31.8052C32.122 39.957 32.3786 40.2138 32.3786 40.5304C32.3787 40.8471 32.122 41.1039 31.8052 41.1039Z" fill="#9FACBA"/>
<path d="M31.8052 43.0726H30.1838C29.867 43.0726 29.6104 42.8159 29.6104 42.4992C29.6104 42.1825 29.8671 41.9258 30.1838 41.9258H31.8052C32.122 41.9258 32.3786 42.1825 32.3786 42.4992C32.3786 42.8159 32.122 43.0726 31.8052 43.0726Z" fill="#9FACBA"/>
<path d="M38.3886 42.499C38.3886 42.8155 38.1325 43.0724 37.8152 43.0724H37.7227C37.8129 42.7031 37.8725 42.3223 37.897 41.9316C38.1753 41.9714 38.3886 42.21 38.3886 42.499Z" fill="#8D9CA8"/>
<path d="M37.897 41.0978C37.8725 40.7071 37.8129 40.3263 37.7227 39.957H37.8152C38.1325 39.957 38.3886 40.2139 38.3886 40.5304C38.3886 40.8195 38.1753 41.058 37.897 41.0978Z" fill="#8D9CA8"/>
<path d="M33.5897 43.7086H32.4611C32.0991 43.7086 31.8057 43.4152 31.8057 43.0532V39.9748C31.8057 39.6128 32.0991 39.3193 32.4611 39.3193H33.5897C33.9516 39.3193 34.9845 39.6128 34.9845 39.9748V43.0532C34.9844 43.4152 33.9516 43.7086 33.5897 43.7086Z" fill="#6BD9E7"/>
<path d="M35.5387 39.3203H33.5459C33.9079 39.3203 34.2013 39.6138 34.2013 39.9757V43.0542C34.2013 43.4161 33.9079 43.7096 33.5459 43.7096H35.5387C35.9007 43.7096 36.1942 43.4162 36.1942 43.0542V39.9757C36.1942 39.6137 35.9007 39.3203 35.5387 39.3203Z" fill="#2ED1E2"/>
</svg>
