<svg width="70" height="70" viewBox="0 0 70 70" fill="none" xmlns="http://www.w3.org/2000/svg">
<circle cx="35" cy="35" r="35" fill="#48CFC8"/>
<path d="M41.5905 34.1243C41.6903 34.5699 41.7405 35.0293 41.7405 35.4901C41.7405 38.9315 38.9405 41.7316 35.499 41.7316C34.2986 41.7316 33.1362 41.3866 32.1391 40.749L32.3859 41.5526C32.4598 41.7941 32.3249 42.0493 32.0835 42.1239C32.0385 42.1376 31.9936 42.1445 31.9487 42.1445C31.7529 42.1445 31.5724 42.018 31.5122 41.8215L30.9302 39.9286C30.8944 39.8129 30.9066 39.6872 30.963 39.5805C31.0201 39.4731 31.1169 39.3931 31.2326 39.3573L33.1255 38.7754C33.367 38.7015 33.6222 38.8363 33.6968 39.0778C33.7707 39.3193 33.6359 39.5744 33.3944 39.6491L32.5306 39.9149C33.4035 40.5014 34.4334 40.8183 35.499 40.8183C38.4362 40.8183 40.8265 38.4288 40.8265 35.4909C40.8265 35.0971 40.7831 34.7048 40.6985 34.3247C40.6437 34.0786 40.7983 33.8341 41.0451 33.7793C41.2911 33.7229 41.5356 33.8783 41.5905 34.1243ZM30.1716 35.4901C30.1716 32.5529 32.5611 30.1626 35.499 30.1626C36.4755 30.1626 37.4208 30.4292 38.2443 30.9244L37.3911 31.047C37.1413 31.0828 36.9676 31.3144 37.0042 31.5642C37.0369 31.792 37.2327 31.9565 37.4559 31.9565C37.4772 31.9565 37.4993 31.955 37.5214 31.9519L39.4821 31.6701C39.7319 31.6343 39.9056 31.4027 39.869 31.1529L39.5872 29.1922C39.5514 28.9424 39.3198 28.7695 39.07 28.8053C38.8201 28.8411 38.6464 29.0726 38.683 29.3225L38.8087 30.1977C37.823 29.5807 36.6805 29.2486 35.4998 29.2486C32.0583 29.2486 29.2583 32.0487 29.2583 35.4901C29.2583 35.9502 29.3085 36.4103 29.4083 36.8559C29.4555 37.0684 29.6445 37.2131 29.8539 37.2131C29.8867 37.2131 29.9202 37.2093 29.9537 37.2017C30.1997 37.1468 30.3551 36.9023 30.3003 36.6563C30.215 36.2762 30.1716 35.8839 30.1716 35.4901ZM53.8359 41.7682C53.8359 42.9054 52.9104 43.8309 51.7731 43.8309C50.7928 43.8309 49.9702 43.1431 49.7614 42.2252H44.8385C44.7897 42.3265 44.7227 42.4217 44.6389 42.5055L42.5046 44.6399C42.1625 44.9819 41.6392 45.0382 41.2325 44.7747L39.5293 43.674C39.4942 43.6512 39.4661 43.6496 39.428 43.6679C39.1256 43.8142 38.8117 43.9437 38.4956 44.0549C38.456 44.0686 38.4377 44.0899 38.4286 44.131L38.0028 46.113C37.9015 46.5861 37.4917 46.9166 37.008 46.9166H35.9561V51.3377H44.8628C45.0715 50.419 45.8934 49.732 46.8745 49.732C48.0118 49.732 48.9373 50.6574 48.9373 51.7947C48.9373 52.9319 48.0118 53.8574 46.8745 53.8574C45.8942 53.8574 45.0715 53.1696 44.8628 52.2517H35.499C35.2469 52.2517 35.042 52.0468 35.042 51.7947V46.9166H33.9901C33.5064 46.9166 33.0966 46.5861 32.9953 46.113L32.5695 44.131C32.5603 44.0899 32.542 44.0686 32.5024 44.0549C32.1863 43.9444 31.8732 43.8142 31.5701 43.6679C31.5328 43.6496 31.5038 43.6512 31.4688 43.674L29.7656 44.7747C29.7404 44.7907 29.7145 44.8059 29.6886 44.8204V49.7624C30.6073 49.9711 31.2943 50.793 31.2943 51.7741C31.2943 52.9114 30.3688 53.8369 29.2316 53.8369C28.0944 53.8369 27.1689 52.9114 27.1689 51.7741C27.1689 50.7938 27.8567 49.9711 28.7746 49.7624V44.8394C28.6733 44.7907 28.578 44.7237 28.4935 44.6399L26.3592 42.5055C26.0164 42.1635 25.9615 41.6402 26.2243 41.2335L27.325 39.5303C27.3479 39.4952 27.3494 39.467 27.3311 39.4289C27.1849 39.1265 27.0554 38.8127 26.9442 38.4966C26.9305 38.457 26.9091 38.438 26.868 38.4296L24.886 38.0038C24.413 37.9017 24.0824 37.4927 24.0824 37.009V35.957H19.6614V44.8638C20.58 45.0725 21.2671 45.8944 21.2671 46.8755C21.2671 48.0128 20.3416 48.9382 19.2043 48.9382C18.0671 48.9382 17.1416 48.0128 17.1416 46.8755C17.1416 45.8952 17.8294 45.0725 18.7473 44.8638V35.5C18.7473 35.2479 18.9522 35.043 19.2043 35.043H24.0824V33.991C24.0824 33.5073 24.413 33.0975 24.886 32.9962L26.868 32.5704C26.9091 32.5613 26.9305 32.543 26.9442 32.5034C27.0546 32.188 27.1849 31.8742 27.3311 31.5711C27.3494 31.5337 27.3471 31.5048 27.325 31.4697L26.2236 29.7665C26.2076 29.7414 26.1923 29.7155 26.1779 29.6896H21.2366C21.0279 30.6075 20.206 31.2953 19.2249 31.2953C18.0877 31.2953 17.1622 30.3698 17.1622 29.2326C17.1622 28.0953 18.0877 27.1698 19.2249 27.1698C20.2052 27.1698 21.0279 27.8577 21.2366 28.7755H26.1596C26.2083 28.6742 26.2754 28.579 26.3592 28.4952L28.4935 26.3609C28.8355 26.0181 29.3588 25.9633 29.7656 26.2261L31.4688 27.3268C31.5038 27.3496 31.532 27.3511 31.5701 27.3329C31.8732 27.1866 32.1871 27.0563 32.5024 26.9459C32.542 26.9322 32.5603 26.9109 32.5695 26.8697L32.9953 24.8877C33.0973 24.4147 33.5064 24.0841 33.9901 24.0841H35.042V19.6623H26.1352C25.9265 20.5802 25.1046 21.268 24.1235 21.268C22.9863 21.268 22.0608 20.3426 22.0608 19.2053C22.0608 18.0681 22.9863 17.1426 24.1235 17.1426C25.1038 17.1426 25.9265 17.8304 26.1352 18.7483H35.499C35.7512 18.7483 35.9561 18.9532 35.9561 19.2053V24.0834H37.008C37.4924 24.0834 37.9015 24.4139 38.0028 24.887L38.4286 26.869C38.4377 26.9101 38.456 26.9314 38.4956 26.9451C38.8117 27.0556 39.1248 27.1858 39.428 27.3321C39.4653 27.3504 39.4942 27.3488 39.5293 27.326L41.2325 26.2253C41.2576 26.2093 41.2835 26.1941 41.3094 26.1796V21.2376C40.3908 21.0289 39.7037 20.207 39.7037 19.2259C39.7037 18.0886 40.6292 17.1631 41.7664 17.1631C42.9037 17.1631 43.8292 18.0886 43.8292 19.2259C43.8292 20.2062 43.1413 21.0289 42.2235 21.2376V26.1606C42.3248 26.2093 42.42 26.2763 42.5038 26.3601L44.6381 28.4945C44.9801 28.8365 45.0357 29.3598 44.773 29.7665L43.6715 31.4697C43.6487 31.5048 43.6471 31.533 43.6654 31.5711C43.8117 31.8735 43.9412 32.1873 44.0524 32.5034C44.0661 32.543 44.0874 32.5613 44.1285 32.5704L46.1105 32.9962C46.5836 33.0975 46.9141 33.5073 46.9141 33.991V35.043H51.3352V26.1362C50.4165 25.9275 49.7295 25.1056 49.7295 24.1245C49.7295 22.9872 50.6549 22.0618 51.7922 22.0618C52.9294 22.0618 53.8564 22.9872 53.8564 24.1245C53.8564 25.1048 53.1686 25.9275 52.2507 26.1362V35.5C52.2507 35.7521 52.0458 35.957 51.7937 35.957H46.9157V37.009C46.9157 37.4927 46.5851 37.9025 46.1121 38.0038L44.1301 38.4296C44.0889 38.4387 44.0676 38.457 44.0539 38.4966C43.9427 38.8127 43.8132 39.1265 43.6669 39.4289C43.6487 39.4663 43.6509 39.4952 43.673 39.5303L44.7737 41.2335C44.7897 41.2586 44.8049 41.2845 44.8194 41.3104H49.7614C49.9702 40.3918 50.7921 39.7047 51.7731 39.7047C52.9104 39.7047 53.8359 40.6302 53.8359 41.7682ZM51.7937 25.2739C52.4275 25.2739 52.9424 24.7582 52.9424 24.1253C52.9424 23.4915 52.4267 22.9766 51.7937 22.9766C51.16 22.9766 50.645 23.4923 50.645 24.1253C50.6443 24.7582 51.16 25.2739 51.7937 25.2739ZM25.273 19.2053C25.273 18.5716 24.7573 18.0566 24.1243 18.0566C23.4913 18.0566 22.9756 18.5723 22.9756 19.2053C22.9756 19.8391 23.4913 20.354 24.1243 20.354C24.7573 20.354 25.273 19.8391 25.273 19.2053ZM20.3743 29.2318C20.3743 28.5981 19.8587 28.0831 19.2257 28.0831C18.5927 28.0831 18.077 28.5988 18.077 29.2318C18.077 29.8656 18.5927 30.3805 19.2257 30.3805C19.8587 30.3805 20.3743 29.8656 20.3743 29.2318ZM19.2043 45.7261C18.5706 45.7261 18.0557 46.2418 18.0557 46.8747C18.0557 47.5077 18.5713 48.0234 19.2043 48.0234C19.8381 48.0234 20.353 47.5077 20.353 46.8747C20.353 46.2418 19.8381 45.7261 19.2043 45.7261ZM45.7251 51.7947C45.7251 52.4284 46.2408 52.9434 46.8738 52.9434C47.5068 52.9434 48.0224 52.4277 48.0224 51.7947C48.0224 51.1609 47.5068 50.646 46.8738 50.646C46.2408 50.646 45.7251 51.1609 45.7251 51.7947ZM41.7672 20.3753C42.401 20.3753 42.9159 19.8596 42.9159 19.2266C42.9159 18.5929 42.4002 18.078 41.7672 18.078C41.1335 18.078 40.6185 18.5937 40.6185 19.2266C40.6178 19.8596 41.1335 20.3753 41.7672 20.3753ZM29.2308 50.6247C28.5971 50.6247 28.0822 51.1404 28.0822 51.7734C28.0822 52.4064 28.5979 52.922 29.2308 52.922C29.8646 52.922 30.3795 52.4064 30.3795 51.7734C30.3795 51.1404 29.8646 50.6247 29.2308 50.6247ZM44.0067 41.7301L42.9052 40.0261C42.7079 39.7214 42.6858 39.3589 42.8435 39.0321C42.9745 38.7602 43.0918 38.4783 43.1909 38.1942C43.3112 37.8522 43.5831 37.6122 43.9373 37.5361L45.9193 37.1103C45.9696 37.0996 46.0008 37.0608 46.0008 37.009V33.991C46.0008 33.9392 45.9696 33.9004 45.9193 33.8897L43.9373 33.4639C43.5831 33.3878 43.3112 33.1478 43.1909 32.8058C43.0911 32.5217 42.9745 32.2398 42.8435 31.9679C42.6858 31.6411 42.7087 31.2786 42.9052 30.9739L44.0059 29.2707C44.0341 29.2272 44.0288 29.1777 43.9922 29.1412L41.8579 27.0068C41.8213 26.9703 41.7718 26.9649 41.7284 26.9931L40.0252 28.0938C39.7205 28.2911 39.3579 28.3132 39.0304 28.1555C38.7584 28.0245 38.4766 27.9072 38.1925 27.8082C37.8505 27.6878 37.6105 27.4159 37.5343 27.0617L37.1085 25.0797C37.0979 25.0294 37.059 24.9982 37.0072 24.9982H33.9893C33.9375 24.9982 33.8987 25.0294 33.888 25.0797L33.4622 27.0617C33.386 27.4159 33.1461 27.6886 32.8041 27.8082C32.5207 27.9072 32.2389 28.0245 31.9662 28.1555C31.6394 28.3132 31.2768 28.2903 30.9721 28.0938L29.2689 26.9931C29.2255 26.9649 29.176 26.9703 29.1394 27.0068L27.0051 29.1412C26.9685 29.1777 26.9632 29.2272 26.9914 29.2707L28.0921 30.9739C28.2894 31.2786 28.3114 31.6411 28.1538 31.9679C28.0228 32.2406 27.9054 32.5217 27.8064 32.8058C27.6861 33.1478 27.4141 33.3878 27.0599 33.4639L25.078 33.8897C25.0277 33.9004 24.9964 33.9392 24.9964 33.991V37.009C24.9964 37.0608 25.0277 37.0996 25.0787 37.1103L27.0607 37.5361C27.4149 37.6122 27.6876 37.8522 27.8072 38.1942C27.907 38.4776 28.0235 38.7594 28.1545 39.0313C28.3122 39.3581 28.2894 39.7207 28.0928 40.0254L26.9922 41.7286C26.964 41.772 26.9693 41.8215 27.0059 41.8581L29.1402 43.9924C29.1768 44.029 29.2263 44.0343 29.2697 44.0061L30.9737 42.9047C31.1443 42.7942 31.3332 42.7386 31.5229 42.7386C31.6729 42.7386 31.8237 42.7729 31.9677 42.843C32.2396 42.974 32.5215 43.0913 32.8056 43.1903C33.1476 43.3099 33.3875 43.5826 33.4637 43.9368L33.8895 45.9188C33.9002 45.9691 33.939 46.0003 33.9908 46.0003H37.0088C37.0605 46.0003 37.0994 45.9691 37.1101 45.9188L37.5359 43.9368C37.612 43.5826 37.852 43.3107 38.194 43.1903C38.4781 43.0905 38.7599 42.974 39.0319 42.843C39.3587 42.6853 39.7212 42.7074 40.0259 42.9047L41.7291 44.0054C41.7725 44.0335 41.8221 44.0282 41.8586 43.9916L43.993 41.8573C44.0288 41.823 44.0341 41.7735 44.0067 41.7301ZM52.9218 41.7682C52.9218 41.1344 52.4061 40.6195 51.7731 40.6195C51.1402 40.6195 50.6245 41.1352 50.6245 41.7682C50.6245 42.4019 51.1402 42.9169 51.7731 42.9169C52.4061 42.9169 52.9218 42.4012 52.9218 41.7682ZM35.499 32.2703C37.2799 32.2703 38.7287 33.7191 38.7287 35.5C38.7287 37.2809 37.2799 38.7297 35.499 38.7297C33.7181 38.7297 32.2693 37.2809 32.2693 35.5C32.2693 33.7191 33.7181 32.2703 35.499 32.2703ZM35.499 33.1844C34.2224 33.1844 33.1834 34.2234 33.1834 35.5C33.1834 36.7766 34.2224 37.8156 35.499 37.8156C36.7757 37.8156 37.8146 36.7766 37.8146 35.5C37.8146 34.2234 36.7757 33.1844 35.499 33.1844Z" fill="white"/>
</svg>
