<svg width="70" height="70" viewBox="0 0 70 70" fill="none" xmlns="http://www.w3.org/2000/svg">
<circle cx="35" cy="35" r="35" fill="#48CFC8"/>
<path d="M29.4063 50.9133H41.5938M30.9356 50.8913L32.5567 44.8412M40.0644 50.8913L38.4433 44.8412M17.1426 41.7724H53.8574M43.1553 31.2988V32.0605M46.583 31.2988V32.0605M38.9659 30.537V32.8222M50.7723 30.537V32.8222M44.8694 25.205V27.1093M35.5 19.3017V41.3915M20.1894 31.1845H32.0723M20.1894 34.3837H32.0723M20.1894 37.5829H32.0723M27.3039 23.1102L24.9578 27.174M22.2212 27.174L20.1894 25.1421L22.2212 23.1102M30.0404 27.174L32.0723 25.1421L30.0404 23.1102M18.2852 18.9209H52.7149C53.5527 18.9209 54.2383 19.6064 54.2383 20.4443V43.2959C54.2383 44.1338 53.5527 44.8193 52.7149 44.8193H18.2852C17.4473 44.8193 16.7617 44.1338 16.7617 43.2959V20.4443C16.7617 19.6064 17.4473 18.9209 18.2852 18.9209ZM41.251 27.4902H48.4873L50.0107 29.0136V35.8691H39.7275V29.0136L41.251 27.4902Z" stroke="white" stroke-width="0.971227" stroke-miterlimit="22.9256" stroke-linecap="round" stroke-linejoin="round"/>
</svg>
