<svg width="68" height="68" viewBox="0 0 68 68" fill="none" xmlns="http://www.w3.org/2000/svg">
<circle cx="34" cy="34" r="34" fill="#E3E3E3" fill-opacity="0.43"/>
<g clip-path="url(#clip0_2539_2593)">
<path d="M33.9958 50.6282C43.1795 50.6282 50.6243 43.1834 50.6243 33.9997C50.6243 24.816 43.1795 17.3711 33.9958 17.3711C24.812 17.3711 17.3672 24.816 17.3672 33.9997C17.3672 43.1834 24.812 50.6282 33.9958 50.6282Z" fill="#4F6D8F"/>
<path d="M46.8323 33.9999C46.8323 41.8586 39.4683 48.2294 33.996 48.2294C26.1373 48.2294 19.7666 41.8586 19.7666 33.9999C19.7666 26.1413 26.1373 19.7705 33.996 19.7705C39.9348 19.7705 46.8323 26.1413 46.8323 33.9999Z" fill="#EAF6FF"/>
<path d="M32.8486 19.8157C40.1709 20.3998 45.9309 26.5269 45.9309 33.9995C45.9309 41.472 40.1708 47.5991 32.8486 48.1833C41.1349 48.8443 48.2251 42.3152 48.2251 33.9995C48.2251 25.69 41.1415 19.1542 32.8486 19.8157Z" fill="#D7ECFE"/>
<path d="M51.793 23.2659C51.4791 23.2753 51.2371 23.5492 51.2371 23.8632V29.4436C51.2371 29.7306 51.0045 29.9632 50.7175 29.9632H41.415C41.1009 29.9632 40.827 30.2052 40.8176 30.5191C40.8079 30.844 41.0684 31.1103 41.391 31.1103H51.8107C52.1275 31.1103 52.3843 30.8535 52.3843 30.5367V23.8392C52.3842 23.5165 52.1178 23.2562 51.793 23.2659Z" fill="#7EE4FA"/>
<path d="M51.8107 38.1768H38.9179C38.6038 38.1768 38.3299 38.4188 38.3206 38.7327C38.3109 39.0576 38.5713 39.3239 38.8939 39.3239H50.7177C51.0046 39.3239 51.2372 39.5565 51.2372 39.8434V44.6651C51.2372 44.9791 51.4793 45.253 51.7931 45.2624C52.118 45.2721 52.3844 45.0118 52.3844 44.6892V38.7503C52.3843 38.4336 52.1275 38.1768 51.8107 38.1768Z" fill="#7EE4FA"/>
<path d="M40.5353 41.7402H36.0267C35.7099 41.7402 35.4531 41.997 35.4531 42.3138C35.4531 42.6306 35.7099 42.8874 36.0267 42.8874H40.5353C40.8521 42.8874 41.1089 42.6306 41.1089 42.3138C41.1089 41.997 40.8521 41.7402 40.5353 41.7402Z" fill="#7EE4FA"/>
<path d="M40.5911 35.3024H44.1622C44.479 35.3024 44.7358 35.0456 44.7358 34.7288C44.7358 34.4121 44.479 34.1553 44.1622 34.1553H40.5911C40.2744 34.1553 40.0176 34.4121 40.0176 34.7288C40.0176 35.0456 40.2744 35.3024 40.5911 35.3024Z" fill="#7EE4FA"/>
<path d="M16.1987 31.1196L26.3891 31.1014C26.7665 31.1007 27.0582 30.7356 26.9316 30.3395C26.8571 30.1066 26.6326 29.9542 26.3881 29.9542H26.387L17.2904 29.9705C17.0033 29.971 16.7703 29.7386 16.7699 29.4516L16.7624 23.6607C16.7619 23.3442 16.5053 23.0879 16.1888 23.0879H16.1881C15.8714 23.0879 15.6148 23.3448 15.6152 23.6615L15.6243 30.5467C15.6245 30.6989 15.6851 30.8447 15.7929 30.9522C15.9768 31.1357 16.1911 31.1181 16.1987 31.1196Z" fill="#7EE4FA"/>
<path d="M29.1341 39.3141C29.5115 39.3134 29.8031 38.9484 29.6766 38.5523C29.6022 38.3193 29.3776 38.167 29.133 38.167H29.1319L16.2151 38.1903C15.8984 38.1909 15.6421 38.4481 15.6426 38.7648L15.6516 44.7035C15.6521 45.0199 15.9087 45.2762 16.2252 45.2762C16.5423 45.2762 16.7993 45.0189 16.7988 44.7017L16.7913 39.8558C16.7909 39.569 17.023 39.336 17.3099 39.3355L29.1341 39.3141Z" fill="#7EE4FA"/>
<path d="M32.006 41.7246H32.0052L27.4107 41.7308C27.0939 41.7312 26.8374 41.9884 26.8379 42.3051C26.8383 42.6216 27.0951 42.8779 27.4115 42.8779H27.4122L32.0067 42.8717C32.3235 42.8713 32.58 42.6141 32.5795 42.2974C32.5791 41.981 32.3224 41.7246 32.006 41.7246Z" fill="#7EE4FA"/>
<path d="M22.7617 34.7267C22.7621 35.0434 23.0188 35.2997 23.3353 35.2997H23.3359L27.1996 35.2956C27.5164 35.2952 27.7729 35.0381 27.7725 34.7214C27.7722 34.4048 27.5154 34.1484 27.199 34.1484H27.1983L23.3346 34.1526C23.0178 34.153 22.7613 34.41 22.7617 34.7267Z" fill="#7EE4FA"/>
<path d="M34.8105 43.0506L32.6194 43.5098L32.0835 43.0506C28.0202 39.5677 25.6816 34.4832 25.6816 29.1315V27.3808C25.6816 27.1024 25.9015 26.8747 26.1796 26.8626C27.2831 26.8147 30.0374 26.5097 32.6448 24.5187L33.9959 24.2188C33.9959 24.2188 35.9315 27.782 41.2123 27.782V29.1316C41.2124 34.4832 38.8738 39.5677 34.8105 43.0506Z" fill="#B4E77A"/>
<path d="M41.8137 26.8628C37.8055 26.6956 35.2579 24.5402 34.357 23.6694C34.1555 23.4746 33.8369 23.473 33.635 23.6674C33.4024 23.8914 33.0699 24.1933 32.6445 24.5181C33.8476 25.9137 36.1772 28.0428 39.5249 28.2355C39.8001 28.2513 40.0157 28.4781 40.0157 28.7537V29.131C40.0157 34.4827 37.2183 39.5673 33.155 43.0501L32.6191 43.5094L33.6576 44.3995C33.8521 44.5662 34.1393 44.5662 34.3338 44.3995L35.9081 43.05C39.9715 39.5672 42.31 34.4827 42.31 29.131V27.3813C42.3099 27.1036 42.0912 26.8743 41.8137 26.8628Z" fill="#94D77B"/>
<path d="M36.1091 32.3309C36.1091 31.0861 35.0328 30.0928 33.7601 30.2306C32.742 30.3409 31.9651 31.1475 31.8889 32.1687C31.836 32.8783 32.1336 33.5205 32.6266 33.9403C32.742 34.0386 32.8082 34.1826 32.8082 34.3343V36.5938C32.8082 37.2497 33.34 37.7815 33.9959 37.7815C34.6519 37.7815 35.1837 37.2497 35.1837 36.5938V34.3344C35.1837 34.1842 35.2476 34.0401 35.3621 33.943C35.8191 33.5554 36.1091 32.977 36.1091 32.3309Z" fill="#4F6D8F"/>
<path d="M41.1223 43.5014C41.7783 43.5014 42.31 42.9697 42.31 42.3137C42.31 41.6577 41.7783 41.126 41.1223 41.126C40.4663 41.126 39.9346 41.6577 39.9346 42.3137C39.9346 42.9697 40.4663 43.5014 41.1223 43.5014Z" fill="#FF7E8E"/>
<path d="M44.6858 35.9165C45.3417 35.9165 45.8735 35.3847 45.8735 34.7287C45.8735 34.0728 45.3417 33.541 44.6858 33.541C44.0298 33.541 43.498 34.0728 43.498 34.7287C43.498 35.3847 44.0298 35.9165 44.6858 35.9165Z" fill="#FF7E8E"/>
<path d="M26.9133 43.4946C27.5693 43.4946 28.101 42.9628 28.101 42.3069C28.101 41.6509 27.5693 41.1191 26.9133 41.1191C26.2573 41.1191 25.7256 41.6509 25.7256 42.3069C25.7256 42.9628 26.2573 43.4946 26.9133 43.4946Z" fill="#FF7E8E"/>
<path d="M23.3371 35.9155C23.9931 35.9155 24.5249 35.3837 24.5249 34.7278C24.5249 34.0718 23.9931 33.54 23.3371 33.54C22.6812 33.54 22.1494 34.0718 22.1494 34.7278C22.1494 35.3837 22.6812 35.9155 23.3371 35.9155Z" fill="#FF7E8E"/>
<path d="M16.1877 24.5112C16.8437 24.5112 17.3754 23.9794 17.3754 23.3235C17.3754 22.6675 16.8437 22.1357 16.1877 22.1357C15.5318 22.1357 15 22.6675 15 23.3235C15 23.9794 15.5318 24.5112 16.1877 24.5112Z" fill="#FF7E8E"/>
<path d="M16.2287 45.8901C16.8847 45.8901 17.4165 45.3583 17.4165 44.7024C17.4165 44.0464 16.8847 43.5146 16.2287 43.5146C15.5728 43.5146 15.041 44.0464 15.041 44.7024C15.041 45.3583 15.5728 45.8901 16.2287 45.8901Z" fill="#FF7E8E"/>
<path d="M51.8127 24.4975C52.4687 24.4975 53.0004 23.9658 53.0004 23.3098C53.0004 22.6538 52.4687 22.1221 51.8127 22.1221C51.1568 22.1221 50.625 22.6538 50.625 23.3098C50.625 23.9658 51.1568 24.4975 51.8127 24.4975Z" fill="#FF7E8E"/>
<path d="M51.8127 45.8774C52.4687 45.8774 53.0004 45.3456 53.0004 44.6897C53.0004 44.0337 52.4687 43.502 51.8127 43.502C51.1568 43.502 50.625 44.0337 50.625 44.6897C50.625 45.3456 51.1568 45.8774 51.8127 45.8774Z" fill="#FF7E8E"/>
</g>
<defs>
<clipPath id="clip0_2539_2593">
<rect width="38" height="38" fill="white" transform="translate(15 15)"/>
</clipPath>
</defs>
</svg>
