<svg width="68" height="68" viewBox="0 0 68 68" fill="none" xmlns="http://www.w3.org/2000/svg">
<circle cx="34" cy="34" r="34" fill="#E3E3E3" fill-opacity="0.43"/>
<g clip-path="url(#clip0_2539_2722)">
<path d="M26.9658 46.0039H41.0342V51.8148H26.9658V46.0039Z" fill="#A8D3D8"/>
<path d="M38.7402 46.0039H41.034V51.8148H38.7402V46.0039Z" fill="#8EBAC5"/>
<path d="M51.7767 47.113H16.2233C15.5477 47.113 15 46.5653 15 45.8897V22.6462C15 21.9706 15.5477 21.4229 16.2233 21.4229H51.7767C52.4523 21.4229 53 21.9706 53 22.6462V45.8897C53 46.5653 52.4523 47.113 51.7767 47.113Z" fill="#3692BC"/>
<path d="M51.7771 21.4229H49.4834C50.159 21.4229 50.7067 21.9706 50.7067 22.6462V45.8897C50.7067 46.5653 50.159 47.113 49.4834 47.113H51.7771C52.4527 47.113 53.0005 46.5653 53.0005 45.8897V22.6462C53.0005 21.9706 52.4527 21.4229 51.7771 21.4229Z" fill="#0681AF"/>
<path d="M17.2939 41.9366V23.9999C17.2939 23.8436 17.4207 23.7168 17.5771 23.7168H50.4232C50.5796 23.7168 50.7063 23.8436 50.7063 23.9999V41.9366C50.7063 42.093 50.5796 42.2198 50.4232 42.2198H17.5772C17.4208 42.2198 17.2939 42.093 17.2939 41.9366Z" fill="#EDF9D9"/>
<path d="M50.4226 23.7168H48.1289C48.2853 23.7168 48.4121 23.8436 48.4121 23.9999V41.9366C48.4121 42.093 48.2853 42.2198 48.1289 42.2198H50.4226C50.579 42.2198 50.7058 42.093 50.7058 41.9366V23.9999C50.7059 23.8436 50.579 23.7168 50.4226 23.7168Z" fill="#D5EFC8"/>
<path d="M42.1995 52.9999H25.8009C25.5576 52.9999 25.3604 52.8026 25.3604 52.5593V51.853C25.3604 51.2196 25.8738 50.7061 26.5073 50.7061H41.4932C42.1266 50.7061 42.6401 51.2195 42.6401 51.853V52.5593C42.64 52.8026 42.4428 52.9999 42.1995 52.9999Z" fill="#3692BC"/>
<path d="M41.4929 50.7061H39.1992C39.8326 50.7061 40.3461 51.2195 40.3461 51.853V52.5593C40.3461 52.8026 40.1488 52.9999 39.9056 52.9999H42.1993C42.4426 52.9999 42.6399 52.8026 42.6399 52.5593V51.853C42.6398 51.2195 42.1263 50.7061 41.4929 50.7061Z" fill="#0681AF"/>
<path d="M22.618 47.1129H20.3242V45.5073C20.3242 44.8739 20.8377 44.3604 21.4711 44.3604C22.1045 44.3604 22.618 44.8738 22.618 45.5073V47.1129Z" fill="#FE7AB6"/>
<path d="M44.8611 44.1533H43.8369C43.5294 44.1533 43.2803 44.4025 43.2803 44.71C43.2803 45.0174 43.5294 45.2666 43.8369 45.2666H44.8611C45.1686 45.2666 45.4178 45.0174 45.4178 44.71C45.4178 44.4025 45.1685 44.1533 44.8611 44.1533Z" fill="#EDF9D9"/>
<path d="M47.9334 44.1533H46.9092C46.6017 44.1533 46.3525 44.4025 46.3525 44.71C46.3525 45.0174 46.6017 45.2666 46.9092 45.2666H47.9334C48.2409 45.2666 48.49 45.0174 48.49 44.71C48.49 44.4025 48.2409 44.1533 47.9334 44.1533Z" fill="#EDF9D9"/>
<path d="M42.5811 38.0352H45.6807C45.9882 38.0352 46.2374 37.7859 46.2374 37.4785C46.2374 37.1711 45.9882 36.9219 45.6807 36.9219H42.5811C42.2736 36.9219 42.0244 37.1711 42.0244 37.4785C42.0244 37.7859 42.2736 38.0352 42.5811 38.0352Z" fill="#3692BC"/>
<path d="M47.1337 38.9268H42.5811C42.2736 38.9268 42.0244 39.176 42.0244 39.4834C42.0244 39.7908 42.2736 40.04 42.5811 40.04H47.1337C47.4412 40.04 47.6903 39.7908 47.6903 39.4834C47.6903 39.176 47.4412 38.9268 47.1337 38.9268Z" fill="#3692BC"/>
<path d="M27.3865 42.2194H17.5998C17.4309 42.2194 17.2939 42.0824 17.2939 41.9135V37.9377C17.2939 37.7688 17.4309 37.6318 17.5998 37.6318H27.3865C27.5554 37.6318 27.6924 37.7688 27.6924 37.9377V41.9135C27.6924 42.0825 27.5554 42.2194 27.3865 42.2194Z" fill="#FE7AB6"/>
<path d="M27.3865 37.6318H25.0928C25.2617 37.6318 25.3986 37.7688 25.3986 37.9377V41.9135C25.3986 42.0824 25.2617 42.2194 25.0928 42.2194H27.3865C27.5554 42.2194 27.6924 42.0824 27.6924 41.9135V37.9377C27.6924 37.7687 27.5554 37.6318 27.3865 37.6318Z" fill="#FE5CA7"/>
<path d="M24.8541 15H43.1439C44.0899 15 44.8569 15.7682 44.8569 16.7158V32.3968C44.8569 33.3436 44.0907 34.1111 43.1454 34.1111H36.7939C36.3955 34.1111 35.9219 34.4023 35.7414 34.7581L34.5264 37.155C34.3075 37.5868 33.6918 37.5868 33.4729 37.155L32.2577 34.7581C32.0773 34.4023 31.6037 34.1111 31.2053 34.1111H24.8555C23.9095 34.1111 23.1426 33.3429 23.1426 32.3953V16.7143C23.1426 15.7675 23.9089 15 24.8541 15Z" fill="#EAF6FF"/>
<path d="M37.0499 23.3849C37.0524 24.2683 36.6794 25.0648 36.0815 25.6233C35.6511 26.0253 35.4051 26.5865 35.4051 27.1754V28.0293H32.594V27.1999C32.594 26.6073 32.3591 26.0331 31.9247 25.63C31.3246 25.073 30.9492 24.2773 30.9492 23.3941C30.9492 21.7092 32.3147 20.3438 33.9995 20.3438C35.6924 20.3436 37.045 21.692 37.0499 23.3849Z" fill="#FDB441"/>
<path d="M33.9996 20.3438C33.5955 20.3438 33.2101 20.423 32.8571 20.5657C33.9726 21.0151 34.7525 22.1005 34.7562 23.385C34.7587 24.2684 34.3858 25.0649 33.7879 25.6234C33.4099 25.9764 32.7389 26.4523 32.5811 26.9618C32.5895 27.0407 32.5941 27.1201 32.5941 27.2V28.0294H35.4052V27.1755C35.4052 26.5866 35.6513 26.0253 36.0817 25.6234C36.6796 25.0649 37.0526 24.2684 37.05 23.385C37.045 21.6921 35.6925 20.3437 33.9996 20.3438Z" fill="#FE9738"/>
<path d="M35.9138 28.3035V29.3701C35.9138 30.083 35.3358 30.6609 34.6229 30.6609H33.3768C32.6639 30.6609 32.0859 30.083 32.0859 29.3701V28.3035C32.0859 28.1521 32.2087 28.0293 32.3601 28.0293H35.6397C35.791 28.0293 35.9138 28.1521 35.9138 28.3035Z" fill="#3692BC"/>
<path d="M43.1433 15H40.8496C41.7956 15 42.5626 15.7682 42.5626 16.7158V32.3968C42.5626 33.3436 41.7963 34.1111 40.8511 34.1111H43.1448C44.0901 34.1111 44.8563 33.3436 44.8563 32.3968V16.7158C44.8563 15.7682 44.0894 15 43.1433 15Z" fill="#D8ECFE"/>
<path d="M33.4475 34.7584L32.8525 35.932L33.4727 37.1553C33.6916 37.587 34.3073 37.587 34.5262 37.1553L35.7412 34.7584C35.9216 34.4025 36.3952 34.1113 36.7937 34.1113H34.5C34.1015 34.1113 33.6278 34.4025 33.4475 34.7584Z" fill="#D8ECFE"/>
<path d="M34 17.0811C33.6926 17.0811 33.4434 17.3303 33.4434 17.6377V18.2493C33.4434 18.5567 33.6926 18.806 34 18.806C34.3075 18.806 34.5566 18.5567 34.5566 18.2493V17.6377C34.5566 17.3303 34.3075 17.0811 34 17.0811Z" fill="#FDB441"/>
<path d="M31.653 18.1173C31.4992 17.851 31.1588 17.7598 30.8927 17.9135C30.6264 18.0672 30.5352 18.4077 30.6889 18.6739L30.9948 19.2036C31.0979 19.3822 31.285 19.482 31.4774 19.482C31.5718 19.482 31.6675 19.458 31.7552 19.4073C32.0214 19.2536 32.1126 18.9132 31.9589 18.647L31.653 18.1173Z" fill="#FDB441"/>
<path d="M29.9077 20.2907L29.378 19.9848C29.1118 19.8311 28.7713 19.9223 28.6176 20.1886C28.4639 20.4548 28.5551 20.7952 28.8214 20.9489L29.3511 21.2548C29.4387 21.3054 29.5345 21.3294 29.6289 21.3294C29.8212 21.3294 30.0083 21.2295 30.1114 21.051C30.2652 20.7848 30.174 20.4443 29.9077 20.2907Z" fill="#FDB441"/>
<path d="M39.1783 25.6423L38.6485 25.3364C38.3823 25.1827 38.0418 25.2739 37.8881 25.5402C37.7344 25.8064 37.8257 26.1468 38.0919 26.3005L38.6216 26.6064C38.7093 26.657 38.805 26.6811 38.8994 26.6811C39.0918 26.6811 39.2789 26.5812 39.382 26.4027C39.5357 26.1365 39.4444 25.7961 39.1783 25.6423Z" fill="#FDB441"/>
<path d="M29.5101 23.2959C29.5101 22.9885 29.2608 22.7393 28.9534 22.7393H28.3418C28.0344 22.7393 27.7852 22.9885 27.7852 23.2959C27.7852 23.6033 28.0344 23.8525 28.3418 23.8525H28.9534C29.2608 23.8525 29.5101 23.6033 29.5101 23.2959Z" fill="#FDB441"/>
<path d="M39.6575 22.7393H39.0459C38.7384 22.7393 38.4893 22.9885 38.4893 23.2959C38.4893 23.6033 38.7384 23.8525 39.0459 23.8525H39.6575C39.965 23.8525 40.2142 23.6033 40.2142 23.2959C40.2142 22.9885 39.965 22.7393 39.6575 22.7393Z" fill="#FDB441"/>
<path d="M29.3511 25.3364L28.8214 25.6422C28.5551 25.7959 28.4639 26.1364 28.6176 26.4027C28.7207 26.5813 28.9078 26.6811 29.1002 26.6811C29.1946 26.6811 29.2904 26.657 29.3781 26.6064L29.9078 26.3006C30.174 26.1469 30.2652 25.8064 30.1115 25.5401C29.9577 25.2739 29.6173 25.1827 29.3511 25.3364Z" fill="#FDB441"/>
<path d="M38.3707 21.3295C38.4651 21.3295 38.5609 21.3054 38.6485 21.2548L39.1783 20.9489C39.4445 20.7952 39.5357 20.4548 39.382 20.1886C39.2284 19.9223 38.888 19.8311 38.6216 19.9848L38.0919 20.2907C37.8257 20.4444 37.7344 20.7848 37.8881 21.0511C37.9912 21.2296 38.1783 21.3295 38.3707 21.3295Z" fill="#FDB441"/>
<path d="M37.1067 17.9136C36.8405 17.7598 36.5001 17.8511 36.3463 18.1173L36.0405 18.647C35.8868 18.9132 35.978 19.2537 36.2442 19.4074C36.3319 19.4581 36.4276 19.4821 36.522 19.4821C36.7144 19.4821 36.9014 19.3822 37.0046 19.2037L37.3104 18.674C37.4642 18.4077 37.3729 18.0673 37.1067 17.9136Z" fill="#FDB441"/>
</g>
<defs>
<clipPath id="clip0_2539_2722">
<rect width="38" height="38" fill="white" transform="translate(15 15)"/>
</clipPath>
</defs>
</svg>
