<svg width="68" height="68" viewBox="0 0 68 68" fill="none" xmlns="http://www.w3.org/2000/svg">
<circle cx="34" cy="34" r="34" fill="#E3E3E3" fill-opacity="0.43"/>
<path d="M24.8907 39.7281C24.8907 40.0086 24.6625 40.2369 24.382 40.2369H19.3535V41.3517H24.3819C25.2771 41.3517 26.0055 40.6233 26.0055 39.7281V35.1299H24.8907L24.8907 39.7281Z" fill="#15CDFF"/>
<path d="M43.6392 40.2222C43.3587 40.2222 43.1305 39.994 43.1305 39.7135V35.1152H42.0156V39.7135C42.0156 40.6087 42.744 41.337 43.6392 41.337H48.6677V40.2222H43.6392Z" fill="#15CDFF"/>
<path d="M33.4629 35.1299H34.5777V40.5161H33.4629V35.1299Z" fill="#15CDFF"/>
<path d="M28.9519 34.5732C28.6441 34.5732 28.3945 34.8228 28.3945 35.1307V37.0805C28.3945 37.3883 28.6441 37.6379 28.9519 37.6379C29.2598 37.6379 29.5094 37.3883 29.5094 37.0805V35.1307C29.5094 34.8227 29.2598 34.5732 28.9519 34.5732Z" fill="#15CDFF"/>
<path d="M28.9519 39.1064C28.6441 39.1064 28.3945 39.356 28.3945 39.6639V45.7193C28.3945 46.0271 28.6441 46.2767 28.9519 46.2767C29.2598 46.2767 29.5094 46.0271 29.5094 45.7193V39.6639C29.5094 39.356 29.2598 39.1064 28.9519 39.1064Z" fill="#15CDFF"/>
<path d="M39.0486 34.5713C38.7408 34.5713 38.4912 34.8209 38.4912 35.1287V41.1663C38.4912 41.4742 38.7408 41.7238 39.0486 41.7238C39.3565 41.7238 39.606 41.4742 39.606 41.1663V35.1287C39.606 34.8209 39.3565 34.5713 39.0486 34.5713Z" fill="#15CDFF"/>
<path d="M39.0486 43.2041C38.7408 43.2041 38.4912 43.4537 38.4912 43.7615V45.7175C38.4912 46.0254 38.7408 46.2749 39.0486 46.2749C39.3565 46.2749 39.606 46.0254 39.606 45.7175V43.7615C39.606 43.4537 39.3565 43.2041 39.0486 43.2041Z" fill="#15CDFF"/>
<path d="M49.7522 30.6985C49.7522 32.4926 48.8001 34.069 47.3746 34.9475C46.6143 35.4172 45.7195 35.6877 44.763 35.6877H24.3794C20.9985 35.6877 18.2471 32.9371 18.2471 29.5554C18.2471 26.1745 20.9985 23.4239 24.3794 23.4239C24.8967 23.4239 25.4073 23.4878 25.903 23.6149C26.2382 22.7356 26.7168 21.9114 27.3129 21.1801C27.767 20.6219 28.2887 20.118 28.8662 19.6847C30.4002 18.5349 32.2278 17.9277 34.1498 17.9277C38.7793 17.9277 42.5876 21.513 42.9436 26.0526C43.5196 25.8267 44.1357 25.71 44.763 25.71C47.5136 25.71 49.7522 27.9478 49.7522 30.6985Z" fill="#DCF3FF"/>
<path d="M49.7528 30.6985C49.7528 32.4926 48.8007 34.069 47.3752 34.9475C47.9037 34.156 48.2121 33.2061 48.2121 32.1849C48.2121 29.4343 45.9735 27.1964 43.2229 27.1964C42.5956 27.1964 41.9795 27.3131 41.4035 27.5391C41.0475 22.9995 37.2392 19.4142 32.6097 19.4142C30.6877 19.4142 28.8601 20.0214 27.3261 21.1712C27.3217 21.1741 27.3179 21.1771 27.3135 21.1801C27.7676 20.6219 28.2893 20.118 28.8668 19.6847C30.4008 18.5349 32.2284 17.9277 34.1504 17.9277C38.7799 17.9277 42.5882 21.513 42.9442 26.0526C43.5202 25.8267 44.1363 25.71 44.7636 25.71C47.5142 25.71 49.7528 27.9478 49.7528 30.6985Z" fill="#AEDFF4"/>
<path d="M17.4554 43.2496C18.8114 43.2496 19.9108 42.1503 19.9108 40.7942C19.9108 39.4382 18.8114 38.3389 17.4554 38.3389C16.0993 38.3389 15 39.4382 15 40.7942C15 42.1503 16.0993 43.2496 17.4554 43.2496Z" fill="#317794"/>
<path d="M50.5442 43.2496C51.9003 43.2496 52.9996 42.1503 52.9996 40.7942C52.9996 39.4382 51.9003 38.3389 50.5442 38.3389C49.1882 38.3389 48.0889 39.4382 48.0889 40.7942C48.0889 42.1503 49.1882 43.2496 50.5442 43.2496Z" fill="#317794"/>
<path d="M34.0198 39.959C32.666 39.959 31.5645 41.0604 31.5645 42.4144C31.5645 43.7683 32.6659 44.8697 34.0198 44.8697C35.3738 44.8697 36.4752 43.7683 36.4752 42.4144C36.4752 41.0604 35.3738 39.959 34.0198 39.959Z" fill="#317794"/>
<path d="M28.9525 50.0719C30.3085 50.0719 31.4078 48.9726 31.4078 47.6165C31.4078 46.2604 30.3085 45.1611 28.9525 45.1611C27.5964 45.1611 26.4971 46.2604 26.4971 47.6165C26.4971 48.9726 27.5964 50.0719 28.9525 50.0719Z" fill="#317794"/>
<path d="M39.0482 50.0699C40.4042 50.0699 41.5035 48.9706 41.5035 47.6146C41.5035 46.2585 40.4042 45.1592 39.0482 45.1592C37.6921 45.1592 36.5928 46.2585 36.5928 47.6146C36.5928 48.9706 37.6921 50.0699 39.0482 50.0699Z" fill="#317794"/>
</svg>
