<svg width="64" height="64" viewBox="0 0 64 64" fill="none" xmlns="http://www.w3.org/2000/svg">
<path d="M30.6743 57.6548C46.3368 57.6548 59.0337 44.9579 59.0337 29.2954C59.0337 13.633 46.3368 0.936035 30.6743 0.936035C15.0119 0.936035 2.31494 13.633 2.31494 29.2954C2.31494 44.9579 15.0119 57.6548 30.6743 57.6548Z" fill="#F6F1F1"/>
<path d="M47.5695 6.51709C50.8944 11.163 52.852 16.8542 52.852 23.0031C52.852 38.6656 40.1552 51.3625 24.4927 51.3625C18.1619 51.3625 12.3163 49.2873 7.59717 45.7812C12.7417 52.9696 21.1604 57.6547 30.674 57.6547C46.3365 57.6547 59.0334 44.9577 59.0334 29.2953C59.0334 19.9636 54.5257 11.6853 47.5695 6.51709Z" fill="#E7ECF6"/>
<path d="M30.6743 58.5908C22.8492 58.5908 15.4924 55.5435 9.95928 50.0103C4.42616 44.4772 1.37891 37.1205 1.37891 29.2954C1.37891 21.4703 4.42616 14.1135 9.95928 8.5805C15.4924 3.04725 22.8492 0 30.6743 0C38.4994 0 45.856 3.04725 51.3893 8.5805C56.9224 14.1136 59.9697 21.4704 59.9697 29.2954C59.9697 37.1204 56.9224 44.4772 51.3893 50.0103C45.8562 55.5435 38.4994 58.5908 30.6743 58.5908ZM30.6743 1.872C15.5529 1.872 3.25078 14.1741 3.25078 29.2954C3.25078 44.4166 15.553 56.7188 30.6743 56.7188C45.7955 56.7188 58.0977 44.4166 58.0977 29.2954C58.0977 14.1741 45.7957 1.872 30.6743 1.872Z" fill="#D5DFF4"/>
<path d="M30.6741 47.7712C20.4865 47.7712 12.1982 39.483 12.1982 29.2953C12.1982 19.1076 20.4865 10.8193 30.6741 10.8193C40.8619 10.8193 49.1501 19.1076 49.1501 29.2953C49.1501 39.4828 40.8619 47.7712 30.6741 47.7712ZM30.6741 14.6987C22.6256 14.6987 16.0776 21.2467 16.0776 29.2953C16.0776 37.3438 22.6256 43.8918 30.6741 43.8918C38.7227 43.8918 45.2707 37.3438 45.2707 29.2953C45.2707 21.2466 38.7227 14.6987 30.6741 14.6987Z" fill="#9DC6FB"/>
<path d="M31.4222 38.7169C26.2271 38.7169 22.0005 34.4904 22.0005 29.2953C22.0005 24.1002 26.227 19.8735 31.4222 19.8735C33.31 19.8735 35.132 20.4303 36.6914 21.4838C37.5791 22.0834 37.8125 23.2893 37.2127 24.1769C36.613 25.0647 35.4074 25.2979 34.5196 24.6983C33.6042 24.0798 32.5331 23.7529 31.4222 23.7529C28.3662 23.7529 25.88 26.2393 25.88 29.2952C25.88 32.351 28.3664 34.8374 31.4222 34.8374C32.5501 34.8374 33.4976 34.5028 34.2387 33.843C34.3829 33.7144 34.5215 33.5714 34.6497 33.4185C35.3381 32.5978 36.5614 32.4904 37.3824 33.1789C38.2031 33.8673 38.3105 35.0908 37.622 35.9115C37.3736 36.2077 37.1034 36.4864 36.8191 36.7398C35.3665 38.0334 33.5004 38.7169 31.4222 38.7169Z" fill="#9DC6FB"/>
<path d="M43.3097 15.8291C45.9022 19.0105 47.459 23.0675 47.459 27.4817C47.459 37.6694 39.1708 45.9576 28.983 45.9576C24.1002 45.9576 19.6544 44.0527 16.3477 40.9482C19.7383 45.1091 24.9009 47.7716 30.6743 47.7716C40.862 47.7716 49.1503 39.4834 49.1503 29.2957C49.1502 23.9909 46.9022 19.2019 43.3097 15.8291Z" fill="#89AADA"/>
<path d="M55.5025 36.1148L51.9452 33.8046C51.6799 33.6322 51.3379 33.6322 51.0724 33.8046L47.5151 36.1148C46.2311 36.9487 44.733 37.3924 43.2021 37.3924H40.8539C40.601 37.3924 40.396 37.5974 40.396 37.8503V50.6982C40.396 54.6028 42.3719 58.2422 45.6465 60.369L51.01 63.8523C51.3134 64.0493 51.7041 64.0493 52.0075 63.8523L57.371 60.369C60.6456 58.2422 62.6215 54.6028 62.6215 50.6982V37.8503C62.6215 37.5974 62.4165 37.3924 62.1636 37.3924H59.8154C58.2845 37.3926 56.7864 36.9487 55.5025 36.1148Z" fill="#26457D"/>
<path d="M55.5025 36.1148L51.9452 33.8046C51.6799 33.6322 51.3379 33.6322 51.0724 33.8046L47.5151 36.1148C46.2311 36.9487 44.733 37.3924 43.2021 37.3924H40.8539C40.601 37.3924 40.396 37.5974 40.396 37.8503V50.6982C40.396 54.6028 42.3719 58.2422 45.6465 60.369L51.01 63.8523C51.3134 64.0493 51.7041 64.0493 52.0075 63.8523L57.371 60.369C60.6456 58.2422 62.6215 54.6028 62.6215 50.6982V37.8503C62.6215 37.5974 62.4165 37.3924 62.1636 37.3924H59.8154C58.2845 37.3926 56.7864 36.9487 55.5025 36.1148Z" fill="#335995"/>
<path d="M62.1636 37.3921H59.8153C59.6763 37.3921 59.5377 37.3873 59.3993 37.3799V48.5826C59.3993 52.7723 57.2792 56.6774 53.7656 58.9593L48.6211 62.3004L51.01 63.8519C51.3133 64.0489 51.7041 64.0489 52.0075 63.8519L57.371 60.3685C60.6456 58.2418 62.6215 54.6024 62.6215 50.6978V37.8499C62.6215 37.5971 62.4165 37.3921 62.1636 37.3921Z" fill="#26457D"/>
<path d="M51.0724 33.8045L47.5151 36.1148C46.2311 36.9487 44.733 37.3924 43.2021 37.3924H40.8539C40.601 37.3924 40.396 37.5974 40.396 37.8503V50.6982C40.396 54.6028 42.3719 58.2422 45.6465 60.3689L51.01 63.8523C51.1616 63.9508 51.3352 64 51.5087 64V33.6753C51.357 33.6753 51.2051 33.7183 51.0724 33.8045Z" fill="#26457D"/>
<path d="M51.5087 63.9999V60.4253L48.6211 62.3007L51.01 63.8522C51.1616 63.9507 51.3351 63.9999 51.5087 63.9999Z" fill="#21386B"/>
<path d="M44.8947 43.2616C45.5574 43.2616 46.0946 42.7244 46.0946 42.0617C46.0946 41.399 45.5574 40.8618 44.8947 40.8618C44.232 40.8618 43.6948 41.399 43.6948 42.0617C43.6948 42.7244 44.232 43.2616 44.8947 43.2616Z" fill="#89AADA"/>
<path d="M58.1222 43.2616C58.7849 43.2616 59.3221 42.7244 59.3221 42.0617C59.3221 41.399 58.7849 40.8618 58.1222 40.8618C57.4596 40.8618 56.9224 41.399 56.9224 42.0617C56.9224 42.7244 57.4596 43.2616 58.1222 43.2616Z" fill="#89AADA"/>
<path d="M47.797 58.6439C48.4597 58.6439 48.9969 58.1067 48.9969 57.444C48.9969 56.7813 48.4597 56.2441 47.797 56.2441C47.1344 56.2441 46.5972 56.7813 46.5972 57.444C46.5972 58.1067 47.1344 58.6439 47.797 58.6439Z" fill="#89AADA"/>
<path d="M55.2204 58.6439C55.8831 58.6439 56.4203 58.1067 56.4203 57.444C56.4203 56.7813 55.8831 56.2441 55.2204 56.2441C54.5577 56.2441 54.0205 56.7813 54.0205 57.444C54.0205 58.1067 54.5577 58.6439 55.2204 58.6439Z" fill="#89AADA"/>
</svg>
