<svg width="33" height="33" viewBox="0 0 33 33" fill="none" xmlns="http://www.w3.org/2000/svg">
<circle cx="16.5" cy="16.5" r="16" stroke="#01142B"/>
<g clip-path="url(#clip0_2569_5489)">
<mask id="mask0_2569_5489" style="mask-type:luminance" maskUnits="userSpaceOnUse" x="5" y="6" width="20" height="20">
<path d="M5 6H25V26H5V6Z" fill="white"/>
</mask>
<g mask="url(#mask0_2569_5489)">
<path d="M16.0413 21.8388C16.0389 21.8459 16.0366 21.853 16.0342 21.8602C15.3028 24.0378 13.2581 25.6094 10.8566 25.6094C7.8432 25.6094 5.3916 23.1349 5.3916 20.0934C5.3916 17.052 7.8432 14.5775 10.8566 14.5775C13.2572 14.5775 15.3012 16.1478 16.0333 18.3241" stroke="#01142B" stroke-miterlimit="10" stroke-linecap="round" stroke-linejoin="round"/>
<path d="M10.8566 23.8887C8.79199 23.8887 7.1123 22.1862 7.1123 20.0936C7.1123 18.0009 8.79199 16.2984 10.8566 16.2984C12.9212 16.2984 14.6009 18.0009 14.6009 20.0936C14.6009 22.1862 12.9212 23.8887 10.8566 23.8887Z" stroke="#01142B" stroke-miterlimit="10" stroke-linecap="round" stroke-linejoin="round"/>
<path d="M11.0214 20.5221V21.3082C11.2208 21.2613 11.3792 21.1498 11.3792 20.9387C11.3792 20.7451 11.2325 20.6219 11.0214 20.5221ZM10.6929 19.4369V18.7388C10.4289 18.7916 10.3175 18.9265 10.3175 19.0673C10.3175 19.2375 10.47 19.343 10.6929 19.4369ZM10.6342 22.1471C9.93031 22.1236 9.35547 21.7599 9.35547 21.3845C9.35547 21.185 9.53145 20.8917 9.75434 20.8917C10.0007 20.8917 10.2002 21.2378 10.6342 21.3141V20.3638C10.0946 20.1584 9.46105 19.9062 9.46105 19.1553C9.46105 18.4103 10.0125 18.0525 10.6342 17.9645V17.8002C10.6342 17.7181 10.7281 17.6418 10.8571 17.6418C10.9686 17.6418 11.08 17.7181 11.08 17.8002V17.9469C11.4437 17.9586 12.13 18.0525 12.13 18.4573C12.13 18.6156 12.0245 18.9382 11.7664 18.9382C11.5728 18.9382 11.4613 18.7505 11.08 18.7212V19.5777C11.6139 19.7771 12.2356 20.0529 12.2356 20.8448C12.2356 21.5722 11.7664 22.0122 11.08 22.1236V22.2938C11.08 22.3759 10.9686 22.4521 10.8571 22.4521C10.7281 22.4521 10.6342 22.3759 10.6342 22.2938V22.1471Z" fill="#01142B"/>
<path d="M21.9703 25.6094H19.7087V21.3691H18.6025L20.8395 17.8685L23.0765 21.3691H21.9703V25.6094Z" stroke="#01142B" stroke-miterlimit="10" stroke-linecap="round" stroke-linejoin="round"/>
<path d="M19.708 21.3691H20.303" stroke="#01142B" stroke-miterlimit="10" stroke-linecap="round" stroke-linejoin="round"/>
<path d="M23.6361 15.9307H18.043C17.5052 15.9307 17.0693 15.4947 17.0693 14.957V8.84566H24.6097V14.957C24.6097 15.4947 24.1738 15.9307 23.6361 15.9307Z" stroke="#01142B" stroke-miterlimit="10" stroke-linecap="round" stroke-linejoin="round"/>
<path d="M18.7988 10.4717V8.43102C18.7988 7.30402 19.7124 6.39039 20.8394 6.39039C21.9663 6.39039 22.8799 7.30402 22.8799 8.43102V10.4717" stroke="#01142B" stroke-miterlimit="10" stroke-linecap="round" stroke-linejoin="round"/>
</g>
</g>
<defs>
<clipPath id="clip0_2569_5489">
<rect width="20" height="20" fill="white" transform="translate(5 6)"/>
</clipPath>
</defs>
</svg>
