<svg width="64" height="64" viewBox="0 0 64 64" fill="none" xmlns="http://www.w3.org/2000/svg">
<path fill-rule="evenodd" clip-rule="evenodd" d="M11.6887 23.4116H2.74121C2.32746 23.4116 1.99121 23.0754 1.99121 22.6616V17.2754C1.99121 16.8604 2.32746 16.5254 2.74121 16.5254C3.15496 16.5254 3.49121 16.8604 3.49121 17.2754V21.9116H11.6887C12.1025 21.9116 12.4387 22.2466 12.4387 22.6616C12.4387 23.0754 12.1037 23.4116 11.6887 23.4116ZM61.2587 47.4754C60.845 47.4754 60.5087 47.1404 60.5087 46.7254V42.0891H52.3112C51.8975 42.0891 51.5612 41.7541 51.5612 41.3391C51.5612 40.9254 51.8975 40.5891 52.3112 40.5891H61.2587C61.6725 40.5891 62.0087 40.9254 62.0087 41.3391V46.7254C62.0087 47.1404 61.6737 47.4754 61.2587 47.4754ZM58.6962 36.9866H52.3112C51.8975 36.9866 51.5612 36.6504 51.5612 36.2366C51.5612 35.8229 51.8975 35.4866 52.3112 35.4866H58.6962C59.11 35.4866 59.4462 35.8229 59.4462 36.2366C59.4462 36.6504 59.11 36.9866 58.6962 36.9866ZM58.6962 28.5141H52.3112C51.8975 28.5141 51.5612 28.1791 51.5612 27.7641C51.5612 27.3504 51.8975 27.0141 52.3112 27.0141H58.6962C59.11 27.0141 59.4462 27.3504 59.4462 27.7641C59.4462 28.1791 59.11 28.5141 58.6962 28.5141ZM61.2587 23.4116H52.3112C51.8975 23.4116 51.5612 23.0754 51.5612 22.6616C51.5612 22.2466 51.8975 21.9116 52.3112 21.9116H60.5087V17.2754C60.5087 16.8616 60.845 16.5254 61.2587 16.5254C61.6725 16.5254 62.0087 16.8616 62.0087 17.2754V22.6616C62.0087 23.0754 61.6737 23.4116 61.2587 23.4116ZM2.74121 47.4754C2.32746 47.4754 1.99121 47.1391 1.99121 46.7254V41.3391C1.99121 40.9254 2.32746 40.5891 2.74121 40.5891H11.6887C12.1025 40.5891 12.4387 40.9254 12.4387 41.3391C12.4387 41.7541 12.1025 42.0891 11.6887 42.0891H3.49121V46.7254C3.49121 47.1391 3.15496 47.4754 2.74121 47.4754ZM11.6887 36.9866H5.30371C4.88996 36.9866 4.55371 36.6504 4.55371 36.2366C4.55371 35.8216 4.88996 35.4866 5.30371 35.4866H11.6887C12.1037 35.4866 12.4387 35.8216 12.4387 36.2366C12.4387 36.6504 12.1037 36.9866 11.6887 36.9866ZM11.6887 28.5141H5.30371C4.88996 28.5141 4.55371 28.1779 4.55371 27.7641C4.55371 27.3504 4.88996 27.0141 5.30371 27.0141H11.6887C12.1037 27.0141 12.4387 27.3504 12.4387 27.7641C12.4387 28.1779 12.1037 28.5141 11.6887 28.5141Z" fill="#808386"/>
<path fill-rule="evenodd" clip-rule="evenodd" d="M31.8877 58.5939C31.7415 58.5939 31.5952 58.5514 31.469 58.4664L29.8477 57.3752C28.569 56.5152 27.194 55.6777 25.739 54.7902C18.8015 50.5614 10.939 45.7677 10.939 36.5664V15.4789C10.939 15.1864 11.109 14.9202 11.3752 14.7977L31.5727 5.47518C31.7727 5.38393 32.0027 5.38393 32.2015 5.47518L52.399 14.7977C52.6652 14.9202 52.8352 15.1864 52.8352 15.4789V36.5664C52.8352 45.7677 44.9727 50.5614 38.0352 54.7902C36.5802 55.6777 35.2052 56.5152 33.9265 57.3752L32.3065 58.4664C32.179 58.5514 32.0327 58.5939 31.8877 58.5939Z" fill="#27D674"/>
<path fill-rule="evenodd" clip-rule="evenodd" d="M31.8815 55.0775C31.6852 55.0763 31.4952 55.0175 31.3315 54.9088C30.1115 54.0938 28.849 53.3338 27.594 52.5713C23.414 50.0338 18.029 46.8388 15.4815 42.5988C14.3577 40.7275 13.814 38.7488 13.814 36.5663V17.4775C13.814 17.0875 14.0415 16.7325 14.3952 16.57L31.4677 8.69002C31.734 8.56752 32.0402 8.56752 32.3065 8.69002L49.379 16.57C49.734 16.7325 49.9602 17.0875 49.9602 17.4775V36.5663C49.9602 42.9263 45.084 46.8738 40.1977 50.055C39.0215 50.82 37.824 51.55 36.6252 52.28C35.2365 53.125 33.8152 53.93 32.4902 54.8763C32.3115 55.005 32.1052 55.09 31.8815 55.0775Z" fill="#1D9D55"/>
<path fill-rule="evenodd" clip-rule="evenodd" d="M31.8902 54.8278C31.889 54.8278 31.8877 54.8278 31.8877 54.8278C31.7415 54.8278 31.5965 54.7853 31.4702 54.7016C30.3402 53.9466 29.0702 53.1753 27.724 52.3591C23.2315 49.6316 18.1402 46.5391 15.6965 42.4703C14.5977 40.6428 14.064 38.7116 14.064 36.5666V17.4778C14.064 17.1853 14.234 16.9191 14.5002 16.7966L31.5727 8.91658C31.7727 8.82533 32.0015 8.82533 32.2015 8.91658L49.2752 16.7966C49.5402 16.9191 49.7102 17.1853 49.7102 17.4778V36.5666C49.7102 42.7153 45.0727 46.5828 40.0615 49.8453C38.8852 50.6116 37.6702 51.3516 36.4952 52.0666C35.1202 52.9041 33.699 53.7691 32.3452 54.6741C32.219 54.7703 32.0615 54.8278 31.8902 54.8278Z" fill="white"/>
<path fill-rule="evenodd" clip-rule="evenodd" d="M3.31352 30.505C1.80102 30.505 0.572266 29.275 0.572266 27.7637C0.572266 26.2525 1.80102 25.0225 3.31352 25.0225C4.82477 25.0225 6.05352 26.2525 6.05352 27.7637C6.05352 29.275 4.82477 30.505 3.31352 30.505Z" fill="#FFCD00"/>
<path fill-rule="evenodd" clip-rule="evenodd" d="M3.31352 38.9764C1.80102 38.9764 0.572266 37.7476 0.572266 36.2364C0.572266 34.7239 1.80102 33.4951 3.31352 33.4951C4.82477 33.4951 6.05352 34.7239 6.05352 36.2364C6.05352 37.7476 4.82477 38.9764 3.31352 38.9764Z" fill="#FFCD00"/>
<path fill-rule="evenodd" clip-rule="evenodd" d="M2.74125 51.4563C1.23 51.4563 0 50.2276 0 48.7164C0 47.2051 1.23 45.9751 2.74125 45.9751C4.2525 45.9751 5.48125 47.2051 5.48125 48.7164C5.48125 50.2276 4.2525 51.4563 2.74125 51.4563Z" fill="#FC6559"/>
<path fill-rule="evenodd" clip-rule="evenodd" d="M2.74125 18.025C1.23 18.025 0 16.795 0 15.2837C0 13.7725 1.23 12.5425 2.74125 12.5425C4.2525 12.5425 5.48125 13.7725 5.48125 15.2837C5.48125 16.795 4.2525 18.025 2.74125 18.025Z" fill="#FC6559"/>
<path fill-rule="evenodd" clip-rule="evenodd" d="M60.6863 30.505C59.175 30.505 57.9463 29.275 57.9463 27.7637C57.9463 26.2525 59.175 25.0225 60.6863 25.0225C62.1988 25.0225 63.4275 26.2525 63.4275 27.7637C63.4275 29.275 62.1988 30.505 60.6863 30.505Z" fill="#FFCD00"/>
<path fill-rule="evenodd" clip-rule="evenodd" d="M60.6863 38.9764C59.175 38.9764 57.9463 37.7476 57.9463 36.2364C57.9463 34.7251 59.175 33.4951 60.6863 33.4951C62.1988 33.4951 63.4275 34.7251 63.4275 36.2364C63.4275 37.7476 62.1988 38.9764 60.6863 38.9764Z" fill="#FFCD00"/>
<path fill-rule="evenodd" clip-rule="evenodd" d="M61.2586 51.4563C59.7473 51.4563 58.5186 50.2276 58.5186 48.7164C58.5186 47.2051 59.7473 45.9751 61.2586 45.9751H61.2598C61.9911 45.9751 62.6798 46.2601 63.1973 46.7776C63.7148 47.2951 63.9998 47.9839 63.9998 48.7164C63.9998 50.2276 62.7698 51.4563 61.2586 51.4563Z" fill="#FC6559"/>
<path fill-rule="evenodd" clip-rule="evenodd" d="M61.2586 18.0252C59.7473 18.0252 58.5186 16.7952 58.5186 15.2839C58.5186 13.7727 59.7473 12.5439 61.2586 12.5439C62.7698 12.5439 63.9998 13.7727 63.9998 15.2839C63.9998 16.7952 62.7698 18.0252 61.2586 18.0252Z" fill="#FC6559"/>
<path fill-rule="evenodd" clip-rule="evenodd" d="M39.1174 28.22H36.1887C36.5099 28.22 36.7699 27.96 36.7699 27.6388V23.8863C36.7699 21.4975 34.8262 19.5537 32.4362 19.5537H31.3387C28.9487 19.5537 27.0049 21.4975 27.0049 23.8875V27.6388C27.0049 27.96 27.2649 28.22 27.5862 28.22H24.6574C24.3362 28.22 24.0762 27.96 24.0762 27.6388V23.8875C24.0762 19.8825 27.3337 16.625 31.3387 16.625H32.4362C36.4399 16.625 39.6987 19.8825 39.6987 23.8875V27.6388C39.6987 27.96 39.4374 28.22 39.1174 28.22Z" fill="#5F5F61"/>
<path fill-rule="evenodd" clip-rule="evenodd" d="M40.4899 42.3751H23.2849C22.5599 42.3751 21.9712 41.7864 21.9712 41.0614V28.3714C21.9712 27.6476 22.5599 27.0576 23.2849 27.0576H40.4899C41.2137 27.0576 41.8037 27.6476 41.8037 28.3714V41.0614C41.8037 41.7864 41.2137 42.3751 40.4899 42.3751Z" fill="#FFCD00"/>
<path fill-rule="evenodd" clip-rule="evenodd" d="M34.1163 39.4412C34.11 39.4425 34.1038 39.4425 34.0975 39.4412L29.6725 39.4425C29.4425 39.4425 29.225 39.34 29.0775 39.1637C28.93 38.9887 28.8688 38.7562 28.91 38.53L29.7013 34.1275C29.4013 33.6875 29.2413 33.17 29.2413 32.6362C29.2413 31.1775 30.4288 29.9912 31.8875 29.9912C33.3463 29.9912 34.5325 31.1775 34.5325 32.6362C34.5325 33.17 34.3738 33.6875 34.0738 34.1275L34.8563 38.4825C34.8675 38.545 34.8788 38.6025 34.8788 38.6675C34.8788 39.0912 34.5388 39.435 34.1163 39.4412Z" fill="#FF9600"/>
<path fill-rule="evenodd" clip-rule="evenodd" d="M34.1035 39.2488C34.1035 39.2488 34.1023 39.2488 34.101 39.2488H29.6723C29.4998 39.2488 29.3373 39.1726 29.226 39.0401C29.116 38.9076 29.0698 38.7338 29.0998 38.5638L29.906 34.0813C29.601 33.6638 29.4348 33.1613 29.4348 32.6363C29.4348 31.2851 30.5348 30.1851 31.8873 30.1851C33.2385 30.1851 34.3385 31.2851 34.3385 32.6363C34.3385 33.1613 34.1735 33.6638 33.8673 34.0813L34.6648 38.5163C34.6785 38.5651 34.6848 38.6151 34.6848 38.6676C34.6848 38.9876 34.4248 39.2488 34.1035 39.2488Z" fill="#A05B15"/>
</svg>
