<svg width="200" height="141" viewBox="0 0 200 141" fill="none" xmlns="http://www.w3.org/2000/svg">
<path d="M96.9872 138.573L8.93615 87.4466C4.95324 85.1339 4.95323 79.3818 8.93615 77.0691L96.9872 25.9427C98.8501 24.861 101.15 24.861 103.013 25.9427L191.064 77.0691C195.047 79.3818 195.047 85.1339 191.064 87.4466L103.013 138.573C101.15 139.655 98.8501 139.655 96.9872 138.573Z" fill="#D048FC"/>
<path d="M96.9872 132.122L8.93615 80.9954C4.95324 78.6828 4.95323 72.9306 8.93615 70.618L96.9872 19.4916C98.8501 18.4099 101.15 18.4099 103.013 19.4916L191.064 70.618C195.047 72.9306 195.047 78.6828 191.064 80.9954L103.013 132.122C101.15 133.204 98.8501 133.204 96.9872 132.122Z" fill="white"/>
<g clip-path="url(#clip0_2539_2809)">
<path d="M62.2485 2.64648V12.1727M57.4854 7.40959H67.0116M130.696 78.1505V87.6767M125.933 82.9136H135.459M93.7344 61.709L69.5043 85.9391C67.1874 88.2561 63.4309 88.2561 61.114 85.9391L59.2231 84.0481C56.9061 81.7311 56.9061 77.9746 59.2231 75.6578L83.4532 51.4277M75.1654 60.2448L84.5399 69.6193M110.762 16.9358L116.936 28.2258L128.226 34.4005L116.936 40.5753L110.762 51.8652L104.587 40.5753L93.2969 34.4005L104.587 28.2258L110.762 16.9358ZM71.4219 24.1687C71.4219 25.6301 70.2372 26.8148 68.7758 26.8148C67.3143 26.8148 66.1296 25.6301 66.1296 24.1687C66.1296 22.7072 67.3143 21.5225 68.7758 21.5225C70.2372 21.5225 71.4219 22.7072 71.4219 24.1687ZM64.0127 39.1636C64.0127 40.6251 62.8279 41.8098 61.3665 41.8098C59.905 41.8098 58.7203 40.6251 58.7203 39.1636C58.7203 37.7022 59.905 36.5175 61.3665 36.5175C62.8279 36.5175 64.0127 37.7022 64.0127 39.1636ZM145.162 67.3894C145.162 68.8509 143.977 70.0356 142.516 70.0356C141.054 70.0356 139.87 68.8509 139.87 67.3894C139.87 65.928 141.054 64.7433 142.516 64.7433C143.977 64.7433 145.162 65.928 145.162 67.3894ZM110.056 79.5618C110.056 81.0232 108.871 82.208 107.41 82.208C105.948 82.208 104.764 81.0232 104.764 79.5618C104.764 78.1004 105.948 76.9156 107.41 76.9156C108.871 76.9156 110.056 78.1004 110.056 79.5618ZM142.516 34.4005C142.516 51.9378 128.299 66.1545 110.762 66.1545C93.2244 66.1545 79.0076 51.9378 79.0076 34.4005C79.0076 16.8632 93.2244 2.64648 110.762 2.64648C128.299 2.64648 142.516 16.8632 142.516 34.4005Z" stroke="#D048FC" stroke-width="2" stroke-miterlimit="10" stroke-linecap="round" stroke-linejoin="round"/>
</g>
<defs>
<clipPath id="clip0_2539_2809">
<rect width="90.3226" height="90.3226" fill="white" transform="translate(54.8389)"/>
</clipPath>
</defs>
</svg>
