<svg width="33" height="33" viewBox="0 0 33 33" fill="none" xmlns="http://www.w3.org/2000/svg">
<circle cx="16.5" cy="16.5" r="16" stroke="#01142B"/>
<path fill-rule="evenodd" clip-rule="evenodd" d="M17 18.2656C14.7031 18.2656 12.875 16.4375 12.875 14.1406C12.875 11.8438 14.7031 10.0156 17 10.0156C19.2969 10.0156 21.125 11.8438 21.125 14.1406C21.125 16.4375 19.2969 18.2656 17 18.2656ZM17 10.6719C15.0781 10.6719 13.5312 12.2188 13.5312 14.1406C13.5312 16.0625 15.0781 17.6094 17 17.6094C18.9219 17.6094 20.4688 16.0625 20.4688 14.1406C20.4688 12.2188 18.9219 10.6719 17 10.6719Z" fill="#01142B"/>
<path fill-rule="evenodd" clip-rule="evenodd" d="M15.3122 16.9999C15.2654 16.9999 15.2185 16.9531 15.1716 16.9062C14.9841 16.8124 14.9372 16.6249 15.0779 16.4843L18.406 11.4218C18.4997 11.2812 18.6872 11.2343 18.8279 11.3749C19.0154 11.4687 19.0622 11.6562 18.9216 11.7968L15.5935 16.8124C15.5466 16.9531 15.4529 16.9999 15.3122 16.9999Z" fill="#01142B"/>
<path fill-rule="evenodd" clip-rule="evenodd" d="M15.6875 14.4688C15.0781 14.4688 14.5625 13.9531 14.5625 13.2969C14.5625 12.6875 15.0781 12.1719 15.6875 12.1719C16.3438 12.1719 16.8594 12.6875 16.8594 13.2969C16.8594 13.9531 16.3438 14.4688 15.6875 14.4688ZM15.6875 12.8281C15.4531 12.8281 15.2188 13.0156 15.2188 13.2969C15.2188 13.5781 15.4531 13.8125 15.6875 13.8125C15.9688 13.8125 16.2031 13.5781 16.2031 13.2969C16.2031 13.0156 15.9688 12.8281 15.6875 12.8281Z" fill="#01142B"/>
<path fill-rule="evenodd" clip-rule="evenodd" d="M18.3125 16.1094C17.6562 16.1094 17.1406 15.5938 17.1406 14.9844C17.1406 14.3281 17.6562 13.8125 18.3125 13.8125C18.9219 13.8125 19.4375 14.3281 19.4375 14.9844C19.4375 15.5938 18.9219 16.1094 18.3125 16.1094ZM18.3125 14.4688C18.0312 14.4688 17.7969 14.7031 17.7969 14.9844C17.7969 15.2656 18.0312 15.4531 18.3125 15.4531C18.5469 15.4531 18.7812 15.2656 18.7812 14.9844C18.7812 14.7031 18.5469 14.4688 18.3125 14.4688Z" fill="#01142B"/>
<path fill-rule="evenodd" clip-rule="evenodd" d="M17 26.5156C16.3906 26.5156 15.7812 26.2812 15.2656 25.8125L11.75 22.25C11.2812 21.8281 11.0469 21.1719 11.0469 20.5625C11.0469 19.9062 11.2812 19.2969 11.75 18.8281C12.5 18.0781 13.6719 17.8906 14.6094 18.4062V17.3281C14.6094 17.1406 14.75 17 14.9375 17C15.0781 17 15.2656 17.1406 15.2656 17.3281V19.0156C15.2656 19.1562 15.1719 19.25 15.0312 19.3438C14.9375 19.3906 14.7969 19.3438 14.7031 19.25C14 18.5938 12.875 18.5938 12.2188 19.2969C11.8906 19.625 11.7031 20.0469 11.7031 20.5625C11.7031 21.0312 11.8906 21.4531 12.2188 21.7812L15.7344 25.3438C16.4375 26.0469 17.5625 26.0469 18.2656 25.3438L21.7812 21.8281C22.1094 21.5 22.2969 21.0312 22.2969 20.5625C22.2969 20.0938 22.1094 19.625 21.7812 19.2969C21.125 18.6406 20.0469 18.5938 19.3438 19.25C19.25 19.3438 19.1094 19.3438 19.0156 19.2969C18.875 19.25 18.7812 19.1094 18.7812 19.0156V17.2812C18.7812 17.0938 18.9688 16.9531 19.1094 16.9531C19.2969 16.9531 19.4375 17.0938 19.4375 17.2812V18.3594C20.375 17.9375 21.5 18.0781 22.25 18.8281C22.7188 19.2969 22.9531 19.9062 22.9531 20.5625C22.9531 21.2188 22.7188 21.8281 22.25 22.2969L18.7344 25.8125C18.2656 26.2812 17.6562 26.5156 17 26.5156ZM19.1094 11.3281C18.9688 11.3281 18.7812 11.1875 18.7812 11V9.92188C18.7812 8.9375 17.9844 8.14062 17.0469 8.14062C16.0625 8.14062 15.2656 8.9375 15.2656 9.92188V10.9531C15.2656 11.1406 15.0781 11.2812 14.9375 11.2812C14.75 11.2812 14.6094 11.1406 14.6094 10.9531V9.92188C14.6094 8.5625 15.6875 7.48438 17.0469 7.48438C18.3594 7.48438 19.4375 8.5625 19.4375 9.92188V11C19.4375 11.1875 19.2969 11.3281 19.1094 11.3281Z" fill="#01142B"/>
<path fill-rule="evenodd" clip-rule="evenodd" d="M25.0625 19.9531C24.5938 19.9531 24.1719 19.8125 23.8438 19.4844L21.5469 17.1875C20.8906 16.5312 20.8906 15.4531 21.5469 14.7969C21.875 14.5156 22.2969 14.3281 22.7656 14.3281C22.9531 14.3281 23.1875 14.375 23.375 14.4219V9.17188C23.375 8.23438 24.125 7.48438 25.0625 7.48438C26 7.48438 26.75 8.23438 26.75 9.17188V14.4219C26.9375 14.375 27.125 14.3281 27.3125 14.3281C27.7812 14.3281 28.2031 14.5156 28.4844 14.8438C28.8125 15.125 29 15.5469 29 16.0156C29 16.4844 28.8125 16.9062 28.4844 17.1875L26.2344 19.4844C25.9062 19.8125 25.4844 19.9531 25.0625 19.9531ZM22.7656 14.9844C22.4844 14.9844 22.25 15.0781 22.0156 15.2656C21.6406 15.6875 21.6406 16.3438 22.0156 16.7188L24.3125 19.0156C24.5 19.2031 24.7812 19.2969 25.0625 19.2969C25.3438 19.2969 25.5781 19.2031 25.7656 19.0156L28.0625 16.7188C28.25 16.5312 28.3438 16.2969 28.3438 16.0156C28.3438 15.7344 28.25 15.5 28.0625 15.2656C27.8281 15.0781 27.5938 14.9844 27.3125 14.9844C27.0781 14.9844 26.7969 15.0781 26.6094 15.2656C26.5156 15.3125 26.375 15.3594 26.2812 15.3125C26.1406 15.2656 26.0938 15.125 26.0938 14.9844V9.17188C26.0938 8.60938 25.625 8.14062 25.0625 8.14062C24.5 8.14062 24.0312 8.60938 24.0312 9.17188V15.0312C24.0312 15.1719 23.9375 15.2656 23.8438 15.3125C23.7031 15.3594 23.5625 15.3594 23.4688 15.2656C23.2812 15.0781 23.0469 14.9844 22.7656 14.9844Z" fill="#01142B"/>
<path fill-rule="evenodd" clip-rule="evenodd" d="M8.9375 19.9531C8.51562 19.9531 8.09375 19.8125 7.76562 19.4844L5.51562 17.1875C5.1875 16.9062 5 16.4844 5 16.0156C5 15.5469 5.1875 15.125 5.51562 14.8438C5.79688 14.5156 6.21875 14.3281 6.6875 14.3281C6.875 14.3281 7.0625 14.375 7.25 14.4219V9.17188C7.25 8.23438 8 7.48438 8.9375 7.48438C9.875 7.48438 10.625 8.23438 10.625 9.17188V14.4219C10.8125 14.375 11.0469 14.3281 11.2344 14.3281C11.7031 14.3281 12.125 14.5156 12.4531 14.7969C13.1094 15.4531 13.1094 16.5312 12.4531 17.1875L10.1562 19.4844C9.82812 19.8125 9.40625 19.9531 8.9375 19.9531ZM6.6875 14.9844C6.40625 14.9844 6.17188 15.0781 5.9375 15.2656C5.75 15.5 5.65625 15.7344 5.65625 16.0156C5.65625 16.2969 5.75 16.5312 5.9375 16.7188L8.23438 19.0156C8.42188 19.2031 8.65625 19.2969 8.9375 19.2969C9.21875 19.2969 9.5 19.2031 9.6875 19.0156L11.9844 16.7188C12.3594 16.3438 12.3594 15.6875 11.9844 15.2656C11.75 15.0781 11.5156 14.9844 11.2344 14.9844C10.9531 14.9844 10.7188 15.0781 10.5312 15.2656C10.4375 15.3594 10.2969 15.3594 10.1562 15.3125C10.0625 15.2656 9.96875 15.1719 9.96875 15.0312V9.17188C9.96875 8.60938 9.5 8.14062 8.9375 8.14062C8.375 8.14062 7.90625 8.60938 7.90625 9.17188V14.9844C7.90625 15.125 7.85938 15.2656 7.71875 15.3125C7.625 15.3594 7.48438 15.3125 7.39062 15.2656C7.20312 15.0781 6.92188 14.9844 6.6875 14.9844Z" fill="#01142B"/>
</svg>
