<svg width="216" height="198" viewBox="0 0 216 198" fill="none" xmlns="http://www.w3.org/2000/svg">
<g filter="url(#filter0_f_2539_2807)">
<ellipse cx="108" cy="108.064" rx="56.4516" ry="38.7097" fill="#D048FC"/>
</g>
<path d="M104.987 138.573L16.9362 87.4466C12.9532 85.1339 12.9532 79.3818 16.9361 77.0691L104.987 25.9427C106.85 24.861 109.15 24.861 111.013 25.9427L199.064 77.0691C203.047 79.3818 203.047 85.1339 199.064 87.4466L111.013 138.573C109.15 139.655 106.85 139.655 104.987 138.573Z" fill="#D048FC"/>
<path d="M104.987 132.122L16.9362 80.9954C12.9532 78.6828 12.9532 72.9306 16.9361 70.618L104.987 19.4916C106.85 18.4099 109.15 18.4099 111.013 19.4916L199.064 70.618C203.047 72.9306 203.047 78.6828 199.064 80.9954L111.013 132.122C109.15 133.204 106.85 133.204 104.987 132.122Z" fill="white"/>
<g clip-path="url(#clip0_2539_2807)">
<path d="M70.2485 2.64648V12.1727M65.4854 7.40959H75.0116M138.696 78.1505V87.6767M133.933 82.9136H143.459M101.734 61.709L77.5043 85.9391C75.1874 88.2561 71.4309 88.2561 69.114 85.9391L67.2231 84.0481C64.9061 81.7311 64.9061 77.9746 67.2231 75.6578L91.4532 51.4277M83.1654 60.2448L92.5399 69.6193M118.762 16.9358L124.936 28.2258L136.226 34.4005L124.936 40.5753L118.762 51.8652L112.587 40.5753L101.297 34.4005L112.587 28.2258L118.762 16.9358ZM79.4219 24.1687C79.4219 25.6301 78.2372 26.8148 76.7758 26.8148C75.3143 26.8148 74.1296 25.6301 74.1296 24.1687C74.1296 22.7072 75.3143 21.5225 76.7758 21.5225C78.2372 21.5225 79.4219 22.7072 79.4219 24.1687ZM72.0127 39.1636C72.0127 40.6251 70.8279 41.8098 69.3665 41.8098C67.905 41.8098 66.7203 40.6251 66.7203 39.1636C66.7203 37.7022 67.905 36.5175 69.3665 36.5175C70.8279 36.5175 72.0127 37.7022 72.0127 39.1636ZM153.162 67.3894C153.162 68.8509 151.977 70.0356 150.516 70.0356C149.054 70.0356 147.87 68.8509 147.87 67.3894C147.87 65.928 149.054 64.7433 150.516 64.7433C151.977 64.7433 153.162 65.928 153.162 67.3894ZM118.056 79.5618C118.056 81.0232 116.871 82.208 115.41 82.208C113.948 82.208 112.764 81.0232 112.764 79.5618C112.764 78.1004 113.948 76.9156 115.41 76.9156C116.871 76.9156 118.056 78.1004 118.056 79.5618ZM150.516 34.4005C150.516 51.9378 136.299 66.1545 118.762 66.1545C101.224 66.1545 87.0076 51.9378 87.0076 34.4005C87.0076 16.8632 101.224 2.64648 118.762 2.64648C136.299 2.64648 150.516 16.8632 150.516 34.4005Z" stroke="#D048FC" stroke-width="2" stroke-miterlimit="10" stroke-linecap="round" stroke-linejoin="round"/>
</g>
<defs>
<filter id="filter0_f_2539_2807" x="0.44883" y="18.2545" width="215.103" height="179.619" filterUnits="userSpaceOnUse" color-interpolation-filters="sRGB">
<feFlood flood-opacity="0" result="BackgroundImageFix"/>
<feBlend mode="normal" in="SourceGraphic" in2="BackgroundImageFix" result="shape"/>
<feGaussianBlur stdDeviation="25.55" result="effect1_foregroundBlur_2539_2807"/>
</filter>
<clipPath id="clip0_2539_2807">
<rect width="90.3226" height="90.3226" fill="white" transform="translate(62.8389)"/>
</clipPath>
</defs>
</svg>
