<svg width="64" height="64" viewBox="0 0 64 64" fill="none" xmlns="http://www.w3.org/2000/svg">
<path d="M62.1176 53.8479V54.9584C62.1176 57.4639 60.0865 59.495 57.5811 59.495H6.41886C3.9134 59.495 1.88232 57.4639 1.88232 54.9584V53.8479C1.88232 53.3281 2.3037 52.9067 2.8235 52.9067H61.1764C61.6962 52.9067 62.1176 53.3281 62.1176 53.8479Z" fill="#E9E9FF"/>
<path d="M40.9976 52.9067V54.1303C40.9976 55.0621 40.254 55.8056 39.3225 55.8056H24.6778C23.7554 55.8056 23.0024 55.0621 23.0024 54.1303V52.9067H40.9976Z" fill="#4F5D99"/>
<path d="M58.9553 19.6129V52.907H5.04443V19.6129C5.04443 17.5337 6.72995 15.8481 8.80914 15.8481H55.1906C57.2698 15.8481 58.9553 17.5337 58.9553 19.6129Z" fill="#4F5D99"/>
<path d="M54.8143 21.8667V52.9067H9.18604V21.8667C9.18604 20.8313 10.033 19.9844 11.0684 19.9844H52.9319C53.9671 19.9844 54.8143 20.8313 54.8143 21.8667Z" fill="#70C1F9"/>
<g opacity="0.3">
<path d="M41.7851 52.9067H22.5287L11.4604 19.9844H30.7075L41.7851 52.9067Z" fill="white"/>
<path d="M49.644 52.9067H45.5215L34.4438 19.9844H38.5755L49.644 52.9067Z" fill="white"/>
</g>
<path d="M49.8088 5.88057V47.1364C49.8088 47.8959 49.1931 48.5116 48.4336 48.5116H15.5666C14.8071 48.5116 14.1914 47.8959 14.1914 47.1364V13.7191H19.9603C21.3217 13.7191 22.4219 12.4883 22.4219 10.9687V4.50537H48.4336C49.1931 4.50537 49.8088 5.12107 49.8088 5.88057Z" fill="#E9E9FF"/>
<path d="M22.422 4.50537V12.3439C22.422 13.1034 21.8063 13.7191 21.0468 13.7191H14.1982L22.422 4.50537Z" fill="#CFCFFF"/>
<path d="M23.8698 19.0625V31.0845C23.8698 31.4194 23.5983 31.6909 23.2633 31.6909H20.689C20.3541 31.6909 20.0825 31.4194 20.0825 31.0845V19.0625C20.0825 18.7276 20.3541 18.4561 20.689 18.4561H23.2633C23.5983 18.4561 23.8698 18.7276 23.8698 19.0625Z" fill="#F14F4A"/>
<path d="M30.5524 24.292V31.0846C30.5524 31.4196 30.2809 31.6911 29.9459 31.6911H27.3716C27.0367 31.6911 26.7651 31.4196 26.7651 31.0846V24.292C26.7651 23.9571 27.0367 23.6855 27.3716 23.6855H29.9459C30.2809 23.6855 30.5524 23.9571 30.5524 24.292Z" fill="#70C1F9"/>
<path d="M37.235 19.0625V31.0845C37.235 31.4194 36.9635 31.6909 36.6285 31.6909H34.0542C33.7193 31.6909 33.4478 31.4194 33.4478 31.0845V19.0625C33.4478 18.7276 33.7193 18.4561 34.0542 18.4561H36.6285C36.9635 18.4561 37.235 18.7276 37.235 19.0625Z" fill="#FDC72E"/>
<path d="M43.9176 21.9893V31.0843C43.9176 31.4193 43.6461 31.6908 43.3112 31.6908H40.7369C40.4019 31.6908 40.1304 31.4193 40.1304 31.0843V21.9893C40.1304 21.6543 40.4019 21.3828 40.7369 21.3828H43.3112C43.6461 21.3828 43.9176 21.6543 43.9176 21.9893Z" fill="#7BD681"/>
<path d="M46.0143 35.0825V35.5611C46.0143 35.7612 45.85 35.9255 45.6428 35.9255H18.3574C18.1502 35.9255 17.9858 35.7612 17.9858 35.5611V35.0825C17.9858 34.8753 18.1502 34.7109 18.3574 34.7109H45.6428C45.85 34.7109 46.0143 34.8753 46.0143 35.0825Z" fill="#CFCFFF"/>
<path d="M31.725 39.0776V39.5562C31.725 39.7563 31.5607 39.9206 31.3535 39.9206H18.3574C18.1502 39.9206 17.9858 39.7563 17.9858 39.5562V39.0776C17.9858 38.8704 18.1502 38.7061 18.3574 38.7061H31.3535C31.5607 38.7061 31.725 38.8704 31.725 39.0776Z" fill="#CFCFFF"/>
<path d="M46.0145 39.0776V39.5562C46.0145 39.7563 45.8502 39.9206 45.643 39.9206H34.4331C34.2258 39.9206 34.0615 39.7563 34.0615 39.5562V39.0776C34.0615 38.8704 34.2258 38.7061 34.4331 38.7061H45.643C45.8502 38.7061 46.0145 38.8704 46.0145 39.0776Z" fill="#CFCFFF"/>
<path d="M46.0143 43.0727V43.5513C46.0143 43.7514 45.85 43.9157 45.6428 43.9157H18.3574C18.1502 43.9157 17.9858 43.7514 17.9858 43.5513V43.0727C17.9858 42.8655 18.1502 42.7012 18.3574 42.7012H45.6428C45.85 42.7012 46.0143 42.8655 46.0143 43.0727Z" fill="#CFCFFF"/>
</svg>
