<svg width="24" height="24" viewBox="0 0 24 24" fill="none" xmlns="http://www.w3.org/2000/svg">
<g opacity="0.65" clip-path="url(#clip0_3473_897)">
<path d="M12 0.749993C9.77496 0.749993 7.59989 1.40979 5.74984 2.64596C3.89978 3.88213 2.45784 5.63914 1.60636 7.6948C0.754871 9.75047 0.532083 12.0125 0.966166 14.1948C1.40025 16.377 2.47171 18.3816 4.04505 19.9549C5.61839 21.5283 7.62295 22.5997 9.80523 23.0338C11.9875 23.4679 14.2495 23.2451 16.3052 22.3936C18.3609 21.5422 20.1179 20.1002 21.354 18.2502C22.5902 16.4001 23.25 14.225 23.25 12C23.2489 9.01664 22.0633 6.15578 19.9538 4.04623C17.8442 1.93668 14.9834 0.751067 12 0.749993ZM16.89 14.88C16.6533 15.1109 16.3357 15.2401 16.005 15.2401C15.6743 15.2401 15.3567 15.1109 15.12 14.88L12.525 12.3C12.4573 12.2289 12.3758 12.1723 12.2856 12.1336C12.1954 12.0949 12.0982 12.075 12 12.075C11.9018 12.075 11.8047 12.0949 11.7144 12.1336C11.6242 12.1723 11.5427 12.2289 11.475 12.3L8.88 14.88C8.70586 15.056 8.48319 15.1761 8.24044 15.2249C7.9977 15.2737 7.74592 15.2491 7.51727 15.1541C7.28862 15.0591 7.09349 14.898 6.95682 14.6916C6.82015 14.4851 6.74814 14.2426 6.75 13.995C6.75338 13.665 6.88207 13.3486 7.11 13.11L11.115 9.11999C11.2304 9.0024 11.3682 8.90899 11.5201 8.84523C11.6721 8.78147 11.8352 8.74863 12 8.74863C12.1648 8.74863 12.3279 8.78147 12.4799 8.84523C12.6318 8.90899 12.7696 9.0024 12.885 9.11999L16.89 13.11C17.1179 13.3486 17.2466 13.665 17.25 13.995C17.2512 14.1589 17.22 14.3215 17.1582 14.4734C17.0964 14.6252 17.0053 14.7634 16.89 14.88Z" fill="#01142B"/>
</g>
<defs>
<clipPath id="clip0_3473_897">
<rect width="24" height="24" fill="white" transform="translate(24 24) rotate(-180)"/>
</clipPath>
</defs>
</svg>
