<svg width="200" height="141" viewBox="0 0 200 141" fill="none" xmlns="http://www.w3.org/2000/svg">
<path d="M96.9872 138.573L8.93615 87.4466C4.95324 85.1339 4.95323 79.3818 8.93615 77.0691L96.9872 25.9427C98.8501 24.861 101.15 24.861 103.013 25.9427L191.064 77.0691C195.047 79.3818 195.047 85.1339 191.064 87.4466L103.013 138.573C101.15 139.655 98.8501 139.655 96.9872 138.573Z" fill="#D048FC"/>
<path d="M96.9872 132.122L8.93615 80.9954C4.95324 78.6828 4.95323 72.9306 8.93615 70.618L96.9872 19.4916C98.8501 18.4099 101.15 18.4099 103.013 19.4916L191.064 70.618C195.047 72.9306 195.047 78.6828 191.064 80.9954L103.013 132.122C101.15 133.204 98.8501 133.204 96.9872 132.122Z" fill="white"/>
<mask id="mask0_2539_2836" style="mask-type:luminance" maskUnits="userSpaceOnUse" x="55" y="0" width="90" height="90">
<path d="M55 7.62939e-06H145V90H55V7.62939e-06Z" fill="white"/>
</mask>
<g mask="url(#mask0_2539_2836)">
<path d="M114.935 38.9368C115.326 38.5463 115.326 37.9132 114.935 37.5226C114.545 37.1321 113.912 37.1321 113.521 37.5226L114.935 38.9368ZM87.7531 63.2906C87.3625 63.6811 87.3625 64.3143 87.7531 64.7048C88.1436 65.0953 88.7767 65.0953 89.1673 64.7048L87.7531 63.2906ZM80.2954 55.8327C79.9048 56.2232 79.9048 56.8564 80.2954 57.2469C80.6859 57.6375 81.319 57.6375 81.7096 57.2469L80.2954 55.8327ZM107.477 31.4792C107.868 31.0886 107.868 30.4555 107.477 30.0649C107.087 29.6744 106.454 29.6744 106.063 30.0649L107.477 31.4792ZM109.371 87.3633C109.371 87.9156 109.819 88.3633 110.371 88.3633C110.923 88.3633 111.371 87.9156 111.371 87.3633H109.371ZM111.371 73.3008C111.371 72.7486 110.923 72.3008 110.371 72.3008C109.819 72.3008 109.371 72.7486 109.371 73.3008H111.371ZM117.402 81.3321C117.955 81.3321 118.402 80.8844 118.402 80.3321C118.402 79.7798 117.955 79.3321 117.402 79.3321V81.3321ZM103.34 79.3321C102.788 79.3321 102.34 79.7798 102.34 80.3321C102.34 80.8844 102.788 81.3321 103.34 81.3321V79.3321ZM132.223 60.9962C132.223 61.5484 132.67 61.9962 133.223 61.9962C133.775 61.9962 134.223 61.5484 134.223 60.9962H132.223ZM134.223 50.4493C134.223 49.897 133.775 49.4493 133.223 49.4493C132.67 49.4493 132.223 49.897 132.223 50.4493H134.223ZM138.496 56.7227C139.048 56.7227 139.496 56.275 139.496 55.7227C139.496 55.1704 139.048 54.7227 138.496 54.7227V56.7227ZM127.949 54.7227C127.397 54.7227 126.949 55.1704 126.949 55.7227C126.949 56.275 127.397 56.7227 127.949 56.7227V54.7227ZM70.6993 31.1133C70.6993 31.6656 71.147 32.1133 71.6993 32.1133C72.2516 32.1133 72.6993 31.6656 72.6993 31.1133H70.6993ZM72.6993 17.0508C72.6993 16.4986 72.2516 16.0508 71.6993 16.0508C71.147 16.0508 70.6993 16.4986 70.6993 17.0508H72.6993ZM78.7305 25.0821C79.2828 25.0821 79.7305 24.6344 79.7305 24.0821C79.7305 23.5298 79.2828 23.0821 78.7305 23.0821V25.0821ZM64.668 23.0821C64.1157 23.0821 63.668 23.5298 63.668 24.0821C63.668 24.6344 64.1157 25.0821 64.668 25.0821V23.0821ZM59.9536 73.8599L60.6607 74.567L60.6607 74.567L59.9536 73.8599ZM76.7335 57.0798L76.0264 56.3726L76.0264 56.3727L76.7335 57.0798ZM81.7055 57.0798L82.4126 56.3727L82.4125 56.3726L81.7055 57.0798ZM87.9202 63.2947L87.2131 64.0018L87.2132 64.0019L87.9202 63.2947ZM87.9202 68.2665L88.6273 68.9736L87.9202 68.2665ZM137.945 7.05551L138.892 7.37666C139.014 7.01618 138.921 6.61756 138.652 6.34841C138.383 6.07925 137.984 5.98624 137.624 6.10848L137.945 7.05551ZM132.82 22.1662L131.873 21.845C131.768 22.1567 131.822 22.5005 132.019 22.7643L132.82 22.1662ZM142.363 34.9538L142.351 35.9537C142.731 35.9585 143.081 35.7469 143.254 35.4077C143.427 35.0686 143.392 34.6607 143.165 34.3557L142.363 34.9538ZM126.409 34.7499L126.422 33.7499C126.093 33.7457 125.782 33.9037 125.592 34.1724L126.409 34.7499ZM117.196 47.7772L116.241 48.074C116.354 48.4375 116.663 48.7053 117.039 48.7649C117.415 48.8244 117.792 48.6654 118.012 48.3546L117.196 47.7772ZM112.46 32.5405L113.414 32.2436C113.317 31.9293 113.071 31.6832 112.756 31.5855L112.46 32.5405ZM97.2228 27.8042L96.6455 26.9877C96.3347 27.2075 96.1756 27.5847 96.2352 27.9606C96.2947 28.3366 96.5625 28.6461 96.926 28.7591L97.2228 27.8042ZM110.25 18.5913L110.828 19.4078C111.096 19.2178 111.254 18.9077 111.25 18.5786L110.25 18.5913ZM110.046 2.63672L110.645 1.83528C110.339 1.60763 109.932 1.5729 109.592 1.74571C109.253 1.91852 109.042 2.26889 109.047 2.6495L110.046 2.63672ZM122.834 12.1795L122.236 12.981C122.5 13.1778 122.843 13.2323 123.155 13.1266L122.834 12.1795ZM114.228 38.2297L113.521 37.5226L87.7531 63.2906L88.4602 63.9977L89.1673 64.7048L114.935 38.9368L114.228 38.2297ZM81.0025 56.5398L81.7096 57.2469L107.477 31.4792L106.77 30.772L106.063 30.0649L80.2954 55.8327L81.0025 56.5398ZM110.371 87.3633H111.371V73.3008H110.371H109.371V87.3633H110.371ZM117.402 80.3321V79.3321H103.34V80.3321V81.3321H117.402V80.3321ZM133.223 60.9962H134.223V50.4493H133.223H132.223V60.9962H133.223ZM138.496 55.7227V54.7227H127.949V55.7227V56.7227H138.496V55.7227ZM71.6993 31.1133H72.6993V17.0508H71.6993H70.6993V31.1133H71.6993ZM78.7305 24.0821V23.0821H64.668V24.0821V25.0821H78.7305V24.0821ZM89.2774 10.8985H88.2774C88.2774 11.8024 87.5446 12.5352 86.6407 12.5352V13.5352V14.5352C88.6491 14.5352 90.2774 12.907 90.2774 10.8985H89.2774ZM86.6407 13.5352V12.5352C85.7368 12.5352 85.004 11.8024 85.004 10.8985H84.004H83.004C83.004 12.907 84.6322 14.5352 86.6407 14.5352V13.5352ZM84.004 10.8985H85.004C85.004 9.99461 85.7368 9.26178 86.6407 9.26178V8.26178V7.26178C84.6322 7.26178 83.004 8.89004 83.004 10.8985H84.004ZM86.6407 8.26178V9.26178C87.5446 9.26178 88.2774 9.99461 88.2774 10.8985H89.2774H90.2774C90.2774 8.89004 88.6491 7.26178 86.6407 7.26178V8.26178ZM136.738 82.9688H135.738C135.738 83.8727 135.006 84.6055 134.102 84.6055V85.6055V86.6055C136.11 86.6055 137.738 84.9773 137.738 82.9688H136.738ZM134.102 85.6055V84.6055C133.198 84.6055 132.465 83.8727 132.465 82.9688H131.465H130.465C130.465 84.9773 132.093 86.6055 134.102 86.6055V85.6055ZM131.465 82.9688H132.465C132.465 82.0649 133.198 81.3321 134.102 81.3321V80.3321V79.3321C132.093 79.3321 130.465 80.9604 130.465 82.9688H131.465ZM134.102 80.3321V81.3321C135.006 81.3321 135.738 82.0649 135.738 82.9688H136.738H137.738C137.738 80.9604 136.11 79.3321 134.102 79.3321V80.3321ZM59.9536 85.0466L60.6607 84.3395C57.9621 81.641 57.962 77.2656 60.6607 74.567L59.9536 73.8599L59.2465 73.1528C55.7668 76.6325 55.7668 82.2742 59.2465 85.7537L59.9536 85.0466ZM59.9536 73.8599L60.6607 74.567L77.4406 57.7869L76.7335 57.0798L76.0264 56.3727L59.2465 73.1528L59.9536 73.8599ZM76.7335 57.0798L77.4406 57.7869C78.4231 56.8046 80.0159 56.8046 80.9984 57.7869L81.7055 57.0798L82.4125 56.3726C80.649 54.6093 77.79 54.6093 76.0264 56.3726L76.7335 57.0798ZM81.7055 57.0798L80.9984 57.7869L87.2131 64.0018L87.9202 63.2947L88.6273 62.5876L82.4126 56.3727L81.7055 57.0798ZM87.9202 63.2947L87.2132 64.0019C88.1956 64.9842 88.1956 66.5769 87.2131 67.5594L87.9202 68.2665L88.6273 68.9736C90.3909 67.2101 90.3909 64.351 88.6273 62.5876L87.9202 63.2947ZM87.9202 68.2665L87.2131 67.5594L70.4332 84.3393L71.1403 85.0464L71.8474 85.7535L88.6273 68.9736L87.9202 68.2665ZM71.1403 85.0464L70.4332 84.3393C67.7346 87.038 63.3593 87.038 60.6607 84.3395L59.9536 85.0466L59.2465 85.7537C62.7262 89.2332 68.3677 89.2332 71.8474 85.7535L71.1403 85.0464ZM137.945 7.05551L136.998 6.73436L131.873 21.845L132.82 22.1662L133.768 22.4873L138.892 7.37666L137.945 7.05551ZM132.82 22.1662L132.019 22.7643L141.562 35.5518L142.363 34.9538L143.165 34.3557L133.622 21.5681L132.82 22.1662ZM142.363 34.9538L142.376 33.9538L126.422 33.7499L126.409 34.7499L126.396 35.7498L142.351 35.9537L142.363 34.9538ZM126.409 34.7499L125.592 34.1724L116.379 47.1998L117.196 47.7772L118.012 48.3546L127.225 35.3273L126.409 34.7499ZM117.196 47.7772L118.151 47.4803L113.414 32.2436L112.46 32.5405L111.505 32.8373L116.241 48.074L117.196 47.7772ZM112.46 32.5405L112.756 31.5855L97.5197 26.8493L97.2228 27.8042L96.926 28.7591L112.163 33.4954L112.46 32.5405ZM97.2228 27.8042L97.8002 28.6207L110.828 19.4078L110.25 18.5913L109.673 17.7749L96.6455 26.9877L97.2228 27.8042ZM110.25 18.5913L111.25 18.5786L111.046 2.62394L110.046 2.63672L109.047 2.6495L109.25 18.6041L110.25 18.5913ZM110.046 2.63672L109.448 3.43816L122.236 12.981L122.834 12.1795L123.432 11.3781L110.645 1.83528L110.046 2.63672ZM122.834 12.1795L123.155 13.1266L138.266 8.00254L137.945 7.05551L137.624 6.10848L122.513 11.2325L122.834 12.1795Z" fill="#D048FC"/>
</g>
</svg>
