<svg width="200" height="141" viewBox="0 0 200 141" fill="none" xmlns="http://www.w3.org/2000/svg">
<path d="M96.9872 138.573L8.93615 87.4466C4.95324 85.1339 4.95323 79.3818 8.93615 77.0691L96.9872 25.9427C98.8501 24.861 101.15 24.861 103.013 25.9427L191.064 77.0691C195.047 79.3818 195.047 85.1339 191.064 87.4466L103.013 138.573C101.15 139.655 98.8501 139.655 96.9872 138.573Z" fill="#0FA6FC"/>
<path d="M96.9872 132.122L8.93615 80.9954C4.95324 78.6828 4.95323 72.9306 8.93615 70.618L96.9872 19.4916C98.8501 18.4099 101.15 18.4099 103.013 19.4916L191.064 70.618C195.047 72.9306 195.047 78.6828 191.064 80.9954L103.013 132.122C101.15 133.204 98.8501 133.204 96.9872 132.122Z" fill="white"/>
<path d="M81.543 47.4609L68.3594 42.1875V21.0938M81.543 47.4609L94.7266 42.1875V21.0938M81.543 47.4609V26.3672M68.3594 21.0938L81.543 15.8203L94.7266 21.0938M68.3594 21.0938L81.543 26.3672M94.7266 21.0938L81.543 26.3672M97.3633 13.1836H113.184M97.3633 50.0977H113.184M105.273 13.1836V50.0977M57.6367 60.6445H142.363M110.547 87.3633L105.273 71.1914M94.7266 71.1914L89.4531 87.3633M76.2695 87.3633H123.73M113.184 23.7305H134.277M113.184 34.2773H134.277M129.004 44.8242H134.277M118.457 44.8242H123.73M142.363 71.1914H57.6367V2.63672H142.363V71.1914Z" stroke="#0FA6FC" stroke-width="2" stroke-miterlimit="10"/>
</svg>
