<svg width="64" height="64" viewBox="0 0 64 64" fill="none" xmlns="http://www.w3.org/2000/svg">
<g clip-path="url(#clip0_3377_2131)">
<path fill-rule="evenodd" clip-rule="evenodd" d="M14.3447 20.1045H49.6551V37.0656H14.3447V20.1045Z" fill="#285680"/>
<path fill-rule="evenodd" clip-rule="evenodd" d="M62.5542 15.3377L32.7501 26.3479C32.266 26.5278 31.7334 26.5278 31.2494 26.3479L1.44524 15.3377C0.575103 15.0065 0 14.1722 0 13.2412C0 12.3101 0.575103 11.4759 1.44524 11.1446L31.2494 0.134433C31.7334 -0.0454619 32.266 -0.0454619 32.7501 0.134433L62.5542 11.1446C63.4243 11.4759 63.9994 12.3101 63.9994 13.2412C63.9994 14.1722 63.4243 15.0065 62.5542 15.3377Z" fill="#2980BA"/>
<path fill-rule="evenodd" clip-rule="evenodd" d="M57.3792 28.6892C56.7698 28.6892 56.2758 28.1952 56.2758 27.5857V18.149L37.0129 14.2682C36.4153 14.1482 36.0282 13.5664 36.1483 12.9689C36.2684 12.3714 36.8501 11.9843 37.4476 12.1044L57.5999 16.1639C58.1141 16.2689 58.4833 16.7216 58.4826 17.2464V27.5857C58.4826 28.1952 57.9886 28.6892 57.3792 28.6892Z" fill="#2C3E50"/>
<path d="M32.0002 15.4478C35.0472 15.4478 37.5174 13.9657 37.5174 12.1375C37.5174 10.3092 35.0472 8.82715 32.0002 8.82715C28.9531 8.82715 26.4829 10.3092 26.4829 12.1375C26.4829 13.9657 28.9531 15.4478 32.0002 15.4478Z" fill="#B0D3F0"/>
<path fill-rule="evenodd" clip-rule="evenodd" d="M57.3792 27.5859C59.2074 27.5859 60.6895 29.068 60.6895 30.8963V35.3101C60.6895 35.9195 60.1955 36.4135 59.5861 36.4135H55.1723C54.5629 36.4135 54.0688 35.9195 54.0688 35.3101V30.8963C54.0688 29.068 55.5509 27.5859 57.3792 27.5859Z" fill="#E4C05C"/>
<path fill-rule="evenodd" clip-rule="evenodd" d="M52.9656 49.6548V60.6893H8.02211C5.40991 60.4961 3.37613 58.3427 3.33246 55.7238C3.06763 52.4355 5.18625 49.6548 7.82349 49.6548H52.9656Z" fill="#F9EAB0"/>
<path fill-rule="evenodd" clip-rule="evenodd" d="M4.43586 55.6137C4.72687 57.9159 6.70611 59.6287 9.02621 59.5861H54.069C54.6784 59.5861 55.1724 60.0801 55.1724 60.6896V62.8965C55.1724 63.5059 54.6784 63.9999 54.069 63.9999H8.82759C3.95224 63.9999 0 60.0477 0 55.1723C0 50.297 3.95224 46.3447 8.82759 46.3447H54.069C54.6784 46.3447 55.1724 46.8388 55.1724 47.4482V49.6551C55.1724 50.2645 54.6784 50.7585 54.069 50.7585H8.82759C7.58096 50.7609 6.39326 51.2894 5.55699 52.214C4.72072 53.1385 4.31359 54.3731 4.43586 55.6137Z" fill="#C03A2B"/>
<path fill-rule="evenodd" clip-rule="evenodd" d="M52.9653 54.0688V56.2757H14.3447C13.7352 56.2757 13.2412 55.7817 13.2412 55.1723C13.2412 54.5629 13.7352 54.0688 14.3447 54.0688H52.9653Z" fill="#B19046"/>
<path d="M60.6896 35.3101H9.93095C8.1027 35.3101 6.62061 36.7922 6.62061 38.6204V43.0342C6.62061 44.8624 8.1027 46.3445 9.93095 46.3445H60.6896C62.5178 46.3445 63.9999 44.8624 63.9999 43.0342V38.6204C63.9999 36.7922 62.5178 35.3101 60.6896 35.3101Z" fill="#24AE5F"/>
<path fill-rule="evenodd" clip-rule="evenodd" d="M18.7587 41.9305H11.0346C10.4252 41.9305 9.93115 41.4365 9.93115 40.8271C9.93115 40.2177 10.4252 39.7236 11.0346 39.7236H18.7587C19.3682 39.7236 19.8622 40.2177 19.8622 40.8271C19.8622 41.4365 19.3682 41.9305 18.7587 41.9305Z" fill="#F3D55B"/>
<path fill-rule="evenodd" clip-rule="evenodd" d="M25.3794 35.3101H29.7932V46.3445H25.3794V35.3101Z" fill="#F3D55B"/>
<path fill-rule="evenodd" clip-rule="evenodd" d="M34.207 35.3101H38.6208V46.3445H34.207V35.3101Z" fill="#F3D55B"/>
</g>
<defs>
<clipPath id="clip0_3377_2131">
<rect width="64" height="64" fill="white"/>
</clipPath>
</defs>
</svg>
