<svg width="216" height="198" viewBox="0 0 216 198" fill="none" xmlns="http://www.w3.org/2000/svg">
<g filter="url(#filter0_f_2539_2834)">
<ellipse cx="108" cy="108.064" rx="56.4516" ry="38.7097" fill="#D048FC"/>
</g>
<path d="M104.987 138.573L16.9362 87.4466C12.9532 85.1339 12.9532 79.3818 16.9361 77.0691L104.987 25.9427C106.85 24.861 109.15 24.861 111.013 25.9427L199.064 77.0691C203.047 79.3818 203.047 85.1339 199.064 87.4466L111.013 138.573C109.15 139.655 106.85 139.655 104.987 138.573Z" fill="#D048FC"/>
<path d="M104.987 132.122L16.9362 80.9954C12.9532 78.6828 12.9532 72.9306 16.9361 70.618L104.987 19.4916C106.85 18.4099 109.15 18.4099 111.013 19.4916L199.064 70.618C203.047 72.9306 203.047 78.6828 199.064 80.9954L111.013 132.122C109.15 133.204 106.85 133.204 104.987 132.122Z" fill="white"/>
<mask id="mask0_2539_2834" style="mask-type:luminance" maskUnits="userSpaceOnUse" x="63" y="0" width="90" height="90">
<path d="M63 7.62939e-06H153V90H63V7.62939e-06Z" fill="white"/>
</mask>
<g mask="url(#mask0_2539_2834)">
<path d="M122.935 38.9368C123.326 38.5463 123.326 37.9132 122.935 37.5226C122.545 37.1321 121.912 37.1321 121.521 37.5226L122.935 38.9368ZM95.7531 63.2906C95.3625 63.6811 95.3625 64.3143 95.7531 64.7048C96.1436 65.0953 96.7767 65.0953 97.1673 64.7048L95.7531 63.2906ZM88.2954 55.8327C87.9048 56.2232 87.9048 56.8564 88.2954 57.2469C88.6859 57.6375 89.319 57.6375 89.7096 57.2469L88.2954 55.8327ZM115.477 31.4792C115.868 31.0886 115.868 30.4555 115.477 30.0649C115.087 29.6744 114.454 29.6744 114.063 30.0649L115.477 31.4792ZM117.371 87.3633C117.371 87.9156 117.819 88.3633 118.371 88.3633C118.923 88.3633 119.371 87.9156 119.371 87.3633H117.371ZM119.371 73.3008C119.371 72.7486 118.923 72.3008 118.371 72.3008C117.819 72.3008 117.371 72.7486 117.371 73.3008H119.371ZM125.402 81.3321C125.955 81.3321 126.402 80.8844 126.402 80.3321C126.402 79.7798 125.955 79.3321 125.402 79.3321V81.3321ZM111.34 79.3321C110.788 79.3321 110.34 79.7798 110.34 80.3321C110.34 80.8844 110.788 81.3321 111.34 81.3321V79.3321ZM140.223 60.9962C140.223 61.5484 140.67 61.9962 141.223 61.9962C141.775 61.9962 142.223 61.5484 142.223 60.9962H140.223ZM142.223 50.4493C142.223 49.897 141.775 49.4493 141.223 49.4493C140.67 49.4493 140.223 49.897 140.223 50.4493H142.223ZM146.496 56.7227C147.048 56.7227 147.496 56.275 147.496 55.7227C147.496 55.1704 147.048 54.7227 146.496 54.7227V56.7227ZM135.949 54.7227C135.397 54.7227 134.949 55.1704 134.949 55.7227C134.949 56.275 135.397 56.7227 135.949 56.7227V54.7227ZM78.6993 31.1133C78.6993 31.6656 79.147 32.1133 79.6993 32.1133C80.2516 32.1133 80.6993 31.6656 80.6993 31.1133H78.6993ZM80.6993 17.0508C80.6993 16.4986 80.2516 16.0508 79.6993 16.0508C79.147 16.0508 78.6993 16.4986 78.6993 17.0508H80.6993ZM86.7305 25.0821C87.2828 25.0821 87.7305 24.6344 87.7305 24.0821C87.7305 23.5298 87.2828 23.0821 86.7305 23.0821V25.0821ZM72.668 23.0821C72.1157 23.0821 71.668 23.5298 71.668 24.0821C71.668 24.6344 72.1157 25.0821 72.668 25.0821V23.0821ZM67.9536 73.8599L68.6607 74.567L68.6607 74.567L67.9536 73.8599ZM84.7335 57.0798L84.0264 56.3726L84.0264 56.3727L84.7335 57.0798ZM89.7055 57.0798L90.4126 56.3727L90.4125 56.3726L89.7055 57.0798ZM95.9202 63.2947L95.2131 64.0018L95.2132 64.0019L95.9202 63.2947ZM95.9202 68.2665L96.6273 68.9736L95.9202 68.2665ZM145.945 7.05551L146.892 7.37666C147.014 7.01618 146.921 6.61756 146.652 6.34841C146.383 6.07925 145.984 5.98624 145.624 6.10848L145.945 7.05551ZM140.82 22.1662L139.873 21.845C139.768 22.1567 139.822 22.5005 140.019 22.7643L140.82 22.1662ZM150.363 34.9538L150.351 35.9537C150.731 35.9585 151.081 35.7469 151.254 35.4077C151.427 35.0686 151.392 34.6607 151.165 34.3557L150.363 34.9538ZM134.409 34.7499L134.422 33.7499C134.093 33.7457 133.782 33.9037 133.592 34.1724L134.409 34.7499ZM125.196 47.7772L124.241 48.074C124.354 48.4375 124.663 48.7053 125.039 48.7649C125.415 48.8244 125.792 48.6654 126.012 48.3546L125.196 47.7772ZM120.46 32.5405L121.414 32.2436C121.317 31.9293 121.071 31.6832 120.756 31.5855L120.46 32.5405ZM105.223 27.8042L104.645 26.9877C104.335 27.2075 104.176 27.5847 104.235 27.9606C104.295 28.3366 104.563 28.6461 104.926 28.7591L105.223 27.8042ZM118.25 18.5913L118.828 19.4078C119.096 19.2178 119.254 18.9077 119.25 18.5786L118.25 18.5913ZM118.046 2.63672L118.645 1.83528C118.339 1.60763 117.932 1.5729 117.592 1.74571C117.253 1.91852 117.042 2.26889 117.047 2.6495L118.046 2.63672ZM130.834 12.1795L130.236 12.981C130.5 13.1778 130.843 13.2323 131.155 13.1266L130.834 12.1795ZM122.228 38.2297L121.521 37.5226L95.7531 63.2906L96.4602 63.9977L97.1673 64.7048L122.935 38.9368L122.228 38.2297ZM89.0025 56.5398L89.7096 57.2469L115.477 31.4792L114.77 30.772L114.063 30.0649L88.2954 55.8327L89.0025 56.5398ZM118.371 87.3633H119.371V73.3008H118.371H117.371V87.3633H118.371ZM125.402 80.3321V79.3321H111.34V80.3321V81.3321H125.402V80.3321ZM141.223 60.9962H142.223V50.4493H141.223H140.223V60.9962H141.223ZM146.496 55.7227V54.7227H135.949V55.7227V56.7227H146.496V55.7227ZM79.6993 31.1133H80.6993V17.0508H79.6993H78.6993V31.1133H79.6993ZM86.7305 24.0821V23.0821H72.668V24.0821V25.0821H86.7305V24.0821ZM97.2774 10.8985H96.2774C96.2774 11.8024 95.5446 12.5352 94.6407 12.5352V13.5352V14.5352C96.6491 14.5352 98.2774 12.907 98.2774 10.8985H97.2774ZM94.6407 13.5352V12.5352C93.7368 12.5352 93.004 11.8024 93.004 10.8985H92.004H91.004C91.004 12.907 92.6322 14.5352 94.6407 14.5352V13.5352ZM92.004 10.8985H93.004C93.004 9.99461 93.7368 9.26178 94.6407 9.26178V8.26178V7.26178C92.6322 7.26178 91.004 8.89004 91.004 10.8985H92.004ZM94.6407 8.26178V9.26178C95.5446 9.26178 96.2774 9.99461 96.2774 10.8985H97.2774H98.2774C98.2774 8.89004 96.6491 7.26178 94.6407 7.26178V8.26178ZM144.738 82.9688H143.738C143.738 83.8727 143.006 84.6055 142.102 84.6055V85.6055V86.6055C144.11 86.6055 145.738 84.9773 145.738 82.9688H144.738ZM142.102 85.6055V84.6055C141.198 84.6055 140.465 83.8727 140.465 82.9688H139.465H138.465C138.465 84.9773 140.093 86.6055 142.102 86.6055V85.6055ZM139.465 82.9688H140.465C140.465 82.0649 141.198 81.3321 142.102 81.3321V80.3321V79.3321C140.093 79.3321 138.465 80.9604 138.465 82.9688H139.465ZM142.102 80.3321V81.3321C143.006 81.3321 143.738 82.0649 143.738 82.9688H144.738H145.738C145.738 80.9604 144.11 79.3321 142.102 79.3321V80.3321ZM67.9536 85.0466L68.6607 84.3395C65.9621 81.641 65.962 77.2656 68.6607 74.567L67.9536 73.8599L67.2465 73.1528C63.7668 76.6325 63.7668 82.2742 67.2465 85.7537L67.9536 85.0466ZM67.9536 73.8599L68.6607 74.567L85.4406 57.7869L84.7335 57.0798L84.0264 56.3727L67.2465 73.1528L67.9536 73.8599ZM84.7335 57.0798L85.4406 57.7869C86.4231 56.8046 88.0159 56.8046 88.9984 57.7869L89.7055 57.0798L90.4125 56.3726C88.649 54.6093 85.79 54.6093 84.0264 56.3726L84.7335 57.0798ZM89.7055 57.0798L88.9984 57.7869L95.2131 64.0018L95.9202 63.2947L96.6273 62.5876L90.4126 56.3727L89.7055 57.0798ZM95.9202 63.2947L95.2132 64.0019C96.1956 64.9842 96.1956 66.5769 95.2131 67.5594L95.9202 68.2665L96.6273 68.9736C98.3909 67.2101 98.3909 64.351 96.6273 62.5876L95.9202 63.2947ZM95.9202 68.2665L95.2131 67.5594L78.4332 84.3393L79.1403 85.0464L79.8474 85.7535L96.6273 68.9736L95.9202 68.2665ZM79.1403 85.0464L78.4332 84.3393C75.7346 87.038 71.3593 87.038 68.6607 84.3395L67.9536 85.0466L67.2465 85.7537C70.7262 89.2332 76.3677 89.2332 79.8474 85.7535L79.1403 85.0464ZM145.945 7.05551L144.998 6.73436L139.873 21.845L140.82 22.1662L141.768 22.4873L146.892 7.37666L145.945 7.05551ZM140.82 22.1662L140.019 22.7643L149.562 35.5518L150.363 34.9538L151.165 34.3557L141.622 21.5681L140.82 22.1662ZM150.363 34.9538L150.376 33.9538L134.422 33.7499L134.409 34.7499L134.396 35.7498L150.351 35.9537L150.363 34.9538ZM134.409 34.7499L133.592 34.1724L124.379 47.1998L125.196 47.7772L126.012 48.3546L135.225 35.3273L134.409 34.7499ZM125.196 47.7772L126.151 47.4803L121.414 32.2436L120.46 32.5405L119.505 32.8373L124.241 48.074L125.196 47.7772ZM120.46 32.5405L120.756 31.5855L105.52 26.8493L105.223 27.8042L104.926 28.7591L120.163 33.4954L120.46 32.5405ZM105.223 27.8042L105.8 28.6207L118.828 19.4078L118.25 18.5913L117.673 17.7749L104.645 26.9877L105.223 27.8042ZM118.25 18.5913L119.25 18.5786L119.046 2.62394L118.046 2.63672L117.047 2.6495L117.25 18.6041L118.25 18.5913ZM118.046 2.63672L117.448 3.43816L130.236 12.981L130.834 12.1795L131.432 11.3781L118.645 1.83528L118.046 2.63672ZM130.834 12.1795L131.155 13.1266L146.266 8.00254L145.945 7.05551L145.624 6.10848L130.513 11.2325L130.834 12.1795Z" fill="#D048FC"/>
</g>
<defs>
<filter id="filter0_f_2539_2834" x="0.44883" y="18.2545" width="215.103" height="179.619" filterUnits="userSpaceOnUse" color-interpolation-filters="sRGB">
<feFlood flood-opacity="0" result="BackgroundImageFix"/>
<feBlend mode="normal" in="SourceGraphic" in2="BackgroundImageFix" result="shape"/>
<feGaussianBlur stdDeviation="25.55" result="effect1_foregroundBlur_2539_2834"/>
</filter>
</defs>
</svg>
