<svg width="62" height="60" viewBox="0 0 62 60" fill="none" xmlns="http://www.w3.org/2000/svg">
<path fill-rule="evenodd" clip-rule="evenodd" d="M55.3537 21.0596L56.6037 51.9056H47.3661L48.6161 21.0596H55.3537ZM13.3841 21.0596L14.6341 51.9056H5.39648L6.64648 21.0596H13.3841Z" fill="#8D9CA8"/>
<path fill-rule="evenodd" clip-rule="evenodd" d="M55.3538 21.0596L56.6038 51.9056H54.7216L53.4716 21.0596H55.3538ZM13.3842 21.0596L14.6342 51.9056H12.752L11.502 21.0596H13.3842Z" fill="#7A8C98"/>
<path fill-rule="evenodd" clip-rule="evenodd" d="M4.40039 51.7378H57.5991L60.0991 57.7408H1.90039L4.40039 51.7378Z" fill="#7A8C98"/>
<path fill-rule="evenodd" clip-rule="evenodd" d="M1.90039 57.4742H4.34227L6.05702 53.5397H58.3495L57.599 51.7378H4.40039L1.90039 57.4742Z" fill="#6A7C87"/>
<path fill-rule="evenodd" clip-rule="evenodd" d="M1.375 55.7905H60.625L61.875 59.6909H0.125L1.375 55.7905Z" fill="#8D9CA8"/>
<path fill-rule="evenodd" clip-rule="evenodd" d="M61.353 58.062L61.875 59.6909H0.125L0.647 58.062H61.353Z" fill="#7A8C98"/>
<path fill-rule="evenodd" clip-rule="evenodd" d="M1.90039 17.6118H60.0991L57.5991 23.3481H4.40039L1.90039 17.6118Z" fill="#7A8C98"/>
<path fill-rule="evenodd" clip-rule="evenodd" d="M1.90039 17.6118H4.34227L6.05702 21.5463H58.3844L57.5992 23.3481H4.40039L1.90039 17.6118Z" fill="#6A7C87"/>
<path fill-rule="evenodd" clip-rule="evenodd" d="M31 0.309082L61.875 16.4541L60.625 19.2097H1.375L0.125 16.4542L31 0.309082Z" fill="#8D9CA8"/>
<path fill-rule="evenodd" clip-rule="evenodd" d="M31 0.309082L61.875 16.4541L60.625 19.2097H58.125L59.375 16.4541L29.75 0.962707L31 0.309082Z" fill="#7A8C98"/>
<path fill-rule="evenodd" clip-rule="evenodd" d="M25.9198 10.8149H36.08C36.4685 10.8149 36.7864 11.1328 36.7864 11.5213V14.2723C36.7864 14.6608 36.4685 14.9787 36.08 14.9787H25.9198C25.5313 14.9787 25.2134 14.6608 25.2134 14.2723V11.5213C25.2134 11.1328 25.5313 10.8149 25.9198 10.8149Z" fill="#EFF4F7"/>
<path fill-rule="evenodd" clip-rule="evenodd" d="M25.9198 10.8149H36.08C36.4685 10.8149 36.7864 11.1328 36.7864 11.5213V12.0649H27.1698C26.7813 12.0649 26.4634 12.3828 26.4634 12.7713V14.9787H25.9198C25.5313 14.9787 25.2134 14.6608 25.2134 14.2723V11.5213C25.2134 11.1328 25.5313 10.8149 25.9198 10.8149Z" fill="#E2E3E3"/>
<path fill-rule="evenodd" clip-rule="evenodd" d="M40.4469 33.9775V41.6258C40.4469 41.8958 40.3014 42.127 40.0579 42.2437L33.12 45.5669C31.5065 46.3398 29.7991 46.3398 28.1856 45.5669L21.248 42.2437C21.0045 42.127 20.8589 41.8958 20.8589 41.6258V34.6224L40.4469 33.9775Z" fill="#2D90F1"/>
<path fill-rule="evenodd" clip-rule="evenodd" d="M40.4466 33.9775V41.6258C40.4466 41.8958 40.3011 42.1269 40.0576 42.2437L33.1197 45.5669C31.5062 46.3398 29.7988 46.3398 28.1853 45.5669L27.0332 45.015C28.6467 45.788 30.354 45.788 31.9676 45.015L38.9055 41.6918C39.149 41.5752 39.2945 41.3439 39.2945 41.0739V34.0154L40.4466 33.9775Z" fill="#1D83D4"/>
<path fill-rule="evenodd" clip-rule="evenodd" d="M16.584 34.2538L30.4197 27.6266C30.5478 27.5652 30.7873 27.5793 30.9518 27.6582L44.6553 34.2222C44.8198 34.3009 44.8495 34.4157 44.7213 34.4771L30.8858 41.1043C30.7575 41.1657 30.5182 41.1516 30.3537 41.0727L16.6502 34.5087C16.4855 34.4298 16.4559 34.3152 16.584 34.2538Z" fill="#64B5F6"/>
<path fill-rule="evenodd" clip-rule="evenodd" d="M16.584 34.2539L17.7459 33.6974L30.3537 39.7365C30.5182 39.8153 30.7575 39.8295 30.8857 39.7681L43.5595 33.6973L44.6553 34.2221C44.8198 34.3009 44.8494 34.4156 44.7213 34.477L30.8855 41.1044C30.7574 41.1658 30.518 41.1515 30.3535 41.0728L16.6502 34.5088C16.4855 34.4299 16.4559 34.3153 16.584 34.2539Z" fill="#42A5F5"/>
<path fill-rule="evenodd" clip-rule="evenodd" d="M30.6167 35.0472C30.2402 35.0275 29.9508 34.7061 29.9707 34.3296C29.9904 33.9531 30.3118 33.6637 30.6883 33.6836L43.6143 34.3426C43.9894 34.3623 44.2778 34.6812 44.2606 35.056V44.7176C44.2613 45.0942 43.9566 45.4002 43.5799 45.401C43.2033 45.4017 42.8973 45.097 42.8966 44.7203V35.6733L30.6167 35.0472Z" fill="#FDB800"/>
<path fill-rule="evenodd" clip-rule="evenodd" d="M43.8059 41.6218L45.3887 43.091C45.4594 43.1565 45.4955 43.2395 45.4955 43.3359V46.4148C45.4955 46.5988 45.3454 46.7488 45.1614 46.7488H41.9956C41.8116 46.7488 41.6616 46.5988 41.6616 46.4148V43.3359C41.6616 43.2395 41.6977 43.1566 41.7685 43.091L43.3514 41.6218C43.4797 41.5024 43.6774 41.5024 43.8059 41.6218Z" fill="#FFDA2D"/>
<path fill-rule="evenodd" clip-rule="evenodd" d="M43.8059 41.6218L45.3888 43.091C45.4594 43.1565 45.4956 43.2395 45.4956 43.3359V46.4148C45.4956 46.5988 45.3455 46.7488 45.1615 46.7488H44.4934C44.6774 46.7488 44.8274 46.5986 44.8274 46.4148V43.3359C44.8274 43.2395 44.7913 43.1566 44.7206 43.091L43.2446 41.7209L43.3515 41.6218C43.4798 41.5024 43.6774 41.5024 43.8059 41.6218Z" fill="#FFC700"/>
<path d="M24.8312 32.8289C27.8128 31.593 29.228 28.1741 27.9922 25.1926C26.7563 22.211 23.3374 20.7959 20.3557 22.0318C17.3741 23.2676 15.9589 26.6866 17.1948 29.6681C18.4306 32.6497 21.8496 34.0648 24.8312 32.8289Z" fill="#FFDA2D"/>
<path fill-rule="evenodd" clip-rule="evenodd" d="M22.5814 21.5913C24.5846 21.5913 26.3521 22.5997 27.4048 24.1364C26.3645 23.1803 24.9766 22.5963 23.4523 22.5963C20.2254 22.5963 17.6096 25.2122 17.6096 28.4389C17.6096 29.6624 17.986 30.7978 18.6288 31.7364C17.467 30.6686 16.7388 29.1364 16.7388 27.4341C16.7388 24.2072 19.3546 21.5913 22.5814 21.5913Z" fill="#FFC700"/>
<path fill-rule="evenodd" clip-rule="evenodd" d="M22.5964 24.6069C22.5964 24.0547 23.0442 23.6069 23.5964 23.6069C24.1487 23.6069 24.5964 24.0547 24.5964 24.6069V24.7821C24.6828 24.8139 24.767 24.8511 24.8488 24.8931C25.1659 25.0559 25.4368 25.2882 25.6384 25.5669C25.962 26.0134 25.8623 26.6379 25.4158 26.9614C24.9692 27.2851 24.3449 27.1853 24.0213 26.7388C23.9973 26.7057 23.9702 26.6807 23.9425 26.6664C23.9175 26.6536 23.884 26.6463 23.8434 26.6463H23.4604C23.4019 26.6463 23.3479 26.6711 23.3083 26.7107C23.2685 26.7504 23.2439 26.8043 23.2439 26.8629C23.2439 26.9214 23.2687 26.9754 23.3083 27.0152C23.348 27.0549 23.4019 27.0796 23.4604 27.0796H23.7324C24.343 27.0796 24.8974 27.3287 25.2987 27.7299C25.6999 28.1312 25.949 28.6856 25.949 29.2962C25.949 29.9068 25.6999 30.4612 25.2987 30.8624C25.0987 31.0624 24.8605 31.2247 24.5964 31.3371V31.5522C24.5964 32.1044 24.1487 32.5522 23.5964 32.5522C23.0442 32.5522 22.5964 32.1044 22.5964 31.5522V31.3771C22.51 31.3452 22.4258 31.3081 22.344 31.2661C22.0299 31.1047 21.759 30.8712 21.5544 30.5882C21.233 30.1416 21.3344 29.5189 21.7809 29.1976C22.2274 28.8762 22.85 28.9776 23.1715 29.4241C23.1925 29.4532 23.2197 29.4768 23.2502 29.4926C23.2752 29.5054 23.3085 29.5127 23.3493 29.5127H23.7323C23.7908 29.5127 23.8448 29.4881 23.8845 29.4483C23.9243 29.4086 23.9489 29.3546 23.9489 29.2961C23.9489 29.2376 23.9242 29.1836 23.8845 29.1439C23.8448 29.1042 23.7908 29.0796 23.7323 29.0796H23.4603C22.8497 29.0796 22.2953 28.8304 21.894 28.4292C21.4928 28.0279 21.2437 27.4734 21.2437 26.8629C21.2437 26.2523 21.4928 25.6978 21.894 25.2967C22.094 25.0967 22.3322 24.9344 22.5963 24.8221L22.5964 24.6069Z" fill="#FFC700"/>
<path fill-rule="evenodd" clip-rule="evenodd" d="M21.5813 23.9614C21.5813 23.4092 22.029 22.9614 22.5813 22.9614C23.1335 22.9614 23.5813 23.4092 23.5813 23.9614V24.1366C23.6676 24.1684 23.7519 24.2056 23.8336 24.2476C24.1508 24.4104 24.4216 24.6427 24.6233 24.9214C24.9469 25.3679 24.8471 25.9924 24.4006 26.3159C23.9541 26.6396 23.3298 26.5398 23.0061 26.0933C22.9821 26.0602 22.955 26.0352 22.9274 26.0209C22.9024 26.0081 22.8689 26.0008 22.8283 26.0008H22.4453C22.3868 26.0008 22.3328 26.0256 22.2931 26.0652C22.2534 26.1049 22.2288 26.1588 22.2288 26.2174C22.2288 26.2759 22.2535 26.3299 22.2931 26.3697C22.3328 26.4094 22.3868 26.4341 22.4453 26.4341H22.7173C23.3279 26.4341 23.8823 26.6832 24.2835 27.0844C24.6848 27.4857 24.9339 28.04 24.9339 28.6507C24.9339 29.2613 24.6848 29.8157 24.2835 30.2169C24.0835 30.4169 23.8454 30.5792 23.5813 30.6915V30.9067C23.5813 31.4589 23.1335 31.9067 22.5813 31.9067C22.029 31.9067 21.5813 31.4589 21.5813 30.9067V30.7316C21.4949 30.6997 21.4106 30.6625 21.3289 30.6206C21.0148 30.4592 20.7439 30.2257 20.5393 29.9427C20.2179 29.4962 20.3193 28.8736 20.7658 28.5521C21.2123 28.2307 21.8349 28.3321 22.1564 28.7786C22.1774 28.8077 22.2045 28.8313 22.235 28.847C22.26 28.8599 22.2934 28.8672 22.3341 28.8672H22.7171C22.7756 28.8672 22.8296 28.8424 22.8693 28.8028C22.909 28.7631 22.9336 28.7091 22.9336 28.6506C22.9336 28.5921 22.9089 28.5381 22.8693 28.4984C22.8295 28.4587 22.7756 28.4341 22.7171 28.4341H22.4451C21.8345 28.4341 21.2801 28.1849 20.8789 27.7837C20.4776 27.3824 20.2285 26.8279 20.2285 26.2174C20.2285 25.6068 20.4776 25.0523 20.8789 24.6512C21.0789 24.4512 21.317 24.2889 21.5811 24.1765L21.5813 23.9614Z" fill="#FDB800"/>
</svg>
