<svg width="33" height="33" viewBox="0 0 33 33" fill="none" xmlns="http://www.w3.org/2000/svg">
<circle cx="16.5" cy="16.5" r="16" stroke="#01142B"/>
<path d="M27.8748 21.7474H27.5759V13.2585C27.5759 13.0514 27.4082 12.8835 27.2009 12.8835H23.9713V12.603C23.9713 12.3959 23.8036 12.228 23.5963 12.228H23.1682C23.151 12.1831 23.1327 12.1386 23.1133 12.0945L23.4165 11.7898C23.5626 11.6431 23.5619 11.406 23.4154 11.2599L22.4871 10.3345C22.4167 10.2643 22.3215 10.225 22.2223 10.225C22.2219 10.225 22.2219 10.225 22.2216 10.225C22.1219 10.2252 22.0267 10.2649 21.9564 10.3356L21.6561 10.6375C21.6122 10.6177 21.5675 10.5992 21.5225 10.5817V10.1543C21.5225 9.9472 21.3547 9.7793 21.1475 9.7793H19.8368C19.6295 9.7793 19.4618 9.9472 19.4618 10.1543V10.5813C19.416 10.5989 19.371 10.6176 19.3267 10.6373L19.0242 10.3348C18.8777 10.1884 18.6404 10.1884 18.4939 10.3348L17.5685 11.2603C17.4224 11.4064 17.422 11.6433 17.5677 11.7898L17.8702 12.0938C17.8505 12.1382 17.8318 12.1831 17.8142 12.228H17.3854C17.1781 12.228 17.0104 12.3959 17.0104 12.603V12.8835H13.3428C13.1355 12.8835 12.9678 13.0514 12.9678 13.2585V21.7474H12.6689C12.4617 21.7474 12.2939 21.9153 12.2939 22.1224C12.2939 23.2789 13.2347 24.2197 14.3912 24.2197H26.1525C27.309 24.2197 28.2498 23.2789 28.2498 22.1224C28.2498 21.9153 28.082 21.7474 27.8748 21.7474ZM17.7604 12.978H18.0852C18.2548 12.978 18.4031 12.8644 18.4474 12.7009C18.4924 12.5339 18.5616 12.3673 18.6532 12.2053C18.7356 12.059 18.7111 11.8755 18.5924 11.7565L18.3632 11.5261L18.759 11.1302L18.9894 11.3606C19.1102 11.4813 19.297 11.5052 19.4446 11.4188C19.5918 11.3322 19.7577 11.263 19.9375 11.213C20.0994 11.168 20.2118 11.0202 20.2118 10.8517V10.5293H20.7725V10.8517C20.7725 11.0202 20.8845 11.168 21.0468 11.213C21.2222 11.2617 21.3884 11.3313 21.5415 11.4199C21.6887 11.5051 21.8751 11.4805 21.9952 11.3599L22.2234 11.1306L22.6207 11.5265L22.3918 11.7565C22.2732 11.8755 22.2487 12.059 22.3311 12.2053C22.4197 12.3616 22.4878 12.5283 22.5339 12.7002C22.5779 12.8641 22.7266 12.978 22.8961 12.978H23.2213V13.2585V13.5388H22.8961C22.7262 13.5388 22.5771 13.6533 22.5336 13.8177C22.4889 13.986 22.4204 14.1537 22.33 14.3161C22.2487 14.4624 22.2739 14.6451 22.3926 14.7636L22.6204 14.9914L22.223 15.3884L21.9952 15.1595C21.8751 15.0386 21.6891 15.0141 21.5411 15.0994C21.3925 15.1859 21.2306 15.2527 21.0468 15.3038C20.8845 15.3488 20.7725 15.4966 20.7725 15.665V15.9875H20.2118V15.665C20.2118 15.4966 20.0997 15.3488 19.9375 15.3038C19.7518 15.2521 19.5859 15.1838 19.4446 15.1007C19.2981 15.0143 19.1102 15.0379 18.9894 15.1588L18.7594 15.3887L18.3635 14.9918L18.5917 14.7636C18.7103 14.6451 18.7356 14.4624 18.6543 14.3161C18.5591 14.1456 18.4917 13.9823 18.4474 13.8171C18.4038 13.6529 18.2551 13.5388 18.0852 13.5388H17.7604V13.2585V12.978ZM13.7178 13.6335H17.0104V13.9138C17.0104 14.1209 17.1781 14.2888 17.3854 14.2888H17.8138C17.8311 14.334 17.8501 14.3793 17.8702 14.4245L17.5685 14.7263C17.422 14.8726 17.422 15.1097 17.5681 15.2562L18.4935 16.1841C18.5638 16.2546 18.6591 16.2944 18.7587 16.2944C18.8583 16.2944 18.9539 16.2548 19.0242 16.1845L19.3274 15.8813C19.3713 15.9007 19.416 15.919 19.4618 15.9364V16.3625C19.4618 16.5696 19.6295 16.7375 19.8368 16.7375H21.1475C21.3547 16.7375 21.5225 16.5696 21.5225 16.3625V15.9364C21.5679 15.919 21.6122 15.9009 21.6558 15.8815L21.9564 16.1838C22.0267 16.2545 22.1223 16.2942 22.2219 16.2944C22.3212 16.2944 22.4171 16.2548 22.4874 16.1845L23.4158 15.2565C23.4861 15.1862 23.5256 15.0908 23.5256 14.9914C23.5256 14.892 23.4861 14.7966 23.4158 14.7263L23.1133 14.4238C23.1331 14.3789 23.1514 14.334 23.1686 14.2888H23.5963C23.8036 14.2888 23.9713 14.1209 23.9713 13.9138V13.6335H26.8259V21.7473H13.7178V13.6335ZM26.1525 23.4697H14.3912C13.7786 23.4697 13.26 23.0585 13.097 22.4974H18.6605V22.8728C18.6605 23.0799 18.8282 23.2478 19.0355 23.2478H21.5082C21.7155 23.2478 21.8832 23.0799 21.8832 22.8728V22.4974H27.4467C27.2837 23.0585 26.7651 23.4697 26.1525 23.4697Z" fill="#01142B"/>
<path d="M17.8182 17.3154H17.8146C17.6077 17.3154 17.4414 17.4833 17.4414 17.6904C17.4414 17.8975 17.6113 18.0654 17.8182 18.0654C18.0255 18.0654 18.1932 17.8975 18.1932 17.6904C18.1932 17.4833 18.0255 17.3154 17.8182 17.3154Z" fill="#01142B"/>
<path d="M20.2792 17.3154H20.2755C20.0686 17.3154 19.9023 17.4833 19.9023 17.6904C19.9023 17.8975 20.0723 18.0654 20.2792 18.0654C20.4865 18.0654 20.6542 17.8975 20.6542 17.6904C20.6542 17.4833 20.4865 17.3154 20.2792 17.3154Z" fill="#01142B"/>
<path d="M22.7401 17.3154H22.7365C22.5295 17.3154 22.3633 17.4833 22.3633 17.6904C22.3633 17.8975 22.5332 18.0654 22.7401 18.0654C22.9474 18.0654 23.1151 17.8975 23.1151 17.6904C23.1151 17.4833 22.9474 17.3154 22.7401 17.3154Z" fill="#01142B"/>
<path d="M20.4922 15.1871C21.5549 15.1871 22.4196 14.3225 22.4196 13.2596C22.4196 12.1967 21.5549 11.332 20.4922 11.332C19.4291 11.332 18.5645 12.1967 18.5645 13.2596C18.5645 14.3225 19.4291 15.1871 20.4922 15.1871ZM20.4922 12.082C21.1415 12.082 21.6696 12.6103 21.6696 13.2596C21.6696 13.9089 21.1415 14.4371 20.4922 14.4371C19.8429 14.4371 19.3145 13.9089 19.3145 13.2596C19.3145 12.6103 19.8429 12.082 20.4922 12.082Z" fill="#01142B"/>
<path d="M9.10925 18.4266C10.7272 18.4266 12.4681 17.98 12.4681 16.9995V15.2071V13.4147V11.6223C12.4681 10.6419 10.7272 10.1953 9.10925 10.1953C7.49133 10.1953 5.75 10.6419 5.75 11.6223V13.4147V15.2071V16.9995C5.75 17.98 7.49133 18.4266 9.10925 18.4266ZM6.7682 12.6797C6.85072 12.7115 6.93833 12.7414 7.03027 12.7698C7.0592 12.7787 7.08816 12.7876 7.118 12.7961C7.22867 12.8279 7.34329 12.8581 7.46643 12.8848C7.95349 12.9924 8.52148 13.0494 9.10925 13.0494C9.69666 13.0494 10.2646 12.9924 10.7502 12.8851C10.8732 12.8584 10.9877 12.8283 11.0983 12.7966C11.1287 12.7879 11.1582 12.7789 11.1876 12.7698C11.279 12.7416 11.3661 12.7118 11.4482 12.6802C11.4638 12.6742 11.4807 12.6688 11.496 12.6626C11.5743 12.6311 11.6489 12.5983 11.7181 12.5636V13.4147C11.7181 13.4777 11.4482 13.7587 10.5898 13.9448C9.72046 14.137 8.49915 14.1374 7.62683 13.9444C6.7699 13.7587 6.5 13.4777 6.5 13.4147V12.5638C6.56917 12.5984 6.64365 12.6312 6.72188 12.6626C6.73666 12.6685 6.7531 12.6739 6.7682 12.6797ZM6.7682 14.4721C6.85072 14.5039 6.93833 14.5339 7.03027 14.5622C7.0592 14.5711 7.08816 14.58 7.118 14.5886C7.22867 14.6203 7.34329 14.6505 7.46643 14.6772C7.95349 14.7849 8.52148 14.8418 9.10925 14.8418C9.69666 14.8418 10.2646 14.7849 10.7502 14.6776C10.8732 14.6509 10.9877 14.6207 11.0983 14.589C11.1287 14.5803 11.1582 14.5713 11.1876 14.5622C11.279 14.5341 11.3661 14.5043 11.4482 14.4726C11.4638 14.4666 11.4807 14.4612 11.496 14.4551C11.5743 14.4235 11.6489 14.3907 11.7181 14.356V15.2071C11.7181 15.2701 11.4482 15.5511 10.5898 15.7372C9.72046 15.9296 8.49915 15.9296 7.62683 15.7368C6.7699 15.5511 6.5 15.2701 6.5 15.2071V14.3562C6.56917 14.3908 6.64365 14.4236 6.72188 14.455C6.73666 14.461 6.7531 14.4663 6.7682 14.4721ZM11.7181 16.9995C11.7181 17.1735 10.8213 17.6766 9.10925 17.6766C7.39722 17.6766 6.5 17.1735 6.5 16.9995V16.1486C6.56917 16.1832 6.64365 16.216 6.72188 16.2475C6.73666 16.2534 6.7531 16.2587 6.7682 16.2645C6.85072 16.2964 6.93833 16.3263 7.03027 16.3546C7.0592 16.3635 7.08816 16.3724 7.118 16.381C7.22867 16.4127 7.34329 16.4429 7.46643 16.4696C7.95349 16.5773 8.52148 16.6342 9.10925 16.6342C9.69666 16.6342 10.2646 16.5773 10.7502 16.47C10.8732 16.4433 10.9877 16.4131 11.0983 16.3814C11.1287 16.3727 11.1582 16.3637 11.1876 16.3547C11.279 16.3265 11.3661 16.2967 11.4482 16.2651C11.4638 16.2591 11.4807 16.2536 11.496 16.2475C11.5743 16.216 11.6489 16.1831 11.7181 16.1484V16.9995ZM9.10925 10.9453C10.8213 10.9453 11.7181 11.4483 11.7181 11.6223C11.7181 11.6852 11.4482 11.9663 10.5898 12.1523C9.72046 12.3446 8.49915 12.345 7.62683 12.152C6.7699 11.9663 6.5 11.6852 6.5 11.6223C6.5 11.4483 7.39722 10.9453 9.10925 10.9453Z" fill="#01142B"/>
<path d="M9.10938 18.5273C8.9021 18.5273 8.73438 18.6953 8.73438 18.9023V20.3908C8.73438 20.5979 8.9021 20.7658 9.10938 20.7658H12.3972C12.6045 20.7658 12.7722 20.5979 12.7722 20.3908C12.7722 20.1837 12.6045 20.0158 12.3972 20.0158H9.48438V18.9023C9.48438 18.6953 9.31665 18.5273 9.10938 18.5273Z" fill="#01142B"/>
</svg>
