<svg width="70" height="71" viewBox="0 0 70 71" fill="none" xmlns="http://www.w3.org/2000/svg">
<circle cx="35" cy="35.1943" r="35" fill="#9964FE"/>
<g clip-path="url(#clip0_2539_2270)">
<path d="M49.2863 47.439V41.9746H21.7118V47.439M35.499 47.439V37.5563M49.2863 18.6661V37.5563H21.7118V17.1426H28.9817L32.0288 18.6661H49.2863ZM40.0692 53.8574H30.9289V46.3929H33.997L36.1844 47.9164H40.0692V53.8574ZM26.2819 53.8574H17.1416V46.3929H20.2097L22.3972 47.9164H26.2819V53.8574ZM53.8564 53.8574H44.7162V46.3929H47.7843L49.9717 47.9164H53.8564V53.8574ZM37.4264 26.1766C40.1292 28.8794 41.4569 31.9339 40.3918 32.9989C39.3268 34.064 36.2723 32.7363 33.5695 30.0335C30.8668 27.3307 29.5391 24.2763 30.6042 23.2112C31.6692 22.1462 34.7237 23.4738 37.4264 26.1766ZM40.3918 23.2112C41.4569 24.2763 40.1292 27.3307 37.4264 30.0335C34.7237 32.7363 31.6692 34.064 30.6042 32.9989C29.5391 31.9339 30.8668 28.8794 33.5695 26.1766C36.2723 23.4738 39.3268 22.1462 40.3918 23.2112Z" stroke="white" stroke-width="1.45684" stroke-miterlimit="10"/>
</g>
<defs>
<clipPath id="clip0_2539_2270">
<rect width="39" height="39" fill="white" transform="translate(16 16)"/>
</clipPath>
</defs>
</svg>
