<svg width="33" height="33" viewBox="0 0 33 33" fill="none" xmlns="http://www.w3.org/2000/svg">
<circle cx="16.5" cy="16.5" r="16" stroke="#01142B"/>
<path d="M19.4022 27C18.8726 27 18.3747 26.8033 18.0001 26.4462L13.6999 22.3448C13.5193 22.1726 13.5193 21.8934 13.6999 21.7213C13.8805 21.5491 14.1732 21.5492 14.3536 21.7213L18.654 25.8226C19.0664 26.2161 19.7377 26.2161 20.1503 25.8226C20.5628 25.4291 20.5628 24.7889 20.1503 24.3955L15.8501 20.2942C15.6695 20.122 15.6695 19.8429 15.8501 19.6706C16.0306 19.4985 16.3233 19.4985 16.5038 19.6706L20.8042 23.7719C21.5771 24.5092 21.5772 25.7088 20.8042 26.4461C20.4297 26.8032 19.9317 27 19.4022 27Z" fill="#01142B"/>
<path d="M13.2205 22.9726C12.9143 22.9726 12.6263 22.8589 12.4098 22.6523L8.53957 18.9612C8.32304 18.7547 8.20376 18.4801 8.20376 18.188C8.20376 17.896 8.32298 17.6214 8.53957 17.4149L12.1867 13.9365C13.9499 12.2549 15.0123 10.022 15.1782 7.64913C15.1902 7.47651 15.307 7.32655 15.4768 7.2657C15.6466 7.20474 15.838 7.24432 15.9663 7.36667L24.5669 15.5693C24.6952 15.6916 24.7366 15.8742 24.6728 16.0362C24.609 16.1981 24.4517 16.3095 24.2707 16.321C21.7827 16.4792 19.4415 17.4924 17.6783 19.1741L14.0312 22.6524C13.8147 22.8589 13.5267 22.9726 13.2205 22.9726ZM15.9926 8.63887C15.6286 10.8739 14.5296 12.9491 12.8405 14.5601L9.19333 18.0385C9.13676 18.0924 9.12832 18.1554 9.12832 18.1881C9.12832 18.2208 9.13676 18.2838 9.19333 18.3377L13.0636 22.0289C13.1202 22.0828 13.1862 22.0909 13.2205 22.0909C13.2548 22.0909 13.3208 22.0828 13.3773 22.0289L17.0245 18.5505C18.7137 16.9396 20.8896 15.8914 23.233 15.5443L15.9926 8.63887Z" fill="#01142B"/>
<path d="M24.7775 16.5338C24.4645 16.5338 24.1515 16.4201 23.9131 16.1928L15.3125 7.99029C15.0816 7.77005 14.9545 7.47728 14.9545 7.16589C14.9545 6.85449 15.0816 6.56167 15.3125 6.34149C15.5434 6.12131 15.8504 6 16.1769 6C16.5034 6 16.8105 6.12131 17.0413 6.34149L25.6419 14.5441C25.8728 14.7643 26 15.0571 26 15.3685C26 15.6799 25.8728 15.9727 25.6419 16.193C25.4037 16.4201 25.0906 16.5338 24.7775 16.5338ZM16.177 6.88172C16.0974 6.88172 16.0226 6.91126 15.9663 6.96494C15.91 7.01862 15.8791 7.08994 15.8791 7.16583C15.8791 7.24173 15.91 7.31304 15.9663 7.36673L24.5669 15.5693C24.6831 15.6801 24.872 15.6801 24.9881 15.5693C25.0445 15.5156 25.0754 15.4443 25.0754 15.3684C25.0754 15.2925 25.0445 15.2212 24.9882 15.1675L16.3876 6.96494C16.3313 6.91126 16.2565 6.88172 16.177 6.88172Z" fill="#01142B"/>
<path d="M22.0898 12.2207C21.9715 12.2207 21.8532 12.1777 21.7629 12.0916C21.5824 11.9194 21.5824 11.6402 21.7629 11.4681L22.3219 10.935C22.516 10.7499 22.6229 10.5037 22.6229 10.2418C22.6229 9.98003 22.516 9.73383 22.3219 9.54865L22.2791 9.50786C22.0851 9.32273 21.8269 9.22077 21.5524 9.22077C21.2778 9.22077 21.0197 9.32273 20.8255 9.50786L20.2667 10.0409C20.0861 10.2131 19.7934 10.2131 19.6129 10.0409C19.4323 9.8687 19.4323 9.58954 19.6129 9.41737L20.1718 8.8843C20.5406 8.53261 21.0309 8.33889 21.5524 8.33889C22.074 8.33889 22.5643 8.53256 22.933 8.8843L22.9758 8.92508C23.3446 9.27677 23.5477 9.74441 23.5477 10.2418C23.5477 10.7392 23.3446 11.2068 22.9758 11.5585L22.4169 12.0915C22.3265 12.1777 22.2082 12.2207 22.0898 12.2207Z" fill="#01142B"/>
<path d="M11.6079 23.166C11.1079 23.166 10.6079 22.9845 10.2273 22.6216L8.57188 21.0427C8.20313 20.691 8 20.2234 8 19.726C8 19.2286 8.20313 18.761 8.57188 18.4093L8.59326 18.3889C8.77379 18.2168 9.06649 18.2168 9.24702 18.3889C9.42761 18.5611 9.42761 18.8402 9.24702 19.0124L9.22564 19.0328C9.03153 19.2179 8.92462 19.4641 8.92462 19.726C8.92462 19.9878 9.03153 20.2339 9.22564 20.4191L10.8811 21.9979C11.2819 22.3801 11.9339 22.3801 12.3346 21.9979L12.356 21.9775C12.5365 21.8054 12.8292 21.8054 13.0098 21.9775C13.1903 22.1497 13.1903 22.4288 13.0098 22.601L12.9884 22.6214C12.6078 22.9845 12.1078 23.166 11.6079 23.166Z" fill="#01142B"/>
<path d="M18.3267 22.474C18.2356 22.474 18.1436 22.4484 18.0631 22.395C17.8535 22.256 17.8018 21.9811 17.9476 21.7812L18.6952 20.7561C17.4375 20.6661 16.1539 20.4274 16.0877 20.415C15.8372 20.368 15.6741 20.1362 15.7233 19.8972C15.7726 19.6584 16.0157 19.5027 16.2661 19.5497C16.2853 19.5533 18.1935 19.908 19.5553 19.908C19.7275 19.908 19.8853 19.9993 19.965 20.1448C20.0448 20.2903 20.0332 20.466 19.9349 20.6007L18.7067 22.2847C18.6168 22.4079 18.4729 22.474 18.3267 22.474Z" fill="#01142B"/>
<path d="M17.5208 19.1417C17.4024 19.1417 17.2841 19.0986 17.1939 19.0126L12.3561 14.3985C12.1755 14.2264 12.1755 13.9472 12.3561 13.775C12.5366 13.6029 12.8293 13.6028 13.0099 13.775L17.8477 18.389C18.0282 18.5612 18.0282 18.8403 17.8477 19.0126C17.7574 19.0986 17.6391 19.1417 17.5208 19.1417Z" fill="#01142B"/>
</svg>
