<svg width="68" height="68" viewBox="0 0 68 68" fill="none" xmlns="http://www.w3.org/2000/svg">
<circle cx="34" cy="34" r="34" fill="#E3E3E3" fill-opacity="0.43"/>
<g clip-path="url(#clip0_2539_2292)">
<path d="M24.235 24.2534H19.2334V17.6261C19.2334 17.1509 19.6187 16.7656 20.0939 16.7656H23.3745C23.8497 16.7656 24.235 17.1509 24.235 17.6261V24.2534Z" fill="#EB9C8D"/>
<path d="M24.2343 17.6266V24.2533H22.2694V17.6266C22.2694 17.151 21.8848 16.7656 21.4092 16.7656H23.3742C23.849 16.7656 24.2343 17.151 24.2343 17.6266Z" fill="#D78878"/>
<path d="M44.7735 25.8367V48.8599L42.4139 49.0212L32.0033 49.7331L19.2324 48.8599V25.8367L30.6194 20.311L32.0033 19.6396L34.2764 20.743L44.7735 25.8367Z" fill="#FAF8F8"/>
<path d="M44.7741 25.8367V48.8599L42.4146 49.0213L42.0071 48.8599V32.9175C42.0071 32.5 41.6844 32.1537 41.2669 32.1238C37.0158 31.8226 33.6341 28.2367 33.6417 23.919C33.6417 23.2217 33.7288 22.5451 33.8918 21.899L30.6201 20.311L32.004 19.6396L34.2771 20.7429L44.7741 25.8367Z" fill="#E1DEE2"/>
<path d="M49.0073 26.3669V29.9918C49.0073 30.6578 48.3039 31.089 47.7098 30.787L33.6475 23.6235L32.7599 23.1716C32.2851 22.93 31.7223 22.93 31.2475 23.1716L16.2968 30.787C15.7034 31.089 15 30.6578 15 29.9918V26.3669C15 25.7789 15.3303 25.2406 15.854 24.9738L30.1304 17.7018L31.2474 17.133C31.7222 16.8906 32.285 16.8906 32.7598 17.133L35.6064 18.5834L48.1533 24.9738C48.6771 25.2406 49.0073 25.7789 49.0073 26.3669Z" fill="#FE7AB6"/>
<path d="M29.9018 23.6233L30.1312 23.7403L16.2968 30.7868C15.7034 31.0888 15 30.6576 15 29.9916V29.5397L27.5018 23.1714C27.9766 22.9298 28.5394 22.9298 29.0141 23.1714L29.9018 23.6233Z" fill="#FE5CA7"/>
<path d="M49.0078 26.3668V29.9917C49.0078 30.6577 48.3044 31.0889 47.7103 30.7869L33.648 23.6235C33.6825 22.6341 33.8919 21.689 34.2467 20.8182C34.4416 20.3403 34.2367 19.7929 33.7764 19.559L31.8611 18.5834L30.1309 17.7018L31.2479 17.133C31.7227 16.8906 32.2855 16.8906 32.7603 17.133L35.6069 18.5834L48.1538 24.9738C48.6775 25.2406 49.0078 25.7789 49.0078 26.3668Z" fill="#FE5CA7"/>
<path d="M46.8516 48.8594H17.1556C16.7746 48.8594 16.4658 49.1682 16.4658 49.5492V51.6173C16.4658 51.9982 16.7746 52.3071 17.1556 52.3071H46.8516C47.2325 52.3071 47.5414 51.9982 47.5414 51.6173V49.5492C47.5414 49.1682 47.2325 48.8594 46.8516 48.8594Z" fill="#B5ADB6"/>
<path d="M47.5415 49.5492V51.6171C47.5415 51.9981 47.2326 52.3069 46.8517 52.3069H45.0244V48.8594H46.8517C47.2326 48.8594 47.5415 49.1683 47.5415 49.5492Z" fill="#A79BA7"/>
<path d="M44.7739 32.1445C49.317 32.1445 52.9999 28.4615 52.9999 23.9184C52.9999 19.3753 49.317 15.6924 44.7739 15.6924C40.2308 15.6924 36.5479 19.3753 36.5479 23.9184C36.5479 28.4615 40.2308 32.1445 44.7739 32.1445Z" fill="#FFD15B"/>
<path d="M53 23.9186C53 28.461 49.317 32.144 44.7738 32.144C44.341 32.144 43.9152 32.1104 43.5 32.0461C47.4384 31.4337 50.4524 28.0282 50.4524 23.9186C50.4524 19.8082 47.4383 16.4027 43.5 15.7902C43.9152 15.726 44.341 15.6924 44.7738 15.6924C49.317 15.6924 53 19.3753 53 23.9186Z" fill="#FFC344"/>
<path d="M50.3561 24.5256V23.3113C50.3561 23.0776 50.1877 22.878 49.9573 22.8387L48.7484 22.6327C48.6177 22.6104 48.5077 22.5225 48.4572 22.3999L48.4515 22.3859C48.4013 22.2639 48.4171 22.1247 48.4934 22.017L49.2025 21.0165C49.3376 20.8258 49.3156 20.5655 49.1504 20.4003L48.2917 19.5417C48.1265 19.3765 47.8662 19.3544 47.6756 19.4896L46.6796 20.1955C46.5691 20.2737 46.4263 20.29 46.3012 20.2385L46.2923 20.2348C46.1698 20.1844 46.0817 20.0744 46.0595 19.9437L45.8534 18.7348C45.8142 18.5044 45.6145 18.3359 45.3809 18.3359H44.1666C43.9329 18.3359 43.7333 18.5044 43.694 18.7348L43.488 19.9437C43.4657 20.0744 43.3778 20.1844 43.2552 20.2348L43.2463 20.2385C43.1211 20.29 42.9783 20.2738 42.8679 20.1955L41.8719 19.4895C41.6812 19.3544 41.4209 19.3764 41.2557 19.5416L40.3971 20.4003C40.2319 20.5655 40.2098 20.8258 40.345 21.0164L41.0509 22.0124C41.1292 22.1229 41.1454 22.2657 41.0939 22.3909L41.0922 22.3949C41.0405 22.5205 40.9278 22.6106 40.7939 22.6335L39.5903 22.8386C39.3599 22.8779 39.1914 23.0776 39.1914 23.3112V24.5255C39.1914 24.7591 39.3599 24.9588 39.5903 24.998L40.7939 25.2032C40.9278 25.226 41.0405 25.3161 41.0922 25.4418L41.0939 25.4458C41.1454 25.5709 41.1292 25.7138 41.0509 25.8242L40.345 26.8203C40.2098 27.0109 40.2319 27.2712 40.3971 27.4364L41.2557 28.2951C41.4209 28.4603 41.6812 28.4823 41.8719 28.3472L42.8679 27.6412C42.9783 27.563 43.1211 27.5467 43.2463 27.5982L43.2503 27.5998C43.3759 27.6516 43.466 27.7643 43.4889 27.8982L43.694 29.1018C43.7333 29.3322 43.9329 29.5007 44.1666 29.5007H45.3809C45.6145 29.5007 45.8142 29.3322 45.8534 29.1018L46.0595 27.8929C46.0817 27.7622 46.1697 27.6522 46.2923 27.6018L46.3012 27.5981C46.4263 27.5466 46.5692 27.5628 46.6796 27.6411L47.6756 28.347C47.8662 28.4822 48.1265 28.4601 48.2917 28.2949L49.1504 27.4363C49.3156 27.2711 49.3376 27.0108 49.2025 26.8201L48.4966 25.8241C48.4183 25.7137 48.4021 25.5709 48.4536 25.4457L48.4552 25.4417C48.507 25.3161 48.6197 25.226 48.7536 25.2031L49.9572 24.998C50.1877 24.9589 50.3561 24.7593 50.3561 24.5256Z" fill="#B5ADB6"/>
<path d="M44.7741 25.5042C45.6498 25.5042 46.3597 24.7943 46.3597 23.9186C46.3597 23.0429 45.6498 22.333 44.7741 22.333C43.8984 22.333 43.1885 23.0429 43.1885 23.9186C43.1885 24.7943 43.8984 25.5042 44.7741 25.5042Z" fill="#FAF8F8"/>
<path d="M29.4865 32.7454C29.1698 32.7454 28.9131 32.4887 28.9131 32.172V27.3019C28.9131 26.9852 29.1698 26.7285 29.4865 26.7285C29.8032 26.7285 30.0599 26.9852 30.0599 27.3019V32.172C30.06 32.4887 29.8032 32.7454 29.4865 32.7454Z" fill="#B5ADB6"/>
<path d="M32.0031 32.7452C31.6864 32.7452 31.4297 32.4885 31.4297 32.1718V29.5011C31.4297 29.1844 31.6864 28.9277 32.0031 28.9277C32.3198 28.9277 32.5765 29.1845 32.5765 29.5011V32.1718C32.5765 32.4885 32.3198 32.7452 32.0031 32.7452Z" fill="#B5ADB6"/>
<path d="M34.5197 32.7452C34.2029 32.7452 33.9463 32.4885 33.9463 32.1718V29.5011C33.9463 29.1844 34.203 28.9277 34.5197 28.9277C34.8364 28.9277 35.0931 29.1845 35.0931 29.5011V32.1718C35.0931 32.4885 34.8365 32.7452 34.5197 32.7452Z" fill="#B5ADB6"/>
<path d="M39.7255 35.2796H37.0549C36.7381 35.2796 36.4814 35.0229 36.4814 34.7062C36.4814 34.3895 36.7382 34.1328 37.0549 34.1328H39.7255C40.0422 34.1328 40.2989 34.3895 40.2989 34.7062C40.2989 35.023 40.0422 35.2796 39.7255 35.2796Z" fill="#B5ADB6"/>
<path d="M41.1227 37.7962H37.0549C36.7381 37.7962 36.4814 37.5395 36.4814 37.2228C36.4814 36.9061 36.7382 36.6494 37.0549 36.6494H41.1227C41.4395 36.6494 41.6961 36.9061 41.6961 37.2228C41.6961 37.5395 41.4394 37.7962 41.1227 37.7962Z" fill="#B5ADB6"/>
<path d="M39.7255 40.3128H37.0549C36.7381 40.3128 36.4814 40.0561 36.4814 39.7394C36.4814 39.4227 36.7382 39.166 37.0549 39.166H39.7255C40.0422 39.166 40.2989 39.4227 40.2989 39.7394C40.2989 40.0561 40.0422 40.3128 39.7255 40.3128Z" fill="#B5ADB6"/>
<path d="M34.5197 45.5176C34.2029 45.5176 33.9463 45.2609 33.9463 44.9442V42.2736C33.9463 41.9568 34.203 41.7002 34.5197 41.7002C34.8364 41.7002 35.0931 41.9569 35.0931 42.2736V44.9442C35.0931 45.2609 34.8365 45.5176 34.5197 45.5176Z" fill="#B5ADB6"/>
<path d="M32.0031 46.9568C31.6864 46.9568 31.4297 46.7001 31.4297 46.3834V42.2736C31.4297 41.9568 31.6864 41.7002 32.0031 41.7002C32.3198 41.7002 32.5765 41.9569 32.5765 42.2736V46.3834C32.5765 46.7002 32.3198 46.9568 32.0031 46.9568Z" fill="#B5ADB6"/>
<path d="M29.4865 45.5176C29.1698 45.5176 28.9131 45.2609 28.9131 44.9442V42.2736C28.9131 41.9568 29.1698 41.7002 29.4865 41.7002C29.8032 41.7002 30.0599 41.9569 30.0599 42.2736V44.9442C30.06 45.2609 29.8032 45.5176 29.4865 45.5176Z" fill="#B5ADB6"/>
<path d="M26.9522 40.3119H22.2697C21.953 40.3119 21.6963 40.0551 21.6963 39.7385C21.6963 39.4218 21.953 39.165 22.2697 39.165H26.9522C27.2689 39.165 27.5257 39.4218 27.5257 39.7385C27.5257 40.0551 27.2689 40.3119 26.9522 40.3119Z" fill="#B5ADB6"/>
<path d="M26.952 37.7953H24.2814C23.9647 37.7953 23.708 37.5385 23.708 37.2219C23.708 36.9052 23.9647 36.6484 24.2814 36.6484H26.952C27.2687 36.6484 27.5254 36.9052 27.5254 37.2219C27.5254 37.5385 27.2687 37.7953 26.952 37.7953Z" fill="#B5ADB6"/>
<path d="M26.952 35.2787H24.2814C23.9647 35.2787 23.708 35.0219 23.708 34.7053C23.708 34.3886 23.9647 34.1318 24.2814 34.1318H26.952C27.2687 34.1318 27.5254 34.3886 27.5254 34.7053C27.5254 35.0219 27.2687 35.2787 26.952 35.2787Z" fill="#B5ADB6"/>
<path d="M33.0897 32.1721L28.1984 32.1719C27.5101 32.1719 26.9521 32.7299 26.9521 33.4182V41.0275C26.9521 41.7158 27.5101 42.2738 28.1984 42.2738L33.0897 42.274C33.778 42.274 35.5599 41.716 35.5599 41.0277V33.4184C35.5599 32.7301 33.778 32.1721 33.0897 32.1721Z" fill="#FFD15B"/>
<path d="M37.0542 33.4182V41.0273C37.0542 41.7154 36.4961 42.2736 35.808 42.2736H33.0898C33.778 42.2736 34.3361 41.7154 34.3361 41.0273V33.4182C34.3361 32.7293 33.778 32.1719 33.0898 32.1719H35.808C36.496 32.1719 37.0542 32.7293 37.0542 33.4182Z" fill="#FFC344"/>
</g>
<defs>
<clipPath id="clip0_2539_2292">
<rect width="38" height="38" fill="white" transform="translate(15 15)"/>
</clipPath>
</defs>
</svg>
