<svg width="216" height="198" viewBox="0 0 216 198" fill="none" xmlns="http://www.w3.org/2000/svg">
<g filter="url(#filter0_f_2539_2859)">
<ellipse cx="108" cy="108.064" rx="56.4516" ry="38.7097" fill="#0FA6FC"/>
</g>
<path d="M104.987 138.573L16.9362 87.4466C12.9532 85.1339 12.9532 79.3818 16.9361 77.0691L104.987 25.9427C106.85 24.861 109.15 24.861 111.013 25.9427L199.064 77.0691C203.047 79.3818 203.047 85.1339 199.064 87.4466L111.013 138.573C109.15 139.655 106.85 139.655 104.987 138.573Z" fill="#0FA6FC"/>
<path d="M104.987 132.122L16.9362 80.9954C12.9532 78.6828 12.9532 72.9306 16.9361 70.618L104.987 19.4916C106.85 18.4099 109.15 18.4099 111.013 19.4916L199.064 70.618C203.047 72.9306 203.047 78.6828 199.064 80.9954L111.013 132.122C109.15 133.204 106.85 133.204 104.987 132.122Z" fill="white"/>
<mask id="mask0_2539_2859" style="mask-type:luminance" maskUnits="userSpaceOnUse" x="63" y="0" width="90" height="90">
<path d="M63 7.62939e-06H153V90H63V7.62939e-06Z" fill="white"/>
</mask>
<g mask="url(#mask0_2539_2859)">
<path d="M77.502 76.8164C77.502 71.8325 75.3891 67.1418 71.8539 63.6288C68.0149 59.8134 65.6367 54.5331 65.6367 48.6914C65.6367 37.0417 75.0807 27.5977 86.7305 27.5977C98.3802 27.5977 107.824 37.0417 107.824 48.6914C107.824 54.5331 105.446 59.8134 101.607 63.6288C98.0719 67.1418 95.959 71.8325 95.959 76.8164M77.502 76.8164H95.959M77.502 76.8164L77.502 82.0898C77.502 85.0022 79.863 87.3633 82.7754 87.3633H90.6855C93.5979 87.3633 95.959 85.0022 95.959 82.0898V76.8164M86.7305 76.8164V55.7227M86.7305 55.7227L93.7617 48.6914M86.7305 55.7227L79.6992 48.6914M132.943 41.6602V13.1836C132.943 7.35873 128.221 2.63672 122.396 2.63672H97.2773C91.4525 2.63672 86.7305 7.35873 86.7305 13.1836V17.0508M132.943 41.6602L141.732 32.8711M132.943 41.6602L124.154 32.8711M147.005 69.7852C147.005 68.8792 146.912 67.9957 146.748 67.1374L150.363 64.8018L145.969 57.1903L142.133 59.1564C140.801 58.0036 139.252 57.1017 137.553 56.5116L137.337 52.207H128.548L128.333 56.5116C126.634 57.1017 125.085 58.0036 123.753 59.1564L119.917 57.1903L115.522 64.8018L119.138 67.1374C118.974 67.9957 118.88 68.8792 118.88 69.7852C118.88 70.6911 118.974 71.5746 119.138 72.4329L115.522 74.7684L119.917 82.3799L123.753 80.4139C125.085 81.5667 126.634 82.4686 128.333 83.0587L128.548 87.3633H137.337L137.553 83.0587C139.252 82.4686 140.801 81.5667 142.133 80.4139L145.969 82.3799L150.363 74.7684L146.748 72.4329C146.912 71.5746 147.005 70.6911 147.005 69.7852ZM138.216 69.7852C138.216 72.6975 135.855 75.0586 132.943 75.0586C130.03 75.0586 127.669 72.6975 127.669 69.7852C127.669 66.8728 130.03 64.5117 132.943 64.5117C135.855 64.5117 138.216 66.8728 138.216 69.7852Z" stroke="#0FA6FC" stroke-width="2" stroke-miterlimit="10" stroke-linecap="round" stroke-linejoin="round"/>
</g>
<defs>
<filter id="filter0_f_2539_2859" x="0.44883" y="18.2545" width="215.103" height="179.619" filterUnits="userSpaceOnUse" color-interpolation-filters="sRGB">
<feFlood flood-opacity="0" result="BackgroundImageFix"/>
<feBlend mode="normal" in="SourceGraphic" in2="BackgroundImageFix" result="shape"/>
<feGaussianBlur stdDeviation="25.55" result="effect1_foregroundBlur_2539_2859"/>
</filter>
</defs>
</svg>
