<svg width="68" height="68" viewBox="0 0 68 68" fill="none" xmlns="http://www.w3.org/2000/svg">
<circle cx="34" cy="34" r="34" fill="#E3E3E3" fill-opacity="0.43"/>
<g clip-path="url(#clip0_2539_2518)">
<path d="M34.0078 40.0274C34.0027 40.0273 33.9976 40.0273 33.9926 40.0274C28.6824 40.1001 24.1963 44.4576 24.1963 49.5425V52.4425C24.1963 52.7506 24.4456 53.0004 24.7532 53.0004H43.2472C43.5548 53.0004 43.8041 52.7506 43.8041 52.4425V49.5425C43.8041 44.4577 39.3179 40.1002 34.0078 40.0274Z" fill="#68B9D8"/>
<path d="M34.0083 40.0274C34.0033 40.0273 33.9982 40.0273 33.9931 40.0274C33.6562 40.032 33.3225 40.054 32.9932 40.0923C37.8546 40.6563 41.7895 44.7803 41.7895 49.5425V52.4425C41.7895 52.7506 41.5402 53.0004 41.2326 53.0004H43.2477C43.5553 53.0004 43.8046 52.7506 43.8046 52.4425V49.5425C43.8047 44.4577 39.3185 40.1002 34.0083 40.0274Z" fill="#3695B2"/>
<path d="M36.8921 48.4642L35.6366 43.0038C35.5772 42.7455 35.3476 42.5625 35.083 42.5625H32.9174C32.6528 42.5625 32.4232 42.7455 32.3638 43.0038L31.1083 48.4642C31.0623 48.664 31.1273 48.8732 31.2783 49.0117L33.6167 51.1559C33.7253 51.2554 33.8627 51.3052 34.0002 51.3052C34.1377 51.3052 34.2752 51.2555 34.3837 51.1559L36.7221 49.0117C36.873 48.8732 36.9381 48.664 36.8921 48.4642Z" fill="#F2464F"/>
<path d="M35.6885 43.2065L36.5054 41.5301L36.5062 41.5283L36.7443 41.0396C36.7461 41.0357 36.7475 41.0316 36.7493 41.0277L36.9905 40.5312C36.0456 40.2181 35.0427 40.0407 34.0082 40.0264C34.0032 40.0263 33.9981 40.0263 33.993 40.0264C32.9632 40.0405 31.9646 40.2164 31.0234 40.527L31.2265 40.9626C31.2351 40.9888 31.2448 41.0146 31.2569 41.0396L32.3128 43.2064H35.6884V43.2065H35.6885Z" fill="#D3333C"/>
<path d="M35.0714 40.1006L33.5771 43.2069H34.0006H35.6884L36.9902 40.5314C36.373 40.327 35.7308 40.1817 35.0714 40.1006Z" fill="#AF273B"/>
<path d="M27.7357 23.0499C27.6123 22.6694 27.2902 22.3973 26.8949 22.3397L24.3629 21.971L23.2306 19.6725C23.0539 19.3137 22.6959 19.0908 22.2965 19.0908C21.8972 19.0908 21.5393 19.3137 21.3626 19.6725L20.2302 21.971L17.6982 22.3397C17.3029 22.3972 16.9808 22.6694 16.8574 23.0499C16.734 23.4305 16.8351 23.8402 17.121 24.1194L18.9531 25.9086L18.5206 28.435C18.4531 28.8294 18.6118 29.2204 18.9349 29.4555C19.1175 29.5885 19.3311 29.6559 19.5461 29.6559C19.7116 29.6559 19.8781 29.6159 20.0318 29.535L22.2965 28.3422L24.5612 29.535C24.9147 29.7211 25.3349 29.6907 25.6581 29.4555C25.9812 29.2204 26.1399 28.8294 26.0724 28.435L25.6399 25.9086L27.472 24.1194C27.7581 23.8402 27.8591 23.4304 27.7357 23.0499Z" fill="#F7CB4F"/>
<path d="M27.7366 23.0499C27.6132 22.6693 27.291 22.3972 26.8958 22.3396L26.8838 22.3379L23.9765 25.1624C23.8295 25.306 23.7624 25.513 23.7971 25.7157L24.4379 29.4696L24.562 29.535C24.9155 29.7211 25.3358 29.6907 25.659 29.4555C25.9821 29.2204 26.1408 28.8294 26.0733 28.435L25.6407 25.9086L27.4729 24.1194C27.7589 23.8402 27.8599 23.4303 27.7366 23.0499Z" fill="#FBAB00"/>
<path d="M39.4495 18.959C39.3261 18.5785 39.004 18.3064 38.6088 18.2488L36.0767 17.8801L34.9445 15.5816C34.7677 15.2229 34.4098 15 34.0104 15C33.611 15 33.2532 15.2229 33.0764 15.5817L31.944 17.8802L29.412 18.2489C29.0168 18.3064 28.6946 18.5785 28.5713 18.9591C28.4479 19.3396 28.5489 19.7494 28.8348 20.0286L30.6669 21.8178L30.2345 24.3442C30.167 24.7385 30.3257 25.1296 30.6488 25.3647C30.9719 25.5998 31.3921 25.6303 31.7457 25.4441L34.0104 24.2513L36.2751 25.4441C36.4289 25.525 36.5952 25.5651 36.7607 25.5651C36.9757 25.5651 37.1893 25.4976 37.3719 25.3647C37.695 25.1296 37.8537 24.7385 37.7862 24.3442L37.3537 21.8179L39.1859 20.0287C39.4719 19.7493 39.5729 19.3395 39.4495 18.959Z" fill="#F7CB4F"/>
<path d="M39.4504 18.9593C39.327 18.5788 39.0048 18.3067 38.6096 18.2491L38.596 18.2471L35.6904 21.072C35.5434 21.2156 35.4763 21.4225 35.5109 21.6253L36.1406 25.3732L36.276 25.4444C36.4297 25.5253 36.5961 25.5654 36.7615 25.5654C36.9766 25.5654 37.1901 25.4979 37.3727 25.365C37.6958 25.1299 37.8545 24.7388 37.7871 24.3445L37.3546 21.8182L39.1868 20.029C39.4728 19.7496 39.5737 19.3398 39.4504 18.9593Z" fill="#FBAB00"/>
<path d="M34.0005 27.3701C31.2567 27.3701 29.0244 29.6065 29.0244 32.3552V36.165C29.0244 38.9138 31.2567 41.1501 34.0005 41.1501C36.7444 41.1501 38.9766 38.9138 38.9766 36.165V32.3552C38.9766 29.6065 36.7443 27.3701 34.0005 27.3701Z" fill="#FFC89F"/>
<path d="M34.0004 27.3701C33.6519 27.3701 33.3119 27.4066 32.9834 27.4752C35.2411 27.9468 36.9425 29.9557 36.9425 32.3553V36.1651C36.9425 38.5648 35.2411 40.5736 32.9834 41.0452C33.3119 41.1138 33.652 41.1503 34.0004 41.1503C36.7443 41.1503 38.9765 38.914 38.9765 36.1652V32.3552C38.9765 29.6065 36.7442 27.3701 34.0004 27.3701Z" fill="#F7B081"/>
<path d="M38.9766 34.2596V32.3552C38.9766 29.6064 36.7444 27.3701 34.0005 27.3701C31.2567 27.3701 29.0244 29.6065 29.0244 32.3552V34.2601H29.5813C33.4439 34.2601 34.851 31.6473 34.851 31.6473C34.851 31.6473 35.8347 34.2475 38.4197 34.2596H38.9766Z" fill="black"/>
<path d="M51.142 23.0499C51.0185 22.6694 50.6964 22.3973 50.3012 22.3397L47.7691 21.971L46.6367 19.6725C46.46 19.3137 46.1021 19.0908 45.7027 19.0908C45.3034 19.0908 44.9455 19.3137 44.7687 19.6725L43.6365 21.971L41.1044 22.3397C40.7092 22.3972 40.387 22.6694 40.2637 23.0499C40.1402 23.4305 40.2413 23.8402 40.5272 24.1194L42.3594 25.9086L41.9268 28.435C41.8594 28.8294 42.018 29.2204 42.3412 29.4555C42.5238 29.5885 42.7374 29.6559 42.9524 29.6559C43.118 29.6559 43.2844 29.6159 43.4381 29.535L45.7028 28.3422L47.9674 29.535C48.3209 29.7211 48.7411 29.6907 49.0644 29.4555C49.3875 29.2204 49.5462 28.8294 49.4787 28.435L49.0462 25.9086L50.8784 24.1194C51.1643 23.8402 51.2654 23.4304 51.142 23.0499Z" fill="#F7CB4F"/>
<path d="M51.1418 23.0499C51.0184 22.6693 50.6962 22.3972 50.301 22.3396L50.2891 22.3379L47.3818 25.1624C47.2348 25.306 47.1677 25.513 47.2023 25.7157L47.8431 29.4696L47.9674 29.535C48.3209 29.7211 48.7411 29.6907 49.0643 29.4555C49.3875 29.2204 49.5462 28.8294 49.4787 28.435L49.0461 25.9086L50.8783 24.1194C51.1641 23.8402 51.2652 23.4303 51.1418 23.0499Z" fill="#FBAB00"/>
<path d="M35.6833 43.207H33.5856L34.8239 48.5923L32.8223 50.4277L33.6169 51.1563C33.7254 51.2558 33.8628 51.3056 34.0003 51.3056C34.1379 51.3056 34.2753 51.2558 34.3838 51.1563L36.7222 49.0121C36.8733 48.8736 36.9382 48.6644 36.8923 48.4645L35.6833 43.207Z" fill="#D3333C"/>
</g>
<defs>
<clipPath id="clip0_2539_2518">
<rect width="38" height="38" fill="white" transform="translate(15 15)"/>
</clipPath>
</defs>
</svg>
