<svg width="33" height="33" viewBox="0 0 33 33" fill="none" xmlns="http://www.w3.org/2000/svg">
<circle cx="16.5" cy="16.5" r="16" stroke="#01142B"/>
<g clip-path="url(#clip0_2569_5555)">
<path d="M15.3667 15.403L14.7797 13.367L7.56708 20.8174C7.43633 20.9517 7.26493 21.0189 7.09352 21.0189C6.92211 21.0189 6.75075 20.9518 6.61996 20.8174C6.35845 20.5486 6.35845 20.1128 6.61996 19.844L14.6709 11.532C15.0218 11.1509 15.6897 11.3495 15.7945 11.8532L16.8179 15.4031" stroke="#01142B" stroke-miterlimit="10" stroke-linecap="round" stroke-linejoin="round"/>
<path d="M18.7734 15.4027L24.2363 9.77386V11.1031C24.2363 11.4832 24.5361 11.7913 24.906 11.7913C25.2759 11.7913 25.5757 11.4832 25.5757 11.1031V8.11224C25.5757 8.10877 25.5756 8.10531 25.5755 8.10184C25.5777 7.73621 25.2615 7.41644 24.906 7.42396H21.9959C21.626 7.42396 21.3262 7.73209 21.3262 8.1122C21.3262 8.49232 21.626 8.80045 21.9959 8.80045H23.2892L16.8838 15.4027" stroke="#01142B" stroke-miterlimit="10" stroke-linecap="round" stroke-linejoin="round"/>
<path d="M23.9745 23.6743C23.9745 24.2644 23.4986 24.7428 22.9116 24.7428H20.4982L19.0649 26.5757L17.6317 24.7428H15.2602C14.6731 24.7428 14.1973 24.2644 14.1973 23.6743V16.4708C14.1973 15.8807 14.6731 15.4023 15.2602 15.4023H22.9116C23.4986 15.4023 23.9745 15.8807 23.9745 16.4708V23.6743Z" stroke="#01142B" stroke-miterlimit="10" stroke-linecap="round" stroke-linejoin="round"/>
<path d="M19.8509 20.0447C20.1709 19.8081 20.3787 19.4271 20.3787 18.9971C20.3787 18.2792 19.7997 17.6973 19.0856 17.6973C18.3714 17.6973 17.7925 18.2792 17.7925 18.9971C17.7925 19.4271 18.0003 19.8081 18.3203 20.0447C17.4108 20.363 16.7578 21.2319 16.7578 22.2546H21.4133C21.4134 21.2319 20.7604 20.363 19.8509 20.0447Z" stroke="#01142B" stroke-miterlimit="22.9256" stroke-linecap="round" stroke-linejoin="round"/>
<path d="M11.4521 20.0098V21.8742" stroke="#01142B" stroke-miterlimit="22.9256" stroke-linecap="round" stroke-linejoin="round"/>
<path d="M12.3839 20.9424H10.5195" stroke="#01142B" stroke-miterlimit="22.9256" stroke-linecap="round" stroke-linejoin="round"/>
<path d="M8.30273 12.1211V13.9855" stroke="#01142B" stroke-miterlimit="22.9256" stroke-linecap="round" stroke-linejoin="round"/>
<path d="M9.23447 13.0537H7.37012" stroke="#01142B" stroke-miterlimit="22.9256" stroke-linecap="round" stroke-linejoin="round"/>
<path d="M12.1328 8.58008V10.4445" stroke="#01142B" stroke-miterlimit="22.9256" stroke-linecap="round" stroke-linejoin="round"/>
<path d="M13.0646 9.5127H11.2002" stroke="#01142B" stroke-miterlimit="22.9256" stroke-linecap="round" stroke-linejoin="round"/>
</g>
<defs>
<clipPath id="clip0_2569_5555">
<rect width="20" height="20" fill="white" transform="translate(6 7)"/>
</clipPath>
</defs>
</svg>
