<svg width="70" height="70" viewBox="0 0 70 70" fill="none" xmlns="http://www.w3.org/2000/svg">
<circle cx="35" cy="35" r="35" fill="#9964FE"/>
<g clip-path="url(#clip0_2539_2191)">
<mask id="mask0_2539_2191" style="mask-type:luminance" maskUnits="userSpaceOnUse" x="16" y="16" width="39" height="39">
<path d="M16 16H55V55H16V16Z" fill="white"/>
</mask>
<g mask="url(#mask0_2539_2191)">
<path d="M45.7776 51.2828V53.4766M45.7776 35.1953V37.2977M51.8105 48.0105L53.4756 49.0586M37.9365 39.6133L39.9277 40.8808M39.562 48.0105L38.0127 49.0586M53.4756 39.6895L51.4448 40.8808M17.5225 43.8789L19.9951 41.3432C21.1808 40.1538 23.1033 40.1538 24.2891 41.3432L26.8154 43.8789M22.0928 46.6973C22.0928 49.6 24.4459 51.9531 27.3486 51.9531H29.7861M53.4756 27.2734L51.003 29.8091C49.8172 30.9985 47.8947 30.9985 46.7089 29.8091L44.1826 27.2734M48.9053 24.4551C48.9053 21.5523 46.5522 19.1992 43.6494 19.1992H41.2119M28.8711 26.2832H26.2822V23.1602M35.042 26.2832C35.042 31.1211 31.1201 35.043 26.2822 35.043C21.4443 35.043 17.5225 31.1211 17.5225 26.2832C17.5225 21.4453 21.4443 17.5234 26.2822 17.5234C31.1201 17.5234 35.042 21.4453 35.042 26.2832ZM39.6847 44.3359C39.6847 47.7014 42.4129 50.4297 45.7784 50.4297C49.1439 50.4297 51.8722 47.7014 51.8722 44.3359C51.8722 40.9704 49.1439 38.2422 45.7784 38.2422C42.4129 38.2422 39.6847 40.9704 39.6847 44.3359Z" stroke="white" stroke-width="1.94245" stroke-miterlimit="10" stroke-linecap="round" stroke-linejoin="round"/>
</g>
</g>
<defs>
<clipPath id="clip0_2539_2191">
<rect width="39" height="39" fill="white" transform="translate(16 16)"/>
</clipPath>
</defs>
</svg>
