<svg width="33" height="33" viewBox="0 0 33 33" fill="none" xmlns="http://www.w3.org/2000/svg">
<circle cx="16.5" cy="16.5" r="16" stroke="#01142B"/>
<path d="M19.782 17.1115L18.5009 14.5492C19.4151 14.002 20.1245 13.17 20.5203 12.1809C20.916 11.1917 20.9764 10.1 20.692 9.0733C20.4076 8.04655 19.7943 7.14145 18.946 6.49686C18.0977 5.85227 17.0614 5.5038 15.996 5.50489C11.0635 5.53737 9.30122 12.0177 13.4911 14.5492L12.2099 17.1115C9.11781 15.7732 5.42731 18.2347 5.50109 21.6222C5.50523 22.9132 6.01992 24.1501 6.93281 25.063C7.8457 25.9759 9.08265 26.4906 10.3737 26.4948C15.3314 26.4327 17.0575 19.9844 12.8786 17.4504L14.1597 14.8882C15.3372 15.3666 16.6548 15.3666 17.8322 14.8882L19.1133 17.4504C18.3922 17.8823 17.7951 18.4935 17.3802 19.2245C16.9653 19.9556 16.7466 20.7815 16.7456 21.6221C16.7667 26.1228 22.3749 28.193 25.2972 24.8075C28.6107 20.9574 24.5217 15.2142 19.782 17.1115ZM13.3695 24.4462C12.9856 24.8562 12.5216 25.183 12.0063 25.4064C11.491 25.6298 10.9353 25.7451 10.3737 25.7451C9.812 25.7451 9.25632 25.6298 8.74102 25.4064C8.22571 25.183 7.76175 24.8562 7.37785 24.4462V23.8119C7.37753 23.581 7.45024 23.3559 7.58557 23.1689C7.7209 22.9818 7.91193 22.8423 8.13133 22.7704C8.59759 22.6458 9.8971 22.0931 10.3737 22.1327C10.8428 22.0944 12.1615 22.6446 12.6174 22.7709C12.8365 22.843 13.0272 22.9825 13.1623 23.1694C13.2974 23.3564 13.3699 23.5813 13.3695 23.8119V24.4462ZM10.3737 18.6214C10.737 18.6254 11.0841 18.7725 11.3397 19.0308C11.5953 19.289 11.7388 19.6376 11.7391 20.0009C11.7394 20.3642 11.5965 20.7131 11.3414 20.9717C11.0862 21.2304 10.7394 21.3781 10.3761 21.3828C10.0128 21.3788 9.66575 21.2317 9.41017 20.9734C9.15458 20.7152 9.01108 20.3666 9.01076 20.0033C9.01044 19.64 9.15334 19.2911 9.40847 19.0325C9.66361 18.7738 10.0104 18.6261 10.3737 18.6214ZM14.4967 21.6221C14.496 22.2486 14.3515 22.8666 14.0742 23.4285C14.0086 23.1134 13.8613 22.821 13.6472 22.5808C13.433 22.3405 13.1594 22.1608 12.8539 22.0595L11.6937 21.6714C12.0407 21.3972 12.2937 21.0217 12.4176 20.5971C12.5415 20.1726 12.53 19.7199 12.3849 19.3022C12.2398 18.8844 11.9681 18.5222 11.6077 18.2658C11.2473 18.0095 10.816 17.8717 10.3737 17.8717C9.93146 17.8717 9.50016 18.0095 9.13974 18.2658C8.77932 18.5221 8.50767 18.8843 8.36252 19.3021C8.21738 19.7199 8.20593 20.1725 8.32979 20.5971C8.45364 21.0216 8.70664 21.3971 9.05364 21.6713L7.89487 22.059C7.58907 22.1601 7.31523 22.3399 7.1008 22.5803C6.88637 22.8206 6.73888 23.1131 6.67312 23.4285C4.13121 17.2133 13.9975 14.8548 14.4967 21.6221ZM12.2954 12.1839C10.9296 9.53561 13.005 6.20077 15.996 6.25452C18.9863 6.20067 21.063 9.53605 19.6964 12.1839C19.6309 11.8688 19.4836 11.5765 19.2694 11.3362C19.0553 11.0959 18.7817 10.9162 18.4762 10.8149L17.316 10.4268C17.663 10.1526 17.916 9.77713 18.0399 9.35256C18.1638 8.92798 18.1523 8.47538 18.0072 8.05759C17.8621 7.63981 17.5904 7.2776 17.23 7.02126C16.8696 6.76492 16.4383 6.62718 15.996 6.62717C15.5538 6.62716 15.1225 6.76489 14.762 7.02121C14.4016 7.27754 14.13 7.63974 13.9848 8.05752C13.8397 8.4753 13.8282 8.92791 13.9521 9.35248C14.0759 9.77706 14.3289 10.1525 14.6759 10.4267L13.5172 10.8144C13.2114 10.9156 12.9375 11.0953 12.7231 11.3357C12.5087 11.5761 12.3612 11.8686 12.2954 12.1839ZM15.9939 10.1383C15.6305 10.1337 15.2836 9.98608 15.0284 9.72741C14.7731 9.46874 14.6302 9.11988 14.6305 8.75649C14.6307 8.3931 14.7742 8.04447 15.0299 7.78619C15.2855 7.52792 15.6326 7.38081 15.996 7.37678C16.3594 7.38137 16.7063 7.52901 16.9615 7.78768C17.2167 8.04635 17.3597 8.3952 17.3594 8.75859C17.3591 9.12198 17.2156 9.47062 16.96 9.7289C16.7044 9.98717 16.3572 10.1343 15.9939 10.1383ZM13.0002 13.2016V12.5673C12.9998 12.3364 13.0725 12.1114 13.2079 11.9243C13.3432 11.7372 13.5342 11.5977 13.7536 11.5258L15.3484 10.9921C16.1737 10.6391 17.454 11.3039 18.2397 11.5263C18.4588 11.5984 18.6495 11.7379 18.7846 11.9249C18.9197 12.1118 18.9922 12.3367 18.9918 12.5673V13.2016C17.4972 14.9096 14.4945 14.9099 13.0002 13.2016ZM24.6141 24.4462C24.2302 24.8562 23.7662 25.183 23.2509 25.4064C22.7356 25.6298 22.1799 25.7451 21.6182 25.7451C21.0566 25.7451 20.5009 25.6298 19.9856 25.4064C19.4703 25.183 19.0063 24.8562 18.6224 24.4462V23.8119C18.6221 23.581 18.6948 23.3559 18.8302 23.1689C18.9655 22.9818 19.1565 22.8423 19.3759 22.7704C19.8422 22.6458 21.1417 22.0931 21.6182 22.1327C22.0873 22.0944 23.4061 22.6446 23.862 22.7709C24.0811 22.843 24.2718 22.9825 24.4069 23.1694C24.5419 23.3564 24.6145 23.5813 24.6141 23.8119V24.4462ZM21.6183 18.6214C21.982 18.6254 22.3294 18.7728 22.5851 19.0316C22.8407 19.2903 22.984 19.6394 22.9837 20.0032C22.9834 20.3669 22.8396 20.7158 22.5836 20.9742C22.3275 21.2325 21.9799 21.3794 21.6162 21.3829C21.2525 21.3788 20.905 21.2314 20.6494 20.9727C20.3937 20.714 20.2505 20.3648 20.2507 20.0011C20.251 19.6373 20.3948 19.2884 20.6509 19.0301C20.9069 18.7717 21.2546 18.6249 21.6183 18.6214ZM24.0985 22.0595L22.9383 21.6714C23.2853 21.3972 23.5383 21.0217 23.6622 20.5971C23.786 20.1726 23.7746 19.7199 23.6295 19.3022C23.4844 18.8844 23.2127 18.5222 22.8523 18.2658C22.4919 18.0095 22.0606 17.8718 21.6183 17.8717C21.1761 17.8717 20.7448 18.0095 20.3843 18.2658C20.0239 18.5221 19.7523 18.8843 19.6071 19.3021C19.462 19.7199 19.4505 20.1725 19.5744 20.5971C19.6982 21.0216 19.9512 21.3971 20.2983 21.6713L19.1395 22.059C18.8337 22.1601 18.5598 22.3399 18.3454 22.5803C18.131 22.8206 17.9835 23.1131 17.9177 23.4285C16.5519 20.7802 18.6273 17.4453 21.6183 17.4991C24.6086 17.4452 26.6853 20.7806 25.3187 23.4285C25.2532 23.1134 25.1059 22.821 24.8917 22.5808C24.6776 22.3405 24.404 22.1607 24.0985 22.0595Z" fill="#01142B"/>
</svg>
