<svg width="68" height="68" viewBox="0 0 68 68" fill="none" xmlns="http://www.w3.org/2000/svg">
<circle cx="34" cy="34" r="34" fill="#E3E3E3" fill-opacity="0.43"/>
<g clip-path="url(#clip0_2539_2540)">
<path d="M33.9049 46.2806C33.8329 46.2806 33.7597 46.2671 33.6888 46.2386C33.3912 46.1192 33.2467 45.7811 33.3661 45.4835L36.4624 37.768C36.5818 37.4703 36.9197 37.3256 37.2176 37.4454C37.5152 37.5648 37.8272 37.4604 37.7078 37.758L34.4439 45.916C34.353 46.1427 34.1351 46.2806 33.9049 46.2806Z" fill="#AFB4BC"/>
<path d="M42.6394 46.2807C42.4092 46.2807 42.1913 46.1429 42.1003 45.9161L38.8565 37.8355C38.7371 37.5378 39.0291 37.5649 39.3267 37.4454C39.6241 37.3256 39.9624 37.4704 40.0818 37.7681L43.1781 45.4835C43.2975 45.7812 43.1531 46.1193 42.8555 46.2386C42.7846 46.2673 42.7114 46.2807 42.6394 46.2807Z" fill="#AFB4BC"/>
<path d="M51.6084 36.9196H25.4941C24.7255 36.9196 24.1025 36.2965 24.1025 35.528V19.8193C24.1025 19.0507 24.7256 18.4277 25.4941 18.4277H51.6084C52.377 18.4277 53 19.0508 53 19.8193V35.5279C53 36.2965 52.3769 36.9196 51.6084 36.9196Z" fill="#EDEDED"/>
<path d="M51.6087 18.4277H49.3564C50.125 18.4277 50.748 19.0508 50.748 19.8193V35.5279C50.748 36.2964 50.125 36.9195 49.3564 36.9195H51.6087C52.3773 36.9195 53.0003 36.2964 53.0003 35.5279V19.8193C53.0003 19.0508 52.3772 18.4277 51.6087 18.4277Z" fill="#DDDDDD"/>
<path d="M42.2646 37.9846H34.8387C34.5966 37.9846 34.4004 37.7884 34.4004 37.5463V36.2406C34.4004 36.0559 34.5501 35.9062 34.7347 35.9062H42.3687C42.5533 35.9062 42.703 36.0559 42.703 36.2406V37.5463C42.703 37.7884 42.5067 37.9846 42.2646 37.9846Z" fill="#585A6A"/>
<path d="M42.3684 35.9062H40.2485C40.4332 35.9062 40.5829 36.0559 40.5829 36.2406V37.5463C40.5829 37.7884 40.3866 37.9846 40.1445 37.9846H42.2644C42.5065 37.9846 42.7028 37.7883 42.7028 37.5463V36.2406C42.7028 36.0559 42.5531 35.9062 42.3684 35.9062Z" fill="#2A2B35"/>
<path d="M40.3371 19.467H36.766C36.5813 19.467 36.4316 19.3173 36.4316 19.1327V17.7713C36.4316 17.56 36.6029 17.3887 36.8143 17.3887H40.2888C40.5001 17.3887 40.6715 17.56 40.6715 17.7713V19.1327C40.6715 19.3173 40.5218 19.467 40.3371 19.467Z" fill="#585A6A"/>
<path d="M40.2882 17.3887H38.5654C38.7767 17.3887 38.9481 17.56 38.9481 17.7713V19.1327C38.9481 19.3173 38.7984 19.467 38.6137 19.467H40.3365C40.5212 19.467 40.6709 19.3173 40.6709 19.1327V17.7713C40.6709 17.56 40.4995 17.3887 40.2882 17.3887Z" fill="#2A2B35"/>
<path d="M42.8736 26.1147C42.7431 26.1147 42.6119 26.071 42.5035 25.9812L38.3421 22.5432H34.4C34.0793 22.5432 33.8193 22.2832 33.8193 21.9625C33.8193 21.6417 34.0793 21.3818 34.4 21.3818H38.5513C38.6865 21.3818 38.8175 21.429 38.9217 21.5153L43.2443 25.0868C43.4913 25.2913 43.5257 25.6574 43.3212 25.9044C43.2064 26.043 43.0406 26.1147 42.8736 26.1147Z" fill="#579CFF"/>
<path d="M41.8138 27.2959C41.7118 27.2959 41.6086 27.2691 41.5149 27.2127L38.39 25.3313H34.4C34.0793 25.3313 33.8193 25.0713 33.8193 24.7506C33.8193 24.4298 34.0793 24.1699 34.4 24.1699H38.5513C38.6568 24.1699 38.7604 24.1986 38.8508 24.2531L42.1139 26.2177C42.3887 26.3831 42.4773 26.74 42.3119 27.0147C42.2029 27.1957 42.0108 27.2959 41.8138 27.2959Z" fill="#736EFF"/>
<path d="M50.4608 26.9085L49.4631 26.7154C49.3679 26.3344 49.2173 25.9753 49.0204 25.6473L49.5895 24.805C49.6377 24.7338 49.6286 24.6383 49.5677 24.5776L48.7348 23.7446C48.6739 23.6838 48.5785 23.6746 48.5073 23.7228L47.665 24.2919C47.3369 24.0949 46.9779 23.9444 46.597 23.8492L46.4039 22.8515C46.3875 22.7671 46.3136 22.7061 46.2276 22.7061H45.0496C44.9636 22.7061 44.8896 22.7671 44.8733 22.8515L44.6802 23.8492C44.2992 23.9444 43.9402 24.095 43.6122 24.2919L42.7699 23.7228C42.6986 23.6746 42.6032 23.6837 42.5424 23.7446L41.7094 24.5776C41.6487 24.6383 41.6395 24.7338 41.6876 24.805L42.2567 25.6473C42.0598 25.9754 41.9092 26.3344 41.8141 26.7154L40.8164 26.9085C40.7319 26.9248 40.6709 26.9987 40.6709 27.0847V28.2627C40.6709 28.3488 40.7319 28.4227 40.8164 28.439L41.8141 28.6321C41.9092 29.0131 42.0598 29.3722 42.2567 29.7001L41.6876 30.5424C41.6395 30.6137 41.6486 30.7091 41.7094 30.7699L42.5424 31.6029C42.6033 31.6637 42.6986 31.6729 42.7699 31.6247L43.6122 31.0556C43.9402 31.2526 44.2992 31.4031 44.6802 31.4982L44.8733 32.496C44.8896 32.5804 44.9636 32.6414 45.0496 32.6414H46.2276C46.3136 32.6414 46.3875 32.5804 46.4039 32.496L46.597 31.4982C46.9779 31.4031 47.337 31.2525 47.665 31.0556L48.5073 31.6247C48.5785 31.6729 48.674 31.6637 48.7348 31.6029L49.5677 30.7699C49.6285 30.7091 49.6377 30.6137 49.5895 30.5424L49.0204 29.7001C49.2174 29.3721 49.3679 29.0131 49.4631 28.6321L50.4608 28.439C50.5453 28.4227 50.6063 28.3488 50.6063 28.2627V27.0847C50.6063 26.9987 50.5453 26.9248 50.4608 26.9085ZM45.6385 29.3382C44.7193 29.3382 43.9742 28.593 43.9742 27.6738C43.9742 26.7546 44.7193 26.0095 45.6385 26.0095C46.5577 26.0095 47.3029 26.7546 47.3029 27.6738C47.3029 28.593 46.5577 29.3382 45.6385 29.3382Z" fill="#FF8D27"/>
<path d="M47.2081 28.2236C46.9808 28.8722 46.3649 29.3381 45.6387 29.3381V32.6415H46.2277C46.3137 32.6415 46.3876 32.5805 46.4039 32.496L46.5971 31.4983C46.978 31.4032 47.3371 31.2526 47.6651 31.0557L48.5074 31.6248C48.5786 31.6729 48.6741 31.6637 48.7349 31.603L49.5679 30.7699C49.6287 30.7091 49.6379 30.6137 49.5897 30.5424L49.0206 29.7001C49.1569 29.4731 49.2704 29.231 49.3593 28.9772L47.2081 28.2236Z" fill="#736EFF"/>
<path d="M38.9857 30.8674H36.4313C36.1106 30.8674 35.8506 30.6074 35.8506 30.2867C35.8506 29.966 36.1106 29.7061 36.4313 29.7061H38.9857C39.3064 29.7061 39.5663 29.966 39.5663 30.2867C39.5663 30.6074 39.3064 30.8674 38.9857 30.8674Z" fill="#AFB4BC"/>
<path d="M38.9857 33.2219H36.4313C36.1106 33.2219 35.8506 32.9619 35.8506 32.6412C35.8506 32.3205 36.1106 32.0605 36.4313 32.0605H38.9857C39.3064 32.0605 39.5663 32.3205 39.5663 32.6412C39.5663 32.9619 39.3064 33.2219 38.9857 33.2219Z" fill="#AFB4BC"/>
<path d="M37.9795 50.6113H15.3315C15.1484 50.6113 15 50.4629 15 50.2798V46.8242C15 44.6774 16.266 42.791 18.1017 42.2024L26.6554 39.46L35.2092 42.2024C37.0449 42.791 38.3108 44.6774 38.3108 46.8242V50.2798C38.3108 50.4629 38.1625 50.6113 37.9795 50.6113Z" fill="#736EFF"/>
<path d="M37.9795 50.6112H15.3315C15.1484 50.6112 15 50.4628 15 50.2797V46.8242C15 44.6773 16.266 42.7909 18.1017 42.2023L23.4051 40.3865L26.6554 39.46L29.7349 40.3645L35.2091 42.2024C37.0448 42.791 38.3108 44.6774 38.3108 46.8242V50.2798C38.3108 50.4628 38.1625 50.6112 37.9795 50.6112Z" fill="#736EFF"/>
<path d="M35.209 42.2024L29.7347 40.3645L26.6553 39.46L25.707 39.7303L27.8663 40.3645L33.3405 42.2024C35.1762 42.791 36.4422 44.6774 36.4422 46.8242V50.6113H37.9792C38.1622 50.6113 38.3106 50.4629 38.3106 50.2798V46.8242C38.3106 44.6775 37.0447 42.791 35.209 42.2024Z" fill="#6A6AEF"/>
<path d="M23.3948 40.3862C23.3948 40.3862 22.6612 42.5143 22.7996 43.4239C22.938 44.3333 24.3814 48.1295 24.8361 48.782C25.2908 49.4345 26.5563 50.6109 26.5563 50.6109H26.8331C26.8331 50.6109 28.6323 48.0109 29.4232 46.4489C30.2141 44.887 30.5106 42.9691 30.3722 42.3068C30.2338 41.6445 29.7247 40.3643 29.7247 40.3643L23.3948 40.3862Z" fill="#EDEDED"/>
<path d="M29.8584 40.7117C29.7798 40.5027 29.7247 40.3643 29.7247 40.3643L23.3949 40.3862C23.3949 40.3862 23.3452 40.5304 23.2744 40.7587V40.85C23.2744 42.3753 24.5109 43.6117 26.0361 43.6117H27.0967C28.6219 43.6117 29.8584 42.3752 29.8584 40.85L29.8584 40.7117Z" fill="white"/>
<path d="M27.0967 42.3074H26.0361C24.5108 42.3074 23.2744 41.0709 23.2744 39.5457V37.5029H29.8584V39.5457C29.8584 41.0709 28.6219 42.3074 27.0967 42.3074Z" fill="#FFB399"/>
<path d="M23.2745 38.8968C24.1907 39.6367 25.3564 40.2809 26.6258 40.2809C27.841 40.2809 28.9611 40.1415 29.8584 39.4576V37.5029H23.2744L23.2745 38.8968Z" fill="#FF9580"/>
<path d="M26.6255 39.4596C23.6772 39.4596 21.2871 37.0695 21.2871 34.1213V31.3779H31.9639V34.1213C31.9639 37.0695 29.5739 39.4596 26.6255 39.4596Z" fill="#FFC0A6"/>
<path d="M30.6292 31.3779H21.2871V32.3401H28.8481C29.8318 32.3401 30.6293 33.1376 30.6293 34.1213C30.6293 36.8435 28.5916 39.0898 25.9582 39.4182C26.1769 39.4454 26.3995 39.4596 26.6255 39.4596C29.5738 39.4596 31.9638 37.0695 31.9638 34.1213V32.3401V31.3779H30.6292Z" fill="#FFA992"/>
<path d="M32.8482 29.5871H20.4033V28.9256C20.4033 25.489 23.1892 22.7031 26.6257 22.7031C30.0623 22.7031 32.8482 25.489 32.8482 28.9256V29.5871Z" fill="#FFDC48"/>
<path d="M26.6255 22.7031C26.3131 22.7031 26.0061 22.7264 25.7061 22.7709C28.7066 23.2153 31.0091 25.8014 31.0091 28.9256V29.5871H32.8478V28.9256C32.8479 25.489 30.062 22.7031 26.6255 22.7031Z" fill="#FFCE00"/>
<path d="M33.5206 31.5113H19.7305C19.5083 31.5113 19.3281 31.3312 19.3281 31.109V29.9893C19.3281 29.767 19.5083 29.5869 19.7305 29.5869H33.5206C33.7428 29.5869 33.9229 29.767 33.9229 29.9893V31.109C33.9229 31.3312 33.7428 31.5113 33.5206 31.5113Z" fill="#FF8D27"/>
<path d="M33.521 29.5869H31.4746C31.6968 29.5869 31.8769 29.767 31.8769 29.9893V31.109C31.8769 31.3312 31.6968 31.5113 31.4746 31.5113H33.521C33.7432 31.5113 33.9233 31.3312 33.9233 31.109V29.9893C33.9233 29.767 33.7432 29.5869 33.521 29.5869Z" fill="#FF7610"/>
<path d="M28.6718 29.5877H24.5791V27.1783C24.5791 26.8528 24.843 26.5889 25.1685 26.5889H28.0824C28.4079 26.5889 28.6718 26.8528 28.6718 27.1783V29.5877Z" fill="#FFB82E"/>
<path d="M28.6715 28.7568H24.5791V29.5873H28.6715V28.7568Z" fill="#FFA910"/>
<path d="M27.4857 26.5886H26.644H25.7656V22.4362C25.7656 22.1743 25.978 21.9619 26.2399 21.9619H27.0115C27.2735 21.9619 27.4858 22.1743 27.4858 22.4362L27.4857 26.5886Z" fill="#FFB82E"/>
<path d="M27.486 25.8467H25.7656V26.5881H27.486V25.8467Z" fill="#FFA910"/>
<path d="M27.3672 50.611H28.3855L31.7665 46.9927L30.7581 45.2133L32.4783 43.9084L29.735 40.3643L29.8585 42.4586C29.8585 43.2179 29.6899 43.9677 29.3649 44.6539L26.6555 50.3737L23.9113 44.6649C23.5781 43.9717 23.4051 43.2125 23.4051 42.4433V40.4879V40.3864L20.7832 43.9084L22.5034 45.2133L21.495 46.9928L24.876 50.611H25.8943L27.3672 50.611Z" fill="#4F4FAF"/>
<path d="M27.1005 44.0871H26.2106C25.8681 44.0871 25.5879 43.8068 25.5879 43.4644V42.9303C25.5879 42.5879 25.8681 42.3076 26.2106 42.3076H27.1005C27.4431 42.3076 27.7232 42.5879 27.7232 42.9303V43.4644C27.7232 43.8068 27.4431 44.0871 27.1005 44.0871Z" fill="#FFB82E"/>
<path d="M26.1814 44.0869L25.2441 47.4373L26.6559 50.3743L28.0815 47.3648L27.1304 44.0869H26.1814Z" fill="#FFDC48"/>
<path d="M24.3124 33.914C24.5745 33.914 24.787 33.7015 24.787 33.4394C24.787 33.1773 24.5745 32.9648 24.3124 32.9648C24.0504 32.9648 23.8379 33.1773 23.8379 33.4394C23.8379 33.7015 24.0504 33.914 24.3124 33.914Z" fill="#2C3242"/>
<path d="M28.5839 33.914C28.846 33.914 29.0585 33.7015 29.0585 33.4394C29.0585 33.1773 28.846 32.9648 28.5839 32.9648C28.3218 32.9648 28.1094 33.1773 28.1094 33.4394C28.1094 33.7015 28.3218 33.914 28.5839 33.914Z" fill="#2C3242"/>
<path d="M26.6561 37.5001C25.9341 37.5001 25.2591 37.178 24.8042 36.6164C24.6496 36.4254 24.679 36.1453 24.87 35.9907C25.0609 35.8361 25.341 35.8655 25.4957 36.0564C25.7808 36.4085 26.2038 36.6104 26.6561 36.6104C27.1112 36.6104 27.5356 36.4066 27.8208 36.0512C27.9746 35.8596 28.2546 35.8289 28.4461 35.9826C28.6378 36.1364 28.6684 36.4165 28.5147 36.608C28.0598 37.175 27.3824 37.5001 26.6561 37.5001Z" fill="#2C3242"/>
<path d="M19.0038 48.06C19.0038 46.144 17.4506 44.5908 15.5345 44.5908H15.4897C15.1753 45.2637 15 46.0259 15 46.8242V50.2798C15 50.4628 15.1484 50.6112 15.3315 50.6112H19.0038V48.06Z" fill="#6060D8"/>
<path d="M34.4854 48.8227V50.6113H37.9797C38.1627 50.6113 38.3112 50.463 38.3112 50.2799V46.8243C38.3112 46.201 38.2038 45.5999 38.0074 45.0459C36.0397 45.182 34.4854 46.8203 34.4854 48.8227Z" fill="#6060D8"/>
<path d="M38.007 45.046C38.007 45.0459 38.007 45.0459 38.007 45.046C37.384 45.089 36.8027 45.2831 36.2988 45.5912C36.3922 45.9868 36.4423 46.4003 36.4423 46.8243V50.6113H37.9793C38.1623 50.6113 38.3108 50.4629 38.3108 50.2799V46.8242C38.3107 46.2009 38.2034 45.5999 38.007 45.046Z" fill="#5757C1"/>
<path d="M48.5071 23.7228L47.6648 24.2919C47.3368 24.0949 46.9778 23.9444 46.5968 23.8492L46.4037 22.8515C46.3874 22.7671 46.3135 22.7061 46.2274 22.7061H45.0494C44.9634 22.7061 44.8895 22.7671 44.8732 22.8515L44.68 23.8492C44.2991 23.9444 43.9401 24.0949 43.612 24.2919L42.7697 23.7228C42.6985 23.6746 42.603 23.6837 42.5422 23.7446L42.1182 24.1687L44.4592 26.4996C44.7606 26.1969 45.1776 26.0095 45.6385 26.0095C46.0891 26.0095 46.4972 26.1893 46.7969 26.4802L49.0986 24.1084L48.7348 23.7446C48.6738 23.6838 48.5785 23.6746 48.5071 23.7228Z" fill="#5BB599"/>
</g>
<defs>
<clipPath id="clip0_2539_2540">
<rect width="38" height="38" fill="white" transform="translate(15 15)"/>
</clipPath>
</defs>
</svg>
