<svg width="33" height="33" viewBox="0 0 33 33" fill="none" xmlns="http://www.w3.org/2000/svg">
<circle cx="16.5" cy="16.5" r="16" stroke="#01142B"/>
<g clip-path="url(#clip0_2569_5425)">
<path d="M19.0098 8.79641C18.2889 8.53156 17.5234 8.35953 16.728 8.29391V8.99188C16.728 9.39406 16.4017 9.71984 16 9.71984C15.5983 9.71984 15.2716 9.39406 15.2716 8.99188V8.29391C11.0275 8.64406 7.64359 12.028 7.29344 16.272H7.99141C8.1925 16.272 8.37437 16.3536 8.50609 16.4853C8.63781 16.617 8.71938 16.7994 8.71938 17C8.71938 17.4022 8.39359 17.7284 7.99141 17.7284H7.29344C7.64359 21.9725 11.0275 25.3564 15.2716 25.7066V25.0086C15.2716 24.6064 15.5978 24.2806 15.9995 24.2806C16.4013 24.2806 16.728 24.6064 16.728 25.0086V25.7066C20.972 25.3564 24.3559 21.9725 24.7061 17.7284H24.0081C23.807 17.7284 23.6252 17.6469 23.4934 17.5152C23.3617 17.3834 23.2802 17.2011 23.2802 17C23.2802 16.5983 23.6059 16.272 24.0081 16.272H24.7061C24.6405 15.4766 24.4684 14.7111 24.2036 13.9902M25.5559 13.4488C25.8869 14.338 26.0969 15.2858 26.1667 16.272H26.92C27.1211 16.272 27.3034 16.3536 27.4352 16.4853C27.5669 16.617 27.6484 16.7994 27.6484 17C27.6484 17.4022 27.3222 17.7284 26.92 17.7284H26.1667C25.81 22.7769 21.7764 26.8105 16.728 27.1667V27.9205C16.728 28.3227 16.4017 28.6484 16 28.6484C15.5983 28.6484 15.2716 28.3227 15.2716 27.9205V27.1667C10.2227 26.8105 6.18953 22.7769 5.83281 17.7284H5.07953C4.87844 17.7284 4.69656 17.6469 4.56484 17.5152C4.43313 17.3834 4.35156 17.2011 4.35156 17C4.35156 16.5983 4.67734 16.272 5.07953 16.272H5.83281C6.05594 13.1103 7.72141 10.3466 10.1753 8.63469L11.6317 7.78859C12.7483 7.25844 13.9764 6.92469 15.2716 6.83328V6.07953C15.2716 5.67781 15.5978 5.35156 15.9995 5.35156C16.4013 5.35156 16.728 5.67781 16.728 6.07953V6.83328C17.7142 6.90266 18.662 7.11266 19.5513 7.44359" stroke="#01142B" stroke-miterlimit="10" stroke-linecap="round" stroke-linejoin="round"/>
<path d="M18.1147 14.0501L18.1703 13.4939C18.2944 12.2527 17.3198 11.1758 16.0724 11.1758C14.8251 11.1758 13.8505 12.2527 13.9745 13.4939L14.0302 14.0501" stroke="#01142B" stroke-miterlimit="10" stroke-linecap="round" stroke-linejoin="round"/>
<path d="M16.3678 14.3818V14.8332C16.3678 15.0661 16.1791 15.2548 15.9463 15.2548" stroke="#01142B" stroke-miterlimit="10" stroke-linecap="round" stroke-linejoin="round"/>
<path d="M16.9046 12.8398L16.6407 13.1037C16.3269 13.4175 15.8181 13.4175 15.5043 13.1037L15.2405 12.8398L14.0303 14.0501L14.1514 15.2614C14.2501 16.2484 15.0806 17 16.0725 17C17.0644 17 17.8949 16.2484 17.9936 15.2614L18.1148 14.0501L16.9046 12.8398Z" stroke="#01142B" stroke-miterlimit="10" stroke-linecap="round" stroke-linejoin="round"/>
<path d="M13.5762 21.1602V22.8242" stroke="#01142B" stroke-miterlimit="10" stroke-linecap="round" stroke-linejoin="round"/>
<path d="M18.5684 21.1602V22.8242" stroke="#01142B" stroke-miterlimit="10" stroke-linecap="round" stroke-linejoin="round"/>
<path d="M16.9043 18.6641H18.6383C19.6739 18.6641 20.5133 19.5035 20.5133 20.5391V22.8242H16.9043" stroke="#01142B" stroke-miterlimit="10" stroke-linecap="round" stroke-linejoin="round"/>
<path d="M15.2409 22.8242H11.6318V20.5391C11.6318 19.5035 12.4713 18.6641 13.5068 18.6641H15.2409" stroke="#01142B" stroke-miterlimit="10" stroke-linecap="round" stroke-linejoin="round"/>
<path d="M15.2402 20.3281V22.8242H16.9043V20.3281" stroke="#01142B" stroke-miterlimit="10" stroke-linecap="round" stroke-linejoin="round"/>
<path d="M16.9043 18.6641H15.2402V20.3281H16.9043V18.6641Z" stroke="#01142B" stroke-miterlimit="10" stroke-linecap="round" stroke-linejoin="round"/>
<path d="M21.8237 8.99216C22.2258 8.99216 22.5517 8.66622 22.5517 8.26415C22.5517 7.86208 22.2258 7.53613 21.8237 7.53613C21.4216 7.53613 21.0957 7.86208 21.0957 8.26415C21.0957 8.66622 21.4216 8.99216 21.8237 8.99216Z" stroke="#01142B" stroke-miterlimit="10" stroke-linecap="round" stroke-linejoin="round"/>
<path d="M25.1607 11.7672C25.4868 11.5321 25.5606 11.0771 25.3256 10.7509C25.0905 10.4248 24.6355 10.351 24.3093 10.586C23.9832 10.8211 23.9093 11.2761 24.1444 11.6023C24.3795 11.9284 24.8345 12.0023 25.1607 11.7672Z" stroke="#01142B" stroke-miterlimit="10" stroke-linecap="round" stroke-linejoin="round"/>
<path d="M25.1001 7.89941L21.46 11.5395" stroke="#01142B" stroke-miterlimit="10" stroke-linecap="round" stroke-linejoin="round"/>
<path d="M26.1754 12.9908C25.4046 13.6735 24.3909 14.0879 23.2803 14.0879C20.8678 14.0879 18.9121 12.1323 18.9121 9.71975C18.9121 7.30723 20.8678 5.35156 23.2803 5.35156C25.6928 5.35156 27.6485 7.30723 27.6485 9.71975C27.6485 10.4097 27.4885 11.0623 27.2037 11.6424" stroke="#01142B" stroke-miterlimit="10" stroke-linecap="round" stroke-linejoin="round"/>
</g>
<defs>
<clipPath id="clip0_2569_5425">
<rect width="24" height="24" fill="white" transform="translate(4 5)"/>
</clipPath>
</defs>
</svg>
