<svg width="70" height="71" viewBox="0 0 70 71" fill="none" xmlns="http://www.w3.org/2000/svg">
<circle cx="35" cy="35.3887" r="35" fill="#9964FE"/>
<path d="M32.6665 44.8843L35.1492 47.0407L37.634 44.8843M32.6665 44.8843L33.1678 42.1798M32.6665 44.8843L29.1149 45.7694C27.7381 46.1125 26.6916 47.2331 26.4433 48.63L25.9471 51.4217H44.3534L43.8572 48.63C43.6089 47.233 42.5624 46.1125 41.1856 45.7694L37.634 44.8843M37.634 44.8843L37.1327 42.1798M32.8214 18.6661V23.0144H30.4926V23.4783L35.1502 28.1359L39.8079 23.4782V23.0144L37.4791 23.0144V18.666L32.8214 18.6661ZM17 27.6595L20.0747 30.7343L18.4281 32.381L18.756 32.709H25.3429V26.122L25.0148 25.7941L23.3682 27.4408L20.2934 24.366L17 27.6595ZM53.3005 27.6595L50.2258 30.7343L51.8724 32.381L51.5445 32.709H44.9576V26.122L45.2856 25.7941L46.9323 27.4408L50.0071 24.366L53.3005 27.6595ZM40.023 37.7234C40.023 40.4146 37.8414 42.5962 35.1502 42.5962C32.4591 42.5962 30.2775 40.4146 30.2775 37.7234C30.2775 35.0323 32.4591 32.8507 35.1502 32.8507C37.8414 32.8507 40.023 35.0323 40.023 37.7234Z" stroke="white" stroke-width="1.45684" stroke-miterlimit="10"/>
</svg>
