<svg width="216" height="198" viewBox="0 0 216 198" fill="none" xmlns="http://www.w3.org/2000/svg">
<g filter="url(#filter0_f_2539_2818)">
<ellipse cx="108" cy="108.064" rx="56.4516" ry="38.7097" fill="#0FA6FC"/>
</g>
<path d="M104.987 138.573L16.9362 87.4466C12.9532 85.1339 12.9532 79.3818 16.9361 77.0691L104.987 25.9427C106.85 24.861 109.15 24.861 111.013 25.9427L199.064 77.0691C203.047 79.3818 203.047 85.1339 199.064 87.4466L111.013 138.573C109.15 139.655 106.85 139.655 104.987 138.573Z" fill="#0FA6FC"/>
<path d="M104.987 132.122L16.9362 80.9954C12.9532 78.6828 12.9532 72.9306 16.9361 70.618L104.987 19.4916C106.85 18.4099 109.15 18.4099 111.013 19.4916L199.064 70.618C203.047 72.9306 203.047 78.6828 199.064 80.9954L111.013 132.122C109.15 133.204 106.85 133.204 104.987 132.122Z" fill="white"/>
<path d="M89.543 47.4609L76.3594 42.1875V21.0938M89.543 47.4609L102.727 42.1875V21.0938M89.543 47.4609V26.3672M76.3594 21.0938L89.543 15.8203L102.727 21.0938M76.3594 21.0938L89.543 26.3672M102.727 21.0938L89.543 26.3672M105.363 13.1836H121.184M105.363 50.0977H121.184M113.273 13.1836V50.0977M65.6367 60.6445H150.363M118.547 87.3633L113.273 71.1914M102.727 71.1914L97.4531 87.3633M84.2695 87.3633H131.73M121.184 23.7305H142.277M121.184 34.2773H142.277M137.004 44.8242H142.277M126.457 44.8242H131.73M150.363 71.1914H65.6367V2.63672H150.363V71.1914Z" stroke="#0FA6FC" stroke-width="2" stroke-miterlimit="10"/>
<defs>
<filter id="filter0_f_2539_2818" x="0.44883" y="18.2545" width="215.103" height="179.619" filterUnits="userSpaceOnUse" color-interpolation-filters="sRGB">
<feFlood flood-opacity="0" result="BackgroundImageFix"/>
<feBlend mode="normal" in="SourceGraphic" in2="BackgroundImageFix" result="shape"/>
<feGaussianBlur stdDeviation="25.55" result="effect1_foregroundBlur_2539_2818"/>
</filter>
</defs>
</svg>
