<svg width="200" height="141" viewBox="0 0 200 141" fill="none" xmlns="http://www.w3.org/2000/svg">
<path d="M96.9872 138.573L8.93615 87.4466C4.95324 85.1339 4.95323 79.3818 8.93615 77.0691L96.9872 25.9427C98.8501 24.861 101.15 24.861 103.013 25.9427L191.064 77.0691C195.047 79.3818 195.047 85.1339 191.064 87.4466L103.013 138.573C101.15 139.655 98.8501 139.655 96.9872 138.573Z" fill="#0FA6FC"/>
<path d="M96.9872 132.122L8.93615 80.9954C4.95324 78.6828 4.95323 72.9306 8.93615 70.618L96.9872 19.4916C98.8501 18.4099 101.15 18.4099 103.013 19.4916L191.064 70.618C195.047 72.9306 195.047 78.6828 191.064 80.9954L103.013 132.122C101.15 133.204 98.8501 133.204 96.9872 132.122Z" fill="white"/>
<mask id="mask0_2539_2861" style="mask-type:luminance" maskUnits="userSpaceOnUse" x="55" y="0" width="90" height="90">
<path d="M55 7.62939e-06H145V90H55V7.62939e-06Z" fill="white"/>
</mask>
<g mask="url(#mask0_2539_2861)">
<path d="M69.502 76.8164C69.502 71.8325 67.3891 67.1418 63.8539 63.6288C60.0149 59.8134 57.6367 54.5331 57.6367 48.6914C57.6367 37.0417 67.0807 27.5977 78.7305 27.5977C90.3802 27.5977 99.8242 37.0417 99.8242 48.6914C99.8242 54.5331 97.4461 59.8134 93.607 63.6288C90.0719 67.1418 87.959 71.8325 87.959 76.8164M69.502 76.8164H87.959M69.502 76.8164L69.502 82.0898C69.502 85.0022 71.863 87.3633 74.7754 87.3633H82.6855C85.5979 87.3633 87.959 85.0022 87.959 82.0898V76.8164M78.7305 76.8164V55.7227M78.7305 55.7227L85.7617 48.6914M78.7305 55.7227L71.6992 48.6914M124.943 41.6602V13.1836C124.943 7.35873 120.221 2.63672 114.396 2.63672H89.2773C83.4525 2.63672 78.7305 7.35873 78.7305 13.1836V17.0508M124.943 41.6602L133.732 32.8711M124.943 41.6602L116.154 32.8711M139.005 69.7852C139.005 68.8792 138.912 67.9957 138.748 67.1374L142.363 64.8018L137.969 57.1903L134.133 59.1564C132.801 58.0036 131.252 57.1017 129.553 56.5116L129.337 52.207H120.548L120.333 56.5116C118.634 57.1017 117.085 58.0036 115.753 59.1564L111.917 57.1903L107.522 64.8018L111.138 67.1374C110.974 67.9957 110.88 68.8792 110.88 69.7852C110.88 70.6911 110.974 71.5746 111.138 72.4329L107.522 74.7684L111.917 82.3799L115.753 80.4139C117.085 81.5667 118.634 82.4686 120.333 83.0587L120.548 87.3633H129.337L129.553 83.0587C131.252 82.4686 132.801 81.5667 134.133 80.4139L137.969 82.3799L142.363 74.7684L138.748 72.4329C138.912 71.5746 139.005 70.6911 139.005 69.7852ZM130.216 69.7852C130.216 72.6975 127.855 75.0586 124.943 75.0586C122.03 75.0586 119.669 72.6975 119.669 69.7852C119.669 66.8728 122.03 64.5117 124.943 64.5117C127.855 64.5117 130.216 66.8728 130.216 69.7852Z" stroke="#0FA6FC" stroke-width="2" stroke-miterlimit="10" stroke-linecap="round" stroke-linejoin="round"/>
</g>
</svg>
