<svg width="68" height="68" viewBox="0 0 68 68" fill="none" xmlns="http://www.w3.org/2000/svg">
<circle cx="34" cy="34" r="34" fill="#E3E3E3" fill-opacity="0.43"/>
<g clip-path="url(#clip0_2539_2367)">
<path d="M22.5098 46.1133L22.0869 47.3259V51.478C22.0869 52.3188 22.7685 53.0004 23.6094 53.0004H41.615C42.4558 53.0004 43.1374 52.3188 43.1374 51.478V47.3218L42.7145 46.1133H22.5098Z" fill="#736E6E"/>
<path d="M42.7145 21.5721L43.1374 19.4217V16.5224C43.1374 15.6816 42.4558 15 41.615 15H23.6094C22.7685 15 22.0869 15.6816 22.0869 16.5224V19.4217L22.5098 21.5721H42.7145Z" fill="#736E6E"/>
<path d="M42.7145 46.1133H39.8812V48.2186C39.8812 49.0613 39.1982 49.7443 38.3556 49.7443H22.0869V51.478C22.0869 52.3189 22.7685 53.0005 23.6094 53.0005H41.615C42.4558 53.0005 43.1374 52.3189 43.1374 51.478V47.3219L42.7145 46.1133Z" fill="#595454"/>
<path d="M41.6146 15H39.8809V21.5721H42.7142L43.1371 19.4217V16.5224C43.1371 15.6816 42.4554 15 41.6146 15Z" fill="#595454"/>
<path d="M22.0869 19.4258H43.1374V47.3255H22.0869V19.4258Z" fill="#BED8FB"/>
<path d="M39.8813 19.4258V42.5437C39.8813 43.3863 39.1983 44.0694 38.3557 44.0694H22.0869V47.3256H43.1374V19.4258H39.8813Z" fill="#9DC6FB"/>
<path d="M38.9908 28.5751H26.4658C25.974 28.5751 25.5752 28.1764 25.5752 27.6845V23.5615C25.5752 23.0697 25.974 22.6709 26.4658 22.6709H38.9908C39.4827 22.6709 39.8815 23.0697 39.8815 23.5615V27.6845C39.8815 28.1764 39.4827 28.5751 38.9908 28.5751Z" fill="#DDEAFB"/>
<path d="M31.8375 35.2918H19.3125C18.8207 35.2918 18.4219 34.893 18.4219 34.4011V32.249C18.4219 31.7572 18.8207 31.3584 19.3125 31.3584H31.8375C32.3294 31.3584 32.7281 31.7572 32.7281 32.249V34.4011C32.7281 34.893 32.3294 35.2918 31.8375 35.2918Z" fill="#FCB143"/>
<path d="M48.6871 43.2148H36.1621C35.6703 43.2148 35.2715 42.816 35.2715 42.3242V38.2012C35.2715 37.7093 35.6703 37.3105 36.1621 37.3105H48.6871C49.179 37.3105 49.5777 37.7093 49.5777 38.2012V42.3242C49.5777 42.816 49.179 43.2148 48.6871 43.2148Z" fill="#FB74C4"/>
<path d="M31.8128 31.3584H30.927V32.5752C30.927 33.0808 30.5172 33.4906 30.0117 33.4906H18.4219V34.3764C18.4219 34.8819 18.8317 35.2917 19.3372 35.2917H31.8128C32.3184 35.2917 32.7281 34.8819 32.7281 34.3764V32.2737C32.7281 31.7682 32.3183 31.3584 31.8128 31.3584Z" fill="#FA9801"/>
<path d="M48.6624 37.3105H47.7766V40.4982C47.7766 41.0038 47.3668 41.4136 46.8613 41.4136H35.2715V42.2994C35.2715 42.805 35.6813 43.2147 36.1868 43.2147H48.6624C49.168 43.2147 49.5777 42.8049 49.5777 42.2994V38.226C49.5777 37.7204 49.1679 37.3105 48.6624 37.3105Z" fill="#DD5CA2"/>
<path d="M46.2001 32.3863H37.3182C37.0021 32.3863 36.7461 32.1302 36.7461 31.8143C36.7461 31.4983 37.0022 31.2422 37.3182 31.2422H46.2001C46.5161 31.2422 46.7722 31.4983 46.7722 31.8143C46.7722 32.1301 46.5161 32.3863 46.2001 32.3863Z" fill="#DDEAFB"/>
<path d="M46.2001 35.1012H37.3182C37.0021 35.1012 36.7461 34.8451 36.7461 34.5291C36.7461 34.2132 37.0022 33.957 37.3182 33.957H46.2001C46.5161 33.957 46.7722 34.2132 46.7722 34.5291C46.7722 34.845 46.5161 35.1012 46.2001 35.1012Z" fill="#DDEAFB"/>
<path d="M32.1281 39.401H28.4813C28.1652 39.401 27.9092 39.1449 27.9092 38.8289C27.9092 38.513 28.1653 38.2568 28.4813 38.2568H32.1281C32.4441 38.2568 32.7001 38.513 32.7001 38.8289C32.7002 39.1449 32.4441 39.401 32.1281 39.401Z" fill="#DDEAFB"/>
<path d="M32.1281 42.1158H28.4813C28.1652 42.1158 27.9092 41.8597 27.9092 41.5438C27.9092 41.2278 28.1653 40.9717 28.4813 40.9717H32.1281C32.4441 40.9717 32.7001 41.2278 32.7001 41.5438C32.7002 41.8597 32.4441 42.1158 32.1281 42.1158Z" fill="#DDEAFB"/>
<path d="M38.966 22.0986H26.4904C25.6702 22.0986 25.0029 22.7659 25.0029 23.5861V27.6596C25.0029 28.4798 25.6702 29.1471 26.4904 29.1471H38.966C39.7862 29.1471 40.4535 28.4799 40.4535 27.6596V23.5861C40.4535 22.7659 39.7862 22.0986 38.966 22.0986ZM26.1472 23.621L31.1182 25.6251L26.1472 27.6291V23.621ZM28.2694 23.2429H37.0271L32.6483 25.0082L28.2694 23.2429ZM32.6483 26.2419L37.0164 28.0029H28.2802L32.6483 26.2419ZM34.1784 25.6251L39.3064 23.5578C39.3072 23.5673 39.3093 23.5765 39.3093 23.5862V27.6597C39.3093 27.6708 39.307 27.6814 39.306 27.6923L34.1784 25.6251Z" fill="#698ED5"/>
</g>
<defs>
<clipPath id="clip0_2539_2367">
<rect width="38" height="38" fill="white" transform="translate(15 15)"/>
</clipPath>
</defs>
</svg>
