<svg width="70" height="70" viewBox="0 0 70 70" fill="none" xmlns="http://www.w3.org/2000/svg">
<circle cx="35" cy="35" r="35" fill="#48CFC8"/>
<path d="M36.1783 35.9844C36.1783 35.6089 35.8739 35.3045 35.4984 35.3045C35.123 35.3045 34.8186 35.6089 34.8186 35.9844H36.1783ZM34.8186 23.1839C34.8186 23.5594 35.123 23.8638 35.4984 23.8638C35.8739 23.8638 36.1783 23.5594 36.1783 23.1839H34.8186ZM29.0982 30.264C29.4736 30.264 29.778 29.9596 29.778 29.5841C29.778 29.2086 29.4736 28.9042 29.0982 28.9042V30.264ZM41.8987 28.9042C41.5232 28.9042 41.2188 29.2086 41.2188 29.5841C41.2188 29.9596 41.5232 30.264 41.8987 30.264V28.9042ZM36.1783 26.7732C36.1783 26.3977 35.8739 26.0933 35.4984 26.0933C35.123 26.0933 34.8186 26.3977 34.8186 26.7732H36.1783ZM35.4984 29.5841H34.8186C34.8186 29.7644 34.8902 29.9373 35.0177 30.0648L35.4984 29.5841ZM37.588 32.6351C37.8535 32.9006 38.2839 32.9006 38.5494 32.6351C38.8149 32.3696 38.8149 31.9391 38.5494 31.6736L37.588 32.6351ZM29.5995 44.9839L29.9544 45.5638C30.1563 45.4402 30.2793 45.2206 30.2793 44.9839H29.5995ZM26.3262 46.9878L25.9712 46.4079C25.7694 46.5315 25.6463 46.7511 25.6463 46.9878H26.3262ZM28.3334 51.1598L27.7053 51.4199L28.3334 51.1598ZM27.1581 53.9973L27.4183 54.6254L27.1581 53.9973ZM24.3206 52.8219L23.6925 53.0821L24.3206 52.8219ZM25.4959 49.9845L25.7561 50.6126L25.4959 49.9845ZM40.9072 44.9839H40.2273C40.2273 45.2206 40.3504 45.4402 40.5522 45.5638L40.9072 44.9839ZM44.1804 46.9878H44.8603C44.8603 46.7511 44.7372 46.5315 44.5354 46.4079L44.1804 46.9878ZM45.0128 49.9839L45.2729 49.3558L45.0128 49.9839ZM46.1881 52.8214L45.56 52.5612L46.1881 52.8214ZM43.3506 53.9967L43.6108 53.3686L43.3506 53.9967ZM42.1753 51.1592L41.5472 50.899L42.1753 51.1592ZM37.591 51.4886L38.2527 51.3323L37.591 51.4886ZM35.9766 54.1011L35.8204 53.4394L35.9766 54.1011ZM33.3641 52.4867L34.0257 52.3304L33.3641 52.4867ZM34.9785 49.8742L34.8223 49.2125L34.9785 49.8742ZM35.4984 35.9844H34.8186V38.0437H35.4984H36.1783V35.9844H35.4984ZM35.4984 23.1839H36.1783V21.1246H35.4984H34.8186V23.1839H35.4984ZM29.0982 29.5841V28.9042H27.0389V29.5841V30.264H29.0982V29.5841ZM41.8987 29.5841V30.264H43.9579V29.5841V28.9042H41.8987V29.5841ZM43.9579 29.5841H43.2781C43.2781 33.8807 39.795 37.3638 35.4984 37.3638V38.0437V38.7235C40.546 38.7235 44.6378 34.6316 44.6378 29.5841H43.9579ZM35.4984 38.0437V37.3638C31.2019 37.3638 27.7188 33.8807 27.7188 29.5841H27.0389H26.3591C26.3591 34.6316 30.4509 38.7235 35.4984 38.7235V38.0437ZM27.0389 29.5841H27.7188C27.7188 25.2875 31.2019 21.8045 35.4984 21.8045V21.1246V20.4447C30.4509 20.4447 26.3591 24.5366 26.3591 29.5841H27.0389ZM35.4984 21.1246V21.8045C39.795 21.8045 43.2781 25.2875 43.2781 29.5841H43.9579H44.6378C44.6378 24.5366 40.546 20.4447 35.4984 20.4447V21.1246ZM44.5112 20.5712L44.0304 21.0519C48.7427 25.7641 48.7427 33.4042 44.0304 38.1164L44.5112 38.5971L44.9919 39.0778C50.2351 33.8346 50.2351 25.3337 44.9919 20.0904L44.5112 20.5712ZM44.5112 38.5971L44.0304 38.1164C39.3182 42.8286 31.6782 42.8286 26.966 38.1164L26.4852 38.5971L26.0045 39.0778C31.2477 44.3211 39.7487 44.3211 44.9919 39.0778L44.5112 38.5971ZM26.4852 38.5971L26.966 38.1164C22.2538 33.4042 22.2538 25.7641 26.966 21.0519L26.4852 20.5712L26.0045 20.0904C20.7613 25.3337 20.7613 33.8346 26.0045 39.0778L26.4852 38.5971ZM26.4852 20.5712L26.966 21.0519C31.6782 16.3397 39.3182 16.3397 44.0304 21.0519L44.5112 20.5712L44.9919 20.0904C39.7487 14.8472 31.2477 14.8472 26.0045 20.0904L26.4852 20.5712ZM35.4984 26.7732H34.8186V29.5841H35.4984H36.1783V26.7732H35.4984ZM35.4984 29.5841L35.0177 30.0648L37.588 32.6351L38.0687 32.1544L38.5494 31.6736L35.9792 29.1034L35.4984 29.5841ZM29.5995 40.8739H28.9196V44.9839H29.5995H30.2793V40.8739H29.5995ZM29.5995 44.9839L29.2445 44.4041L25.9712 46.4079L26.3262 46.9878L26.6812 47.5676L29.9544 45.5638L29.5995 44.9839ZM26.3262 46.9878H25.6463V49.8186H26.3262H27.0061V46.9878H26.3262ZM28.3334 51.1598L27.7053 51.4199C28.0206 52.1811 27.6591 53.0538 26.8979 53.3691L27.1581 53.9973L27.4183 54.6254C28.8733 54.0227 29.5642 52.3546 28.9615 50.8996L28.3334 51.1598ZM27.1581 53.9973L26.8979 53.3691C26.1367 53.6845 25.264 53.323 24.9487 52.5618L24.3206 52.8219L23.6925 53.0821C24.2952 54.5371 25.9633 55.2281 27.4183 54.6254L27.1581 53.9973ZM24.3206 52.8219L24.9487 52.5618C24.6334 51.8006 24.9949 50.9279 25.7561 50.6126L25.4959 49.9845L25.2357 49.3564C23.7807 49.959 23.0898 51.6271 23.6925 53.0821L24.3206 52.8219ZM25.4959 49.9845L25.7561 50.6126C26.5173 50.2973 27.39 50.6587 27.7053 51.4199L28.3334 51.1598L28.9615 50.8996C28.3588 49.4446 26.6907 48.7537 25.2357 49.3564L25.4959 49.9845ZM40.9072 41.1241H40.2273V44.9839H40.9072H41.587V41.1241H40.9072ZM40.9072 44.9839L40.5522 45.5638L43.8255 47.5676L44.1804 46.9878L44.5354 46.4079L41.2621 44.4041L40.9072 44.9839ZM44.1804 46.9878H43.5006V49.8186H44.1804H44.8603V46.9878H44.1804ZM45.0128 49.9839L44.7526 50.612C45.5138 50.9273 45.8753 51.8 45.56 52.5612L46.1881 52.8214L46.8162 53.0816C47.4189 51.6266 46.7279 49.9585 45.2729 49.3558L45.0128 49.9839ZM46.1881 52.8214L45.56 52.5612C45.2447 53.3224 44.372 53.6839 43.6108 53.3686L43.3506 53.9967L43.0904 54.6248C44.5454 55.2275 46.2135 54.5366 46.8162 53.0816L46.1881 52.8214ZM43.3506 53.9967L43.6108 53.3686C42.8495 53.0533 42.4881 52.1806 42.8034 51.4194L42.1753 51.1592L41.5472 50.899C40.9445 52.354 41.6354 54.0221 43.0904 54.6248L43.3506 53.9967ZM42.1753 51.1592L42.8034 51.4194C43.1187 50.6582 43.9914 50.2967 44.7526 50.612L45.0128 49.9839L45.2729 49.3558C43.8179 48.7531 42.1499 49.444 41.5472 50.899L42.1753 51.1592ZM37.591 51.4886L36.9293 51.6448C37.1187 52.4466 36.6222 53.2501 35.8204 53.4394L35.9766 54.1011L36.1328 54.7627C37.6655 54.4008 38.6146 52.865 38.2527 51.3323L37.591 51.4886ZM35.9766 54.1011L35.8204 53.4394C35.0185 53.6287 34.2151 53.1322 34.0257 52.3304L33.3641 52.4867L32.7024 52.6429C33.0643 54.1756 34.6002 55.1247 36.1328 54.7627L35.9766 54.1011ZM33.3641 52.4867L34.0257 52.3304C33.8364 51.5286 34.3329 50.7252 35.1347 50.5358L34.9785 49.8742L34.8223 49.2125C33.2896 49.5744 32.3405 51.1103 32.7024 52.6429L33.3641 52.4867ZM34.9785 49.8742L35.1347 50.5358C35.9365 50.3465 36.74 50.843 36.9293 51.6448L37.591 51.4886L38.2527 51.3323C37.8908 49.7997 36.3549 48.8506 34.8223 49.2125L34.9785 49.8742ZM35.4768 42.335H34.7969V49.8186H35.4768H36.1567V42.335H35.4768Z" fill="white"/>
</svg>
