<svg width="64" height="60" viewBox="0 0 64 60" fill="none" xmlns="http://www.w3.org/2000/svg">
<path fill-rule="evenodd" clip-rule="evenodd" d="M32 12.1714L12.2354 20.0876V39.4709C12.2354 41.8695 12.8105 44.0401 14.0357 46.1031C17.3924 51.755 25.7547 56.2045 32 59.9801C38.2452 56.2045 46.6076 51.755 49.9642 46.1031C51.1894 44.0401 51.7646 41.8695 51.7646 39.4709V20.0876L32 12.1714Z" fill="#ADFFAD"/>
<path fill-rule="evenodd" clip-rule="evenodd" d="M51.7648 30.501C51.8775 30.501 51.992 30.5134 52.1065 30.5392C55.4536 31.2989 58.1961 32.2535 60.1049 33.3435C62.3259 34.6117 63.5625 36.1487 63.5625 37.9037C63.5625 40.8517 59.7567 43.3113 53.6039 44.9047C48.044 46.3446 40.4033 47.2351 32 47.2351C23.5968 47.2351 15.9561 46.3445 10.3961 44.9047C4.24312 43.3113 0.4375 40.8517 0.4375 37.9037C0.4375 36.1488 1.67425 34.6117 3.89512 33.3435C5.80387 32.2535 8.5465 31.299 11.8935 30.5392C12.0081 30.5135 12.1225 30.5011 12.2352 30.501V33.6575C9.34712 34.3337 7.018 35.1482 5.43313 36.0532C4.2315 36.7394 3.56237 37.3727 3.56237 37.9035C3.56237 39.2461 6.47237 40.671 11.1772 41.8894C16.4751 43.2614 23.8346 44.1099 31.9999 44.1099C40.1651 44.1099 47.5246 43.2612 52.8225 41.8894C57.5274 40.671 60.4374 39.2461 60.4374 37.9035C60.4374 37.3727 59.7683 36.7394 58.5666 36.0532C56.9818 35.1482 54.6527 34.3337 51.7645 33.6575V30.501H51.7648Z" fill="#A3AFE0"/>
<path fill-rule="evenodd" clip-rule="evenodd" d="M22.0732 25.6418L31.3009 18.2781C31.7148 17.9477 32.2857 17.9477 32.6997 18.2781L41.9274 25.6418C42.3582 25.9856 42.5866 26.4599 42.5866 27.0111V39.2566C42.5866 39.9853 41.9922 40.5797 41.2634 40.5797H22.7372C22.0084 40.5797 21.4141 39.9853 21.4141 39.2566V27.0111C21.4141 26.4599 21.6424 25.9856 22.0732 25.6418Z" fill="#85CAFF"/>
<path fill-rule="evenodd" clip-rule="evenodd" d="M32 31.1104C33.8465 31.1104 35.3572 32.6211 35.3572 34.4676V40.5799H28.6426V34.4676C28.6426 32.6211 30.1533 31.1104 31.9998 31.1104H32Z" fill="#D7EBFF"/>
<path fill-rule="evenodd" clip-rule="evenodd" d="M16.2666 14.068C15.6466 14.068 15.059 13.6968 14.8156 13.0864C14.4938 12.2855 14.8831 11.3757 15.684 11.0552L31.4188 4.75267C31.7931 4.60329 32.2088 4.60329 32.5818 4.75267L41.8828 8.47855L53.9256 3.65479L52.1817 3.06304C51.3641 2.78529 50.9266 1.8983 51.2043 1.08117C51.4815 0.264045 52.3691 -0.173455 53.1856 0.103795L58.932 2.05504C59.364 2.20204 59.7117 2.53104 59.8805 2.95592C60.0492 3.3808 60.0245 3.85804 59.8117 4.26229L57.067 9.47404C56.6643 10.2375 55.7196 10.5304 54.9555 10.1284C54.192 9.72655 53.8991 8.78104 54.3017 8.01754L55.067 6.56417L42.4645 11.612C42.0902 11.7614 41.6745 11.7614 41.3015 11.612L32.0005 7.88617L16.8472 13.956C16.6567 14.0325 16.4591 14.0682 16.267 14.0682L16.2666 14.068Z" fill="#A3AFE0"/>
</svg>
