<svg width="64" height="64" viewBox="0 0 64 64" fill="none" xmlns="http://www.w3.org/2000/svg">
<path d="M19.5445 61.4021C19.5199 61.3899 19.4953 61.3776 19.4707 61.3529C19.4337 61.3283 19.3968 61.2914 19.3599 61.2422C19.4091 61.3037 19.4707 61.3529 19.5445 61.4021Z" fill="#1D2943"/>
<path d="M42.7076 6.30078C42.6953 5.72228 42.4861 5.32842 42.1291 5.16849C42.1538 5.16849 42.1784 5.18074 42.203 5.19306L37.8092 2.58383C37.4892 2.38694 37.0584 2.42382 36.5784 2.69463L16.2953 14.4115C15.3353 14.9654 14.5723 16.2946 14.5723 17.39L14.6707 57.6977C14.683 58.2393 14.8676 58.6208 15.1877 58.8054L19.4707 61.3531C19.4337 61.3284 19.3969 61.2915 19.3599 61.2423C19.4092 61.3039 19.4707 61.3531 19.5445 61.4023C19.8522 61.6115 20.2953 61.5869 20.8 61.3039L41.083 49.5869C42.043 49.0331 42.8184 47.7039 42.8061 46.6085L42.7076 6.30078ZM40.9722 5.31618C41.3415 5.09457 41.6738 5.03305 41.9569 5.10689C41.6738 5.03305 41.3292 5.10689 40.9722 5.31618Z" fill="#4C5C75"/>
<path d="M19.5445 61.4021C19.5199 61.3899 19.4953 61.3776 19.4707 61.3529C19.4337 61.3283 19.3968 61.2914 19.3599 61.2422C19.4091 61.3037 19.4707 61.3529 19.5445 61.4021Z" fill="#4C5C75"/>
<path d="M19.5445 61.4021C19.5199 61.3899 19.4953 61.3776 19.4707 61.3529C19.4337 61.3283 19.3968 61.2914 19.3599 61.2422C19.4091 61.3037 19.4707 61.3529 19.5445 61.4021Z" fill="#1D2943"/>
<path d="M42.7076 6.30078C42.6953 5.72228 42.4861 5.32842 42.1291 5.16849C42.1538 5.16849 42.1784 5.18074 42.203 5.19306L37.8092 2.58383C37.4892 2.38694 37.0584 2.42382 36.5784 2.69463L16.2953 14.4115C15.3353 14.9654 14.5723 16.2946 14.5723 17.39L14.6707 57.6977C14.683 58.2393 14.8676 58.6208 15.1877 58.8054L19.4707 61.3531C19.4337 61.3284 19.3969 61.2915 19.3599 61.2423C19.4092 61.3039 19.4707 61.3531 19.5445 61.4023C19.8522 61.6115 20.2953 61.5869 20.8 61.3039L41.083 49.5869C42.043 49.0331 42.8184 47.7039 42.8061 46.6085L42.7076 6.30078ZM40.9722 5.31618C41.3415 5.09457 41.6738 5.03305 41.9569 5.10689C41.6738 5.03305 41.3292 5.10689 40.9722 5.31618Z" fill="#1D2943"/>
<path d="M19.5445 61.4021C19.5199 61.3899 19.4953 61.3776 19.4707 61.3529C19.4337 61.3283 19.3968 61.2914 19.3599 61.2422C19.4091 61.3037 19.4707 61.3529 19.5445 61.4021Z" fill="#4C5C75"/>
<path d="M42.2034 5.18993C41.8807 5.01274 41.4536 5.03365 40.964 5.31498L20.6842 17.0225C19.7258 17.5744 18.9551 18.9077 18.9654 20.0118L19.0697 60.3148C19.0697 60.8564 19.2571 61.2418 19.5697 61.4189L15.1829 58.8093C14.8705 58.6219 14.6831 58.2365 14.6725 57.6949L14.5684 17.3919C14.5684 16.2982 15.3392 14.965 16.2976 14.4129L36.5774 2.69487C37.0564 2.42411 37.4939 2.39288 37.8064 2.58039L42.2034 5.18993Z" fill="#1D2943"/>
<path d="M40.9675 5.31607C41.9253 4.76313 42.6992 5.20427 42.7023 6.30468L42.8096 46.6043C42.8128 47.7047 42.0439 49.0365 41.0863 49.5894L20.8031 61.2999C19.8453 61.8528 19.0714 61.4118 19.0683 60.3114L18.9609 20.0116C18.9578 18.9112 19.7267 17.5794 20.6843 17.0266L40.9675 5.31607Z" fill="#4C5C75"/>
<path d="M41.6215 46.6115C41.6215 47.2937 41.1005 48.2241 40.4927 48.5713L21.5635 59.4996C20.9805 59.8346 20.2486 59.4129 20.2486 58.743L20.1494 19.7667L41.5346 7.42432L41.6215 46.6115Z" fill="white"/>
<path d="M17.8458 23.1871L17.8335 27.9994C17.8335 28.2702 17.7351 28.4794 17.5628 28.5655L16.9227 28.9471C16.7627 29.0456 16.5289 29.0332 16.2827 28.8855C15.7905 28.6025 15.3843 27.9009 15.3843 27.3348L15.3966 22.5348C15.4089 22.2394 15.5196 22.0302 15.7043 21.944C15.6796 21.944 15.6673 21.944 15.6551 21.9563L16.3197 21.5748C16.4797 21.4886 16.7012 21.5009 16.9597 21.6486C17.452 21.9317 17.8458 22.621 17.8458 23.1871Z" fill="#9EA9C9"/>
<path d="M17.8213 32.6271V35.5071C17.809 35.7901 17.7229 35.9871 17.5506 36.0856L16.8982 36.4671C16.7383 36.5655 16.5167 36.5533 16.2706 36.4055C15.7659 36.1101 15.3721 35.4209 15.3721 34.8548V31.9748C15.3721 31.6917 15.4706 31.4824 15.6429 31.3963C15.6552 31.384 15.6798 31.384 15.6921 31.3717C15.6921 31.3594 15.7044 31.3594 15.7167 31.3594L16.2951 31.0148C16.4552 30.9163 16.6767 30.9286 16.9352 31.0763C17.4152 31.3594 17.8336 32.0609 17.8213 32.6271Z" fill="#9EA9C9"/>
<path d="M17.8213 32.6271V35.5071C17.809 35.7901 17.7229 35.9871 17.5506 36.0856L16.8982 36.4671C16.7383 36.5655 16.5167 36.5533 16.2706 36.4055C15.7659 36.1101 15.3721 35.4209 15.3721 34.8548V31.9748C15.3721 31.6917 15.4706 31.4824 15.6429 31.3963C15.6552 31.384 15.6798 31.384 15.6921 31.3717C15.6921 31.3594 15.7044 31.3594 15.7167 31.3594L16.2951 31.0148C16.4552 30.9163 16.6767 30.9286 16.9352 31.0763C17.4152 31.3594 17.8336 32.0609 17.8213 32.6271Z" fill="#9EA9C9"/>
<path d="M17.8458 23.1871L17.8335 27.9994C17.8335 28.2702 17.7351 28.4794 17.5628 28.5655L16.9227 28.9471C16.7627 29.0456 16.5289 29.0332 16.2827 28.8855C15.7905 28.6025 15.3843 27.9009 15.3843 27.3348L15.3966 22.5348C15.4089 22.2394 15.5196 22.0302 15.7043 21.944C15.6796 21.944 15.6673 21.944 15.6551 21.9563L16.3197 21.5748C16.4797 21.4886 16.7012 21.5009 16.9597 21.6486C17.452 21.9317 17.8458 22.621 17.8458 23.1871Z" fill="#9EA9C9"/>
<path d="M17.8471 23.192L17.8379 27.9933C17.8379 28.2715 17.7358 28.4754 17.5691 28.5681L16.9203 28.948C17.0778 28.8554 17.1798 28.6515 17.1798 28.3641L17.1983 23.572C17.1983 23.0067 16.7997 22.3116 16.3085 22.0242C16.0489 21.8759 15.8265 21.8665 15.6597 21.9593L16.3177 21.5793C16.4754 21.4865 16.7071 21.5051 16.9573 21.6442C17.4485 21.9314 17.8471 22.6267 17.8471 23.192Z" fill="#9EA9C9"/>
<path d="M16.3036 22.0251C16.795 22.3086 17.196 23.0034 17.1944 23.5678L17.1808 28.3687C17.1791 28.9398 16.7755 29.17 16.2842 28.8864C15.7872 28.5993 15.3861 27.9047 15.3877 27.3334L15.4013 22.5326C15.4029 21.9681 15.8066 21.7381 16.3036 22.0251Z" fill="#F3F1FC"/>
<path d="M17.8194 32.6256V35.5082C17.8101 35.7955 17.7174 35.9901 17.5505 36.0829L16.9018 36.4629C17.0593 36.3702 17.1613 36.1662 17.1613 35.8882L17.1706 33.0056C17.1706 32.4401 16.772 31.745 16.2807 31.4577C16.0305 31.3093 15.7987 31.3001 15.6411 31.3928L16.29 31.0127C16.4569 30.9201 16.6793 30.9293 16.9297 31.0776C17.4207 31.365 17.8287 32.0601 17.8194 32.6256Z" fill="#9EA9C9"/>
<path d="M16.2791 31.457C16.7705 31.7406 17.1715 32.4354 17.1699 33.0066L17.1617 35.8898C17.1601 36.4541 16.7564 36.6843 16.2652 36.4007C15.7681 36.1138 15.3671 35.419 15.3687 34.8546L15.3768 31.9713C15.3784 31.4001 15.7821 31.1701 16.2791 31.457Z" fill="#F3F1FC"/>
<path d="M16.2979 14.4135L36.5772 2.69531L16.2979 14.4135Z" fill="#1D2943"/>
<path d="M49.6736 12.1344V14.2883C49.6736 15.6421 48.726 17.2914 47.5444 17.9683C46.9537 18.3129 46.4121 18.3375 46.0183 18.116L45.4521 17.796C45.3782 17.7591 45.3167 17.7098 45.2675 17.6359C44.9844 18.756 44.1967 19.8883 43.2737 20.4298C42.6705 20.7745 42.1167 20.799 41.7352 20.5775C41.6982 20.5529 41.6614 20.5283 41.6244 20.5037L41.1813 20.2452C41.1075 20.2083 41.046 20.1468 40.9844 20.0852C40.7136 21.2175 39.9259 22.3621 38.9905 22.8914C38.3998 23.236 37.8582 23.2606 37.4767 23.039C37.4275 23.0145 37.3906 22.9898 37.3537 22.9652L36.9105 22.7068C36.8367 22.6698 36.7752 22.6206 36.7136 22.5468C36.4428 23.6791 35.6429 24.8237 34.7198 25.3529C34.1167 25.6975 33.5629 25.7221 33.1813 25.5006C33.1444 25.476 33.1075 25.4514 33.0705 25.4267L32.6275 25.1683C32.5536 25.1314 32.4921 25.0698 32.4306 25.0083C32.1598 26.1283 31.3721 27.2729 30.4367 27.8144C29.8213 28.1713 29.2675 28.1836 28.8736 27.9252L28.3567 27.6299C27.9629 27.4083 27.729 26.9283 27.729 26.2637L27.7167 24.7621L20.1475 20.3806V19.7283C20.2712 19.657 42.9745 6.58686 41.5259 7.42058L49.1075 11.8144L49.6736 12.1344Z" fill="#F45170"/>
<path d="M37.2563 9.8833L37.2582 10.5361L44.8339 14.923L44.832 14.2702L37.2563 9.8833Z" fill="#AFB2B9"/>
<path d="M49.1077 11.8148V12.4671L44.8369 14.9286V14.2763L37.2554 9.88244L41.5261 7.4209L49.1077 11.8148Z" fill="#F45170"/>
<path d="M44.832 14.2701L44.8339 14.923L49.1083 12.4639L49.1065 11.811L44.832 14.2701Z" fill="#7A7C81"/>
<path d="M37.2563 9.88341L44.832 14.2703L49.1065 11.8112L41.5308 7.42432L37.2563 9.88341Z" fill="#F45170"/>
<path d="M32.9766 12.3457L32.9784 12.9985L40.5541 17.3854L40.5523 16.7326L32.9766 12.3457Z" fill="#3B475A"/>
<path d="M40.5522 16.7325L40.5541 17.3854L44.8337 14.9233L44.8318 14.2705L40.5522 16.7325Z" fill="#29313F"/>
<path d="M32.9766 12.3453L40.5523 16.7322L44.8318 14.2702L37.2561 9.8833L32.9766 12.3453Z" fill="#FFD06C"/>
<path d="M28.7021 14.8047L28.704 15.4575L36.2797 19.8444L36.2778 19.1916L28.7021 14.8047Z" fill="#AFB2B9"/>
<path d="M36.2778 19.1915L36.2797 19.8443L40.5541 17.3852L40.5523 16.7324L36.2778 19.1915Z" fill="#7A7C81"/>
<path d="M28.7021 14.8048L36.2778 19.1917L40.5523 16.7326L32.9766 12.3457L28.7021 14.8048Z" fill="#F45170"/>
<path d="M24.4277 17.2637L24.4296 17.9165L32.0053 22.3034L32.0034 21.6506L24.4277 17.2637Z" fill="#3B475A"/>
<path d="M32.0034 21.6505L32.0053 22.3033L36.2797 19.8442L36.2779 19.1914L32.0034 21.6505Z" fill="#29313F"/>
<path d="M24.4277 17.2638L32.0034 21.6507L36.2779 19.1916L28.7022 14.8047L24.4277 17.2638Z" fill="#FFD06C"/>
<path d="M31.9998 21.6486V22.301L27.729 24.7625L20.1475 20.381V19.7286L24.4306 17.2671L31.9998 21.6486Z" fill="#CC104A"/>
<path d="M20.1479 19.7256L20.1498 20.3784L27.7255 24.7653L27.7236 24.1125L20.1479 19.7256Z" fill="#DF3260"/>
<path d="M27.7236 24.1124L27.7255 24.7653L32.0051 22.3032L32.0032 21.6504L27.7236 24.1124Z" fill="#DF3260"/>
<path d="M20.1479 19.7257L27.7236 24.1126L32.0032 21.6506L24.4275 17.2637L20.1479 19.7257Z" fill="#F45170"/>
<path d="M46.0208 18.1184L45.4543 17.7904C45.07 17.5679 44.8315 17.0952 44.8296 16.4238L45.396 16.7518C45.3979 17.4232 45.6365 17.8959 46.0208 18.1184Z" fill="#DF3260"/>
<path d="M45.3958 16.7518L44.8294 16.4238L44.8232 14.2734L45.3897 14.6015L45.3958 16.7518Z" fill="#8FABFE"/>
<path d="M45.3897 14.6016L44.8232 14.2736L49.1028 11.8115L49.6693 12.1395L45.3897 14.6016Z" fill="#E93565"/>
<path d="M49.6692 12.1396L49.6753 14.29C49.6792 15.6414 48.7227 17.2921 47.5425 17.9711C46.3623 18.6501 45.3996 18.1034 45.3958 16.7521L45.3896 14.6017L49.6692 12.1396Z" fill="#CC104A"/>
<path d="M41.7464 20.5774L41.1799 20.2494C40.7956 20.0269 40.5571 19.5541 40.5552 18.8828L41.1216 19.2108C41.1235 19.8822 41.3621 20.3549 41.7464 20.5774Z" fill="#FEBC1F"/>
<path d="M41.1214 19.2108L40.5549 18.8828L40.5488 16.7324L41.1153 17.0604L41.1214 19.2108Z" fill="#FFD06C"/>
<path d="M41.1153 17.0605L40.5488 16.7325L44.8233 14.2734L45.3897 14.6015L41.1153 17.0605Z" fill="#FEBC1F"/>
<path d="M45.3897 14.6016L45.3958 16.7519C45.3996 18.1033 44.4483 19.7511 43.2681 20.4301C42.0879 21.1091 41.1252 20.5624 41.1214 19.211L41.1152 17.0607L45.3897 14.6016Z" fill="#F9A83D"/>
<path d="M37.472 23.0393L36.9055 22.7113C36.521 22.4887 36.2827 22.0146 36.2808 21.3418L36.8472 21.6698C36.8491 22.3426 37.0874 22.8167 37.472 23.0393Z" fill="#DF3260"/>
<path d="M36.847 21.6698L36.2805 21.3418L36.2744 19.1914L36.8409 19.5194L36.847 21.6698Z" fill="#8FABFE"/>
<path d="M36.8409 19.5195L36.2744 19.1915L40.5489 16.7324L41.1153 17.0604L36.8409 19.5195Z" fill="#E93565"/>
<path d="M41.1153 17.0605L41.1214 19.2109C41.1252 20.5623 40.1688 22.213 38.9886 22.892C37.8083 23.571 36.8508 23.0214 36.8469 21.67L36.8408 19.5196L41.1153 17.0605Z" fill="#CC104A"/>
<path d="M33.1931 25.5014L32.6225 25.173C32.2448 24.9488 32.0037 24.4762 32.0037 23.8036L31.9956 21.6572L32.5582 21.9856L32.5662 24.1319C32.5662 24.8046 32.8074 25.2771 33.1931 25.5014Z" fill="#FEBC1F"/>
<path d="M28.2867 24.4409L27.7202 24.1129L31.9947 21.6538L32.5611 21.9818L28.2867 24.4409Z" fill="#E93565"/>
<path d="M36.8411 19.52L36.8472 21.6704C36.8511 23.0218 35.8946 24.6725 34.7144 25.3515C33.5342 26.0305 32.5715 25.4838 32.5676 24.1324L32.5615 21.9821L36.8411 19.52Z" fill="#F9A83D"/>
<path d="M32.5616 21.982L31.9951 21.6539L36.2747 19.1919L36.8411 19.5199L32.5616 21.982Z" fill="#FEBC1F"/>
<path d="M28.9172 27.9599L28.3546 27.6315C27.9689 27.4073 27.7278 26.9347 27.7278 26.262L27.7197 24.1157L28.2904 24.4441V26.5904C28.2984 27.2631 28.5315 27.7356 28.9172 27.9599Z" fill="#DF3260"/>
<path d="M32.5616 21.9819L32.5677 24.1323C32.5715 25.4837 31.6202 27.1315 30.44 27.8105C29.2598 28.4894 28.2971 27.9428 28.2932 26.5914L28.2871 24.441L32.5616 21.9819Z" fill="#CC104A"/>
<path d="M20.1683 28.4688L20.1499 20.3784L27.7256 24.7653V26.4737L20.1683 28.4688Z" fill="#E93565"/>
<path d="M29.1066 47.7612C29.2662 47.885 29.3628 48.1093 29.3637 48.4158C29.3656 49.0962 28.8907 49.9226 28.2952 50.2664C27.7031 50.6083 27.2217 50.334 27.2197 49.6535C27.2189 49.3471 27.3145 49.0118 27.4734 48.7042L29.1066 47.7612Z" fill="#4C5C75"/>
<path d="M36.464 43.5137C36.6237 43.6374 36.7202 43.8617 36.7211 44.1682C36.723 44.8486 36.2481 45.675 35.6526 46.0189C35.0605 46.3607 34.5791 46.0864 34.5772 45.406C34.5763 45.0995 34.6719 44.7642 34.8308 44.4566L36.464 43.5137Z" fill="#4C5C75"/>
<path d="M38.1231 31.2717C38.4498 31.0831 38.7059 31.2564 38.6729 31.6515L38.053 38.9969C38.0232 39.3352 37.7891 39.7132 37.5067 39.8763L26.7466 46.0886C26.7466 46.0678 26.7455 46.0475 26.7427 46.0282L25.6899 38.45L38.1231 31.2717ZM29.561 42.2312L29.5503 38.4498C29.5496 38.2113 29.3789 38.114 29.1714 38.2339C28.957 38.3577 28.7908 38.6495 28.7914 38.888L28.8022 42.6693C28.8029 42.9157 28.9702 43.011 29.1845 42.8872C29.3921 42.7674 29.5617 42.4775 29.561 42.2312ZM32.3856 40.6004L32.3748 36.8191C32.3742 36.5806 32.2035 36.4833 31.9959 36.6032C31.7849 36.725 31.6153 37.0187 31.616 37.2572L31.6267 41.0386C31.6274 41.2849 31.7981 41.3783 32.0091 41.2565C32.2167 41.1366 32.3863 40.8468 32.3856 40.6004ZM35.2135 38.9677L35.2028 35.1864C35.2021 34.9479 35.0314 34.8506 34.8238 34.9704C34.6162 35.0903 34.4466 35.3841 34.4473 35.6226L34.458 39.4039C34.4587 39.6503 34.6294 39.7436 34.837 39.6238C35.0446 39.5039 35.2142 39.2141 35.2135 38.9677Z" fill="#B28AFD"/>
<path d="M38.8779 41.3379C38.7852 41.2839 38.6637 41.2916 38.5387 41.3632L26.3146 48.4209C26.2043 48.4848 26.1187 48.4813 26.0681 48.4069C26.0583 48.3935 25.9796 48.2748 26.0821 48.0227L26.7557 46.38C26.7971 46.2753 26.8182 46.1777 26.8182 46.0885C26.8182 46.0646 26.8168 46.0407 26.8133 46.0183L25.7605 38.4401L25.7527 38.3818C25.7485 38.3397 25.7366 38.2968 25.7176 38.2582L25.1045 37.0509C25.0357 36.9104 24.9268 36.8142 24.7898 36.7728C24.6143 36.718 24.4057 36.7573 24.1992 36.8774L22.7531 37.7125C22.5206 37.8467 22.3394 38.1606 22.3408 38.4268C22.3408 38.5701 22.3928 38.6782 22.4876 38.7323C22.581 38.7878 22.7032 38.7772 22.8268 38.7056L24.2863 37.8656L24.8706 39.0266L25.8995 46.4319L25.3075 47.8759C25.075 48.4385 25.068 48.9687 25.2878 49.2953C25.4191 49.4878 25.6081 49.5847 25.8314 49.5847C26.0014 49.5847 26.191 49.5285 26.3891 49.414L38.6124 42.3563C38.8442 42.2229 39.0261 41.9089 39.0247 41.642C39.0247 41.5002 38.972 41.392 38.8779 41.3379Z" fill="#E3E7F0"/>
<path d="M52.1107 19.6178V25.2178C52.1107 25.7717 51.7168 26.4363 51.2491 26.7193L44.3445 30.6455L42.6706 34.6209L41.4891 33.9563L41.5753 32.2332L41.403 32.3316C41.1691 32.4671 40.9599 32.4793 40.7999 32.3932L39.606 31.7162C39.4583 31.6302 39.3599 31.4332 39.3599 31.1625V25.5624C39.3599 24.9963 39.7414 24.3316 40.2214 24.0732L50.0553 18.4609C50.3014 18.3255 50.5229 18.3132 50.683 18.3994L51.803 19.0517C51.9876 19.1255 52.0984 19.3225 52.1107 19.6178Z" fill="#497BFE"/>
<path d="M52.1107 19.6178V25.2178C52.1107 25.7717 51.7168 26.4363 51.2491 26.7193L44.3445 30.6455L42.6706 34.6209L41.4891 33.9563L41.5753 32.2332L41.403 32.3316C41.1691 32.4671 40.9599 32.4793 40.7999 32.3932L39.606 31.7162C39.4583 31.6302 39.3599 31.4332 39.3599 31.1625V25.5624C39.3599 24.9963 39.7414 24.3316 40.2214 24.0732L50.0553 18.4609C50.3014 18.3255 50.5229 18.3132 50.683 18.3994L51.803 19.0517C51.9876 19.1255 52.0984 19.3225 52.1107 19.6178Z" fill="#57B3FE"/>
<path d="M42.6687 34.6187L41.4897 33.9549L41.6526 30.8486L42.8315 31.5124L42.6687 34.6187Z" fill="#497BFE"/>
<path d="M51.8476 19.072C51.6889 18.9744 51.4816 18.9866 51.2376 19.1207L41.4035 24.7266C40.9277 25.0072 40.5373 25.666 40.5373 26.215V31.8268C40.5373 32.1075 40.635 32.2904 40.7936 32.3881L39.6112 31.7174C39.4526 31.632 39.355 31.4368 39.355 31.1684V25.5565C39.355 24.9953 39.7454 24.3365 40.2212 24.0681L50.0552 18.4623C50.2992 18.3281 50.5188 18.3159 50.6774 18.4013L51.8476 19.072Z" fill="#5094FF"/>
<path d="M41.4004 24.7275L51.2378 19.1263C51.7129 18.852 52.1037 19.0746 52.1052 19.6206L52.1055 25.2236C52.107 25.7695 51.7189 26.4419 51.2437 26.7162L44.3428 30.6399L42.6689 34.6186L42.8317 31.5124L41.4063 32.3264C40.9312 32.6007 40.5404 32.378 40.5389 31.8321L40.5386 26.2202C40.537 25.6653 40.9252 25.0018 41.4004 24.7275Z" fill="#57B3FE"/>
<path d="M42.8136 25.8867L43.1742 26.9452L44.3336 26.2758L43.3949 27.601L43.7597 28.6618L42.8207 28.4159L41.8863 29.7435L42.2397 28.2679L41.3008 28.0268L42.4601 27.3575L42.8136 25.8867Z" fill="white"/>
<path d="M46.3185 23.894L46.6791 24.9525L47.8384 24.2832L46.8997 25.6083L47.2646 26.6692L46.3256 26.4232L45.3912 27.7508L45.7446 26.2752L44.8057 26.0341L45.965 25.3648L46.3185 23.894Z" fill="white"/>
<path d="M49.8229 21.9014L50.1835 22.9598L51.3428 22.2905L50.4041 23.6156L50.769 24.6765L49.83 24.4306L48.8955 25.7581L49.249 24.2826L48.3101 24.0414L49.4694 23.3721L49.8229 21.9014Z" fill="white"/>
<path d="M23.8646 43.3962C23.8646 43.3839 23.8523 43.3962 23.8523 43.3962C23.84 43.3839 23.8277 43.3839 23.8154 43.3716L23.8646 43.3962Z" fill="#78E75A"/>
<path d="M24.1476 50.3251C24.1476 50.7928 23.8153 51.3713 23.4091 51.6052L22.8183 51.9375L23.1138 54.0544L21.7476 53.2544L21.2307 52.8606L13.7599 57.119C13.5015 57.2667 13.2799 57.2421 13.1445 57.0944C13.1691 57.119 13.1938 57.1437 13.2307 57.1683L12.123 56.5036C11.9876 56.4298 11.9137 56.2698 11.9014 56.0359L11.8892 49.599C11.8892 49.1313 12.2091 48.5529 12.6276 48.3191L22.2769 42.8052C22.4737 42.6821 22.6584 42.6821 22.7938 42.756L23.8153 43.3713C23.7784 43.359 23.7414 43.359 23.7045 43.359C23.7537 43.359 23.803 43.3713 23.8522 43.396C23.8522 43.396 23.8645 43.3837 23.8645 43.396C24.0245 43.4575 24.123 43.6298 24.123 43.8883L24.1476 50.3251Z" fill="#78E75A"/>
<path d="M24.1476 50.3251C24.1476 50.7928 23.8153 51.3713 23.4091 51.6052L22.8183 51.9375L23.1138 54.0544L21.7476 53.2544L21.2307 52.8606L13.7599 57.119C13.5015 57.2667 13.2799 57.2421 13.1445 57.0944C13.1691 57.119 13.1938 57.1437 13.2307 57.1683L12.123 56.5036C11.9876 56.4298 11.9137 56.2698 11.9014 56.0359L11.8892 49.599C11.8892 49.1313 12.2091 48.5529 12.6276 48.3191L22.2769 42.8052C22.4737 42.6821 22.6584 42.6821 22.7938 42.756L23.8153 43.3713L23.8645 43.396C24.0245 43.4575 24.123 43.6298 24.123 43.8883L24.1476 50.3251Z" fill="#78E75A"/>
<path d="M23.1089 54.0587L21.7453 53.2522L20.0356 51.9561L21.3992 52.7625L23.1089 54.0587Z" fill="#5EC363"/>
<path d="M23.9115 43.4176C23.7755 43.3338 23.5872 43.3443 23.3779 43.4594L13.7386 48.9746C13.3306 49.2048 12.9958 49.7906 12.9958 50.2509L13.0167 56.6951C13.0167 56.9252 13.1005 57.0926 13.2365 57.1658L12.1208 56.5083C11.9848 56.4351 11.9116 56.2677 11.9011 56.0375L11.8906 49.5933C11.8906 49.1331 12.2149 48.5472 12.6229 48.3171L22.2727 42.8019C22.4715 42.6867 22.6598 42.6763 22.7958 42.76L23.9115 43.4176Z" fill="#5EC363"/>
<path d="M23.3796 43.4626C23.7871 43.2273 24.1221 43.4183 24.1234 43.8865L24.1417 50.3257C24.143 50.7939 23.8102 51.3704 23.4027 51.6056L22.8216 51.9411L23.1086 54.0586L21.399 52.7625L13.7601 57.1171C13.3527 57.3524 13.0176 57.1614 13.0163 56.6933L12.9981 50.254C12.9967 49.7859 13.3296 49.2093 13.737 48.9741L23.3796 43.4626Z" fill="#78E75A"/>
<path d="M19.1023 46.5028C19.2399 46.4323 19.4247 46.4185 19.5719 46.7141C19.5826 46.7387 19.7851 47.2061 19.3848 48.6232C19.3695 48.6762 19.3542 48.7293 19.339 48.7868L21.1345 47.7501C21.3383 47.6325 21.508 47.7248 21.5086 47.9589C21.509 48.1003 21.4594 48.2617 21.3751 48.4033C21.2946 48.5427 21.1833 48.6645 21.0564 48.7378C21.3063 48.5935 21.5108 48.71 21.5116 48.9927C21.512 49.1429 21.4585 49.3021 21.3781 49.4459C21.2937 49.5875 21.1824 49.7138 21.0555 49.787C21.3093 49.6405 21.5137 49.757 21.5146 50.0486C21.5149 50.1811 21.4653 50.3293 21.3925 50.4598C21.3158 50.5881 21.2122 50.7011 21.0968 50.7677L20.8085 50.9342C21.0392 50.801 21.2282 50.9087 21.2289 51.1737C21.2293 51.3107 21.1797 51.4588 21.1069 51.5894C21.0302 51.7177 20.9265 51.8307 20.8112 51.8972L18.2276 53.3889C17.9623 53.5421 17.7044 53.5892 17.4924 53.5257L17.3845 53.4907L17.3755 50.3187C17.4515 50.2438 18.8962 48.8211 18.929 46.7977C18.9325 46.6877 19.0092 46.5565 19.1023 46.5028Z" fill="white"/>
<path d="M17.1825 50.2089C17.2863 50.1489 17.375 50.1995 17.3753 50.3188L17.3848 53.6543C17.3851 53.778 17.297 53.9262 17.1932 53.9862L15.8283 54.7742C15.7206 54.8363 15.6358 54.788 15.6354 54.6643L15.626 51.3288C15.6256 51.2095 15.7099 51.059 15.8176 50.9969L17.1825 50.2089ZM16.5072 53.8069C16.6725 53.7115 16.799 53.488 16.7984 53.3025C16.7979 53.1169 16.6706 53.04 16.5053 53.1354C16.3438 53.2287 16.2135 53.4543 16.214 53.6399C16.2146 53.8254 16.3457 53.9002 16.5072 53.8069Z" fill="#4C5C75"/>
<path d="M16.5051 53.1353C16.6704 53.0399 16.7977 53.1168 16.7983 53.3024C16.7988 53.4879 16.6723 53.7114 16.507 53.8069C16.3455 53.9001 16.2144 53.8253 16.2139 53.6398C16.2133 53.4543 16.3436 53.2286 16.5051 53.1353Z" fill="white"/>
</svg>
