<svg width="70" height="70" viewBox="0 0 70 70" fill="none" xmlns="http://www.w3.org/2000/svg">
<circle cx="35" cy="35" r="35" fill="#9964FE"/>
<g clip-path="url(#clip0_2539_2177)">
<path d="M20.0952 41.8671C20.3302 42.083 20.6231 42.2255 20.938 42.2772C21.2529 42.329 21.576 42.2876 21.8677 42.1583C22.1431 42.0441 22.3785 41.8509 22.5442 41.6032C22.71 41.3554 22.7987 41.0641 22.7992 40.766V39.7221C25.0933 39.8896 27.2392 40.9184 28.8064 42.6021C30.3736 44.2858 31.2462 46.4998 31.2492 48.8V52.05C31.2492 52.5672 31.4546 53.0632 31.8203 53.4289C32.186 53.7946 32.682 54 33.1992 54H35.7992C36.3163 54 36.8123 53.7946 37.178 53.4289C37.5437 53.0632 37.7492 52.5672 37.7492 52.05V48.8C37.7521 46.4998 38.6247 44.2858 40.1919 42.6021C41.7591 40.9184 43.9051 39.8896 46.1992 39.7221V40.766C46.1995 41.064 46.2881 41.3551 46.4536 41.6029C46.6191 41.8507 46.8542 42.0439 47.1293 42.1583C47.4218 42.2877 47.7457 42.3288 48.0612 42.2765C48.3767 42.2242 48.6701 42.0807 48.9051 41.8639L53.5123 37.5492C53.665 37.4097 53.787 37.24 53.8705 37.0508C53.9539 36.8616 53.997 36.6571 53.997 36.4503C53.997 36.2435 53.9539 36.039 53.8705 35.8498C53.787 35.6606 53.665 35.4909 53.5123 35.3515L48.8973 31.0323C48.6622 30.8165 48.3694 30.674 48.0545 30.6222C47.7397 30.5703 47.4166 30.6114 47.1248 30.7404C46.8505 30.8557 46.6164 31.0494 46.4517 31.2972C46.2871 31.545 46.1992 31.8358 46.1992 32.1334V33.213C43.9219 33.3089 41.6935 33.903 39.6708 34.9537C37.6482 36.0043 35.8806 37.4858 34.4927 39.2938C33.1109 37.4823 31.3465 35.9981 29.3252 34.947C27.3039 33.896 25.0756 33.3039 22.7992 33.213V32.1334C22.7987 31.8353 22.7102 31.5441 22.5447 31.2962C22.3792 31.0484 22.1441 30.855 21.869 30.7404C21.5765 30.6113 21.2526 30.5704 20.9372 30.6227C20.6217 30.675 20.3284 30.8183 20.0932 31.0349L15.4847 35.3496C15.332 35.489 15.21 35.6587 15.1266 35.8479C15.0431 36.0371 15 36.2416 15 36.4484C15 36.6552 15.0431 36.8597 15.1266 37.0489C15.21 37.2381 15.332 37.4078 15.4847 37.5472L20.0952 41.8671ZM46.8492 34.5C47.0216 34.5 47.1869 34.4315 47.3088 34.3096C47.4307 34.1877 47.4992 34.0224 47.4992 33.85V32.134C47.501 32.0891 47.5164 32.0457 47.5433 32.0096C47.5703 31.9736 47.6074 31.9465 47.65 31.9319C47.6973 31.9117 47.7481 31.9011 47.7995 31.9007C47.8799 31.8999 47.9575 31.9299 48.0166 31.9845L52.6277 36.3018C52.6499 36.3197 52.6679 36.3424 52.6802 36.3681C52.6925 36.3939 52.6989 36.4221 52.6989 36.4507C52.6989 36.4792 52.6925 36.5074 52.6802 36.5332C52.6679 36.5589 52.6499 36.5816 52.6277 36.5995L48.0192 40.9123C47.9697 40.9566 47.9083 40.9855 47.8425 40.9953C47.7768 41.0051 47.7096 40.9955 47.6493 40.9675C47.6068 40.9531 47.5697 40.9261 47.5429 40.8901C47.5161 40.8541 47.5009 40.8108 47.4992 40.766V39.05C47.4992 38.8776 47.4307 38.7123 47.3088 38.5904C47.1869 38.4685 47.0216 38.4 46.8492 38.4C44.092 38.4034 41.4487 39.5003 39.4991 41.4499C37.5494 43.3995 36.4526 46.0428 36.4492 48.8V52.05C36.4492 52.2224 36.3807 52.3877 36.2588 52.5096C36.1369 52.6315 35.9716 52.7 35.7992 52.7H33.1992C33.0268 52.7 32.8614 52.6315 32.7395 52.5096C32.6176 52.3877 32.5492 52.2224 32.5492 52.05V48.8C32.5536 45.0088 34.0617 41.3741 36.7425 38.6933C39.4233 36.0125 43.0579 34.5045 46.8492 34.5ZM16.3713 36.2999L20.9792 31.9865C21.0288 31.9423 21.0902 31.9136 21.1559 31.9038C21.2215 31.894 21.2887 31.9035 21.349 31.9312C21.3916 31.9458 21.4287 31.9729 21.4556 32.009C21.4825 32.0451 21.4979 32.0884 21.4998 32.1334V33.85C21.4998 34.0224 21.5683 34.1877 21.6902 34.3096C21.8121 34.4315 21.9774 34.5 22.1498 34.5C24.4071 34.4976 26.6325 35.0319 28.6425 36.059C30.6526 37.0862 32.3895 38.5765 33.7101 40.4072C32.8321 41.774 32.1741 43.2701 31.7601 44.8409C30.9744 42.9373 29.642 41.3095 27.9313 40.163C26.2206 39.0166 24.2085 38.4031 22.1492 38.4C21.9768 38.4 21.8114 38.4685 21.6895 38.5904C21.5676 38.7123 21.4992 38.8776 21.4992 39.05V40.766C21.4974 40.8109 21.4821 40.8542 21.4551 40.8902C21.4282 40.9262 21.391 40.9532 21.3484 40.9675C21.2888 40.9952 21.2224 41.005 21.1574 40.9958C21.0923 40.9866 21.0313 40.9587 20.9818 40.9155L16.3694 36.5976C16.3471 36.5796 16.3292 36.557 16.3168 36.5312C16.3045 36.5055 16.2981 36.4773 16.2981 36.4487C16.2981 36.4201 16.3045 36.392 16.3168 36.3662C16.3292 36.3404 16.3471 36.3178 16.3694 36.2999H16.3713Z" fill="white"/>
<path d="M34.4992 34.5C36.4275 34.5 38.3126 33.9282 39.916 32.8568C41.5194 31.7855 42.769 30.2627 43.507 28.4812C44.2449 26.6996 44.438 24.7392 44.0618 22.8479C43.6856 20.9566 42.757 19.2193 41.3935 17.8557C40.0299 16.4922 38.2926 15.5636 36.4013 15.1873C34.51 14.8111 32.5496 15.0042 30.768 15.7422C28.9864 16.4801 27.4637 17.7298 26.3923 19.3332C25.321 20.9366 24.7492 22.8216 24.7492 24.75C24.7521 27.335 25.7803 29.8132 27.6081 31.6411C29.436 33.4689 31.9142 34.4971 34.4992 34.5ZM34.4992 16.3C36.1704 16.3 37.8041 16.7956 39.1937 17.7241C40.5833 18.6526 41.6664 19.9723 42.3059 21.5163C42.9455 23.0604 43.1128 24.7594 42.7868 26.3985C42.4608 28.0377 41.656 29.5433 40.4742 30.7251C39.2925 31.9068 37.7868 32.7116 36.1477 33.0376C34.5085 33.3637 32.8095 33.1963 31.2655 32.5568C29.7215 31.9172 28.4017 30.8342 27.4732 29.4446C26.5447 28.055 26.0492 26.4213 26.0492 24.75C26.0517 22.5097 26.9428 20.3619 28.527 18.7778C30.1111 17.1937 32.2589 16.3026 34.4992 16.3Z" fill="white"/>
<path d="M30.5992 23.45C30.7716 23.45 30.9369 23.3815 31.0588 23.2596C31.1807 23.1377 31.2492 22.9724 31.2492 22.8C31.2492 22.1572 31.4398 21.5289 31.7969 20.9944C32.154 20.4599 32.6616 20.0434 33.2554 19.7974C33.8493 19.5514 34.5028 19.4871 35.1332 19.6125C35.7636 19.7379 36.3427 20.0474 36.7973 20.5019C37.2518 20.9564 37.5613 21.5355 37.6867 22.166C37.8121 22.7964 37.7478 23.4499 37.5018 24.0437C37.2558 24.6376 36.8392 25.1452 36.3048 25.5023C35.7703 25.8594 35.142 26.05 34.4992 26.05C34.3268 26.05 34.1614 26.1185 34.0395 26.2404C33.9176 26.3623 33.8492 26.5276 33.8492 26.7V27.35C33.8492 27.5224 33.9176 27.6877 34.0395 27.8096C34.1614 27.9315 34.3268 28 34.4992 28C34.6716 28 34.8369 27.9315 34.9588 27.8096C35.0807 27.6877 35.1492 27.5224 35.1492 27.35V27.3039C36.0123 27.1793 36.8215 26.8092 37.4804 26.2378C38.1392 25.6664 38.62 24.9176 38.8653 24.0807C39.1107 23.2438 39.1104 22.3541 38.8645 21.5173C38.6185 20.6806 38.1373 19.9322 37.478 19.3612C36.8188 18.7902 36.0094 18.4207 35.1461 18.2967C34.2828 18.1727 33.4021 18.2995 32.6088 18.6618C31.8155 19.0241 31.1431 19.6068 30.6715 20.3405C30.2 21.0742 29.9493 21.9279 29.9492 22.8C29.9492 22.9724 30.0176 23.1377 30.1395 23.2596C30.2614 23.3815 30.4268 23.45 30.5992 23.45Z" fill="white"/>
<path d="M34.4992 29.3C34.3268 29.3 34.1614 29.3685 34.0395 29.4904C33.9176 29.6123 33.8492 29.7776 33.8492 29.95V30.6C33.8492 30.7724 33.9176 30.9377 34.0395 31.0596C34.1614 31.1815 34.3268 31.25 34.4992 31.25C34.6716 31.25 34.8369 31.1815 34.9588 31.0596C35.0807 30.9377 35.1492 30.7724 35.1492 30.6V29.95C35.1492 29.7776 35.0807 29.6123 34.9588 29.4904C34.8369 29.3685 34.6716 29.3 34.4992 29.3Z" fill="white"/>
</g>
<defs>
<clipPath id="clip0_2539_2177">
<rect width="39" height="39" fill="white" transform="translate(15 15)"/>
</clipPath>
</defs>
</svg>
