<svg width="68" height="68" viewBox="0 0 68 68" fill="none" xmlns="http://www.w3.org/2000/svg">
<circle cx="34" cy="34" r="34" fill="#E3E3E3" fill-opacity="0.43"/>
<g clip-path="url(#clip0_2539_2410)">
<path d="M36.5503 38.9446C36.6059 38.7645 36.745 38.6227 36.9286 38.5734C37.0476 38.5414 37.1658 38.5074 37.2831 38.4717C40.6904 36.1103 42.9224 32.1727 42.9224 27.7131C42.9224 23.2534 40.6904 19.3159 37.283 16.9545C37.1657 16.9187 37.0475 16.8848 36.9286 16.8528C36.7449 16.8034 36.6058 16.6616 36.5502 16.4815C35.5854 15.904 34.5399 15.4473 33.4347 15.1322C33.2979 15.0931 32.498 15.159 32.2771 15.3012C31.8743 15.5601 31.5764 15.9675 31.4611 16.4467C31.4137 16.6434 31.2673 16.8002 31.0719 16.8528C30.1234 17.108 29.2247 17.484 28.393 17.9635C28.2174 18.0647 28.0027 18.0574 27.8299 17.9515C27.1017 17.5054 26.1371 17.5972 25.5066 18.2276L24.5147 19.2195C23.8843 19.8499 23.7925 20.8146 24.2386 21.5427C24.3446 21.7156 24.3518 21.9302 24.2506 22.1058C23.7711 22.9376 23.395 23.8363 23.1399 24.7848C23.0874 24.9803 22.9305 25.1266 22.7338 25.174C21.9039 25.3737 21.2871 26.1206 21.2871 27.0118V28.4144C21.2871 29.3057 21.9039 30.0525 22.7338 30.2522C22.9306 30.2996 23.0874 30.446 23.1399 30.6414C23.3951 31.5899 23.7711 32.4886 24.2506 33.3204C24.3518 33.496 24.3446 33.7106 24.2386 33.8835C23.7925 34.6116 23.8843 35.5763 24.5147 36.2067L25.5066 37.1986C26.137 37.829 27.1017 37.9208 27.8299 37.4747C28.0027 37.3688 28.2174 37.3615 28.393 37.4627C29.2247 37.9422 30.1234 38.3183 31.0719 38.5734C31.2674 38.626 31.4137 38.7828 31.4611 38.9796C31.5764 39.4587 31.8743 39.8662 32.2771 40.125C32.498 40.2671 33.5667 40.2588 33.8337 40.1733C34.7921 39.8665 35.7023 39.4523 36.5503 38.9446Z" fill="#7AABDC"/>
<path d="M45.2663 25.1716C45.0704 25.1267 44.9138 24.9818 44.8616 24.7876C44.6064 23.8381 44.2301 22.9384 43.7502 22.1059C43.6489 21.9303 43.6562 21.7157 43.7621 21.5428C44.2082 20.8147 44.1164 19.85 43.486 19.2196L42.4941 18.2278C41.8637 17.5974 40.899 17.5056 40.1709 17.9517C39.998 18.0576 39.7834 18.0649 39.6078 17.9636C38.776 17.4842 37.8773 17.108 36.9289 16.8529C36.7334 16.8004 36.587 16.6436 36.5397 16.4468C36.3399 15.6168 35.5931 15 34.7018 15H33.2992C32.9224 15 32.5721 15.1112 32.2773 15.3012C37.9719 16.5614 42.2315 21.6395 42.2315 27.7132C42.2315 33.7868 37.9719 38.8649 32.2773 40.1251C32.5721 40.3151 32.9224 40.4263 33.2992 40.4263H34.7018C35.5931 40.4263 36.3399 39.8095 36.5397 38.9796C36.587 38.7828 36.7334 38.6261 36.9289 38.5735C37.8773 38.3183 38.776 37.9423 39.6078 37.4628C39.7834 37.3616 39.998 37.3689 40.1709 37.4748C40.899 37.9209 41.8637 37.8291 42.4941 37.1987L43.486 36.2068C44.1164 35.5764 44.2083 34.6118 43.7621 33.8836C43.6562 33.7107 43.6489 33.4961 43.7502 33.3205C44.2301 32.4879 44.6065 31.5882 44.8616 30.6388C44.9138 30.4446 45.0704 30.2997 45.2663 30.2548C46.0944 30.0648 46.7136 29.3546 46.7136 28.4667V26.9598C46.7136 26.0718 46.0944 25.3615 45.2663 25.1716Z" fill="#5F98D5"/>
<path d="M33.9999 19.333C29.3719 19.333 25.6201 23.0848 25.6201 27.7127C25.6201 29.2973 26.0599 30.7792 26.8242 32.0429C26.8242 32.043 26.8242 32.043 26.8243 32.0431V32.0427L28.7306 31.6345H39.1212L41.1754 32.0427V32.0431C41.1755 32.043 41.1755 32.043 41.1756 32.0429C41.9398 30.7792 42.3796 29.2973 42.3796 27.7128C42.3796 23.0848 38.6279 19.333 33.9999 19.333Z" fill="#F0F0F3"/>
<path d="M15.2002 43.505C15.2233 44.4116 15.537 44.6075 15.8045 44.8051L21.5351 49.0385C23.6165 50.5761 26.109 51.458 28.6942 51.5716L33.6089 51.8187C34.1191 51.8449 34.6307 51.8527 35.1416 51.8418C38.5825 51.7681 39.5458 51.6663 42.2118 50.9246L43.4537 50.6096C45.1786 50.1721 46.3865 48.6196 46.3865 46.84V39.6689C44.1848 39.7053 42.0282 40.3065 40.1254 41.4195C38.6872 42.261 37.0986 42.8138 35.4487 43.0472L30.5664 43.8707C29.2968 44.0503 28.2618 44.919 27.839 46.082L28.0003 46.2267C27.9441 46.4055 27.792 47.1198 27.792 47.1198L27.5459 47.2294H25.5183C24.9211 47.2294 24.338 47.0476 23.8466 46.7081L18.1034 42.7412C17.2869 42.1772 16.1788 42.3056 15.513 43.0416C15.3837 43.1846 15.28 43.3408 15.2002 43.505Z" fill="#FFEAE1"/>
<path d="M45.6124 39.7044V46.0004C45.6124 47.9582 44.339 49.6883 42.4698 50.2703L42.2115 50.3508C39.5454 51.0924 38.5821 51.1943 35.1413 51.268C34.6304 51.2789 34.1188 51.2711 33.6086 51.2449L28.6939 50.9978C26.1087 50.8842 23.6161 50.0022 21.5348 48.4646L15.8042 44.2313C15.5367 44.0336 15.3345 43.7825 15.1999 43.5046C14.795 44.3373 15.0184 45.3782 15.8042 45.9586L21.5348 50.192C23.6161 51.7296 26.1087 52.6115 28.6939 52.7252L33.6086 52.9722C34.1188 52.9984 34.6304 53.0062 35.1413 52.9953C38.5822 52.9216 39.5455 52.8198 42.2115 52.0781L51.7546 49.2109V39.665H46.5978C46.2682 39.665 45.9396 39.6792 45.6124 39.7044Z" fill="#FFDBCC"/>
<path d="M49.5736 52.1521H51.7125C52.4224 52.1521 52.9979 51.5765 52.9979 50.8666V38.3411C52.9979 37.6312 52.4224 37.0557 51.7125 37.0557H49.5736C48.8636 37.0557 48.2881 37.6312 48.2881 38.3411V50.8666C48.2881 51.5765 48.8637 52.1521 49.5736 52.1521Z" fill="#FB636F"/>
<path d="M40.4951 44.397C40.1797 44.4255 39.9472 44.7044 39.9757 45.0198C39.9989 45.2761 39.921 45.526 39.7561 45.7236C39.5922 45.9201 39.3619 46.0415 39.1023 46.066L27.8382 46.0818C27.7571 46.3047 27.6983 46.5385 27.6649 46.7803C27.653 46.8663 27.6359 46.9514 27.6089 47.0339L27.545 47.2291H27.5458L39.1209 47.2128C39.128 47.2128 39.1351 47.2127 39.1423 47.2124C39.1632 47.2115 39.1839 47.2102 39.2064 47.2082C39.7678 47.1574 40.2758 46.8909 40.6367 46.4581C40.9979 46.0252 41.1687 45.4776 41.1179 44.9162C41.0894 44.6008 40.8095 44.3681 40.4951 44.397Z" fill="#FFDBCC"/>
<path d="M33.9991 25.6389C35.1631 25.6389 36.1066 24.6953 36.1066 23.5313C36.1066 22.3674 35.1631 21.4238 33.9991 21.4238C32.8352 21.4238 31.8916 22.3674 31.8916 23.5313C31.8916 24.6953 32.8352 25.6389 33.9991 25.6389Z" fill="#FFCBBE"/>
<path d="M35.6069 28.2752C35.6069 27.0709 34.8757 26.0383 33.8334 25.5947H33.0195C31.4107 25.5947 30.1064 26.899 30.1064 28.5078V34.1792H35.6069V28.2752Z" fill="#FBD307"/>
<path d="M37.8922 28.5078C37.8922 26.899 36.5879 25.5947 34.9791 25.5947H33.2705C34.4029 25.9941 35.2148 27.073 35.2148 28.3422V34.1792H37.8923V28.5078H37.8922Z" fill="#F9C301"/>
<path d="M37.8927 30.9562C39.0566 30.9562 40.0002 30.0127 40.0002 28.8487C40.0002 27.6848 39.0566 26.7412 37.8927 26.7412C36.7287 26.7412 35.7852 27.6848 35.7852 28.8487C35.7852 30.0127 36.7287 30.9562 37.8927 30.9562Z" fill="#EFADA0"/>
<path d="M30.1065 30.9562C31.2705 30.9562 32.2141 30.0127 32.2141 28.8487C32.2141 27.6848 31.2705 26.7412 30.1065 26.7412C28.9426 26.7412 27.999 27.6848 27.999 28.8487C27.999 30.0127 28.9426 30.9562 30.1065 30.9562Z" fill="#EFADA0"/>
<path d="M39.5032 33.6563C39.5032 32.3897 38.6944 31.3131 37.5654 30.9121H36.9131C35.3042 30.9121 34 32.2164 34 33.8252V36.0932C35.9113 36.0932 37.6729 35.453 39.0826 34.3757L39.5032 33.6563Z" fill="#D5B0EC"/>
<path d="M38.8724 30.9121H36.9125C36.8241 30.9121 36.7368 30.9167 36.6504 30.9244C38.03 31.154 39.082 32.3518 39.082 33.7965V34.3757C39.9171 33.7376 40.629 32.9464 41.175 32.0435C40.6422 31.3558 39.8097 30.9121 38.8724 30.9121Z" fill="#C995E4"/>
<path d="M31.7251 33.5576C31.7251 32.3842 31.031 31.3736 30.0314 30.9121H29.1268C28.1895 30.9121 27.357 31.3558 26.8242 32.0434C27.8372 33.7185 29.4205 35.0097 31.3048 35.6493L31.7252 35.5279V33.5576H31.7251Z" fill="#FC8086"/>
<path d="M31.0865 30.9121H29.2451C30.4373 31.277 31.3044 32.386 31.3044 33.6978V35.6499C32.1503 35.9371 33.0566 36.0932 33.9996 36.0932V33.8252C33.9996 32.2164 32.6954 30.9121 31.0865 30.9121Z" fill="#FB636F"/>
</g>
<defs>
<clipPath id="clip0_2539_2410">
<rect width="38" height="38" fill="white" transform="translate(15 15)"/>
</clipPath>
</defs>
</svg>
