<svg width="33" height="33" viewBox="0 0 33 33" fill="none" xmlns="http://www.w3.org/2000/svg">
<g opacity="0.68">
<circle cx="16.5" cy="16.5" r="16" stroke="#01142B"/>
<g clip-path="url(#clip0_2564_4973)">
<path d="M27.3943 16.2474L24.1397 12.9928C23.7548 12.6078 23.2218 12.3871 22.6774 12.3871C22.133 12.3871 21.6001 12.6078 21.2151 12.9928L20.0967 14.1112L19.6687 11.4007C19.5317 10.533 18.7952 9.90323 17.9162 9.90323H16.6452V7.77419C16.6452 6.79596 15.8492 6 14.871 6H12.7419C11.7637 6 10.9677 6.79596 10.9677 7.77419V9.90323H9.6967C8.81775 9.90323 8.08121 10.533 7.94451 11.4007L6.0369 23.4826C6.01247 23.6359 6 23.7927 6 23.9485C6 25.5957 7.33983 26.9355 8.98702 26.9355H15.7886L16.2474 27.3943C16.6323 27.7793 17.1653 28 17.7097 28C18.2541 28 18.787 27.7793 19.172 27.3943L27.3943 19.172C27.7793 18.787 28 18.2541 28 17.7097C28 17.1571 27.785 16.6377 27.3943 16.2474ZM12.5167 23.3871H9.90323C9.70744 23.3871 9.54839 23.228 9.54839 23.0323V16.6452C9.54839 16.4497 9.70744 16.2903 9.90323 16.2903H17.7097C17.7686 16.2903 17.8235 16.3076 17.8739 16.334L12.9928 21.2151C12.6078 21.6001 12.3871 22.133 12.3871 22.6774C12.3871 22.9205 12.4332 23.1606 12.5167 23.3871ZM21.2581 13.9534L26.4337 19.129L19.8387 25.724L14.6631 20.5484L21.2581 13.9534ZM11.6774 7.77419C11.6774 7.18736 12.1551 6.70968 12.7419 6.70968H14.871C15.4578 6.70968 15.9355 7.18736 15.9355 7.77419V9.90323H11.6774V7.77419ZM8.98702 26.2258C7.73122 26.2258 6.70968 25.2043 6.70968 23.9485C6.70968 23.8296 6.71886 23.7101 6.7374 23.5933L8.645 11.5114C8.7273 10.9908 9.16981 10.6129 9.6967 10.6129H10.9677V11.3879C10.5557 11.5348 10.2581 11.9252 10.2581 12.3871C10.2581 12.9739 10.7357 13.4516 11.3226 13.4516C11.9094 13.4516 12.3871 12.9739 12.3871 12.3871C12.3871 11.9252 12.0894 11.5348 11.6774 11.3879V10.6129H15.9355V11.3879C15.5235 11.5348 15.2258 11.9252 15.2258 12.3871C15.2258 12.9739 15.7035 13.4516 16.2903 13.4516C16.8772 13.4516 17.3548 12.9739 17.3548 12.3871C17.3548 11.9252 17.0572 11.5348 16.6452 11.3879V10.6129H17.9162C18.4431 10.6129 18.8856 10.9908 18.9679 11.5114L19.4764 14.7315L18.3838 15.8241C18.1969 15.6707 17.9606 15.5806 17.7097 15.5806H9.90323C9.31639 15.5806 8.83871 16.0583 8.83871 16.6452V23.0323C8.83871 23.6191 9.31639 24.0968 9.90323 24.0968H12.9542C12.9672 24.111 12.9793 24.1262 12.9928 24.1397L15.0789 26.2258H8.98702ZM11.6774 12.3871C11.6774 12.5825 11.5184 12.7419 11.3226 12.7419C11.1268 12.7419 10.9677 12.5825 10.9677 12.3871C10.9677 12.1917 11.1268 12.0323 11.3226 12.0323C11.5184 12.0323 11.6774 12.1917 11.6774 12.3871ZM16.6452 12.3871C16.6452 12.5825 16.4861 12.7419 16.2903 12.7419C16.0945 12.7419 15.9355 12.5825 15.9355 12.3871C15.9355 12.1917 16.0945 12.0323 16.2903 12.0323C16.4861 12.0323 16.6452 12.1917 16.6452 12.3871ZM18.6702 26.8925C18.4173 27.1455 18.0673 27.2903 17.7097 27.2903C17.3521 27.2903 17.0021 27.1455 16.7491 26.8925L13.4946 23.638C13.2416 23.385 13.0968 23.035 13.0968 22.6774C13.0968 22.3198 13.2416 21.9698 13.4946 21.7169L14.1613 21.0502L19.3369 26.2258L18.6702 26.8925ZM26.9312 18.6231L21.764 13.4559C22.0128 13.2295 22.3403 13.0968 22.6774 13.0968C23.035 13.0968 23.385 13.242 23.638 13.4946L26.8925 16.7491C27.1491 17.0057 27.2903 17.347 27.2903 17.7097C27.2903 18.0468 27.158 18.3743 26.9312 18.6231Z" fill="#01142B"/>
<path d="M14.9746 23.993L15.4765 23.4912L16.8959 24.9106L16.394 25.4125L14.9746 23.993Z" fill="#01142B"/>
<path d="M25.3077 19.1293L21.2576 15.0791L15.7881 20.5486L19.8382 24.5988L25.3077 19.1293ZM21.2576 16.0826L24.3042 19.1293L19.8382 23.5952L16.7916 20.5486L21.2576 16.0826Z" fill="#01142B"/>
<path d="M20.1937 22.1144L20.903 21.4051C21.1322 21.1766 21.2582 20.8721 21.2582 20.5481C21.2582 20.2245 21.1322 19.9201 20.9034 19.6915L20.6951 19.4833C20.6003 19.3888 20.5485 19.2629 20.5485 19.1288C20.5485 18.9947 20.6007 18.8691 20.6954 18.7739L20.9034 18.566L21.4661 19.1288C21.5595 19.2225 21.613 19.3516 21.613 19.4836C21.613 19.6156 21.5595 19.7447 21.4661 19.8385L21.3621 19.9424L21.8639 20.4442L21.9679 20.3402C22.1936 20.1145 22.3227 19.8022 22.3227 19.4836C22.3227 19.2348 22.2418 18.9914 22.1002 18.7888L22.5736 18.3155L22.0718 17.8137L21.613 18.2722L20.9034 17.5625L20.1937 18.2722C19.9648 18.5011 19.8388 18.8051 19.8388 19.1288C19.8388 19.4528 19.9648 19.7572 20.1937 19.9854L20.4016 20.1933C20.4964 20.2884 20.5485 20.414 20.5485 20.5481C20.5485 20.6822 20.4967 20.8082 20.4016 20.903L20.1937 21.1109L19.6306 20.5478C19.5358 20.4534 19.484 20.3274 19.484 20.1933C19.484 20.0592 19.5361 19.9336 19.6309 19.8385L19.7349 19.7345L19.2331 19.2327L19.1292 19.3367C18.9003 19.5656 18.7743 19.8696 18.7743 20.1933C18.7743 20.4466 18.8535 20.6866 18.9964 20.8888L18.5234 21.3618L19.0252 21.8635L19.484 21.4047L20.1937 22.1144Z" fill="#01142B"/>
<path d="M11.6777 24.8066H12.3874V25.5163H11.6777V24.8066Z" fill="#01142B"/>
<path d="M8.12862 23.9487C8.12862 23.9044 8.13209 23.86 8.13885 23.8153L8.36599 22.3781L7.66515 22.2676L7.43818 23.7032C7.42536 23.7838 7.41895 23.8664 7.41895 23.9487C7.41895 24.8135 8.12187 25.5164 8.98661 25.5164H10.9673V24.8067H8.98661C8.51361 24.8067 8.12862 24.4217 8.12862 23.9487Z" fill="#01142B"/>
</g>
</g>
<defs>
<clipPath id="clip0_2564_4973">
<rect width="22" height="22" fill="white" transform="translate(6 6)"/>
</clipPath>
</defs>
</svg>
