<svg width="70" height="71" viewBox="0 0 70 71" fill="none" xmlns="http://www.w3.org/2000/svg">
<circle cx="35" cy="35.1943" r="35" fill="#48CFC8"/>
<mask id="mask0_2539_2278" style="mask-type:luminance" maskUnits="userSpaceOnUse" x="16" y="16" width="39" height="39">
<path d="M16 16H55V55H16V16Z" fill="white"/>
</mask>
<g mask="url(#mask0_2539_2278)">
<path d="M43.0716 37.7798C43.9637 37.3447 44.748 36.7226 45.3718 35.9632C46.242 36.5807 47.3028 36.9473 48.4512 36.9473C51.3959 36.9473 53.7832 34.56 53.7832 31.6152M53.7832 31.6152C53.7832 28.8738 51.7135 26.6181 49.0519 26.3192C49.1567 25.8157 49.2129 25.2944 49.2129 24.7598C49.2129 20.5529 45.8026 17.1426 41.5957 17.1426C38.2381 17.1426 35.3937 19.3179 34.3799 22.3339C33.1304 21.0158 31.3677 20.1895 29.4082 20.1895M53.7832 31.6152C53.7832 28.6704 51.396 26.2832 48.4512 26.2832C47.4461 26.2832 46.5059 26.5613 45.7035 27.0448M29.4082 20.1895C25.879 20.1895 22.9753 22.8571 22.5971 26.2855C22.5821 26.2853 22.5677 26.2832 22.5527 26.2832C19.608 26.2832 17.2207 28.6704 17.2207 31.6152C17.2207 34.56 19.608 36.9473 22.5527 36.9473C23.7011 36.9473 24.7619 36.5807 25.6321 35.9632C26.2559 36.7226 27.0402 37.3446 27.9323 37.7798M29.4082 20.1895C25.6219 20.1895 22.5528 23.2587 22.5528 27.0449C22.5528 28.1395 22.8092 29.1741 23.2654 30.092M29.4082 20.1895C31.785 20.1895 33.8793 21.399 35.1091 23.2362M35.502 44.5645C39.7089 44.5645 43.1191 41.1542 43.1191 36.9473C43.1191 32.7404 39.7089 29.3301 35.502 29.3301C31.2951 29.3301 27.8848 32.7404 27.8848 36.9473C27.8848 41.1542 31.2951 44.5645 35.502 44.5645ZM35.502 44.5645L35.502 49.2871M45.4043 49.2871C44.1423 49.2871 43.1191 50.3103 43.1191 51.5723C43.1191 52.8343 44.1423 53.8574 45.4043 53.8574C46.6663 53.8574 47.6895 52.8343 47.6895 51.5723C47.6895 50.3103 46.6663 49.2871 45.4043 49.2871ZM45.4043 49.2871V45.3262L41.5957 41.5176M25.5996 49.2871C26.8616 49.2871 27.8848 50.3103 27.8848 51.5723C27.8848 52.8343 26.8616 53.8574 25.5996 53.8574C24.3376 53.8574 23.3145 52.8343 23.3145 51.5723C23.3145 50.3103 24.3376 49.2871 25.5996 49.2871ZM25.5996 49.2871V45.3262L29.4082 41.5176M35.502 49.2871C34.2399 49.2871 33.2168 50.3103 33.2168 51.5723C33.2168 52.8343 34.2399 53.8574 35.502 53.8574C36.764 53.8574 37.7871 52.8343 37.7871 51.5723C37.7871 50.3103 36.764 49.2871 35.502 49.2871ZM38.5488 36.9473C38.5488 38.6301 37.1847 39.9942 35.502 39.9942C33.8192 39.9942 32.4551 38.6301 32.4551 36.9473C32.4551 35.2645 33.8192 33.9004 35.502 33.9004C37.1847 33.9004 38.5488 35.2645 38.5488 36.9473Z" stroke="white" stroke-width="0.971227" stroke-miterlimit="10" stroke-linecap="round" stroke-linejoin="round"/>
</g>
</svg>
