<svg width="12" height="545" viewBox="0 0 12 545" fill="none" xmlns="http://www.w3.org/2000/svg">
<path d="M0.666667 6C0.666667 8.94552 3.05448 11.3333 6 11.3333C8.94552 11.3333 11.3333 8.94552 11.3333 6C11.3333 3.05448 8.94552 0.666666 6 0.666667C3.05448 0.666667 0.666666 3.05448 0.666667 6ZM0.66669 539C0.66669 541.946 3.0545 544.333 6.00002 544.333C8.94554 544.333 11.3334 541.946 11.3334 539C11.3334 536.055 8.94554 533.667 6.00002 533.667C3.0545 533.667 0.66669 536.055 0.66669 539ZM6 6L5 6L5.00002 539L6.00002 539L7.00002 539L7 6L6 6Z" fill="#DADADA"/>
</svg>
