<svg width="20" height="20" viewBox="0 0 20 20" fill="none" xmlns="http://www.w3.org/2000/svg">
<g clip-path="url(#clip0_5_4534)">
<path d="M14.6502 4.96094C14.436 4.96094 14.2617 5.13522 14.2617 5.34938C14.2617 5.56353 14.436 5.73781 14.6502 5.73781C14.8643 5.73781 15.0386 5.56356 15.0386 5.34938C15.0386 5.13519 14.8643 4.96094 14.6502 4.96094Z" fill="white"/>
<path d="M10.0003 6.55664C8.10145 6.55664 6.55664 8.10145 6.55664 10.0003C6.55664 11.8991 8.10145 13.4439 10.0003 13.4439C11.8991 13.4439 13.4439 11.8991 13.4439 10.0003C13.4439 8.10148 11.8991 6.55664 10.0003 6.55664Z" fill="white"/>
<path d="M13.6138 2H6.38616C3.96762 2 2 3.96763 2 6.38619V13.6138C2 16.0324 3.96762 18 6.38616 18H13.6138C16.0324 18 18 16.0324 18 13.6138V6.38619C18 3.96763 16.0324 2 13.6138 2ZM10 14.3885C7.58016 14.3885 5.61153 12.4198 5.61153 10C5.61153 7.58016 7.58019 5.61156 10 5.61156C12.4198 5.61156 14.3885 7.58019 14.3885 10C14.3885 12.4198 12.4198 14.3885 10 14.3885ZM14.651 6.68237C13.9158 6.68237 13.3177 6.08425 13.3177 5.34906C13.3177 4.61387 13.9158 4.01572 14.651 4.01572C15.3862 4.01572 15.9843 4.61384 15.9843 5.34903C15.9843 6.08422 15.3862 6.68237 14.651 6.68237Z" fill="white"/>
</g>
<defs>
<clipPath id="clip0_5_4534">
<rect width="16" height="16" fill="white" transform="translate(2 2)"/>
</clipPath>
</defs>
</svg>
