<svg width="36" height="36" viewBox="0 0 36 36" fill="none" xmlns="http://www.w3.org/2000/svg">
<circle cx="18" cy="18" r="18" fill="#1589FF"/>
<path d="M12.3338 14.1796C13.3408 14.1796 14.1572 13.3633 14.1572 12.3563C14.1572 11.3493 13.3408 10.533 12.3338 10.533C11.3268 10.533 10.5105 11.3493 10.5105 12.3563C10.5105 13.3633 11.3268 14.1796 12.3338 14.1796Z" fill="white"/>
<path d="M15.8776 15.5593V25.6752H19.0184V20.6727C19.0184 19.3527 19.2668 18.0743 20.9034 18.0743C22.5176 18.0743 22.5376 19.5835 22.5376 20.756V25.676H25.6801V20.1285C25.6801 17.4035 25.0934 15.3093 21.9084 15.3093C20.3793 15.3093 19.3543 16.1485 18.9351 16.9427H18.8926V15.5593H15.8776ZM10.7593 15.5593H13.9051V25.6752H10.7593V15.5593Z" fill="white"/>
</svg>
