<svg width="21" height="21" viewBox="0 0 21 21" fill="none" xmlns="http://www.w3.org/2000/svg">
<path d="M4.33408 6.17963C5.34107 6.17963 6.15741 5.36329 6.15741 4.35629C6.15741 3.34929 5.34107 2.53296 4.33408 2.53296C3.32708 2.53296 2.51074 3.34929 2.51074 4.35629C2.51074 5.36329 3.32708 6.17963 4.33408 6.17963Z" fill="white"/>
<path d="M7.87761 7.55933V17.6752H11.0184V12.6727C11.0184 11.3527 11.2668 10.0743 12.9034 10.0743C14.5176 10.0743 14.5376 11.5835 14.5376 12.756V17.676H17.6801V12.1285C17.6801 9.40349 17.0934 7.30933 13.9084 7.30933C12.3793 7.30933 11.3543 8.14849 10.9351 8.94266H10.8926V7.55933H7.87761ZM2.75928 7.55933H5.90511V17.6752H2.75928V7.55933Z" fill="white"/>
</svg>
