<svg width="20" height="20" viewBox="0 0 20 20" fill="none" xmlns="http://www.w3.org/2000/svg">
<path d="M16.1337 6.51062C15.3347 6.51062 14.5975 6.24593 14.0055 5.79941C13.3266 5.28753 12.8387 4.53667 12.6665 3.67125C12.6238 3.45742 12.6009 3.23675 12.5987 3.01062H10.3163V9.24718L10.3135 12.6632C10.3135 13.5765 9.71882 14.3509 8.89441 14.6232C8.65515 14.7023 8.39675 14.7397 8.12769 14.725C7.78425 14.7061 7.46242 14.6025 7.18269 14.4351C6.58742 14.0791 6.18382 13.4332 6.17288 12.6944C6.15566 11.5397 7.08917 10.5982 8.24308 10.5982C8.47085 10.5982 8.6896 10.6354 8.89441 10.703V8.99835V8.38558C8.67839 8.35359 8.45855 8.33691 8.23624 8.33691C6.97324 8.33691 5.79199 8.86191 4.94761 9.80773C4.30941 10.5225 3.9266 11.4344 3.86753 12.3906C3.79015 13.6468 4.2498 14.8409 5.14121 15.7219C5.27218 15.8512 5.40972 15.9713 5.55355 16.082C6.31781 16.6702 7.25214 16.989 8.23624 16.989C8.45855 16.989 8.67839 16.9726 8.89441 16.9406C9.81371 16.8044 10.6619 16.3836 11.3313 15.7219C12.1538 14.909 12.6082 13.8297 12.6132 12.681L12.6014 7.57976C12.9938 7.88246 13.4228 8.13293 13.8833 8.32734C14.5994 8.62949 15.3587 8.78261 16.1402 8.78234V7.12503V6.51007C16.1408 6.51062 16.1342 6.51062 16.1337 6.51062Z" fill="white"/>
</svg>
