<svg width="36" height="36" viewBox="0 0 36 36" fill="none" xmlns="http://www.w3.org/2000/svg">
<g clip-path="url(#clip0_1142_3315)">
<path d="M18 0C8.05922 0 0 8.05922 0 18C0 27.9408 8.05922 36 18 36C27.9408 36 36 27.9408 36 18C36 8.05922 27.9408 0 18 0Z" fill="black"/>
<path d="M19.969 16.3712L27.6745 7.41406H25.8486L19.1578 15.1914L13.8139 7.41406H7.65039L15.7314 19.1748L7.65039 28.5677H9.47647L16.5421 20.3546L22.1856 28.5677H28.3492L19.9685 16.3712H19.969ZM10.1344 8.78872H12.9392L25.8494 27.2555H23.0447L10.1344 8.78872Z" fill="white"/>
</g>
<defs>
<clipPath id="clip0_1142_3315">
<rect width="36" height="36" fill="white"/>
</clipPath>
</defs>
</svg>
