<svg width="16" height="15" viewBox="0 0 16 15" fill="none" xmlns="http://www.w3.org/2000/svg">
<path d="M15.9293 2.427C15.8347 2.27025 15.6616 2.1814 15.4815 2.19731L14.6836 2.26811L15.4462 0.702093C15.537 0.515576 15.5012 0.290859 15.357 0.143243C15.2129 -0.00437184 14.9925 -0.0419999 14.809 0.0495553L12.7906 1.0565C11.5436 0.385884 9.98572 0.584943 8.91371 1.57973C8.01902 2.40997 7.54874 3.68674 7.63643 4.95998C5.29801 4.72123 3.31863 3.35774 2.14819 1.15462C2.07053 1.00847 1.92494 0.912868 1.76222 0.901121C1.59919 0.889565 1.44212 0.963166 1.34506 1.09677C0.619121 2.0958 0.568184 3.46556 1.13728 4.59246C0.980404 4.55209 0.813466 4.49747 0.62834 4.43446C0.469746 4.38044 0.294901 4.41505 0.16762 4.52557C0.0403379 4.6361 -0.0208498 4.80645 0.00636902 4.97456C0.231557 6.36534 1.02769 7.4342 2.28531 8.06688C2.12156 8.12497 1.95447 8.17215 1.78456 8.20822C1.61575 8.24407 1.47906 8.36987 1.42703 8.53736C1.375 8.7048 1.41569 8.88785 1.5335 9.01611C2.43916 10.0023 3.74741 10.4876 4.67667 10.7205C3.6201 11.5634 2.47957 11.7044 0.822247 11.6464C0.630403 11.6405 0.453652 11.7506 0.372995 11.9278C0.29237 12.105 0.323651 12.3141 0.452496 12.4588C1.14337 13.2346 3.66044 14.1093 6.30645 14.1749C6.41111 14.1775 6.51786 14.1789 6.62686 14.1789C8.48471 14.1788 10.9401 13.7731 12.7025 11.9778C14.0365 10.6189 14.8708 9.05453 15.1824 7.32829C15.434 5.93405 15.275 4.81756 15.1985 4.28096C15.1929 4.24152 15.1869 4.19966 15.182 4.16305L15.9283 2.93775C16.0235 2.78144 16.0239 2.58375 15.9293 2.427Z" fill="white"/>
</svg>
