<svg width="36" height="36" viewBox="0 0 36 36" fill="none" xmlns="http://www.w3.org/2000/svg">
<g clip-path="url(#clip0_1142_3287)">
<path d="M18 36C27.9411 36 36 27.9411 36 18C36 8.05888 27.9411 0 18 0C8.05888 0 0 8.05888 0 18C0 27.9411 8.05888 36 18 36Z" fill="#FF0000"/>
<path d="M20.4965 18.007L15.5039 20.9036V15.0962L20.4965 18.007Z" fill="url(#paint0_linear_1142_3287)"/>
<path d="M35.6567 21.5099C34.9623 24.9949 33.2528 28.1968 30.7432 30.7127C28.2336 33.2286 25.0361 34.9462 21.5528 35.6494L9.92383 24.0204C10.551 24.5094 11.3241 24.7737 12.1194 24.7712H23.8999C24.849 24.7687 25.7584 24.3897 26.4285 23.7175C27.0985 23.0452 27.4745 22.1346 27.4738 21.1854V14.8144C27.4767 13.8817 27.1145 12.9849 26.4649 12.3157L35.6567 21.5099Z" fill="url(#paint1_linear_1142_3287)"/>
<path d="M23.8903 11.2288H12.1098C11.639 11.2288 11.1728 11.3215 10.7379 11.5018C10.303 11.682 9.90787 11.9462 9.57509 12.2792C9.24231 12.6122 8.9784 13.0075 8.79846 13.4425C8.61851 13.8775 8.52606 14.3438 8.52637 14.8145V21.1856C8.52606 21.6564 8.61851 22.1226 8.79846 22.5576C8.9784 22.9927 9.24231 23.388 9.57509 23.721C9.90787 24.054 10.303 24.3182 10.7379 24.4984C11.1728 24.6786 11.639 24.7714 12.1098 24.7714H23.8903C24.3611 24.7714 24.8273 24.6786 25.2622 24.4984C25.6971 24.3182 26.0922 24.054 26.425 23.721C26.7578 23.388 27.0217 22.9927 27.2016 22.5576C27.3816 22.1226 27.474 21.6564 27.4737 21.1856V14.8145C27.474 14.3438 27.3816 13.8775 27.2016 13.4425C27.0217 13.0075 26.7578 12.6122 26.425 12.2792C26.0922 11.9462 25.6971 11.682 25.2622 11.5018C24.8273 11.3215 24.3611 11.2288 23.8903 11.2288ZM15.5037 20.9038V15.0964L20.4964 18.0001L15.5037 20.9038Z" fill="white"/>
</g>
<defs>
<linearGradient id="paint0_linear_1142_3287" x1="14.5731" y1="16.027" x2="18.5236" y2="19.9799" gradientUnits="userSpaceOnUse">
<stop stop-color="#B71C1C"/>
<stop offset="1" stop-color="#B71C1C" stop-opacity="0"/>
</linearGradient>
<linearGradient id="paint1_linear_1142_3287" x1="16.977" y1="16.9578" x2="30.7375" y2="30.7159" gradientUnits="userSpaceOnUse">
<stop stop-color="#B71C1C"/>
<stop offset="1" stop-color="#B71C1C" stop-opacity="0"/>
</linearGradient>
<clipPath id="clip0_1142_3287">
<rect width="36" height="36" fill="white"/>
</clipPath>
</defs>
</svg>
