<svg width="20" height="16" viewBox="0 0 20 16" fill="none" xmlns="http://www.w3.org/2000/svg">
<path d="M9.99929 15.2653C9.99761 15.2653 9.99578 15.2653 9.99395 15.2653C9.39047 15.2612 4.05537 15.2126 2.54384 14.8038C1.48747 14.5198 0.653573 13.6868 0.368844 12.6303C-0.0266649 11.1455 -0.00148784 8.28673 0.00125875 8.05845C-0.00133525 7.83125 -0.0268175 4.94886 0.367623 3.45182C0.368081 3.45044 0.368386 3.44892 0.368844 3.44755C0.650369 2.40308 1.50303 1.54431 2.54124 1.25958C2.54384 1.25882 2.54658 1.25821 2.54918 1.25745C4.04362 0.864685 9.38925 0.81662 9.99395 0.8125H10.0048C10.6098 0.81662 15.9591 0.865296 17.4567 1.27469C18.5104 1.55789 19.3436 2.3898 19.6291 3.44495C20.0394 4.94306 20.0014 7.83171 19.9973 8.07554C20.0002 8.31572 20.0242 11.1488 19.631 12.6411C19.6307 12.6427 19.6302 12.644 19.6299 12.6454C19.345 13.7019 18.5113 14.5349 17.4537 14.8192C17.4523 14.8196 17.4508 14.8199 17.4494 14.8204C15.9551 15.213 10.6093 15.2611 10.0048 15.2653C10.003 15.2653 10.0011 15.2653 9.99929 15.2653ZM1.87794 3.85251C1.53065 5.17393 1.56346 8.01954 1.56376 8.04823V8.06883C1.55339 8.85802 1.58985 11.1435 1.87809 12.2259C2.01786 12.7443 2.42909 13.1549 2.95064 13.2951C4.0659 13.5968 8.41116 13.6917 9.99929 13.7028C11.5916 13.6917 15.9432 13.5994 17.0502 13.3098C17.5701 13.1691 17.98 12.7598 18.1206 12.2409C18.4092 11.1426 18.4454 8.86824 18.4348 8.08409C18.4348 8.07585 18.4348 8.06761 18.435 8.05937C18.4493 7.26072 18.4211 4.94855 18.122 3.8574C18.1217 3.85633 18.1214 3.85526 18.1213 3.85419C17.9809 3.33356 17.5695 2.92295 17.048 2.78272C15.9435 2.48075 11.5912 2.38614 9.99929 2.375C8.4081 2.38614 4.06071 2.4783 2.95033 2.76761C2.4387 2.90952 2.01817 3.33478 1.87794 3.85251ZM8.00786 11.2028V4.87485L13.4766 8.03892L8.00786 11.2028Z" fill="white"/>
</svg>
