<svg width="48" height="48" viewBox="0 0 48 48" fill="none" xmlns="http://www.w3.org/2000/svg">
<mask id="mask0_201_1858" style="mask-type:luminance" maskUnits="userSpaceOnUse" x="5" y="5" width="38" height="38">
<path d="M5.90723 5.90766H42.0919V42.0923H5.90723V5.90766Z" fill="white"/>
</mask>
<g mask="url(#mask0_201_1858)">
<path fill-rule="evenodd" clip-rule="evenodd" d="M16.6985 28.2403V35.0262C18.6721 36.6308 21.1871 37.5913 23.929 37.5913C25.8281 37.5913 27.616 37.1308 29.1905 36.3165L30.339 38.5371C28.4178 39.5307 26.237 40.0913 23.929 40.0913C21.2111 40.0913 18.6729 39.3143 16.5266 37.9711H15.4485H6.96777H5.71777V36.7211V28.2403V26.9903H6.96777H15.4485H16.6985V28.2403ZM8.21777 29.4903V35.4711H14.1985V29.4903H8.21777ZM35.4968 27.1441C33.0897 27.7263 31.3018 29.8948 31.3018 32.4808C31.3018 35.5131 33.7599 37.9712 36.7921 37.9712C39.8244 37.9712 42.2825 35.5131 42.2825 32.4808C42.2825 29.8657 40.4542 27.6777 38.0062 27.1251C38.0298 26.793 38.0418 26.4579 38.0418 26.1202C38.0418 21.0227 35.3112 16.5643 31.2388 14.1258L29.9545 16.2706C33.3041 18.2763 35.5418 21.9375 35.5418 26.1202C35.5418 26.4655 35.5266 26.807 35.4968 27.1441ZM10.2223 23.7932C11.082 18.6696 14.7266 14.494 19.5474 12.874L17.6392 9.82089L16.4439 7.90839H18.6992H29.3002H31.5555L30.3602 9.82089L25.0597 18.3017L23.9997 19.9977L22.9397 18.3017L20.9184 15.0675C16.6792 16.2469 13.4268 19.8027 12.6878 24.2068L10.2223 23.7932ZM27.0449 10.4084L23.9997 15.2807L20.9545 10.4084H27.0449ZM33.8018 32.4808C33.8018 34.1323 35.1406 35.4712 36.7921 35.4712C38.4437 35.4712 39.7825 34.1323 39.7825 32.4808C39.7825 30.8293 38.4437 29.4904 36.7921 29.4904C35.1406 29.4904 33.8018 30.8293 33.8018 32.4808Z" fill="url(#paint0_linear_201_1858)"/>
</g>
<defs>
<linearGradient id="paint0_linear_201_1858" x1="24.0002" y1="121.318" x2="24.0002" y2="2.36871" gradientUnits="userSpaceOnUse">
<stop stop-color="#468CFD"/>
<stop offset="0.568599" stop-color="#27529E"/>
<stop offset="0.770397" stop-color="#11285A"/>
<stop offset="0.996089" stop-color="#091941"/>
</linearGradient>
</defs>
</svg>
