<svg width="41" height="41" viewBox="0 0 41 41" fill="none" xmlns="http://www.w3.org/2000/svg">
<g clip-path="url(#clip0_134_1874)">
<path d="M19.2888 8.44238H16.8865V22.9165H14.4641V13.2671H12.0618V22.9165H9.6394V18.0918H7.23706V22.9165H4.82471V25.3188H21.7012V22.9165H19.2888V8.44238Z" fill="url(#paint0_linear_134_1874)"/>
<path d="M30.1494 20.4941C33.4721 20.4941 36.1753 17.7909 36.1753 14.4683C36.1753 11.1456 33.4721 8.44238 30.1494 8.44238C26.8267 8.44238 24.1235 11.1456 24.1235 14.4683C24.1235 17.7909 26.8267 20.4941 30.1494 20.4941ZM33.7729 14.4683C33.7729 15.0295 33.6447 15.5613 33.4159 16.036L31.3506 13.9707V11.0503C32.7599 11.5469 33.7729 12.8912 33.7729 14.4683ZM28.9482 11.0502V14.9658L31.7172 17.7347C31.2425 17.9635 30.7107 18.0918 30.1494 18.0918C28.1514 18.0918 26.5259 16.4663 26.5259 14.4683C26.5259 12.8912 27.5389 11.5469 28.9482 11.0502Z" fill="url(#paint1_linear_134_1874)"/>
<path d="M28.9482 22.917H36.1753V25.3193H28.9482V22.917Z" fill="url(#paint2_linear_134_1874)"/>
<path d="M24.1235 22.917H26.5259V25.3193H24.1235V22.917Z" fill="url(#paint3_linear_134_1874)"/>
<path d="M41 30.144V3.61816H0V30.144H15.3948L14.6458 34.9788H10.8506V37.3812H30.1494V34.9788H26.3542L25.6052 30.144H41ZM2.40234 27.7417V6.02051H38.5977V27.7417H2.40234ZM23.9231 34.9788H17.0769L17.8259 30.144H23.1742L23.9231 34.9788Z" fill="url(#paint4_linear_134_1874)"/>
</g>
<defs>
<linearGradient id="paint0_linear_134_1874" x1="22.5511" y1="7.35968" x2="17.1318" y2="24.2478" gradientUnits="userSpaceOnUse">
<stop stop-color="#0FA6FC"/>
<stop offset="0.953125" stop-color="#D048FC"/>
</linearGradient>
<linearGradient id="paint1_linear_134_1874" x1="36.7823" y1="7.66921" x2="32.9122" y2="19.7293" gradientUnits="userSpaceOnUse">
<stop stop-color="#0FA6FC"/>
<stop offset="0.953125" stop-color="#D048FC"/>
</linearGradient>
<linearGradient id="paint2_linear_134_1874" x1="36.5393" y1="22.7629" x2="36.2596" y2="25.3846" gradientUnits="userSpaceOnUse">
<stop stop-color="#0FA6FC"/>
<stop offset="0.953125" stop-color="#D048FC"/>
</linearGradient>
<linearGradient id="paint3_linear_134_1874" x1="26.6469" y1="22.7629" x2="25.8754" y2="25.1669" gradientUnits="userSpaceOnUse">
<stop stop-color="#0FA6FC"/>
<stop offset="0.953125" stop-color="#D048FC"/>
</linearGradient>
<linearGradient id="paint4_linear_134_1874" x1="43.0649" y1="1.45211" x2="33.8601" y2="36.2852" gradientUnits="userSpaceOnUse">
<stop stop-color="#0FA6FC"/>
<stop offset="0.953125" stop-color="#D048FC"/>
</linearGradient>
<clipPath id="clip0_134_1874">
<rect width="41" height="41" fill="white"/>
</clipPath>
</defs>
</svg>
