<svg width="40" height="40" viewBox="0 0 40 40" fill="none" xmlns="http://www.w3.org/2000/svg">
<g clip-path="url(#clip0_134_1924)">
<mask id="mask0_134_1924" style="mask-type:luminance" maskUnits="userSpaceOnUse" x="0" y="0" width="40" height="40">
<path d="M0 3.8147e-06H40V40H0V3.8147e-06Z" fill="white"/>
</mask>
<g mask="url(#mask0_134_1924)">
<path d="M22.4219 9.375C22.4219 11.3166 17.6218 12.8906 11.7969 12.8906C5.97195 12.8906 1.17188 11.3166 1.17188 9.375M22.4219 9.375C22.4219 7.43336 17.6218 5.85938 11.7969 5.85938C5.97195 5.85938 1.17188 7.43336 1.17188 9.375M22.4219 9.375V30.625C22.4219 32.5666 17.6218 34.1406 11.7969 34.1406C5.97195 34.1406 1.17188 32.5666 1.17188 30.625L1.17188 9.375M22.4219 16.4844C22.4219 18.426 17.6218 20 11.7969 20C5.97195 20 1.17188 18.426 1.17188 16.4844M22.4219 23.5156C22.4219 25.4573 17.6218 27.0313 11.7969 27.0313C5.97195 27.0313 1.17188 25.4573 1.17188 23.5156M29.4531 1.17188V5.85938H38.8281V1.17188H29.4531ZM29.4531 1.17188L11.7969 1.17191V5.88082M34.1406 5.85937V16.9695M34.1406 16.9695L29.9384 21.172L34.1406 25.3744M34.1406 16.9695L38.3429 21.172L34.1406 25.3744M34.1406 25.3744V34.1406M34.1406 34.1406C31.5518 34.1406 29.4531 35.19 29.4531 36.4844C29.4531 37.7787 31.5518 38.8281 34.1406 38.8281M34.1406 34.1406C36.7295 34.1406 38.8281 35.19 38.8281 36.4844C38.8281 37.7787 36.7295 38.8281 34.1406 38.8281M34.1406 38.8281L11.7969 38.8281V34.1192" stroke="url(#paint0_linear_134_1924)" stroke-width="2" stroke-miterlimit="10"/>
</g>
</g>
<defs>
<linearGradient id="paint0_linear_134_1924" x1="40.7247" y1="-1.24395" x2="28.6326" y2="36.4383" gradientUnits="userSpaceOnUse">
<stop stop-color="#0FA6FC"/>
<stop offset="0.953125" stop-color="#D048FC"/>
</linearGradient>
<clipPath id="clip0_134_1924">
<rect width="40" height="40" fill="white"/>
</clipPath>
</defs>
</svg>
