<svg width="64" height="64" viewBox="0 0 64 64" fill="none" xmlns="http://www.w3.org/2000/svg">
<g clip-path="url(#clip0_0_557)">
<path d="M44.1379 4.41406V48.552C44.1379 50.9244 34.7697 52.8665 23.0069 52.9548H21.131C9.36828 52.8665 0 50.9244 0 48.552V4.41406H44.1379Z" fill="#955BA5"/>
<path d="M0 33.1036C0 35.5312 9.80965 37.5064 21.9476 37.5174H22.069C34.2069 37.5064 44.0166 35.5312 44.0166 33.1036V18.7588C44.0166 21.1864 34.2069 23.1615 22.069 23.1726H21.9476C9.80965 23.1615 0 21.1864 0 18.7588V33.1036Z" fill="#894B9D"/>
<path d="M4.41375 12.1376C5.02317 12.1376 5.5172 11.6435 5.5172 11.0341C5.5172 10.4247 5.02317 9.93066 4.41375 9.93066C3.80433 9.93066 3.3103 10.4247 3.3103 11.0341C3.3103 11.6435 3.80433 12.1376 4.41375 12.1376Z" fill="#F0C419"/>
<path d="M4.41375 18.7585C3.80433 18.7585 3.3103 18.2645 3.3103 17.6551V15.4482C3.3103 14.8388 3.80433 14.3447 4.41375 14.3447C5.02317 14.3447 5.5172 14.8388 5.5172 15.4482V17.6551C5.5172 18.2645 5.02317 18.7585 4.41375 18.7585Z" fill="#894B9D"/>
<path d="M4.41375 26.4823C5.02317 26.4823 5.5172 25.9883 5.5172 25.3788C5.5172 24.7694 5.02317 24.2754 4.41375 24.2754C3.80433 24.2754 3.3103 24.7694 3.3103 25.3788C3.3103 25.9883 3.80433 26.4823 4.41375 26.4823Z" fill="#F0C419"/>
<path d="M4.41375 33.1032C3.80433 33.1032 3.3103 32.6092 3.3103 31.9998V29.7929C3.3103 29.1835 3.80433 28.6895 4.41375 28.6895C5.02317 28.6895 5.5172 29.1835 5.5172 29.7929V31.9998C5.5172 32.6092 5.02317 33.1032 4.41375 33.1032Z" fill="#3D324C"/>
<path d="M4.41375 40.828C5.02317 40.828 5.5172 40.334 5.5172 39.7245C5.5172 39.1151 5.02317 38.6211 4.41375 38.6211C3.80433 38.6211 3.3103 39.1151 3.3103 39.7245C3.3103 40.334 3.80433 40.828 4.41375 40.828Z" fill="#F0C419"/>
<path d="M4.41375 47.448C3.80433 47.448 3.3103 46.9539 3.3103 46.3445V44.1376C3.3103 43.5282 3.80433 43.0342 4.41375 43.0342C5.02317 43.0342 5.5172 43.5282 5.5172 44.1376V46.3445C5.5172 46.9539 5.02317 47.448 4.41375 47.448Z" fill="#894B9D"/>
<path d="M63.126 36.2383L57.7103 34.4342C57.3361 33.15 56.8252 31.9096 56.1864 30.7343L58.7332 25.6408C58.9793 25.1488 58.8828 24.5544 58.4938 24.1655L55.2827 20.9511C54.8938 20.562 54.2995 20.4656 53.8074 20.7117L48.7139 23.2584C47.5385 22.6208 46.2981 22.1111 45.014 21.7379L43.2099 16.331C43.0391 15.8055 42.5498 15.4493 41.9972 15.4482H37.451C36.9004 15.4476 36.4112 15.7998 36.2372 16.3222L34.4331 21.7291C33.1488 22.1033 31.9085 22.6142 30.7332 23.2529L25.6408 20.7117C25.1488 20.4656 24.5544 20.562 24.1655 20.9511L20.9511 24.1655C20.562 24.5544 20.4656 25.1488 20.7117 25.6408L23.2584 30.7343C22.6208 31.9097 22.1111 33.1501 21.7379 34.4342L16.331 36.2383C15.8055 36.4091 15.4493 36.8984 15.4482 37.451V41.9972C15.4476 42.5478 15.7998 43.037 16.3222 43.211L21.7291 45.0151C22.1033 46.2994 22.6142 47.5397 23.2529 48.715L20.7117 53.8074C20.4656 54.2995 20.562 54.8938 20.9511 55.2827L24.1655 58.4971C24.5544 58.8862 25.1488 58.9826 25.6408 58.7365L30.7343 56.1898C31.9097 56.8274 33.1501 57.3372 34.4342 57.7103L36.2383 63.1227C36.4123 63.6451 36.9015 63.9973 37.4521 63.9967H41.9983C42.5489 63.9973 43.0381 63.6451 43.2121 63.1227L45.014 57.7103C46.2983 57.3361 47.5386 56.8252 48.7139 56.1864L53.8074 58.7332C54.2995 58.9793 54.8938 58.8828 55.2827 58.4938L58.4971 55.2827C58.8862 54.8938 58.9826 54.2995 58.7365 53.8074L56.1898 48.7139C56.8274 47.5385 57.3372 46.2981 57.7103 45.014L63.1227 43.2099C63.6461 43.0371 63.9997 42.5483 64 41.9972V37.451C64.0001 36.9008 63.6481 36.4122 63.126 36.2383Z" fill="#95A5A5"/>
<path d="M39.7242 52.9652C47.0372 52.9652 52.9655 47.0368 52.9655 39.7238C52.9655 32.4108 47.0372 26.4824 39.7242 26.4824C32.4112 26.4824 26.4828 32.4108 26.4828 39.7238C26.4828 47.0368 32.4112 52.9652 39.7242 52.9652Z" fill="#7F8C8D"/>
<path d="M39.7241 41.9314C40.9429 41.9314 41.931 40.9433 41.931 39.7245C41.931 38.5056 40.9429 37.5176 39.7241 37.5176C38.5053 37.5176 37.5172 38.5056 37.5172 39.7245C37.5172 40.9433 38.5053 41.9314 39.7241 41.9314Z" fill="#35495E"/>
<path d="M32.0001 40.8275C31.3906 40.8275 30.8966 40.3335 30.8966 39.7241C30.9021 34.851 34.8511 30.902 39.7242 30.8965C40.3336 30.8965 40.8276 31.3905 40.8276 31.9999C40.8276 32.6094 40.3336 33.1034 39.7242 33.1034C36.0692 33.107 33.1072 36.0691 33.1035 39.7241C33.1035 40.3335 32.6095 40.8275 32.0001 40.8275Z" fill="#547580"/>
<path d="M39.7242 48.5521C39.1148 48.5521 38.6207 48.0581 38.6207 47.4487C38.6207 46.8393 39.1148 46.3452 39.7242 46.3452C43.3792 46.3416 46.3412 43.3795 46.3449 39.7245C46.3449 39.1151 46.8389 38.6211 47.4483 38.6211C48.0577 38.6211 48.5518 39.1151 48.5518 39.7245C48.5463 44.5976 44.5972 48.5467 39.7242 48.5521Z" fill="#547580"/>
<path d="M22.069 8.82759C34.2573 8.82759 44.1379 6.85146 44.1379 4.41379C44.1379 1.97612 34.2573 0 22.069 0C9.88061 0 0 1.97612 0 4.41379C0 6.85146 9.88061 8.82759 22.069 8.82759Z" fill="#B49ACA"/>
</g>
<defs>
<clipPath id="clip0_0_557">
<rect width="64" height="64" fill="white"/>
</clipPath>
</defs>
</svg>
