<svg width="64" height="64" viewBox="0 0 64 64" fill="none" xmlns="http://www.w3.org/2000/svg">
<g clip-path="url(#clip0_0_541)">
<path fill-rule="evenodd" clip-rule="evenodd" d="M39.7241 25.9421V24.2759C39.6754 23.0322 39.1638 21.8516 38.2897 20.9655L38.2786 20.9545C39.1637 20.0794 39.6808 18.8991 39.7241 17.6552V8.82759C39.7241 3.95034 30.8303 0 19.8621 0C8.89379 0 0 3.95034 0 8.82759V17.6552C0.0433037 18.8991 0.560429 20.0794 1.44552 20.9545L1.43448 20.9655C0.56036 21.8516 0.0487593 23.0322 0 24.2759V33.1034C0.0433037 34.3474 0.560429 35.5277 1.44552 36.4028L1.43448 36.4138C0.56036 37.2998 0.0487593 38.4804 0 39.7241V48.5517C0 53.429 8.89379 57.3793 19.8621 57.3793C24.5417 57.4626 29.1927 56.6344 33.5559 54.9407L39.7241 25.9421Z" fill="#3B97D3"/>
<path d="M19.8621 17.6552C30.8316 17.6552 39.7241 13.7029 39.7241 8.82759C39.7241 3.95224 30.8316 0 19.8621 0C8.89255 0 0 3.95224 0 8.82759C0 13.7029 8.89255 17.6552 19.8621 17.6552Z" fill="#84B5CB"/>
<path fill-rule="evenodd" clip-rule="evenodd" d="M39.7241 24.2755V25.9417L31.669 30.1679C31.1932 30.423 30.8964 30.9191 30.8966 31.4589V31.6134C27.3077 32.631 23.5923 33.1325 19.8621 33.1031C8.88276 33.1031 0 29.1527 0 24.2755C0.0487593 23.0318 0.56036 21.8512 1.43448 20.9651L1.44552 20.9541C4.36966 24.1982 11.52 26.4824 19.8621 26.4824C28.2041 26.4824 35.3545 24.1982 38.2786 20.9541L38.2897 20.9651C39.1638 21.8512 39.6754 23.0318 39.7241 24.2755Z" fill="#2980BA"/>
<path fill-rule="evenodd" clip-rule="evenodd" d="M30.8966 40.441V47.0617C27.3077 48.0792 23.5923 48.5808 19.8621 48.5513C8.88276 48.5513 0 44.601 0 39.7237C0.0487593 38.48 0.56036 37.2994 1.43448 36.4134L1.44552 36.4023C4.36966 39.6465 11.52 41.9306 19.8621 41.9306C23.5923 41.9601 27.3077 41.4585 30.8966 40.441Z" fill="#2980BA"/>
<path d="M19.8621 13.2416C28.0892 13.2416 34.7586 11.2655 34.7586 8.82786C34.7586 6.39018 28.0892 4.41406 19.8621 4.41406C11.6349 4.41406 4.96552 6.39018 4.96552 8.82786C4.96552 11.2655 11.6349 13.2416 19.8621 13.2416Z" fill="#9FC9D3"/>
<path fill-rule="evenodd" clip-rule="evenodd" d="M64.0001 31.4597V47.4156C64.0001 53.1315 59.1007 60.2597 47.9007 63.9232C47.6073 64.0225 47.2894 64.0225 46.9959 63.9232C40.4635 61.7825 36.0718 58.4721 33.5559 54.9411C31.9041 52.7725 30.974 50.1405 30.8966 47.4156V31.4597C30.8964 30.9199 31.1933 30.4238 31.669 30.1687L39.7242 25.9425L46.7752 22.2349C47.1968 22.0141 47.6998 22.0141 48.1214 22.2349L63.2276 30.1687C63.7034 30.4238 64.0002 30.9199 64.0001 31.4597Z" fill="#BDC3C7"/>
<path fill-rule="evenodd" clip-rule="evenodd" d="M47.8499 59.2717C47.5905 59.3666 47.3059 59.3666 47.0466 59.2717C38.9517 56.2427 35.3103 51.2176 35.3103 47.4184V33.9078C35.31 33.4975 35.5374 33.1209 35.9006 32.9301L46.9351 27.1392C47.2564 26.9705 47.6401 26.9705 47.9613 27.1392L58.9958 32.9301C59.3591 33.1209 59.5864 33.4975 59.5862 33.9078V47.4184C59.5862 51.2176 55.9448 56.2438 47.8499 59.2717Z" fill="#4FBA6F"/>
<path fill-rule="evenodd" clip-rule="evenodd" d="M44.138 48.5522C43.8453 48.5521 43.5647 48.4358 43.3578 48.2289L41.1509 46.022C40.7328 45.589 40.7387 44.9008 41.1644 44.4751C41.59 44.0495 42.2782 44.0435 42.7112 44.4617L44.138 45.8884L52.1854 37.841C52.6184 37.4228 53.3066 37.4288 53.7323 37.8544C54.1579 38.2801 54.1639 38.9683 53.7457 39.4013L44.9181 48.2289C44.7112 48.4358 44.4306 48.5521 44.138 48.5522Z" fill="white"/>
<path d="M47.4483 60.4445C47.1798 60.4451 46.9133 60.3977 46.6615 60.3044C37.4687 56.866 34.2069 51.2131 34.2069 47.4183V33.9077C34.2063 33.0871 34.6611 32.3339 35.3876 31.9524L46.4221 26.1626C47.0649 25.8247 47.8328 25.8247 48.4756 26.1626L59.5101 31.9513C60.2365 32.3333 60.6909 33.0869 60.6897 33.9077V47.4183C60.6897 51.2131 57.4279 56.866 48.2362 60.3044C47.984 60.3978 47.7172 60.4453 47.4483 60.4445ZM47.4483 28.1135L36.4138 33.9077V47.4183C36.4138 50.7507 39.8213 55.3896 47.4339 58.2376L47.8499 59.2715L47.4626 58.2376C55.0753 55.3929 58.4828 50.7518 58.4828 47.4183V33.9077L47.4483 28.1135Z" fill="#ECF0F1"/>
</g>
<defs>
<clipPath id="clip0_0_541">
<rect width="64" height="64" fill="white"/>
</clipPath>
</defs>
</svg>
