<svg width="28" height="28" viewBox="0 0 28 28" fill="none" xmlns="http://www.w3.org/2000/svg">
<path opacity="0.4" d="M1.45898 14.0007C1.45898 20.9273 7.07408 26.5423 14.0007 26.5423C20.9273 26.5423 26.5423 20.9273 26.5423 14.0007C26.5423 7.07408 20.9273 1.45898 14.0007 1.45898C7.07408 1.45898 1.45898 7.07408 1.45898 14.0007Z" fill="white"/>
<path d="M19.6898 9.35711C19.9989 9.92242 19.7913 10.6313 19.226 10.9405C17.626 11.8154 16.1236 13.6471 14.9763 15.4037C14.4171 16.2601 13.9684 17.0575 13.6598 17.6405C13.5058 17.9313 13.3875 18.1674 13.3086 18.3289L13.1939 18.5686C13.0136 18.9625 12.6298 19.2246 12.1972 19.2485C11.7645 19.2723 11.3541 19.0543 11.1317 18.6824C10.7692 18.0763 10.1931 17.5231 9.65931 17.1011C9.39993 16.896 9.16645 16.7343 8.99984 16.6252L8.7545 16.4718C8.1951 16.1524 8.00031 15.4401 8.31945 14.8806C8.63867 14.3208 9.35117 14.1259 9.91087 14.4451L10.2784 14.6734C10.491 14.8126 10.7825 15.0146 11.1065 15.2707C11.354 15.4665 11.6308 15.7018 11.9103 15.9729C12.2099 15.4346 12.5844 14.7992 13.0227 14.1279C14.2089 12.3117 15.973 10.06 18.1065 8.89329C18.6717 8.58412 19.3806 8.79179 19.6898 9.35711Z" fill="white"/>
</svg>
