<svg width="40" height="40" viewBox="0 0 40 40" fill="none" xmlns="http://www.w3.org/2000/svg">
<g clip-path="url(#clip0_134_1866)">
<path d="M38.7257 28.1066C38.1689 27.6673 37.4063 27.0657 35.9996 27.0657C35.2416 27.0657 34.6717 27.2409 34.2192 27.4708V23.0543L35.5627 23.9649L39.9967 17.4231L20.0001 3.86914L13.897 8.00586V3.88445H6.08445V13.3012L0.00335938 17.423L4.43742 23.9648L5.78086 23.0541V27.471C5.32828 27.241 4.75828 27.0656 3.99992 27.0656C2.59328 27.0656 1.83078 27.6673 1.27406 28.1066C0.835078 28.4529 0.593359 28.6437 0 28.6437V30.9874C1.40664 30.9874 2.16914 30.3858 2.72586 29.9465C3.16484 29.6002 3.40656 29.4094 3.99992 29.4094C4.59328 29.4094 4.83508 29.6002 5.27406 29.9465C5.83078 30.3858 6.59328 30.9874 7.99992 30.9874C9.40649 30.9874 10.169 30.3858 10.7257 29.9465C11.1647 29.6002 11.4064 29.4094 11.9998 29.4094C12.5931 29.4094 12.8348 29.6002 13.2738 29.9465C13.8305 30.3858 14.593 30.9874 15.9998 30.9874C17.4064 30.9874 18.1688 30.3858 18.7256 29.9465C19.1645 29.6002 19.4063 29.4094 19.9995 29.4094C20.5928 29.4094 20.8346 29.6002 21.2736 29.9465C21.8303 30.3858 22.5928 30.9874 23.9994 30.9874C25.406 30.9874 26.1685 30.3858 26.7253 29.9465C27.1643 29.6002 27.4061 29.4094 27.9995 29.4094C28.5928 29.4094 28.8345 29.6002 29.2735 29.9465C29.8302 30.3858 30.5927 30.9874 31.9994 30.9874C33.4061 30.9874 34.1687 30.3859 34.7255 29.9466C35.1645 29.6002 35.4063 29.4094 35.9998 29.4094C36.5934 29.4094 36.8352 29.6002 37.2742 29.9466C37.831 30.3859 38.5936 30.9874 40.0003 30.9874V28.6437C39.4066 28.6438 39.1648 28.453 38.7257 28.1066ZM8.4282 6.2282H11.5532V9.59445L8.4282 11.7126V6.2282ZM3.25852 18.048L6.08445 16.1326V16.1327L13.897 10.8373V10.8373L20.0001 6.70055L36.7416 18.048L34.9376 20.7097L20.0001 10.5849L5.06258 20.7097L3.25852 18.048ZM14.7256 28.1066C14.2929 27.7652 13.7343 27.327 12.8473 27.148V24.2659H16.5023V28.579C16.3607 28.6213 16.2006 28.6437 15.9998 28.6437C15.4064 28.6437 15.1645 28.453 14.7256 28.1066ZM27.153 27.1479C26.2652 27.3266 25.7063 27.7651 25.2734 28.1067C24.8345 28.453 24.5927 28.6438 23.9993 28.6438C23.799 28.6438 23.6392 28.6216 23.498 28.5795V24.2659H27.153V27.1479ZM29.4967 27.3412V21.9221H21.1541V27.2223C20.8243 27.1261 20.4442 27.0657 19.9995 27.0657C19.5552 27.0657 19.1756 27.1259 18.8459 27.2219V21.9221H10.5034V27.3409C9.97359 27.5552 9.59031 27.857 9.27383 28.1066C8.86719 28.4275 8.62922 28.6145 8.12461 28.6404V21.4656L20.0001 13.4163L31.8755 21.4656V28.6405C31.3702 28.6148 31.1321 28.4277 30.7252 28.1066C30.409 27.8572 30.0259 27.5555 29.4967 27.3412Z" fill="url(#paint0_linear_134_1866)"/>
<path d="M35.9996 32.208C34.5929 32.208 33.8303 32.8096 33.2735 33.2489C32.8344 33.5953 32.5926 33.7861 31.9991 33.7861C31.4059 33.7861 31.1641 33.5953 30.7251 33.2489C30.1684 32.8096 29.4058 32.208 27.9992 32.208C26.5926 32.208 25.8301 32.8096 25.2733 33.2489C24.8343 33.5953 24.5925 33.7861 23.9991 33.7861C23.4058 33.7861 23.1641 33.5953 22.7251 33.2489C22.1684 32.8096 21.4059 32.208 19.9993 32.208C18.5927 32.208 17.8302 32.8096 17.2735 33.2489C16.8345 33.5953 16.5928 33.7861 15.9995 33.7861C15.4062 33.7861 15.1644 33.5953 14.7254 33.2489C14.1687 32.8096 13.4062 32.208 11.9995 32.208C10.5929 32.208 9.83038 32.8096 9.27366 33.2489C8.83476 33.5953 8.59296 33.7861 7.99968 33.7861C7.40632 33.7861 7.1646 33.5953 6.72562 33.2489C6.1689 32.8096 5.4064 32.208 3.99968 32.208C2.59304 32.208 1.83054 32.8096 1.27382 33.2489C0.834834 33.5953 0.593115 33.7861 -0.000244141 33.7861V36.1298C1.4064 36.1298 2.1689 35.5282 2.72562 35.0889C3.1646 34.7425 3.40632 34.5518 3.99968 34.5518C4.59304 34.5518 4.83483 34.7425 5.27382 35.0889C5.83054 35.5282 6.59304 36.1298 7.99968 36.1298C9.40624 36.1298 10.1687 35.5282 10.7255 35.0889C11.1644 34.7425 11.4062 34.5518 11.9995 34.5518C12.5929 34.5518 12.8346 34.7425 13.2736 35.0889C13.8303 35.5282 14.5928 36.1298 15.9995 36.1298C17.4062 36.1298 18.1686 35.5282 18.7254 35.0889C19.1643 34.7425 19.406 34.5518 19.9993 34.5518C20.5926 34.5518 20.8344 34.7425 21.2733 35.0889C21.8301 35.5282 22.5926 36.1298 23.9991 36.1298C25.4058 36.1298 26.1683 35.5282 26.7251 35.0889C27.1641 34.7425 27.4058 34.5518 27.9992 34.5518C28.5926 34.5518 28.8343 34.7425 29.2733 35.0889C29.83 35.5282 30.5925 36.1298 31.9991 36.1298C33.4058 36.1298 34.1684 35.5282 34.7252 35.0889C35.1643 34.7425 35.4061 34.5518 35.9996 34.5518C36.5931 34.5518 36.8349 34.7425 37.274 35.0889C37.8308 35.5282 38.5934 36.1298 40.0001 36.1298V33.7861C39.4066 33.7861 39.1648 33.5953 38.7257 33.2489C38.1689 32.8096 37.4063 32.208 35.9996 32.208Z" fill="url(#paint1_linear_134_1866)"/>
</g>
<defs>
<linearGradient id="paint0_linear_134_1866" x1="42.0149" y1="2.12937" x2="35.7975" y2="30.7082" gradientUnits="userSpaceOnUse">
<stop stop-color="#0FA6FC"/>
<stop offset="0.953125" stop-color="#D048FC"/>
</linearGradient>
<linearGradient id="paint1_linear_134_1866" x1="42.0147" y1="31.9564" x2="41.8786" y2="36.2808" gradientUnits="userSpaceOnUse">
<stop stop-color="#0FA6FC"/>
<stop offset="0.953125" stop-color="#D048FC"/>
</linearGradient>
<clipPath id="clip0_134_1866">
<rect width="40" height="40" fill="white"/>
</clipPath>
</defs>
</svg>
