<svg width="64" height="64" viewBox="0 0 64 64" fill="none" xmlns="http://www.w3.org/2000/svg">
<path d="M59.1185 64H41.7627V23.322C41.7627 22.4239 41.0337 21.6949 40.1355 21.6949C39.2374 21.6949 38.5084 20.9659 38.5084 20.0678V4.81087C38.5084 2.15425 40.6627 0 43.3193 0H57.562C60.2185 0 62.3729 2.15425 62.3729 4.81087V20.0679C62.3729 20.966 61.6439 21.695 60.7458 21.695C59.8477 21.695 59.1187 22.424 59.1187 23.3221V64H59.1185Z" fill="#8697CB"/>
<path d="M18.9829 0C13.3249 8.48812 10.3051 18.4603 10.3051 28.6611V50.983H27.6609V28.6611C27.6609 18.4603 24.6411 8.48812 18.9829 0Z" fill="#E8EDEE"/>
<path d="M48.2711 61.8303H52.6101V20.6099H48.2711V61.8303ZM53.6948 63.9998H47.1863C46.5864 63.9998 46.1016 63.5149 46.1016 62.9151V19.5252C46.1016 18.9253 46.5864 18.4404 47.1863 18.4404H53.6948C54.2947 18.4404 54.7796 18.9253 54.7796 19.5252V62.9151C54.7796 63.5149 54.2947 63.9998 53.6948 63.9998Z" fill="#E8EDEE"/>
<path d="M23.6345 8.67773C24.2311 10.0999 24.7605 11.548 25.2269 13.0167H38.5086V8.67773H23.6345Z" fill="#B0B6BB"/>
<path d="M47.1865 18.4405H53.695V9.76262C53.695 7.96849 52.2348 6.50837 50.4407 6.50837C48.6466 6.50837 47.1865 7.96849 47.1865 9.76262V18.4405ZM54.7796 20.61H46.1016C45.5017 20.61 45.0168 20.1251 45.0168 19.5252V9.76262C45.0168 6.77199 47.45 4.33887 50.4406 4.33887C53.4312 4.33887 55.8643 6.77199 55.8643 9.76262V19.5254C55.8643 20.1251 55.3795 20.61 54.7796 20.61Z" fill="#E8EDEE"/>
<path d="M53.6948 58.5757H47.1863C46.5864 58.5757 46.1016 58.0909 46.1016 57.491C46.1016 56.8911 46.5864 56.4062 47.1863 56.4062H53.6948C54.2947 56.4062 54.7796 56.8911 54.7796 57.491C54.7796 58.0909 54.2947 58.5757 53.6948 58.5757Z" fill="#E8EDEE"/>
<path d="M53.6948 53.1519H47.1863C46.5864 53.1519 46.1016 52.667 46.1016 52.0672C46.1016 51.4673 46.5864 50.9824 47.1863 50.9824H53.6948C54.2947 50.9824 54.7796 51.4673 54.7796 52.0672C54.7796 52.667 54.2947 53.1519 53.6948 53.1519Z" fill="#E8EDEE"/>
<path d="M53.6948 47.7291H47.1863C46.5864 47.7291 46.1016 47.2442 46.1016 46.6443C46.1016 46.0444 46.5864 45.5596 47.1863 45.5596H53.6948C54.2947 45.5596 54.7796 46.0444 54.7796 46.6443C54.7796 47.2441 54.2947 47.7291 53.6948 47.7291Z" fill="#E8EDEE"/>
<path d="M53.6948 42.3052H47.1863C46.5864 42.3052 46.1016 41.8204 46.1016 41.2205C46.1016 40.6206 46.5864 40.1357 47.1863 40.1357H53.6948C54.2947 40.1357 54.7796 40.6206 54.7796 41.2205C54.7796 41.8204 54.2947 42.3052 53.6948 42.3052Z" fill="#E8EDEE"/>
<path d="M53.6948 36.8814H47.1863C46.5864 36.8814 46.1016 36.3965 46.1016 35.7967C46.1016 35.1968 46.5864 34.7119 47.1863 34.7119H53.6948C54.2947 34.7119 54.7796 35.1968 54.7796 35.7967C54.7796 36.3965 54.2947 36.8814 53.6948 36.8814Z" fill="#E8EDEE"/>
<path d="M53.6948 31.4576H47.1863C46.5864 31.4576 46.1016 30.9727 46.1016 30.3728C46.1016 29.773 46.5864 29.2881 47.1863 29.2881H53.6948C54.2947 29.2881 54.7796 29.773 54.7796 30.3728C54.7796 30.9727 54.2947 31.4576 53.6948 31.4576Z" fill="#E8EDEE"/>
<path d="M53.6948 26.0338H47.1863C46.5864 26.0338 46.1016 25.5489 46.1016 24.949C46.1016 24.3491 46.5864 23.8643 47.1863 23.8643H53.6948C54.2947 23.8643 54.7796 24.3491 54.7796 24.949C54.7796 25.5489 54.2947 26.0338 53.6948 26.0338Z" fill="#E8EDEE"/>
<path d="M20.8963 24.9491H17.0693C15.735 24.9491 14.6438 23.8579 14.6438 22.5236V21.9509C14.6438 20.6166 15.735 19.5254 17.0693 19.5254H20.8963C22.2305 19.5254 23.3218 20.6166 23.3218 21.9509V22.5236C23.3218 23.8579 22.2305 24.9491 20.8963 24.9491Z" fill="#B0B6BB"/>
<path d="M8.13556 61.8308C8.13556 62.4296 7.64956 62.9156 7.05081 62.9156C6.45206 62.9156 5.96606 62.4296 5.96606 61.8308C5.96606 61.2321 6.45206 60.7461 7.05081 60.7461C7.64956 60.7461 8.13556 61.2321 8.13556 61.8308Z" fill="#E57E25"/>
<path d="M3.79658 57.492C3.79658 58.0907 3.31058 58.5767 2.71183 58.5767C2.11308 58.5767 1.62708 58.0907 1.62708 57.492C1.62708 56.8932 2.11308 56.4072 2.71183 56.4072C3.31058 56.4072 3.79658 56.8932 3.79658 57.492Z" fill="#E57E25"/>
<path d="M10.3051 57.492C10.3051 58.0907 9.81912 58.5767 9.22037 58.5767C8.62162 58.5767 8.13562 58.0907 8.13562 57.492C8.13562 56.8932 8.62162 56.4072 9.22037 56.4072C9.81912 56.4072 10.3051 56.8932 10.3051 57.492Z" fill="#E57E25"/>
<path d="M29.8304 61.8308C29.8304 62.4296 30.3164 62.9156 30.9152 62.9156C31.5139 62.9156 31.9999 62.4296 31.9999 61.8308C31.9999 61.2321 31.5139 60.7461 30.9152 60.7461C30.3164 60.7461 29.8304 61.2321 29.8304 61.8308Z" fill="#E57E25"/>
<path d="M34.1694 57.492C34.1694 58.0907 34.6554 58.5767 35.2542 58.5767C35.8529 58.5767 36.3389 58.0907 36.3389 57.492C36.3389 56.8932 35.8529 56.4072 35.2542 56.4072C34.6554 56.4072 34.1694 56.8932 34.1694 57.492Z" fill="#E57E25"/>
<path d="M27.6609 57.492C27.6609 58.0907 28.1469 58.5767 28.7456 58.5767C29.3444 58.5767 29.8304 58.0907 29.8304 57.492C29.8304 56.8932 29.3444 56.4072 28.7456 56.4072C28.1469 56.4072 27.6609 56.8932 27.6609 57.492Z" fill="#E57E25"/>
<path d="M16.9491 50.9834H13.991C13.2902 52.6518 13.453 54.6151 14.5139 56.2064L18.983 62.9155L23.4521 56.2238C24.5141 54.6314 24.6767 52.6571 23.9739 50.9834H21.0169H16.9491Z" fill="#F3D55B"/>
<path d="M15.7287 47.7291H10.305C9.70509 47.7291 9.22021 47.2442 9.22021 46.6443C9.22021 46.0444 9.70509 45.5596 10.305 45.5596H15.7287C16.3286 45.5596 16.8135 46.0444 16.8135 46.6443C16.8133 47.2441 16.3285 47.7291 15.7287 47.7291Z" fill="#B0B6BB"/>
<path d="M13.5592 43.3902H10.305C9.70509 43.3902 9.22021 42.9053 9.22021 42.3055C9.22021 41.7056 9.70509 41.2207 10.305 41.2207H13.5592C14.1591 41.2207 14.644 41.7056 14.644 42.3055C14.644 42.9053 14.159 43.3902 13.5592 43.3902Z" fill="#B0B6BB"/>
<path d="M15.7287 39.0513H10.305C9.70509 39.0513 9.22021 38.5665 9.22021 37.9666C9.22021 37.3667 9.70509 36.8818 10.305 36.8818H15.7287C16.3286 36.8818 16.8135 37.3667 16.8135 37.9666C16.8135 38.5665 16.3285 39.0513 15.7287 39.0513Z" fill="#B0B6BB"/>
<path d="M13.5592 34.7125H10.305C9.70509 34.7125 9.22021 34.2276 9.22021 33.6277C9.22021 33.0278 9.70509 32.543 10.305 32.543H13.5592C14.1591 32.543 14.644 33.0278 14.644 33.6277C14.644 34.2276 14.159 34.7125 13.5592 34.7125Z" fill="#B0B6BB"/>
<path d="M27.6608 47.7291H22.2371C21.6372 47.7291 21.1523 47.2442 21.1523 46.6443C21.1523 46.0444 21.6372 45.5596 22.2371 45.5596H27.6608C28.2607 45.5596 28.7456 46.0444 28.7456 46.6443C28.7456 47.2441 28.2607 47.7291 27.6608 47.7291Z" fill="#B0B6BB"/>
<path d="M27.6609 43.3902H24.4066C23.8068 43.3902 23.3219 42.9053 23.3219 42.3055C23.3219 41.7056 23.8068 41.2207 24.4066 41.2207H27.6609C28.2608 41.2207 28.7456 41.7056 28.7456 42.3055C28.7456 42.9053 28.2608 43.3902 27.6609 43.3902Z" fill="#B0B6BB"/>
<path d="M27.6608 39.0513H22.2371C21.6372 39.0513 21.1523 38.5665 21.1523 37.9666C21.1523 37.3667 21.6372 36.8818 22.2371 36.8818H27.6608C28.2607 36.8818 28.7456 37.3667 28.7456 37.9666C28.7456 38.5665 28.2607 39.0513 27.6608 39.0513Z" fill="#B0B6BB"/>
<path d="M27.6609 34.7125H24.4066C23.8068 34.7125 23.3219 34.2276 23.3219 33.6277C23.3219 33.0278 23.8068 32.543 24.4066 32.543H27.6609C28.2608 32.543 28.7456 33.0278 28.7456 33.6277C28.7456 34.2276 28.2608 34.7125 27.6609 34.7125Z" fill="#B0B6BB"/>
<path d="M10.305 49.8984L4.65127 48.485C3.09902 48.0967 2.30602 46.3719 3.0209 44.9412L10.305 30.373V49.8984Z" fill="#B0B6BB"/>
<path d="M27.6609 49.8985L33.4188 48.459C34.9168 48.0848 35.6838 46.4187 34.9928 45.0367L27.661 30.373V49.8985H27.6609Z" fill="#B0B6BB"/>
</svg>
