<svg width="64" height="64" viewBox="0 0 64 64" fill="none" xmlns="http://www.w3.org/2000/svg">
<path d="M55.1724 16.3938V42.38H8.82758V16.3938L31.4593 3.81452C31.8014 3.62693 32.1986 3.62693 32.5407 3.81452L55.1724 16.3938Z" fill="#E57E25"/>
<path d="M8.82758 53.5259V46.5488H13.2414V55.9491L8.82758 53.5259Z" fill="#D25627"/>
<path d="M51.8622 55.0912V46.4678H56.276V53.3919L51.8622 55.0912Z" fill="#D25627"/>
<path d="M64 64.0003H0V54.9719C0 54.216 4.60469 52.9658 8 52.9658C12.0055 52.9658 12.0055 55.5126 16.011 55.5126C20.0166 55.5126 20.0055 52.9658 24.011 52.9658C28.0166 52.9658 28.0055 55.5126 32.011 55.5126C36.0166 55.5126 36.0055 52.9658 40.011 52.9658C44.0165 52.9658 44.0055 55.5126 48.011 55.5126C52.0165 55.5126 52.0055 52.9658 56 52.9658C59.4052 52.9658 64 54.9719 64 54.9719V64.0003Z" fill="#67B9CC"/>
<path d="M48.1954 61.7936C45.7744 61.7936 44.4822 60.7365 43.4439 59.8868C42.485 59.1023 41.728 58.4833 40.1027 58.4833C38.4773 58.4833 37.7104 59.1045 36.7493 59.8902C35.7131 60.7387 34.4232 61.7936 32.0111 61.7936C29.5989 61.7936 28.298 60.7365 27.2596 59.8868C26.3007 59.1023 25.5438 58.4833 23.9184 58.4833C22.2853 58.4833 21.5261 59.1045 20.565 59.8902C19.5289 60.7387 18.2389 61.7936 15.8268 61.7936C13.4147 61.7936 12.1159 60.7376 11.0776 59.8891C10.1165 59.1034 9.35618 58.4833 7.72418 58.4833C7.11507 58.4833 6.62073 57.9889 6.62073 57.3798C6.62073 56.7707 7.11507 56.2764 7.72418 56.2764C10.1429 56.2764 11.4362 57.3324 12.4745 58.1809C13.4356 58.9666 14.1959 59.5867 15.8279 59.5867C17.4599 59.5867 18.2102 58.9666 19.1691 58.1831C20.2075 57.3335 21.4985 56.2764 23.9206 56.2764C26.3427 56.2764 27.6227 57.3313 28.6588 58.1798C29.6199 58.9655 30.3791 59.5867 32.0122 59.5867C33.6376 59.5867 34.3945 58.9666 35.3534 58.1831C36.3907 57.3335 37.6828 56.2764 40.1038 56.2764C42.5247 56.2764 43.8058 57.3313 44.842 58.1798C45.8031 58.9655 46.5622 59.5867 48.1954 59.5867C49.8285 59.5867 50.5777 58.9666 51.5366 58.182C52.5727 57.3335 53.8616 56.2764 56.2759 56.2764C56.885 56.2764 57.3794 56.7707 57.3794 57.3798C57.3794 57.9889 56.885 58.4833 56.2759 58.4833C54.6494 58.4833 53.8936 59.1034 52.9347 59.888C51.8985 60.7365 50.6097 61.7936 48.1954 61.7936Z" fill="#2FA8CC"/>
<path d="M60.6896 40.8271H3.31029C2.09145 40.8271 1.10339 41.8152 1.10339 43.034V45.2409C1.10339 46.4598 2.09145 47.4478 3.31029 47.4478H60.6896C61.9084 47.4478 62.8965 46.4598 62.8965 45.2409V43.034C62.8965 41.8152 61.9084 40.8271 60.6896 40.8271Z" fill="#A65A47"/>
<path d="M5.78987 19.7606L31.4638 5.49738C31.797 5.312 32.202 5.312 32.5352 5.49738L58.2103 19.7606C59.818 20.6532 61.7932 19.4913 61.7932 17.653C61.7932 16.7768 61.3187 15.9702 60.5529 15.5454L33.0715 0.278069C32.405 -0.0926897 31.594 -0.0926897 30.9275 0.278069L3.44725 15.5454C2.68145 15.9702 2.20697 16.7779 2.20697 17.653C2.20697 19.4913 4.18214 20.6544 5.78987 19.7606Z" fill="#D25627"/>
<path d="M38.6207 40.8271V27.5857C38.6207 25.7573 37.1387 24.2754 35.3103 24.2754H28.6896C26.8612 24.2754 25.3793 25.7573 25.3793 27.5857V40.8271H38.6207Z" fill="#D25627"/>
<path d="M19.862 24.2754H14.3448C13.7354 24.2754 13.2413 24.7694 13.2413 25.3788V30.8961C13.2413 31.5055 13.7354 31.9995 14.3448 31.9995H19.862C20.4714 31.9995 20.9655 31.5055 20.9655 30.8961V25.3788C20.9655 24.7694 20.4714 24.2754 19.862 24.2754Z" fill="#F0C419"/>
<path d="M49.6551 24.2754H44.1379C43.5285 24.2754 43.0344 24.7694 43.0344 25.3788V30.8961C43.0344 31.5055 43.5285 31.9995 44.1379 31.9995H49.6551C50.2645 31.9995 50.7586 31.5055 50.7586 30.8961V25.3788C50.7586 24.7694 50.2645 24.2754 49.6551 24.2754Z" fill="#F0C419"/>
<path d="M55.1724 18.0742V18.7584H8.82758V18.0742L19.509 12.1377H44.491L55.1724 18.0742Z" fill="#D25627"/>
<path d="M5.78987 19.7606L31.4638 5.49738C31.797 5.312 32.202 5.312 32.5352 5.49738L58.2103 19.7606C59.818 20.6532 61.7932 19.4913 61.7932 17.653C61.7932 16.7768 61.3187 15.9702 60.5529 15.5454L33.0715 0.278069C32.405 -0.0926897 31.594 -0.0926897 30.9275 0.278069L3.44725 15.5454C2.68145 15.9702 2.20697 16.7779 2.20697 17.653C2.20697 19.4913 4.18214 20.6544 5.78987 19.7606Z" fill="#A65A47"/>
</svg>
