<svg width="64" height="64" viewBox="0 0 64 64" fill="none" xmlns="http://www.w3.org/2000/svg">
<g clip-path="url(#clip0_0_578)">
<path d="M45.2409 45.2416C44.9649 45.2418 44.699 45.1384 44.4957 44.9517L32 33.497L19.5044 44.9517C19.2137 45.2181 18.803 45.3092 18.4269 45.1907C18.0509 45.0722 17.7666 44.7621 17.6812 44.3771C17.5959 43.9922 17.7223 43.591 18.013 43.3246L31.2544 31.1866C31.6762 30.7998 32.3239 30.7998 32.7457 31.1866L45.9871 43.3246C46.3228 43.6321 46.4351 44.1142 46.2699 44.5384C46.1048 44.9626 45.6961 45.2419 45.2409 45.2416Z" fill="#5E5F62"/>
<path d="M51.8621 0H12.1379C10.9206 0.00355731 9.93459 0.989538 9.93103 2.2069V29.7931C9.93461 31.0105 10.9206 31.9964 12.1379 32H51.8621C53.0794 31.9964 54.0654 31.0105 54.069 29.7931V2.2069C54.0654 0.989538 53.0794 0.00355731 51.8621 0Z" fill="#95A5A5"/>
<path d="M23.1724 19.8623V32.0002H12.1379C10.9206 31.9967 9.93461 31.0107 9.93103 29.7933V19.8623H23.1724Z" fill="#7F8C8D"/>
<path d="M54.069 2.2069V8.82759H9.93103V2.2069C9.93459 0.989538 10.9206 0.00355731 12.1379 0H51.8621C53.0794 0.00355731 54.0654 0.989538 54.069 2.2069Z" fill="#5E5F62"/>
<path d="M54.0689 8.82715H23.1724V16.5513H54.0689V8.82715Z" fill="#7F8C8D"/>
<path d="M49.6551 5.51744H48.5517C47.9423 5.51744 47.4482 5.02341 47.4482 4.414C47.4482 3.80458 47.9423 3.31055 48.5517 3.31055H49.6551C50.2646 3.31055 50.7586 3.80458 50.7586 4.414C50.7586 5.02341 50.2646 5.51744 49.6551 5.51744Z" fill="#FF5364"/>
<path d="M44.1379 5.51744H43.0345C42.4251 5.51744 41.931 5.02341 41.931 4.414C41.931 3.80458 42.4251 3.31055 43.0345 3.31055H44.1379C44.7473 3.31055 45.2414 3.80458 45.2414 4.414C45.2414 5.02341 44.7473 5.51744 44.1379 5.51744Z" fill="#F3D55B"/>
<path d="M38.6207 5.51744H37.5173C36.9078 5.51744 36.4138 5.02341 36.4138 4.414C36.4138 3.80458 36.9078 3.31055 37.5173 3.31055H38.6207C39.2301 3.31055 39.7242 3.80458 39.7242 4.414C39.7242 5.02341 39.2301 5.51744 38.6207 5.51744Z" fill="#71C285"/>
<path d="M23.1724 8.82715H9.93103V19.8616H23.1724V8.82715Z" fill="#BDC3C7"/>
<path d="M9.37931 41.9307C4.19928 41.9307 0 42.9187 0 44.1376V61.7927C0 63.0065 4.20414 63.9996 9.37931 63.9996C14.5545 63.9996 18.7586 63.0065 18.7586 61.7927V44.1376C18.7586 42.9187 14.5594 41.9307 9.37931 41.9307Z" fill="#556080"/>
<path d="M54.6206 41.9307C49.4406 41.9307 45.2413 42.9187 45.2413 44.1376V61.7927C45.2413 63.0065 49.4455 63.9996 54.6206 63.9996C59.7958 63.9996 64 63.0065 64 61.7927V44.1376C64 42.9187 59.8007 41.9307 54.6206 41.9307Z" fill="#556080"/>
<path d="M9.37931 46.3445C14.5594 46.3445 18.7586 45.3564 18.7586 44.1376C18.7586 42.9187 14.5594 41.9307 9.37931 41.9307C4.19926 41.9307 0 42.9187 0 44.1376C0 45.3564 4.19926 46.3445 9.37931 46.3445Z" fill="#8697CB"/>
<path d="M10.3503 50.759C10.3485 51.3677 9.85556 51.8607 9.2469 51.8625C7.42621 51.8625 2.80276 51.7521 0 50.737V48.3535C0.849655 48.8611 4.07172 49.6556 9.2469 49.6556C9.85556 49.6574 10.3485 50.1504 10.3503 50.759Z" fill="#8697CB"/>
<path d="M10.3503 55.1721C10.3485 55.7808 9.85556 56.2737 9.2469 56.2756C7.42621 56.2756 2.80276 56.1652 0 55.15V52.7666C0.849655 53.2742 4.07172 54.0687 9.2469 54.0687C9.85556 54.0705 10.3485 54.5635 10.3503 55.1721Z" fill="#8697CB"/>
<path d="M10.3503 59.5862C10.3485 60.1948 9.85556 60.6878 9.2469 60.6896C7.42621 60.6896 2.80276 60.5793 0 59.5641V57.1807C0.849655 57.6883 4.07172 58.4827 9.2469 58.4827C9.85556 58.4846 10.3485 58.9775 10.3503 59.5862Z" fill="#8697CB"/>
<path d="M54.6208 46.3445C59.8008 46.3445 64.0001 45.3564 64.0001 44.1376C64.0001 42.9187 59.8008 41.9307 54.6208 41.9307C49.4407 41.9307 45.2415 42.9187 45.2415 44.1376C45.2415 45.3564 49.4407 46.3445 54.6208 46.3445Z" fill="#8697CB"/>
<path d="M55.5917 50.759C55.5899 51.3677 55.0969 51.8607 54.4882 51.8625C52.6675 51.8625 48.0441 51.7521 45.2413 50.737V48.3535C46.091 48.8611 49.3131 49.6556 54.4882 49.6556C55.0969 49.6574 55.5899 50.1504 55.5917 50.759Z" fill="#8697CB"/>
<path d="M55.5917 55.1721C55.5899 55.7808 55.0969 56.2737 54.4882 56.2756C52.6675 56.2756 48.0441 56.1652 45.2413 55.15V52.7666C46.091 53.2742 49.3131 54.0687 54.4882 54.0687C55.0969 54.0705 55.5899 54.5635 55.5917 55.1721Z" fill="#8697CB"/>
<path d="M55.5917 59.5862C55.5899 60.1948 55.0969 60.6878 54.4882 60.6896C52.6675 60.6896 48.0441 60.5793 45.2413 59.5641V57.1807C46.091 57.6883 49.3131 58.4827 54.4882 58.4827C55.0969 58.4846 55.5899 58.9775 55.5917 59.5862Z" fill="#8697CB"/>
</g>
<defs>
<clipPath id="clip0_0_578">
<rect width="64" height="64" fill="white"/>
</clipPath>
</defs>
</svg>
