<svg width="40" height="40" viewBox="0 0 40 40" fill="none" xmlns="http://www.w3.org/2000/svg">
<g clip-path="url(#clip0_134_1916)">
<path d="M15.6616 14.1931L19.7578 14.1924C22.4779 14.1922 24.6829 11.9869 24.6826 9.26689C24.6824 6.54683 22.4772 4.34185 19.7571 4.34208C19.3574 4.34208 18.9692 4.39099 18.597 4.48091C17.479 2.5053 15.3587 1.17172 12.9267 1.17188C10.4947 1.17203 8.37455 2.50593 7.25691 4.48169C6.88472 4.39185 6.49652 4.34302 6.09676 4.34302C3.37662 4.34326 1.17172 6.54847 1.17188 9.26853C1.17203 11.9886 3.37733 14.1936 6.09738 14.1933L10.1929 14.193M12.9272 25.0261L7.97166 20.0706V18.9333H10.1929V10.0588H15.6616V18.9333H17.8828V20.0706L12.9272 25.0261ZM12.9272 25.0261V32.9789M34.1615 31.7966V35.3123M34.1615 20.078V23.5936M12.9272 32.9789C11.6328 32.9789 10.5835 34.0282 10.5835 35.3226C10.5835 36.6171 11.6328 37.6664 12.9273 37.6664C14.2217 37.6664 15.271 36.617 15.271 35.3226M12.9272 32.9789C14.2217 32.9789 15.271 34.0282 15.271 35.3226M22.4428 35.3226H15.271M22.4427 31.7966H38.8281V38.8278H22.4427V31.7966ZM24.7657 27.1092H36.5052V31.7966H24.7657V27.1092ZM22.4427 20.078H38.8281V27.1092H22.4427V20.078Z" stroke="url(#paint0_linear_134_1916)" stroke-width="2" stroke-miterlimit="10"/>
</g>
<defs>
<linearGradient id="paint0_linear_134_1916" x1="40.7246" y1="-1.24393" x2="28.6326" y2="36.4381" gradientUnits="userSpaceOnUse">
<stop stop-color="#0FA6FC"/>
<stop offset="0.953125" stop-color="#D048FC"/>
</linearGradient>
<clipPath id="clip0_134_1916">
<rect width="40" height="40" fill="white"/>
</clipPath>
</defs>
</svg>
