<svg width="40" height="40" viewBox="0 0 40 40" fill="none" xmlns="http://www.w3.org/2000/svg">
<g clip-path="url(#clip0_134_1886)">
<path d="M32.8906 34.1406C34.8323 34.1406 36.4063 32.5666 36.4063 30.625V18.9063C36.4063 16.9646 34.8323 15.3795 32.8906 15.3795H7.10938C5.16773 15.3795 3.59375 16.9646 3.59375 18.9063V30.625C3.59375 32.5666 5.16773 34.1406 7.10938 34.1406M15.3125 34.1406V38.8281M24.6875 34.1406V38.8281M27.9966 15.3795C29.7148 15.3795 31.1077 13.9977 31.1077 12.2795C31.1077 11.1921 30.5494 10.2355 29.7041 9.6793C30.158 8.775 30.1633 7.66742 29.6195 6.7257C29.0758 5.78391 28.114 5.23469 27.1039 5.17563C27.0448 4.16555 26.4956 3.20375 25.5538 2.66C24.612 2.11625 23.5045 2.12148 22.6002 2.57539C22.044 1.73023 21.0874 1.17188 20 1.17188C18.9126 1.17188 17.9559 1.73023 17.3998 2.57547C16.4955 2.12156 15.3879 2.11633 14.4462 2.66008C13.5045 3.20383 12.9552 4.16562 12.8961 5.1757C11.886 5.23477 10.9242 5.78398 10.3805 6.72578C9.83672 7.66758 9.84195 8.77516 10.2959 9.67938C9.45063 10.2355 8.89227 11.1921 8.89227 12.2796C8.89227 13.9978 10.2852 15.3795 12.0034 15.3795M20 24.7656C18.7056 24.7656 17.6563 25.815 17.6563 27.1094C17.6563 28.4038 18.7056 29.4531 20 29.4531C21.2944 29.4531 22.3438 28.4038 22.3438 27.1094C22.3438 25.815 21.2944 24.7656 20 24.7656ZM20 24.7656V15.3795M10.625 24.7656C9.33058 24.7656 8.28125 25.815 8.28125 27.1094C8.28125 28.4038 9.33058 29.4531 10.625 29.4531C11.9194 29.4531 12.9688 28.4038 12.9688 27.1094C12.9688 25.815 11.9194 24.7656 10.625 24.7656ZM10.625 24.7656V20.0781H15.3125V15.3795M29.375 24.7656C28.0806 24.7656 27.0313 25.815 27.0313 27.1094C27.0313 28.4038 28.0806 29.4531 29.375 29.4531C30.6694 29.4531 31.7188 28.4038 31.7188 27.1094C31.7188 25.815 30.6694 24.7656 29.375 24.7656ZM29.375 24.7656V20.0781H24.6875V15.3795M1.17188 34.1406C1.17188 36.7295 3.27055 38.8281 5.85938 38.8281H34.1406C36.7295 38.8281 38.8281 36.7295 38.8281 34.1406H1.17188Z" stroke="url(#paint0_linear_134_1886)" stroke-width="2" stroke-miterlimit="10"/>
</g>
<defs>
<linearGradient id="paint0_linear_134_1886" x1="40.7247" y1="-1.24395" x2="28.6325" y2="36.4383" gradientUnits="userSpaceOnUse">
<stop stop-color="#0FA6FC"/>
<stop offset="0.953125" stop-color="#D048FC"/>
</linearGradient>
<clipPath id="clip0_134_1886">
<rect width="40" height="40" fill="white"/>
</clipPath>
</defs>
</svg>
