<svg width="64" height="64" viewBox="0 0 64 64" fill="none" xmlns="http://www.w3.org/2000/svg">
<path d="M32 55.4665C44.9603 55.4665 55.4667 44.9602 55.4667 31.9999C55.4667 19.0396 44.9603 8.5332 32 8.5332C19.0397 8.5332 8.53333 19.0396 8.53333 31.9999C8.53333 44.9602 19.0397 55.4665 32 55.4665Z" fill="#3F5C6C"/>
<path d="M61.8346 27.5516L58.2293 25.5889L55.0826 17.9836L56.2453 14.0476C56.4698 13.2991 56.265 12.4878 55.712 11.9356L52.064 8.2876C51.5118 7.73461 50.7005 7.52972 49.952 7.75426L46.016 8.91693L38.4106 5.77026L36.448 2.16493C36.082 1.47396 35.3632 1.04271 34.5813 1.04493H29.4186C28.6367 1.04271 27.918 1.47396 27.552 2.16493L25.5893 5.77026L17.984 8.91693L14.048 7.75426C13.2995 7.52972 12.4881 7.73461 11.936 8.2876L8.28796 11.9356C7.73497 12.4878 7.53009 13.2991 7.75463 14.0476L8.9173 17.9836L5.77063 25.5889L2.1653 27.5516C1.47433 27.9176 1.04308 28.6364 1.0453 29.4183V34.5809C1.04308 35.3628 1.47433 36.0816 2.1653 36.4476L5.77063 38.4103L8.9173 46.0156L7.75463 49.9516C7.53009 50.7001 7.73497 51.5114 8.28796 52.0636L11.936 55.7116C12.4881 56.2646 13.2995 56.4695 14.048 56.2449L17.984 55.0823L25.5893 58.2289L27.552 61.8343C27.918 62.5252 28.6367 62.9565 29.4186 62.9543H34.5813C35.3632 62.9565 36.082 62.5252 36.448 61.8343L38.4106 58.2289L46.016 55.0823L49.952 56.2449C50.7005 56.4695 51.5118 56.2646 52.064 55.7116L55.712 52.0636C56.265 51.5114 56.4698 50.7001 56.2453 49.9516L55.0826 46.0156L58.2293 38.4103L61.8346 36.4476C62.5256 36.0816 62.9569 35.3628 62.9546 34.5809V29.4183C62.9569 28.6364 62.5256 27.9176 61.8346 27.5516ZM32 53.3329C20.2179 53.3329 10.6666 43.7817 10.6666 31.9996C10.6666 20.2175 20.2179 10.6663 32 10.6663C43.782 10.6663 53.3333 20.2175 53.3333 31.9996C53.335 37.6581 51.0879 43.0853 47.0868 47.0864C43.0856 51.0876 37.6584 53.3346 32 53.3329Z" fill="#BDC3C7"/>
<path fill-rule="evenodd" clip-rule="evenodd" d="M23.4667 21.3333C22.8776 21.3333 22.4 20.8558 22.4 20.2667V17.0667C22.4 16.4776 22.8776 16 23.4667 16C24.0558 16 24.5334 16.4776 24.5334 17.0667V20.2667C24.5334 20.8558 24.0558 21.3333 23.4667 21.3333Z" fill="#F0C419"/>
<path fill-rule="evenodd" clip-rule="evenodd" d="M27.7333 21.3333C27.1442 21.3333 26.6666 20.8558 26.6666 20.2667V17.0667C26.6666 16.4776 27.1442 16 27.7333 16C28.3224 16 28.8 16.4776 28.8 17.0667V20.2667C28.8 20.8558 28.3224 21.3333 27.7333 21.3333Z" fill="#F0C419"/>
<path fill-rule="evenodd" clip-rule="evenodd" d="M32 21.3333C31.4109 21.3333 30.9333 20.8558 30.9333 20.2667V17.0667C30.9333 16.4776 31.4109 16 32 16C32.5891 16 33.0667 16.4776 33.0667 17.0667V20.2667C33.0667 20.8558 32.5891 21.3333 32 21.3333Z" fill="#F0C419"/>
<path fill-rule="evenodd" clip-rule="evenodd" d="M36.2666 21.3333C35.6775 21.3333 35.2 20.8558 35.2 20.2667V17.0667C35.2 16.4776 35.6775 16 36.2666 16C36.8557 16 37.3333 16.4776 37.3333 17.0667V20.2667C37.3333 20.8558 36.8557 21.3333 36.2666 21.3333Z" fill="#F0C419"/>
<path fill-rule="evenodd" clip-rule="evenodd" d="M40.5333 21.3333C39.9442 21.3333 39.4667 20.8558 39.4667 20.2667V17.0667C39.4667 16.4776 39.9442 16 40.5333 16C41.1224 16 41.6 16.4776 41.6 17.0667V20.2667C41.6 20.8558 41.1224 21.3333 40.5333 21.3333Z" fill="#F0C419"/>
<path fill-rule="evenodd" clip-rule="evenodd" d="M23.4667 48.0003C22.8776 48.0003 22.4 47.5228 22.4 46.9337V43.7337C22.4 43.1446 22.8776 42.667 23.4667 42.667C24.0558 42.667 24.5334 43.1446 24.5334 43.7337V46.9337C24.5334 47.5228 24.0558 48.0003 23.4667 48.0003Z" fill="#F0C419"/>
<path fill-rule="evenodd" clip-rule="evenodd" d="M27.7333 48.0003C27.1442 48.0003 26.6666 47.5228 26.6666 46.9337V43.7337C26.6666 43.1446 27.1442 42.667 27.7333 42.667C28.3224 42.667 28.8 43.1446 28.8 43.7337V46.9337C28.8 47.5228 28.3224 48.0003 27.7333 48.0003Z" fill="#F0C419"/>
<path fill-rule="evenodd" clip-rule="evenodd" d="M32 48.0003C31.4109 48.0003 30.9333 47.5228 30.9333 46.9337V43.7337C30.9333 43.1446 31.4109 42.667 32 42.667C32.5891 42.667 33.0667 43.1446 33.0667 43.7337V46.9337C33.0667 47.5228 32.5891 48.0003 32 48.0003Z" fill="#F0C419"/>
<path fill-rule="evenodd" clip-rule="evenodd" d="M36.2666 48.0003C35.6775 48.0003 35.2 47.5228 35.2 46.9337V43.7337C35.2 43.1446 35.6775 42.667 36.2666 42.667C36.8557 42.667 37.3333 43.1446 37.3333 43.7337V46.9337C37.3333 47.5228 36.8557 48.0003 36.2666 48.0003Z" fill="#F0C419"/>
<path fill-rule="evenodd" clip-rule="evenodd" d="M40.5333 48.0003C39.9442 48.0003 39.4667 47.5228 39.4667 46.9337V43.7337C39.4667 43.1446 39.9442 42.667 40.5333 42.667C41.1224 42.667 41.6 43.1446 41.6 43.7337V46.9337C41.6 47.5228 41.1224 48.0003 40.5333 48.0003Z" fill="#F0C419"/>
<path fill-rule="evenodd" clip-rule="evenodd" d="M46.9333 24.5337H43.7333C43.1442 24.5337 42.6666 24.0562 42.6666 23.4671C42.6666 22.878 43.1442 22.4004 43.7333 22.4004H46.9333C47.5224 22.4004 48 22.878 48 23.4671C48 24.0562 47.5224 24.5337 46.9333 24.5337Z" fill="#F0C419"/>
<path fill-rule="evenodd" clip-rule="evenodd" d="M46.9333 28.8003H43.7333C43.1442 28.8003 42.6666 28.3228 42.6666 27.7337C42.6666 27.1446 43.1442 26.667 43.7333 26.667H46.9333C47.5224 26.667 48 27.1446 48 27.7337C48 28.3228 47.5224 28.8003 46.9333 28.8003Z" fill="#F0C419"/>
<path fill-rule="evenodd" clip-rule="evenodd" d="M46.9333 33.0669H43.7333C43.1442 33.0669 42.6666 32.5894 42.6666 32.0003C42.6666 31.4112 43.1442 30.9336 43.7333 30.9336H46.9333C47.5224 30.9336 48 31.4112 48 32.0003C48 32.5894 47.5224 33.0669 46.9333 33.0669Z" fill="#F0C419"/>
<path fill-rule="evenodd" clip-rule="evenodd" d="M46.9333 37.3335H43.7333C43.1442 37.3335 42.6666 36.856 42.6666 36.2669C42.6666 35.6778 43.1442 35.2002 43.7333 35.2002H46.9333C47.5224 35.2002 48 35.6778 48 36.2669C48 36.856 47.5224 37.3335 46.9333 37.3335Z" fill="#F0C419"/>
<path fill-rule="evenodd" clip-rule="evenodd" d="M46.9333 41.6001H43.7333C43.1442 41.6001 42.6666 41.1226 42.6666 40.5335C42.6666 39.9444 43.1442 39.4668 43.7333 39.4668H46.9333C47.5224 39.4668 48 39.9444 48 40.5335C48 41.1226 47.5224 41.6001 46.9333 41.6001Z" fill="#F0C419"/>
<path fill-rule="evenodd" clip-rule="evenodd" d="M20.2667 24.5337H17.0667C16.4776 24.5337 16 24.0562 16 23.4671C16 22.878 16.4776 22.4004 17.0667 22.4004H20.2667C20.8558 22.4004 21.3333 22.878 21.3333 23.4671C21.3333 24.0562 20.8558 24.5337 20.2667 24.5337Z" fill="#F0C419"/>
<path fill-rule="evenodd" clip-rule="evenodd" d="M20.2667 28.8003H17.0667C16.4776 28.8003 16 28.3228 16 27.7337C16 27.1446 16.4776 26.667 17.0667 26.667H20.2667C20.8558 26.667 21.3333 27.1446 21.3333 27.7337C21.3333 28.3228 20.8558 28.8003 20.2667 28.8003Z" fill="#F0C419"/>
<path fill-rule="evenodd" clip-rule="evenodd" d="M20.2667 33.0669H17.0667C16.4776 33.0669 16 32.5894 16 32.0003C16 31.4112 16.4776 30.9336 17.0667 30.9336H20.2667C20.8558 30.9336 21.3333 31.4112 21.3333 32.0003C21.3333 32.5894 20.8558 33.0669 20.2667 33.0669Z" fill="#F0C419"/>
<path fill-rule="evenodd" clip-rule="evenodd" d="M20.2667 37.3335H17.0667C16.4776 37.3335 16 36.856 16 36.2669C16 35.6778 16.4776 35.2002 17.0667 35.2002H20.2667C20.8558 35.2002 21.3333 35.6778 21.3333 36.2669C21.3333 36.856 20.8558 37.3335 20.2667 37.3335Z" fill="#F0C419"/>
<path fill-rule="evenodd" clip-rule="evenodd" d="M20.2667 41.6001H17.0667C16.4776 41.6001 16 41.1226 16 40.5335C16 39.9444 16.4776 39.4668 17.0667 39.4668H20.2667C20.8558 39.4668 21.3333 39.9444 21.3333 40.5335C21.3333 41.1226 20.8558 41.6001 20.2667 41.6001Z" fill="#F0C419"/>
<path d="M41.5999 20.2666H22.3999C21.2217 20.2666 20.2666 21.2217 20.2666 22.3999V41.5999C20.2666 42.7781 21.2217 43.7333 22.3999 43.7333H41.5999C42.7781 43.7333 43.7333 42.7781 43.7333 41.5999V22.3999C43.7333 21.2217 42.7781 20.2666 41.5999 20.2666Z" fill="#26B99A"/>
<path d="M32.0597 33.7419C32.0533 33.7259 32.0458 33.711 32.0384 33.6939L29.2437 27.3067C29.0737 26.9187 28.6903 26.668 28.2666 26.668C27.843 26.668 27.4595 26.9187 27.2896 27.3067L23.5562 35.84C23.3419 36.3751 23.5914 36.9836 24.1195 37.2142C24.6477 37.4449 25.2636 37.2142 25.5104 36.6934L26.1642 35.2H30.369L31.0229 36.6934C31.1925 37.0819 31.576 37.3332 32 37.3334C32.1469 37.3336 32.2922 37.3031 32.4266 37.2438C32.6859 37.1305 32.8896 36.9189 32.9928 36.6554C33.0961 36.3919 33.0904 36.0982 32.977 35.839L32.0597 33.7419ZM27.0933 33.0667L28.2666 30.4L29.44 33.0667H27.0933Z" fill="white"/>
<path fill-rule="evenodd" clip-rule="evenodd" d="M39.4666 35.1993H38.4V28.7993H39.4666C40.0557 28.7993 40.5333 28.3218 40.5333 27.7327C40.5333 27.1436 40.0557 26.666 39.4666 26.666H35.2C34.6109 26.666 34.1333 27.1436 34.1333 27.7327C34.1333 28.3218 34.6109 28.7993 35.2 28.7993H36.2666V35.1993H35.2C34.6109 35.1993 34.1333 35.6769 34.1333 36.266C34.1333 36.8551 34.6109 37.3327 35.2 37.3327H39.4666C40.0557 37.3327 40.5333 36.8551 40.5333 36.266C40.5333 35.6769 40.0557 35.1993 39.4666 35.1993Z" fill="white"/>
</svg>
