<svg width="73" height="33" viewBox="0 0 73 33" fill="none" xmlns="http://www.w3.org/2000/svg">
<rect width="73" height="7" rx="3.5" fill="#0B1E48"/>
<path d="M39 13.5234L33 14.2248V17.136L39 16.4346V13.5234Z" fill="#BED2FA"/>
<path d="M39 25.0361L33 25.7441V28.6553L39 27.9473V25.0361Z" fill="#BED2FA"/>
<path d="M39 21.1992L33 21.9072V24.8184L39 24.1104V21.1992Z" fill="#BED2FA"/>
<path d="M39 17.3613L33 18.0627V20.9739L39 20.2725V17.3613Z" fill="#BED2FA"/>
<path d="M39 7H33V9.46129L39 8.75334V7Z" fill="#BED2FA"/>
<path d="M39 9.67969L33 10.3876V13.2988L39 12.5909V9.67969Z" fill="#BED2FA"/>
<path d="M39 28.8799L33 29.5812V32.4924L39 32.4925V28.8799Z" fill="#BED2FA"/>
<path d="M39 8.75293L33 9.46052V10.3863L39 9.67874V8.75293Z" fill="#142E63"/>
<path d="M39 12.5908L33 13.2984V14.2242L39 13.5232V12.5908Z" fill="#142E63"/>
<path d="M39 16.4346L33 17.1355V18.0614L39 17.3604V16.4346Z" fill="#142E63"/>
<path d="M39 20.2725L33 20.9734V21.9059L39 21.1983V20.2725Z" fill="#142E63"/>
<path d="M39 24.1104L33 24.8179V25.7438L39 25.0362V24.1104Z" fill="#142E63"/>
<path d="M39 27.9473L33 28.6549V29.5807L39 28.8797V27.9473Z" fill="#142E63"/>
</svg>
