<svg width="24" height="24" viewBox="0 0 24 24" fill="none" xmlns="http://www.w3.org/2000/svg">
<g clip-path="url(#clip0_23_4495)">
<path opacity="0.1" d="M12 23.1431C18.1541 23.1431 23.1429 18.1543 23.1429 12.0003C23.1429 5.84625 18.1541 0.857422 12 0.857422C5.846 0.857422 0.857178 5.84625 0.857178 12.0003C0.857178 18.1543 5.846 23.1431 12 23.1431Z" fill="#1589FF"/>
<path d="M11.9999 22.2853C17.6806 22.2853 22.2857 17.6802 22.2857 11.9996C22.2857 6.31894 17.6806 1.71387 11.9999 1.71387C6.3193 1.71387 1.71423 6.31894 1.71423 11.9996C1.71423 17.6802 6.3193 22.2853 11.9999 22.2853Z" fill="#1589FF"/>
<path d="M17.5929 9.04329L10.9072 16.3719C10.4572 16.8862 9.68579 16.8862 9.23577 16.3719L6.40719 13.2219C6.02149 12.7719 6.02149 12.0647 6.47147 11.6147C6.92149 11.229 7.62861 11.229 8.07863 11.679L10.0715 13.929L15.9215 7.56473C16.3715 7.11471 17.0786 7.05043 17.5286 7.50045C17.9786 7.88615 17.9786 8.6576 17.5929 9.04329Z" fill="white"/>
</g>
<defs>
<clipPath id="clip0_23_4495">
<rect width="24" height="24" fill="white"/>
</clipPath>
</defs>
</svg>
