<svg width="40" height="40" viewBox="0 0 40 40" fill="none" xmlns="http://www.w3.org/2000/svg">
<g clip-path="url(#clip0_134_1909)">
<path d="M40 4.76562H30.5469V2.42188H9.45312V4.76562H0V35.2344H9.45312V37.5781H30.5469V35.2344H40V4.76562ZM30.5469 14.1406H32.9688V16.4844H30.5469V14.1406ZM2.34375 32.8906V7.10938H9.45312V11.7969H4.6875V18.8281H9.45312V21.1719H4.6875V23.5156H9.45312V25.8594H4.6875V28.2031H9.45312V32.8906H2.34375ZM9.45312 14.1406V16.4844H7.03125V14.1406H9.45312ZM28.2031 35.2344H11.7969V4.76562H28.2031V35.2344ZM37.6562 32.8906H30.5469V28.2031H35.3125V25.8594H30.5469V23.5156H35.3125V21.1719H30.5469V18.8281H35.3125V11.7969H30.5469V7.10938H37.6562V32.8906Z" fill="url(#paint0_linear_134_1909)"/>
<path d="M25.8594 7.10938H14.1406V18.8281H25.8594V7.10938ZM23.5156 16.4844H16.4844V9.45313H23.5156V16.4844Z" fill="url(#paint1_linear_134_1909)"/>
<path d="M18.8281 21.1719H25.8594V23.5156H18.8281V21.1719Z" fill="url(#paint2_linear_134_1909)"/>
<path d="M14.1406 21.1719H16.4844V23.5156H14.1406V21.1719Z" fill="url(#paint3_linear_134_1909)"/>
<path d="M18.8281 25.8594H25.8594V28.2031H18.8281V25.8594Z" fill="url(#paint4_linear_134_1909)"/>
<path d="M14.1406 25.8594H16.4844V28.2031H14.1406V25.8594Z" fill="url(#paint5_linear_134_1909)"/>
<path d="M18.8281 30.5469H25.8594V32.8906H18.8281V30.5469Z" fill="url(#paint6_linear_134_1909)"/>
<path d="M14.1406 30.5469H16.4844V32.8906H14.1406V30.5469Z" fill="url(#paint7_linear_134_1909)"/>
</g>
<defs>
<linearGradient id="paint0_linear_134_1909" x1="42.0146" y1="0.166434" x2="31.877" y2="36.1105" gradientUnits="userSpaceOnUse">
<stop stop-color="#0FA6FC"/>
<stop offset="0.953125" stop-color="#D048FC"/>
</linearGradient>
<linearGradient id="paint1_linear_134_1909" x1="42.0146" y1="0.166434" x2="31.877" y2="36.1105" gradientUnits="userSpaceOnUse">
<stop stop-color="#0FA6FC"/>
<stop offset="0.953125" stop-color="#D048FC"/>
</linearGradient>
<linearGradient id="paint2_linear_134_1909" x1="42.0146" y1="0.166434" x2="31.877" y2="36.1105" gradientUnits="userSpaceOnUse">
<stop stop-color="#0FA6FC"/>
<stop offset="0.953125" stop-color="#D048FC"/>
</linearGradient>
<linearGradient id="paint3_linear_134_1909" x1="42.0146" y1="0.166434" x2="31.877" y2="36.1105" gradientUnits="userSpaceOnUse">
<stop stop-color="#0FA6FC"/>
<stop offset="0.953125" stop-color="#D048FC"/>
</linearGradient>
<linearGradient id="paint4_linear_134_1909" x1="42.0146" y1="0.166434" x2="31.877" y2="36.1105" gradientUnits="userSpaceOnUse">
<stop stop-color="#0FA6FC"/>
<stop offset="0.953125" stop-color="#D048FC"/>
</linearGradient>
<linearGradient id="paint5_linear_134_1909" x1="42.0146" y1="0.166434" x2="31.877" y2="36.1105" gradientUnits="userSpaceOnUse">
<stop stop-color="#0FA6FC"/>
<stop offset="0.953125" stop-color="#D048FC"/>
</linearGradient>
<linearGradient id="paint6_linear_134_1909" x1="42.0146" y1="0.166434" x2="31.877" y2="36.1105" gradientUnits="userSpaceOnUse">
<stop stop-color="#0FA6FC"/>
<stop offset="0.953125" stop-color="#D048FC"/>
</linearGradient>
<linearGradient id="paint7_linear_134_1909" x1="42.0146" y1="0.166434" x2="31.877" y2="36.1105" gradientUnits="userSpaceOnUse">
<stop stop-color="#0FA6FC"/>
<stop offset="0.953125" stop-color="#D048FC"/>
</linearGradient>
<clipPath id="clip0_134_1909">
<rect width="40" height="40" fill="white"/>
</clipPath>
</defs>
</svg>
