<svg width="20" height="20" viewBox="0 0 20 20" fill="none" xmlns="http://www.w3.org/2000/svg">
<path d="M14.1667 15C13.9167 15 13.75 14.9167 13.5833 14.75L5.25 6.41667C4.91667 6.08333 4.91667 5.58333 5.25 5.25C5.58333 4.91667 6.08333 4.91667 6.41667 5.25L14.75 13.5833C15.0833 13.9167 15.0833 14.4167 14.75 14.75C14.5833 14.9167 14.4167 15 14.1667 15Z" fill="white"/>
<path d="M14.1673 15.0007H6.66732C6.16732 15.0007 5.83398 14.6673 5.83398 14.1673C5.83398 13.6673 6.16732 13.334 6.66732 13.334H13.334V6.66732C13.334 6.16732 13.6673 5.83398 14.1673 5.83398C14.6673 5.83398 15.0007 6.16732 15.0007 6.66732V14.1673C15.0007 14.6673 14.6673 15.0007 14.1673 15.0007Z" fill="white"/>
</svg>
