<svg width="36" height="31" viewBox="0 0 36 31" fill="none" xmlns="http://www.w3.org/2000/svg">
<path d="M34.8779 18.8662L33.0325 18.5577C33.0325 18.5522 33.027 18.5522 33.027 18.5467L34.1177 17.0208C34.327 16.7289 34.294 16.3323 34.0406 16.0844L31.391 13.4348C31.1376 13.1814 30.741 13.1484 30.4546 13.3577L28.9287 14.4429C28.9232 14.4429 28.9232 14.4374 28.9177 14.4374L28.6092 12.592C28.5707 12.3497 28.4109 12.1624 28.2016 12.0632V9.79923C28.2016 9.39711 27.8766 9.07211 27.4745 9.07211H22.3736V7.61237H27.4745C27.8766 7.61237 28.2016 7.28737 28.2016 6.88525V1.05177C28.2016 0.649654 27.8766 0.324654 27.4745 0.324654H1.23762C0.835498 0.324654 0.510498 0.649654 0.510498 1.05177V6.87974C0.510498 7.28186 0.835498 7.60686 1.23762 7.60686H6.33846V9.0666H1.23762C0.835498 9.0666 0.510498 9.3916 0.510498 9.79372V15.6272C0.510498 16.0293 0.835498 16.3543 1.23762 16.3543H6.33846V17.8141H1.23762C0.835498 17.8141 0.510498 18.1391 0.510498 18.5412V24.3691C0.510498 24.7713 0.835498 25.0963 1.23762 25.0963H18.4791L17.9118 25.8895C17.7024 26.1814 17.7355 26.578 17.9889 26.8259L20.6385 29.4755C20.8919 29.7289 21.2885 29.7619 21.5749 29.5526L23.1007 28.4619C23.1063 28.4619 23.1063 28.4675 23.1118 28.4675L23.4202 30.3128C23.4808 30.6653 23.7838 30.9242 24.1363 30.9242H27.8821C28.2402 30.9242 28.5431 30.6653 28.5982 30.3128L28.9067 28.4675C28.9122 28.4675 28.9122 28.4619 28.9177 28.4619L30.4435 29.5526C30.7355 29.7619 31.1321 29.7289 31.38 29.4755L34.0296 26.8259C34.283 26.5725 34.316 26.1759 34.1067 25.8895L33.016 24.3636C33.016 24.3581 33.0215 24.3581 33.0215 24.3526L34.8669 24.0441C35.2194 23.9836 35.4783 23.6806 35.4783 23.328V19.5823C35.4893 19.2242 35.2304 18.9213 34.8779 18.8662ZM1.97024 1.77889H26.7474V6.15262H1.97024V1.77889ZM7.79821 7.61237H20.9139V9.07211H7.79821V7.61237ZM1.97024 10.5263H26.7474V11.9861H24.1474C23.7893 11.9861 23.4863 12.245 23.4313 12.5975L23.1228 14.4429C23.1173 14.4429 23.1173 14.4484 23.1118 14.4484L21.5859 13.3577C21.294 13.1484 20.8974 13.1814 20.6495 13.4348L19.1842 14.9001H1.97024V10.5263ZM7.79821 16.3543H17.8291C17.752 16.5747 17.7741 16.8225 17.9118 17.0208L18.4791 17.8141H7.79821V16.3543ZM1.97024 19.2683H16.6228C16.5787 19.3619 16.5787 23.5429 16.6228 23.642H1.97024V19.2683ZM34.0296 22.7111L32.3825 22.9865C32.1181 23.0306 31.9033 23.2124 31.8152 23.4658C31.738 23.6916 31.6444 23.9174 31.5397 24.1323C31.4241 24.3747 31.4461 24.6556 31.6003 24.8759L32.5753 26.2365L30.7961 28.0158L29.4355 27.0408C29.2207 26.8865 28.9342 26.859 28.6919 26.9802C28.477 27.0848 28.2567 27.1785 28.0253 27.2556C27.7719 27.3437 27.5902 27.5586 27.5461 27.823L27.2707 29.47H24.7588L24.4834 27.823C24.4393 27.5586 24.2575 27.3437 24.0041 27.2556C23.7783 27.1785 23.5524 27.0848 23.3376 26.9802C23.1007 26.8645 22.8143 26.8865 22.594 27.0408L21.2334 28.0158L19.4541 26.2365L20.4291 24.8759C20.5834 24.6611 20.6109 24.3747 20.4897 24.1323C20.4842 24.1213 20.4787 24.1102 20.4732 24.0937C20.4732 24.0882 20.4677 24.0827 20.4677 24.0772C20.3741 23.8789 20.2859 23.6751 20.2143 23.4658C20.1262 23.2124 19.9113 23.0306 19.6469 22.9865L17.9999 22.7111V20.1992L19.6524 19.9238C19.9169 19.8797 20.1317 19.698 20.2198 19.4446C20.2914 19.2352 20.3796 19.0314 20.4732 18.8331C20.4732 18.8276 20.4787 18.8221 20.4787 18.8221C20.4842 18.8111 20.4897 18.7946 20.4952 18.7836C20.6109 18.5412 20.5889 18.2602 20.4346 18.0399L19.4597 16.6793L21.2389 14.9001L22.5995 15.8751C22.8143 16.0293 23.1007 16.0569 23.3431 15.9357C23.558 15.831 23.7783 15.7374 24.0096 15.6602C24.263 15.5721 24.4448 15.3573 24.4889 15.0929L24.7643 13.4458H27.2762L27.5516 15.0929C27.5957 15.3573 27.7774 15.5721 28.0308 15.6602C28.2567 15.7374 28.4825 15.831 28.6974 15.9357C28.9397 16.0513 29.2207 16.0293 29.441 15.8751L30.8016 14.9001L32.5808 16.6793L31.6058 18.0399C31.4516 18.2547 31.4296 18.5412 31.5452 18.7836C31.6499 18.9984 31.7435 19.2187 31.8207 19.4501C31.9088 19.7035 32.1291 19.8852 32.388 19.9293L34.0351 20.2047V22.7111H34.0296Z" fill="url(#paint0_linear_79_2011)"/>
<defs>
<linearGradient id="paint0_linear_79_2011" x1="37.2398" y1="-1.63845" x2="28.449" y2="29.6669" gradientUnits="userSpaceOnUse">
<stop stop-color="#0FA6FC"/>
<stop offset="0.953125" stop-color="#D048FC"/>
</linearGradient>
</defs>
</svg>
