<svg width="28" height="28" viewBox="0 0 28 28" fill="none" xmlns="http://www.w3.org/2000/svg">
<g clip-path="url(#clip0_1_1409)">
<path d="M22.75 15.75V20.125C22.75 22.0588 18.8125 23.625 14 23.625C9.1875 23.625 5.25 22.0588 5.25 20.125V15.75C5.25 18.9963 15.6144 20.5625 20.8294 17.9375C22.0325 17.3381 22.75 16.5769 22.75 15.75Z" fill="#F5F7FF"/>
<path d="M14 22.3125C9.1875 22.3125 5.25 20.7463 5.25 18.8125V20.125C5.25 22.0588 9.1875 23.625 14 23.625C18.8125 23.625 22.75 22.0588 22.75 20.125V18.8125C22.75 20.7463 18.8344 22.3125 14 22.3125Z" fill="#CCD3EB"/>
<path d="M5.25 27.5625C5.97487 27.5625 6.5625 26.9749 6.5625 26.25C6.5625 25.5251 5.97487 24.9375 5.25 24.9375C4.52513 24.9375 3.9375 25.5251 3.9375 26.25C3.9375 26.9749 4.52513 27.5625 5.25 27.5625Z" fill="#0074FF"/>
<path d="M22.75 27.5625C23.4749 27.5625 24.0625 26.9749 24.0625 26.25C24.0625 25.5251 23.4749 24.9375 22.75 24.9375C22.0251 24.9375 21.4375 25.5251 21.4375 26.25C21.4375 26.9749 22.0251 27.5625 22.75 27.5625Z" fill="#0074FF"/>
<path d="M22.75 11.375V15.75C22.75 17.6838 18.8125 19.25 14 19.25C9.1875 19.25 5.25 17.6838 5.25 15.75V11.375C5.25 14.6213 15.6144 16.1875 20.8294 13.5625C22.0325 12.9631 22.75 12.2019 22.75 11.375Z" fill="#F5F7FF"/>
<path d="M14 17.9375C9.1875 17.9375 5.25 16.3713 5.25 14.4375V15.75C5.25 17.6838 9.1875 19.25 14 19.25C18.8125 19.25 22.75 17.6838 22.75 15.75V14.4375C22.75 16.3713 18.8344 17.9375 14 17.9375Z" fill="#CCD3EB"/>
<path d="M14 14.875C18.8325 14.875 22.75 13.308 22.75 11.375C22.75 9.442 18.8325 7.875 14 7.875C9.16751 7.875 5.25 9.442 5.25 11.375C5.25 13.308 9.16751 14.875 14 14.875Z" fill="#96A1C3"/>
<path d="M14 13.5625C9.73 13.5625 6.1775 12.3375 5.4075 10.7188C5.30712 10.9232 5.25333 11.1473 5.25 11.375C5.25 13.3088 9.1875 14.875 14 14.875C18.8125 14.875 22.75 13.3088 22.75 11.375C22.7467 11.1473 22.6929 10.9232 22.5925 10.7188C21.8225 12.3375 18.27 13.5625 14 13.5625Z" fill="#647499"/>
<path d="M18.8125 12.25H12.6875V1.75L18.8125 0.4375V12.25Z" fill="#0074FF"/>
<path d="M14.4375 3.9375H17.0625C17.1785 3.9375 17.2898 3.89141 17.3719 3.80936C17.4539 3.72731 17.5 3.61603 17.5 3.5C17.5 3.38397 17.4539 3.27269 17.3719 3.19064C17.2898 3.10859 17.1785 3.0625 17.0625 3.0625H14.4375C14.3215 3.0625 14.2102 3.10859 14.1281 3.19064C14.0461 3.27269 14 3.38397 14 3.5C14 3.61603 14.0461 3.72731 14.1281 3.80936C14.2102 3.89141 14.3215 3.9375 14.4375 3.9375Z" fill="#F5F7FF"/>
<path d="M17.0625 4.8125H14.4375C14.3215 4.8125 14.2102 4.85859 14.1281 4.94064C14.0461 5.02269 14 5.13397 14 5.25C14 5.36603 14.0461 5.47731 14.1281 5.55936C14.2102 5.64141 14.3215 5.6875 14.4375 5.6875H17.0625C17.1785 5.6875 17.2898 5.64141 17.3719 5.55936C17.4539 5.47731 17.5 5.36603 17.5 5.25C17.5 5.13397 17.4539 5.02269 17.3719 4.94064C17.2898 4.85859 17.1785 4.8125 17.0625 4.8125Z" fill="#F5F7FF"/>
<path d="M17.0625 6.5625H15.3125C15.1965 6.5625 15.0852 6.60859 15.0031 6.69064C14.9211 6.77269 14.875 6.88397 14.875 7C14.875 7.11603 14.9211 7.22731 15.0031 7.30936C15.0852 7.39141 15.1965 7.4375 15.3125 7.4375H17.0625C17.1785 7.4375 17.2898 7.39141 17.3719 7.30936C17.4539 7.22731 17.5 7.11603 17.5 7C17.5 6.88397 17.4539 6.77269 17.3719 6.69064C17.2898 6.60859 17.1785 6.5625 17.0625 6.5625Z" fill="#F5F7FF"/>
<path d="M17.0625 8.3125H15.3125C15.1965 8.3125 15.0852 8.35859 15.0031 8.44064C14.9211 8.52269 14.875 8.63397 14.875 8.75C14.875 8.86603 14.9211 8.97731 15.0031 9.05936C15.0852 9.14141 15.1965 9.1875 15.3125 9.1875H17.0625C17.1785 9.1875 17.2898 9.14141 17.3719 9.05936C17.4539 8.97731 17.5 8.86603 17.5 8.75C17.5 8.63397 17.4539 8.52269 17.3719 8.44064C17.2898 8.35859 17.1785 8.3125 17.0625 8.3125Z" fill="#F5F7FF"/>
<path d="M10.5 5.25H14.875C14.991 5.25 15.1023 5.29609 15.1844 5.37814C15.2664 5.46019 15.3125 5.57147 15.3125 5.6875V12.25H10.0625V5.6875C10.0625 5.57147 10.1086 5.46019 10.1906 5.37814C10.2727 5.29609 10.384 5.25 10.5 5.25Z" fill="#F5F7FF"/>
<path d="M11.8125 7.4375H13.5625C13.6785 7.4375 13.7898 7.39141 13.8719 7.30936C13.9539 7.22731 14 7.11603 14 7C14 6.88397 13.9539 6.77269 13.8719 6.69064C13.7898 6.60859 13.6785 6.5625 13.5625 6.5625H11.8125C11.6965 6.5625 11.5852 6.60859 11.5031 6.69064C11.4211 6.77269 11.375 6.88397 11.375 7C11.375 7.11603 11.4211 7.22731 11.5031 7.30936C11.5852 7.39141 11.6965 7.4375 11.8125 7.4375Z" fill="#96A1C3"/>
<path d="M13.5625 8.3125H11.8125C11.6965 8.3125 11.5852 8.35859 11.5031 8.44064C11.4211 8.52269 11.375 8.63397 11.375 8.75C11.375 8.86603 11.4211 8.97731 11.5031 9.05936C11.5852 9.14141 11.6965 9.1875 11.8125 9.1875H13.5625C13.6785 9.1875 13.7898 9.14141 13.8719 9.05936C13.9539 8.97731 14 8.86603 14 8.75C14 8.63397 13.9539 8.52269 13.8719 8.44064C13.7898 8.35859 13.6785 8.3125 13.5625 8.3125Z" fill="#96A1C3"/>
<path d="M13.5625 10.0625H11.8125C11.6965 10.0625 11.5852 10.1086 11.5031 10.1906C11.4211 10.2727 11.375 10.384 11.375 10.5C11.375 10.616 11.4211 10.7273 11.5031 10.8094C11.5852 10.8914 11.6965 10.9375 11.8125 10.9375H13.5625C13.6785 10.9375 13.7898 10.8914 13.8719 10.8094C13.9539 10.7273 14 10.616 14 10.5C14 10.384 13.9539 10.2727 13.8719 10.1906C13.7898 10.1086 13.6785 10.0625 13.5625 10.0625Z" fill="#96A1C3"/>
<path d="M11.8125 25.375H16.1875V27.125H11.8125V25.375Z" fill="#0074FF"/>
<path d="M22.7499 24.5C22.3629 24.5013 21.9873 24.6308 21.6817 24.8683C21.3762 25.1057 21.1579 25.4378 21.0612 25.8125H16.6249V25.375C16.6249 25.259 16.5788 25.1477 16.4968 25.0657C16.4148 24.9836 16.3035 24.9375 16.1874 24.9375H14.4374V24.0625C19.3768 23.9663 23.1874 22.2775 23.1874 20.125V11.375C23.1874 10.3381 22.3124 9.37564 20.7418 8.66251C20.6377 8.62311 20.5224 8.62492 20.4195 8.66756C20.3166 8.7102 20.2339 8.79047 20.1881 8.892C20.1424 8.99353 20.1371 9.10869 20.1733 9.214C20.2095 9.31931 20.2845 9.40685 20.3831 9.45876C21.6081 10.0144 22.3124 10.7144 22.3124 11.375C22.3124 12.8231 18.8999 14.4375 13.9999 14.4375C9.09994 14.4375 5.68744 12.8231 5.68744 11.375C5.68744 10.3731 7.24932 9.36251 9.62494 8.79376V12.25C9.62494 12.366 9.67104 12.4773 9.75308 12.5594C9.83513 12.6414 9.94641 12.6875 10.0624 12.6875H18.8124C18.9285 12.6875 19.0398 12.6414 19.1218 12.5594C19.2039 12.4773 19.2499 12.366 19.2499 12.25V0.437514C19.2514 0.371443 19.2379 0.305896 19.2104 0.245795C19.1829 0.185693 19.1422 0.132599 19.0913 0.0904981C19.0403 0.0483975 18.9805 0.0183847 18.9163 0.00271322C18.8521 -0.0129583 18.7852 -0.0138813 18.7206 1.35126e-05L12.5956 1.31251C12.4961 1.33386 12.4071 1.38922 12.344 1.46908C12.281 1.54893 12.2477 1.64827 12.2499 1.75001V4.81251H10.4999C10.2679 4.81251 10.0453 4.9047 9.88122 5.0688C9.71713 5.23289 9.62494 5.45545 9.62494 5.68751V7.89689C6.60619 8.57064 4.81244 9.86126 4.81244 11.3969V20.125C4.81244 22.2688 8.62307 23.9575 13.5624 24.0625V24.9375H11.8124C11.6964 24.9375 11.5851 24.9836 11.5031 25.0657C11.421 25.1477 11.3749 25.259 11.3749 25.375V25.8125H6.93869C6.83221 25.4001 6.57897 25.0407 6.22644 24.8016C5.87391 24.5626 5.4463 24.4603 5.02376 24.514C4.60121 24.5676 4.21275 24.7736 3.93118 25.0932C3.64961 25.4128 3.49426 25.8241 3.49426 26.25C3.49426 26.676 3.64961 27.0873 3.93118 27.4069C4.21275 27.7265 4.60121 27.9324 5.02376 27.9861C5.4463 28.0397 5.87391 27.9375 6.22644 27.6984C6.57897 27.4593 6.83221 27.0999 6.93869 26.6875H11.3749V27.125C11.3749 27.241 11.421 27.3523 11.5031 27.4344C11.5851 27.5164 11.6964 27.5625 11.8124 27.5625H16.1874C16.3035 27.5625 16.4148 27.5164 16.4968 27.4344C16.5788 27.3523 16.6249 27.241 16.6249 27.125V26.6875H21.0612C21.1431 27.0047 21.3123 27.2925 21.5497 27.5182C21.7871 27.7439 22.083 27.8985 22.4039 27.9643C22.7247 28.0301 23.0576 28.0046 23.3647 27.8906C23.6718 27.7766 23.9407 27.5787 24.1409 27.3194C24.341 27.0601 24.4644 26.7499 24.497 26.424C24.5295 26.098 24.4699 25.7695 24.325 25.4758C24.1801 25.182 23.9557 24.9348 23.6772 24.7623C23.3988 24.5898 23.0775 24.499 22.7499 24.5ZM13.1249 2.10439L18.3749 0.980013V11.8125H15.7499V5.68751C15.7499 5.45545 15.6578 5.23289 15.4937 5.0688C15.3296 4.9047 15.107 4.81251 14.8749 4.81251H13.1249V2.10439ZM10.4999 5.68751H14.8749V11.8125H10.4999V5.68751ZM5.68744 20.125V17.4694C5.88601 17.6519 6.09969 17.8173 6.32619 17.9638C6.42371 18.0263 6.54202 18.0475 6.6552 18.0229C6.76837 17.9983 6.86718 17.9299 6.92994 17.8325C6.99244 17.735 7.01371 17.6167 6.98911 17.5035C6.96451 17.3903 6.89603 17.2915 6.79869 17.2288C6.29119 16.9006 5.68744 16.38 5.68744 15.75V13.0681C8.94244 16.0606 19.0574 16.0606 22.3124 13.0681V15.75C22.3124 17.7538 16.5374 19.425 11.0031 18.5981C10.9456 18.5895 10.887 18.5923 10.8306 18.6063C10.7743 18.6204 10.7212 18.6453 10.6745 18.6799C10.6278 18.7144 10.5883 18.7578 10.5584 18.8076C10.5284 18.8574 10.5086 18.9126 10.4999 18.97C10.4913 19.0275 10.4941 19.0861 10.5081 19.1424C10.5222 19.1988 10.5471 19.2519 10.5817 19.2986C10.6162 19.3453 10.6596 19.3848 10.7094 19.4147C10.7592 19.4447 10.8144 19.4645 10.8718 19.4731C11.9079 19.6211 12.9534 19.6928 13.9999 19.6875C17.7274 19.6875 20.8599 18.7819 22.3124 17.4431V20.125C22.3124 21.5731 18.8999 23.1875 13.9999 23.1875C9.09994 23.1875 5.68744 21.5731 5.68744 20.125ZM5.24994 27.125C5.07688 27.125 4.90771 27.0737 4.76382 26.9776C4.61993 26.8814 4.50777 26.7447 4.44155 26.5849C4.37532 26.425 4.35799 26.249 4.39176 26.0793C4.42552 25.9096 4.50885 25.7537 4.63122 25.6313C4.7536 25.5089 4.90951 25.4256 5.07924 25.3918C5.24897 25.3581 5.42491 25.3754 5.58479 25.4416C5.74468 25.5078 5.88133 25.62 5.97748 25.7639C6.07363 25.9078 6.12494 26.077 6.12494 26.25C6.12494 26.4821 6.03276 26.7046 5.86866 26.8687C5.70457 27.0328 5.48201 27.125 5.24994 27.125ZM15.7499 26.6875H12.2499V25.8125H15.7499V26.6875ZM22.7499 27.125C22.5769 27.125 22.4077 27.0737 22.2638 26.9776C22.1199 26.8814 22.0078 26.7447 21.9415 26.5849C21.8753 26.425 21.858 26.249 21.8918 26.0793C21.9255 25.9096 22.0089 25.7537 22.1312 25.6313C22.2536 25.5089 22.4095 25.4256 22.5792 25.3918C22.749 25.3581 22.9249 25.3754 23.0848 25.4416C23.2447 25.5078 23.3813 25.62 23.4775 25.7639C23.5736 25.9078 23.6249 26.077 23.6249 26.25C23.6249 26.4821 23.5328 26.7046 23.3687 26.8687C23.2046 27.0328 22.982 27.125 22.7499 27.125Z" fill="#033C59"/>
<path d="M8.45247 17.9944C8.39789 17.976 8.34022 17.9685 8.28276 17.9724C8.2253 17.9763 8.16917 17.9915 8.11758 18.0171C8.06598 18.0427 8.01993 18.0782 7.98206 18.1216C7.94419 18.165 7.91523 18.2154 7.89685 18.27C7.87846 18.3246 7.87101 18.3823 7.87491 18.4397C7.87881 18.4972 7.89399 18.5533 7.91959 18.6049C7.97128 18.7091 8.06224 18.7885 8.17247 18.8256C8.50401 18.9432 8.84311 19.0382 9.18747 19.11C9.3035 19.1251 9.42078 19.0935 9.51349 19.0221C9.6062 18.9507 9.66676 18.8454 9.68185 18.7294C9.69693 18.6133 9.6653 18.4961 9.59392 18.4034C9.52254 18.3106 9.41725 18.2501 9.30122 18.235C9.00372 18.1738 8.71935 18.0863 8.45247 17.9944Z" fill="#033C59"/>
<path d="M12.25 16.9969C12.256 16.9398 12.2508 16.882 12.2345 16.8268C12.2182 16.7717 12.1912 16.7203 12.155 16.6756C12.1189 16.6309 12.0743 16.5938 12.0237 16.5664C11.9732 16.5389 11.9178 16.5217 11.8606 16.5157C10.2473 16.3932 8.67063 15.9734 7.20999 15.2776C7.15914 15.2457 7.1023 15.2247 7.04298 15.2158C6.98367 15.2069 6.92316 15.2103 6.8652 15.2257C6.80725 15.2412 6.75309 15.2684 6.70609 15.3056C6.65909 15.3429 6.62025 15.3894 6.592 15.4423C6.56374 15.4952 6.54666 15.5534 6.54183 15.6132C6.53699 15.673 6.5445 15.7331 6.56389 15.7899C6.58328 15.8466 6.61413 15.8988 6.65453 15.9431C6.69493 15.9875 6.74402 16.023 6.79874 16.0476C8.35843 16.7971 10.0436 17.2511 11.7687 17.3863C11.8259 17.3924 11.8837 17.3871 11.9388 17.3708C11.994 17.3545 12.0454 17.3275 12.0901 17.2914C12.1348 17.2552 12.1719 17.2106 12.1993 17.1601C12.2268 17.1096 12.244 17.0541 12.25 16.9969Z" fill="#033C59"/>
<path d="M17.4999 17.2069C17.6181 17.2069 18.3093 17.0581 18.4756 17.0188C18.5656 16.9752 18.638 16.9022 18.6807 16.8118C18.7234 16.7214 18.7339 16.6191 18.7104 16.5219C18.6868 16.4248 18.6307 16.3386 18.5514 16.2777C18.4721 16.2169 18.3743 16.185 18.2743 16.1875C18.0031 16.2488 17.7187 16.3056 17.4256 16.3581C17.3095 16.368 17.2022 16.4236 17.1271 16.5126C17.052 16.6016 17.0154 16.7168 17.0253 16.8328C17.0351 16.9489 17.0907 17.0562 17.1797 17.1313C17.2687 17.2064 17.3839 17.243 17.4999 17.2331V17.2069Z" fill="#033C59"/>
<path d="M20.125 16.4981C20.5012 16.3957 20.864 16.2488 21.2056 16.0606C21.2603 16.0361 21.3094 16.0005 21.3498 15.9562C21.3902 15.9118 21.421 15.8597 21.4404 15.8029C21.4598 15.7462 21.4673 15.686 21.4625 15.6262C21.4577 15.5664 21.4406 15.5083 21.4123 15.4554C21.3841 15.4025 21.3452 15.356 21.2982 15.3187C21.2512 15.2814 21.1971 15.2542 21.1391 15.2388C21.0812 15.2233 21.0206 15.2199 20.9613 15.2289C20.902 15.2378 20.8452 15.2588 20.7943 15.2906C20.5255 15.4305 20.2495 15.5561 19.9675 15.6669C19.8803 15.7085 19.8093 15.7778 19.7657 15.8639C19.722 15.9501 19.7081 16.0483 19.726 16.1432C19.744 16.2381 19.7929 16.3244 19.8651 16.3886C19.9372 16.4528 20.0286 16.4913 20.125 16.4981Z" fill="#033C59"/>
<path d="M11.8562 20.8907C10.2429 20.7682 8.66624 20.3484 7.20559 19.6526C7.15475 19.6207 7.0979 19.5997 7.03859 19.5908C6.97928 19.5819 6.91876 19.5853 6.86081 19.6007C6.80285 19.6162 6.74869 19.6434 6.70169 19.6806C6.65469 19.7179 6.61586 19.7644 6.5876 19.8173C6.55935 19.8702 6.54227 19.9284 6.53743 19.9882C6.5326 20.048 6.54011 20.1081 6.5595 20.1649C6.57889 20.2216 6.60974 20.2738 6.65014 20.3181C6.69054 20.3625 6.73962 20.398 6.79434 20.4226C8.35539 21.1727 10.0421 21.6266 11.7687 21.7613C11.8259 21.7674 11.8837 21.7621 11.9388 21.7458C11.994 21.7295 12.0454 21.7025 12.09 21.6664C12.1347 21.6302 12.1719 21.5856 12.1993 21.5351C12.2267 21.4846 12.244 21.4291 12.25 21.3719C12.256 21.3144 12.2506 21.2563 12.234 21.2009C12.2175 21.1455 12.1901 21.0939 12.1535 21.0492C12.1169 21.0044 12.0717 20.9674 12.0207 20.9402C11.9697 20.913 11.9138 20.8962 11.8562 20.8907Z" fill="#033C59"/>
<path d="M17.4999 21.5819C17.6181 21.5819 18.3093 21.4331 18.4756 21.3938C18.5656 21.3502 18.638 21.2772 18.6807 21.1868C18.7234 21.0964 18.7339 20.9941 18.7104 20.8969C18.6868 20.7998 18.6307 20.7136 18.5514 20.6527C18.4721 20.5919 18.3743 20.56 18.2743 20.5625C18.0031 20.6238 17.7187 20.6806 17.4256 20.7331C17.3095 20.743 17.2022 20.7986 17.1271 20.8876C17.052 20.9766 17.0154 21.0918 17.0253 21.2078C17.0351 21.3239 17.0907 21.4312 17.1797 21.5063C17.2687 21.5814 17.3839 21.618 17.4999 21.6081V21.5819Z" fill="#033C59"/>
<path d="M20.125 20.8731C20.5012 20.7707 20.864 20.6238 21.2056 20.4356C21.2603 20.4111 21.3094 20.3755 21.3498 20.3312C21.3902 20.2868 21.421 20.2347 21.4404 20.1779C21.4598 20.1212 21.4673 20.061 21.4625 20.0012C21.4577 19.9414 21.4406 19.8833 21.4123 19.8304C21.3841 19.7775 21.3452 19.731 21.2982 19.6937C21.2512 19.6564 21.1971 19.6292 21.1391 19.6138C21.0812 19.5983 21.0206 19.5949 20.9613 19.6039C20.902 19.6128 20.8452 19.6338 20.7943 19.6656C20.5255 19.8055 20.2495 19.9311 19.9675 20.0419C19.8803 20.0835 19.8093 20.1528 19.7657 20.2389C19.722 20.3251 19.7081 20.4233 19.726 20.5182C19.744 20.6131 19.7929 20.6994 19.8651 20.7636C19.9372 20.8278 20.0286 20.8663 20.125 20.8731Z" fill="#033C59"/>
<path d="M5.25 7C5.16347 7 5.07888 7.02566 5.00694 7.07373C4.93499 7.1218 4.87892 7.19013 4.8458 7.27008C4.81269 7.35002 4.80403 7.43799 4.82091 7.52285C4.83779 7.60772 4.87946 7.68567 4.94064 7.74686C5.00183 7.80805 5.07978 7.84971 5.16465 7.86659C5.24951 7.88347 5.33748 7.87481 5.41742 7.8417C5.49737 7.80858 5.5657 7.75251 5.61377 7.68056C5.66184 7.60862 5.6875 7.52403 5.6875 7.4375C5.6875 7.32147 5.64141 7.21019 5.55936 7.12814C5.47731 7.04609 5.36603 7 5.25 7Z" fill="#96A1C3"/>
<path d="M7 7C6.91347 7 6.82888 7.02566 6.75694 7.07373C6.68499 7.1218 6.62892 7.19013 6.5958 7.27008C6.56269 7.35002 6.55403 7.43799 6.57091 7.52285C6.58779 7.60772 6.62946 7.68567 6.69064 7.74686C6.75183 7.80805 6.82978 7.84971 6.91465 7.86659C6.99951 7.88347 7.08748 7.87481 7.16742 7.8417C7.24737 7.80858 7.3157 7.75251 7.36377 7.68056C7.41184 7.60862 7.4375 7.52403 7.4375 7.4375C7.4375 7.32147 7.39141 7.21019 7.30936 7.12814C7.22731 7.04609 7.11603 7 7 7Z" fill="#96A1C3"/>
<path d="M20.5625 7C20.476 7 20.3914 7.02566 20.3194 7.07373C20.2475 7.1218 20.1914 7.19013 20.1583 7.27008C20.1252 7.35002 20.1165 7.43799 20.1334 7.52285C20.1503 7.60772 20.192 7.68567 20.2531 7.74686C20.3143 7.80805 20.3923 7.84971 20.4771 7.86659C20.562 7.88347 20.65 7.87481 20.7299 7.8417C20.8099 7.80858 20.8782 7.75251 20.9263 7.68056C20.9743 7.60862 21 7.52403 21 7.4375C21 7.32147 20.9539 7.21019 20.8719 7.12814C20.7898 7.04609 20.6785 7 20.5625 7Z" fill="#0074FF"/>
<path d="M20.5625 5.25C20.4465 5.25 20.3352 5.29609 20.2531 5.37814C20.1711 5.46019 20.125 5.57147 20.125 5.6875C20.125 5.80353 20.1711 5.91481 20.2531 5.99686C20.3352 6.07891 20.4465 6.125 20.5625 6.125C20.9106 6.125 21.2444 6.26328 21.4906 6.50942C21.7367 6.75556 21.875 7.0894 21.875 7.4375C21.875 7.55353 21.9211 7.66481 22.0031 7.74686C22.0852 7.82891 22.1965 7.875 22.3125 7.875C22.4285 7.875 22.5398 7.82891 22.6219 7.74686C22.7039 7.66481 22.75 7.55353 22.75 7.4375C22.75 6.85734 22.5195 6.30094 22.1093 5.8907C21.6991 5.48047 21.1427 5.25 20.5625 5.25Z" fill="#0074FF"/>
<path d="M20.5625 3.5C20.4465 3.5 20.3352 3.54609 20.2531 3.62814C20.1711 3.71019 20.125 3.82147 20.125 3.9375C20.125 4.05353 20.1711 4.16481 20.2531 4.24686C20.3352 4.32891 20.4465 4.375 20.5625 4.375C21.3747 4.375 22.1537 4.69766 22.728 5.27199C23.3023 5.84632 23.625 6.62527 23.625 7.4375C23.625 7.55353 23.6711 7.66481 23.7531 7.74686C23.8352 7.82891 23.9465 7.875 24.0625 7.875C24.1785 7.875 24.2898 7.82891 24.3719 7.74686C24.4539 7.66481 24.5 7.55353 24.5 7.4375C24.5 6.39321 24.0852 5.39169 23.3467 4.65327C22.6083 3.91484 21.6068 3.5 20.5625 3.5Z" fill="#0074FF"/>
</g>
<defs>
<clipPath id="clip0_1_1409">
<rect width="28" height="28" fill="white"/>
</clipPath>
</defs>
</svg>
