<svg width="98" height="24" viewBox="0 0 98 24" fill="none" xmlns="http://www.w3.org/2000/svg">
<path d="M32.806 10.4053V8.39333H34.0994C34.0994 11.7809 34.0994 15.1478 34.0994 18.5354H32.8265V16.5234C31.9437 18.0221 30.3218 18.7407 28.8026 18.7407C25.9283 18.7407 23.6289 16.6876 23.6289 13.4643C23.6289 10.2616 25.9488 8.24962 28.8231 8.24962C30.3834 8.24962 32.0464 8.96818 32.806 10.4053ZM28.8642 9.50197C26.729 9.50197 25.0044 11.0828 25.0044 13.4643C25.0044 15.8664 26.729 17.4472 28.8642 17.4472C34.0994 17.4472 34.0994 9.50197 28.8642 9.50197Z" fill="#0365C8"/>
<path d="M36.8872 4.16406H38.2422V10.1589C39.084 8.78341 40.4185 8.27015 41.7735 8.24962C44.6067 8.24962 46.0027 10.1179 46.0027 12.8484V18.5354H44.6272V12.8484C44.6272 10.8159 43.6417 9.56357 41.6092 9.56357C39.6383 9.56357 38.2628 11.1033 38.2628 13.0743V18.5354H36.8872V4.16406Z" fill="#0365C8"/>
<path d="M57.1867 10.4053V8.39333H58.4801C58.4801 11.7809 58.4801 15.1478 58.4801 18.5354H57.2072V16.5234C56.3244 18.0221 54.7025 18.7407 53.1833 18.7407C50.309 18.7407 48.0096 16.6876 48.0096 13.4643C48.0096 10.2616 50.3295 8.24962 53.2038 8.24962C54.7641 8.24962 56.4271 8.96818 57.1867 10.4053ZM53.2448 9.50197C51.1097 9.50197 49.3851 11.0828 49.3851 13.4643C49.3851 15.8664 51.1097 17.4472 53.2448 17.4472C58.4801 17.4472 58.4801 9.50197 53.2448 9.50197Z" fill="#0365C8"/>
<path d="M69.788 10.4053V8.39333H71.0815C71.0815 11.7809 71.0815 15.1478 71.0815 18.5354H69.8086V16.5234C68.9258 18.0221 67.3039 18.7407 65.7846 18.7407C62.9104 18.7407 60.6109 16.6876 60.6109 13.4643C60.6109 10.2616 62.9309 8.24962 65.8051 8.24962C67.3655 8.24962 69.0284 8.96818 69.788 10.4053ZM65.8462 9.50197C63.711 9.50197 61.9865 11.0828 61.9865 13.4643C61.9865 15.8664 63.711 17.4472 65.8462 17.4472C71.0815 17.4472 71.0815 9.50197 65.8462 9.50197Z" fill="#0365C8"/>
<path d="M81.3218 8.39333H82.8411L76.415 23.3805H74.9163L77.0515 18.4122L72.9865 8.39333H74.5262L76.6819 13.9981L77.8111 16.9135L78.9608 13.9981L81.3218 8.39333Z" fill="#0365C8"/>
<path d="M92.665 10.4053V8.39333H93.9585C93.9585 11.7809 93.9585 15.1478 93.9585 18.5354H92.6856V16.5234C91.8028 18.0221 90.1809 18.7407 88.6616 18.7407C85.7873 18.7407 83.4879 16.6876 83.4879 13.4643C83.4879 10.2616 85.8079 8.24962 88.6821 8.24962C90.2424 8.24962 91.9054 8.96818 92.665 10.4053ZM88.7232 9.50197C86.588 9.50197 84.8635 11.0828 84.8635 13.4643C84.8635 15.8664 86.588 17.4472 88.7232 17.4472C93.9585 17.4472 93.9585 9.50197 88.7232 9.50197Z" fill="#0365C8"/>
<path d="M2.72852 1.82812V6.81424L7.94242 10.7282L11.1785 8.09296L2.72852 1.82812Z" fill="#0365C8"/>
<path d="M8.60547 11.2409L12.1493 13.8932L16.6295 10.4239L16.4634 19.4916H19.9887V1.8457L8.60547 11.2409Z" fill="url(#paint0_linear_626_3091)"/>
<path d="M2.73047 7.87891L7.75071 11.6588V19.4832H2.73047V7.87891Z" fill="#0365C8"/>
<defs>
<linearGradient id="paint0_linear_626_3091" x1="20.562" y1="0.713638" x2="12.7955" y2="16.3266" gradientUnits="userSpaceOnUse">
<stop stop-color="#0FA6FC"/>
<stop offset="0.953125" stop-color="#D048FC"/>
</linearGradient>
</defs>
</svg>
