<svg width="9" height="9" viewBox="0 0 9 9" fill="none" xmlns="http://www.w3.org/2000/svg">
<path d="M7.91407 8.49624C7.71891 8.49624 7.58881 8.43119 7.4587 8.30109L0.953458 1.79584C0.693248 1.53563 0.693248 1.14532 0.953458 0.885106C1.21367 0.624897 1.60398 0.624897 1.86419 0.885106L8.36944 7.39035C8.62965 7.65056 8.62965 8.04088 8.36944 8.30109C8.23934 8.43119 8.10923 8.49624 7.91407 8.49624Z" fill="white"/>
<path d="M7.91467 8.49681H2.05995C1.66963 8.49681 1.40942 8.2366 1.40942 7.84629C1.40942 7.45597 1.66963 7.19576 2.05995 7.19576H7.26414V1.99157C7.26414 1.60125 7.52435 1.34104 7.91467 1.34104C8.30498 1.34104 8.56519 1.60125 8.56519 1.99157V7.84629C8.56519 8.2366 8.30498 8.49681 7.91467 8.49681Z" fill="white"/>
</svg>
