<svg width="20" height="26" viewBox="0 0 20 26" fill="none" xmlns="http://www.w3.org/2000/svg">
<path d="M17.9269 22.6113C17.5743 22.6124 17.232 22.7304 16.9536 22.9468C16.6752 23.1631 16.4764 23.4657 16.3882 23.8071H12.3463V23.4085C12.3463 23.3028 12.3043 23.2014 12.2296 23.1266C12.1548 23.0519 12.0534 23.0099 11.9477 23.0099H10.3533V22.2127C14.8536 22.125 18.3255 20.5863 18.3255 18.6252V10.6529C18.3255 9.70823 17.5283 8.83128 16.0972 8.18155C16.0023 8.14565 15.8973 8.14729 15.8036 8.18614C15.7099 8.22499 15.6345 8.29813 15.5928 8.39063C15.5511 8.48314 15.5463 8.58806 15.5793 8.68401C15.6123 8.77996 15.6806 8.85972 15.7704 8.90702C16.8865 9.41325 17.5283 10.051 17.5283 10.6529C17.5283 11.9723 14.4191 13.4432 9.95465 13.4432C5.49021 13.4432 2.38104 11.9723 2.38104 10.6529C2.38104 9.74012 3.80408 8.81932 5.96854 8.30113V11.4502C5.96854 11.5559 6.01054 11.6573 6.08529 11.732C6.16005 11.8068 6.26144 11.8488 6.36715 11.8488H14.3394C14.4451 11.8488 14.5465 11.8068 14.6212 11.732C14.696 11.6573 14.738 11.5559 14.738 11.4502V0.687657C14.7393 0.627459 14.727 0.567739 14.702 0.51298C14.6769 0.458221 14.6398 0.409846 14.5934 0.371488C14.547 0.333129 14.4925 0.305784 14.434 0.291506C14.3755 0.277227 14.3145 0.276386 14.2557 0.289046L8.67511 1.48488C8.58446 1.50433 8.50342 1.55477 8.44594 1.62752C8.38846 1.70028 8.35815 1.79079 8.36021 1.88349V4.67377H6.76576C6.55433 4.67377 6.35155 4.75776 6.20204 4.90727C6.05254 5.05678 5.96854 5.25955 5.96854 5.47099V7.48398C3.21813 8.09784 1.58382 9.27374 1.58382 10.6729V18.6252C1.58382 20.5784 5.05572 22.117 9.55604 22.2127V23.0099H7.9616C7.85588 23.0099 7.75449 23.0519 7.67974 23.1266C7.60498 23.2014 7.56299 23.3028 7.56299 23.4085V23.8071H3.52107C3.42405 23.4313 3.19332 23.1039 2.87213 22.8861C2.55094 22.6683 2.16133 22.5751 1.77635 22.624C1.39137 22.6729 1.03743 22.8605 0.78089 23.1517C0.524348 23.4429 0.382813 23.8176 0.382812 24.2057C0.382812 24.5938 0.524348 24.9685 0.78089 25.2597C1.03743 25.5509 1.39137 25.7386 1.77635 25.7874C2.16133 25.8363 2.55094 25.7432 2.87213 25.5254C3.19332 25.3075 3.42405 24.9801 3.52107 24.6043H7.56299V25.0029C7.56299 25.1087 7.60498 25.21 7.67974 25.2848C7.75449 25.3596 7.85588 25.4015 7.9616 25.4015H11.9477C12.0534 25.4015 12.1548 25.3596 12.2296 25.2848C12.3043 25.21 12.3463 25.1087 12.3463 25.0029V24.6043H16.3882C16.4628 24.8933 16.6171 25.1555 16.8333 25.3611C17.0496 25.5668 17.3192 25.7076 17.6116 25.7676C17.9039 25.8276 18.2072 25.8043 18.487 25.7005C18.7668 25.5966 19.0118 25.4163 19.1942 25.18C19.3765 24.9438 19.4889 24.6611 19.5186 24.3642C19.5483 24.0672 19.494 23.7679 19.3619 23.5003C19.2299 23.2326 19.0254 23.0074 18.7717 22.8503C18.518 22.6931 18.2253 22.6103 17.9269 22.6113ZM9.15743 2.20637L13.9408 1.18193V11.0515H11.5491V5.47099C11.5491 5.25955 11.4651 5.05678 11.3156 4.90727C11.1661 4.75776 10.9633 4.67377 10.7519 4.67377H9.15743V2.20637ZM6.76576 5.47099H10.7519V11.0515H6.76576V5.47099ZM2.38104 18.6252V16.2056C2.56196 16.3719 2.75665 16.5226 2.96302 16.656C3.05186 16.713 3.15966 16.7323 3.26277 16.7099C3.36589 16.6875 3.45591 16.6251 3.5131 16.5364C3.57004 16.4476 3.58942 16.3398 3.56701 16.2367C3.54459 16.1336 3.4822 16.0435 3.39352 15.9864C2.93113 15.6874 2.38104 15.213 2.38104 14.639V12.1956C5.34671 14.9221 14.5626 14.9221 17.5283 12.1956V14.639C17.5283 16.4647 12.2666 17.9874 7.22417 17.234C7.17182 17.2262 7.11844 17.2287 7.06707 17.2415C7.01571 17.2542 6.96736 17.277 6.92479 17.3085C6.88223 17.3399 6.84627 17.3795 6.81899 17.4248C6.7917 17.4702 6.77362 17.5205 6.76576 17.5728C6.75791 17.6252 6.76045 17.6786 6.77323 17.7299C6.786 17.7813 6.80877 17.8296 6.84024 17.8722C6.8717 17.9148 6.91124 17.9507 6.95659 17.978C7.00195 18.0053 7.05224 18.0234 7.10458 18.0312C8.04854 18.1661 9.00113 18.2314 9.95465 18.2265C13.3508 18.2265 16.2049 17.4014 17.5283 16.1817V18.6252C17.5283 19.9446 14.4191 21.4154 9.95465 21.4154C5.49021 21.4154 2.38104 19.9446 2.38104 18.6252ZM1.98243 25.0029C1.82476 25.0029 1.67062 24.9562 1.53952 24.8686C1.40842 24.781 1.30623 24.6565 1.24589 24.5108C1.18555 24.3651 1.16977 24.2048 1.20053 24.0502C1.23129 23.8955 1.30722 23.7535 1.41871 23.642C1.5302 23.5305 1.67226 23.4546 1.8269 23.4238C1.98155 23.393 2.14184 23.4088 2.28752 23.4692C2.43319 23.5295 2.5577 23.6317 2.6453 23.7628C2.7329 23.8939 2.77965 24.048 2.77965 24.2057C2.77965 24.4171 2.69566 24.6199 2.54615 24.7694C2.39664 24.9189 2.19387 25.0029 1.98243 25.0029ZM11.5491 24.6043H8.36021V23.8071H11.5491V24.6043ZM17.9269 25.0029C17.7692 25.0029 17.6151 24.9562 17.484 24.8686C17.3529 24.781 17.2507 24.6565 17.1903 24.5108C17.13 24.3651 17.1142 24.2048 17.145 24.0502C17.1757 23.8955 17.2517 23.7535 17.3632 23.642C17.4746 23.5305 17.6167 23.4546 17.7713 23.4238C17.926 23.393 18.0863 23.4088 18.232 23.4692C18.3776 23.5295 18.5021 23.6317 18.5897 23.7628C18.6773 23.8939 18.7241 24.048 18.7241 24.2057C18.7241 24.4171 18.6401 24.6199 18.4906 24.7694C18.3411 24.9189 18.1383 25.0029 17.9269 25.0029Z" fill="#033C59"/>
</svg>
