<svg width="16" height="16" viewBox="0 0 16 16" fill="none" xmlns="http://www.w3.org/2000/svg">
<path fill-rule="evenodd" clip-rule="evenodd" d="M12.9787 12.1475C12.98 12.3126 12.9269 12.36 12.7663 12.3562C12.31 12.3475 11.8537 12.3406 11.3982 12.3587C11.1694 12.3681 11.1006 12.3087 11.1037 12.0707C11.1175 11.045 11.1087 10.0187 11.1106 8.99255C11.1106 8.7113 11.0919 8.43255 10.9887 8.16749C10.8137 7.71999 10.5119 7.41693 10.0113 7.37312C9.47874 7.32624 9.09192 7.56874 8.83067 8.01818C8.65942 8.31255 8.62005 8.64124 8.62067 8.97749C8.62317 10.0144 8.61505 11.0506 8.62686 12.0869C8.63005 12.3101 8.56186 12.3656 8.34811 12.3581C7.89249 12.3425 7.43624 12.3463 6.98005 12.3569C6.80505 12.3612 6.75186 12.3087 6.75186 12.1312C6.75755 9.99624 6.75686 7.86124 6.75317 5.7263C6.75317 5.57318 6.78442 5.50437 6.95686 5.50818C7.44374 5.51874 7.93124 5.51874 8.41811 5.50818C8.58686 5.50505 8.63124 5.56624 8.62436 5.7238C8.61374 5.97943 8.62186 6.23562 8.62186 6.55812C9.3438 5.66562 10.2131 5.37255 11.2457 5.58068C12.2457 5.78249 12.9337 6.68255 12.9625 7.88818C12.9962 9.30687 12.9713 10.7275 12.9787 12.1475ZM4.57567 4.7138C3.96999 4.71249 3.49624 4.23249 3.49755 3.62255C3.49874 3.01999 3.98692 2.5288 4.58186 2.52999C5.17755 2.53187 5.6613 3.02499 5.65942 3.62812C5.65811 4.23943 5.18317 4.71499 4.57567 4.7138ZM5.24568 12.3587C4.79061 12.3406 4.3338 12.3475 3.87818 12.3562C3.71499 12.3594 3.6413 12.3294 3.64186 12.1394C3.64818 10.0056 3.64749 7.87255 3.64249 5.73874C3.64186 5.56755 3.68318 5.50312 3.86561 5.50818C4.3313 5.51999 4.79811 5.52318 5.26318 5.50687C5.47749 5.49937 5.51686 5.57874 5.51568 5.77249C5.50755 6.82874 5.51186 7.88499 5.51186 8.94186C5.51186 9.98749 5.50568 11.0338 5.5163 12.08C5.5188 12.2925 5.46999 12.3676 5.24568 12.3587ZM15.4319 3.0313C15.3894 2.69187 15.3837 2.34249 15.1962 2.0388C14.5894 1.05443 13.7519 0.49374 12.5512 0.500053C9.5138 0.515678 6.4763 0.500053 3.43874 0.510678C2.98255 0.511865 2.51318 0.526865 2.0988 0.771865C1.08749 1.37062 0.493737 2.20749 0.50005 3.43437C0.514362 6.48193 0.50005 9.52937 0.509987 12.5775C0.511862 13.0069 0.518175 13.4562 0.743112 13.8431C1.27436 14.7582 1.97443 15.4376 3.12436 15.4331C3.15749 15.4331 3.18318 15.4487 3.21068 15.4631H12.7888C12.8419 15.4156 12.9069 15.4394 12.9669 15.4319C13.3112 15.3887 13.6669 15.3869 13.9725 15.1894C14.8269 14.6369 15.455 13.9412 15.4357 12.8419C15.4357 12.8225 15.4494 12.8051 15.4638 12.7888V3.21068C15.4212 3.1563 15.4394 3.09187 15.4319 3.0313Z" fill="white"/>
</svg>
