<svg width="16" height="16" viewBox="0 0 16 16" fill="none" xmlns="http://www.w3.org/2000/svg">
<path fill-rule="evenodd" clip-rule="evenodd" d="M0.5 8C0.5 3.85786 3.85786 0.5 8 0.5C9.19603 0.5 10.3287 0.780508 11.3338 1.28001C11.7047 1.46434 11.856 1.91448 11.6716 2.28541C11.4873 2.65635 11.0371 2.80762 10.6663 2.62327C9.8639 2.22455 8.95925 2 8 2C4.68629 2 2 4.68629 2 8C2 11.3137 4.68629 14 8 14C11.3137 14 14 11.3137 14 8C14 7.7741 13.9876 7.55135 13.9633 7.33243C13.9178 6.92068 14.2147 6.55003 14.6264 6.50458C15.0381 6.45903 15.4087 6.7559 15.4543 7.16758C15.4845 7.44117 15.5 7.7189 15.5 8C15.5 12.1421 12.1421 15.5 8 15.5C3.85786 15.5 0.5 12.1421 0.5 8ZM15.2803 2.21967C15.5732 2.51257 15.5732 2.98744 15.2803 3.28033L8.53033 10.0303C8.23745 10.3232 7.76255 10.3232 7.46968 10.0303L5.21967 7.78033C4.92678 7.48745 4.92678 7.01255 5.21967 6.71968C5.51257 6.42678 5.98744 6.42678 6.28033 6.71968L8 8.43935L14.2197 2.21967C14.5126 1.92678 14.9875 1.92678 15.2803 2.21967Z" fill="#929AA3"/>
</svg>
