<svg width="140" height="31" viewBox="0 0 140 31" fill="none" xmlns="http://www.w3.org/2000/svg">
<path d="M43.8819 15.2546C46.1393 15.2546 47.4489 16.5633 47.4489 18.3831C47.4489 19.6212 46.7214 20.5643 45.7735 20.9299C46.9375 21.2207 47.8106 22.2386 47.8106 23.6927C47.8106 25.5831 46.3555 26.9666 44.1729 26.9666H39.6621V15.2546H43.8819ZM43.5202 20.0532C44.5387 20.0532 45.1956 19.4716 45.1956 18.5991C45.1956 17.7266 44.6136 17.145 43.5202 17.145H41.9196V20.0532H43.5202ZM43.7364 25.0721C44.8297 25.0721 45.4825 24.4904 45.4825 23.5432C45.4825 22.5959 44.9004 21.9436 43.7364 21.9436H41.8447V25.0721H43.7364ZM51.0159 22.2386L53.0531 21.9478C53.4896 21.873 53.6351 21.6569 53.6351 21.3661C53.6351 20.7845 53.1986 20.2734 52.2507 20.2734C51.3028 20.2734 50.7956 20.8551 50.7208 21.5822L48.7543 21.1459C48.8998 19.8372 50.0639 18.4537 52.2465 18.4537C54.795 18.4537 55.8136 19.9078 55.8136 21.5822V25.5831C55.8136 26.0193 55.8884 26.601 55.8884 26.8918H53.8513C53.7765 26.6716 53.7765 26.2354 53.7765 25.9446C53.3399 26.601 52.6124 27.1827 51.3735 27.1827C49.6274 27.1827 48.6088 26.0194 48.6088 24.7106C48.613 23.2565 49.6315 22.4546 51.0159 22.2386ZM53.6351 23.6927V23.3271L51.8142 23.5473C51.2321 23.6221 50.7956 23.9129 50.7956 24.5652C50.7956 25.0762 51.1615 25.5125 51.889 25.5125C52.762 25.5125 53.6351 25.0721 53.6351 23.6927ZM59.5303 26.9666H57.3476V18.8193H59.4596V19.8372C59.971 18.9647 60.9147 18.5991 61.7877 18.5991C63.8249 18.5991 64.6979 20.0532 64.6979 21.7982V26.8918H62.5153V22.1638C62.5153 21.2165 62.0788 20.5643 60.9854 20.5643C60.0375 20.5643 59.4554 21.2913 59.4554 22.2386V26.9666H59.5303ZM70.9589 22.2386L74.3056 26.9666H71.6117L69.429 23.8381L68.4811 24.7854V26.9666H66.2985V14.9638H68.4811V21.8024L71.3206 18.7487H74.2308C74.235 18.7445 70.9589 22.2386 70.9589 22.2386ZM85.1523 22.8909C85.1523 25.3629 83.3313 27.1827 80.8577 27.1827C78.4547 27.1827 76.5631 25.3629 76.5631 22.8909C76.5631 20.3441 78.384 18.5991 80.8577 18.5991C83.3313 18.5991 85.1523 20.3441 85.1523 22.8909ZM82.9696 22.8909C82.9696 21.362 81.9511 20.5643 80.9325 20.5643C79.8391 20.5643 78.8954 21.3661 78.8954 22.8909C78.8954 24.4156 79.914 25.2175 80.9325 25.2175C81.9469 25.2175 82.9696 24.4198 82.9696 22.8909ZM88.9355 17.9468V18.8193H90.7564V20.7097H88.9355V26.9666H86.7529V20.7097H85.3685V18.8193H86.7529V17.872C86.7529 16.0523 87.9169 14.8184 89.7379 14.8184C90.1744 14.8184 90.6858 14.8931 90.8313 14.9638V16.7835C90.6858 16.7835 90.4654 16.7087 90.1037 16.7087C89.5924 16.7835 88.9355 16.9996 88.9355 17.9468ZM102.035 26.9666V22.0932H96.9385V26.9666H94.681V15.2546H96.9385V19.9078H102.035V15.1798H104.364V26.8918H102.035V26.9666ZM113.901 22.8909C113.901 25.3629 112.08 27.1827 109.606 27.1827C107.203 27.1827 105.311 25.3629 105.311 22.8909C105.311 20.3441 107.132 18.5991 109.606 18.5991C112.08 18.5991 113.901 20.3441 113.901 22.8909ZM111.718 22.8909C111.718 21.362 110.699 20.5643 109.681 20.5643C108.587 20.5643 107.644 21.3661 107.644 22.8909C107.644 24.4156 108.662 25.2175 109.681 25.2175C110.699 25.2175 111.718 24.4198 111.718 22.8909ZM114.919 30.0909V18.8193H117.031V19.8372C117.397 19.1808 118.341 18.6739 119.505 18.6739C121.908 18.6739 123.288 20.4936 123.288 22.8909C123.288 25.3629 121.758 27.1827 119.43 27.1827C118.337 27.1827 117.464 26.7464 117.102 26.1648V30.0909H114.919ZM119.143 20.5643C118.05 20.5643 117.106 21.4367 117.106 22.8203C117.106 24.2038 118.054 25.1469 119.143 25.1469C120.232 25.1469 121.18 24.2744 121.18 22.8203C121.18 21.4367 120.232 20.5643 119.143 20.5643ZM132.023 24.6358C131.586 26.0194 130.347 27.1827 128.31 27.1827C126.053 27.1827 124.09 25.5831 124.09 22.8203C124.09 20.2028 125.982 18.5285 128.094 18.5285C130.642 18.5285 132.098 20.128 132.098 22.7455V23.4019H126.273C126.348 24.4946 127.221 25.2217 128.31 25.2217C129.329 25.2217 129.911 24.7106 130.131 23.9836L132.023 24.6358ZM129.986 21.9478C129.986 21.1459 129.404 20.3482 128.165 20.3482C127.001 20.3482 126.419 21.2207 126.344 21.9478H129.986Z" fill="#010101"/>
<path d="M34.0585 13.7258H28.3795C23.4322 13.7258 23.0664 14.8184 21.0293 16.7794C19.0628 18.7446 18.6263 19.8331 13.679 19.8331H8V14.2368H13.679C18.6263 14.2368 18.9921 13.1441 21.0293 11.1831C22.9957 9.21794 23.4322 8.12942 28.3795 8.12942H34.0585V13.7258ZM20.3017 4.1991C18.4101 6.08947 17.9736 7.10737 13.097 7.10737H8.07483V12.7079H13.097C17.9736 12.7079 18.4101 11.69 20.3017 9.79959V4.1991ZM27.7227 1C24.0849 1 22.9209 1.58165 21.7526 2.67433V8.27483C22.9167 7.18215 24.0808 6.6005 27.7227 6.6005H34.0544V1H27.7227ZM20.3017 19.6919C19.1376 20.7845 17.9736 21.3662 14.3317 21.3662H8.07483V26.9667H14.4065C18.0443 26.9667 19.2083 26.385 20.3766 25.2924V19.6919H20.3017ZM29.0364 15.2547C24.1598 15.2547 23.7233 16.2726 21.8316 18.1629V23.7634C23.7233 21.8731 24.1598 20.8552 29.0364 20.8552H34.0585V15.2547H29.0364Z" fill="url(#paint0_linear_632_17548)"/>
<defs>
<linearGradient id="paint0_linear_632_17548" x1="8.0735" y1="13.9816" x2="34.0432" y2="13.9816" gradientUnits="userSpaceOnUse">
<stop stop-color="#009782"/>
<stop offset="0.081" stop-color="#129A7E"/>
<stop offset="0.212" stop-color="#2FA172"/>
<stop offset="0.377" stop-color="#4DAD5A"/>
<stop offset="0.5" stop-color="#5FBB46"/>
<stop offset="0.556" stop-color="#6FBD44"/>
<stop offset="0.75" stop-color="#99C63C"/>
<stop offset="0.905" stop-color="#B0CC36"/>
<stop offset="1" stop-color="#B9CE33"/>
</linearGradient>
</defs>
</svg>
