<svg width="100" height="31" viewBox="0 0 100 31" fill="none" xmlns="http://www.w3.org/2000/svg">
<g clip-path="url(#clip0_632_17160)">
<path d="M43.3433 23.1317H40.0645V6.09872H43.3433V12.374C43.852 11.7577 45.0392 11.1414 46.2829 11.1414C49.7313 11.1414 51.6533 13.9429 51.6533 17.3047C51.6533 20.6664 49.7313 23.4119 46.2829 23.4119C45.0392 23.4119 43.852 22.7956 43.3433 22.1792V23.1317ZM43.3433 19.2097C43.739 20.0501 44.5869 20.5544 45.548 20.5544C47.3004 20.5544 48.3745 19.1536 48.3745 17.2486C48.3745 15.3436 47.3004 13.9429 45.548 13.9429C44.5869 13.9429 43.6824 14.5032 43.3433 15.2876V19.2097Z" fill="#414042"/>
<path d="M66.0687 11.1414C68.4995 11.1414 69.9693 12.8223 69.9693 15.4557V23.1318H66.6905V16.128C66.6905 14.8954 66.1252 14.0549 64.9946 14.0549C64.1466 14.0549 63.3552 14.5592 63.1856 15.5677V23.1318H59.9068V16.128C59.9068 14.8954 59.398 14.0549 58.2674 14.0549C57.4194 14.0549 56.628 14.5592 56.4018 15.5677V23.1318H53.123V11.4216H56.2888V12.3741C56.8541 11.6457 57.9847 11.1414 59.2849 11.1414C60.6982 11.1414 61.7723 11.7577 62.4507 12.6542C63.2421 11.8138 64.3727 11.1414 66.0687 11.1414Z" fill="#414042"/>
<path d="M76.9235 11.1414C79.9196 11.1414 81.7852 12.8783 82.1244 15.3436H78.9021C78.7325 14.4472 77.9976 13.8869 76.9235 13.8869C75.3972 13.8869 74.4927 15.2316 74.4927 17.2486C74.4927 19.2097 75.3972 20.5544 76.9235 20.5544C77.9976 20.5544 78.676 19.9941 78.9021 19.0976H82.1244C81.7852 21.619 79.9196 23.2998 76.9235 23.2998C73.5882 23.2998 71.2139 20.7785 71.2139 17.1926C71.2704 13.6067 73.5882 11.1414 76.9235 11.1414Z" fill="#414042"/>
<path d="M19.4879 28.1744C18.4138 28.1744 17.2832 27.334 17.2832 25.7091V21.8991C17.2832 20.3863 18.2442 18.6494 19.601 17.921L24.9714 14.7833L19.601 11.6457C18.3008 10.8052 17.2832 9.12432 17.2832 7.61152V3.74547C17.2832 2.12061 18.4138 1.28017 19.5444 1.28017C19.9967 1.28017 20.5055 1.39223 20.9577 1.67237L33.0554 8.78814C33.9033 9.29241 34.3556 10.0768 34.3556 10.8612C34.3556 11.7017 33.8468 12.4861 33.0554 12.9343L30.1723 14.6152L33.0554 16.2961C33.9033 16.8004 34.4121 17.5848 34.4121 18.3692C34.4121 19.2097 33.9033 19.9941 33.0554 20.4423L20.9577 27.7822C20.4489 28.0624 19.9967 28.1744 19.4879 28.1744ZM27.5719 16.2961L20.9577 20.1622C20.4489 20.4423 19.9402 21.3388 19.9402 21.8991V25.3169L31.416 18.5933L27.5719 16.2961ZM19.9402 4.19371V7.61152C19.9402 8.17182 20.4489 9.06829 20.9577 9.34844L27.5719 13.2145L31.4725 10.9173L19.9402 4.19371Z" fill="#FE5000"/>
</g>
<defs>
<clipPath id="clip0_632_17160">
<rect width="65.4064" height="27.4545" fill="white" transform="translate(17 1)"/>
</clipPath>
</defs>
</svg>
