<svg width="90" height="31" viewBox="0 0 90 31" fill="none" xmlns="http://www.w3.org/2000/svg">
<g clip-path="url(#clip0_632_17405)">
<path d="M40.7246 15.6096L45.3427 17.5704L50.0669 15.6096L45.3569 17.8862L40.7246 15.6096Z" fill="#B39243"/>
<path d="M40.7246 16.3072L45.3427 18.2681L50.0669 16.3072L45.3569 18.5839L40.7246 16.3072Z" fill="#B39243"/>
<path d="M38.3021 13.4869C38.3021 13.4869 38.7447 14.0137 39.8656 14.0241L39.8462 14.0901C39.8462 14.0901 39.168 14.2506 38.3202 13.7885L38.3008 13.4869H38.3021Z" fill="#B39243"/>
<path d="M38.3203 13.9852C38.3203 13.9852 38.9519 14.5405 40.0534 14.4848V14.5599C40.0534 14.5599 39.0361 14.8136 38.3294 14.2493L38.3203 13.9852Z" fill="#B39243"/>
<path d="M52.3255 13.0611C52.1093 12.8566 51.303 12.8838 51.303 12.8838L51.3457 13.3381C50.595 13.417 50.0164 13.5154 49.5026 13.773C48.9888 14.0292 48.9719 14.6194 49.2269 14.7204C49.5375 14.8434 49.4236 15.0957 49.4236 15.0957L45.4165 16.7343L45.41 16.7291L41.4029 15.0906C41.4029 15.0906 41.289 14.8395 41.5996 14.7152C41.8546 14.6143 41.8365 14.0241 41.3239 13.7678C40.8101 13.5115 40.2315 13.4119 39.4809 13.3329L39.5236 12.8786C39.5236 12.8786 38.7185 12.8514 38.5011 13.0559C38.338 13.2112 38.3237 13.5102 39.0149 13.5491C39.7061 13.5892 41.3835 13.628 41.522 14.2596C41.522 14.2596 40.5616 14.3696 40.4555 14.5366C40.3959 14.6298 40.4438 14.8084 40.6988 14.9378C41.0845 15.1333 45.0929 17.0074 45.4036 17.1524L45.423 17.1576C45.7362 17.0113 49.742 15.1385 50.1277 14.943C50.3827 14.8136 50.4306 14.635 50.3711 14.5418C50.2649 14.3748 49.3046 14.2661 49.3046 14.2661C49.4431 13.6345 51.1205 13.5944 51.8116 13.5555C52.5028 13.5167 52.4885 13.2164 52.3242 13.0624L52.3255 13.0611Z" fill="#B39243"/>
<path d="M52.5225 13.4908C52.5225 13.4908 52.0798 14.0189 50.959 14.0279L50.9784 14.0939C50.9784 14.0939 51.6566 14.2544 52.5044 13.7924L52.5238 13.4908H52.5225Z" fill="#B39243"/>
<path d="M52.5045 13.9904C52.5045 13.9904 51.8729 14.5457 50.7715 14.49V14.5651C50.7715 14.5651 51.7888 14.82 52.4955 14.2544L52.5045 13.9904Z" fill="#B39243"/>
<path d="M51.0732 15.2239C51.2609 15.2148 52.1656 15.1397 52.5707 14.7346L52.5798 14.4809C52.5798 14.4809 51.93 15.1682 50.5917 14.8006L50.5723 15.1967L50.9865 16.2606L45.3912 19.0369L39.8335 16.2567L40.2477 15.1928L40.2283 14.7968C38.8913 15.1643 38.2402 14.4771 38.2402 14.4771L38.2493 14.7307C38.6544 15.1359 39.5591 15.2109 39.7468 15.22C39.9345 15.2291 39.9073 15.409 39.9073 15.409L39.4841 16.2567L45.3977 19.3876L51.3334 16.2606L50.9088 15.4128C50.9088 15.4128 50.8803 15.2342 51.0693 15.2239H51.0732Z" fill="#B39243"/>
<path d="M44.4071 3.59847C45.4257 4.06053 45.2083 5.22799 45.0724 5.49979C44.996 5.65252 44.719 6.0434 44.719 6.0434L44.7462 5.84019C44.9365 4.98466 44.8549 4.40093 44.2298 4.03335C43.4623 3.58164 42.709 4.41388 42.709 4.41388C42.709 4.07477 43.3885 3.1377 44.4071 3.59847ZM42.8876 5.28106C42.8876 5.28106 43.2668 4.64297 43.9062 4.81252C44.5003 4.97043 44.7074 5.45967 44.7216 6.03952C44.7216 6.03952 45.0646 4.63261 43.9062 4.4553C43.9062 4.4553 42.9549 4.33104 42.8876 5.28235V5.28106ZM42.819 6.20777C42.819 6.20777 42.951 5.35742 43.76 5.35742C43.76 5.35742 44.4239 5.35224 44.7229 6.03434C44.7229 6.03434 44.6686 4.96525 43.7172 5.01314C42.8928 5.05456 42.7504 5.8622 42.819 6.20777Z" fill="#B39243"/>
<path d="M45.8421 4.34136C45.8421 4.34136 45.5159 4.30124 45.6247 4.0359C45.7334 3.76928 46.0984 3.92718 46.1281 4.14463C46.1579 4.36207 46.1385 4.88496 45.5755 5.19042V5.14123C45.5755 5.14123 46.079 4.61834 45.8421 4.34136ZM46.3559 5.25902C46.2382 5.56447 45.8822 5.8518 45.8822 5.8518C46.1191 5.84145 46.4077 5.61365 46.4931 5.52176C46.6459 5.35479 46.7145 5.12829 46.6925 5.37809C46.6718 5.60589 46.6433 5.77285 46.6433 5.77285C46.8607 5.536 46.9811 5.26937 47.038 4.97298C47.1105 4.59763 46.8918 4.45914 46.7714 4.46949C46.7002 4.47597 46.5527 4.4902 46.4673 4.74906C46.3831 5.00663 45.7541 5.36644 45.7541 5.36644C46.2472 5.36644 46.3559 5.25772 46.3559 5.25772V5.25902ZM49.1853 8.05599V7.76607H45.9444C45.9457 7.66382 45.9521 7.22764 45.9521 6.8976C45.9521 6.58697 46.4802 6.32034 46.4802 6.32034C47.5558 5.65895 47.6011 5.05193 47.5713 4.60798C47.5441 4.19251 47.2451 3.96601 47.1765 3.88706C47.1079 3.80811 47.0872 3.74857 47.117 3.69939C47.1468 3.6502 47.1804 3.66703 47.1959 3.61008C47.2167 3.53501 47.1571 3.40299 47.0277 3.38358C46.9228 3.36675 46.9073 3.27097 46.9293 3.16614C46.95 3.06906 47.2451 2.98882 47.2451 2.98882C47.1493 2.86715 46.9436 2.87492 46.8957 2.8788C46.8944 2.83868 46.8866 2.74549 46.8659 2.54876C46.8115 2.05045 46.2291 1.93655 46.3378 2.02586C46.4465 2.11517 46.3534 2.45039 46.299 2.3572C46.2446 2.26401 46.0764 2.12034 45.9586 2.06081C45.8408 2.00127 45.6376 2.10481 45.5587 2.1993C45.4797 2.29248 45.569 2.37661 45.6764 2.40121C45.7852 2.4258 45.8563 2.46592 45.8887 2.55005C45.9301 2.66007 45.767 2.62771 45.767 2.62771C45.6739 2.58629 45.5561 2.5164 45.3839 2.58241C45.1328 2.68077 45.0979 3.11178 45.3451 3.25027C45.4473 3.31369 45.7334 3.32792 45.8292 3.15578C46.0168 2.81797 46.2848 2.88657 46.2848 2.88657V3.52983C47.4561 4.06826 47.4729 4.70894 47.3008 5.23054C47.1261 5.75732 46.3818 6.15855 46.0699 6.33587C45.7593 6.5119 45.7761 6.79664 45.7761 6.79664V7.76737H45.5198C45.525 7.691 45.5367 7.44897 45.5367 6.88854C45.5367 6.17797 45.0228 6.08866 45.0228 6.08866L44.4896 6.47307C45.2001 6.20644 45.2985 6.87818 45.2985 6.87818V7.76607H41.5645V8.05599H41.822V11.9609C41.8194 12.0347 41.7974 12.8695 42.2621 13.2397C42.7578 13.6344 45.1885 15.0607 45.2907 15.1216L45.371 15.1682L45.4512 15.1216C45.5548 15.062 47.9842 13.6435 48.4812 13.2487C48.9458 12.8785 48.9238 12.0437 48.9212 11.97V8.05599H49.184H49.1853ZM42.8031 11.9272V11.9221V8.05599H47.9V11.9272C47.9 11.9272 47.9648 12.5589 47.5713 12.7711C47.1558 12.9963 45.6531 13.8946 45.3516 14.0745C45.05 13.8933 43.5473 12.9963 43.1318 12.7711C42.7397 12.5589 42.8018 11.9324 42.8031 11.9272ZM48.2857 13.0015C47.856 13.3432 45.8059 14.5495 45.3736 14.8019C44.9426 14.5469 42.8911 13.3341 42.4601 12.9912C42.1702 12.7608 42.1301 12.1757 42.1391 11.9712V8.05599H42.6064V11.9117C42.5986 11.9881 42.5468 12.6792 43.0387 12.9459C43.4878 13.1892 45.2843 14.2647 45.3024 14.2751L45.3529 14.3049L45.4033 14.2751C45.4215 14.2647 47.2167 13.1892 47.6671 12.9459C48.1589 12.6792 48.1071 11.9881 48.0994 11.9117V8.05599H48.608V11.9816C48.6171 12.1861 48.5783 12.7698 48.287 13.0015H48.2857Z" fill="#B39243"/>
<path fill-rule="evenodd" clip-rule="evenodd" d="M49.4082 5.66157C49.4082 5.66157 49.1843 5.58262 49.2373 5.3587L49.2904 5.13479C49.2904 5.13479 49.3823 5.14773 49.4224 5.23963C49.4613 5.33152 49.8172 6.04209 49.9621 6.18706C50.1071 6.33202 50.0799 6.13399 50.0799 6.13399C50.0799 6.13399 50.0799 5.22539 50.1201 5.14644C50.1589 5.06749 50.2119 5.1335 50.2378 5.22539C50.2637 5.31729 50.2508 5.2914 50.3957 5.17233C50.5407 5.05454 50.7776 4.7245 50.8953 4.68567C51.0144 4.64684 51.0002 4.77756 50.9342 4.89664C50.8682 5.01572 50.5135 5.30434 50.4734 5.41048C50.4346 5.51531 50.3944 5.52826 50.5265 5.48943C50.6585 5.44931 51.0532 5.00277 51.105 5.12055C51.1581 5.23834 51.1438 5.25257 51.0649 5.33152C50.9859 5.41048 50.3543 5.91008 50.2883 6.01621C50.2223 6.12105 50.0515 6.22718 50.1705 6.26601C50.2883 6.30484 50.828 6.2 50.9342 6.16117C51.039 6.12105 51.1581 6.26601 50.9872 6.31907C50.8164 6.37214 50.5666 6.47698 50.5666 6.47698C50.5666 6.47698 50.7245 6.54299 50.8565 6.58182C50.9885 6.62194 50.9885 6.71384 50.8306 6.72678C50.6727 6.73972 50.4229 6.66077 50.3828 6.64783C50.344 6.63488 50.4876 6.95069 50.6067 7.0167C50.7258 7.08271 50.6455 7.18755 50.5679 7.17461C50.4889 7.16166 50.3181 7.05682 50.212 6.91186C50.1071 6.7669 50.054 6.54299 50.054 6.54299C50.054 6.54299 49.6463 6.56887 49.5273 6.59605C49.4082 6.62194 49.3163 6.71383 49.1985 6.72807C49.0807 6.74102 48.8167 6.63618 49.0277 6.62323C49.2386 6.61029 49.2775 6.55722 49.2904 6.5184C49.3034 6.47827 49.0147 6.40061 48.9345 6.24142C48.8555 6.08351 48.8685 6.0175 48.9746 6.07057C49.0794 6.12364 49.2645 6.28154 49.4354 6.32037C49.6062 6.3592 49.7124 6.37343 49.7771 6.33331C49.8431 6.29319 49.6722 6.17541 49.4613 6.05633C49.2503 5.93855 49.0924 5.80653 49.0665 5.74052C49.0406 5.67451 49.0134 5.56968 49.1196 5.62274C49.2244 5.67581 49.3435 5.64863 49.4095 5.66157H49.4082ZM48.7636 5.56838C48.6264 5.69005 48.598 5.94243 48.62 6.24012C48.642 6.53781 48.6148 6.38897 48.642 6.59735C48.6691 6.80702 49.0225 7.01541 49.3085 6.98305C49.5946 6.95069 49.9091 6.77337 49.9091 6.77337L49.9751 7.01023C50.0411 7.24709 50.1848 7.35192 50.4656 7.41793C50.7465 7.48394 50.9057 7.30274 50.9005 7.23673C50.8953 7.17072 50.9393 7.07753 50.9937 7.00505C51.0494 6.93387 51.1917 6.81738 51.2474 6.69183C51.303 6.56499 51.4182 6.45498 51.4726 6.17411C51.5283 5.89325 51.4778 5.83889 51.4014 5.84407C51.325 5.84924 51.1426 5.91525 51.0494 5.95408C50.9562 5.99291 50.8682 5.92043 50.8953 5.82724C50.9225 5.73405 51.2422 5.57356 51.3354 5.49719C51.4286 5.41954 51.3794 5.20598 51.3678 5.11149C51.3574 5.0183 51.2849 4.83581 51.2849 4.75944C51.2849 4.68308 51.1982 4.51741 51.1982 4.51741C51.1451 4.39963 51.0662 4.39963 50.9743 4.4514C50.8824 4.50447 50.8552 4.51741 50.7374 4.53035C50.6197 4.5433 50.5795 4.63519 50.4618 4.71414C50.344 4.7931 50.3168 4.75297 50.212 4.75297C50.1071 4.75297 49.988 5.05584 49.8961 5.18786C49.8042 5.31988 49.7641 5.30564 49.6981 5.25387C49.6321 5.2008 49.3823 4.87205 49.3034 4.7931C49.2244 4.71414 49.0264 5.27975 49.0264 5.27975C49.0083 5.34447 48.9008 5.44672 48.7636 5.56838ZM53.4451 6.06798C53.4451 6.06798 53.625 6.00974 53.7001 6.1767L53.7752 6.34367C53.7752 6.34367 53.7104 6.37991 53.6405 6.34108C53.5707 6.30225 53.0025 6.02397 52.8407 6.00197C52.6789 5.97997 52.7915 6.09257 52.7915 6.09257C52.7915 6.09257 53.2303 6.66724 53.2432 6.73584C53.2561 6.80444 53.1914 6.7889 53.1306 6.7436C53.0698 6.6983 53.0905 6.70866 53.0555 6.85362C53.0219 6.99858 53.0309 7.32086 52.9753 7.4037C52.9196 7.48653 52.864 7.39593 52.8484 7.2898C52.8329 7.18367 52.917 6.82773 52.8911 6.74231C52.8653 6.65689 52.8834 6.62971 52.82 6.71772C52.7552 6.80573 52.7229 7.28074 52.6323 7.23026C52.5417 7.18108 52.5443 7.16555 52.5559 7.07753C52.5676 6.98952 52.7255 6.36826 52.7164 6.26989C52.7074 6.17152 52.7643 6.02268 52.6698 6.05504C52.5753 6.08739 52.2854 6.41485 52.2388 6.48992C52.1909 6.56628 52.046 6.53134 52.1288 6.41615C52.2116 6.29966 52.3191 6.11328 52.3191 6.11328C52.3191 6.11328 52.1871 6.14823 52.0848 6.18706C51.9826 6.22588 51.9385 6.16764 52.0317 6.08222C52.1249 5.99809 52.3217 5.9269 52.3527 5.91525C52.3838 5.9049 52.1392 5.77417 52.033 5.791C51.9256 5.80653 51.9256 5.70169 51.9813 5.67193C52.0382 5.64216 52.1961 5.62533 52.3333 5.66675C52.4692 5.70687 52.6116 5.82336 52.6116 5.82336C52.6116 5.82336 52.8562 5.6098 52.9183 5.53602C52.9805 5.46225 52.9947 5.3587 53.0633 5.29399C53.1319 5.22798 53.3493 5.16715 53.2225 5.27846C53.0956 5.38847 53.0956 5.44154 53.1073 5.4726C53.1176 5.50367 53.339 5.41436 53.4658 5.47519C53.5927 5.53732 53.616 5.58521 53.5241 5.60203C53.4322 5.62015 53.2393 5.6085 53.1125 5.66675C52.9856 5.72499 52.9119 5.7677 52.8899 5.82336C52.8679 5.88031 53.0322 5.87254 53.2238 5.84536C53.414 5.81818 53.5771 5.82595 53.6263 5.85442C53.6742 5.8829 53.7428 5.93726 53.6509 5.95538C53.559 5.9735 53.4969 6.04727 53.449 6.07057L53.4451 6.06798ZM53.8981 5.81559C53.9266 5.67192 53.8217 5.49849 53.6638 5.32117C53.5059 5.14385 53.5952 5.2241 53.4775 5.10502C53.3584 4.98595 53.0348 5.02348 52.8704 5.18397C52.7048 5.34317 52.5922 5.60592 52.5922 5.60592L52.4356 5.48813C52.2789 5.37035 52.1379 5.37294 51.9295 5.46743C51.7198 5.56191 51.7069 5.75347 51.7418 5.79229C51.778 5.83112 51.7949 5.91137 51.7949 5.98385C51.7949 6.05633 51.7599 6.19741 51.7858 6.30484C51.8117 6.41097 51.7923 6.53652 51.8932 6.74102C51.9942 6.94551 52.0524 6.95587 52.0977 6.91575C52.1443 6.87562 52.2272 6.7449 52.2673 6.6763C52.3074 6.60641 52.398 6.609 52.4265 6.68148C52.4537 6.75396 52.3294 7.00894 52.3074 7.10342C52.2854 7.1979 52.42 7.30921 52.4731 7.36357C52.5249 7.41793 52.6582 7.49818 52.6957 7.54607C52.7332 7.59525 52.8678 7.65738 52.8678 7.65738C52.9585 7.70656 53.0076 7.66903 53.0413 7.59137C53.0736 7.51371 53.084 7.493 53.1526 7.42699C53.2212 7.36098 53.2018 7.28462 53.238 7.17719C53.2743 7.06977 53.3105 7.08271 53.3778 7.03094C53.4438 6.98046 53.3726 6.73196 53.3674 6.60382C53.3623 6.47568 53.3933 6.46533 53.4606 6.46662C53.5279 6.46792 53.845 6.55593 53.9331 6.56758C54.0211 6.57923 53.8722 6.12622 53.8722 6.12622C53.8528 6.07704 53.8722 5.96055 53.8994 5.81689L53.8981 5.81559ZM51.9528 8.35112C51.9528 8.35112 52.1249 8.29547 52.1961 8.45467L52.2673 8.61386C52.2673 8.61386 52.2052 8.64881 52.1392 8.61128C52.0732 8.57374 51.5295 8.30841 51.3755 8.2877C51.2215 8.26699 51.3276 8.37442 51.3276 8.37442C51.3276 8.37442 51.747 8.9232 51.7599 8.98921C51.7729 9.05522 51.7107 9.03969 51.6512 8.99568C51.593 8.95168 51.6124 8.96203 51.58 9.10052C51.5477 9.23901 51.5554 9.54705 51.5024 9.62601C51.4493 9.70496 51.3962 9.61953 51.3807 9.51728C51.3652 9.41504 51.4467 9.07593 51.4221 8.99439C51.3975 8.91285 51.4156 8.88696 51.3535 8.97109C51.2927 9.05522 51.2603 9.50822 51.1736 9.46163C51.0869 9.41504 51.0895 9.4008 51.0998 9.31667C51.1115 9.23254 51.2616 8.63846 51.2526 8.54397C51.2435 8.44949 51.2992 8.30712 51.2086 8.33818C51.1193 8.36924 50.841 8.68246 50.7957 8.75494C50.7504 8.82742 50.6119 8.79507 50.6908 8.68376C50.7698 8.57245 50.872 8.39383 50.872 8.39383C50.872 8.39383 50.7465 8.42749 50.6481 8.46373C50.5511 8.50126 50.5083 8.44431 50.5976 8.36406C50.687 8.28382 50.8746 8.21522 50.9044 8.20487C50.9342 8.19451 50.7012 8.07026 50.5989 8.08579C50.4967 8.10132 50.4967 8.00037 50.5498 7.97189C50.6041 7.94342 50.7556 7.92789 50.8863 7.96672C51.017 8.00554 51.1516 8.11685 51.1516 8.11685C51.1516 8.11685 51.3859 7.91236 51.4454 7.84246C51.505 7.77128 51.5179 7.67291 51.5839 7.61078C51.6499 7.54866 51.857 7.49041 51.7366 7.59525C51.615 7.70009 51.6163 7.75057 51.6266 7.78034C51.637 7.81011 51.8479 7.72468 51.9696 7.78293C52.09 7.84246 52.1133 7.88776 52.0253 7.90459C51.9372 7.92142 51.7535 7.91106 51.6318 7.96672C51.5101 8.02237 51.4402 8.06249 51.4182 8.11685C51.3962 8.17121 51.5554 8.16345 51.7366 8.13756C51.9191 8.11168 52.0744 8.11815 52.121 8.14662C52.1676 8.1738 52.2323 8.22558 52.1443 8.2424C52.0563 8.25923 51.9968 8.33041 51.9515 8.35242L51.9528 8.35112ZM52.3864 8.11038C52.4136 7.97319 52.3126 7.80752 52.1625 7.63796C52.0123 7.46841 52.0977 7.54607 51.9838 7.43217C51.8712 7.31827 51.5606 7.35451 51.4027 7.50724C51.2448 7.65997 51.1361 7.91106 51.1361 7.91106L50.9872 7.79846C50.8384 7.68585 50.7025 7.68844 50.5032 7.77904C50.3026 7.86835 50.2896 8.05214 50.3246 8.08967C50.3582 8.12721 50.375 8.20357 50.375 8.27217C50.375 8.34077 50.3414 8.47667 50.3673 8.57892C50.3919 8.68117 50.3737 8.80024 50.4695 8.99568C50.5666 9.19112 50.6209 9.20148 50.665 9.16265C50.709 9.12382 50.7879 8.99957 50.8267 8.93356C50.8656 8.86755 50.9523 8.87014 50.9782 8.93873C51.0054 9.00863 50.885 9.25195 50.8643 9.34126C50.8436 9.43057 50.973 9.53799 51.0222 9.58977C51.0714 9.64154 51.1995 9.7179 51.2344 9.7645C51.2707 9.81109 51.3988 9.87063 51.3988 9.87063C51.4855 9.91852 51.5334 9.88098 51.5645 9.80721C51.5956 9.73214 51.6059 9.71272 51.6719 9.6506C51.7379 9.58847 51.7185 9.5134 51.7535 9.41115C51.7884 9.3089 51.8234 9.32055 51.8868 9.27137C51.9502 9.22218 51.8816 8.98533 51.8777 8.86237C51.8725 8.74071 51.9023 8.73035 51.967 8.73165C52.0317 8.73294 52.3346 8.81707 52.4187 8.82742C52.5029 8.83907 52.3605 8.40548 52.3605 8.40548C52.3411 8.35889 52.3605 8.24628 52.3864 8.11038ZM50.0981 10.9436C49.9945 10.932 50.0644 10.8672 50.1149 10.831C50.1654 10.7948 50.3453 10.7715 50.5575 10.7844C50.7698 10.7961 50.9536 10.7896 50.9225 10.7287C50.8928 10.6679 50.8086 10.6278 50.6624 10.576C50.5174 10.5242 50.3051 10.554 50.2016 10.5424C50.0993 10.532 50.1201 10.4764 50.2534 10.3974C50.3867 10.3172 50.6391 10.3974 50.6481 10.3612C50.6572 10.3262 50.6533 10.268 50.5032 10.158C50.353 10.0479 50.5989 10.0945 50.6805 10.1606C50.762 10.2266 50.7866 10.3392 50.8617 10.4142C50.9368 10.4893 51.2267 10.7029 51.2267 10.7029C51.2267 10.7029 51.3716 10.5618 51.5192 10.5048C51.6654 10.4479 51.8428 10.4505 51.9075 10.4777C51.9722 10.5048 51.9813 10.6213 51.8622 10.6136C51.7431 10.6058 51.4855 10.7715 51.5218 10.7805C51.5567 10.7896 51.7806 10.8491 51.8907 10.9345C52.002 11.0187 51.958 11.0873 51.8415 11.0549C51.725 11.0213 51.5761 10.9954 51.5761 10.9954C51.5761 10.9954 51.712 11.1921 51.813 11.3125C51.9152 11.4328 51.7586 11.4833 51.6991 11.4044C51.6396 11.3254 51.2901 10.9915 51.1827 10.9643C51.0765 10.9371 51.1529 11.0963 51.1516 11.2063C51.1516 11.3151 51.382 11.9868 51.4027 12.0826C51.4234 12.1784 51.4273 12.1952 51.3315 12.2573C51.2357 12.3207 51.1555 11.8004 51.0765 11.7085C50.9976 11.6166 51.0209 11.6451 51.0002 11.7422C50.9795 11.8393 51.1063 12.2224 51.0985 12.3414C51.0908 12.4605 51.039 12.5641 50.9691 12.4786C50.9005 12.3932 50.8811 12.0373 50.8293 11.8794C50.7789 11.7228 50.8009 11.7098 50.7374 11.7655C50.674 11.8211 50.6041 11.8457 50.6119 11.7681C50.6197 11.6904 51.0507 11.0174 51.0507 11.0174C51.0507 11.0174 51.1633 10.8828 50.9872 10.9216C50.8112 10.9604 50.2107 11.3189 50.1369 11.3681C50.0644 11.4173 49.9893 11.3837 49.9893 11.3837L50.0566 11.1921C50.1239 11.0018 50.3271 11.0484 50.3271 11.0484C50.2715 11.0264 50.1964 10.9514 50.0942 10.9397L50.0981 10.9436ZM49.8677 11.1533C49.8677 11.1533 49.746 11.6671 49.8418 11.6451C49.9376 11.6244 50.2793 11.4989 50.353 11.4911C50.4268 11.4833 50.4617 11.4911 50.4682 11.6335C50.4734 11.7745 50.4177 12.0554 50.4967 12.1059C50.5756 12.1564 50.6132 12.1395 50.6637 12.2534C50.7141 12.3686 50.6999 12.4553 50.7814 12.5214C50.863 12.5874 50.8759 12.6094 50.9199 12.6922C50.9626 12.775 51.0222 12.8126 51.1167 12.7491C51.1167 12.7491 51.259 12.6676 51.2953 12.6107C51.3315 12.5537 51.4713 12.4528 51.5244 12.388C51.5774 12.3233 51.7159 12.1887 51.6823 12.0865C51.6499 11.9842 51.4881 11.715 51.5127 11.6322C51.5373 11.5493 51.6357 11.539 51.6875 11.6115C51.7379 11.6839 51.8428 11.8198 51.8971 11.86C51.9515 11.9001 52.0149 11.8833 52.1068 11.649C52.1987 11.4147 52.1663 11.2775 52.1858 11.1585C52.2052 11.0381 52.1534 10.8854 52.1469 10.8051C52.1405 10.7262 52.1521 10.6356 52.187 10.589C52.222 10.5424 52.1896 10.3327 51.9502 10.2473C51.7107 10.1631 51.5554 10.1722 51.3936 10.3172L51.2319 10.4608C51.2319 10.4608 51.083 10.1813 50.8863 10.0208C50.6895 9.86027 50.3284 9.84862 50.2094 9.9897C50.0903 10.1321 50.1809 10.035 50.023 10.2447C49.8651 10.4544 49.7654 10.655 49.8107 10.8103C49.8547 10.9656 49.8871 11.0924 49.869 11.1494L49.8677 11.1533Z" fill="#B39243"/>
<path fill-rule="evenodd" clip-rule="evenodd" d="M41.6441 5.59812C41.7489 5.54505 41.723 5.65118 41.6971 5.71719C41.6712 5.7832 41.5133 5.91393 41.3024 6.033C41.0914 6.15078 40.9206 6.26986 40.9866 6.30869C41.0526 6.34752 41.1574 6.33457 41.3283 6.29574C41.4991 6.25691 41.6842 6.09901 41.789 6.04594C41.8939 5.99288 41.9068 6.05889 41.8291 6.21679C41.7502 6.3747 41.4603 6.45365 41.4732 6.49377C41.4862 6.5326 41.5263 6.58567 41.736 6.59861C41.9469 6.61155 41.6829 6.71769 41.5651 6.70345C41.4473 6.6905 41.3541 6.59861 41.2364 6.57143C41.1173 6.54554 40.7096 6.51836 40.7096 6.51836C40.7096 6.51836 40.6565 6.74228 40.5517 6.88724C40.4468 7.0322 40.2747 7.13704 40.1957 7.14998C40.1168 7.16292 40.0378 7.05809 40.1569 6.99208C40.2747 6.92607 40.4197 6.61026 40.3808 6.6232C40.3407 6.63614 40.0909 6.7151 39.933 6.70215C39.7751 6.68921 39.7751 6.59732 39.9071 6.55719C40.0391 6.51707 40.197 6.45235 40.197 6.45235C40.197 6.45235 39.9472 6.34752 39.7764 6.29445C39.6055 6.24138 39.7233 6.09772 39.8295 6.13655C39.9343 6.17537 40.474 6.28151 40.5931 6.24138C40.7122 6.20255 40.54 6.09642 40.474 5.99158C40.408 5.88675 39.7764 5.38585 39.6974 5.3069C39.6185 5.22795 39.6055 5.21501 39.6586 5.09593C39.7117 4.97685 40.1064 5.42468 40.2372 5.4648C40.3692 5.50493 40.3291 5.49069 40.2902 5.38585C40.2501 5.28101 39.8955 4.99109 39.8295 4.87331C39.7634 4.75424 39.7505 4.62351 39.8696 4.66234C39.9874 4.70117 40.2255 5.03121 40.3692 5.149C40.5141 5.26807 40.5012 5.29396 40.5271 5.20206C40.553 5.11017 40.606 5.04416 40.6449 5.12311C40.685 5.20206 40.685 6.11066 40.685 6.11066C40.685 6.11066 40.6591 6.30869 40.8028 6.16373C40.9477 6.01876 41.3024 5.30819 41.3425 5.2163C41.3826 5.1244 41.4745 5.11146 41.4745 5.11146L41.5276 5.33537C41.5806 5.55929 41.3567 5.63824 41.3567 5.63824C41.4227 5.6253 41.5405 5.65118 41.6467 5.59812H41.6441ZM41.736 5.25642C41.736 5.25642 41.5379 4.69081 41.459 4.76977C41.38 4.84872 41.1302 5.17747 41.0642 5.23054C40.9982 5.2836 40.9594 5.29655 40.8675 5.16453C40.7756 5.03251 40.6565 4.73094 40.5517 4.73094C40.4468 4.73094 40.4197 4.76977 40.3019 4.69081C40.1841 4.61186 40.144 4.51997 40.0262 4.50702C39.9071 4.49408 39.8812 4.48114 39.7893 4.42807C39.6974 4.37501 39.6185 4.37501 39.5654 4.49408C39.5654 4.49408 39.4787 4.65975 39.4787 4.73611C39.4787 4.81248 39.4075 4.99497 39.3959 5.08816C39.3842 5.18135 39.335 5.39621 39.4295 5.47386C39.5227 5.55152 39.8424 5.71072 39.8696 5.80391C39.8968 5.8971 39.8087 5.96958 39.7156 5.93075C39.6224 5.89192 39.4399 5.82591 39.3635 5.82074C39.2859 5.81556 39.2367 5.86992 39.2923 6.15078C39.348 6.43165 39.4632 6.54166 39.5175 6.6685C39.5732 6.79534 39.7156 6.91054 39.7712 6.98172C39.8269 7.05291 39.8709 7.14739 39.8644 7.2134C39.8592 7.27941 40.0184 7.46061 40.2993 7.3946C40.5802 7.32859 40.7225 7.22376 40.7885 6.9869L40.8545 6.75004C40.8545 6.75004 41.1678 6.92607 41.4551 6.95972C41.7411 6.99337 42.0932 6.78369 42.1217 6.57402C42.1488 6.36434 42.1217 6.51319 42.1437 6.21679C42.1657 5.9191 42.1385 5.66671 42 5.54505C41.8628 5.42339 41.7541 5.32114 41.7373 5.25642H41.736ZM37.1153 5.92946C37.0234 5.91134 37.0907 5.85827 37.1386 5.8298C37.1865 5.80132 37.3509 5.79356 37.5411 5.82074C37.7314 5.84792 37.8971 5.85568 37.8751 5.79873C37.8531 5.74178 37.7793 5.69907 37.6524 5.64212C37.5256 5.58388 37.3328 5.59553 37.2396 5.57741C37.1477 5.55929 37.171 5.5114 37.2978 5.45057C37.4247 5.38844 37.646 5.47904 37.6563 5.44798C37.6667 5.41692 37.668 5.36385 37.5411 5.25383C37.4143 5.14382 37.6317 5.20465 37.7003 5.26937C37.7689 5.33537 37.7832 5.43762 37.8453 5.5114C37.9074 5.58517 38.1533 5.79873 38.1533 5.79873C38.1533 5.79873 38.2944 5.68225 38.4316 5.64212C38.5675 5.602 38.7267 5.61753 38.7837 5.6473C38.8406 5.67707 38.8393 5.78191 38.7319 5.76638C38.6258 5.75084 38.3811 5.88027 38.4122 5.89192C38.4433 5.90228 38.64 5.97346 38.7332 6.05889C38.8264 6.14302 38.7824 6.20126 38.6801 6.16373C38.5779 6.1249 38.4459 6.08995 38.4459 6.08995C38.4459 6.08995 38.5533 6.27762 38.6361 6.39282C38.7189 6.5093 38.574 6.54295 38.5261 6.46659C38.4782 6.39023 38.1883 6.06277 38.0938 6.03171C37.9993 5.99935 38.0576 6.14819 38.0485 6.24656C38.0394 6.34493 38.1973 6.96619 38.209 7.0542C38.2206 7.14221 38.2232 7.15645 38.1326 7.20693C38.042 7.25611 38.0084 6.7824 37.945 6.69439C37.8802 6.60638 37.8997 6.63356 37.8738 6.71898C37.8479 6.8044 37.932 7.15904 37.9165 7.26647C37.901 7.37389 37.8453 7.4632 37.7896 7.38037C37.734 7.29753 37.743 6.97525 37.7094 6.83029C37.6757 6.68533 37.6965 6.67497 37.6356 6.72027C37.5748 6.76557 37.5088 6.7824 37.523 6.71251C37.536 6.64391 37.9747 6.06924 37.9747 6.06924C37.9747 6.06924 38.0873 5.95664 37.9255 5.97864C37.7638 6.00064 37.1956 6.27762 37.1257 6.31775C37.0558 6.35658 36.9911 6.32034 36.9911 6.32034L37.0661 6.15337C37.1412 5.98641 37.3211 6.04465 37.3211 6.04465C37.2732 6.02135 37.2111 5.94758 37.1192 5.92946H37.1153ZM36.8914 6.1016C36.8914 6.1016 36.7426 6.5546 36.8306 6.54295C36.9186 6.53131 37.2357 6.44459 37.303 6.442C37.3703 6.44071 37.4014 6.45106 37.3962 6.5792C37.391 6.70733 37.3198 6.95584 37.3858 7.00631C37.4518 7.05679 37.4881 7.04514 37.5243 7.15257C37.5606 7.26 37.5411 7.33765 37.6097 7.40237C37.6783 7.46838 37.6887 7.48909 37.721 7.56674C37.7534 7.6444 37.8039 7.68323 37.8945 7.63275C37.8945 7.63275 38.0291 7.57063 38.0666 7.52144C38.1042 7.47226 38.2375 7.39201 38.2892 7.33895C38.341 7.28459 38.4769 7.17328 38.4549 7.07879C38.4329 6.98431 38.3087 6.72933 38.3358 6.65685C38.363 6.58437 38.4536 6.58178 38.495 6.65168C38.5352 6.72157 38.618 6.851 38.6646 6.89112C38.7112 6.93254 38.7681 6.92089 38.8691 6.71639C38.97 6.51189 38.9506 6.38634 38.9765 6.28021C39.0024 6.17408 38.9687 6.03171 38.9675 5.95923C38.9675 5.88675 38.9843 5.8065 39.0205 5.76767C39.0555 5.72884 39.0425 5.53599 38.8328 5.4428C38.6232 5.34832 38.4821 5.34573 38.3268 5.46351L38.1702 5.58129C38.1702 5.58129 38.0563 5.31855 37.8919 5.15935C37.7262 5.00015 37.4026 4.96262 37.2849 5.08169C37.1658 5.20077 37.2551 5.12052 37.0985 5.29784C36.9406 5.47516 36.8357 5.64859 36.8642 5.79226C36.8927 5.93593 36.9108 6.05242 36.8914 6.1016ZM38.6154 8.21778C38.5274 8.20095 38.5921 8.14918 38.6387 8.122C38.6853 8.09482 38.8419 8.08705 39.0231 8.11294C39.2056 8.13882 39.3635 8.14659 39.3415 8.09223C39.3195 8.03787 39.2496 7.99775 39.1279 7.94209C39.0063 7.88644 38.8225 7.89679 38.7345 7.87996C38.6465 7.86314 38.6685 7.81784 38.7901 7.7583C38.9105 7.69876 39.1228 7.78548 39.1331 7.75571C39.1435 7.72594 39.1435 7.67547 39.0231 7.57063C38.9014 7.46579 39.1098 7.52274 39.1758 7.58616C39.2418 7.64829 39.2548 7.74665 39.3143 7.81784C39.3739 7.88902 39.6081 8.09352 39.6081 8.09352C39.6081 8.09352 39.7427 7.98221 39.8735 7.94338C40.0042 7.90456 40.1556 7.92009 40.21 7.94856C40.2643 7.97704 40.263 8.0767 40.1608 8.06246C40.0585 8.04693 39.8256 8.17118 39.8553 8.18154C39.8851 8.19189 40.0728 8.25919 40.1621 8.34073C40.2514 8.42228 40.2087 8.47793 40.1116 8.4404C40.0132 8.40286 39.8877 8.3705 39.8877 8.3705C39.8877 8.3705 39.99 8.54912 40.0689 8.66043C40.1479 8.77174 40.0094 8.80409 39.9641 8.73161C39.9188 8.65913 39.6405 8.34591 39.5512 8.31485C39.4619 8.28379 39.5162 8.42616 39.5072 8.52064C39.4981 8.61513 39.6495 9.20921 39.6599 9.29334C39.6716 9.37747 39.6728 9.3917 39.5861 9.4383C39.4994 9.48489 39.4671 9.03189 39.4062 8.94776C39.3454 8.86363 39.3622 8.88952 39.3376 8.97106C39.313 9.0526 39.3933 9.3917 39.379 9.49395C39.3635 9.5962 39.3117 9.68163 39.2574 9.60268C39.2043 9.52372 39.2134 9.21568 39.1797 9.07719C39.1474 8.9387 39.1668 8.92835 39.1085 8.97235C39.0503 9.01636 38.9882 9.03189 38.9998 8.96588C39.0128 8.89987 39.4321 8.35109 39.4321 8.35109C39.4321 8.35109 39.5395 8.24366 39.3855 8.26437C39.2315 8.28508 38.6879 8.55041 38.6219 8.58795C38.5559 8.62548 38.4937 8.59053 38.4937 8.59053L38.5649 8.43134C38.6361 8.27214 38.8083 8.32779 38.8083 8.32779C38.763 8.30579 38.7034 8.2346 38.6154 8.21778ZM38.4018 8.38215C38.4018 8.38215 38.2595 8.81574 38.3436 8.80409C38.4277 8.79244 38.7306 8.70961 38.7953 8.70832C38.86 8.70702 38.8898 8.71738 38.8846 8.83904C38.8794 8.9607 38.8108 9.19885 38.8743 9.24804C38.9377 9.29722 38.9726 9.28557 39.0076 9.38782C39.0425 9.49007 39.0244 9.56385 39.0891 9.62727C39.1551 9.68939 39.1642 9.7101 39.1953 9.78388C39.2263 9.85895 39.2742 9.89519 39.3609 9.8473C39.3609 9.8473 39.4891 9.78776 39.5253 9.74117C39.5615 9.69457 39.6884 9.61821 39.7376 9.56643C39.788 9.51466 39.9162 9.40853 39.8955 9.31793C39.8748 9.22862 39.7557 8.984 39.7816 8.9154C39.8087 8.84551 39.8942 8.84292 39.933 8.91023C39.9718 8.97623 40.0508 9.10049 40.0948 9.13932C40.1388 9.17815 40.1944 9.16779 40.2902 8.97235C40.3873 8.77691 40.3679 8.65654 40.3925 8.55559C40.4171 8.45334 40.3847 8.31744 40.3847 8.24884C40.3847 8.18024 40.4015 8.10388 40.4352 8.06634C40.4688 8.02881 40.4559 7.84502 40.2566 7.75571C40.056 7.66641 39.9214 7.66252 39.7725 7.77513L39.6237 7.88773C39.6237 7.88773 39.5149 7.63664 39.357 7.48391C39.1991 7.33118 38.8898 7.29494 38.7759 7.40884C38.662 7.52274 38.7474 7.44508 38.5973 7.61463C38.4471 7.78419 38.3462 7.94986 38.3734 8.08705C38.4006 8.22425 38.4187 8.33556 38.3993 8.38345L38.4018 8.38215ZM40.43 11.0277C40.43 11.0277 40.6332 10.9798 40.7005 11.1714L40.7678 11.3629C40.7678 11.3629 40.6928 11.3966 40.6203 11.3474C40.5478 11.2982 39.9459 10.9397 39.7699 10.9009C39.5939 10.862 39.7065 10.9966 39.7065 10.9966C39.7065 10.9966 40.1375 11.6697 40.1453 11.7473C40.153 11.825 40.0831 11.8004 40.0197 11.7447C39.9563 11.6891 39.9783 11.702 39.9278 11.8586C39.8773 12.0152 39.8566 12.3712 39.788 12.4566C39.7194 12.542 39.6664 12.4385 39.6586 12.3194C39.6508 12.2003 39.7777 11.8172 39.757 11.7201C39.7363 11.6231 39.7596 11.5946 39.6806 11.6865C39.6017 11.7784 39.5214 12.2974 39.4256 12.2353C39.3299 12.1719 39.3337 12.1563 39.3544 12.0605C39.3752 11.9648 39.6068 11.293 39.6055 11.1843C39.6055 11.0743 39.6806 10.9151 39.5745 10.9423C39.4683 10.9695 39.1176 11.3034 39.0581 11.3823C38.9985 11.4613 38.8419 11.4108 38.9442 11.2904C39.0464 11.1701 39.181 10.9733 39.181 10.9733C39.181 10.9733 39.0322 10.9992 38.9157 11.0329C38.7992 11.0665 38.7552 10.9979 38.8665 10.9125C38.9778 10.8284 39.2004 10.7675 39.2354 10.7585C39.2703 10.7494 39.014 10.5838 38.895 10.5915C38.7759 10.5993 38.785 10.4828 38.8497 10.4556C38.9144 10.4284 39.0917 10.4246 39.238 10.4828C39.3842 10.5397 39.5305 10.6808 39.5305 10.6808C39.5305 10.6808 39.8204 10.4673 39.8955 10.3922C39.9705 10.3158 39.9951 10.2045 40.0767 10.1385C40.1582 10.0725 40.4041 10.0259 40.254 10.1359C40.1038 10.2459 40.1 10.3029 40.109 10.3391C40.1181 10.3741 40.3705 10.2951 40.5038 10.3754C40.6371 10.4556 40.6591 10.51 40.5556 10.5203C40.452 10.5307 40.241 10.5022 40.0948 10.554C39.9498 10.6058 39.8644 10.6459 39.8346 10.7067C39.8049 10.7675 39.9874 10.774 40.1996 10.7624C40.4119 10.7507 40.5918 10.7727 40.6423 10.809C40.6928 10.8452 40.7626 10.9112 40.6591 10.9216C40.5556 10.9319 40.4805 11.0083 40.4261 11.0303L40.43 11.0277ZM40.9529 10.7908C40.9969 10.6355 40.8973 10.4349 40.7406 10.2252C40.5827 10.0156 40.6746 10.1126 40.5543 9.97026C40.4339 9.82788 40.0741 9.84083 39.8773 10C39.6806 10.1605 39.5318 10.4401 39.5318 10.4401L39.37 10.2964C39.2082 10.1528 39.0529 10.1424 38.8134 10.2265C38.574 10.3107 38.5416 10.5216 38.5766 10.5682C38.6115 10.6148 38.6232 10.7054 38.6167 10.7844C38.6102 10.8633 38.5585 11.0173 38.5779 11.1377C38.5973 11.2581 38.5636 11.394 38.6555 11.6283C38.7474 11.8625 38.8108 11.8793 38.8652 11.8392C38.9196 11.7991 39.0231 11.6632 39.0749 11.5907C39.1267 11.5182 39.225 11.5286 39.2496 11.6114C39.2742 11.6943 39.1124 11.9635 39.0801 12.0657C39.0477 12.1667 39.1862 12.3026 39.238 12.3673C39.291 12.432 39.4295 12.5317 39.4671 12.5899C39.5033 12.6469 39.6457 12.7284 39.6457 12.7284C39.7414 12.7905 39.7997 12.7543 39.8424 12.6715C39.8864 12.5886 39.8993 12.5666 39.9809 12.5006C40.0624 12.4346 40.0482 12.3479 40.0987 12.2327C40.1491 12.1175 40.188 12.1343 40.2656 12.0851C40.3433 12.0347 40.2876 11.7538 40.2941 11.6127C40.3006 11.4716 40.3355 11.4626 40.4093 11.4703C40.4831 11.4781 40.8248 11.6037 40.9205 11.6244C41.0163 11.6451 40.8947 11.1325 40.8947 11.1325C40.8765 11.0769 40.9089 10.9487 40.9529 10.7934V10.7908Z" fill="#B39243"/>
<path d="M44.2376 11.0226C44.2583 11.0278 44.2829 11.0329 44.3127 11.0381C44.3424 11.0433 44.3735 11.0485 44.4084 11.0536C44.4421 11.0588 44.4783 11.0627 44.5146 11.0666C44.5508 11.0705 44.5857 11.0718 44.6168 11.0718C44.754 11.0718 44.8757 11.0588 44.9844 11.0342C45.0918 11.0096 45.1915 10.9695 45.2821 10.9151C45.3714 10.8608 45.4568 10.7909 45.5371 10.7068C45.616 10.6226 45.6975 10.5204 45.7791 10.4013L45.8166 10.435L45.506 11.1844C45.4672 11.1792 45.427 11.1753 45.3869 11.1727C45.3455 11.1701 45.3067 11.1688 45.2678 11.1688H43.9826C43.9166 11.1688 43.8506 11.1688 43.7846 11.1727C43.7186 11.1753 43.6526 11.1792 43.5866 11.1844V11.1391C43.6681 11.1313 43.7328 11.1184 43.7781 11.0976C43.8234 11.0782 43.8584 11.0472 43.8804 11.0045C43.9037 10.9617 43.9179 10.9074 43.9231 10.8388C43.9282 10.7702 43.9321 10.6848 43.9321 10.5799V9.33481C43.9321 9.22997 43.9295 9.14455 43.9231 9.07595C43.9179 9.00735 43.9037 8.9517 43.8804 8.91028C43.8571 8.86757 43.8221 8.83651 43.7742 8.81709C43.7263 8.79768 43.6616 8.78344 43.5801 8.77567V8.73037C43.6577 8.73296 43.7302 8.73555 43.8001 8.73814C43.87 8.74073 43.9412 8.74202 44.015 8.74332C44.0887 8.74332 44.1677 8.74461 44.2505 8.74461H44.5327C44.6919 8.74461 44.8511 8.74461 45.0116 8.74073C45.1708 8.73814 45.3326 8.73426 45.4969 8.72908C45.4943 8.75626 45.493 8.78344 45.4918 8.81062C45.4918 8.8378 45.4905 8.86369 45.4905 8.88828V9.03712C45.4905 9.09148 45.4931 9.14714 45.4969 9.20279C45.5021 9.25845 45.506 9.32057 45.5112 9.38658L45.4672 9.40211C45.4374 9.28304 45.3986 9.18597 45.3494 9.1096C45.3002 9.03324 45.2433 8.975 45.1785 8.93228C45.1138 8.88957 45.0426 8.8611 44.965 8.84686C44.8873 8.83133 44.8058 8.82486 44.7191 8.82486C44.5599 8.82486 44.4007 8.83262 44.2402 8.84686V9.77876C44.2855 9.77876 44.3295 9.77876 44.3722 9.77487C44.4149 9.77228 44.4576 9.77099 44.5042 9.77099C44.6608 9.77099 44.7864 9.73734 44.8783 9.66874C44.9702 9.60014 45.0271 9.47589 45.0478 9.29469H45.0892C45.0892 9.38399 45.0892 9.4733 45.0853 9.56261C45.0828 9.65191 45.0815 9.73993 45.0815 9.82664C45.0815 9.91336 45.0815 10.0053 45.0853 10.0946C45.0879 10.1839 45.0892 10.2732 45.0892 10.3625H45.0478C45.0271 10.2576 45.0025 10.1735 44.9727 10.1075C44.943 10.0415 44.9067 9.99102 44.8614 9.95607C44.8174 9.92113 44.7618 9.89783 44.6958 9.88489C44.6298 9.87195 44.5508 9.86677 44.4602 9.86677H44.2415V11.0187L44.2376 11.0226Z" fill="#B39243"/>
<path d="M46.1295 9.63768C46.158 9.64027 46.1877 9.64156 46.2175 9.64156C46.2473 9.64156 46.277 9.64285 46.3055 9.64285C46.3314 9.64285 46.3573 9.64285 46.3832 9.64156C46.409 9.64156 46.4349 9.63897 46.4608 9.63768V9.6558C46.4336 9.6558 46.4103 9.66097 46.3883 9.67133C46.3676 9.68168 46.3482 9.69592 46.3301 9.71404C46.3133 9.73216 46.2964 9.75416 46.2822 9.77746C46.268 9.80205 46.2537 9.82794 46.2395 9.85512C46.2201 9.89524 46.1994 9.93666 46.18 9.97937C46.1605 10.0221 46.1372 10.0635 46.1114 10.1023C46.1424 10.1619 46.1813 10.2059 46.2291 10.2343C46.277 10.2628 46.3327 10.2822 46.3987 10.2913V10.3094C46.3883 10.3094 46.3754 10.3068 46.3599 10.3068C46.3456 10.3068 46.3301 10.3055 46.3133 10.3042C46.2977 10.3042 46.2822 10.3042 46.268 10.3042H46.2304C46.2033 10.3042 46.1748 10.3042 46.1489 10.3055C46.1217 10.3055 46.0945 10.3081 46.0674 10.3094L46.0195 10.2085C45.9793 10.2447 45.9366 10.2745 45.89 10.2978C45.8434 10.3211 45.793 10.334 45.7386 10.334C45.6998 10.334 45.6635 10.3275 45.6312 10.3133C45.5975 10.2991 45.569 10.2809 45.5445 10.2564C45.5199 10.2318 45.5017 10.2033 45.4875 10.1696C45.4733 10.136 45.4668 10.101 45.4668 10.0622C45.4668 10.0208 45.4759 9.98325 45.4927 9.9496C45.5095 9.91595 45.5328 9.88748 45.56 9.86159C45.5872 9.8357 45.6195 9.8137 45.6558 9.79688C45.692 9.77876 45.727 9.76581 45.7632 9.75546C45.7451 9.74122 45.7244 9.72828 45.7049 9.71404C45.6842 9.7011 45.6661 9.68557 45.648 9.67003C45.6299 9.6545 45.6156 9.63509 45.6053 9.61438C45.5936 9.59367 45.5885 9.57037 45.5885 9.54319C45.5885 9.51342 45.5949 9.48754 45.6079 9.46424C45.6208 9.44094 45.6389 9.42282 45.6596 9.40729C45.6804 9.39176 45.7049 9.38011 45.7308 9.37105C45.7567 9.36199 45.7839 9.35811 45.8098 9.35811C45.8421 9.35811 45.8745 9.3607 45.9043 9.36717C45.934 9.37364 45.9612 9.38529 45.9832 9.40082C46.0065 9.41635 46.0233 9.43706 46.0376 9.46295C46.0505 9.48883 46.057 9.5199 46.057 9.55743C46.057 9.5872 46.0518 9.61179 46.0428 9.63121C46.0324 9.65062 46.0195 9.66874 46.0039 9.68298C45.9871 9.69721 45.969 9.71016 45.947 9.72051C45.9263 9.73087 45.903 9.74122 45.8797 9.75287C45.9276 9.79688 45.9664 9.84735 45.9988 9.90171C46.0311 9.95737 46.0609 10.013 46.0906 10.0687C46.101 10.0531 46.1139 10.0311 46.1282 10.0014C46.1424 9.9729 46.1554 9.94184 46.1683 9.90948C46.1813 9.87712 46.1916 9.84606 46.2007 9.815C46.2084 9.78393 46.2136 9.75805 46.2136 9.73734C46.2136 9.71275 46.2058 9.69463 46.1903 9.68298C46.1748 9.67133 46.1541 9.66227 46.1308 9.6545V9.64027L46.1295 9.63768ZM45.5975 10.0311C45.5975 10.0583 45.6027 10.0842 45.6118 10.1101C45.6221 10.136 45.6363 10.1593 45.6558 10.18C45.6752 10.2007 45.6985 10.2162 45.7244 10.2292C45.7515 10.2421 45.7813 10.2486 45.8163 10.2486C45.8486 10.2486 45.881 10.2421 45.9159 10.2279C45.9509 10.2136 45.9793 10.1955 46.0013 10.1735C45.9871 10.1399 45.9742 10.1049 45.9599 10.07C45.947 10.035 45.9315 10.0001 45.9159 9.96643C45.9004 9.93278 45.8823 9.89913 45.8629 9.86806C45.8434 9.837 45.8214 9.80723 45.7968 9.77876C45.736 9.79558 45.6881 9.82535 45.6506 9.86806C45.6131 9.91077 45.5949 9.96513 45.5949 10.0311H45.5975ZM45.7062 9.54319C45.7062 9.57167 45.7127 9.59755 45.727 9.61956C45.7412 9.64156 45.7567 9.66097 45.7735 9.67651C45.7904 9.69204 45.8072 9.70369 45.8214 9.71275C45.8357 9.72181 45.8434 9.72569 45.8447 9.72569C45.8538 9.71922 45.8641 9.71275 45.8771 9.70628C45.89 9.69851 45.9017 9.68945 45.9133 9.67909C45.925 9.66874 45.934 9.6545 45.9418 9.63768C45.9496 9.62085 45.9535 9.60014 45.9535 9.57426C45.9535 9.55096 45.9509 9.52896 45.9457 9.50825C45.9405 9.48754 45.9315 9.46812 45.9211 9.45259C45.9094 9.43706 45.8952 9.42412 45.8784 9.41506C45.8616 9.406 45.8421 9.40082 45.8201 9.40082C45.8007 9.40082 45.7852 9.4047 45.7697 9.41376C45.7554 9.42153 45.7438 9.43318 45.7347 9.44742C45.7257 9.46165 45.7179 9.47718 45.7127 9.49401C45.7075 9.51084 45.7049 9.52896 45.7049 9.54708L45.7062 9.54319Z" fill="#B39243"/>
<path d="M47.3947 8.82486C47.3338 8.82745 47.273 8.82874 47.2135 8.83004C47.1035 8.83263 46.9909 8.83392 46.8757 8.83392C46.7734 8.83392 46.6738 8.83263 46.5767 8.83004C46.5456 8.83004 46.5158 8.82745 46.4848 8.82615V8.89475C46.4926 8.89605 46.5016 8.89734 46.5094 8.89993C46.5754 8.91417 46.6297 8.93617 46.6725 8.96853C46.7152 9.00088 46.7462 9.0436 46.7669 9.09796C46.7876 9.15232 46.798 9.2248 46.798 9.31669V10.6964C46.798 10.7857 46.7915 10.8763 46.7773 10.9682C46.7631 11.0614 46.7359 11.1455 46.6932 11.2219C46.6505 11.2983 46.5883 11.3617 46.5055 11.4109C46.4227 11.4601 46.3126 11.4859 46.1754 11.4859C46.1237 11.4859 46.0719 11.4808 46.0214 11.4717C45.9709 11.4626 45.9244 11.4445 45.8816 11.4173C45.8389 11.3915 45.8027 11.3552 45.7729 11.3099C45.7432 11.2646 45.7224 11.2051 45.7108 11.1339C45.738 11.1041 45.7574 11.0614 45.7665 11.0096C45.7755 10.9566 45.7807 10.9113 45.7807 10.8724C45.7807 10.8233 45.7548 10.7754 45.7043 10.7288C45.6538 10.6835 45.5956 10.6602 45.5296 10.6602C45.4338 10.6602 45.3626 10.6938 45.3199 10.7598C45.2759 10.8258 45.2539 10.897 45.2539 10.9721C45.2539 11.0938 45.285 11.196 45.3484 11.2801C45.4118 11.363 45.4882 11.4303 45.5788 11.4795C45.6694 11.5286 45.7639 11.5649 45.8609 11.5869C45.958 11.6089 46.0434 11.6205 46.1146 11.6205C46.2466 11.6205 46.3761 11.6037 46.5016 11.5701C46.6285 11.5364 46.7411 11.4872 46.8394 11.4199C46.9378 11.3539 47.018 11.2698 47.0789 11.1701C47.1384 11.0705 47.1695 10.954 47.1695 10.8207V9.24162C47.1695 9.17303 47.1759 9.11608 47.1902 9.07078C47.2044 9.02677 47.2264 8.99053 47.2562 8.96335C47.286 8.93617 47.3261 8.91546 47.374 8.90122C47.3804 8.89863 47.3882 8.89734 47.396 8.89605V8.82486H47.3947Z" fill="#B39243"/>
<path d="M46.7981 11.8885C46.7606 11.8898 46.723 11.8911 46.6868 11.8924C46.5871 11.895 46.4875 11.8962 46.3891 11.8962C46.2817 11.8962 46.1846 11.8937 46.0992 11.8898C46.0979 11.8898 46.0953 11.8898 46.094 11.8898V11.9856C46.1859 12.0334 46.2325 12.1085 46.2325 12.2146V12.7337C46.1251 12.8113 46.0099 12.8631 45.8856 12.889C45.7627 12.9149 45.6358 12.9278 45.5077 12.9278C45.355 12.9278 45.2178 12.8942 45.0987 12.8268C44.9796 12.7595 44.8774 12.6702 44.7932 12.5576C44.7091 12.445 44.6444 12.313 44.6004 12.1616C44.5564 12.0101 44.5344 11.8497 44.5344 11.6801C44.5344 11.53 44.5564 11.3798 44.6004 11.2297C44.6444 11.0795 44.7091 10.9436 44.7932 10.8233C44.8774 10.7029 44.9796 10.6045 45.0987 10.5295C45.2178 10.4544 45.355 10.4169 45.5077 10.4169C45.6397 10.4169 45.7536 10.4402 45.852 10.4855C45.9503 10.5308 46.0371 10.5916 46.1121 10.6667C46.1872 10.7417 46.2532 10.8272 46.3114 10.9242C46.3697 11.0213 46.4241 11.1197 46.4745 11.2219H46.5224C46.5147 11.1792 46.5056 11.1223 46.4939 11.0511C46.4836 10.9799 46.4719 10.9061 46.4616 10.8297C46.4512 10.7534 46.4422 10.6796 46.4357 10.6084C46.4292 10.5372 46.4253 10.4803 46.4253 10.4376C46.3723 10.4246 46.3153 10.4091 46.2558 10.3936C46.1963 10.378 46.1315 10.3625 46.0578 10.347C45.9853 10.3327 45.905 10.3198 45.8157 10.3107C45.7277 10.3017 45.6281 10.2965 45.518 10.2965C45.3381 10.2965 45.1621 10.3327 44.99 10.4026C44.8178 10.4738 44.6638 10.5709 44.5292 10.6951C44.3933 10.8181 44.2846 10.9656 44.203 11.1365C44.1215 11.3073 44.0801 11.4898 44.0801 11.6866C44.0801 11.9118 44.1215 12.1111 44.203 12.2819C44.2846 12.4541 44.3933 12.5991 44.5292 12.7168C44.6651 12.8346 44.8191 12.9239 44.99 12.9848C45.1621 13.0456 45.3381 13.0754 45.518 13.0754C45.6876 13.0754 45.8623 13.0495 46.0435 12.9964C46.2247 12.9446 46.4085 12.8877 46.5936 12.8256V12.2612C46.5936 12.1965 46.604 12.1435 46.6234 12.102C46.6441 12.0606 46.67 12.027 46.7036 12.0037C46.7308 11.9843 46.7619 11.97 46.7968 11.9597V11.8911L46.7981 11.8885Z" fill="#B39243"/>
<path d="M13.9544 24.6761V26.5023C13.9544 26.7042 13.9686 26.8608 13.9984 26.9734C14.0269 27.086 14.0812 27.1689 14.1589 27.2219C14.2365 27.2763 14.3479 27.3099 14.4928 27.3229C14.6378 27.3371 14.8371 27.3436 15.0882 27.3436C15.3924 27.3436 15.6655 27.297 15.9075 27.2051C16.1495 27.1132 16.3773 26.976 16.5922 26.7948C16.807 26.6136 17.0413 26.3729 17.2963 26.0713H17.6289L17.1099 27.574H12V27.3462C12.2459 27.341 12.4336 27.319 12.563 27.2815C12.6912 27.2439 12.7831 27.1818 12.8374 27.0951C12.8918 27.0084 12.919 26.8841 12.919 26.7236V22.6181C12.919 22.424 12.8944 22.2829 12.8439 22.1949C12.7934 22.1069 12.7093 22.046 12.5902 22.015C12.4711 21.9826 12.2744 21.9606 12.0013 21.9464V21.7186H16.9054L17.4076 23.0426H17.1086C16.9481 22.8407 16.7527 22.6569 16.521 22.4926C16.2893 22.3282 16.0317 22.1962 15.7444 22.0965C15.4584 21.9969 15.1555 21.9464 14.8371 21.9464C14.5847 21.9464 14.3957 21.9736 14.2689 22.0279C14.1421 22.0823 14.0566 22.1573 14.0152 22.2544C13.9738 22.3515 13.9531 22.4783 13.9531 22.6362V24.4457H14.7879C15.5153 24.4457 15.8842 24.1117 15.892 23.4452H16.1832V25.6442H15.9256C15.892 25.3064 15.7975 25.0618 15.6409 24.9077C15.4843 24.7537 15.2461 24.6773 14.9251 24.6773H13.9544V24.6761Z" fill="#010201"/>
<path d="M18.9332 25.3751C18.7766 25.3751 18.6355 25.3375 18.5113 25.2651C18.387 25.1913 18.29 25.0916 18.2201 24.9674C18.1502 24.8431 18.1152 24.7137 18.1152 24.5791C18.1152 24.4794 18.1321 24.3862 18.167 24.3008C18.2007 24.2141 18.2485 24.1338 18.3107 24.0575C18.3715 23.9811 18.4518 23.897 18.5514 23.8064C18.6847 23.6795 18.818 23.5708 18.9526 23.4828C18.6977 23.2045 18.5708 22.9871 18.5708 22.8279C18.5708 22.7515 18.6019 22.6648 18.664 22.5664C18.7261 22.4681 18.8064 22.3723 18.9061 22.2791C19.0057 22.1846 19.1105 22.1083 19.2219 22.0513C19.3332 21.9931 19.4354 21.9633 19.5312 21.9633C19.6153 21.9633 19.6917 21.9814 19.759 22.0164C19.8276 22.0526 19.8858 22.0992 19.9363 22.1587C19.9855 22.2183 20.0243 22.2804 20.0515 22.3438C20.0787 22.4085 20.0929 22.4681 20.0929 22.5224C20.0929 22.6027 20.0657 22.6816 20.0127 22.758C19.9596 22.8344 19.8975 22.9004 19.8289 22.956C19.7603 23.0117 19.6425 23.101 19.4781 23.2239C19.6619 23.4272 19.8172 23.6174 19.9454 23.7921C20.0735 23.9682 20.1848 24.1287 20.2793 24.2749C20.3945 24.1261 20.4812 23.9928 20.5407 23.8776C20.6003 23.7624 20.6288 23.6679 20.6288 23.5967C20.6288 23.5203 20.5977 23.4556 20.5343 23.4039C20.4709 23.3508 20.3867 23.3249 20.2793 23.3249V23.1968H21.4028V23.3249C21.2876 23.3404 21.1788 23.3922 21.0779 23.4802C20.9756 23.5682 20.8747 23.6808 20.775 23.8167C20.6754 23.9539 20.5395 24.1481 20.3712 24.3992L20.5162 24.6179C20.6158 24.768 20.6935 24.8703 20.7491 24.9221C20.8048 24.9738 20.8669 24.9997 20.9355 24.9997C21.0572 24.9997 21.1672 24.9052 21.2681 24.7176L21.382 24.7719C21.3251 24.9117 21.2604 25.0256 21.1892 25.1136C21.118 25.2016 21.0391 25.2676 20.9523 25.3117C20.8656 25.3557 20.775 25.3777 20.6805 25.3777C20.5589 25.3777 20.4398 25.3298 20.3207 25.2353C20.2016 25.1408 20.0942 25.0127 19.9984 24.8509C19.8354 25.0166 19.658 25.146 19.4678 25.2392C19.2775 25.3311 19.1002 25.3777 18.9358 25.3777L18.9332 25.3751ZM19.9169 24.7344C19.8845 24.6852 19.8289 24.6024 19.7512 24.4859C19.6736 24.3707 19.605 24.271 19.5454 24.1895C19.4859 24.108 19.4108 24.0109 19.3189 23.8983C19.2283 23.7857 19.1364 23.6821 19.0432 23.5851C18.8905 23.7158 18.7818 23.8336 18.7132 23.9371C18.6459 24.0407 18.6122 24.1545 18.6122 24.2775C18.6122 24.4005 18.6459 24.5221 18.7132 24.6386C18.7805 24.7551 18.8711 24.8496 18.9824 24.9221C19.0937 24.9945 19.2115 25.0308 19.3345 25.0308C19.5493 25.0308 19.7435 24.9324 19.9169 24.7344ZM19.3862 23.1269C19.5739 22.991 19.6684 22.8693 19.6684 22.7632C19.6684 22.7101 19.6438 22.6441 19.5959 22.5652C19.548 22.4862 19.4885 22.4176 19.4173 22.3594C19.3461 22.3011 19.2788 22.2726 19.2154 22.2726C19.1429 22.2726 19.0782 22.3011 19.0225 22.3594C18.9669 22.4176 18.9384 22.4746 18.9384 22.5315C18.9384 22.5755 18.9501 22.6182 18.9721 22.6622C18.9941 22.7062 19.0316 22.7567 19.0834 22.815C19.1351 22.8732 19.183 22.925 19.2296 22.9703C19.2762 23.0156 19.328 23.0686 19.3862 23.1282V23.1269Z" fill="#010201"/>
<path d="M22.2826 21.8947V21.7173H25.0213V21.8947C24.7806 21.9037 24.611 21.9179 24.5114 21.9387C24.4117 21.9594 24.3341 22.0124 24.2784 22.0966C24.2227 22.182 24.1956 22.3218 24.1956 22.5185L24.1787 26.1076C24.1787 26.413 24.0597 26.7198 23.8383 27.0434C23.6468 27.3242 23.2106 27.5805 22.733 27.706C22.4094 27.7915 21.2161 27.7151 20.7087 27.5365C20.4201 27.4342 20.3631 27.2297 20.2492 27.1288C20.0797 26.9761 20.0279 26.6188 20.1056 26.3872C20.1366 26.2953 20.1431 26.2034 20.2182 26.127C20.2933 26.0506 20.3942 26.0118 20.521 26.0118C20.6479 26.0118 20.7592 26.0519 20.8472 26.1335C20.9339 26.2137 20.9352 26.3315 20.9909 26.448C21.1345 26.7547 20.7721 26.9126 20.7941 26.9748C20.8161 27.0369 20.9818 27.2297 21.2368 27.332C21.4167 27.4045 23.0566 27.8083 23.0902 26.2771L23.1498 22.6143C23.1498 22.4396 23.1381 22.3075 23.1148 22.2169C23.0915 22.1263 23.0501 22.0603 22.9906 22.0202C22.931 21.9788 22.8508 21.9503 22.7472 21.9348C22.645 21.9179 22.4897 21.905 22.2826 21.8947Z" fill="#010201"/>
<path d="M35.9955 24.3603C35.9955 24.3719 36.0136 24.412 36.0498 24.4806C36.0861 24.5492 36.1042 24.6152 36.1042 24.6761C36.1042 24.7952 36.055 24.9013 35.9566 24.9932C35.8583 25.0864 35.7353 25.1317 35.5891 25.1317C35.4428 25.1317 35.3354 25.0954 35.2526 25.0217C35.1697 24.9479 35.1283 24.8638 35.1283 24.7667C35.1283 24.623 35.1982 24.4819 35.338 24.3434C35.4778 24.205 35.6693 24.0924 35.9152 24.0056C36.1599 23.9189 36.4304 23.8749 36.7268 23.8749C36.9429 23.8749 37.1435 23.9124 37.3312 23.9875C37.5176 24.0626 37.6664 24.1765 37.7777 24.3279C37.889 24.4806 37.9434 24.6644 37.9434 24.8793V26.9877C37.9434 27.156 37.9913 27.2414 38.0884 27.2414C38.1466 27.2414 38.2165 27.1961 38.3006 27.1042L38.4546 27.2828C38.3187 27.4187 38.1932 27.5209 38.0793 27.5895C37.9641 27.6594 37.8282 27.6931 37.6703 27.6931C37.4878 27.6931 37.3454 27.6517 37.2432 27.5701C37.1409 27.4886 37.0685 27.3617 37.027 27.1909C36.6452 27.5197 36.2673 27.6853 35.8945 27.6853C35.6292 27.6853 35.4182 27.6154 35.2616 27.4782C35.105 27.3397 35.0273 27.1637 35.0273 26.9515C35.0273 26.7612 35.0752 26.5981 35.171 26.4635C35.2668 26.3289 35.3923 26.2098 35.5489 26.1063C35.7056 26.0027 35.9359 25.8707 36.2401 25.7115C36.5443 25.5523 36.7954 25.4164 36.9908 25.3025V24.6761C36.9908 24.4884 36.9481 24.346 36.8627 24.249C36.7772 24.1519 36.6478 24.104 36.477 24.104C36.3281 24.104 36.2103 24.1312 36.1262 24.1855C36.0421 24.2399 35.9994 24.2981 35.9994 24.3616L35.9955 24.3603ZM36.9869 26.9165V25.5847C36.6323 25.784 36.3864 25.9639 36.2466 26.1244C36.1068 26.2849 36.0369 26.479 36.0369 26.7055C36.0369 26.857 36.0783 26.9748 36.1611 27.0589C36.244 27.143 36.3411 27.1831 36.4524 27.1831C36.6271 27.1831 36.8057 27.0951 36.9882 26.9178L36.9869 26.9165Z" fill="#010201"/>
<path d="M39.3124 27.0007V23.5229C39.3124 23.3379 39.2787 23.1916 39.2127 23.0868C39.1467 22.9819 38.9927 22.89 38.752 22.8111V22.6674L40.1006 22.2752H40.2624V26.8648C40.2624 27.0551 40.287 27.1884 40.3349 27.2609C40.3828 27.3347 40.507 27.3709 40.7063 27.3709H40.8189V27.5728H38.752V27.3709H38.8516C39.0147 27.3709 39.1325 27.3398 39.205 27.279C39.2774 27.2182 39.3124 27.125 39.3124 27.0007Z" fill="#010201"/>
<path d="M41.9979 26.9255V22.9909C41.9979 22.7812 41.9643 22.6155 41.8983 22.4965C41.8323 22.3774 41.6782 22.2738 41.4375 22.1845V22.0227L42.7862 21.5788H42.9479V26.7715C42.9479 26.9877 42.9725 27.1365 43.0204 27.2193C43.0683 27.3022 43.1926 27.3436 43.3919 27.3436H43.5045V27.5714H41.4375V27.3436H41.5372C41.7002 27.3436 41.818 27.3087 41.8905 27.2401C41.963 27.1715 41.9979 27.0653 41.9979 26.9242V26.9255Z" fill="#010201"/>
<path d="M44.3841 25.7879C44.3841 25.4332 44.4682 25.1097 44.6352 24.8172C44.8022 24.5234 45.0313 24.293 45.3199 24.126C45.6085 23.959 45.9295 23.8749 46.2803 23.8749C46.631 23.8749 46.9365 23.9564 47.2199 24.1195C47.5034 24.2826 47.7273 24.5078 47.8904 24.7964C48.0534 25.0838 48.135 25.4035 48.135 25.7555C48.135 26.0234 48.0858 26.2784 47.9874 26.5166C47.8891 26.756 47.7532 26.9618 47.581 27.1352C47.4076 27.3074 47.2096 27.442 46.9856 27.5352C46.7617 27.6297 46.521 27.6763 46.2634 27.6763C45.9179 27.6763 45.6007 27.5973 45.3147 27.4394C45.0287 27.2815 44.8009 27.0602 44.6339 26.7728C44.4669 26.4868 44.3828 26.1581 44.3828 25.7866L44.3841 25.7879ZM45.4131 25.551C45.4131 26.1399 45.4985 26.6033 45.6706 26.9398C45.8428 27.2763 46.0654 27.4446 46.3385 27.4446C46.477 27.4446 46.6051 27.3876 46.7242 27.2724C46.8433 27.1572 46.9378 26.9877 47.0089 26.7625C47.0788 26.5373 47.1151 26.2603 47.1151 25.9341C47.1151 25.3582 47.0387 24.9091 46.8847 24.5868C46.732 24.2645 46.5184 24.1027 46.2479 24.1027C45.9774 24.1027 45.7807 24.2231 45.6331 24.4664C45.4868 24.7084 45.4131 25.0708 45.4131 25.5523V25.551Z" fill="#010201"/>
<path d="M56.4587 21.7173H58.3263V21.9451C58.1244 22.037 57.9471 22.1897 57.7931 22.4059C57.6391 22.622 57.4915 22.93 57.3517 23.3313L55.8361 27.6853H55.5992L54.0008 23.1203L52.4114 27.6853H52.1914L50.6097 23.1203C50.4686 22.7139 50.3703 22.446 50.3133 22.3191C50.2564 22.1923 50.1826 22.0978 50.0933 22.037C50.0027 21.9762 49.8694 21.9451 49.6934 21.9451V21.7173H52.1383V21.9451C52.1215 21.9425 52.1072 21.9399 52.0943 21.9386C52.0826 21.9386 52.0632 21.9373 52.0386 21.9373C51.6646 21.9373 51.4782 22.0512 51.4782 22.2777C51.4782 22.3968 51.5222 22.5922 51.6115 22.8627L52.7285 26.0791L53.8739 22.7954C53.8079 22.5741 53.7406 22.4059 53.6746 22.2907C53.6086 22.1755 53.54 22.0952 53.4714 22.0473C53.4028 21.9994 53.3433 21.9736 53.2954 21.9658C53.2475 21.9593 53.1453 21.9516 52.9899 21.9425V21.7147H55.5048V21.9425C55.3054 21.9477 55.1488 21.9697 55.0336 22.0085C54.9184 22.0473 54.8615 22.1302 54.8615 22.257C54.8615 22.3839 54.9262 22.6362 55.0569 22.9961L56.1364 26.0752L57.0204 23.5306C57.076 23.3805 57.1226 23.2355 57.1589 23.0944C57.1964 22.9533 57.2145 22.8252 57.2145 22.7087C57.2145 22.4602 57.1524 22.2751 57.0281 22.1548C56.9039 22.0344 56.7136 21.9632 56.4599 21.9412V21.7134L56.4587 21.7173Z" fill="#010201"/>
<path d="M60.0866 23.8749V26.8764C60.0866 27.0032 60.0995 27.1003 60.1267 27.165C60.1526 27.2297 60.2031 27.275 60.2768 27.2996C60.3506 27.3242 60.4632 27.3397 60.6146 27.3449V27.5727H58.6758V27.3449C58.8479 27.3397 58.967 27.3048 59.0343 27.2414C59.1016 27.178 59.1366 27.0641 59.1366 26.901V24.9958C59.1366 24.8767 59.0964 24.7667 59.0162 24.6631C58.9359 24.5609 58.822 24.4845 58.6758 24.4353V24.302L59.917 23.8749H60.0866Z" fill="#010201"/>
<path d="M59.5734 21.8532C59.6782 21.8532 59.7766 21.8791 59.8685 21.9296C59.9603 21.9813 60.0315 22.0512 60.0846 22.1393C60.1377 22.2273 60.1636 22.3243 60.1636 22.4305C60.1636 22.5366 60.1377 22.6337 60.0846 22.723C60.0315 22.8136 59.9603 22.8848 59.8685 22.9365C59.7766 22.9896 59.6795 23.0155 59.5734 23.0155C59.4154 23.0155 59.2795 22.9572 59.1669 22.8408C59.053 22.7243 58.9961 22.5884 58.9961 22.4305C58.9961 22.3282 59.022 22.2324 59.0725 22.1418C59.1229 22.0512 59.1941 21.9813 59.2847 21.9296C59.374 21.8778 59.4711 21.8532 59.5734 21.8532Z" fill="#010201"/>
<path d="M62.6923 23.875V24.4263C62.924 24.2464 63.1402 24.1092 63.3382 24.016C63.5362 23.9215 63.7718 23.875 64.0462 23.875C64.8292 23.875 65.2214 24.2632 65.2214 25.0411V26.9334C65.2214 27.1133 65.2641 27.2272 65.3495 27.2738C65.435 27.3204 65.5657 27.3437 65.7391 27.3437V27.5715H63.7381V27.3437C63.9155 27.3437 64.0449 27.3152 64.1264 27.2582C64.208 27.2013 64.2494 27.0822 64.2494 26.8997V24.8949C64.2494 24.7486 64.2261 24.6244 64.1808 24.5234C64.1355 24.4224 64.0682 24.3461 63.9802 24.293C63.8922 24.2399 63.7834 24.2141 63.6566 24.2141C63.4987 24.2141 63.3447 24.2555 63.1932 24.337C63.0431 24.4186 62.8761 24.5428 62.6936 24.7085V26.8997C62.6936 27.024 62.7143 27.1198 62.7558 27.1858C62.7972 27.2518 62.8528 27.2932 62.924 27.31C62.9952 27.3268 63.0962 27.3372 63.2295 27.3437V27.5715H61.2246V27.3437C61.3929 27.3437 61.5236 27.3217 61.6142 27.2751C61.7061 27.2298 61.7514 27.1249 61.7514 26.9619V25.1227C61.7514 24.9402 61.71 24.7926 61.6271 24.6813C61.5443 24.5687 61.4097 24.4846 61.2246 24.4263V24.2891L62.5357 23.8737H62.6936L62.6923 23.875Z" fill="#010201"/>
<path d="M69.6664 26.5438L69.832 26.6732C69.7078 26.9049 69.5602 27.0964 69.3881 27.2453C69.216 27.3941 69.027 27.5054 68.8212 27.5779C68.6154 27.6504 68.4005 27.6853 68.1753 27.6853C67.8712 27.6853 67.5877 27.6115 67.3263 27.4653C67.0648 27.319 66.8577 27.1068 66.7063 26.8298C66.5536 26.5528 66.4785 26.2396 66.4785 25.8875C66.4785 25.6106 66.5251 25.3504 66.617 25.1071C66.7102 24.8638 66.8383 24.6489 67.0027 24.4638C67.1671 24.2787 67.3586 24.1338 67.5761 24.0302C67.7935 23.9267 68.0252 23.8749 68.2711 23.8749C68.517 23.8749 68.7578 23.9267 68.983 24.0302C69.2082 24.1338 69.3881 24.2774 69.5201 24.4599C69.6172 24.5932 69.6871 24.7291 69.7298 24.8689C69.7725 25.0087 69.8062 25.177 69.832 25.3737H67.325C67.3353 25.661 67.3858 25.9044 67.4725 26.1037C67.5593 26.303 67.6732 26.4635 67.8129 26.5852C67.9527 26.7068 68.1016 26.7936 68.2595 26.8466C68.4174 26.8997 68.5675 26.9256 68.7125 26.9256C69.0606 26.9256 69.379 26.7987 69.6677 26.5438H69.6664ZM67.3509 25.1084H68.7992V24.9712C68.7992 24.8107 68.7707 24.667 68.7125 24.5415C68.6542 24.4159 68.5753 24.3189 68.4743 24.2515C68.3734 24.1842 68.2582 24.1493 68.1275 24.1493C67.9165 24.1493 67.7392 24.2425 67.5916 24.4302C67.4454 24.6165 67.3651 24.843 67.3509 25.1084Z" fill="#010201"/>
<path d="M71.7049 23.875V24.5143C71.9185 24.2736 72.0816 24.1066 72.1955 24.0147C72.3081 23.9216 72.4453 23.875 72.6058 23.875C72.7443 23.875 72.8607 23.9241 72.9565 24.0225C73.0523 24.1209 73.1002 24.2451 73.1002 24.394C73.1002 24.5428 73.0575 24.6787 72.9708 24.7823C72.8853 24.8858 72.7766 24.9376 72.6472 24.9376C72.5889 24.9376 72.5255 24.9259 72.4556 24.9039C72.387 24.8819 72.3288 24.8522 72.2809 24.8172C72.2537 24.7952 72.2239 24.7719 72.1942 24.746C72.1631 24.7214 72.1372 24.702 72.1139 24.6878C72.0906 24.6735 72.0647 24.6671 72.0376 24.6671C71.9845 24.6671 71.9327 24.6878 71.8823 24.7266C71.8305 24.7667 71.7722 24.8224 71.7062 24.8949V26.8997C71.7062 27.0434 71.7269 27.1457 71.7658 27.2065C71.8059 27.2673 71.868 27.3049 71.9521 27.3204C72.0363 27.3359 72.1838 27.3424 72.3948 27.3424V27.5702H70.166V27.3424H70.2786C70.5996 27.3424 70.7601 27.2155 70.7601 26.9606V25.0968C70.7601 24.7784 70.5621 24.5596 70.1673 24.4406V24.2995L71.5043 23.8724H71.7075L71.7049 23.875Z" fill="#010201"/>
<path d="M76.0811 23.9461H77.5126V24.1571C77.3767 24.2153 77.2615 24.2865 77.1683 24.3707C77.0739 24.4548 76.9949 24.5506 76.9302 24.6567C76.8655 24.7641 76.7943 24.9013 76.7179 25.0722C76.6416 25.2417 76.5665 25.4242 76.4914 25.6171L75.3757 28.4568C75.0768 29.2282 74.6781 29.6152 74.1798 29.6152C74.0167 29.6152 73.8757 29.5699 73.7592 29.4806C73.6414 29.3912 73.5831 29.2825 73.5831 29.1544C73.5831 29.0431 73.6297 28.9512 73.7216 28.8761C73.8148 28.801 73.9248 28.7635 74.0517 28.7635C74.1125 28.7635 74.1798 28.779 74.2536 28.8088C74.3274 28.8399 74.3986 28.8709 74.4697 28.902C74.5396 28.9344 74.6043 28.9499 74.6626 28.9499C74.8451 28.9499 75.0095 28.7609 75.157 28.3817L75.377 27.7837L74.128 24.878C74.0944 24.7926 74.0582 24.7046 74.018 24.6153C73.9779 24.526 73.9339 24.447 73.8873 24.381C73.8407 24.315 73.7812 24.2619 73.7087 24.2205C73.6362 24.1804 73.5482 24.1584 73.4434 24.1558V23.9448H75.6022V24.1558C75.4301 24.1675 75.2994 24.1933 75.2101 24.2322C75.1208 24.2723 75.0755 24.35 75.0755 24.4664C75.0755 24.5829 75.1143 24.7395 75.192 24.9272L75.8805 26.5166L76.3995 25.243C76.4681 25.0773 76.5031 24.8987 76.5031 24.7072C76.5031 24.3978 76.3633 24.2128 76.0837 24.1545V23.9435L76.0811 23.9461Z" fill="#010201"/>
<path d="M18.6852 27.1961C18.6852 27.3942 18.5247 27.5534 18.3279 27.5534C18.1312 27.5534 17.9707 27.3929 17.9707 27.1961C17.9707 26.9994 18.1299 26.8389 18.3279 26.8389C18.526 26.8389 18.6852 26.9994 18.6852 27.1961Z" fill="#010201"/>
<path d="M25.1324 27.1443C25.1324 27.3423 24.9719 27.5015 24.7752 27.5015C24.5785 27.5015 24.418 27.3423 24.418 27.1443C24.418 26.9463 24.5785 26.7871 24.7752 26.7871C24.9719 26.7871 25.1324 26.9476 25.1324 27.1443Z" fill="#010201"/>
<path d="M31.7326 27.266C31.7184 27.2724 31.7042 27.2802 31.6899 27.2867C31.5061 27.3695 31.3068 27.4109 31.0946 27.4109C30.7322 27.4109 30.3969 27.2944 30.0876 27.0628C29.7783 26.8311 29.5336 26.5036 29.3524 26.083C29.1712 25.6623 29.0806 25.1834 29.0806 24.6476C29.0806 24.1118 29.1635 23.629 29.3278 23.2109C29.4922 22.7929 29.7239 22.4667 30.0229 22.2311C30.3219 21.9956 30.6623 21.8778 31.0441 21.8778C31.246 21.8778 31.4414 21.9102 31.6291 21.9736C31.8168 22.037 31.9967 22.1354 32.1688 22.2661C32.341 22.3981 32.5066 22.5664 32.6671 22.7709C32.8276 22.9754 32.9713 23.2083 33.0981 23.4685H33.322L33.2509 21.6384H32.948C32.8483 21.7768 32.6697 21.8454 32.4122 21.8454C32.3177 21.8454 32.0847 21.8053 31.7132 21.7251C31.3405 21.6448 31.013 21.6047 30.727 21.6047C30.3037 21.6047 29.9142 21.6888 29.5608 21.8558C29.2062 22.0228 28.9033 22.2519 28.6522 22.5405C28.3998 22.8291 28.207 23.1617 28.0737 23.5345C27.9391 23.9073 27.873 24.2917 27.873 24.6838C27.873 25.076 27.9404 25.4682 28.0763 25.8332C28.2122 26.1982 28.4128 26.5205 28.6781 26.8C28.9434 27.0796 29.2722 27.297 29.6618 27.4523C30.0514 27.6077 30.4888 27.6853 30.9729 27.6853C31.2356 27.6853 31.5023 27.6607 31.7715 27.6102C32.0407 27.5611 32.3086 27.4912 32.5726 27.4006C32.8367 27.3113 33.0839 27.2064 33.313 27.0874V26.932C33.0295 27.0201 32.4756 27.1715 31.7313 27.266H31.7326Z" fill="#010201"/>
<path d="M31.459 25.0242V25.2611C31.7295 25.2831 31.921 25.3168 32.0324 25.3634C32.1424 25.4087 32.2123 25.4876 32.242 25.6002C32.2705 25.7128 32.286 25.9083 32.286 26.1878C32.286 26.3651 32.2744 26.5127 32.2524 26.6318C32.2304 26.7508 32.1812 26.8609 32.1074 26.9644C32.0867 26.9942 32.0621 27.0226 32.0362 27.0498C32.4194 26.9773 32.8931 26.8712 33.315 26.7353V26.1632C33.315 25.8953 33.3331 25.705 33.3694 25.5924C33.4056 25.4798 33.4768 25.4022 33.5829 25.3595C33.6891 25.3168 33.8793 25.2844 34.1537 25.2624V25.0255H31.4603L31.459 25.0242Z" fill="#010201"/>
</g>
<defs>
<clipPath id="clip0_632_17405">
<rect width="65.5096" height="27.6151" fill="white" transform="translate(12 2)"/>
</clipPath>
</defs>
</svg>
