<svg width="240" height="31" viewBox="0 0 240 31" fill="none" xmlns="http://www.w3.org/2000/svg">
<path d="M36.3475 18.4775V13.3446C36.3475 8.79252 36.3475 7.98643 36.2882 7.04993C36.229 6.06602 35.9919 5.59185 35.0317 5.39032C34.7946 5.33105 34.3086 5.30734 34.0359 5.30734C33.9174 5.30734 33.7988 5.24807 33.7988 5.12953C33.7988 4.95171 33.9411 4.89244 34.2611 4.89244C35.577 4.89244 37.4026 4.97542 37.5567 4.97542C37.7582 4.97542 43.555 4.97542 44.2307 4.95171C44.7878 4.928 45.2501 4.86873 45.4872 4.80946C45.6295 4.78575 45.748 4.66721 45.8903 4.66721C45.9733 4.66721 46.0088 4.78575 46.0088 4.928C46.0088 5.12953 45.8666 5.48516 45.7717 6.29125C45.748 6.58761 45.6887 7.86788 45.6295 8.21166C45.6058 8.35391 45.5465 8.53173 45.428 8.53173C45.2501 8.53173 45.1909 8.38948 45.1909 8.15239C45.1909 7.95086 45.1672 7.45298 45.0131 7.09735C44.8115 6.63503 44.5152 6.2794 42.9504 6.10158C42.4525 6.04231 39.2755 6.0186 38.9555 6.0186C38.8369 6.0186 38.7777 6.10158 38.7777 6.31496V14.3522C38.7777 14.5537 38.8014 14.6486 38.9555 14.6486C39.3348 14.6486 42.9148 14.6486 43.5905 14.5893C44.2899 14.53 44.693 14.4708 44.9656 14.1863C45.1672 13.9492 45.2857 13.8069 45.4042 13.8069C45.4872 13.8069 45.5465 13.8662 45.5465 14.044C45.5465 14.2218 45.4042 14.7197 45.3094 15.6799C45.2501 16.2608 45.1909 17.3395 45.1909 17.541C45.1909 17.7781 45.1909 18.0982 44.9893 18.0982C44.8471 18.0982 44.7878 17.9797 44.7878 17.8374C44.7878 17.541 44.7878 17.2565 44.6693 16.8772C44.5507 16.4741 44.2899 15.9763 43.1519 15.8577C42.3695 15.7747 39.4771 15.7155 38.991 15.7155C38.8488 15.7155 38.7895 15.7984 38.7895 15.917V18.4775C38.7895 19.4614 38.7658 22.8518 38.7895 23.4564C38.8725 25.4716 39.3111 25.8509 42.168 25.8509C42.9267 25.8509 44.207 25.8509 44.9656 25.5309C45.7243 25.2108 46.0681 24.6299 46.2815 23.4327C46.3407 23.1126 46.4 22.994 46.5423 22.994C46.7201 22.994 46.7201 23.2311 46.7201 23.4327C46.7201 23.6697 46.483 25.6494 46.3407 26.254C46.1392 27.0127 45.9021 27.0127 44.7641 27.0127C40.3661 27.0127 38.4102 26.8349 37.5685 26.8349C37.4263 26.8349 35.5888 26.9178 34.7116 26.9178C34.3915 26.9178 34.2493 26.8586 34.2493 26.6807C34.2493 26.5978 34.3086 26.5029 34.4864 26.5029C34.7472 26.5029 35.1028 26.4437 35.3636 26.3844C35.9445 26.2658 36.0867 25.6257 36.2053 24.7841C36.3475 23.5749 36.3475 21.2752 36.3475 18.4775ZM49.7192 24.1795L55.3501 8.78067C55.6464 7.96272 55.7412 7.80861 55.8954 7.80861C56.0376 7.80861 56.1443 7.92715 56.4407 8.69769C56.8081 9.64604 60.7082 19.8882 62.2137 23.6579C63.1028 25.8628 63.8259 26.2658 64.3475 26.4081C64.715 26.5266 65.0943 26.5622 65.3433 26.5622C65.4974 26.5622 65.5922 26.5859 65.5922 26.7163C65.5922 26.8704 65.367 26.9178 65.0943 26.9178C64.7269 26.9178 62.9131 26.9178 61.2061 26.8704C60.7319 26.8467 60.4593 26.8467 60.4593 26.6926C60.4593 26.5978 60.5304 26.5385 60.6371 26.5148C60.7793 26.4674 60.9335 26.2421 60.7793 25.8391L58.4678 19.7341C58.4203 19.6393 58.3729 19.5918 58.2425 19.5918H52.9081C52.7895 19.5918 52.7065 19.663 52.6591 19.7934L51.1655 24.1795C50.9402 24.7959 50.8217 25.3886 50.8217 25.8391C50.8217 26.337 51.3433 26.5622 51.77 26.5622H52.019C52.1968 26.5622 52.2679 26.6096 52.2679 26.7163C52.2679 26.8704 52.1138 26.9178 51.9004 26.9178C51.3077 26.9178 50.2408 26.8467 49.9682 26.8467C49.6955 26.8467 48.3323 26.9178 47.1705 26.9178C46.8505 26.9178 46.6964 26.8704 46.6964 26.7163C46.6964 26.6215 46.7912 26.5622 46.9216 26.5622C47.0994 26.5622 47.4432 26.5385 47.6447 26.5148C48.7709 26.3607 49.2688 25.4242 49.7192 24.1795ZM53.1926 18.7028H57.9343C58.0528 18.7028 58.0528 18.6316 58.0291 18.525L55.6701 11.8272C55.5516 11.4598 55.4212 11.4598 55.3026 11.8272L53.1214 18.525C53.0622 18.6553 53.1096 18.7028 53.1926 18.7028ZM69.2671 27.2616C70.6066 27.2616 71.9462 26.9653 73.013 26.2184C74.7201 24.9974 75.1231 23.1244 75.1231 22.105C75.1231 20.1253 74.4237 18.5842 71.4957 16.2726L70.7963 15.7273C68.461 13.8188 67.7734 12.9771 67.7734 11.5664C67.7734 9.75273 69.113 8.68583 70.82 8.68583C73.096 8.68583 73.7717 9.72902 73.9258 10.0017C74.0799 10.2743 74.2222 10.9382 74.2459 11.2464C74.2696 11.4479 74.2933 11.5664 74.4474 11.5664C74.566 11.5664 74.6252 11.3886 74.6252 10.9974C74.6252 9.31411 74.7201 8.49616 74.7201 8.36577C74.7201 8.24722 74.6727 8.18795 74.4711 8.18795C74.2696 8.18795 74.0799 8.16424 73.6058 8.05755C72.9893 7.90345 72.2662 7.80861 71.2942 7.80861C68.1409 7.80861 66.1612 9.62233 66.1612 12.2777C66.1612 13.961 66.7539 15.5021 69.3856 17.6596L70.4999 18.5724C72.6337 20.3387 73.3568 21.3226 73.3568 23.0415C73.3568 24.6299 72.1951 26.337 69.8124 26.337C68.1528 26.337 66.5169 25.6376 66.1375 23.812C66.0664 23.4682 66.0664 23.1126 66.0664 22.8992C66.0664 22.6977 66.0427 22.6266 65.8886 22.6266C65.77 22.6266 65.7108 22.757 65.6871 23.0296C65.6633 23.4208 65.5685 24.4166 65.5685 25.6613C65.5685 26.337 65.5922 26.4318 65.936 26.5978C66.9673 27.0838 68.1053 27.2616 69.2671 27.2616ZM84.3814 9.23113L87.5109 9.27855C89.8937 9.32597 90.4627 9.89498 90.5575 10.6418L90.5812 10.9145C90.6049 11.2582 90.6523 11.3412 90.7827 11.3412C90.8776 11.3412 90.9605 11.2345 90.9605 11.0211C90.9605 10.7485 91.0317 9.04146 91.0317 8.29464C91.0317 8.14053 91.0317 7.99828 90.9013 7.99828C90.6997 7.99828 90.0359 8.24722 88.4474 8.24722H79.1418C78.8454 8.24722 77.897 8.1998 77.1858 8.12868C76.5101 8.08126 76.273 7.83232 76.0952 7.83232C76.0003 7.83232 75.8937 8.15239 75.8462 8.30649C75.7988 8.50802 75.3009 10.6418 75.3009 10.8907C75.3009 11.0449 75.3484 11.116 75.4195 11.116C75.5143 11.116 75.5973 11.0686 75.6684 10.867C75.7395 10.6892 75.8225 10.5233 76.0952 10.0965C76.4864 9.50378 77.0909 9.32597 78.6202 9.30226L82.295 9.25484V19.7459C82.295 22.1287 82.295 24.0846 82.1765 25.1278C82.0816 25.8509 81.9512 26.3962 81.4533 26.4911C81.2281 26.5385 80.9318 26.5859 80.7065 26.5859C80.5524 26.5859 80.505 26.657 80.505 26.74C80.505 26.8941 80.6235 26.9415 80.908 26.9415C81.6549 26.9415 83.2197 26.8704 83.3382 26.8704C83.4567 26.8704 85.0215 26.9415 86.3848 26.9415C86.6574 26.9415 86.7878 26.8704 86.7878 26.74C86.7878 26.6689 86.7404 26.5859 86.5863 26.5859C86.3611 26.5859 85.8158 26.5385 85.472 26.4911C84.7251 26.3962 84.5829 25.8509 84.4999 25.1278C84.3814 24.0846 84.3814 22.1287 84.3814 19.7459V9.23113ZM109.892 6.38609C109.536 5.39032 109.37 5.02284 109.157 5.02284C108.979 5.02284 108.861 5.16509 108.434 6.36238L102.258 22.9585H102.198C101.76 21.4174 98.737 10.7248 98.2984 8.85179C98.002 7.57152 97.7412 6.55205 97.7412 6.17271C97.7412 5.79337 97.9428 5.55628 98.1206 5.4733C98.4762 5.29549 99.0215 5.29549 99.2586 5.29549C99.4009 5.29549 99.555 5.27178 99.555 5.09396C99.555 4.97542 99.4364 4.89244 99.0334 4.89244C97.5753 4.89244 96.295 4.97542 96.0342 4.97542C95.7141 4.97542 94.1138 4.89244 92.5964 4.89244C92.3001 4.89244 92.1341 4.95171 92.1341 5.09396C92.1341 5.27178 92.2527 5.29549 92.3949 5.29549C92.5964 5.29549 93.3314 5.3192 93.7108 5.4733C94.4694 5.76966 94.8488 6.20827 95.3111 7.74934L100.48 25.033C101.06 27.0127 101.203 27.3327 101.499 27.3327C101.843 27.3327 101.997 27.0127 102.459 25.7917C103.502 23.0889 107.497 12.42 108.552 9.62233H108.612L114.325 25.8272C114.729 26.9653 114.906 27.3446 115.203 27.3446C115.523 27.3446 115.665 26.989 116.424 24.8433C117.562 21.5834 120.502 12.3133 121.782 8.61471C122.339 7.01437 122.801 5.79337 123.679 5.4733C123.999 5.35476 124.556 5.33105 124.674 5.33105C124.852 5.33105 124.935 5.24807 124.935 5.09396C124.935 4.97542 124.793 4.91615 124.532 4.91615C123.631 4.91615 122.375 4.99913 122.173 4.99913C121.912 4.99913 120.691 4.91615 119.198 4.91615C118.842 4.91615 118.7 4.97542 118.7 5.11767C118.7 5.23622 118.818 5.3192 118.961 5.3192C120.3 5.3192 120.62 5.66297 120.62 6.19642C120.62 6.57576 120.596 6.97881 120.3 8.05755C119.281 11.7917 116.602 20.232 115.819 22.9111H115.701L109.892 6.38609ZM125.907 19.7222C125.907 22.105 125.907 24.0609 125.789 25.1041C125.694 25.8272 125.563 26.3725 125.066 26.4674C124.84 26.5148 124.544 26.5622 124.319 26.5622C124.165 26.5622 124.117 26.6333 124.117 26.7163C124.117 26.8704 124.236 26.9178 124.52 26.9178C125.267 26.9178 126.832 26.8467 126.95 26.8467C127.673 26.8467 129.333 26.989 133.079 26.989C134.051 26.989 134.241 26.989 134.419 26.3488C134.537 25.8272 134.739 24.1439 134.739 23.9424C134.739 23.7646 134.739 23.5749 134.585 23.5749C134.454 23.5749 134.407 23.6697 134.359 23.9424C134.182 24.9619 133.885 25.4479 133.245 25.7205C132.605 25.9932 131.514 25.9932 130.862 25.9932C128.432 25.9932 128.065 25.6731 127.982 23.9542C127.958 23.4327 127.982 20.552 127.982 19.7104V17.5292C127.982 17.4344 128.029 17.3514 128.16 17.3514C128.586 17.3514 131.04 17.3988 131.704 17.4699C132.664 17.5647 132.889 17.9915 132.996 18.3353C133.091 18.6554 133.091 18.9043 133.091 19.1532C133.091 19.2718 133.138 19.3785 133.269 19.3785C133.447 19.3785 133.447 19.1058 133.447 18.9043C133.447 18.7265 133.494 17.8137 133.541 17.3158C133.613 16.4979 133.743 16.0711 133.743 15.9288C133.743 15.7747 133.696 15.7273 133.624 15.7273C133.53 15.7273 133.423 15.8459 133.257 16.0474C133.032 16.2963 132.688 16.3437 132.095 16.3912C131.526 16.4386 128.468 16.4386 128.148 16.4386C128.029 16.4386 128.005 16.3675 128.005 16.1896V9.37339C128.005 9.19557 128.053 9.12445 128.148 9.12445C128.42 9.12445 131.123 9.14815 131.55 9.19557C132.889 9.34968 133.138 9.64604 133.316 10.0372C133.435 10.3336 133.47 10.7603 133.47 10.9263C133.47 11.1278 133.518 11.2464 133.672 11.2464C133.767 11.2464 133.814 11.0923 133.85 10.9737C133.897 10.6774 133.944 9.58677 133.968 9.33782C134.039 8.63842 134.17 8.34206 134.17 8.1761C134.17 8.0457 134.146 7.95086 134.075 7.95086C133.944 7.95086 133.85 8.0457 133.731 8.08126C133.53 8.12868 133.138 8.1761 132.664 8.19981C132.095 8.22351 127.152 8.22351 126.986 8.22351C126.867 8.22351 125.303 8.15239 124.188 8.15239C123.916 8.15239 123.797 8.1998 123.797 8.35391C123.797 8.44875 123.892 8.50802 123.999 8.50802C124.224 8.50802 124.639 8.53173 124.84 8.57914C125.658 8.75696 125.86 9.14815 125.907 9.98981C125.955 10.7841 125.955 11.4835 125.955 15.348V19.7222H125.907ZM140.939 27.2616C142.278 27.2616 143.618 26.9653 144.685 26.2184C146.392 24.9974 146.795 23.1244 146.795 22.105C146.795 20.1253 146.095 18.5842 143.167 16.2726L142.468 15.7273C140.132 13.8188 139.445 12.9771 139.445 11.5664C139.445 9.75273 140.784 8.68583 142.491 8.68583C144.779 8.68583 145.443 9.72902 145.597 10.0017C145.751 10.2743 145.894 10.9382 145.917 11.2464C145.941 11.4479 145.965 11.5664 146.119 11.5664C146.237 11.5664 146.297 11.3886 146.297 10.9974C146.297 9.31411 146.392 8.49616 146.392 8.36577C146.392 8.24722 146.344 8.18795 146.143 8.18795C145.941 8.18795 145.74 8.16424 145.277 8.05755C144.661 7.90345 143.938 7.80861 142.966 7.80861C139.812 7.80861 137.833 9.62233 137.833 12.2777C137.833 13.961 138.425 15.5021 141.057 17.6596L142.171 18.5724C144.305 20.3387 145.028 21.3226 145.028 23.0415C145.028 24.6299 143.867 26.337 141.484 26.337C139.824 26.337 138.188 25.6376 137.809 23.812C137.738 23.4682 137.738 23.1126 137.738 22.8992C137.738 22.6977 137.714 22.6266 137.56 22.6266C137.441 22.6266 137.382 22.757 137.359 23.0296C137.335 23.4208 137.24 24.4166 137.24 25.6613C137.24 26.337 137.264 26.4318 137.607 26.5978C138.639 27.0838 139.777 27.2616 140.939 27.2616ZM156.053 9.23113L159.182 9.27855C161.565 9.32597 162.134 9.89498 162.229 10.6418L162.253 10.9145C162.276 11.2582 162.324 11.3412 162.454 11.3412C162.549 11.3412 162.632 11.2345 162.632 11.0211C162.632 10.7485 162.703 9.04146 162.703 8.29464C162.703 8.14053 162.703 7.99828 162.585 7.99828C162.383 7.99828 161.719 8.24722 160.131 8.24722H150.825C150.529 8.24722 149.58 8.1998 148.869 8.12868C148.193 8.08126 147.956 7.83232 147.778 7.83232C147.684 7.83232 147.577 8.15239 147.53 8.30649C147.482 8.50802 146.984 10.6418 146.984 10.8907C146.984 11.0449 147.032 11.116 147.103 11.116C147.198 11.116 147.281 11.0686 147.352 10.867C147.423 10.6892 147.506 10.5233 147.767 10.0965C148.17 9.50378 148.762 9.32597 150.292 9.30226L153.966 9.25484V19.7459C153.966 22.1287 153.966 24.0846 153.836 25.1278C153.741 25.8509 153.611 26.3962 153.113 26.4911C152.888 26.5385 152.591 26.5859 152.366 26.5859C152.212 26.5859 152.165 26.657 152.165 26.74C152.165 26.8941 152.283 26.9415 152.556 26.9415C153.303 26.9415 154.867 26.8704 154.986 26.8704C155.116 26.8704 156.669 26.9415 158.033 26.9415C158.305 26.9415 158.424 26.8704 158.424 26.74C158.424 26.6689 158.376 26.5859 158.222 26.5859C157.997 26.5859 157.452 26.5385 157.108 26.4911C156.361 26.3962 156.219 25.8509 156.136 25.1278C156.017 24.0846 156.017 22.1287 156.017 19.7459V9.23113H156.053ZM168.607 18.4775V13.3446C168.607 8.79252 168.607 7.98643 168.547 7.04993C168.488 6.06602 168.251 5.59185 167.291 5.39032C167.054 5.33105 166.556 5.30734 166.295 5.30734C166.176 5.30734 166.058 5.24807 166.058 5.12953C166.058 4.95171 166.2 4.89244 166.52 4.89244C167.836 4.89244 169.662 4.97542 169.816 4.97542C170.515 4.97542 171.653 4.89244 172.993 4.89244C177.77 4.89244 178.813 7.80861 178.813 9.2667C178.813 11.6613 177.45 13.0838 176.075 14.5063C178.232 15.182 181.113 17.2447 181.113 20.6587C181.113 23.7764 178.671 27.0127 173.68 27.0127C173.005 27.0127 170.041 26.8349 169.804 26.8349C169.662 26.8349 167.824 26.9178 166.947 26.9178C166.627 26.9178 166.485 26.8586 166.485 26.6807C166.485 26.5978 166.544 26.5029 166.722 26.5029C166.983 26.5029 167.326 26.4437 167.599 26.3844C168.18 26.2658 168.322 25.6257 168.441 24.7841C168.607 23.5749 168.607 21.2752 168.607 18.4775ZM170.93 6.18456V13.9966C170.93 14.1981 170.989 14.2574 171.132 14.3167C171.309 14.3404 171.831 14.4352 172.91 14.4352C174.546 14.4352 174.949 14.3759 175.565 13.6765C176.182 12.9771 176.62 11.9339 176.62 10.7366C176.62 8.31835 175.541 5.72224 172.685 5.72224C172.364 5.72224 171.748 5.74595 171.286 5.8645C171.025 5.92377 170.93 6.00675 170.93 6.18456ZM170.93 15.4191V17.0787C170.93 19.3192 170.93 22.9348 170.954 23.3734C171.037 24.8078 171.037 25.2108 171.95 25.6494C172.732 26.0288 173.988 26.088 174.51 26.088C176.087 26.088 178.624 25.2464 178.624 21.9509C178.624 20.2083 178.043 17.6714 175.802 16.1304C174.806 15.4547 174.083 15.3717 173.384 15.2887C173.005 15.2294 171.546 15.2294 171.108 15.2294C170.989 15.2176 170.93 15.265 170.93 15.4191ZM183.033 24.1795L188.664 8.78067C188.961 7.96272 189.055 7.80861 189.209 7.80861C189.364 7.80861 189.458 7.92715 189.755 8.69769C190.122 9.64604 194.022 19.8882 195.54 23.6579C196.429 25.8628 197.152 26.2658 197.673 26.4081C198.041 26.5266 198.42 26.5622 198.657 26.5622C198.812 26.5622 198.906 26.5859 198.906 26.7163C198.906 26.8704 198.681 26.9178 198.408 26.9178C198.041 26.9178 196.227 26.9178 194.52 26.8704C194.046 26.8467 193.773 26.8467 193.773 26.6926C193.773 26.5978 193.845 26.5385 193.951 26.5148C194.093 26.4674 194.248 26.2421 194.093 25.8391L191.782 19.7341C191.734 19.6393 191.687 19.5918 191.557 19.5918H186.222C186.104 19.5918 186.021 19.663 185.973 19.7934L184.48 24.1795C184.254 24.7959 184.136 25.3886 184.136 25.8391C184.136 26.337 184.657 26.5622 185.072 26.5622H185.321C185.499 26.5622 185.57 26.6096 185.57 26.7163C185.57 26.8704 185.416 26.9178 185.203 26.9178C184.61 26.9178 183.543 26.8467 183.27 26.8467C182.998 26.8467 181.635 26.9178 180.473 26.9178C180.153 26.9178 179.999 26.8704 179.999 26.7163C179.999 26.6215 180.093 26.5622 180.224 26.5622C180.402 26.5622 180.745 26.5385 180.947 26.5148C182.097 26.3607 182.583 25.4242 183.033 24.1795ZM186.507 18.7028H191.248C191.367 18.7028 191.367 18.6316 191.343 18.525L188.984 11.8272C188.854 11.4598 188.735 11.4598 188.617 11.8272L186.436 18.525C186.376 18.6553 186.436 18.7028 186.507 18.7028ZM201.194 11.6613C201.988 12.5504 204.798 15.6799 207.667 18.7857C210.298 21.6071 213.867 25.2582 214.139 25.5072C215.455 26.823 215.751 27.0957 215.953 27.0957C216.131 27.0957 216.178 26.9771 216.178 25.3294L216.226 10.7959C216.226 9.31411 216.32 8.75696 217.138 8.591C217.435 8.51987 217.613 8.51987 217.731 8.51987C217.909 8.51987 218.004 8.44875 218.004 8.34206C218.004 8.18795 217.826 8.16424 217.553 8.16424C216.534 8.16424 215.716 8.23537 215.443 8.23537C215.171 8.23537 213.985 8.16424 212.859 8.16424C212.563 8.16424 212.361 8.18795 212.361 8.34206C212.361 8.43689 212.385 8.51987 212.563 8.51987C212.764 8.51987 213.333 8.54358 213.784 8.65027C214.554 8.85179 214.732 9.3971 214.756 11.0093L215.028 23.6105C214.234 22.7925 211.531 19.7697 209.077 17.138C205.26 13.0482 201.562 9.05332 201.194 8.62656C200.945 8.37762 200.53 7.83232 200.329 7.83232C200.127 7.83232 200.056 8.10497 200.056 9.07703L200.032 23.2904C200.032 25.5427 199.914 26.2658 199.286 26.4437C198.918 26.5622 198.468 26.5978 198.266 26.5978C198.148 26.5978 198.065 26.6452 198.065 26.7519C198.065 26.9178 198.219 26.9534 198.456 26.9534C199.57 26.9534 200.613 26.8823 200.839 26.8823C201.064 26.8823 202.06 26.9534 203.47 26.9534C203.767 26.9534 203.921 26.906 203.921 26.7519C203.921 26.657 203.85 26.5978 203.719 26.5978C203.494 26.5978 202.949 26.5741 202.474 26.4437C201.799 26.2421 201.562 25.602 201.502 23.5631L201.194 11.6613ZM221.951 19.7222C221.951 22.105 221.951 24.0609 221.821 25.1041C221.726 25.8272 221.596 26.3725 221.098 26.4674C220.872 26.5148 220.576 26.5622 220.351 26.5622C220.197 26.5622 220.149 26.6333 220.149 26.7163C220.149 26.8704 220.268 26.9178 220.541 26.9178C221.287 26.9178 222.722 26.8467 222.923 26.8467C223.125 26.8467 224.559 26.9178 225.78 26.9178C226.053 26.9178 226.171 26.8467 226.171 26.7163C226.171 26.6452 226.124 26.5622 225.97 26.5622C225.745 26.5622 225.353 26.5148 224.998 26.4674C224.251 26.3725 224.109 25.8272 224.026 25.1041C223.907 24.0609 223.907 22.105 223.907 19.7222V17.2921H224.026C225.223 18.762 230.475 24.4403 231.589 25.3531C232.656 26.1947 233.272 26.74 234.588 26.8704C235.133 26.9178 235.607 26.9178 236.295 26.9178H237.563C237.99 26.9178 238.109 26.8467 238.109 26.7163C238.109 26.6215 237.955 26.5622 237.789 26.5622C237.611 26.5622 236.9 26.5148 236.248 26.2421C235.062 25.7443 234.635 25.3531 232.549 23.4089C231.53 22.4606 226.373 17.138 225.733 16.4149C226.254 15.7984 230.569 11.5783 231.186 10.9856C232.3 9.91869 232.845 9.30226 233.865 8.85179C234.363 8.62656 234.884 8.50802 235.252 8.50802C235.453 8.50802 235.501 8.4606 235.501 8.3302C235.501 8.1998 235.406 8.15239 235.133 8.15239C234.517 8.15239 232.881 8.22351 232.751 8.22351C232.158 8.22351 231.387 8.15239 230.889 8.15239C230.712 8.15239 230.593 8.1998 230.593 8.3302C230.593 8.42504 230.688 8.48431 230.818 8.53173C231.02 8.60285 231.138 8.75696 231.138 9.05332C231.138 9.48008 230.498 10.1202 229.799 10.8433C228.91 11.8154 224.417 16.3793 224.002 16.8416H223.895V15.348C223.895 11.4835 223.895 10.7841 223.943 9.98981C223.99 9.12444 224.192 8.69769 224.856 8.57914C225.152 8.53173 225.306 8.50802 225.472 8.50802C225.567 8.50802 225.673 8.4606 225.673 8.35391C225.673 8.1998 225.555 8.15239 225.282 8.15239C224.535 8.15239 223.101 8.22351 222.876 8.22351C222.734 8.22351 221.264 8.15239 220.149 8.15239C219.877 8.15239 219.746 8.1998 219.746 8.35391C219.746 8.44875 219.841 8.50802 219.948 8.50802C220.173 8.50802 220.588 8.53173 220.789 8.57914C221.607 8.75696 221.809 9.14815 221.856 9.98981C221.904 10.7841 221.904 11.4835 221.904 15.348V19.7222H221.951Z" fill="black"/>
<path d="M2.09961 25.922V6.07781C2.09961 5.65106 2.13517 5.17688 2.13517 5.17688C2.19444 3.57654 3.40359 2.47409 4.96836 2.34369C4.96836 2.34369 5.40698 2.29627 5.8693 2.29627H25.7016C26.1403 2.29627 26.6026 2.33184 26.6026 2.33184C28.2029 2.39111 29.3054 3.60025 29.4358 5.16503C29.4358 5.16503 29.4713 5.61549 29.4713 6.06596V25.8983C29.4713 26.3251 29.4358 26.7992 29.4358 26.7992C29.3765 28.3996 28.1673 29.502 26.6026 29.6324C26.6026 29.6324 26.164 29.6798 25.7016 29.6798H5.8693C5.44254 29.6798 4.96836 29.6443 4.96836 29.6443C3.36803 29.585 2.26557 28.3759 2.13517 26.8111C2.13517 26.8229 2.09961 26.3725 2.09961 25.922Z" fill="white"/>
<path d="M29.7338 5.15326C29.5916 3.37511 28.2995 2.09483 26.6161 2.03556C26.5924 2.03556 26.1301 2 25.6915 2H5.85915C5.39683 2 4.94636 2.03556 4.93451 2.04742C3.15636 2.18967 1.87608 3.4818 1.81681 5.16511C1.81681 5.16511 1.78125 5.63929 1.78125 6.08975V25.9221C1.78125 26.3844 1.81681 26.8349 1.81681 26.8467C1.95907 28.6249 3.25119 29.9052 4.93451 29.9644C4.93451 29.9644 5.40868 30 5.85915 30H25.7033C26.1657 30 26.6161 29.9526 26.628 29.9526C28.4061 29.8103 29.6864 28.5182 29.7457 26.8349C29.7457 26.8112 29.7812 26.3489 29.7812 25.9102V6.0779C29.7812 5.61558 29.7457 5.16511 29.7338 5.15326ZM29.1648 25.9102C29.1648 26.3251 29.1293 26.7756 29.1293 26.7993C29.0818 28.1981 28.0505 29.2176 26.5687 29.3362C26.5687 29.3362 26.142 29.3836 25.7033 29.3836H5.871C5.4561 29.3836 5.00564 29.348 4.98193 29.348C3.58311 29.3006 2.56364 28.2693 2.44509 26.7993C2.44509 26.7993 2.40953 26.3607 2.40953 25.9221V6.0779C2.40953 5.663 2.44509 5.21253 2.44509 5.18882C2.49251 3.80186 3.51199 2.78239 4.99378 2.65199C4.99378 2.65199 5.43239 2.61643 5.85915 2.61643H25.6915C26.1064 2.61643 26.5569 2.65199 26.5806 2.65199C27.9794 2.69941 28.9989 3.73074 29.1174 5.20068C29.1174 5.20068 29.153 5.63929 29.153 6.0779V25.9102H29.1648Z" fill="#DA291C"/>
<path d="M15.0813 9.6341L28.453 9.87119V7.09727L14.6309 7.31065L15.0813 9.6341Z" fill="#DA291C"/>
<path d="M15.828 13.3803H28.4647V10.5945L15.3301 10.8316L15.828 13.3803Z" fill="#DA291C"/>
<path d="M25.4805 28.6723H25.7057C26.0258 28.6723 26.3577 28.6486 26.3577 28.6486C27.6024 28.53 28.3848 27.6647 28.4322 26.5741C28.4322 26.5741 28.4559 26.254 28.4559 25.9221V14.0796L25.682 14.6249L25.4805 28.6723Z" fill="#DA291C"/>
<path d="M22.157 15.3008L21.9199 28.6725H24.682L24.4686 14.8503L22.157 15.3008Z" fill="#DA291C"/>
<path d="M3.10547 25.6971V25.9223C3.10547 26.2542 3.12918 26.5743 3.12918 26.5743C3.1766 27.6649 4.0064 28.5895 5.20369 28.6488C5.20369 28.6488 5.54747 28.6725 5.85568 28.6725H17.6982L17.1529 25.9104L3.10547 25.6971Z" fill="#DA291C"/>
<path d="M16.4772 22.3657L3.10547 22.1286V24.9025L16.9277 24.6892L16.4772 22.3657Z" fill="#DA291C"/>
<path d="M26.3539 3.35136C26.3539 3.35136 26.0101 3.32765 25.7019 3.32765H13.8594L14.4047 6.10157L28.4521 6.31495V6.07786C28.4521 5.74594 28.4284 5.42587 28.4284 5.42587C28.3573 4.22858 27.5275 3.42249 26.3539 3.35136Z" fill="#DA291C"/>
<path d="M6.08664 3.31585H5.87326C5.54134 3.31585 5.20941 3.35141 5.20941 3.35141C4.0714 3.44625 3.18232 4.25234 3.14676 5.42592C3.14676 5.42592 3.12305 5.7697 3.12305 6.07791V17.9204L5.88511 17.3751L6.08664 3.31585Z" fill="#DA291C"/>
<path d="M13.1587 15.9526V3.31585H10.3848L10.6219 16.4505L13.1587 15.9526Z" fill="#DA291C"/>
<path d="M9.4156 16.6995L9.65269 3.31593H6.89062L7.09215 17.15L9.4156 16.6995Z" fill="#DA291C"/>
<path d="M15.7422 18.608H3.10547V21.4056L16.2401 21.1567L15.7422 18.608Z" fill="#DA291C"/>
<path d="M18.4023 16.0473V28.6722H21.1881L20.9392 15.5375L18.4023 16.0473Z" fill="#DA291C"/>
</svg>
