<svg width="100" height="31" viewBox="0 0 100 31" fill="none" xmlns="http://www.w3.org/2000/svg">
<path d="M21.2534 7.46495H18.1706C17.2373 7.46495 16.502 6.72447 16.502 5.78464V2.68033C16.502 1.76896 17.2373 1 18.1706 1H21.2534C22.1584 1 22.922 1.74048 22.922 2.68033V5.78464C22.922 6.72447 22.1867 7.46495 21.2534 7.46495Z" fill="#406EB3"/>
<path d="M13.2487 14.4425H9.79826C8.75183 14.4425 7.93164 13.5881 7.93164 12.5629V9.05981C7.93164 8.03453 8.7801 7.18014 9.79826 7.18014H13.277C14.3234 7.18014 15.1436 8.03453 15.1436 9.05981V12.5629C15.1436 13.6166 14.2951 14.4425 13.2487 14.4425Z" fill="#632678"/>
<path d="M12.936 21.7049H10.8149C10.1927 21.7049 9.68359 21.1923 9.68359 20.5657V18.4297C9.68359 17.8032 10.1927 17.2905 10.8149 17.2905H12.936C13.5582 17.2905 14.0673 17.8032 14.0673 18.4297V20.5657C14.0673 21.1923 13.5582 21.7049 12.936 21.7049Z" fill="#982881"/>
<path d="M18.6227 28.4545H16.1056C15.3703 28.4545 14.748 27.8565 14.748 27.0875V24.5528C14.748 23.8123 15.342 23.1858 16.1056 23.1858H18.6227C19.358 23.1858 19.9802 23.7838 19.9802 24.5528V27.0875C19.9802 27.8565 19.3863 28.4545 18.6227 28.4545Z" fill="#BA2F7D"/>
<path d="M27.8128 8.74651H26.0876C25.5785 8.74651 25.1543 8.31931 25.1543 7.80667V6.06939C25.1543 5.55675 25.5785 5.12955 26.0876 5.12955H27.8128C28.3219 5.12955 28.7461 5.55675 28.7461 6.06939V7.80667C28.7745 8.31931 28.3502 8.74651 27.8128 8.74651Z" fill="#BA2F7D"/>
<path d="M65.8814 9.91426C66.4471 9.91426 66.8713 9.45859 66.8713 8.91747C66.8713 8.34787 66.4188 7.92067 65.8814 7.92067C65.3158 7.92067 64.8633 8.37635 64.8633 8.91747C64.8633 9.45859 65.3158 9.91426 65.8814 9.91426Z" fill="#26478D"/>
<path d="M29.3134 20.6798C29.172 20.9076 28.9175 21.0215 28.6346 21.0215C28.4932 21.0215 28.2953 20.993 28.1821 20.9076C27.9559 20.7652 27.8145 20.4804 27.8145 20.1956C27.8145 20.0532 27.8428 19.9108 27.9276 19.7969L30.2467 16.123L27.9276 12.4491C27.8427 12.3352 27.8145 12.1643 27.8145 12.0504C27.8145 11.7656 27.9559 11.4808 28.2104 11.3384C28.3518 11.2529 28.4932 11.2244 28.6346 11.2244C28.9175 11.2244 29.172 11.3384 29.3417 11.5662L31.2366 14.5851L33.1598 11.5662C33.3012 11.3384 33.584 11.2244 33.8668 11.2244C34.0083 11.2244 34.1497 11.253 34.2911 11.3384C34.5456 11.4808 34.687 11.7656 34.687 12.0504C34.687 12.1928 34.6587 12.3352 34.5739 12.4491L32.2548 16.123L34.5739 19.7969C34.6587 19.9108 34.687 20.0532 34.687 20.1956C34.687 20.4804 34.5456 20.7937 34.3194 20.9076C34.178 20.9931 34.0083 21.0215 33.8668 21.0215C33.584 21.0215 33.3578 20.9076 33.1881 20.6798L31.2649 17.6894L29.3134 20.6798Z" fill="#26478D"/>
<path d="M37.5994 12.335C38.4761 11.5376 39.664 11.0534 40.9367 11.0534C43.7366 11.0534 45.9426 13.3034 45.9426 16.0944C45.9426 18.8569 43.7083 21.1069 40.9367 21.1069C39.664 21.1069 38.4761 20.6227 37.5994 19.8253V24.1257C37.5994 24.5529 37.2034 24.9232 36.7792 24.9232C36.3832 24.9232 35.959 24.5529 35.959 24.1257V11.9363C35.959 11.5091 36.3549 11.1389 36.7792 11.1389C37.2317 11.1389 37.5994 11.5091 37.5994 11.9363V12.335ZM40.9084 12.7338C39.0417 12.7338 37.5711 14.2147 37.5711 16.0944C37.5711 17.9741 39.0417 19.455 40.9084 19.455C42.775 19.455 44.2457 17.9741 44.2457 16.0944C44.274 14.2147 42.8033 12.7338 40.9084 12.7338Z" fill="#26478D"/>
<path d="M60.1111 15.1831V20.2241C60.1111 20.6513 59.7151 21.0215 59.2909 21.0215C58.8384 21.0215 58.4707 20.6513 58.4707 20.2241V11.9364C58.4707 11.5092 58.8666 11.1389 59.2909 11.1389C59.6868 11.1389 60.0828 11.4807 60.1111 11.9079C60.7898 11.3953 61.6666 11.082 62.5999 11.082C63.109 11.082 63.5049 11.4807 63.5049 11.9079C63.5049 12.3636 63.109 12.7623 62.5999 12.7623C61.3272 12.7908 60.1111 13.2465 60.1111 15.1831Z" fill="#26478D"/>
<path d="M65.8827 11.1389C65.4302 11.1389 65.0625 11.5091 65.0625 11.9363V20.2525C65.0625 20.6797 65.4584 21.0499 65.8827 21.0499C66.2786 21.0499 66.7029 20.6797 66.7029 20.2525V11.9363C66.7029 11.5091 66.3069 11.1389 65.8827 11.1389Z" fill="#26478D"/>
<path d="M76.4038 11.9363C76.4038 11.5091 76.7997 11.1389 77.224 11.1389C77.6199 11.1389 78.0442 11.5091 78.0442 11.9363V20.2525C78.0442 20.6796 77.6482 21.0499 77.224 21.0499C76.7715 21.0499 76.4038 20.6796 76.4038 20.2525V19.8537C75.4988 20.6512 74.3392 21.1353 73.0665 21.1353C70.2666 21.1353 68.0605 18.8854 68.0605 16.0944C68.0605 13.3318 70.2948 11.0819 73.0665 11.0819C74.3392 11.0819 75.4988 11.5661 76.4038 12.3635V11.9363ZM73.0665 19.455C74.9331 19.455 76.4038 17.9741 76.4038 16.0944C76.4038 14.2147 74.9331 12.7337 73.0665 12.7337C71.1999 12.7337 69.7292 14.2147 69.7292 16.0944C69.7292 17.9741 71.1999 19.455 73.0665 19.455Z" fill="#26478D"/>
<path d="M86.442 15.297C86.442 13.9015 85.2542 12.7054 83.8683 12.7054C82.5391 12.7054 81.2947 13.2465 81.2947 15.2116V20.2525C81.2947 20.6797 80.8987 21.05 80.4745 21.05C80.022 21.05 79.6543 20.6797 79.6543 20.2525V11.9364C79.6543 11.5092 80.0502 11.1389 80.4745 11.1389C80.8704 11.1389 81.2664 11.4807 81.2947 11.9079C82.0017 11.3668 82.8785 11.082 83.8401 11.082C86.0744 11.082 88.0824 12.8478 88.0824 15.0692V20.2525C88.0824 20.6797 87.6864 21.05 87.2622 21.05C86.8097 21.05 86.442 20.6797 86.442 20.2525V15.297Z" fill="#26478D"/>
<path d="M27.3332 15.8096C27.3049 13.2464 25.0424 11.0819 22.3556 11.0819C19.5556 11.0819 17.3496 13.3318 17.3496 16.0944C17.3496 18.9139 19.5839 21.1353 22.3556 21.1353C23.6848 21.1353 24.9292 20.6227 25.8343 19.7113C26.004 19.5689 26.1171 19.3126 26.1171 19.0848C26.1171 18.6291 25.7211 18.2589 25.2969 18.2589C25.0424 18.2589 24.8161 18.4013 24.6464 18.6006C24.0808 19.1987 23.2606 19.4835 22.3838 19.4835C20.7152 19.4835 19.3576 18.3443 19.0748 16.7494H26.5413C26.5413 16.7494 26.5413 16.7494 26.5696 16.7494H26.5979H26.6262C26.6545 16.7494 26.6827 16.7494 26.7111 16.7209C27.0505 16.5785 27.3332 16.2368 27.3332 15.8096ZM22.3556 12.7337C23.8545 12.7337 25.0989 13.7021 25.5232 15.0691H19.1597C19.5839 13.7021 20.8283 12.7337 22.3556 12.7337Z" fill="#26478D"/>
<path d="M57.0852 15.8096C57.0569 13.2464 54.766 11.0819 52.1075 11.0819C49.3076 11.0819 47.1016 13.3318 47.1016 16.0944C47.1016 18.9139 49.3359 21.1353 52.1075 21.1353C53.4368 21.1353 54.6812 20.6227 55.5862 19.7113C55.7559 19.5689 55.869 19.3126 55.869 19.0848C55.869 18.6291 55.4731 18.2589 55.0489 18.2589C54.7943 18.2589 54.5681 18.4013 54.3984 18.6006C53.8327 19.1987 53.0125 19.4835 52.1358 19.4835C50.4671 19.4835 49.1096 18.3443 48.8268 16.7494H56.2933C56.2933 16.7494 56.2933 16.7494 56.3216 16.7494H56.3498C56.3781 16.7494 56.4064 16.7494 56.4064 16.7494H56.4347C56.7741 16.607 57.0852 16.2368 57.0852 15.8096ZM52.1075 12.7337C53.6065 12.7337 54.8509 13.7021 55.2751 15.0691H48.9116C49.3359 13.7021 50.5803 12.7337 52.1075 12.7337Z" fill="#26478D"/>
<path d="M89.8381 21.0498C89.7532 21.0498 89.6967 20.9929 89.6967 20.9074V19.5119H89.3855C89.3007 19.5119 89.2441 19.455 89.2441 19.3695C89.2441 19.2841 89.3007 19.2271 89.3855 19.2271H90.2906C90.3754 19.2271 90.432 19.2841 90.432 19.3695C90.432 19.455 90.3754 19.5119 90.2906 19.5119H89.9795V20.9074C89.9795 20.9929 89.9229 21.0498 89.8381 21.0498Z" fill="#26478D"/>
<path d="M91.4471 21.0499C91.3623 21.0499 91.334 20.993 91.3057 20.936L90.9098 19.7968V20.9075C90.9098 20.993 90.8532 21.0499 90.7684 21.0499C90.6835 21.0499 90.627 20.993 90.627 20.9075V19.4266C90.627 19.3127 90.7118 19.2272 90.8249 19.2272C90.9098 19.2272 90.9946 19.2842 91.0229 19.3696L91.4189 20.5373L91.8148 19.3696C91.8431 19.2842 91.9279 19.2272 92.0128 19.2272C92.1259 19.2272 92.2108 19.3127 92.2108 19.4266V20.9075C92.2108 20.993 92.1542 21.0499 92.0693 21.0499C91.9845 21.0499 91.9279 20.993 91.9279 20.9075V19.7968C91.8714 19.9677 91.7865 20.2525 91.7017 20.4803C91.5603 20.936 91.532 20.936 91.532 20.936C91.5603 21.0215 91.5037 21.0499 91.4471 21.0499Z" fill="#26478D"/>
</svg>
