<svg width="180" height="31" viewBox="0 0 180 31" fill="none" xmlns="http://www.w3.org/2000/svg">
<path d="M170.022 3.46012C170.022 2.7189 170.731 2.4158 171.882 2.4158C173.013 2.4158 173.743 2.6925 173.743 3.46012C173.743 4.41322 172.595 4.5224 171.874 4.5224C170.726 4.5224 170.022 4.21887 170.022 3.46012ZM174.841 3.46012C174.841 2.00843 173.735 1 171.874 1C170.532 1 168.924 1.67158 168.924 3.46012C168.924 5.17176 170.348 5.93864 171.874 5.93864C173.421 5.93864 174.841 5.17155 174.841 3.46012ZM170.03 10.2749V9.2419C170.03 8.60271 170.432 8.36994 170.757 8.36994C171.118 8.36994 171.497 8.61544 171.497 9.2419V10.2749H170.03ZM172.486 10.2749V9.28936L174.758 8.40373V6.90358L172.219 7.97399C171.992 7.3505 171.388 6.97084 170.735 6.97084C169.673 6.97084 169.008 7.66809 169.008 9.05814V11.6232H174.758V10.2749H172.486ZM171.146 12.9088C169.762 13.0605 168.924 13.8013 168.924 15.2523C168.924 16.9882 170.29 17.8474 171.882 17.8474C173.45 17.8474 174.841 17.0132 174.841 15.2943C174.841 13.9622 174.063 13.0522 172.746 12.9088L172.662 14.2232C173.216 14.2996 173.743 14.5942 173.743 15.2268C173.743 16.247 172.729 16.3395 171.941 16.3395C171.245 16.3395 170.006 16.247 170.006 15.2943C170.006 14.5523 170.599 14.3329 171.237 14.3255L171.146 12.9088ZM174.758 19.147H169.008V20.4952H174.758V19.147ZM174.758 24.9633V25.8904L170.073 27.2835V27.3154H174.758V28.4524H169.008V26.3377L172.453 25.3257L169.008 24.2641V22.1488H174.758V23.497H170.073V23.5304L174.758 24.9633ZM56.3435 28.4524H34.581C32.8963 22.1647 29.3267 8.88949 29.3267 8.88949C29.3267 8.88949 29.2647 8.88949 29.2639 8.88949V28.4524H20.368V1.4202H35.813C37.4391 7.65442 40.845 20.482 40.845 20.482H40.908V1.4202H49.8246V5.52728C47.6514 7.83449 46.3323 10.7842 46.3323 14.4851C46.3323 19.7973 49.3002 26.3879 56.3435 28.4524ZM162.086 1.4202V28.4524H152.763V7.28034H152.631L147.275 28.4524H138.669L133.335 7.28034H133.191V28.4524H116.89L115.264 22.6295H106.504L104.88 28.4524H89.302C89.302 28.4524 88.7748 24.4684 88.638 23.4729C88.1764 20.1238 87.1714 19.3123 85.1824 19.3123C83.9729 19.3123 82.4621 19.3123 82.4621 19.3123V28.4524H66.5054C71.1023 27.4019 75.2535 25.3022 77.633 23.857L74.2828 11.0798L65.3723 13.4417L67.2724 20.6882C66.7136 21.086 64.8589 21.7413 63.5882 21.7413C59.3345 21.7413 57.3106 17.454 57.3106 13.7605C57.3106 7.81579 63.3361 5.52767 68.648 5.52767C69.8831 5.52767 71.4786 5.63585 71.7014 5.66102L70.5897 1.4202C78.4435 1.4202 87.3558 1.4202 89.1602 1.4202C96.593 1.4202 99.4735 4.96316 99.4735 8.73121C99.4735 14.4399 94.0597 15.5136 93.0272 15.6956C93.0105 15.6982 93.0113 15.8549 93.0272 15.858C95.1905 16.2715 96.7813 17.3242 97.7936 19.1597C97.7593 19.0979 103.481 2.90657 104.001 1.4202H118.276L124.298 18.3741H124.379V1.4202H139.732C139.732 1.4202 143.287 16.2215 143.308 16.2224C144.469 11.2939 146.794 1.4202 146.794 1.4202H162.086ZM6 1.4202H16.3437C16.3437 1.4202 16.328 19.3838 16.328 28.4524C16.265 28.4524 6.06426 28.4572 6 28.4524L6 1.4202ZM110.802 7.22528L107.912 16.1382H113.872L110.954 7.22528H110.802ZM82.4621 13.2189C82.4621 13.2189 84.5173 13.2189 85.537 13.2189C88.0509 13.2189 89.0983 11.9145 89.0983 10.3141C89.0983 8.27176 87.3671 7.46932 85.537 7.46932C84.4504 7.46932 82.4621 7.47006 82.4621 7.47006V13.2189Z" fill="#3F71C0"/>
</svg>
