<svg width="180" height="31" viewBox="0 0 180 31" fill="none" xmlns="http://www.w3.org/2000/svg">
<path d="M40.3572 23.1669C40.3665 23.4161 40.3574 23.6656 40.3298 23.9134C40.2782 24.4803 40.1371 25.0354 39.9118 25.5582C39.445 26.6253 38.6637 27.5247 37.6723 28.136C36.6997 28.7226 35.6176 29.1045 34.4923 29.2582C33.9429 29.3389 33.3878 29.3738 32.8326 29.3628C32.2819 29.3549 31.7333 29.2915 31.1953 29.1736L31.7353 29.0965C32.6147 28.9688 33.4856 28.7876 34.343 28.5541C35.3411 28.2923 36.297 27.8902 37.1821 27.3597C37.608 27.0937 38.0021 26.7798 38.3566 26.4241C38.7156 26.0721 39.0238 25.6718 39.2723 25.2347C39.5312 24.7907 39.7375 24.3181 39.8869 23.8263C39.9789 23.5558 40.0545 23.2799 40.1133 23.0002C40.1556 22.8061 40.1954 22.6071 40.2352 22.408C40.2352 22.3632 40.1805 22.617 40.188 22.5698C40.188 22.6295 40.285 22.3881 40.2925 22.4453C40.3288 22.6843 40.3504 22.9253 40.3572 23.1669Z" fill="#373543"/>
<path d="M41.8621 10.6908L41.0932 10.3126L42.7255 6.9932C42.7255 6.9932 43.0689 6.24671 42.835 5.6346C42.7737 5.48588 42.682 5.35156 42.5659 5.24018C42.4498 5.1288 42.3118 5.0428 42.1607 4.98764C41.0036 4.48999 40.0556 5.85605 40.0158 5.91328L39.3066 5.43553C39.7769 4.73633 41.0484 3.58177 42.4991 4.1914C42.7568 4.29151 42.991 4.44374 43.1871 4.63855C43.3832 4.83337 43.5369 5.06657 43.6387 5.32356C43.9995 6.27408 43.5193 7.31418 43.4994 7.354L41.8621 10.6908Z" fill="#373543"/>
<path d="M44.8062 11.5069L44.0224 11.1585L44.1045 10.9694C44.1045 10.9495 44.525 10.0786 44.0373 9.52867C43.6392 9.07829 42.9997 9.05341 42.6762 9.07332L41.9148 10.5937L41.1484 10.2129L42.1089 8.29449L42.313 8.25467C42.3752 8.24223 43.8059 7.9735 44.6793 8.96135C45.5527 9.94919 44.9107 11.2804 44.8833 11.3352L44.8062 11.5069Z" fill="#373543"/>
<path d="M34.2577 8.42889L33.4839 8.06311L34.9768 4.88807C35.0444 4.74268 35.0772 4.58352 35.0724 4.42325C35.0676 4.26299 35.0256 4.10605 34.9495 3.96492C34.8786 3.83361 34.7785 3.7204 34.6568 3.63409C34.5351 3.54778 34.3951 3.49069 34.2478 3.46726H34.1831C33.4366 3.38515 33.1106 4.13909 33.1081 4.14656L33.0833 4.19633L31.5355 6.93343L30.7891 6.51291L32.3318 3.77829C32.4914 3.40172 32.7655 3.08491 33.1151 2.87278C33.4648 2.66065 33.8724 2.56394 34.2801 2.59636L34.3921 2.61129C34.6714 2.65612 34.9363 2.76565 35.1657 2.93113C35.3951 3.0966 35.5827 3.31343 35.7134 3.5643C35.8519 3.82246 35.9283 4.10937 35.9365 4.40224C35.9447 4.6951 35.8845 4.98585 35.7606 5.25136L34.2577 8.42889Z" fill="#373543"/>
<path d="M38.1062 9.85478L37.3349 9.47905L39.1886 5.6894C39.5171 4.9877 39.5942 4.27606 39.3902 3.76596C39.3066 3.57154 39.1826 3.39712 39.0264 3.25427C38.8703 3.11141 38.6855 3.00339 38.4844 2.93736C37.0811 2.39741 35.8295 5.09221 35.817 5.11958L35.0332 4.77122C35.0979 4.6269 36.6133 1.28764 38.793 2.13863C39.1044 2.24621 39.3895 2.41844 39.6297 2.64401C39.8698 2.86958 40.0596 3.14339 40.1864 3.44746C40.4825 4.19394 40.3979 5.137 39.96 6.06264L38.1062 9.85478Z" fill="#373543"/>
<path d="M18.1001 10.539C18.2643 10.7406 18.441 10.9546 18.6301 11.1736C18.5143 11.3273 18.4174 11.4943 18.3415 11.6712C18.1474 11.4473 17.9633 11.2333 17.794 11.0243L17.5726 10.7505C17.0221 10.0731 16.5159 9.36082 16.0572 8.61809L16 8.52105L16.846 5.81629L17.376 5.98301L17.167 6.64738L16.5947 8.46382C16.9986 9.10274 17.4372 9.7191 17.9085 10.3101L18.1001 10.539Z" fill="#00D600"/>
<path d="M22.2227 15.0726C22.2849 15.1846 22.3446 15.2965 22.3969 15.4135C21.9216 15.0651 21.4712 14.7068 21.0482 14.346C20.6775 14.03 20.3266 13.7115 19.9957 13.3955C19.5727 12.9924 19.182 12.5943 18.8262 12.2086C19.3322 12.4253 19.817 12.6885 20.2743 12.9949C20.4212 13.0919 20.5655 13.1989 20.7048 13.3084C20.884 13.4743 21.0681 13.6402 21.2572 13.8061C21.6357 14.1819 21.9605 14.6081 22.2227 15.0726Z" fill="#00D600"/>
<path d="M51.0855 16.9863L42.3765 24.9488L42.1923 24.7174C41.6526 24.1249 41.0407 23.6024 40.3709 23.1622C40.2963 23.11 40.2191 23.0552 40.1395 23.003L40.1047 22.9806C38.5323 21.9533 36.8507 21.1037 35.0908 20.4475C35.0686 20.4366 35.0452 20.4283 35.0211 20.4226L34.9515 20.3928C34.7548 20.1056 34.5422 19.8298 34.3145 19.5666L34.613 19.6736H34.6454C36.6107 20.3635 38.4888 21.2804 40.2415 22.4058C40.2594 22.4199 40.2786 22.4324 40.2988 22.4431C41.0665 22.9309 41.7775 23.5026 42.4188 24.1476L50.5156 16.74L50.4485 14.6921L50.4335 14.2218L50.9834 14.2044L51.0855 16.9863Z" fill="#00D600"/>
<path d="M50.9833 14.1943L50.7344 13.9903C49.3659 12.8382 47.114 11.9076 44.9268 11.2059L44.1181 10.9596C43.3891 10.7456 42.6799 10.554 42.0255 10.3897L41.172 10.1857C40.6246 10.0588 40.1394 9.95678 39.7487 9.87467C39.251 9.77016 38.7534 9.65819 38.2756 9.53377C37.992 9.46161 37.7108 9.38448 37.4371 9.30236C36.9593 9.16302 36.4957 9.01124 36.0461 8.84701C35.4614 8.63551 34.909 8.41156 34.3914 8.18015C34.1227 8.0632 33.8639 7.93132 33.6126 7.81935C32.9394 7.49092 32.2841 7.12712 31.6494 6.72949C31.4005 6.57272 31.1517 6.41845 30.9302 6.2592C28.0488 4.28102 26.9838 2.39491 26.9689 2.36753L26.8569 2.16101L16.8516 5.80633L16.9436 6.05516C17.0158 6.24925 17.0904 6.43836 17.1726 6.62498C17.6211 7.67231 18.2014 8.65816 18.8994 9.55866C18.9566 9.63579 19.0164 9.71293 19.0761 9.78758C19.2602 10.0165 19.4493 10.2404 19.6459 10.4569L19.8176 10.4171C19.9816 10.3856 20.1482 10.3697 20.3152 10.3698C20.0938 10.1359 19.8798 9.8896 19.6733 9.64077C19.5961 9.55119 19.524 9.45913 19.4543 9.36706C18.671 8.38628 18.0347 7.29657 17.5657 6.1323L26.6081 2.83782C27.1605 3.7112 29.6363 7.10522 35.8471 9.3596C37.0841 9.80012 38.3515 10.1502 39.6392 10.4072C41.9533 10.8824 47.4947 12.1813 50.1522 14.2167L42.4858 21.1839C41.7393 20.5942 38.7683 18.4742 34.0257 17.3893C31.4727 16.8081 28.9911 15.9486 26.6255 14.8263C26.2249 14.6347 25.8243 14.4282 25.4237 14.2117L25.2993 14.147C25.4511 14.4232 25.5929 14.7069 25.7223 14.9931H25.7472C26.1204 15.1855 26.4928 15.3671 26.8644 15.538C27.1854 15.6848 27.5064 15.8266 27.8249 15.961C28.2106 16.1227 28.5888 16.2745 28.9645 16.4164C30.1831 16.8775 31.4248 17.2753 32.6845 17.6082H32.7094C33.1448 17.7227 33.5429 17.8197 33.8963 17.8994C39.1764 19.1062 42.2743 21.7039 42.3042 21.7288L42.4883 21.8856L50.4508 14.6696L50.9858 14.1719L50.9833 14.1943Z" fill="#00D600"/>
<path d="M45.8909 15.5007L45.774 15.4633C45.7177 15.3938 45.6534 15.3312 45.5824 15.2767C45.267 15.0168 45.0243 14.6796 44.8778 14.2981C44.7313 13.9166 44.686 13.5037 44.7463 13.0995L44.7762 12.9029L44.5995 12.8133C43.0866 12.0345 40.8273 11.507 38.436 10.9496C35.9478 10.3674 33.3774 9.76519 31.8545 8.87937C30.0182 7.80692 29.3464 6.82405 29.1174 6.33386L29.0428 6.18207H28.8736C28.3344 6.17353 27.8144 5.9803 27.4005 5.63465L27.2487 5.50775C26.9053 5.23653 26.5595 4.94789 26.45 4.61943L26.3554 4.32582L21.2246 6.61752L21.5406 6.90118C22.0905 7.39884 22.3195 8.71763 21.9587 9.30237L21.8417 9.49148L21.8964 9.54622L22.0034 9.64575C23.0004 10.6024 24.0832 11.4653 25.2382 12.2236C28.1918 14.1694 31.8023 15.6027 36.1394 16.5681C39.2298 17.2549 40.0385 18.2253 40.1679 18.4244L40.3346 18.6732L40.5635 18.4916C41.31 17.9118 41.9818 17.9417 42.8477 18.5961L43.0319 18.7329L46.3562 15.6425L45.8909 15.5007ZM42.9921 17.989C42.5869 17.6856 42.0994 17.5121 41.5937 17.4913C41.1806 17.4982 40.7789 17.6272 40.4391 17.862C40.0211 17.4241 38.9212 16.603 36.2613 16.0083C30.3765 14.6994 25.8827 12.5247 22.531 9.36956C22.832 8.62307 22.6653 7.47847 22.1776 6.77677L26.0544 5.03498C26.2806 5.37231 26.5655 5.66642 26.8954 5.90339C26.9452 5.94486 26.9949 5.98467 27.0447 6.02282C27.5048 6.42571 28.0805 6.67302 28.6894 6.72949C29.0079 7.31175 29.7743 8.31204 31.5758 9.36209C33.1708 10.2927 35.781 10.9023 38.3091 11.4921C40.4764 11.9897 42.7159 12.5222 44.1765 13.2339C44.1364 13.7027 44.2111 14.1742 44.394 14.6077C44.577 15.0413 44.8627 15.4237 45.2265 15.7221C45.2707 15.7564 45.3108 15.7956 45.346 15.8391L42.9921 17.989Z" fill="#00D600"/>
<path d="M64.075 21.2808V23.8039H56.0254V11.9547H59.0486V21.2808H64.075Z" fill="#373543"/>
<path d="M74.0361 19.2305C74.0361 22.0423 72.0454 23.906 69.0595 23.906C66.0736 23.906 64.0605 22.0423 64.0605 19.2305C64.0605 16.4188 66.0512 14.57 69.0595 14.57C72.0678 14.57 74.0361 16.4163 74.0361 19.2305ZM67.0092 19.2629C67.0092 20.6862 67.8378 21.6367 69.0595 21.6367C70.2812 21.6367 71.0924 20.6862 71.0924 19.2629C71.0924 17.8396 70.2613 16.8916 69.0595 16.8916C67.8577 16.8916 67.0092 17.857 67.0092 19.2629Z" fill="#373543"/>
<path d="M83.2181 23.8039L81.424 18.0087L79.6275 23.8039H76.7137L73.377 14.672H76.3629L78.244 20.9922L80.0754 14.672H82.8697L84.7509 20.9922L86.5997 14.672H89.4637L86.1244 23.8039H83.2181Z" fill="#373543"/>
<path d="M98.1301 20.0266H91.7078C91.9965 21.109 92.7753 21.7211 93.8602 21.7211C94.2679 21.7177 94.671 21.6334 95.046 21.4733C95.4209 21.3131 95.7605 21.0802 96.0449 20.788L97.5876 22.2959C96.6545 23.3136 95.2835 23.9058 93.6064 23.9058C90.6205 23.9058 88.7617 22.0421 88.7617 19.2627C88.7617 16.4335 90.6926 14.5698 93.5218 14.5698C96.7391 14.5698 98.3316 16.6824 98.1301 20.0266ZM95.3158 18.449C95.3158 17.3318 94.6042 16.6027 93.5541 16.6027C92.5041 16.6027 91.8422 17.3492 91.6556 18.449H95.3158Z" fill="#373543"/>
<path d="M101.978 16.2123C102.276 15.692 102.709 15.2617 103.231 14.9666C103.753 14.6715 104.345 14.5224 104.944 14.5352V17.1802C103.25 17.0259 102.13 17.8222 101.978 19.1111V23.804H99.0469V14.672H101.978V16.2123Z" fill="#373543"/>
<path d="M115.601 23.804L115.583 16.3541L112.831 22.6544H110.933L108.181 16.3541V23.804H105.578V12.3256H108.771L111.883 19.1534L114.994 12.3256H118.171V23.804H115.601Z" fill="#00D600"/>
<path d="M125.132 24.7221C124.478 26.327 123.363 27.1133 121.726 27.1133C120.79 27.1223 119.881 26.8036 119.156 26.2126L120.335 24.2792C120.654 24.5754 121.07 24.7445 121.504 24.7544C121.738 24.7645 121.968 24.7022 122.165 24.5762C122.361 24.4501 122.514 24.2664 122.602 24.0503L122.816 23.6074L119.141 14.978H122.054L124.217 20.8404L126.133 14.978H128.949L125.132 24.7221Z" fill="#00D600"/>
<path d="M135.4 12.3429C137.971 12.3429 139.608 13.4552 139.608 15.2069C139.614 15.7879 139.423 16.3536 139.066 16.8119C138.709 17.2702 138.207 17.5939 137.642 17.7301C138.321 17.8429 138.936 18.1997 139.37 18.7335C139.804 19.2673 140.029 19.9413 140.001 20.6289C140.001 22.5772 138.299 23.8039 135.597 23.8039H129.979V12.3429H135.4ZM132.877 16.9313H135.236C136.087 16.9313 136.627 16.4735 136.627 15.7369C136.627 15.0004 136.087 14.5749 135.236 14.5749H132.877V16.9313ZM132.877 21.567H135.236C136.316 21.567 136.978 21.0917 136.978 20.2731C136.978 19.5017 136.306 19.0289 135.236 19.0289H132.877V21.567Z" fill="#373543"/>
<path d="M144.588 12.4523C144.588 12.8482 144.43 13.228 144.15 13.508C143.87 13.7879 143.49 13.9452 143.095 13.9452C142.699 13.9452 142.319 13.7879 142.039 13.508C141.759 13.228 141.602 12.8482 141.602 12.4523C141.602 12.0563 141.759 11.6766 142.039 11.3966C142.319 11.1166 142.699 10.9593 143.095 10.9593C143.49 10.9593 143.87 11.1166 144.15 11.3966C144.43 11.6766 144.588 12.0563 144.588 12.4523ZM141.674 23.8038V14.9779H144.49V23.8038H141.674Z" fill="#373543"/>
<path d="M146.846 23.804V11.6538H149.68V23.804H146.846Z" fill="#373543"/>
<path d="M152.107 23.8039V11.6537H154.942V23.8039H152.107Z" fill="#373543"/>
<path d="M164.076 15.8464L163.111 17.6778C162.046 17.1055 161.063 16.7944 160.326 16.7944C159.829 16.7944 159.458 16.991 159.458 17.3991C159.458 18.6109 164.108 18.0212 164.093 21.0992C164.093 22.9181 162.503 23.9159 160.376 23.9159C158.954 23.9438 157.563 23.507 156.412 22.6718L157.313 20.8702C158.223 21.5399 159.312 21.9221 160.441 21.9676C160.998 21.9676 161.406 21.771 161.406 21.3629C161.406 20.069 156.838 20.7409 156.855 17.6454C156.855 15.8265 158.393 14.8436 160.441 14.8436C161.72 14.8497 162.975 15.1958 164.076 15.8464Z" fill="#373543"/>
<path d="M35.3745 21.062C35.3496 21.0172 35.3223 20.9724 35.2949 20.9276C35.2219 20.8082 35.1473 20.6887 35.0709 20.5693L34.9515 20.3926C34.7549 20.1055 34.5422 19.8297 34.3145 19.5665C34.1459 19.3685 33.9673 19.1791 33.7795 18.9992C33.4671 18.7066 33.1345 18.4364 32.7842 18.1905C32.4294 17.9515 32.0567 17.7402 31.6695 17.5585C30.8949 17.207 30.0749 16.9658 29.2334 16.8418C28.8137 16.7826 28.3907 16.7494 27.9669 16.7423C27.7554 16.7423 27.5439 16.7423 27.3349 16.7423C27.1308 16.7505 26.9273 16.7696 26.7253 16.7995L26.3645 16.8518L26.2674 16.486C26.1258 15.9756 25.9461 15.4766 25.7299 14.9931C25.6006 14.7069 25.4587 14.4232 25.3069 14.147C25.185 13.9181 25.0581 13.6917 24.9138 13.4752C24.3485 12.5478 23.5949 11.7493 22.7017 11.1312C22.4847 10.986 22.2558 10.8595 22.0174 10.753C21.4832 10.5064 20.9014 10.3798 20.313 10.3823C20.146 10.3822 19.9793 10.398 19.8153 10.4296L19.6436 10.4694C19.2649 10.5762 18.9295 10.8 18.6856 11.1089C18.6663 11.1297 18.6488 11.1521 18.6334 11.176C18.5176 11.3297 18.4206 11.4968 18.3447 11.6737C18.3408 11.6849 18.3358 11.6958 18.3298 11.706C18.295 11.7931 18.2651 11.8802 18.2377 11.9698C18.4343 12.042 18.6309 12.1191 18.8225 12.2037C19.3285 12.4204 19.8133 12.6836 20.2707 12.99C20.4175 13.087 20.5618 13.194 20.7011 13.3035C20.8946 13.4587 21.079 13.6249 21.2535 13.8012C21.6332 14.1784 21.959 14.6063 22.2215 15.0727C22.2837 15.1847 22.3434 15.2966 22.3957 15.4136C22.547 15.7332 22.6678 16.0665 22.7565 16.4089C22.8712 16.8692 22.9363 17.3405 22.9505 17.8148C22.9518 18.2678 22.9277 18.7205 22.8784 19.1709C22.8523 19.5918 22.8523 20.014 22.8784 20.4349C22.922 21.2691 23.1054 22.09 23.4208 22.8635C23.7538 23.6273 24.2528 24.3073 24.8814 24.8541C25.5243 25.4131 26.265 25.8483 27.0662 26.1381H27.0811C27.8476 26.416 28.6474 26.5917 29.4599 26.6606C29.5171 26.6606 29.5768 26.6606 29.6341 26.6755H29.4649C28.6331 26.7062 27.8013 26.614 26.9965 26.4018C26.1174 26.1796 25.29 25.7883 24.5605 25.2497C23.8195 24.6962 23.2173 23.9781 22.8012 23.1521C22.3917 22.3222 22.1386 21.4238 22.0548 20.5021C22.0072 20.0484 21.9881 19.5921 21.9975 19.136C22.021 18.71 22.021 18.2831 21.9975 17.8571C21.9778 17.4536 21.9119 17.0536 21.801 16.6652C21.6921 16.2835 21.5348 15.9172 21.3332 15.5753C21.1288 15.2353 20.8831 14.9218 20.6016 14.6422C20.3142 14.3642 20.0009 14.1142 19.666 13.8957C18.9694 13.4543 18.216 13.1094 17.4266 12.8706L16.9961 12.7237L17.0459 12.2808C17.0561 12.1897 17.0711 12.0992 17.0906 12.0096C17.1081 11.9275 17.1255 11.8454 17.1479 11.7608C17.1921 11.5992 17.2461 11.4405 17.3096 11.2855C17.3841 11.1008 17.474 10.9227 17.5784 10.753C17.6521 10.6298 17.7353 10.5125 17.8272 10.4022L17.9168 10.2927C18.1927 9.98147 18.5321 9.73289 18.9121 9.56363C19.0884 9.48136 19.2727 9.41717 19.462 9.37203C19.5117 9.35959 19.5665 9.34715 19.6163 9.33969C19.9442 9.27826 20.2787 9.25903 20.6116 9.28246C20.9346 9.30022 21.2549 9.35192 21.5671 9.43673C21.684 9.46659 21.7985 9.50142 21.908 9.54124C22.1005 9.60571 22.2891 9.68132 22.4728 9.76767C22.7602 9.90168 23.0357 10.0598 23.2964 10.2404C24.0583 10.7828 24.7215 11.4519 25.2572 12.2186C25.4231 12.4592 25.5889 12.708 25.7548 12.9651C26.1092 13.5576 26.4082 14.1815 26.6481 14.8288C26.7377 15.0777 26.8173 15.3066 26.897 15.5504C26.9393 15.6873 26.9791 15.8266 27.0139 15.966C27.1209 15.966 27.2304 15.966 27.3399 15.966C27.514 15.966 27.6857 15.966 27.8574 15.9809H28.0266C28.4808 16.0147 28.9321 16.0787 29.3778 16.1725C30.2702 16.3552 31.1301 16.6715 31.9283 17.1106C32.1257 17.2217 32.3173 17.3412 32.503 17.4689C32.5727 17.5162 32.6424 17.561 32.7071 17.6132C32.8191 17.6928 32.931 17.7749 33.0405 17.862C33.3882 18.146 33.712 18.4581 34.0085 18.7951C34.0682 18.8648 34.1279 18.937 34.1851 19.0091C34.3554 19.2193 34.514 19.4386 34.6604 19.666C34.8231 19.9121 34.9718 20.1671 35.1058 20.4299C35.1879 20.5917 35.265 20.7559 35.3347 20.9276C35.3397 20.9799 35.3571 21.0222 35.3745 21.062Z" fill="#373543"/>
</svg>
