<svg width="90" height="31" viewBox="0 0 90 31" fill="none" xmlns="http://www.w3.org/2000/svg">
<path d="M77.5545 20.8184C77.5545 16.0702 73.9792 14.1852 70.5805 12.8896C67.4465 11.6724 64.4459 11.0063 64.4459 8.61216C64.4459 6.96434 66.3443 5.94244 68.0211 5.94244C70.6687 5.94244 72.3024 6.33478 74.5108 7.395L77.2035 3.39133C74.2029 1.82198 71.5984 1.27271 68.1114 1.27271C63.6085 1.27271 58.576 3.98075 58.576 8.41508C58.576 13.8312 62.7691 15.2837 66.4777 16.6578C69.1705 17.6396 71.465 18.5812 71.465 20.9754C71.465 23.094 69.1253 24.0758 67.0503 24.0758C64.6675 24.0758 62.5926 23.1725 60.7823 21.8385L57.164 25.5666C60.1646 28.0393 63.2103 28.7455 67.272 28.7455C72.3045 28.7455 77.5565 25.7236 77.5565 20.8166L77.5545 20.8184ZM53.6298 28.1962L50.7174 1.50811H43.4786L35.9751 20.1907L28.7794 1.50811H21.3641L18.3184 28.1962L24.1903 28.7455L25.8671 8.5337L32.4881 25.8805H38.713L45.9087 8.69063L47.6306 28.7455L53.6339 28.1962H53.6298Z" fill="#F58025"/>
<path d="M10.4481 18.9809C10.4481 18.9809 10.4481 19.0067 10.4481 19.0104C10.4686 18.9828 10.52 19.0067 10.5343 18.9938C10.52 18.9606 10.4665 18.9477 10.4481 18.9828V18.9809ZM86.5111 6.64359C86.5871 6.61408 86.6857 6.60671 86.7555 6.62331C86.8172 6.63806 86.9117 6.71922 86.8316 6.8059C86.8706 6.97928 86.9055 7.19876 87 7.33894C86.9363 7.41456 86.7802 7.42194 86.7761 7.46621C86.7555 7.63958 86.6919 7.8148 86.5542 7.90887C86.5111 7.93838 86.4289 7.96235 86.4289 7.99371C86.4248 8.14311 86.3591 8.27406 86.2892 8.36628C86.2502 8.41977 86.1845 8.35337 86.1126 8.35337C86.0181 8.49724 85.8599 8.62635 85.6524 8.65586C85.6401 8.74439 85.6401 8.83108 85.6072 8.85321L84.7281 9.39731C84.7137 9.40653 84.6705 9.3844 84.6582 9.41391C84.6377 9.4674 84.5925 9.50613 84.5308 9.52458C84.1775 9.62418 83.8571 9.74222 83.6065 9.9783C83.4442 9.89899 83.2613 10.0115 83.212 10.124C82.982 10.124 82.8361 10.2089 82.7724 10.3121C82.6328 10.3195 82.5568 10.3619 82.4684 10.4081C82.3883 10.5169 82.2281 10.5593 82.1172 10.5851C82.0186 10.6958 81.9343 10.7732 81.8501 10.8194C81.5646 10.8692 81.3592 10.9817 81.1496 11.0831C80.975 11.1661 80.7491 11.2178 80.6484 11.3598C80.6114 11.4133 80.4841 11.3985 80.4122 11.4354C80.3423 11.4723 80.293 11.5442 80.2766 11.6051C80.2088 11.6051 80.1472 11.5682 80.1102 11.5774C79.9602 11.6161 79.8555 11.6955 79.7939 11.7766C79.5802 11.7711 79.4775 11.8965 79.4036 11.9869C79.1406 11.9611 79.0667 12.1031 78.9722 12.1769C78.8099 12.2101 78.6928 12.1861 78.547 12.2543C78.4709 12.3336 78.358 12.4443 78.1402 12.4554C78.017 12.5457 77.8218 12.638 77.5835 12.5955C77.3617 12.7228 77.0761 12.8169 76.8481 12.9792C76.6406 12.9755 76.4126 13.029 76.3284 13.1378C76.1764 13.1286 76.0655 13.1728 75.9463 13.2153C75.8888 13.3075 75.7101 13.3536 75.5848 13.2927C75.4492 13.3499 75.3116 13.3499 75.1781 13.361C75.1329 13.455 75.0219 13.4975 74.8987 13.5159L74.6193 13.5805C74.5823 13.5897 74.5392 13.6339 74.5228 13.6764C74.4673 13.6764 74.4057 13.6376 74.3523 13.6469C74.1592 13.6819 74.0359 13.7501 73.8962 13.8239C73.7853 13.8811 73.6025 13.8571 73.4628 13.8848C73.3621 13.9051 73.3108 13.9825 73.2512 14.0139C73.1218 14.0416 73.0109 14.0563 72.8732 14.0434C72.8034 14.1006 72.7151 14.143 72.6124 14.1799C72.4973 14.1817 72.3905 14.202 72.294 14.2315C72.257 14.3145 72.1419 14.3496 72.0577 14.3404C71.8461 14.3772 71.7475 14.4547 71.6346 14.5266C71.271 14.5082 71.0573 14.6613 70.8889 14.772C70.6177 14.7627 70.4144 14.831 70.2952 14.9213C70.1083 14.9195 69.9707 14.9841 69.909 15.0523C69.4961 15.1298 69.1716 15.2644 68.8429 15.3825L68.3314 15.4894C68.2718 15.589 68.1383 15.6886 67.974 15.6388C67.9103 15.6204 67.8548 15.6813 67.7973 15.6905C67.5713 15.7255 67.3639 15.8196 67.103 15.8288C67.0044 15.8325 66.9633 15.9598 66.9058 15.9487C66.7866 15.9284 66.686 15.9376 66.61 16.0003C66.4436 16.0667 66.2567 16.1036 66.0903 16.1792C66.08 16.1848 65.9917 16.1737 65.9834 16.1792C65.8725 16.277 65.6589 16.3028 65.4802 16.2715C65.4083 16.3748 65.2912 16.4596 65.1494 16.443C64.8906 16.4743 64.7119 16.6071 64.4551 16.6348C64.3195 16.6496 64.1942 16.6643 64.0628 16.6367C64.0381 16.6311 63.921 16.7529 63.8779 16.7695C63.7978 16.8027 63.7053 16.8285 63.6088 16.8156C63.4588 16.9373 63.2349 16.9373 63.0213 16.9705C62.9925 16.9742 62.8939 16.9797 62.8837 16.9908C62.7768 17.1107 62.5303 17.1291 62.3927 17.1402C62.2818 17.1476 62.2017 17.2545 62.1626 17.2416C62.0106 17.1955 61.8648 17.2527 61.76 17.2988C61.6922 17.3283 61.5731 17.2582 61.5156 17.3265C61.4601 17.3947 61.3594 17.3431 61.2896 17.356C61.0677 17.3966 60.8315 17.3523 60.6055 17.38C60.4597 17.463 60.2276 17.5146 60.0509 17.4464L59.5004 17.6345C59.1779 17.546 58.9211 17.6788 58.7629 17.747C58.6684 17.7876 58.6089 17.782 58.5513 17.782C58.5144 17.8503 58.463 17.9444 58.387 17.9462C58.1857 17.9517 58.0111 18.0052 57.8509 18.0808C57.6495 18.0679 57.5242 18.138 57.3804 18.1583C57.1339 18.1067 56.9408 18.1509 56.7971 18.1989C56.6122 18.1989 56.5218 18.2727 56.4417 18.3723C56.1952 18.3649 55.9692 18.3575 55.7597 18.3704C55.5933 18.4921 55.3139 18.4995 55.0797 18.4682C54.8784 18.4423 54.7161 18.4866 54.6299 18.5715C54.408 18.6342 54.2149 18.5844 54.0259 18.5881C53.8924 18.6581 53.7548 18.66 53.6582 18.7338C53.5329 18.6747 53.3665 18.7043 53.2412 18.7264C53.1693 18.7393 53.0831 18.7098 52.9906 18.7559C52.8797 18.8131 52.6763 18.8186 52.4462 18.8223C52.3661 18.9145 52.1094 18.9293 51.9573 18.8592C51.867 18.9606 51.7314 18.9735 51.602 18.9293C51.4027 19.0639 51.0966 19.0658 50.8193 19.0399C50.77 19.158 50.5934 19.2041 50.4763 19.1543C50.3427 19.1912 50.2277 19.182 50.1312 19.1192C50.0716 19.1451 49.9668 19.1395 49.9114 19.1635C49.8271 19.1986 49.7532 19.2502 49.6382 19.2465C49.5026 19.1635 49.2848 19.2022 49.1903 19.2963C49.0383 19.2465 48.9089 19.3092 48.8432 19.3978C48.6706 19.383 48.5248 19.4125 48.3789 19.407C48.3194 19.4752 48.229 19.4974 48.1283 19.4697C48.0112 19.4383 47.9024 19.431 47.7996 19.4881C47.6476 19.4771 47.549 19.573 47.4956 19.6246C47.1608 19.6449 46.8855 19.6652 46.6287 19.6172C46.5363 19.7113 46.4089 19.7703 46.2158 19.7464C46.0412 19.7703 45.9077 19.8662 45.768 19.8681C45.5585 19.8183 45.3777 19.8127 45.2627 19.8681C45.1312 19.8773 45.0326 19.881 44.9546 19.8441C44.9012 19.8865 44.8375 19.9455 44.782 19.9511C44.593 19.9677 44.4205 20.0027 44.1904 19.9806C44.0589 20.1189 43.759 20.1134 43.5166 20.0636C43.3852 20.0359 43.2804 20.1521 43.2064 20.1982C42.9373 20.1226 42.6005 20.1374 42.3519 20.2204C42.2081 20.2683 42.0355 20.2241 41.9082 20.2794C41.6329 20.3993 41.2344 20.4122 40.8688 20.3661C40.8379 20.3624 40.7907 20.3255 40.7517 20.3421C40.7003 20.3642 40.6428 20.4417 40.5894 20.4288C40.4107 20.3882 40.2032 20.3882 40.0512 20.4362C39.8971 20.3845 39.7554 20.4399 39.5952 20.4122C39.5602 20.4067 39.5274 20.5063 39.4698 20.5026C39.3384 20.4933 39.2336 20.4878 39.133 20.4583C39.057 20.4731 38.9707 20.5081 38.8782 20.486C38.7427 20.4528 38.5927 20.4749 38.4325 20.4509C38.3893 20.5007 38.3236 20.5339 38.2599 20.5561C38.2291 20.569 38.0833 20.5118 38.0791 20.5136C37.8676 20.5671 37.6868 20.5302 37.504 20.5136C37.4177 20.5856 37.3027 20.6225 37.1486 20.5634C36.974 20.6114 36.748 20.6815 36.5508 20.5911C36.4276 20.5339 36.3146 20.6188 36.2612 20.6667C36.0126 20.6446 35.8113 20.6999 35.5833 20.7184C35.4991 20.7737 35.4416 20.8475 35.3532 20.9249C35.2505 20.8475 35.0739 20.9046 35.0287 20.9821C34.9568 20.9766 34.8006 20.9526 34.7493 20.9637C34.6794 20.9784 34.6014 21.0633 34.5254 21.0448C34.3775 21.0079 34.2481 20.9378 34.0385 20.9674C34.0139 20.971 33.9276 21.043 33.903 21.0411C33.6297 21.0116 33.3052 21.0356 33.0443 20.9766C32.9868 21.0374 32.9231 21.1075 32.8163 21.1112C32.7382 21.1149 32.6458 21.0762 32.5862 21.0854C32.426 21.1094 32.2904 21.0854 32.1548 21.0817C32.0028 21.0743 31.8631 21.1057 31.7912 21.2016C31.668 21.1241 31.5447 21.1204 31.4174 21.067C31.1996 21.1038 30.9942 21.0836 30.7662 21.0836C30.5977 21.1795 30.3779 21.1666 30.154 21.1739C29.9856 21.1795 29.8603 21.1536 29.6959 21.1334C29.583 21.1776 29.4741 21.2588 29.2769 21.2145C29.1619 21.2551 28.9975 21.327 28.8455 21.2569C28.8044 21.2901 28.7592 21.3307 28.6997 21.3399C28.4901 21.3713 28.3094 21.2883 28.1799 21.233C28.108 21.2016 28.0649 21.2938 28.0053 21.2643C27.9478 21.2348 27.7958 21.2643 27.6972 21.2422C27.6561 21.233 27.5657 21.2662 27.5021 21.2348C27.424 21.3362 27.2104 21.3639 27.0748 21.2883C26.8468 21.3307 26.6229 21.3399 26.3989 21.2809C26.2264 21.2348 26.0004 21.2071 25.8977 21.303C25.6759 21.3215 25.4869 21.3178 25.3184 21.2772C25.1972 21.2477 25.0925 21.2809 25.0514 21.351C25.0226 21.4026 24.8891 21.3879 24.8172 21.3584C24.7474 21.327 24.6364 21.3916 24.5871 21.3731C24.4803 21.3289 24.353 21.3326 24.2338 21.3584C24.1578 21.375 24.0633 21.3547 23.9894 21.386C23.8271 21.4543 23.6258 21.4524 23.4224 21.4266C23.2396 21.4045 23.1184 21.4801 22.952 21.4045C22.8822 21.4783 22.761 21.5281 22.6254 21.469C22.3049 21.4709 22.044 21.4377 21.7359 21.399C21.6681 21.5041 21.4545 21.517 21.3744 21.469C21.2901 21.4192 21.2265 21.4967 21.1936 21.493L20.4582 21.41C20.3452 21.493 20.1049 21.493 19.9631 21.4414C19.6468 21.4248 19.3078 21.386 19.0593 21.327C18.8354 21.3473 18.6258 21.2828 18.4471 21.233C18.4019 21.303 18.3116 21.351 18.2047 21.3215C17.8144 21.2145 17.4077 21.1131 16.8921 21.0854C16.775 21.126 16.5737 21.1075 16.4176 21.0467C16.3539 21.1684 16.2122 21.1684 16.0848 21.1186C15.9821 21.078 15.8383 21.0374 15.6904 21.0928C15.1748 20.9803 14.653 20.8678 14.2442 20.6409C14.1888 20.6114 14.1847 20.5192 14.1395 20.5081C13.6362 20.3919 13.1884 20.2351 12.7755 20.0193C12.7508 19.9529 12.7447 19.8293 12.6419 19.8164C12.5557 19.8054 12.4756 19.8957 12.4139 19.8884C12.2989 19.8736 12.2249 19.8054 12.2291 19.7224C12.1387 19.6043 11.9374 19.5545 11.8018 19.6228C11.6005 19.6228 11.4813 19.5342 11.3745 19.4734C11.3026 19.4328 11.1588 19.4881 11.1075 19.4346C11.0047 19.3258 10.8445 19.3314 10.6555 19.3092C10.5241 19.2926 10.4029 19.3037 10.331 19.2225C10.2919 19.1801 10.3084 19.1119 10.3228 19.0584C10.2776 19.0307 10.2159 19.0307 10.1872 19.003C10.1461 18.9606 10.1666 18.8979 10.142 18.8684C10.0311 18.7375 9.81126 18.7375 9.6387 18.6858C9.50518 18.6452 9.35728 18.5917 9.27922 18.4903C9.26689 18.4737 9.29976 18.4036 9.33879 18.3667C9.42918 18.2763 9.60995 18.2745 9.75785 18.2118C9.93451 18.2431 10.0865 18.1601 10.1071 18.0089C10.1091 17.9942 10.1707 17.996 10.1276 17.9683C10.0434 17.913 9.91808 17.9038 9.81126 17.996C9.61611 18.0347 9.46821 17.9185 9.28127 17.878C9.13337 17.8466 8.93206 17.8042 8.7821 17.8558C8.72664 17.8023 8.6835 17.8079 8.69788 17.7378C8.72253 17.6253 8.85605 17.5533 8.93206 17.4925C8.9033 17.4242 8.94233 17.3652 8.93206 17.3209C8.92179 17.2785 8.87043 17.2527 8.84373 17.2527C8.69172 17.2582 8.56641 17.2029 8.39591 17.2084C8.35894 17.2084 8.24595 17.2877 8.20282 17.2914C8.07751 17.3025 7.99123 17.2435 7.96042 17.2287C7.75911 17.2287 7.61942 17.2047 7.46125 17.2103C7.30718 17.1715 7.15928 17.0849 7.15723 16.9059C7.19831 16.8211 7.32156 16.7547 7.46536 16.7658C7.57012 16.7381 7.69748 16.7344 7.79403 16.7584C7.91934 16.7344 8.02205 16.668 8.04259 16.5887C8.04875 16.5573 8.11449 16.6164 8.13914 16.6293C8.23157 16.6754 8.34045 16.6459 8.38769 16.5795C8.4144 16.5407 8.44932 16.5094 8.48835 16.4799C8.63625 16.3618 8.88892 16.4246 9.06558 16.4799C9.14159 16.502 9.19705 16.4153 9.22581 16.3969C9.55448 16.1995 10.0044 16.0483 10.444 16.1774C10.4953 16.0944 10.6227 16.052 10.7439 16.087C10.7993 16.1036 10.861 16.1479 10.8445 16.2014C10.824 16.2752 10.9308 16.2493 10.9472 16.2364C11.1013 16.1184 11.3232 16.0464 11.506 15.9948C11.5984 15.969 11.6087 16.076 11.619 16.1258C11.6251 16.159 11.6354 16.2088 11.6744 16.2069C11.8408 16.2014 11.925 16.0944 11.9764 16.0317C12.038 15.9579 12.1243 15.9671 12.1839 15.9671C12.3544 15.9634 12.4735 16.0022 12.6009 16.0501C12.6728 15.9505 12.87 15.9118 13.0014 16.0243C13.0199 16.0649 13.0815 16.1719 13.1986 16.159C13.2541 16.1516 13.3034 16.087 13.3465 16.0464C13.3815 16.0132 13.4616 16.0225 13.517 16.0096C13.5396 16.0354 13.5725 16.0483 13.6054 16.0501C13.7327 16.0594 13.856 16.0446 13.969 16.0667C14.0778 16.087 14.1888 16.1313 14.3141 16.1331C14.4147 16.0557 14.5955 16.028 14.7003 16.0723C15.0351 16.0206 15.3391 16.0962 15.6411 16.1165C15.7684 16.0428 15.9636 16.0723 16.1403 16.0815C16.434 16.0981 16.7421 16.159 17.0421 16.1626L17.3296 16.253C17.4488 16.1497 17.7549 16.135 17.9664 16.1756C18.3074 16.1313 18.6402 16.2567 18.897 16.3397C19.0346 16.3176 19.0572 16.194 19.1456 16.1534C19.2955 16.2143 19.4742 16.1774 19.5728 16.1571C19.7454 16.1792 19.8584 16.2217 19.922 16.2512C19.9981 16.2862 20.0884 16.277 20.1192 16.2438C20.1891 16.1737 20.3082 16.1903 20.4356 16.1848C20.6287 16.1774 20.7848 16.1626 20.9512 16.17C21.0046 16.1737 21.0416 16.1092 21.1012 16.1055C21.2224 16.1018 21.3394 16.1128 21.3846 16.1922C21.5716 16.1719 21.7462 16.2161 21.9475 16.2235C22.0379 16.1645 22.1693 16.1885 22.2289 16.2383C22.27 16.2715 22.3563 16.242 22.4076 16.2217C22.4754 16.194 22.535 16.1239 22.5679 16.1258C22.9356 16.1497 23.3033 16.1479 23.5909 16.0649C23.7038 16.1073 23.8168 16.0999 23.8887 16.0612C24.0798 16.0741 24.201 16.1497 24.3489 16.1682C24.5276 16.1903 24.6631 16.0981 24.7474 15.9911C24.8953 16.0815 25.1212 16.1534 25.3102 16.0889C25.717 16.0464 25.9799 16.146 26.2777 16.2069C26.3332 16.218 26.3928 16.1553 26.4298 16.1479C26.6064 16.1147 26.7831 16.1184 26.9392 16.1294C27.0275 15.9616 27.3049 15.9192 27.4918 15.9893L28.6483 15.9671C28.714 16.0132 28.8229 16.0188 28.9441 16.0003C29.0941 15.9782 29.207 16.0151 29.357 16.0169C29.4022 15.9524 29.4905 15.91 29.5994 15.9173C29.7596 15.9284 29.9363 15.897 30.0821 15.9524C30.1787 15.9893 30.2937 16.0022 30.3985 15.9764C30.5074 16.028 30.6368 16.0022 30.7128 15.9173C30.8771 15.9155 31.0558 15.9671 31.1791 16.0059C31.4194 15.9524 31.668 15.9358 31.8693 15.9966C31.896 16.0059 31.9658 15.9321 31.9946 15.9321C32.2678 15.9432 32.5184 15.9966 32.804 16.0243C32.8759 16.0667 32.9847 16.0594 33.1018 16.028C33.2436 15.9911 33.3606 16.0464 33.4592 16.0907C33.6113 16.0852 33.7407 16.052 33.8495 16.0225L34.1762 16.0889C34.3651 16.1313 34.5973 16.1147 34.8089 16.1202C34.965 16.1258 35.0697 16.2254 35.1355 16.3286C35.2464 16.3213 35.345 16.2973 35.4621 16.312C35.4867 16.2733 35.4251 16.1792 35.4518 16.1663C35.649 16.0833 35.8565 16.0114 36.0742 16.0796C36.2057 16.1202 36.3043 16.0391 36.405 16.0428C36.7686 16.0575 37.1856 16.0317 37.4752 16.1387C37.5163 16.1534 37.5985 16.0852 37.6395 16.0852C37.771 16.0815 37.884 16.0741 37.9888 16.1073C38.0524 16.1276 38.1346 16.052 38.2127 16.0778C38.2948 16.1055 38.3976 16.0612 38.4715 16.0741L38.8207 16.135C38.8967 16.1497 38.983 16.0815 39.0611 16.087C39.1268 16.0907 39.2254 16.0667 39.2542 16.1553C39.2644 16.1903 39.1864 16.2622 39.25 16.2862C39.3199 16.312 39.3856 16.2641 39.4514 16.2383C39.4555 16.1903 39.4267 16.0796 39.4966 16.0907C39.6527 16.1184 39.8026 16.1626 39.969 16.1995C40.2771 16.0944 40.6654 16.0649 41.0372 16.0686C41.1112 16.0686 41.1769 15.9616 41.2508 15.9782C41.3823 16.0077 41.5364 16.0262 41.674 15.9893C41.8301 16.0538 41.9636 16.1258 42.0602 16.242C42.13 16.218 42.206 16.1663 42.3108 16.1756C42.3334 16.0981 42.3601 15.9874 42.4669 15.9819C42.7052 15.9653 42.9866 15.9911 43.2331 16.028C43.2701 15.9284 43.3913 15.827 43.5228 15.8768C43.7446 15.814 43.946 15.8528 44.1781 15.8934C44.2746 15.8159 44.4821 15.7569 44.6793 15.7956C44.743 15.8067 44.8354 15.7587 44.9053 15.7679C44.9936 15.779 45.0901 15.7679 45.1785 15.7624C45.3058 15.6702 45.5688 15.6425 45.7639 15.7144C45.8625 15.6517 46.0269 15.6849 46.146 15.7108C46.2384 15.6259 46.3905 15.6351 46.5281 15.6314C46.6431 15.6296 46.752 15.6886 46.867 15.6573C46.941 15.637 47.0067 15.5872 47.0807 15.5761C47.2512 15.554 47.4299 15.5761 47.5326 15.5743C47.6661 15.5245 47.7668 15.4894 47.8777 15.4894C47.8859 15.4894 47.9249 15.4396 47.9434 15.4396C48.1776 15.4396 48.3892 15.4507 48.6172 15.4323C48.7097 15.4249 48.7548 15.3308 48.8062 15.3345C48.9705 15.3456 49.1184 15.2829 49.2828 15.3124C49.3711 15.2792 49.482 15.2884 49.5313 15.2183C49.558 15.1796 49.6094 15.1703 49.6546 15.1777C50.0346 15.2423 50.4496 15.1925 50.7248 15.0634C50.8296 15.0892 50.9241 15.0855 51.0083 15.0449C51.0925 15.0523 51.1911 15.0892 51.2671 15.0781C51.337 15.0671 51.3781 15.0173 51.4007 15.0209C51.5855 15.0449 51.6944 14.9841 51.83 14.9711C51.8444 15.0191 51.9101 15.0191 51.9183 14.9877C52.0108 14.9711 52.0272 14.866 52.1155 14.8808C52.3374 14.9177 52.4668 14.8365 52.6229 14.8088C52.6928 14.7959 52.7503 14.8162 52.7852 14.7885C52.931 14.6797 53.2412 14.7019 53.348 14.7683C53.5925 14.7406 53.7548 14.6631 53.915 14.6023L54.2252 14.6207L54.558 14.5322C54.8168 14.5156 55.051 14.5525 55.2872 14.5008C55.3488 14.4123 55.4824 14.3533 55.6631 14.3367C55.9836 14.3072 56.2671 14.2481 56.5814 14.2186C56.8422 14.1043 57.2058 14.108 57.5181 14.1209C57.5982 14.1246 57.6721 14.036 57.7153 14.0397C57.9104 14.0637 58.0953 14.0065 58.2206 13.977C58.3131 13.9549 58.3952 14.0084 58.4651 13.9899C58.4856 13.9844 58.5411 13.9069 58.5637 13.9106C58.7547 13.942 58.9827 13.9715 59.1717 13.8959C59.2436 13.8663 59.3196 13.8331 59.3504 13.7833C59.7181 13.7944 59.9975 13.7686 60.2707 13.6874C60.5069 13.704 60.7124 13.6874 60.8931 13.6616C60.9445 13.6063 61.041 13.5731 61.152 13.5731C61.343 13.5768 61.5073 13.6081 61.6819 13.5952C61.8114 13.5841 61.8894 13.5048 61.9716 13.4532C62.1832 13.4679 62.3804 13.4864 62.5837 13.455C62.6392 13.4071 62.7111 13.3222 62.8241 13.3315C63.1425 13.3554 63.3746 13.2706 63.5533 13.2005C63.7341 13.195 63.9108 13.2595 64.0176 13.1894C64.0628 13.1599 64.1264 13.1489 64.1531 13.0825C64.2887 13.1341 64.4387 13.1101 64.5373 13.0622C64.6195 13.0216 64.7571 13.0769 64.792 13.0511C64.9337 12.9497 65.1638 12.9238 65.3569 12.9202C65.4268 12.9202 65.4761 12.7929 65.5295 12.8095C65.6692 12.8574 65.8684 12.8501 66.041 12.7874C66.0964 12.7007 66.2567 12.6453 66.4128 12.6988C66.6059 12.7062 66.7189 12.5955 66.8565 12.5568C67.0003 12.5162 67.1749 12.4627 67.3331 12.4959C67.4994 12.4498 67.6494 12.3871 67.7932 12.3318C67.9575 12.3521 68.052 12.258 68.1013 12.1418C68.1979 12.1566 68.315 12.2285 68.4259 12.1769C68.9127 12.1215 69.3215 11.9777 69.6461 11.7692C69.7118 11.7268 69.7426 11.6567 69.8002 11.6217C69.8741 11.5756 69.9624 11.6198 70.0282 11.6291C70.1535 11.6475 70.3014 11.6623 70.4349 11.6457C70.4596 11.5553 70.4945 11.4317 70.589 11.4077C70.704 11.4741 70.8622 11.4594 71.0039 11.4299C71.0368 11.4225 71.0799 11.4354 71.1128 11.4243C71.1313 11.4206 71.1703 11.3745 71.1724 11.3745C71.3716 11.3247 71.6099 11.321 71.8523 11.3155C71.9221 11.1975 72.0742 11.1237 72.259 11.1292C72.2919 11.1292 72.3556 11.1477 72.3843 11.1145L72.6267 10.7769C72.8691 10.7825 73.0622 10.6478 73.3252 10.6755C73.3724 10.6792 73.4443 10.5445 73.5162 10.5796C73.6764 10.6571 73.9394 10.5907 74.0195 10.4689C74.1181 10.4099 74.2393 10.3583 74.4406 10.3656L74.6337 10.2808C74.7754 10.2882 74.8864 10.2882 74.9665 10.2587C75.0014 10.183 75.0959 10.0797 75.1924 10.1056C75.2582 10.1222 75.3239 10.1535 75.3588 10.207C75.4944 10.1627 75.6033 10.0668 75.632 9.95433C75.6423 9.91375 75.7265 9.89162 75.7758 9.91559C75.8149 9.93219 75.8642 9.91191 75.9052 9.89531C76.1785 9.7828 76.4907 9.65922 76.8974 9.70718C77.0104 9.63155 77.1028 9.53564 77.2816 9.50244C77.3103 9.4176 77.4212 9.3346 77.5692 9.36042C77.9143 9.42313 78.2039 9.36965 78.4093 9.22209C78.4216 9.10221 78.5285 9.02105 78.7031 9.03949C78.7791 9.07085 78.8818 9.05056 78.9455 8.99154C79.1016 9.01183 79.2515 8.96941 79.3234 8.8901C79.3789 8.82923 79.496 8.8901 79.5494 8.84399C79.6254 8.77759 79.7055 8.73332 79.798 8.68906C79.9726 8.72226 80.1081 8.65401 80.1862 8.56548C80.3403 8.52859 80.5416 8.50461 80.6443 8.46035C80.6915 8.43821 80.7901 8.47695 80.8107 8.48064C80.8949 8.37735 81.0387 8.30726 81.2482 8.32939C81.3427 8.23164 81.5297 8.16708 81.7248 8.19106C81.9446 8.1302 82.1233 8.05089 82.3431 8.00662C82.376 8.04351 82.4191 8.03429 82.4479 8.01215C82.5547 7.92547 82.6862 7.81665 82.8402 7.86091C82.9779 7.81665 83.058 7.82218 83.1586 7.82218C83.247 7.76316 83.3312 7.70967 83.4442 7.66725C83.5921 7.70782 83.7194 7.64143 83.7872 7.55289C84.007 7.5492 84.1898 7.50678 84.3398 7.43669C84.385 7.41456 84.4055 7.36476 84.4179 7.36292C84.6726 7.34078 84.8205 7.23565 85.0074 7.18585C85.0423 7.17663 85.1635 7.17848 85.1902 7.15819C85.2601 7.1047 85.3217 7.0383 85.408 6.99219C85.5538 6.97375 85.6833 6.94977 85.8168 6.94055C85.9256 6.80959 86.1208 6.77086 86.2954 6.73582C86.3591 6.72106 86.4495 6.66204 86.5029 6.63991L86.5111 6.64359Z" fill="black"/>
<path d="M83.6745 12.2455V13.8484H83.3372V12.2455H82.7061V11.9566H84.2973V12.2455H83.6766H83.6745ZM86.2445 13.8645L86.1804 12.5786L85.6175 13.722L85.3299 13.7261L84.8022 12.5786L84.7298 13.8645L84.4008 13.8545L84.5229 11.9566H84.8664L85.483 13.3228L86.168 11.9566H86.4763L86.5694 13.8545L86.2466 13.8645H86.2445Z" fill="black"/>
</svg>
