<svg width="80" height="31" viewBox="0 0 80 31" fill="none" xmlns="http://www.w3.org/2000/svg">
<g clip-path="url(#clip0_632_17573)">
<path d="M66.1322 16.8501C66.1443 16.8596 66.1582 16.8665 66.1731 16.8703C66.1881 16.8741 66.2036 16.8748 66.2188 16.8723H67.8834C67.9578 16.872 68.0321 16.8663 68.1057 16.8552C68.2022 16.8434 68.2938 16.8061 68.3711 16.7474C68.4483 16.6886 68.5083 16.6105 68.5449 16.521C68.6085 16.3668 68.6556 16.2063 68.6856 16.0422C68.6958 15.9993 68.6856 15.9387 68.7371 15.9248C68.812 15.9084 68.8896 15.9084 68.9644 15.9248C68.9841 15.9286 68.9905 15.9539 68.9905 15.9747V16.0657C68.9669 16.54 68.9466 17.0131 68.9179 17.4881C68.9052 17.6997 68.9301 17.6668 68.7327 17.6675H65.6172C65.4262 17.6675 65.4612 17.6769 65.444 17.507C65.4349 17.3815 65.4613 17.2559 65.5204 17.1445C65.8954 16.3417 66.4282 15.6513 67.0451 15.0197C67.236 14.8232 67.4347 14.6344 67.6085 14.4221C67.8077 14.1796 67.963 13.9169 68.0019 13.601C68.0367 13.3546 68.0071 13.1034 67.916 12.8715C67.7886 12.5557 67.5423 12.3889 67.2023 12.3618C67.0499 12.3458 66.8958 12.3604 66.7491 12.4047C66.6025 12.449 66.4663 12.522 66.3487 12.6195C66.2319 12.7113 66.1467 12.8369 66.1048 12.9789C66.0723 13.0919 66.0985 13.1386 66.2137 13.1343C66.6784 13.1159 66.8503 13.6124 66.7159 13.9497C66.5817 14.287 66.129 14.3918 65.8343 14.143C65.7577 14.0794 65.6948 14.0013 65.6492 13.9132C65.6036 13.8251 65.5763 13.7288 65.5688 13.63C65.5217 13.0951 65.7235 12.6605 66.136 12.3232C66.5486 11.9859 67.0438 11.8887 67.5709 11.9525C67.7686 11.9765 67.9617 12.0295 68.1438 12.1098C69.1305 12.5424 69.1573 13.637 68.7664 14.2168C68.614 14.4318 68.4323 14.6248 68.2266 14.7904C68.0012 14.9798 67.7644 15.1555 67.5264 15.331C67.117 15.6342 66.7325 15.9627 66.4282 16.3758C66.3163 16.5254 66.2173 16.6841 66.1322 16.8501ZM54.3829 14.6692C54.4278 14.632 54.4608 14.5826 54.4777 14.5271C54.6059 14.2736 54.7826 14.0473 54.9978 13.8607C55.3461 13.5727 55.742 13.5032 56.173 13.6169C56.3176 13.6524 56.4512 13.7224 56.5622 13.821C56.6732 13.9195 56.7581 14.0435 56.8096 14.1822C56.8958 14.4036 56.9373 14.6397 56.9318 14.877V16.7864C56.9289 16.8621 56.9336 16.9378 56.9458 17.0126C56.9783 17.1717 57.033 17.2273 57.1935 17.2564C57.2185 17.261 57.2438 17.2637 57.2692 17.2646C57.4532 17.2772 57.4551 17.2772 57.4532 17.4541C57.45 17.6985 57.485 17.6599 57.2431 17.6612H55.6701C55.5383 17.6612 55.5351 17.6612 55.537 17.528C55.537 17.4484 55.504 17.3518 55.5536 17.2924C55.6032 17.233 55.707 17.2778 55.7853 17.2652C55.835 17.257 55.8859 17.2519 55.9356 17.2424C55.9846 17.2355 56.0299 17.2127 56.0645 17.1775C56.0991 17.1423 56.1209 17.0967 56.1265 17.0479C56.1381 16.9782 56.143 16.9076 56.1412 16.8369V14.913C56.1433 14.7917 56.1307 14.6706 56.1036 14.5523C56.0145 14.1892 55.6981 14.0192 55.3397 14.1431C55.2004 14.1937 55.076 14.2782 54.9781 14.3888C54.7467 14.6467 54.5881 14.9606 54.5185 15.2989C54.4772 15.4762 54.4571 15.6577 54.4586 15.8396V16.8091C54.4577 16.8747 54.4628 16.9403 54.474 17.0049C54.5058 17.1692 54.5643 17.233 54.7318 17.2576C54.8178 17.2667 54.9044 17.27 54.9908 17.2677C55.0405 17.2677 55.0679 17.2854 55.0647 17.3385C55.0644 17.3435 55.0644 17.3486 55.0647 17.3536C55.0863 17.6631 55.0863 17.6631 54.7731 17.6631H53.2275C53.1034 17.6631 53.1034 17.6631 53.1002 17.5399C53.0998 17.5349 53.0998 17.5298 53.1002 17.5248C53.1071 17.4452 53.0677 17.3492 53.1186 17.2905C53.1695 17.2317 53.2631 17.2728 53.3376 17.2671C53.5656 17.2488 53.6457 17.1717 53.6559 16.9475C53.6598 16.8926 53.6604 16.8369 53.6604 16.7814V14.5233C53.6619 14.4476 53.6589 14.3719 53.6515 14.2965C53.633 14.1424 53.5617 14.0717 53.4077 14.0527C53.3318 14.0446 53.2554 14.0413 53.1791 14.0426C53.1218 14.0426 53.0951 14.0231 53.097 13.9637C53.097 13.8879 53.1014 13.8115 53.097 13.7363C53.0925 13.6611 53.1282 13.6491 53.1874 13.6447C53.3599 13.6321 53.5324 13.6175 53.7043 13.6049C53.9176 13.5885 54.1308 13.574 54.3441 13.5581C54.4555 13.5499 54.4599 13.5499 54.451 13.6567C54.4268 13.9536 54.3982 14.2498 54.3714 14.5467C54.3605 14.5876 54.3646 14.631 54.3829 14.6692ZM49.5016 14.064C49.3366 13.883 49.1345 13.7389 48.9089 13.6414C48.6834 13.5439 48.4394 13.4953 48.1934 13.4988C47.737 13.5044 47.334 13.6883 46.996 14.0135C46.1461 14.8347 46.0844 16.2811 46.8578 17.1717C47.5581 17.977 48.7078 18.0155 49.4622 17.2588C50.3031 16.4131 50.3228 14.925 49.5016 14.064ZM49.0394 16.7289C48.9895 16.8831 48.9109 17.0267 48.8077 17.1521C48.74 17.2349 48.6552 17.3022 48.5591 17.3496C48.4629 17.397 48.3576 17.4233 48.2502 17.4268C48.1429 17.4304 48.036 17.4109 47.9369 17.3698C47.8378 17.3287 47.7488 17.267 47.6759 17.1887C47.4696 16.9778 47.369 16.7131 47.3111 16.4339C47.1927 15.8737 47.1997 15.2946 47.3314 14.7374C47.3698 14.5745 47.4343 14.4188 47.5224 14.2763C47.8445 13.7546 48.4971 13.7337 48.8504 14.2333C48.9958 14.4527 49.0914 14.7007 49.1305 14.9604C49.1755 15.1937 49.1969 15.4309 49.1941 15.6684C49.2007 16.0279 49.1484 16.3861 49.0394 16.7289ZM64.7178 12.8387H63.0722C62.9501 12.8376 62.8283 12.8475 62.7081 12.8684C62.5867 12.8876 62.4723 12.9371 62.3755 13.0122C62.2788 13.0873 62.2028 13.1856 62.1549 13.2979C62.0719 13.4932 62.0092 13.6964 61.9677 13.9043C61.9563 13.9529 61.9613 14.0198 61.9162 14.0394C61.8428 14.0622 61.7646 14.0642 61.6902 14.0451C61.645 14.0381 61.6583 13.9889 61.6609 13.9554C61.6723 13.7944 61.6838 13.6333 61.6978 13.4722C61.7347 13.0397 61.772 12.6073 61.8098 12.1749C61.8207 12.0542 61.8207 12.0523 61.9429 12.0523H65.2411C65.3582 12.0523 65.3499 12.0555 65.3627 12.1673C65.3772 12.2939 65.3661 12.422 65.33 12.5443C65.2939 12.6665 65.2336 12.7804 65.1526 12.8791C64.7859 13.364 64.471 13.8854 64.213 14.4349C63.9417 14.9916 63.8027 15.6027 63.8068 16.2211C63.8068 16.4175 63.8278 16.614 63.8457 16.8098C63.8616 16.9657 63.8672 17.1224 63.8622 17.279C63.8577 17.3647 63.8381 17.4489 63.8043 17.5279C63.7767 17.5991 63.729 17.6608 63.6669 17.7056C63.6047 17.7504 63.5309 17.7765 63.4541 17.7805C63.3756 17.7932 63.295 17.7825 63.2225 17.7496C63.1501 17.7168 63.0891 17.6634 63.0474 17.5961C62.9641 17.4629 62.9172 17.3106 62.9112 17.154C62.8774 16.7194 62.957 16.3 63.0849 15.8869C63.2886 15.2262 63.6025 14.6161 63.9526 14.0224C64.1602 13.6687 64.3842 13.3276 64.6172 12.9884C64.6459 12.9474 64.6726 12.9063 64.7178 12.8387ZM58.2096 15.4518V14.1791C58.2096 14.0635 58.2096 14.0628 58.0918 14.0616H57.7099C57.5826 14.0616 57.5826 14.0616 57.5793 13.9258C57.5787 13.9157 57.5787 13.9056 57.5793 13.8955C57.5826 13.7692 57.5501 13.7609 57.7188 13.7123C57.8791 13.6686 58.0266 13.5878 58.1492 13.4764C58.2719 13.3651 58.3661 13.2264 58.4241 13.0718C58.5188 12.8263 58.5798 12.5692 58.6056 12.3076C58.6158 12.2279 58.6265 12.1478 58.6323 12.0669C58.6361 12.017 58.6578 12.0006 58.708 11.9955C59.0187 11.9646 59.0193 11.9646 59.0193 12.2715V13.4685C59.0193 13.6624 59.0041 13.6435 59.2033 13.6441H60.0735C60.1881 13.6441 60.1888 13.6472 60.1907 13.7634C60.1907 13.8266 60.1862 13.8955 60.1907 13.9605C60.1989 14.0439 60.1601 14.0622 60.0843 14.0616H59.1377C58.9989 14.0616 58.9983 14.0616 58.9983 14.2037V16.4776C58.9957 16.6088 59.0079 16.74 59.0346 16.8686C59.0849 17.0871 59.2077 17.2197 59.3822 17.2443C59.4832 17.2634 59.5878 17.249 59.6798 17.2034C59.7718 17.1577 59.8462 17.0834 59.8914 16.9917C60.001 16.8023 60.0302 16.5931 60.057 16.3828C60.078 16.2173 60.0786 16.2155 60.2442 16.2179C60.4351 16.2211 60.4434 16.1712 60.4262 16.4169C60.4148 16.6493 60.366 16.8783 60.2817 17.0953C60.0271 17.7225 59.3517 17.9739 58.7405 17.6688C58.4413 17.5198 58.3013 17.2608 58.2389 16.9494C58.216 16.8303 58.2051 16.7093 58.2064 16.5881C58.2115 16.2091 58.2102 15.8301 58.2096 15.4518ZM51.9416 15.3065V16.8224C51.9397 16.888 51.9429 16.9537 51.9511 17.0188C51.974 17.1692 52.0351 17.231 52.1848 17.2588C52.235 17.2658 52.2856 17.2696 52.3363 17.2702C52.4566 17.2753 52.4566 17.2746 52.4585 17.3997V17.5361C52.4585 17.6624 52.4585 17.6624 52.3204 17.6624H50.8702C50.7856 17.6549 50.6665 17.7029 50.6245 17.6378C50.5672 17.5488 50.606 17.4231 50.6073 17.3132C50.6073 17.2727 50.6417 17.2702 50.671 17.2683C50.7467 17.2645 50.8237 17.2683 50.8988 17.2557C50.9578 17.2509 51.0132 17.226 51.0556 17.185C51.0981 17.1441 51.1248 17.0898 51.1312 17.0315C51.1421 16.9668 51.147 16.9012 51.1458 16.8357V14.4721C51.1471 14.4116 51.1428 14.3511 51.1331 14.2914C51.1026 14.1279 51.0345 14.0647 50.8689 14.0489C50.7827 14.0422 50.6963 14.0399 50.6098 14.042C50.5507 14.042 50.527 14.0186 50.5296 13.9611C50.5322 13.9036 50.5296 13.86 50.5296 13.8095C50.5296 13.6497 50.5296 13.6491 50.6964 13.6371L51.8226 13.5562C51.9359 13.548 51.9378 13.5474 51.9378 13.6687V15.1688L51.9416 15.3065ZM50.81 12.2103C50.8105 12.0927 50.8461 11.9779 50.9122 11.8803C50.9784 11.7828 51.0723 11.7069 51.1819 11.6622C51.2915 11.6175 51.412 11.6061 51.5282 11.6293C51.6443 11.6526 51.7509 11.7094 51.8346 11.7928C51.9182 11.8761 51.9751 11.9821 51.998 12.0975C52.021 12.2128 52.0089 12.3324 51.9635 12.441C51.918 12.5495 51.8412 12.6423 51.7426 12.7076C51.644 12.7729 51.5282 12.8077 51.4097 12.8077C51.2503 12.8073 51.0977 12.7441 50.9853 12.6321C50.8728 12.5201 50.8098 12.3684 50.81 12.2103ZM45.6168 12.1049C45.4983 12.0358 45.3742 11.9768 45.2457 11.9286C44.841 11.7888 44.4149 11.7204 43.9865 11.7265C43.6096 11.7227 43.2327 11.7265 42.8559 11.7265H41.6336C41.3682 11.7265 41.3682 11.7265 41.3713 11.9899C41.3713 12.1194 41.3713 12.12 41.5051 12.1213C41.6476 12.1154 41.7903 12.1221 41.9316 12.1415C42.1015 12.1725 42.183 12.2476 42.2155 12.4137C42.2235 12.4583 42.2272 12.5036 42.2263 12.5489V16.8389C42.2269 16.8996 42.2198 16.96 42.2053 17.0189C42.194 17.0737 42.1668 17.1239 42.1271 17.1635C42.0874 17.2031 42.0369 17.2303 41.9819 17.2419C41.8775 17.2652 41.7705 17.2748 41.6636 17.2703C41.3504 17.2703 41.3504 17.2703 41.3707 17.5786C41.371 17.5836 41.371 17.5887 41.3707 17.5937C41.3707 17.6455 41.3937 17.6669 41.4439 17.6645H44.0718C44.0998 17.6645 44.1221 17.6512 44.1227 17.6209C44.1227 17.511 44.1615 17.3853 44.1068 17.2949C44.0667 17.2318 43.9457 17.2754 43.8611 17.2716C43.7592 17.2672 43.6573 17.2684 43.5555 17.2716C43.4892 17.2704 43.4233 17.2608 43.3594 17.2431C43.3041 17.2317 43.2536 17.2037 43.2148 17.163C43.176 17.1222 43.1507 17.0706 43.1424 17.0151C43.1322 16.9709 43.1265 16.9259 43.1252 16.8806V15.2131C43.1252 15.1316 43.1576 15.1102 43.2334 15.1114C43.4456 15.1144 43.6595 15.1144 43.8751 15.1114C44.2318 15.1112 44.5869 15.063 44.9305 14.968C45.2804 14.8745 45.6036 14.7015 45.8746 14.4627C46.5341 13.8563 46.5341 12.6335 45.6168 12.1049ZM45.273 13.8386C45.1565 14.3155 44.8312 14.5676 44.3608 14.6598C44.1653 14.6926 43.967 14.7059 43.7688 14.6996H43.2493C43.122 14.6996 43.122 14.6996 43.122 14.5733V12.5893C43.122 12.24 43.2226 12.1301 43.5676 12.12C43.847 12.1013 44.1276 12.1159 44.4034 12.1636C44.9446 12.2785 45.224 12.5678 45.3017 13.111C45.3393 13.3531 45.3296 13.6002 45.273 13.8386Z" fill="#5A5A5C"/>
<path d="M32.1837 19.2169C32.1836 19.3859 32.1159 19.548 31.9955 19.6675C31.875 19.787 31.7117 19.8542 31.5413 19.8542C31.4143 19.8542 31.2901 19.8168 31.1845 19.7468C31.0788 19.6767 30.9965 19.5772 30.9479 19.4607C30.8993 19.3442 30.8866 19.2161 30.9114 19.0924C30.9361 18.9688 30.9973 18.8552 31.0872 18.7661C31.177 18.677 31.2915 18.6163 31.4161 18.5917C31.5407 18.5671 31.6698 18.5797 31.7872 18.628C31.9046 18.6762 32.0049 18.7579 32.0754 18.8627C32.146 18.9676 32.1837 19.0908 32.1837 19.2169ZM22.2716 7.02822C22.2736 6.90281 22.3129 6.78078 22.3845 6.67745C22.4561 6.57411 22.557 6.49409 22.6743 6.44741C22.762 6.41246 22.8564 6.39716 22.9507 6.40261C23.0451 6.40806 23.1371 6.43413 23.2201 6.47895C23.3031 6.52377 23.3751 6.58624 23.431 6.66189C23.4869 6.73754 23.5252 6.8245 23.5433 6.91656C23.5614 7.00862 23.5587 7.1035 23.5355 7.19442C23.5124 7.28535 23.4692 7.37007 23.4092 7.44253C23.3492 7.515 23.2738 7.57341 23.1884 7.6136C23.103 7.65379 23.0097 7.67476 22.9152 7.67502C22.8298 7.67557 22.7452 7.65914 22.6664 7.62673C22.5875 7.59431 22.516 7.54656 22.456 7.48628C22.396 7.426 22.3488 7.35442 22.3171 7.27575C22.2854 7.19708 22.27 7.11292 22.2716 7.02822Z" fill="#04609E"/>
<path d="M17.8956 19.849C17.8113 19.849 17.7279 19.8326 17.65 19.8006C17.5722 19.7686 17.5014 19.7217 17.4419 19.6626C17.3823 19.6035 17.335 19.5333 17.3028 19.456C17.2705 19.3788 17.2539 19.296 17.2539 19.2124C17.2539 19.1288 17.2705 19.046 17.3027 18.9687C17.335 18.8915 17.3822 18.8213 17.4418 18.7622C17.5014 18.703 17.5721 18.6561 17.65 18.6241C17.7278 18.5921 17.8112 18.5757 17.8955 18.5757C18.0657 18.5757 18.2289 18.6427 18.3492 18.7621C18.4695 18.8815 18.5371 19.0435 18.5372 19.2123C18.5372 19.3812 18.4696 19.5431 18.3493 19.6625C18.2289 19.7819 18.0657 19.849 17.8956 19.849Z" fill="#044D82"/>
<path d="M21.1026 21.2134C21.0078 21.2131 20.9142 21.1919 20.8286 21.1514C20.743 21.111 20.6674 21.0521 20.6075 20.9792C20.5475 20.9063 20.5046 20.8211 20.4817 20.7298C20.4589 20.6384 20.4568 20.5432 20.4755 20.4509C20.4943 20.3587 20.5335 20.2717 20.5902 20.1963C20.6469 20.1208 20.7198 20.0588 20.8035 20.0146C20.8873 19.9705 20.9799 19.9453 21.0746 19.9409C21.1693 19.9364 21.2639 19.9529 21.3515 19.9891C21.4686 20.0375 21.5686 20.1193 21.6388 20.2241C21.7091 20.329 21.7465 20.4521 21.7462 20.578C21.7457 20.7469 21.6777 20.9087 21.557 21.0279C21.4363 21.147 21.2729 21.2138 21.1026 21.2134Z" fill="#044C82"/>
<path d="M23.5549 22.3744C23.5539 22.4685 23.532 22.5612 23.4906 22.6458C23.4492 22.7305 23.3894 22.805 23.3155 22.864C23.2416 22.923 23.1555 22.965 23.0633 22.987C22.9711 23.009 22.8751 23.0105 22.7823 22.9913C22.6894 22.9722 22.602 22.9328 22.5263 22.8761C22.4507 22.8194 22.3886 22.7467 22.3446 22.6633C22.3006 22.5799 22.2758 22.4879 22.272 22.3939C22.2682 22.2999 22.2854 22.2061 22.3225 22.1195C22.372 22.0036 22.455 21.9049 22.5611 21.8358C22.6671 21.7667 22.7914 21.7304 22.9183 21.7314C23.0882 21.7342 23.2502 21.8032 23.3693 21.9235C23.4884 22.0438 23.5551 22.2057 23.5549 22.3744Z" fill="#04609E"/>
<path d="M17.2539 12.0145C17.2533 11.9309 17.2695 11.848 17.3016 11.7708C17.3336 11.6935 17.3809 11.6234 17.4407 11.5645C17.5005 11.5056 17.5715 11.4592 17.6497 11.428C17.7278 11.3968 17.8114 11.3814 17.8956 11.3828C18.0231 11.3825 18.1478 11.4199 18.2539 11.4901C18.3599 11.5603 18.4425 11.6603 18.4911 11.7772C18.5399 11.8941 18.5524 12.0228 18.5272 12.1468C18.5021 12.2708 18.4403 12.3846 18.3497 12.4737C18.282 12.5402 18.2003 12.591 18.1104 12.6224C18.0205 12.6538 17.9247 12.665 17.8299 12.6551C17.7351 12.6453 17.6438 12.6146 17.5624 12.5654C17.481 12.5162 17.4116 12.4497 17.3593 12.3707C17.2894 12.2649 17.2527 12.1409 17.2539 12.0145Z" fill="#044C82"/>
<path d="M22.2716 24.1624C22.2728 24.0788 22.2905 23.9962 22.3239 23.9195C22.3573 23.8427 22.4056 23.7731 22.466 23.7149C22.5265 23.6566 22.5979 23.6107 22.6762 23.5798C22.7545 23.549 22.8382 23.5337 22.9225 23.5349C23.0494 23.5367 23.1729 23.5759 23.2774 23.6473C23.3819 23.7188 23.4626 23.8194 23.5095 23.9365C23.5564 24.0535 23.5672 24.1817 23.5407 24.3048C23.5141 24.428 23.4513 24.5405 23.3603 24.6283C23.2693 24.716 23.1541 24.775 23.0293 24.7978C22.9045 24.8206 22.7756 24.8062 22.6591 24.7563C22.5426 24.7064 22.4435 24.6234 22.3745 24.5177C22.3056 24.412 22.2697 24.2884 22.2716 24.1624Z" fill="#048BD1"/>
<path d="M17.8923 14.455C17.7222 14.4542 17.5593 14.3863 17.4396 14.2663C17.3198 14.1463 17.2531 13.984 17.2539 13.8152C17.2548 13.6463 17.3232 13.4847 17.4441 13.3659C17.565 13.2471 17.7286 13.1808 17.8987 13.1817C18.0689 13.1825 18.2318 13.2504 18.3515 13.3704C18.4712 13.4904 18.538 13.6527 18.5372 13.8215C18.5368 13.9051 18.5198 13.9879 18.4872 14.0649C18.4545 14.142 18.4069 14.212 18.347 14.2708C18.2871 14.3297 18.2162 14.3762 18.1381 14.4078C18.0601 14.4394 17.9766 14.4555 17.8923 14.455Z" fill="#044D82"/>
<path d="M31.5455 14.455C31.4182 14.4559 31.2935 14.4193 31.1872 14.3497C31.0809 14.2802 30.9979 14.1808 30.9486 14.0643C30.8994 13.9477 30.8862 13.8193 30.9108 13.6953C30.9354 13.5713 30.9967 13.4574 31.0867 13.3681C31.1768 13.2788 31.2916 13.2181 31.4165 13.1938C31.5415 13.1694 31.6709 13.1824 31.7883 13.2312C31.9057 13.28 32.0059 13.3624 32.076 13.4678C32.1462 13.5733 32.1831 13.697 32.1822 13.8234C32.1832 13.9486 32.1464 14.0713 32.0765 14.1755C32.0066 14.2798 31.9068 14.3609 31.79 14.4083C31.7124 14.4398 31.6293 14.4557 31.5455 14.455ZM21.0918 23.0091C20.922 23.0078 20.7598 22.9398 20.6404 22.82C20.5211 22.7002 20.4545 22.5383 20.4552 22.3699C20.4535 22.2842 20.4692 22.1991 20.5013 22.1195C20.5334 22.0399 20.5813 21.9676 20.6421 21.9067C20.7337 21.815 20.851 21.7529 20.9788 21.7285C21.1066 21.7042 21.2389 21.7187 21.3582 21.7703C21.4774 21.8218 21.5782 21.9079 21.6473 22.0173C21.7165 22.1266 21.7507 22.2542 21.7456 22.3831C21.7421 22.552 21.6713 22.7127 21.5488 22.83C21.4263 22.9473 21.262 23.0117 21.0918 23.0091Z" fill="#04609E"/>
<path d="M17.2521 15.6102C17.2533 15.4419 17.3216 15.2809 17.4421 15.1625C17.5626 15.0441 17.7255 14.978 17.8951 14.9786C17.9797 14.9794 18.0633 14.9967 18.1412 15.0296C18.219 15.0625 18.2895 15.1103 18.3488 15.1702C18.4683 15.2913 18.5346 15.4546 18.5329 15.6241C18.5321 15.708 18.5146 15.791 18.4815 15.8683C18.4483 15.9455 18.4002 16.0155 18.3397 16.0743C18.2177 16.1929 18.0532 16.2586 17.8823 16.257C17.798 16.2562 17.7146 16.2387 17.6371 16.2057C17.5596 16.1726 17.4895 16.1246 17.4309 16.0644C17.3723 16.0042 17.3263 15.9331 17.2956 15.8551C17.2649 15.7772 17.2501 15.6939 17.2521 15.6102Z" fill="#034C82"/>
<path d="M30.3738 15.6141C30.3736 15.7405 30.3355 15.864 30.2644 15.9688C30.1933 16.0737 30.0924 16.1553 29.9745 16.2031C29.8864 16.2389 29.7914 16.2548 29.6963 16.2498C29.6012 16.2447 29.5084 16.2187 29.4247 16.1737C29.341 16.1287 29.2683 16.0658 29.2121 15.9896C29.1558 15.9134 29.1173 15.8257 29.0993 15.7329C29.0815 15.6401 29.0846 15.5445 29.1084 15.453C29.1323 15.3616 29.1763 15.2765 29.2373 15.204C29.2984 15.1315 29.3749 15.0733 29.4613 15.0337C29.5477 14.994 29.642 14.974 29.7372 14.9749C29.9069 14.9762 30.0692 15.0443 30.1885 15.1641C30.3078 15.2838 30.3744 15.4457 30.3738 15.6141Z" fill="#044D82"/>
<path d="M16.076 19.849C15.949 19.8484 15.8251 19.8104 15.7199 19.7398C15.6146 19.6693 15.5329 19.5693 15.485 19.4526C15.437 19.3359 15.4251 19.2077 15.4506 19.0843C15.4761 18.9608 15.538 18.8477 15.6284 18.7591C15.7188 18.6706 15.8336 18.6107 15.9583 18.5869C16.083 18.5632 16.2121 18.5767 16.329 18.6258C16.446 18.6748 16.5457 18.7573 16.6154 18.8626C16.6852 18.9679 16.7219 19.0914 16.7209 19.2174C16.7209 19.301 16.7041 19.3838 16.6716 19.461C16.6391 19.5382 16.5915 19.6082 16.5315 19.6669C16.4715 19.7257 16.4003 19.772 16.3222 19.8033C16.244 19.8346 16.1603 19.8501 16.076 19.849Z" fill="#04609E"/>
<path d="M33.3571 19.849C33.1868 19.849 33.0235 19.7818 32.903 19.6623C32.7826 19.5428 32.7149 19.3807 32.7148 19.2117C32.7148 19.0856 32.7525 18.9624 32.823 18.8575C32.8936 18.7527 32.9939 18.671 33.1113 18.6228C33.2287 18.5745 33.3579 18.5619 33.4825 18.5865C33.6071 18.6112 33.7215 18.6719 33.8113 18.7611C33.9012 18.8502 33.9624 18.9638 33.9872 19.0874C34.012 19.2111 33.9992 19.3392 33.9506 19.4557C33.902 19.5721 33.8196 19.6717 33.714 19.7417C33.6083 19.8117 33.4841 19.8491 33.3571 19.849Z" fill="#048BD1"/>
<path d="M17.254 10.2268C17.2515 10.1011 17.2869 9.9775 17.3556 9.87182C17.4243 9.76615 17.5232 9.68321 17.6396 9.63362C17.717 9.60074 17.8001 9.58339 17.8842 9.58258C17.9687 9.58172 18.0525 9.59739 18.1308 9.62868C18.2091 9.65997 18.2805 9.70629 18.3408 9.76497C18.4316 9.85328 18.494 9.96635 18.52 10.0899C18.5461 10.2134 18.5346 10.3418 18.4871 10.4588C18.4396 10.5758 18.3581 10.6763 18.2531 10.7474C18.1481 10.8185 18.0242 10.8572 17.897 10.8584C17.8129 10.8593 17.7294 10.8436 17.6514 10.8122C17.5734 10.7809 17.5025 10.7345 17.4427 10.6758C17.3829 10.617 17.3354 10.5471 17.3031 10.4701C17.2707 10.393 17.254 10.3103 17.254 10.2268Z" fill="#034C82"/>
<path d="M27.709 7.02955C27.7106 6.90322 27.7499 6.78019 27.822 6.67606C27.8941 6.57193 27.9957 6.49137 28.114 6.4446C28.2323 6.39788 28.362 6.38705 28.4865 6.41349C28.611 6.43993 28.7248 6.50245 28.8135 6.59313C28.9022 6.68381 28.9618 6.79861 28.9847 6.92295C29.0075 7.0473 28.9927 7.17558 28.9419 7.29152C28.8912 7.40745 28.8068 7.50581 28.6997 7.5741C28.5925 7.64239 28.4672 7.67754 28.3399 7.67507C28.1701 7.67206 28.0084 7.60246 27.8902 7.4815C27.772 7.36053 27.7069 7.19804 27.709 7.02955Z" fill="#04609E"/>
<path d="M21.0958 9.47261C20.9258 9.47107 20.7632 9.40311 20.6434 9.28346C20.5235 9.1638 20.456 9.0021 20.4554 8.83338C20.4559 8.74935 20.4731 8.66624 20.5061 8.58881C20.539 8.51139 20.5869 8.44115 20.6472 8.38214C20.738 8.29317 20.8533 8.23292 20.9785 8.20899C21.1038 8.18507 21.2334 8.19856 21.3509 8.24774C21.4685 8.29693 21.5687 8.37961 21.6388 8.48532C21.709 8.59103 21.746 8.71501 21.7451 8.84159C21.7423 9.01038 21.6726 9.17127 21.551 9.28939C21.4295 9.40751 21.2659 9.47334 21.0958 9.47261ZM26.5368 21.2134C26.4418 21.2132 26.3481 21.1921 26.2623 21.1516C26.1765 21.111 26.1009 21.0521 26.0409 20.9791C25.9808 20.906 25.9379 20.8207 25.9151 20.7292C25.8924 20.6376 25.8904 20.5423 25.9093 20.4499C25.9282 20.3575 25.9675 20.2704 26.0245 20.1949C26.0814 20.1194 26.1546 20.0575 26.2386 20.0135C26.3226 19.9695 26.4155 19.9445 26.5104 19.9405C26.6053 19.9365 26.7 19.9534 26.7875 19.9901C26.9046 20.0391 27.0044 20.1215 27.0742 20.2268C27.144 20.3322 27.1808 20.4557 27.1798 20.5818C27.1788 20.7501 27.1105 20.9112 26.99 21.0296C26.8694 21.148 26.7065 21.2141 26.5368 21.2134ZM17.254 17.4123C17.2526 17.287 17.2893 17.1641 17.3592 17.0598C17.4291 16.9554 17.529 16.8743 17.6459 16.827C17.7235 16.7956 17.8067 16.7798 17.8905 16.7807C17.9759 16.7795 18.0607 16.7954 18.1398 16.8273C18.219 16.8592 18.2909 16.9066 18.3512 16.9666C18.4117 17.0264 18.4593 17.0978 18.4915 17.1763C18.5237 17.2548 18.5397 17.3389 18.5385 17.4237C18.5357 17.5927 18.4658 17.7538 18.344 17.8721C18.2222 17.9903 18.0583 18.0562 17.8879 18.0553C17.8037 18.0545 17.7205 18.0372 17.6431 18.0044C17.5656 17.9716 17.4954 17.924 17.4365 17.8643C17.3777 17.8045 17.3312 17.7339 17.2999 17.6563C17.2686 17.5787 17.2529 17.4958 17.254 17.4123Z" fill="#044C82"/>
<path d="M19.9248 7.04227C19.9248 7.1257 19.9082 7.20831 19.8758 7.28532C19.8435 7.36233 19.7961 7.4322 19.7363 7.49091C19.6766 7.54966 19.6058 7.59608 19.5279 7.62748C19.45 7.65889 19.3666 7.67465 19.2825 7.67386C19.1215 7.67494 18.9658 7.61622 18.8462 7.50924C18.7265 7.40226 18.6515 7.25474 18.6359 7.09567C18.6202 6.93661 18.6651 6.77749 18.7617 6.64958C18.8582 6.52166 18.9995 6.4342 19.1577 6.40438C19.2836 6.38045 19.4139 6.39423 19.5318 6.44398C19.6498 6.49373 19.7502 6.57719 19.8202 6.68374C19.8902 6.79027 19.9266 6.91512 19.9248 7.04227Z" fill="#04609E"/>
<path d="M30.3738 10.2269C30.3726 10.3533 30.3336 10.4764 30.2618 10.5808C30.19 10.6852 30.0886 10.766 29.9704 10.8131C29.882 10.8483 29.7869 10.8637 29.6918 10.8579C29.5967 10.8522 29.5042 10.8256 29.4207 10.78C29.3373 10.7344 29.2651 10.671 29.2094 10.5944C29.1537 10.5178 29.1159 10.4298 29.0986 10.3369C29.0813 10.2439 29.085 10.1484 29.1095 10.057C29.134 9.96571 29.1786 9.88093 29.2401 9.80881C29.3016 9.73669 29.3786 9.67904 29.4653 9.64002C29.552 9.60101 29.6464 9.5816 29.7416 9.58321C29.8257 9.58426 29.9088 9.60174 29.9861 9.63468C30.0634 9.66761 30.1334 9.71534 30.1921 9.77514C30.2508 9.83491 30.297 9.90557 30.3282 9.98308C30.3594 10.0606 30.3749 10.1434 30.3738 10.2269Z" fill="#034C82"/>
<path d="M34.0009 15.6229C33.9992 15.7493 33.9597 15.8723 33.8875 15.9765C33.8153 16.0806 33.7137 16.1611 33.5954 16.2079C33.4771 16.2547 33.3474 16.2657 33.2228 16.2394C33.0982 16.2132 32.9843 16.1508 32.8954 16.0603C32.8065 15.9698 32.7466 15.8552 32.7233 15.731C32.7001 15.6067 32.7144 15.4784 32.7646 15.3622C32.8148 15.2461 32.8985 15.1473 33.0053 15.0783C33.112 15.0094 33.237 14.9734 33.3643 14.9749C33.5349 14.9783 33.6973 15.0482 33.8164 15.1695C33.9355 15.2907 34.0018 15.4536 34.0009 15.6229ZM21.1192 23.5345C21.2891 23.5397 21.4502 23.611 21.5676 23.7331C21.6849 23.8552 21.7491 24.0183 21.7462 24.187C21.7447 24.2711 21.7265 24.3541 21.6927 24.4313C21.6589 24.5084 21.6101 24.5782 21.5491 24.6366C21.4881 24.695 21.416 24.741 21.3371 24.7718C21.2582 24.8026 21.174 24.8176 21.0892 24.8161C21.0045 24.8146 20.9208 24.7966 20.8431 24.763C20.7653 24.7295 20.695 24.681 20.6362 24.6205C20.5773 24.56 20.531 24.4885 20.4999 24.4103C20.4689 24.332 20.4537 24.2484 20.4552 24.1643C20.4563 24.0794 20.4744 23.9956 20.5085 23.9178C20.5426 23.84 20.592 23.7697 20.6539 23.711C20.7157 23.6524 20.7887 23.6065 20.8686 23.5762C20.9485 23.5459 21.0337 23.5318 21.1192 23.5345Z" fill="#038BD1"/>
<path d="M27.1803 7.03464C27.1801 7.1609 27.1421 7.28424 27.0712 7.38905C27.0002 7.49386 26.8995 7.57542 26.7818 7.62342C26.6642 7.67142 26.5348 7.68369 26.4101 7.65867C26.2854 7.63366 26.1709 7.57249 26.0813 7.48291C25.9916 7.39333 25.9308 7.27936 25.9064 7.15544C25.8821 7.03152 25.8953 6.90322 25.9445 6.78677C25.9937 6.67033 26.0766 6.57099 26.1827 6.50132C26.2888 6.43166 26.4133 6.3948 26.5406 6.39542C26.6249 6.39566 26.7083 6.41239 26.7861 6.44465C26.8639 6.47692 26.9346 6.52408 26.994 6.58345C27.0534 6.64281 27.1004 6.71322 27.1324 6.79064C27.1644 6.86806 27.1807 6.95097 27.1803 7.03464Z" fill="#03609E"/>
<path d="M25.362 8.83351C25.3633 8.96003 25.3267 9.08408 25.2567 9.18987C25.1868 9.29565 25.0867 9.37839 24.9692 9.42756C24.8517 9.47674 24.7221 9.49015 24.5969 9.46609C24.4717 9.44204 24.3565 9.3816 24.266 9.29246C24.1756 9.2033 24.1139 9.08946 24.0888 8.96542C24.0637 8.84137 24.0763 8.71272 24.1251 8.59582C24.1738 8.47891 24.2565 8.37904 24.3626 8.30889C24.4687 8.23874 24.5935 8.20148 24.721 8.20186C24.8051 8.20067 24.8887 8.21616 24.9667 8.24744C25.0447 8.27871 25.1156 8.32514 25.1753 8.38398C25.2351 8.4428 25.2823 8.51286 25.3144 8.59006C25.3465 8.66725 25.3626 8.75002 25.362 8.83351Z" fill="#044D82"/>
<path d="M28.3456 23.0097C28.2186 23.0097 28.0946 22.972 27.9894 22.9015C27.8841 22.831 27.8026 22.7309 27.7551 22.6141C27.7236 22.5365 27.7079 22.4535 27.709 22.3699C27.7093 22.2754 27.7307 22.1822 27.7717 22.0969C27.8127 22.0116 27.8723 21.9365 27.9462 21.8769C28.0201 21.8172 28.1063 21.7747 28.1988 21.7522C28.2913 21.7297 28.3876 21.7279 28.4809 21.7469C28.5742 21.7658 28.6621 21.805 28.7382 21.8618C28.8144 21.9185 28.8768 21.9913 28.9211 22.0749C28.9654 22.1586 28.9905 22.2509 28.9944 22.3453C28.9984 22.4397 28.9811 22.5338 28.9439 22.6208C28.8942 22.7371 28.8108 22.8362 28.7043 22.9055C28.5978 22.9747 28.4729 23.011 28.3456 23.0097Z" fill="#04609E"/>
<path d="M14.9103 15.6134C14.9102 15.7076 14.8891 15.8005 14.8484 15.8856C14.8078 15.9707 14.7486 16.0457 14.6752 16.1054C14.6018 16.165 14.516 16.2078 14.4239 16.2306C14.3319 16.2533 14.2359 16.2556 14.1428 16.2371C14.0184 16.2124 13.9041 16.1516 13.8145 16.0625C13.7248 15.9734 13.6638 15.8599 13.6391 15.7363C13.6124 15.6024 13.6299 15.4634 13.6889 15.34C13.7478 15.2167 13.8453 15.1154 13.9667 15.0511C14.0881 14.9869 14.2272 14.9631 14.3633 14.9833C14.4994 15.0034 14.6254 15.0665 14.7226 15.1632C14.8428 15.2827 14.9103 15.4446 14.9103 15.6134Z" fill="#048BD1"/>
<path d="M29.7318 16.7794C29.8158 16.7788 29.8991 16.7947 29.9769 16.8261C30.0548 16.8575 30.1255 16.9039 30.1852 16.9626C30.2449 17.0213 30.2923 17.0912 30.3246 17.1681C30.3569 17.2451 30.3735 17.3277 30.3735 17.4111C30.3776 17.5397 30.3423 17.6666 30.2724 17.7751C30.2024 17.8835 30.101 17.9684 29.9815 18.0185C29.9022 18.0519 29.817 18.0691 29.7309 18.0691C29.6447 18.0691 29.5595 18.0519 29.4802 18.0185C29.3607 17.9683 29.2593 17.8835 29.1894 17.775C29.1194 17.6666 29.0841 17.5397 29.0882 17.4111C29.0882 17.3275 29.1049 17.2448 29.1373 17.1677C29.1697 17.0906 29.2173 17.0207 29.2771 16.9619C29.337 16.9032 29.408 16.8568 29.486 16.8254C29.5641 16.7941 29.6476 16.7785 29.7318 16.7794Z" fill="#044C82"/>
<path d="M32.1862 15.6208C32.1858 15.7042 32.1689 15.7867 32.1364 15.8636C32.1038 15.9404 32.0563 16.0102 31.9965 16.0688C31.9369 16.1274 31.8661 16.1739 31.7883 16.2054C31.7106 16.2369 31.6273 16.2529 31.5433 16.2525C31.4476 16.2528 31.353 16.232 31.2665 16.1915C31.1799 16.1511 31.1035 16.092 31.0428 16.0186C30.9821 15.9452 30.9387 15.8593 30.9156 15.7672C30.8925 15.6751 30.8903 15.579 30.9093 15.4859C30.9412 15.3298 31.0306 15.191 31.1601 15.0968C31.2897 15.0026 31.4499 14.9598 31.6096 14.9767C31.7693 14.9935 31.9169 15.0689 32.0235 15.188C32.1301 15.3072 32.1881 15.4615 32.1862 15.6208Z" fill="#03609E"/>
<path d="M16.0817 11.3827C16.1656 11.3823 16.2487 11.3983 16.3263 11.4298C16.404 11.4614 16.4745 11.5078 16.534 11.5666C16.5934 11.6252 16.6406 11.695 16.6728 11.7719C16.705 11.8487 16.7216 11.9311 16.7215 12.0143C16.7228 12.1403 16.6862 12.2638 16.6166 12.3692C16.5469 12.4745 16.4473 12.5569 16.3303 12.606C16.2527 12.6386 16.1693 12.6556 16.0849 12.6561C15.9144 12.6566 15.7507 12.5898 15.6298 12.4705C15.5089 12.3513 15.4406 12.1892 15.4401 12.02C15.4396 11.8508 15.5069 11.6884 15.6271 11.5684C15.7473 11.4484 15.9106 11.3807 16.0811 11.3802L16.0817 11.3827ZM25.3648 7.03273C25.367 7.15901 25.3309 7.28302 25.2613 7.38876C25.1917 7.4945 25.0918 7.57712 24.9744 7.62595C24.8965 7.65839 24.8128 7.67509 24.7283 7.67508C24.6005 7.67667 24.4752 7.64058 24.3681 7.57138C24.261 7.50218 24.1771 7.40299 24.1269 7.28639C24.0894 7.1992 24.0719 7.10485 24.0757 7.01015C24.0795 6.91544 24.1044 6.82275 24.1487 6.73877C24.1929 6.65479 24.2555 6.58162 24.3317 6.52454C24.408 6.46747 24.4961 6.42792 24.5896 6.40875C24.6831 6.38958 24.7798 6.39127 24.8726 6.41369C24.9654 6.43612 25.052 6.47872 25.1262 6.53842C25.2004 6.59813 25.2603 6.67344 25.3016 6.75891C25.3428 6.84439 25.3644 6.93795 25.3648 7.03273ZM16.7209 13.8234C16.7209 13.9067 16.7042 13.9892 16.672 14.0661C16.6397 14.143 16.5924 14.2128 16.5329 14.2716C16.4733 14.3303 16.4026 14.3767 16.3248 14.4082C16.2471 14.4397 16.1638 14.4556 16.0799 14.455C15.9527 14.4552 15.8284 14.4178 15.7226 14.3477C15.6169 14.2776 15.5345 14.1779 15.486 14.0613C15.4375 13.9447 15.425 13.8164 15.4501 13.6927C15.4753 13.569 15.5368 13.4555 15.6271 13.3666C15.6946 13.3001 15.776 13.2494 15.8657 13.218C15.9553 13.1866 16.0509 13.1754 16.1454 13.1851C16.24 13.1948 16.3312 13.2253 16.4124 13.2742C16.4936 13.3232 16.5629 13.3894 16.6152 13.4682C16.6851 13.5736 16.7219 13.6972 16.7209 13.8234Z" fill="#04609E"/>
<path d="M12.4531 14.4549C12.3687 14.4539 12.2853 14.4363 12.2077 14.4033C12.1301 14.3702 12.0598 14.3223 12.0009 14.2623C11.9419 14.2023 11.8954 14.1314 11.8641 14.0536C11.8328 13.9757 11.8173 13.8926 11.8184 13.8088C11.8201 13.6827 11.8593 13.5599 11.9312 13.4559C12.0032 13.352 12.1045 13.2715 12.2225 13.2246C12.3405 13.1778 12.4698 13.1667 12.5942 13.1927C12.7185 13.2187 12.8323 13.2807 12.9211 13.3709C13.0098 13.461 13.0696 13.5752 13.0929 13.699C13.1162 13.8228 13.102 13.9507 13.052 14.0664C13.0021 14.1822 12.9186 14.2807 12.8122 14.3494C12.7058 14.4181 12.5813 14.454 12.4544 14.4524L12.4531 14.4549Z" fill="#04AFEF"/>
<path d="M31.553 16.7794C31.6372 16.7792 31.7205 16.7958 31.7982 16.828C31.8759 16.8603 31.9462 16.9077 32.0051 16.9674C32.064 17.0271 32.1103 17.0979 32.1412 17.1756C32.1721 17.2533 32.187 17.3364 32.1851 17.4199C32.1847 17.5885 32.117 17.7502 31.9967 17.8693C31.8764 17.9884 31.7134 18.0553 31.5434 18.0553C31.3734 18.054 31.2107 17.9865 31.0904 17.8672C30.9702 17.748 30.9019 17.5867 30.9004 17.418C30.8994 17.3331 30.9157 17.2489 30.9483 17.1704C30.9808 17.0919 31.029 17.0207 31.0899 16.9611C31.1509 16.9015 31.2233 16.8547 31.3028 16.8235C31.3824 16.7923 31.4674 16.7773 31.553 16.7794Z" fill="#04609E"/>
<path d="M28.3479 19.9376C28.5181 19.9384 28.681 20.0063 28.8007 20.1263C28.9205 20.2463 28.9873 20.4086 28.9865 20.5774C28.9859 20.7034 28.9476 20.8263 28.8766 20.9306C28.8056 21.035 28.705 21.1161 28.5875 21.1638C28.47 21.2114 28.3409 21.2234 28.2165 21.1982C28.0922 21.173 27.9782 21.1118 27.8889 21.0223C27.7996 20.9328 27.739 20.8191 27.7148 20.6955C27.6907 20.5718 27.704 20.4439 27.7532 20.3277C27.8023 20.2116 27.8851 20.1126 27.9909 20.0431C28.0968 19.9737 28.221 19.9369 28.3479 19.9376Z" fill="#044C82"/>
<path d="M33.3576 14.455C33.1874 14.455 33.0241 14.3879 32.9038 14.2685C32.7835 14.1491 32.7159 13.9872 32.7159 13.8183C32.7159 13.6494 32.7835 13.4874 32.9038 13.368C33.0241 13.2486 33.1874 13.1815 33.3576 13.1815C33.5277 13.1815 33.691 13.2486 33.8113 13.368C33.9316 13.4874 33.9992 13.6494 33.9992 13.8183C33.9992 13.9872 33.9316 14.1491 33.8113 14.2685C33.691 14.3879 33.5277 14.455 33.3576 14.455ZM26.5336 5.87245C26.4386 5.87205 26.3449 5.85075 26.2593 5.81009C26.1737 5.76943 26.0982 5.71042 26.0383 5.63731C25.9784 5.5642 25.9356 5.47882 25.913 5.38732C25.8904 5.29582 25.8885 5.20048 25.9075 5.10818C25.9265 5.01585 25.966 4.92887 26.023 4.8535C26.08 4.77814 26.1532 4.71628 26.2372 4.67237C26.3212 4.62847 26.414 4.60363 26.5089 4.59964C26.6038 4.59565 26.6984 4.61261 26.7858 4.64929C26.9028 4.69834 27.0025 4.78074 27.0723 4.88604C27.1421 4.99135 27.1788 5.11483 27.1778 5.24086C27.1779 5.32444 27.1612 5.4072 27.1287 5.48433C27.0962 5.56146 27.0486 5.63141 26.9887 5.69013C26.9287 5.74888 26.8577 5.79525 26.7795 5.82655C26.7014 5.85786 26.6178 5.87342 26.5336 5.87245Z" fill="#048BD1"/>
<path d="M26.5439 8.20185C26.628 8.20185 26.7114 8.21841 26.7891 8.25059C26.8668 8.28277 26.9373 8.32991 26.9965 8.38931C27.0557 8.4487 27.1024 8.51915 27.134 8.59659C27.1656 8.67403 27.1813 8.75691 27.1804 8.84044C27.1803 8.96686 27.1423 9.09039 27.0713 9.19535C27.0003 9.3003 26.8995 9.38194 26.7816 9.42991C26.6935 9.46583 26.5984 9.48188 26.5033 9.47688C26.4082 9.47188 26.3153 9.44596 26.2315 9.40099C26.1478 9.35603 26.0751 9.29314 26.0188 9.21689C25.9625 9.14064 25.924 9.05292 25.906 8.96008C25.8821 8.83593 25.8958 8.70751 25.9454 8.59111C25.9951 8.4747 26.0785 8.37555 26.185 8.30622C26.2915 8.2369 26.4165 8.20058 26.5439 8.20185Z" fill="#034C82"/>
<path d="M14.9103 10.223C14.9097 10.349 14.8714 10.472 14.8003 10.5764C14.7292 10.6809 14.6284 10.762 14.5108 10.8095C14.3932 10.8571 14.264 10.869 14.1396 10.8436C14.0152 10.8183 13.9012 10.7569 13.812 10.6672C13.7228 10.5775 13.6624 10.4636 13.6384 10.3398C13.6145 10.2161 13.6281 10.088 13.6776 9.97197C13.727 9.8559 13.8101 9.75699 13.9162 9.68777C14.0223 9.61856 14.1468 9.58215 14.2738 9.58316C14.4435 9.58474 14.6058 9.65292 14.725 9.77281C14.8443 9.8927 14.9109 10.0546 14.9103 10.223Z" fill="#048BD1"/>
<path d="M32.1846 10.2388C32.1818 10.3326 32.1582 10.4246 32.1154 10.5082C32.0726 10.5919 32.0118 10.6652 31.9372 10.7228C31.8626 10.7804 31.776 10.821 31.6838 10.8416C31.5916 10.8622 31.4959 10.8624 31.4036 10.8421C31.2487 10.808 31.1119 10.7182 31.0198 10.59C30.9276 10.4618 30.8866 10.3043 30.9045 10.1478C30.9224 9.99136 30.9981 9.84704 31.1169 9.74267C31.2358 9.63829 31.3893 9.58126 31.548 9.58257C31.6336 9.58298 31.7182 9.60043 31.7969 9.63388C31.8755 9.66732 31.9466 9.71609 32.0059 9.7773C32.0653 9.83849 32.1116 9.91086 32.1423 9.99011C32.173 10.0694 32.1874 10.1539 32.1846 10.2388Z" fill="#03609E"/>
<path d="M10.6375 14.455C10.478 14.454 10.3247 14.3941 10.2073 14.287C10.09 14.1799 10.017 14.0333 10.0026 13.8758C9.98825 13.7182 10.0335 13.561 10.1296 13.4347C10.2257 13.3085 10.3658 13.2223 10.5224 13.1929C10.6471 13.1693 10.776 13.1829 10.8929 13.232C11.0097 13.2811 11.1093 13.3635 11.1789 13.4688C11.2486 13.574 11.2853 13.6974 11.2843 13.8234C11.2828 13.9922 11.2139 14.1535 11.0926 14.2719C10.9713 14.3904 10.8076 14.4562 10.6375 14.455Z" fill="#04AFEF"/>
<path d="M29.7353 11.3827C29.8618 11.3828 29.9854 11.4201 30.0904 11.4901C30.1953 11.5601 30.2769 11.6596 30.3248 11.7757C30.3565 11.8529 30.3725 11.9355 30.372 12.0188C30.3724 12.1453 30.3348 12.2691 30.2641 12.3744C30.1934 12.4797 30.0927 12.5617 29.9749 12.6101C29.857 12.6585 29.7274 12.6711 29.6023 12.6462C29.4773 12.6213 29.3626 12.56 29.2728 12.4701C29.2056 12.403 29.1542 12.322 29.1225 12.2327C29.0908 12.1435 29.0795 12.0484 29.0894 11.9544C29.0993 11.8603 29.1302 11.7695 29.1798 11.6888C29.2294 11.608 29.2965 11.5392 29.3762 11.4873C29.4828 11.4179 29.6078 11.3815 29.7353 11.3827Z" fill="#044C82"/>
<path d="M37.6257 15.6152C37.6267 15.7844 37.5599 15.9471 37.44 16.0674C37.3202 16.1878 37.157 16.2559 36.9865 16.2569C36.816 16.2579 36.6521 16.1916 36.5308 16.0727C36.4095 15.9537 36.3408 15.7919 36.3399 15.6227C36.3389 15.4535 36.4056 15.2908 36.5255 15.1705C36.6454 15.0501 36.8085 14.982 36.979 14.981C37.1495 14.98 37.3134 15.0463 37.4347 15.1652C37.556 15.2842 37.6247 15.446 37.6257 15.6152Z" fill="#03AFEF"/>
<path d="M25.3647 20.5672C25.3657 20.6775 25.3379 20.7861 25.2839 20.8825C25.2299 20.9788 25.1517 21.0597 25.0568 21.1171C24.962 21.1745 24.8537 21.2065 24.7427 21.21C24.6316 21.2135 24.5216 21.1883 24.4232 21.137C24.3249 21.0856 24.2417 21.0098 24.1817 20.917C24.1217 20.8242 24.087 20.7175 24.081 20.6075C24.075 20.4974 24.0979 20.3876 24.1474 20.2889C24.1969 20.1902 24.2714 20.1059 24.3635 20.0443C24.469 19.9738 24.5932 19.9359 24.7205 19.9356C24.8047 19.9346 24.8883 19.9502 24.9664 19.9816C25.0444 20.0129 25.1155 20.0592 25.1754 20.118C25.2353 20.1767 25.2829 20.2467 25.3154 20.3238C25.3479 20.4009 25.3647 20.4836 25.3647 20.5672Z" fill="#034C82"/>
<path d="M28.3536 8.20191C28.4376 8.20135 28.5209 8.21727 28.5986 8.24876C28.6763 8.28025 28.747 8.32668 28.8066 8.38539C28.8662 8.4441 28.9135 8.51392 28.9458 8.59084C28.978 8.66775 28.9947 8.75025 28.9947 8.83356C28.997 8.91898 28.9819 9.00398 28.9505 9.08351C28.919 9.16305 28.8718 9.23551 28.8116 9.29659C28.7513 9.35768 28.6794 9.40614 28.5999 9.4391C28.5205 9.47207 28.4352 9.48887 28.3491 9.48851C28.263 9.48814 28.1778 9.4706 28.0987 9.43694C28.0195 9.40328 27.948 9.35418 27.8883 9.29256C27.8286 9.23093 27.782 9.15804 27.7513 9.07821C27.7206 8.99838 27.7063 8.91324 27.7094 8.82784C27.7096 8.74458 27.7266 8.66219 27.7592 8.58549C27.7918 8.50878 27.8395 8.43928 27.8995 8.38103C27.9594 8.32278 28.0304 8.27695 28.1084 8.2462C28.1864 8.21544 28.2698 8.20039 28.3536 8.20191Z" fill="#044C82"/>
<path d="M16.7214 15.6114C16.7238 15.7374 16.6882 15.8612 16.6192 15.9669C16.5501 16.0727 16.4508 16.1555 16.3339 16.2047C16.2563 16.2374 16.1729 16.2546 16.0886 16.255C15.9608 16.2574 15.8351 16.222 15.7276 16.1533C15.62 16.0846 15.5355 15.9858 15.4847 15.8693C15.4339 15.7529 15.4191 15.6241 15.4423 15.4993C15.4655 15.3745 15.5256 15.2593 15.6149 15.1685C15.6817 15.1006 15.7628 15.0483 15.8525 15.0153C15.9421 14.9824 16.038 14.9696 16.1333 14.978C16.2285 14.9863 16.3207 15.0156 16.4031 15.0636C16.4856 15.1117 16.5562 15.1773 16.61 15.2558C16.6818 15.3607 16.7206 15.4845 16.7214 15.6114Z" fill="#04609E"/>
<path d="M22.2715 8.82905C22.2706 8.7454 22.2865 8.66242 22.3185 8.58502C22.3505 8.50762 22.3978 8.43738 22.4577 8.37847C22.5175 8.31955 22.5887 8.27317 22.6669 8.24206C22.7452 8.21096 22.8289 8.19577 22.9132 8.19739C22.9972 8.19678 23.0805 8.21265 23.1583 8.24409C23.2362 8.27553 23.3069 8.32192 23.3666 8.3806C23.4565 8.46914 23.5178 8.58229 23.5425 8.70557C23.5672 8.82884 23.5543 8.95664 23.5054 9.07259C23.473 9.14978 23.4256 9.21987 23.3658 9.27886C23.3061 9.33786 23.2353 9.3846 23.1573 9.4164C23.0794 9.44821 22.9959 9.46446 22.9116 9.46424C22.8273 9.46401 22.7439 9.4473 22.6662 9.41508C22.5884 9.38291 22.5178 9.33585 22.4583 9.27658C22.3989 9.21731 22.3518 9.147 22.3198 9.06966C22.2877 8.99233 22.2713 8.90949 22.2715 8.82587V8.82905Z" fill="#044C82"/>
<path d="M19.9278 8.84038C19.9279 8.92381 19.9113 9.00642 19.8789 9.08343C19.8466 9.16043 19.7992 9.23031 19.7394 9.28902C19.6797 9.34772 19.6088 9.39412 19.5309 9.42552C19.453 9.45692 19.3697 9.47271 19.2856 9.47197C19.1156 9.47049 18.9531 9.40266 18.8331 9.28316C18.7131 9.16367 18.6454 9.00211 18.6445 8.83344C18.645 8.74918 18.6624 8.66586 18.6956 8.58832C18.7288 8.51078 18.7773 8.44058 18.8381 8.38179C18.899 8.32301 18.971 8.27682 19.05 8.24592C19.129 8.21502 19.2134 8.20002 19.2983 8.20179C19.3821 8.20188 19.4651 8.21856 19.5424 8.25085C19.6196 8.28314 19.6896 8.33039 19.7483 8.38984C19.8069 8.44929 19.853 8.51977 19.8839 8.59714C19.9147 8.67451 19.9296 8.7572 19.9278 8.84038Z" fill="#044D82"/>
<path d="M35.8086 15.6235C35.8065 15.7329 35.7759 15.8399 35.7199 15.9342C35.664 16.0284 35.5844 16.1068 35.4891 16.1617C35.3937 16.2166 35.2857 16.2462 35.1754 16.2476C35.0651 16.249 34.9564 16.2222 34.8596 16.1698C34.7628 16.1174 34.6813 16.0411 34.6228 15.9483C34.5644 15.8555 34.5311 15.7493 34.5261 15.64C34.521 15.5307 34.5445 15.422 34.5941 15.3243C34.6438 15.2266 34.7179 15.1432 34.8095 15.0822C34.9143 15.0124 35.0375 14.9749 35.1637 14.9742C35.2493 14.974 35.334 14.9907 35.413 15.0234C35.4919 15.0561 35.5635 15.1041 35.6236 15.1646C35.6836 15.225 35.7309 15.2968 35.7626 15.3756C35.7944 15.4544 35.8101 15.5386 35.8086 15.6235Z" fill="#04AFEF"/>
<path d="M13.627 12.0174C13.6277 11.9338 13.645 11.8512 13.6779 11.7742C13.7108 11.6972 13.7586 11.6274 13.8187 11.5688C13.8788 11.5101 13.9499 11.4638 14.0281 11.4325C14.1062 11.4012 14.1898 11.3854 14.2741 11.3862C14.4009 11.3872 14.5247 11.4256 14.6296 11.4965C14.7345 11.5673 14.8159 11.6674 14.8634 11.7842C14.911 11.9009 14.9226 12.029 14.8968 12.1523C14.871 12.2756 14.8089 12.3885 14.7184 12.4768C14.6279 12.5651 14.5131 12.6248 14.3884 12.6483C14.2637 12.6718 14.1348 12.6581 14.018 12.6089C13.9012 12.5598 13.8017 12.4773 13.7321 12.372C13.6625 12.2668 13.6259 12.1433 13.627 12.0174Z" fill="#038BD1"/>
<path d="M27.7109 3.43486C27.7109 3.26583 27.7786 3.10373 27.8991 2.98421C28.0195 2.86469 28.1829 2.79754 28.3532 2.79754C28.5235 2.79754 28.6869 2.86469 28.8074 2.98421C28.9278 3.10373 28.9955 3.26583 28.9955 3.43486C28.9955 3.60389 28.9278 3.76599 28.8074 3.88551C28.6869 4.00503 28.5235 4.07218 28.3532 4.07218C28.1829 4.07218 28.0195 4.00503 27.8991 3.88551C27.7786 3.76599 27.7109 3.60389 27.7109 3.43486Z" fill="#04AFEF"/>
<path d="M33.366 16.7793C33.5355 16.7806 33.6977 16.8484 33.8169 16.9679C33.9362 17.0875 34.003 17.249 34.0026 17.4172C34.0002 17.5878 33.93 17.7505 33.8074 17.87C33.6847 17.9894 33.5194 18.056 33.3475 18.0552C33.1773 18.0533 33.0147 17.9846 32.8955 17.8641C32.7762 17.7436 32.7098 17.5811 32.711 17.4122C32.7102 17.3274 32.7268 17.2434 32.7597 17.1651C32.7925 17.0869 32.841 17.0161 32.9022 16.9569C32.9635 16.8978 33.0361 16.8515 33.1158 16.821C33.1955 16.7905 33.2806 16.7763 33.366 16.7793Z" fill="#038BD1"/>
<path d="M19.2854 21.2134C19.1583 21.2133 19.0342 21.1757 18.9286 21.1054C18.8231 21.0351 18.741 20.9353 18.6927 20.8187C18.6444 20.702 18.6321 20.5738 18.6573 20.4502C18.6826 20.3266 18.7443 20.2132 18.8345 20.1245C18.9248 20.0357 19.0396 19.9755 19.1644 19.9516C19.2892 19.9277 19.4183 19.9411 19.5354 19.99C19.6525 20.039 19.7523 20.1214 19.8222 20.2268C19.892 20.3321 19.9288 20.4557 19.9278 20.5818C19.9278 20.6652 19.9112 20.7479 19.8788 20.8249C19.8465 20.9019 19.799 20.9717 19.7393 21.0304C19.6796 21.0892 19.6087 21.1356 19.5308 21.167C19.4529 21.1984 19.3695 21.2142 19.2854 21.2134Z" fill="#034C82"/>
<path d="M22.9151 21.2134C22.788 21.2138 22.6637 21.1768 22.5578 21.107C22.452 21.0372 22.3695 20.9378 22.3207 20.8214C22.2719 20.705 22.259 20.5769 22.2837 20.4532C22.3083 20.3296 22.3694 20.2159 22.4591 20.1267C22.5489 20.0375 22.6634 19.9767 22.788 19.9521C22.9126 19.9275 23.0418 19.9402 23.1592 19.9885C23.2765 20.0369 23.3768 20.1187 23.4472 20.2236C23.5176 20.3286 23.5551 20.4519 23.5548 20.578C23.5553 20.6615 23.5391 20.7443 23.5071 20.8216C23.4752 20.8989 23.4281 20.9691 23.3686 21.0282C23.3091 21.0873 23.2384 21.1341 23.1605 21.1659C23.0827 21.1976 22.9992 21.2138 22.9151 21.2134Z" fill="#044C82"/>
<path d="M24.7168 23.0091C24.547 23.0078 24.3846 22.9397 24.2652 22.8197C24.1459 22.6998 24.0794 22.5378 24.0802 22.3692C24.0782 22.2624 24.1032 22.1568 24.153 22.0621C24.2029 21.9675 24.2759 21.8867 24.3654 21.8274C24.4549 21.768 24.558 21.7319 24.6652 21.7225C24.7725 21.713 24.8804 21.7304 24.979 21.7731C25.0578 21.8072 25.1289 21.8566 25.1881 21.9184C25.2473 21.9802 25.2934 22.0532 25.3236 22.1331C25.3539 22.2129 25.3677 22.2979 25.3642 22.3831C25.3635 22.4665 25.3461 22.5489 25.3131 22.6256C25.2801 22.7023 25.2321 22.7717 25.1719 22.8299C25.1117 22.8881 25.0405 22.9339 24.9624 22.9647C24.8843 22.9954 24.8008 23.0105 24.7168 23.0091Z" fill="#04609E"/>
<path d="M19.9279 24.1821C19.9264 24.3509 19.8574 24.5122 19.7361 24.6307C19.6149 24.7491 19.4512 24.8149 19.2811 24.8138C19.1116 24.8103 18.9502 24.7412 18.8313 24.6214C18.7124 24.5015 18.6454 24.3403 18.6445 24.172C18.6442 24.0872 18.661 24.0031 18.6941 23.9248C18.7271 23.8465 18.7756 23.7756 18.8368 23.7162C18.8979 23.6568 18.9704 23.6102 19.05 23.5792C19.1296 23.5481 19.2147 23.5332 19.3002 23.5354C19.4272 23.5363 19.551 23.5751 19.6554 23.6468C19.7598 23.7184 19.8401 23.8196 19.8858 23.9372C19.9161 24.0153 19.9304 24.0985 19.9279 24.1821Z" fill="#048BD1"/>
<path d="M25.3647 3.43435C25.3665 3.56002 25.3306 3.68336 25.2617 3.78881C25.1928 3.89426 25.094 3.97708 24.9776 4.02681C24.9004 4.05983 24.8174 4.07743 24.7332 4.07861C24.6478 4.07926 24.5631 4.06316 24.484 4.03121C24.4049 3.99927 24.3329 3.95213 24.2722 3.89249C24.2115 3.83284 24.1633 3.76189 24.1303 3.68369C24.0973 3.60549 24.0803 3.5216 24.0801 3.43684C24.0811 3.26854 24.1494 3.10754 24.27 2.98913C24.3905 2.87073 24.5534 2.8046 24.723 2.80525C24.8495 2.80337 24.9736 2.83918 25.0794 2.90804C25.1851 2.9769 25.2677 3.07565 25.3163 3.19152C25.3485 3.26846 25.365 3.35102 25.3647 3.43435Z" fill="#04AFEF"/>
<path d="M11.8145 10.2231C11.8137 10.0544 11.8803 9.89236 11.9995 9.77224C12.1188 9.65212 12.2811 9.5837 12.4511 9.58194C12.5787 9.58049 12.7039 9.61667 12.8108 9.6859C12.9177 9.75514 13.0014 9.8543 13.0515 9.97082C13.0889 10.0579 13.1063 10.1522 13.1025 10.2469C13.0986 10.3415 13.0737 10.4341 13.0293 10.5179C12.985 10.6018 12.9225 10.6749 12.8462 10.7318C12.77 10.7888 12.6819 10.8282 12.5884 10.8472C12.495 10.8663 12.3984 10.8645 12.3057 10.842C12.213 10.8196 12.1264 10.7769 12.0524 10.7172C11.9783 10.6575 11.9185 10.5821 11.8774 10.4967C11.8363 10.4112 11.8148 10.3178 11.8145 10.2231Z" fill="#03AFEF"/>
<path d="M30.3733 19.208C30.3763 19.2919 30.3626 19.3756 30.3329 19.4543C30.3032 19.5329 30.2581 19.605 30.2003 19.6663C30.1425 19.7277 30.073 19.7771 29.9959 19.8117C29.9188 19.8463 29.8355 19.8655 29.7509 19.8682C29.6663 19.8708 29.582 19.8568 29.5029 19.827C29.4237 19.7973 29.3513 19.7523 29.2897 19.6946C29.2281 19.637 29.1786 19.5679 29.144 19.4912C29.1094 19.4146 29.0904 19.3319 29.0881 19.2479C29.0835 19.0792 29.1464 18.9156 29.2631 18.7928C29.3797 18.6701 29.5407 18.5982 29.7107 18.5929C29.8806 18.5876 30.0458 18.6493 30.17 18.7646C30.2942 18.8799 30.3673 19.0393 30.3733 19.208Z" fill="#044C82"/>
<path d="M19.9279 22.3819C19.928 22.4656 19.9111 22.5483 19.8784 22.6254C19.8458 22.7024 19.7979 22.7722 19.7376 22.8306C19.6773 22.8891 19.6059 22.9351 19.5275 22.9657C19.4491 22.9964 19.3653 23.0111 19.2811 23.0091C19.1115 23.0079 18.9493 22.9399 18.83 22.8203C18.7107 22.7006 18.644 22.5389 18.6445 22.3706C18.6462 22.2021 18.7142 22.041 18.834 21.9215C18.9537 21.8021 19.1158 21.7339 19.2856 21.7314C19.371 21.7315 19.4556 21.7485 19.5343 21.7814C19.6131 21.8143 19.6844 21.8625 19.7442 21.923C19.804 21.9836 19.851 22.0554 19.8826 22.1342C19.9141 22.2129 19.9295 22.2972 19.9279 22.3819Z" fill="#04609E"/>
<path d="M29.7271 14.455C29.6321 14.4541 29.5384 14.4322 29.453 14.391C29.3675 14.3498 29.2923 14.2903 29.2328 14.2167C29.1734 14.1432 29.1311 14.0574 29.1092 13.9657C29.0872 13.8739 29.0861 13.7785 29.1058 13.6862C29.1322 13.5629 29.1948 13.4501 29.2859 13.3621C29.377 13.2741 29.4923 13.215 29.6173 13.1922C29.7107 13.1751 29.8068 13.1788 29.8987 13.2031C29.9905 13.2274 30.0757 13.2716 30.1482 13.3325C30.2207 13.3934 30.2787 13.4696 30.3179 13.5555C30.3572 13.6413 30.3767 13.7348 30.3751 13.829C30.3744 13.9125 30.357 13.9949 30.324 14.0717C30.2908 14.1484 30.2428 14.2178 30.1825 14.276C30.1223 14.3342 30.051 14.38 29.9728 14.4107C29.8947 14.4415 29.8112 14.4565 29.7271 14.455Z" fill="#044C82"/>
<path d="M25.365 24.1643C25.366 24.2906 25.3293 24.4143 25.2595 24.5198C25.1897 24.6253 25.0899 24.7079 24.9727 24.757C24.8851 24.7938 24.7904 24.8109 24.6953 24.8069C24.6003 24.8029 24.5073 24.778 24.4231 24.734C24.3389 24.69 24.2656 24.628 24.2086 24.5525C24.1515 24.477 24.112 24.3898 24.093 24.2973C24.074 24.2048 24.076 24.1093 24.0987 24.0176C24.1215 23.9259 24.1645 23.8404 24.2246 23.7673C24.2847 23.6941 24.3605 23.6351 24.4464 23.5945C24.5323 23.554 24.6262 23.5328 24.7214 23.5327C24.8055 23.5318 24.8891 23.5475 24.9671 23.5788C25.0451 23.6101 25.1161 23.6565 25.176 23.7152C25.2359 23.774 25.2833 23.8439 25.3158 23.921C25.3482 23.9981 25.3649 24.0808 25.365 24.1643Z" fill="#048BD1"/>
<path d="M19.9274 25.9759C19.9274 26.0593 19.9107 26.1419 19.8784 26.2189C19.846 26.2959 19.7986 26.3658 19.739 26.4245C19.6792 26.4833 19.6084 26.5296 19.5305 26.561C19.4526 26.5924 19.3692 26.6082 19.2851 26.6075C19.1161 26.6041 18.9552 26.5347 18.8375 26.4143C18.7197 26.2939 18.6546 26.1323 18.6563 25.9646C18.658 25.7968 18.7263 25.6365 18.8464 25.5184C18.9665 25.4004 19.1287 25.3341 19.2978 25.3341C19.3819 25.3344 19.465 25.3513 19.5425 25.3838C19.6199 25.4164 19.69 25.4639 19.7486 25.5236C19.8073 25.5834 19.8533 25.6542 19.884 25.7319C19.9147 25.8095 19.9295 25.8925 19.9274 25.9759ZM22.8976 28.4026C22.8135 28.4021 22.7303 28.3848 22.653 28.3518C22.5757 28.3188 22.5058 28.2708 22.4475 28.2105C22.3892 28.1503 22.3437 28.0791 22.3137 28.0011C22.2836 27.9231 22.2696 27.8399 22.2725 27.7564C22.2745 27.6728 22.293 27.5904 22.3272 27.5139C22.3613 27.4374 22.4102 27.3683 22.4712 27.3107C22.5322 27.2529 22.6041 27.2077 22.6827 27.1775C22.7613 27.1474 22.8452 27.1329 22.9295 27.1349C23.0996 27.139 23.2612 27.2099 23.3787 27.3321C23.4369 27.3926 23.4825 27.4639 23.5129 27.542C23.5433 27.62 23.5579 27.7032 23.5559 27.7868C23.5538 27.8702 23.5351 27.9524 23.5008 28.0287C23.4665 28.1049 23.4174 28.1736 23.3562 28.2309C23.2949 28.2881 23.2229 28.3328 23.1442 28.3622C23.0655 28.3917 22.9817 28.4054 22.8976 28.4026Z" fill="#04AFEF"/>
<path d="M14.9104 13.8094C14.9114 13.9354 14.8747 14.0588 14.805 14.1641C14.7353 14.2694 14.6357 14.3517 14.5188 14.4008C14.4019 14.4498 14.2729 14.4634 14.1483 14.4397C14.0236 14.4161 13.9088 14.3563 13.8183 14.268C13.7507 14.2019 13.6987 14.1218 13.6661 14.0334C13.6334 13.9449 13.621 13.8504 13.6296 13.7567C13.6382 13.6629 13.6677 13.5722 13.7159 13.4911C13.7641 13.41 13.8298 13.3405 13.9084 13.2876C14.0312 13.2049 14.1791 13.167 14.3269 13.1804C14.4747 13.1937 14.6133 13.2575 14.719 13.3609C14.8402 13.4793 14.909 13.6407 14.9104 13.8094Z" fill="#048BD1"/>
<path d="M25.3646 1.6468C25.3645 1.73028 25.3479 1.81293 25.3155 1.88997C25.2831 1.96702 25.2356 2.03692 25.1758 2.09565C25.116 2.15438 25.0451 2.20077 24.9671 2.23214C24.8892 2.2635 24.8057 2.27923 24.7216 2.27839C24.6261 2.27856 24.5317 2.25765 24.4453 2.21717C24.3589 2.1767 24.2827 2.11766 24.2222 2.04435C24.1616 1.97104 24.1182 1.88529 24.0952 1.79329C24.0722 1.7013 24.07 1.60538 24.0889 1.51247C24.1079 1.41954 24.1474 1.33196 24.2047 1.25607C24.2619 1.18017 24.3355 1.11787 24.42 1.07367C24.5045 1.02947 24.5979 1.00448 24.6933 1.00051C24.7888 0.996538 24.8839 1.01369 24.9719 1.05072C25.0895 1.10024 25.1897 1.18336 25.2596 1.2895C25.3295 1.39564 25.366 1.52001 25.3646 1.6468Z" fill="#03AFEF"/>
<path d="M16.7219 10.223C16.7224 10.3063 16.7064 10.3889 16.6746 10.466C16.6429 10.5432 16.5962 10.6133 16.537 10.6725C16.4779 10.7316 16.4075 10.7785 16.3299 10.8105C16.2524 10.8426 16.1693 10.859 16.0853 10.8591C15.9163 10.8562 15.7553 10.7875 15.637 10.6678C15.5187 10.5481 15.4526 10.3869 15.4531 10.2192C15.4536 10.0515 15.5206 9.89079 15.6397 9.77175C15.7587 9.65271 15.9202 9.58496 16.0891 9.58315C16.1731 9.58362 16.2562 9.60059 16.3335 9.63307C16.4108 9.66556 16.4809 9.71291 16.5397 9.7724C16.5985 9.83189 16.6449 9.90232 16.6761 9.97966C16.7074 10.057 16.7229 10.1397 16.7219 10.223Z" fill="#03609E"/>
<path d="M28.3565 5.87252C28.2722 5.87252 28.1888 5.85606 28.111 5.82407C28.0331 5.79207 27.9624 5.74518 27.9028 5.68606C27.8432 5.62694 27.7959 5.55676 27.7637 5.47951C27.7314 5.40227 27.7148 5.31948 27.7148 5.23587C27.7148 5.15226 27.7314 5.06947 27.7637 4.99222C27.7959 4.91497 27.8432 4.84478 27.9027 4.78566C27.9623 4.72653 28.0331 4.67963 28.1109 4.64763C28.1887 4.61563 28.2722 4.59916 28.3564 4.59916C28.5266 4.59915 28.6898 4.66622 28.8101 4.78561C28.9305 4.90501 28.9981 5.06695 28.9981 5.23581C28.9981 5.40466 28.9305 5.56661 28.8102 5.68602C28.6899 5.80542 28.5267 5.87251 28.3565 5.87252Z" fill="#048BD1"/>
<path d="M22.919 5.87234C22.7488 5.8733 22.5852 5.80718 22.4642 5.68851C22.3431 5.56983 22.2745 5.40832 22.2734 5.23947C22.2727 5.11355 22.3096 4.99024 22.3794 4.88512C22.4493 4.78001 22.549 4.69781 22.666 4.64892C22.7829 4.60004 22.9118 4.58666 23.0364 4.61048C23.161 4.6343 23.2757 4.69425 23.366 4.78275C23.4563 4.87125 23.5181 4.98432 23.5436 5.10767C23.5691 5.23102 23.5572 5.35911 23.5093 5.47573C23.4615 5.59236 23.3799 5.69229 23.2748 5.76288C23.1697 5.83348 23.0459 5.87157 22.919 5.87234Z" fill="#038BD1"/>
<path d="M25.3672 5.24461C25.3673 5.37034 25.3293 5.49319 25.2582 5.59723C25.187 5.70128 25.086 5.78173 24.9683 5.82816C24.8901 5.85899 24.8065 5.87404 24.7224 5.87245C24.6274 5.87195 24.5336 5.85051 24.4479 5.80968C24.3623 5.76885 24.2868 5.70965 24.227 5.63635C24.1672 5.56305 24.1245 5.47749 24.1021 5.38584C24.0797 5.29419 24.078 5.19874 24.0973 5.10639C24.1298 4.95134 24.2193 4.81385 24.3484 4.72076C24.4775 4.62767 24.6369 4.58566 24.7956 4.60292C24.9542 4.62019 25.1007 4.69549 25.2064 4.81414C25.3121 4.93279 25.3694 5.08626 25.3672 5.24461Z" fill="#048BD1"/>
<path d="M22.9081 26.6076C22.824 26.6076 22.7407 26.5911 22.6632 26.5589C22.5462 26.5107 22.4465 26.4288 22.3767 26.324C22.3069 26.2191 22.2703 26.0959 22.2715 25.9703C22.2725 25.8014 22.341 25.6398 22.4619 25.5211C22.5218 25.4622 22.5928 25.4157 22.6708 25.3841C22.7489 25.3526 22.8324 25.3366 22.9167 25.337C23.0009 25.3374 23.0843 25.3543 23.162 25.3867C23.2397 25.4191 23.3102 25.4664 23.3695 25.5259C23.4287 25.5853 23.4756 25.6558 23.5074 25.7332C23.5392 25.8107 23.5553 25.8936 23.5548 25.9772C23.5542 26.0608 23.5369 26.1434 23.5041 26.2203C23.4712 26.2972 23.4233 26.367 23.3632 26.4255C23.3032 26.4841 23.232 26.5303 23.1539 26.5616C23.0758 26.5928 22.9923 26.6085 22.9081 26.6076ZM35.8097 19.2206C35.8078 19.3466 35.7682 19.4692 35.696 19.5729C35.6238 19.6765 35.5223 19.7566 35.4041 19.803C35.3159 19.8376 35.2209 19.8524 35.1262 19.8463C35.0314 19.8402 34.9392 19.8132 34.8562 19.7674C34.7732 19.7216 34.7015 19.6581 34.6462 19.5815C34.591 19.5049 34.5535 19.4171 34.5366 19.3244C34.5197 19.2316 34.5238 19.1364 34.5485 19.0454C34.5732 18.9544 34.6179 18.87 34.6795 18.7982C34.741 18.7265 34.8178 18.6692 34.9044 18.6305C34.991 18.5918 35.0851 18.5726 35.1801 18.5744C35.2643 18.5753 35.3475 18.5928 35.4249 18.6259C35.5023 18.6589 35.5723 18.7069 35.6309 18.767C35.6895 18.8271 35.7355 18.8981 35.7662 18.976C35.7969 19.0538 35.8117 19.137 35.8097 19.2206Z" fill="#04AFEF"/>
</g>
<defs>
<clipPath id="clip0_632_17573">
<rect width="59" height="28" fill="white" transform="translate(10 1)"/>
</clipPath>
</defs>
</svg>
