<svg width="173" height="31" viewBox="0 0 173 31" fill="none" xmlns="http://www.w3.org/2000/svg">
<path d="M85.6718 1.61539L83.6073 18.4369H80.4321L82.5274 1.61539H70.5143L69.052 13.2493C68.891 14.8461 68.594 17.6946 69.2257 19.6815C70.6305 24.1353 74.3576 25.7307 74.3576 25.7307L74.7932 25.9679C76.3535 26.7663 78.1435 27.0245 79.7598 27.0245H80.8803C83.8594 27.0161 86.2881 26.358 88.2713 25.3631C88.2756 25.3519 88.3918 25.3126 88.3918 25.3126C89.0389 24.9267 92.7127 23.024 94.9985 18.5225C95.8473 16.8232 95.9159 16.4626 96.3908 13.7152L97.8614 1.61539" fill="black"/>
<path d="M48.8125 25.9763L49.8587 17.4365H53.4877L53.555 17.3986L52.5017 25.9763H64.2865L67.2727 1.61401H55.4864L54.4542 10.0557L54.4332 10.0458H50.7887L50.7551 10.0557L51.7818 1.61401H39.9941L37.0234 25.9763H48.8125Z" fill="black"/>
<path d="M162.932 2.67199V3.52092H163.346C163.792 3.52092 163.995 3.41849 163.995 3.11259C163.995 2.79406 163.792 2.67199 163.332 2.67199H162.932ZM164.498 3.06348C164.498 3.42971 164.278 3.68229 163.905 3.75806L164.481 4.93815H163.935L163.415 3.82962H162.932V4.93815H162.449V2.34784H163.415C164.138 2.34784 164.498 2.59481 164.498 3.06348ZM164.769 2.29592C164.391 1.91285 163.905 1.70518 163.367 1.70518C162.832 1.70518 162.352 1.91005 161.991 2.27488C161.608 2.66637 161.39 3.16731 161.39 3.6879C161.39 4.20287 161.598 4.69539 161.974 5.07145C162.344 5.45172 162.838 5.6622 163.346 5.6622C163.879 5.6622 164.365 5.45733 164.764 5.07706C165.135 4.71785 165.331 4.23514 165.331 3.70613C165.331 3.15468 165.139 2.66637 164.769 2.29592ZM164.979 2.09247C165.397 2.51483 165.634 3.08312 165.634 3.6879C165.634 4.31092 165.407 4.875 164.975 5.28614C164.523 5.72253 163.953 5.96529 163.363 5.96529C162.751 5.96529 162.191 5.72253 161.758 5.27772C161.328 4.84273 161.093 4.28706 161.093 3.6879C161.093 3.08593 161.343 2.50641 161.782 2.05177C162.199 1.63222 162.741 1.4091 163.363 1.4091C163.971 1.4091 164.54 1.64765 164.979 2.09247Z" fill="black"/>
<path d="M156.071 19.5706L141.806 19.5594L142.246 16.3292H156.473L157.233 10.1186L143.095 10.1299L143.494 7.20421H157.588L158.273 1.60965H132.111L129.883 19.7853L120.933 15.215C120.933 15.215 123.403 14.5078 124.754 13.5663C126.161 12.577 126.754 11.5962 127.02 11.1388C127.517 10.2982 128.058 9.32163 128.118 7.48485C128.185 5.59474 127.191 4.23784 126.66 3.61763C126.123 2.97497 124.81 1.5858 122.494 1.61527H101.084L100.395 7.1186H117.346L116.941 10.0906H100.044L98.0928 25.9748H108.383L109.385 17.9092L128.71 29.5908L129.139 25.9804H155.289L156.071 19.5706Z" fill="black"/>
<path d="M16.0788 1.61115C14.5059 1.61676 13.1109 2.15839 11.9918 3.03819L11.9386 3.04801C11.9246 3.04801 11.9246 3.03819 11.9246 3.03819V3.04801C8.35161 5.84038 7.57707 11.9597 12.6473 14.4742C13.3252 14.7998 24.5316 19.356 24.5316 19.356L24.5526 19.37L7.84456 19.3728L7.03223 25.9931L27.5513 25.9847C30.6747 25.9875 32.8275 24.8004 34.3163 22.69C34.8527 21.9687 35.2141 21.2517 35.455 20.5206C36.2338 18.2236 36.0825 15.6122 34.5348 14.3536C34.2001 14.0968 33.9143 13.8596 33.6076 13.6786C33.3975 13.5538 33.0474 13.3349 32.7476 13.1875C30.0836 11.9275 18.6952 7.09905 18.6952 7.09905L36.3094 7.09063L36.9859 1.61675L16.0788 1.61115Z" fill="black"/>
</svg>
