<svg width="200" height="31" viewBox="0 0 200 31" fill="none" xmlns="http://www.w3.org/2000/svg">
<path fill-rule="evenodd" clip-rule="evenodd" d="M40.4542 21.8505L45.9691 14.9774L40.2908 14.9754L37.582 18.3687L40.4542 21.8505Z" fill="#D2592C"/>
<path fill-rule="evenodd" clip-rule="evenodd" d="M30.1857 18.4207C31.2873 18.4207 32.2314 18.901 32.9198 19.7138C33.1687 20.0075 33.2484 20.0901 33.439 20.3341C34.0933 21.1713 34.3189 21.4747 34.701 21.955C34.3189 22.4197 34.0982 22.7377 33.439 23.5768C33.2494 23.8169 33.1697 23.9015 32.9198 24.1971C32.2314 25.009 31.2883 25.4883 30.1857 25.4883C29.266 25.4619 28.3929 25.078 27.7518 24.4181C27.1106 23.7583 26.752 22.8745 26.752 21.9545C26.752 21.0345 27.1106 20.1507 27.7518 19.4908C28.3929 18.831 29.266 18.4471 30.1857 18.4207Z" fill="#4375B0"/>
<path fill-rule="evenodd" clip-rule="evenodd" d="M172.013 29.407H176.706L176.711 23.7823L178.516 21.9553L183.188 29.4099H188.832L181.85 18.9801L188.105 12.5037H182.575L176.706 18.7779L176.713 5.97079H172.001L172.013 29.407ZM140.785 29.4099L140.78 21.3224H143.429C149.098 21.4167 153.58 19.8134 153.58 13.5566C153.58 8.44723 149.633 5.7423 143.94 5.96788H135.793V29.4099H140.785ZM144.171 10.0019C146.994 9.88818 148.747 11.018 148.775 13.6004C148.804 16.2149 146.859 17.3019 144.288 17.2339H140.795V10.0019H144.171ZM157.988 17.8056C157.988 17.8056 157.697 15.2105 161.334 15.2689C162.848 15.2961 164.226 16.0428 164.131 17.3739C164.062 18.351 163.251 18.6029 161.604 18.8459C158.925 19.1804 157.042 19.617 155.763 20.2422C154.115 21.0492 152.722 22.7614 152.854 24.8576C153.055 28.0964 156.409 29.9953 159.686 29.8533C163.488 29.6909 164.19 27.4002 164.19 27.4002C164.248 27.7765 164.259 27.7794 164.337 28.3181C164.447 29.0735 164.603 29.4187 164.603 29.4187H169.395C169.135 29.1883 169.018 29.1008 168.873 28.8081C168.697 28.4318 168.67 28.0847 168.67 27.6793V17.9825C168.67 13.2212 164.846 12.0058 161.094 11.9436C154.027 11.8269 154.031 16.8838 153.883 17.687V17.6918L157.988 17.8056ZM160.74 26.4474C159.317 26.5893 157.478 26.1839 157.41 24.3832C157.342 22.6272 159.818 22.1391 161.063 21.8863C162.076 21.6792 163.014 21.4206 163.706 21.1338C164.12 20.9655 164.199 20.8285 164.199 20.8285V23.1697C164.108 24.9247 162.937 26.2325 160.74 26.4474ZM67.2509 29.4099V10.1254H74.406V5.93579H55.2168V10.1254H62.2611V29.4099H67.2509Z" fill="#2566AF"/>
<path fill-rule="evenodd" clip-rule="evenodd" d="M70.8237 21.4877C71.1397 27.7484 76.4368 30.0916 79.5948 29.9973C86.4554 29.8028 87.7864 24.391 87.7864 24.391L82.9862 24.1081C82.9862 24.1081 82.2268 26.2734 79.5832 26.2598C75.5481 26.2403 75.4431 22.2286 75.4431 22.2286H87.9673C87.9673 22.2286 88.4311 12.1411 79.1437 12.0088C73.8836 11.934 70.5641 16.3598 70.8237 21.4877ZM83.0251 18.9452H75.5783C75.5783 18.9452 75.8962 15.7104 79.2351 15.6812C82.5302 15.6501 83.0251 18.9452 83.0251 18.9452ZM101.127 29.41H105.785V21.7376C105.785 19.5888 106.214 17.6462 108.137 16.6875C109.127 16.1946 109.92 16.1372 111.025 16.2821V12.2713C110.877 12.1809 110.331 12.1235 109.808 12.0983C108.302 12.0185 106.863 12.8936 106.007 14.4269C105.908 14.613 105.821 14.8049 105.745 15.0015L105.585 12.5883H101.127V29.41ZM88.2988 15.7706L90.6265 15.7784V24.4017C90.6265 25.797 90.7694 27.5597 92.1083 28.5495C93.4481 29.5364 95.276 29.41 96.995 29.4032C97.7243 29.4003 98.4408 29.4003 98.4408 29.4003L98.4486 25.9302H97.3499C96.5935 25.9302 96.1491 25.8815 95.7729 25.5928C95.1846 25.1416 95.2245 24.392 95.2245 23.9856V15.7697H98.3465V12.5718H95.2313V7.23387L90.6265 7.21345V12.5533L88.2988 12.5737V15.7706ZM116.187 17.794C116.187 17.794 115.896 15.198 119.535 15.2543C121.051 15.2855 122.43 16.0302 122.336 17.3623C122.268 18.3404 121.453 18.5922 119.805 18.8363C117.125 19.1708 115.239 19.6083 113.96 20.2335C112.309 21.0405 110.916 22.7537 111.048 24.8499C111.251 28.0955 114.607 29.9944 117.889 29.8524C121.692 29.69 122.395 27.3954 122.395 27.3954C122.453 27.7727 122.465 27.7785 122.543 28.3142C122.651 29.0726 122.809 29.4178 122.809 29.4178H127.607C127.343 29.1874 127.227 29.0998 127.081 28.8072C126.907 28.4309 126.878 28.0838 126.878 27.6745V17.9709C126.878 13.2057 123.051 11.9884 119.296 11.9271C112.223 11.8114 112.226 16.8722 112.079 17.6754V17.6783L116.187 17.794ZM118.943 26.4474C117.516 26.5874 115.68 26.182 115.609 24.3803C115.541 22.6234 118.019 22.1333 119.264 21.8786C120.279 21.6725 121.218 21.4138 121.911 21.127C122.325 20.9569 122.405 20.8207 122.405 20.8207V23.164C122.312 24.918 121.141 26.2296 118.943 26.4474ZM27.4457 29.3069C26.7544 29.131 26.103 28.7586 25.8949 28.6322C23.6713 27.2389 22.1953 24.8179 22.1953 21.9476C22.1953 17.5431 25.7724 13.9777 30.1837 13.9777C32.3578 13.9777 34.526 14.8119 36.2479 16.8207L36.3461 16.9374L36.4181 16.8859L27.7899 2L11.959 29.3808H27.4428L27.4457 29.3069ZM33.053 29.3069L33.0549 29.3808H43.6724V29.2962C43.6724 29.2962 43.5139 29.2739 43.3467 29.2544C42.7732 29.1723 42.2121 29.0195 41.6762 28.7994C40.0749 28.1373 38.7282 26.8334 37.5839 25.4858C37.5839 25.4858 36.7292 26.5962 35.9728 27.4236C34.8478 28.6536 33.6315 29.164 33.053 29.3069Z" fill="#2566AF"/>
</svg>
