<svg width="170" height="44" viewBox="0 0 170 44" fill="none" xmlns="http://www.w3.org/2000/svg">
<path d="M13.4231 11.2019C12.5106 11.8103 12.0543 12.8749 12.2064 13.9395C12.3585 14.6239 12.6627 15.2322 13.119 15.6885C12.8908 14.6999 13.271 13.6353 14.0315 12.9509L14.1075 12.8749C14.868 12.1905 16.8451 10.6696 16.9972 9.98522C17.1493 10.4415 17.2253 10.8977 17.1493 11.354C17.5295 10.9738 17.9097 10.5175 18.2139 10.0613C18.7462 8.99665 18.7462 7.77995 18.1379 6.79138C17.7576 6.18303 17.2253 5.65072 16.617 5.19446C17.3774 8.08412 14.4117 10.5175 13.4231 11.2019ZM15.2482 14.0155C13.9554 14.852 13.271 16.3729 13.4992 17.9698C13.5752 18.198 13.5752 18.4261 13.6513 18.6542H15.0961C15.0201 17.8177 15.4003 17.0573 16.0847 16.601C16.0847 16.601 19.3546 14.2437 20.5713 12.4947C20.7994 13.027 20.9515 13.5593 21.0275 14.1676C22.2442 12.8749 23.0807 11.4301 22.5484 10.0613C22.0161 8.76852 21.1796 7.7039 19.9629 7.01951C20.4952 9.90917 16.617 12.9509 15.2482 14.0155ZM22.3203 13.4072C22.0161 14.2437 19.1264 16.7531 18.1379 17.6656C17.8337 17.8938 17.6055 18.198 17.4535 18.5782H20.191C20.7233 18.1219 21.7119 17.4375 21.788 17.0573C21.94 17.3615 21.94 17.6656 21.864 17.9698C22.8526 16.9813 23.6891 15.8406 23.2328 14.852C23.0047 14.2437 22.7005 13.7874 22.3203 13.4072Z" fill="url(#paint0_linear_339_13927)"/>
<path d="M44.6765 4.4333C44.8286 4.12913 44.9046 3.901 44.9807 3.59682C44.9807 3.06451 44.5244 2.98847 43.764 2.98847C43.1556 2.98847 42.6994 3.06451 42.6994 3.52078C42.7754 3.901 42.8514 4.20517 43.0796 4.50935L43.9161 6.3344L44.6765 4.4333ZM43.0035 10.5168L40.1899 16.9805H39.4295L34.1064 4.73748C33.6501 3.74891 33.422 2.91243 32.2813 2.91243H31.9772V2.30408C32.8137 2.30408 34.0304 2.38012 35.0189 2.38012C35.9315 2.38012 36.9961 2.30408 37.6805 2.30408V2.91243H37.5284C37.0721 2.91243 36.6158 2.98847 36.6158 3.36869C36.7679 4.12913 36.9961 4.81352 37.3763 5.49792L40.8743 13.4065L42.6233 9.37615L39.9618 3.44473C39.7336 2.98847 39.2013 2.91243 38.669 2.91243V2.30408C39.6576 2.30408 40.6462 2.38012 41.6347 2.38012C42.3952 2.38012 43.1556 2.30408 43.9921 2.30408C44.8286 2.30408 45.3609 2.38012 46.0453 2.38012C46.7297 2.38012 47.338 2.30408 47.9464 2.30408V2.91243H47.7182C46.6536 2.91243 46.4255 3.29265 45.8932 4.4333L44.6765 7.24693L47.262 13.2544L50.3037 4.66143C50.4558 4.28122 50.5319 3.901 50.6079 3.52078C50.6079 3.06451 50.2277 2.91243 49.3152 2.91243H49.087V2.30408C49.7714 2.30408 50.4558 2.38012 51.2163 2.38012C51.9767 2.38012 52.509 2.30408 53.1174 2.30408V2.91243H52.8892C52.2809 2.91243 51.9007 3.59682 51.5965 4.28122L46.5776 17.0566H45.8172L43.0035 10.5168Z" fill="#00535D"/>
<path d="M53.6492 16.144H53.8773C54.5617 16.144 55.2461 16.0679 55.2461 15.1554V5.87805C55.2461 4.96553 54.5617 4.88949 53.8773 4.88949H53.6492V4.35718C54.7898 4.35718 56.6149 4.43322 58.2118 4.43322C59.8087 4.43322 61.6338 4.35718 62.8505 4.35718C62.7744 5.2697 62.7744 6.18223 62.8505 7.09475L62.3182 7.24685C62.2421 6.10619 62.014 5.19366 60.1129 5.19366H57.6034V9.83234H59.7327C60.7973 9.83234 61.0254 9.22399 61.1775 8.31146H61.7098C61.7098 8.99585 61.6338 9.68025 61.6338 10.3646C61.6338 11.049 61.6338 11.7334 61.7098 12.3418L61.1775 12.4178C61.0254 11.3532 61.0254 10.6688 59.7327 10.6688H57.5274V14.7752C57.5274 15.9158 58.592 15.9158 59.7327 15.9158C61.9379 15.9158 62.8505 15.7638 63.3828 13.7866L63.9151 13.9387C63.687 14.8512 63.4588 15.8398 63.3067 16.7523C62.1661 16.7523 60.0368 16.6763 58.4399 16.6763C56.843 16.6763 54.6377 16.7523 53.5731 16.7523L53.6492 16.144Z" fill="#00535D"/>
<path d="M72.7363 7.01859C72.7363 5.80189 71.8238 4.81332 70.6071 4.73727C69.4664 4.58519 68.4779 5.42167 68.4018 6.56233C68.4018 6.71442 68.4018 6.8665 68.4018 7.01859C68.4018 9.90826 73.877 9.07178 73.877 13.3302C73.877 15.7636 71.8238 17.0564 69.4664 17.0564C68.4779 17.0564 67.4893 16.7522 66.5768 16.2959C66.5007 15.3834 66.3486 14.5469 66.2726 13.6344L66.8049 13.5584C67.033 15.0792 67.8695 16.372 69.6185 16.372C70.7592 16.448 71.7477 15.6876 71.8238 14.5469C71.8238 14.4709 71.8238 14.4709 71.8238 14.3948C71.8238 11.277 66.5007 12.2656 66.5007 8.00716C66.5007 5.72585 68.1737 4.35706 70.531 4.35706C71.0633 4.35706 72.5842 4.50915 73.1165 4.58519C73.1165 5.42167 73.1926 6.25815 73.2686 7.09463L72.7363 7.01859Z" fill="#00535D"/>
<path d="M77.4508 5.26978C76.082 5.26978 76.0059 5.57396 75.7778 6.8667H75.2455C75.3215 6.3344 75.3976 5.87813 75.4736 5.34583C75.5497 4.81352 75.6257 4.35726 75.6257 3.82495H76.082C76.2341 4.35726 76.6903 4.35726 77.1466 4.35726H86.5C86.9562 4.35726 87.4125 4.35726 87.4885 3.82495L87.9448 3.90099C87.8688 4.35726 87.7927 4.81352 87.7167 5.34583C87.6406 5.80209 87.7167 6.25836 87.7167 6.79066L87.1844 7.01879C87.1844 6.3344 87.0323 5.34583 85.8156 5.34583H82.7738V14.7753C82.7738 16.1441 83.3822 16.2961 84.2947 16.2961H84.5989V16.8284C83.9145 16.8284 82.6217 16.7524 81.6332 16.7524C80.6446 16.7524 79.2758 16.8284 78.5914 16.8284V16.2961H78.8956C79.8842 16.2961 80.4165 16.2201 80.4165 14.7753V5.26978H77.4508Z" fill="#00535D"/>
<path d="M107.944 6.56263C107.335 4.58549 106.347 2.91253 103.229 2.91253C99.7311 2.91253 97.906 5.57406 97.906 9.14812C97.906 12.5701 99.7311 16.0681 103.685 16.0681C105.739 16.1442 107.564 14.6993 108.02 12.6461L108.628 12.7222C108.4 13.7868 108.172 14.9275 108.096 16.0681C106.575 16.6765 104.902 16.9806 103.229 16.9806C98.4383 16.9806 94.9403 14.4712 94.9403 9.30021C94.9403 4.66153 98.7425 2 103.153 2C105.662 2 106.423 2.76044 108.4 2.98857C108.4 4.12923 108.4 5.26989 108.552 6.41055L107.944 6.56263Z" fill="#00535D"/>
<path d="M117.374 16.2211C120.872 16.2211 121.481 13.1793 121.481 10.5939C121.481 8.00837 120.036 4.89057 116.994 4.89057C113.8 4.89057 112.888 7.62814 112.888 9.9855C112.888 13.1793 114.409 16.2211 117.374 16.2211ZM117.07 4.13013C120.948 4.13013 124.066 6.48749 124.066 10.2136C124.142 13.8637 121.328 16.9055 117.678 16.9815C117.526 16.9815 117.374 16.9815 117.222 16.9815C113.344 16.9815 110.454 14.4721 110.454 10.6699C110.454 7.09584 113.344 4.13013 116.994 4.13013H117.07Z" fill="#00535D"/>
<path d="M129.465 6.33391L127.792 11.3528H131.214L129.465 6.33391ZM126.803 14.1664C126.651 14.6227 126.499 15.079 126.423 15.5352C126.423 16.0675 127.183 16.1436 127.792 16.1436H128.02V16.6759C127.335 16.5998 126.575 16.5998 125.815 16.5998C125.054 16.5998 124.522 16.5998 123.837 16.6759V16.1436H123.913C124.598 16.1436 125.282 15.6873 125.51 15.0029L128.4 6.94227C128.704 6.25787 128.932 5.49743 129.084 4.73699C129.693 4.50886 130.225 4.28073 130.757 3.97656C130.833 3.97656 130.833 3.97656 130.909 3.90051C130.986 3.90051 130.986 3.90051 131.062 3.97656C131.138 4.0526 131.138 4.28073 131.214 4.43282L134.56 13.6341C134.788 14.2425 135.016 14.9269 135.244 15.4592C135.472 15.9154 135.928 16.2196 136.461 16.1436H136.613V16.6759C135.776 16.5998 135.016 16.5998 134.103 16.5998C133.191 16.5998 132.278 16.5998 131.366 16.6759V16.1436H131.594C132.05 16.1436 132.735 16.0675 132.735 15.6113C132.658 15.155 132.506 14.7748 132.354 14.3185L131.67 12.2653H127.488L126.803 14.1664Z" fill="#00535D"/>
<path d="M144.445 7.01859C144.445 5.80189 143.533 4.81332 142.316 4.73727C141.175 4.58519 140.187 5.42167 140.111 6.56233C140.111 6.71442 140.111 6.8665 140.111 7.01859C140.111 9.90826 145.586 9.07178 145.586 13.3302C145.586 15.7636 143.533 17.0564 141.175 17.0564C140.187 17.0564 139.198 16.7522 138.285 16.2959C138.209 15.3834 138.057 14.5469 137.981 13.6344L138.514 13.5584C138.742 15.0792 139.578 16.372 141.327 16.372C142.468 16.448 143.456 15.6876 143.533 14.5469C143.533 14.4709 143.533 14.4709 143.533 14.3948C143.533 11.277 138.209 12.2656 138.209 8.00716C138.209 5.72585 139.882 4.35706 142.24 4.35706C142.772 4.35706 144.293 4.50915 144.825 4.58519C144.825 5.42167 144.901 6.25815 144.977 7.09463L144.445 7.01859Z" fill="#00535D"/>
<path d="M149.16 5.26978C147.791 5.26978 147.715 5.57396 147.487 6.8667H146.954C147.03 6.3344 147.106 5.87813 147.182 5.34583C147.258 4.81352 147.334 4.35726 147.258 3.82495H147.715C147.867 4.35726 148.323 4.35726 148.779 4.35726H158.133C158.589 4.35726 159.045 4.35726 159.121 3.82495L159.578 3.90099C159.501 4.35726 159.425 4.81352 159.349 5.34583C159.273 5.87813 159.273 6.3344 159.273 6.79066L158.741 7.01879C158.741 6.3344 158.589 5.34583 157.372 5.34583H154.407V14.7753C154.407 16.1441 155.015 16.2961 155.927 16.2961H156.232V16.8284C155.547 16.8284 154.254 16.7524 153.266 16.7524C152.201 16.7524 150.909 16.8284 150.224 16.8284V16.2961H150.528C151.517 16.2961 152.049 16.2201 152.049 14.7753V5.26978H149.16Z" fill="#00535D"/>
<path d="M11.9011 21.9232C11.9011 20.4023 11.1407 20.4023 10.2281 20.4023H10V19.7939C10.9125 19.7939 12.0532 19.87 13.3459 19.87C14.7147 19.87 15.7033 19.7939 16.5398 19.7939V20.4023H16.3116C15.4752 20.4023 14.6387 20.4023 14.6387 21.9232V28.9953C14.6387 31.5807 15.6272 33.4058 18.669 33.4058C21.4826 33.4058 22.6993 31.6568 22.6993 28.9192V21.9232C22.6993 20.4023 21.8628 20.4023 21.1784 20.4023H20.7222V19.7939C21.5587 19.7939 22.4712 19.87 23.3077 19.87C24.1442 19.87 24.9046 19.7939 25.7411 19.7939V20.4023H25.2848C24.6765 20.4023 23.916 20.4023 23.916 21.9232V28.4629C23.916 33.1016 21.4066 34.4704 18.2127 34.4704C14.1064 34.4704 11.9011 33.0256 11.9011 29.2994V21.9232Z" fill="#00535D"/>
<path d="M38.4405 30.6685V24.0527C38.5926 23.2162 37.9842 22.5318 37.2238 22.3797C37.1477 22.3797 37.0717 22.3797 36.9196 22.3797H36.5394V21.8474C37.3759 21.8474 38.2123 21.9234 39.0488 21.9234C39.8853 21.9234 40.5697 21.8474 41.3301 21.8474V22.3797H41.026C40.2655 22.3797 39.429 22.5318 39.429 24.585V32.6456C39.429 33.254 39.429 33.8623 39.5051 34.3946H38.8207L29.4673 24.2808V31.581C29.4673 33.1019 29.7715 33.6342 31.1403 33.6342H31.4444V34.1665C30.684 34.1665 29.8475 34.0905 29.0871 34.0905C28.3266 34.0905 27.4141 34.1665 26.5776 34.1665V33.6342H26.8058C28.0985 33.6342 28.4787 32.7977 28.4787 31.3529V23.9006C28.4787 22.9881 27.7183 22.3037 26.8818 22.3037H26.5776V21.7714C27.262 21.7714 27.9464 21.8474 28.7069 21.8474C29.2392 21.8474 29.7715 21.7714 30.3038 21.7714L38.4405 30.6685Z" fill="#00535D"/>
<path d="M43.0792 33.6336H43.3074C43.9917 33.6336 44.6761 33.5576 44.6761 32.645V23.3677C44.6761 22.4552 43.9917 22.3791 43.3074 22.3791H43.0792V21.8468C43.7636 21.8468 44.9043 21.9228 45.7408 21.9228C46.5772 21.9228 47.7179 21.8468 48.6304 21.8468V22.3791H48.4023C47.7179 22.3791 47.0335 22.4552 47.0335 23.3677V32.645C47.0335 33.5576 47.7179 33.6336 48.4023 33.6336H48.5544V34.1659C47.6419 34.1659 46.5772 34.0899 45.6647 34.0899C44.7522 34.0899 43.6876 34.1659 43.0032 34.1659V33.6336H43.0792Z" fill="#00535D"/>
<path d="M56.0069 22.3797H55.5506C54.8662 22.3797 54.6381 22.6078 54.6381 22.912C54.6381 23.1402 54.7142 23.2922 54.7902 23.4443L57.908 31.2768L60.7977 23.9006C60.9498 23.5964 61.0258 23.2162 61.0258 22.912C61.0258 22.3797 60.4935 22.3037 59.8851 22.3037H59.581V21.7714C60.1893 21.7714 60.8737 21.8474 61.7102 21.8474C62.2425 21.8474 62.8508 21.7714 63.3832 21.7714V22.3037H63.2311C62.7748 22.3037 62.3946 22.5318 62.2425 22.912C62.0904 23.1402 59.4289 29.6799 58.2882 32.6456C58.0601 33.254 57.7559 33.7863 57.5278 34.3946H56.8434L52.2808 23.3683C52.1287 22.6839 51.4443 22.2276 50.7599 22.3797H50.6078V21.8474C51.5203 21.8474 52.5089 21.9234 53.4214 21.9234C54.3339 21.9234 55.5506 21.8474 56.0829 21.8474V22.3797H56.0069Z" fill="#00535D"/>
<path d="M64.9032 33.6336H65.1313C65.8157 33.6336 66.5001 33.5576 66.5001 32.645V23.3677C66.5001 22.4552 65.8157 22.3791 65.1313 22.3791H64.9032V21.8468C66.0438 21.8468 67.9449 21.9228 69.4658 21.9228C70.9867 21.9228 72.8878 21.8468 74.1045 21.8468C74.0285 22.7593 74.0285 23.6719 74.1045 24.5844L73.5722 24.7365C73.4961 23.5958 73.268 22.6833 71.3669 22.6833H68.8575V27.322H70.9867C72.0513 27.322 72.2794 26.7136 72.4315 25.8011H72.9638C72.9638 26.4855 72.8878 27.1699 72.8878 27.8543C72.8878 28.5387 72.8878 29.2231 72.9638 29.9074L72.4315 29.9835C72.2794 28.9189 72.2794 28.2345 70.9867 28.2345H68.7814V32.3409C68.7814 33.4815 69.846 33.4815 70.9867 33.4815C73.192 33.4815 74.1045 33.3294 74.6368 31.3523L75.1691 31.5044C74.941 32.4169 74.7128 33.4055 74.5608 34.318C73.4201 34.318 71.2909 34.242 69.694 34.242C68.097 34.242 65.8918 34.318 64.8271 34.318L64.9032 33.6336Z" fill="#00535D"/>
<path d="M81.5576 27.7782H82.4701C84.2951 27.7782 85.2837 27.0938 85.2837 25.0406C85.3597 23.6719 84.3712 22.5312 83.0024 22.4552C82.8503 22.4552 82.7743 22.4552 82.6222 22.4552C82.242 22.4552 81.9378 22.4552 81.5576 22.5312V27.7782ZM79.2002 23.7479C79.2002 22.4552 78.4398 22.3791 77.9074 22.3791H77.6033V21.8468C78.2116 21.8468 79.2762 21.9228 80.4169 21.9228C81.5576 21.9228 82.394 21.8468 83.3066 21.8468C85.5879 21.8468 87.6411 22.4552 87.6411 24.9646C87.6411 26.5615 86.5765 27.5501 85.1316 28.0824L88.2494 32.645C88.6296 33.3294 89.314 33.7096 89.9984 33.7096V34.242C89.3901 34.242 88.7817 34.1659 88.2494 34.1659C87.6411 34.1659 87.1088 34.242 86.5764 34.242C85.2077 32.4169 83.9149 30.5158 82.7743 28.5387H81.5576V32.3409C81.5576 33.7096 82.2419 33.7857 83.0784 33.7857H83.3826V34.318C82.318 34.318 81.2534 34.242 80.2648 34.242C79.3523 34.242 78.5158 34.318 77.6033 34.318V33.7857H77.9074C78.5918 33.7857 79.2002 33.4815 79.2002 32.7971V23.7479Z" fill="#00535D"/>
<path d="M98.0582 24.433C98.0582 23.2163 97.0696 22.2277 95.929 22.2277C94.7883 22.0757 93.7997 22.9121 93.7237 24.0528C93.7237 24.2049 93.7237 24.357 93.7237 24.433C93.7237 27.3987 99.1989 26.4862 99.1989 30.7447C99.1989 33.1781 97.1457 34.4708 94.7883 34.4708C93.7998 34.4708 92.8112 34.1666 91.8987 33.7104C91.8226 32.7978 91.6705 31.9614 91.5945 31.0488L92.1268 30.8967C92.3549 32.4176 93.1914 33.7104 94.9404 33.7104C96.0811 33.7864 97.0696 33.026 97.1457 31.8853C97.1457 31.8093 97.1457 31.8093 97.1457 31.7332C97.1457 28.6154 91.8226 29.604 91.8226 25.3455C91.8226 23.0642 93.4956 21.6954 95.8529 21.6954C96.3852 21.6954 97.9061 21.9236 98.4384 21.9236C98.4384 22.76 98.5145 23.5965 98.5905 24.433H98.0582Z" fill="#00535D"/>
<path d="M101.099 33.6336H101.328C102.012 33.6336 102.696 33.5576 102.696 32.645V23.3677C102.696 22.4552 102.012 22.3791 101.328 22.3791H101.099V21.8468C101.784 21.8468 102.925 21.9228 103.761 21.9228C104.674 21.9228 105.738 21.8468 106.651 21.8468V22.3791H106.423C105.738 22.3791 105.054 22.4552 105.054 23.3677V32.645C105.054 33.5576 105.738 33.6336 106.423 33.6336H106.651V34.1659C105.738 34.1659 104.674 34.0899 103.761 34.0899C102.848 34.0899 101.784 34.1659 101.099 34.1659V33.6336Z" fill="#00535D"/>
<path d="M110.909 22.6842C109.541 22.6842 109.465 22.9884 109.237 24.2811H108.704C108.78 23.7488 108.856 23.2926 108.932 22.7603C109.008 22.2279 109.008 21.7717 109.008 21.2394H109.465C109.617 21.7717 110.073 21.7717 110.529 21.7717H119.883C120.339 21.7717 120.795 21.7717 120.871 21.2394L121.327 21.3154C121.251 21.7717 121.175 22.304 121.099 22.7603C121.023 23.2165 121.023 23.7488 121.023 24.2051L120.491 24.4332C120.491 23.7488 120.339 22.7603 119.122 22.7603H116.233V32.2657C116.233 33.6345 116.841 33.7866 117.753 33.7866H118.134V34.3189C117.449 34.3189 116.157 34.2429 115.168 34.2429C114.179 34.2429 112.811 34.3189 112.126 34.3189V33.7866H112.43C113.419 33.7866 113.951 33.7106 113.951 32.2657V22.6842H110.909Z" fill="#00535D"/>
<path d="M128.324 28.3873L124.674 23.5205C124.141 22.76 123.761 22.3038 122.925 22.3038H122.773V21.7715C123.761 21.7715 124.674 21.8475 125.662 21.8475C126.651 21.8475 127.487 21.7715 128.324 21.7715V22.3038H128.096C127.639 22.3038 127.183 22.4559 127.183 22.684C127.183 22.9121 127.411 23.1403 127.487 23.2924L130.225 27.0185L132.506 23.8247C132.81 23.2924 133.039 22.9882 133.039 22.684C133.039 22.3798 132.278 22.2277 131.974 22.2277H131.67V21.6954C132.354 21.6954 133.038 21.7715 133.723 21.7715C134.407 21.7715 134.864 21.6954 135.472 21.6954V22.2277C134.864 22.2277 134.407 22.5319 134.027 23.0642L130.681 27.7029V32.0374C130.681 33.5583 131.213 33.6343 132.202 33.6343H132.506V34.1666C131.442 34.1666 130.377 34.0906 129.54 34.0906C128.704 34.0906 127.563 34.1666 126.499 34.1666V33.6343H126.803C127.868 33.6343 128.324 33.3301 128.324 32.1895V28.3873Z" fill="#00535D"/>
<path d="M97.8306 39.5659H98.6671C98.9712 39.5659 99.0473 39.4138 99.0473 39.1097H99.1994C99.1994 39.3378 99.1994 39.4899 99.1994 39.718C99.1994 39.9461 99.1994 40.1743 99.1994 40.4024H99.0473C99.0473 40.0982 98.9713 39.8701 98.591 39.8701H97.9066V41.3149C97.9066 41.6191 98.2108 41.6191 98.439 41.6191H98.515V41.7712H97.5264C97.2222 41.7712 96.842 41.7712 96.6139 41.7712V41.6191H96.6899C96.9181 41.6191 97.1462 41.6191 97.1462 41.3149V38.3492C97.1462 38.045 96.9181 38.045 96.6899 38.045H96.6139V37.8929C96.9941 37.8929 97.6025 37.8929 98.0587 37.8929H99.5796C99.5796 38.1971 99.5796 38.5013 99.5796 38.7294L99.4275 38.8055C99.4275 38.4253 99.2754 38.1211 98.8192 38.1211H97.9066V39.5659H97.8306Z" fill="#00535D"/>
<path d="M100.492 40.5546C100.492 41.0109 100.644 41.6953 101.177 41.6953C101.709 41.6953 101.861 41.163 101.861 40.6307C101.861 40.0984 101.709 39.414 101.177 39.414C100.568 39.3379 100.492 40.0984 100.492 40.5546ZM101.177 39.1858C101.861 39.1098 102.469 39.6421 102.545 40.3265C102.545 40.4025 102.545 40.4025 102.545 40.4786C102.545 41.239 101.937 41.8474 101.177 41.8474C100.416 41.8474 99.8079 41.239 99.8079 40.4786C99.8079 39.7942 100.416 39.1858 101.177 39.1858Z" fill="#00535D"/>
<path d="M103.229 39.642C103.229 39.566 103.229 39.49 103.077 39.49L102.849 39.4139V39.2618C103.153 39.2618 103.534 39.1858 103.838 39.1097H103.914C103.914 39.2618 103.914 39.4139 103.914 39.642V40.9348C103.914 41.239 104.066 41.3911 104.37 41.3911C104.598 41.3911 104.75 41.315 104.902 41.1629V39.7181C104.902 39.566 104.902 39.566 104.75 39.566L104.446 39.49V39.3379C104.826 39.3379 105.13 39.2618 105.511 39.1858H105.587C105.587 39.3379 105.587 39.49 105.587 39.7181V41.315C105.587 41.4671 105.663 41.5431 105.739 41.5431H105.891V41.6952C105.587 41.7713 105.283 41.7713 104.978 41.9234L104.902 41.8473V41.4671C104.674 41.6952 104.294 41.8473 103.99 41.9234C103.457 41.9234 103.305 41.6192 103.305 41.239L103.229 39.642Z" fill="#00535D"/>
<path d="M106.12 41.6186C106.348 41.6186 106.424 41.6186 106.424 41.4665V39.8696C106.424 39.7935 106.424 39.7175 106.272 39.7175L106.044 39.6414V39.4894C106.196 39.4133 106.424 39.3373 106.576 39.3373C106.728 39.3373 106.88 39.1852 106.956 39.1852L107.032 39.2612V39.6414C107.26 39.4133 107.564 39.2612 107.945 39.2612C108.325 39.1852 108.629 39.4894 108.629 39.7935C108.629 39.8696 108.629 39.9456 108.629 40.0217V41.5425C108.629 41.6946 108.781 41.6946 108.933 41.6946H109.009V41.8467C108.781 41.8467 108.553 41.8467 108.325 41.8467C108.097 41.8467 107.869 41.8467 107.64 41.8467V41.6946H107.717C107.793 41.6946 108.021 41.6946 108.021 41.5425V40.1737C108.021 39.8696 107.869 39.7175 107.564 39.7175C107.336 39.7175 107.184 39.7935 107.032 39.8696V41.5425C107.032 41.6946 107.184 41.6946 107.336 41.6946H107.412V41.8467C107.184 41.8467 106.956 41.8467 106.728 41.8467C106.5 41.8467 106.272 41.8467 106.044 41.8467V41.6186H106.12Z" fill="#00535D"/>
<path d="M111.29 39.7947C111.214 39.5666 110.986 39.4145 110.682 39.4145C110.149 39.4145 109.997 39.9468 109.997 40.4031C109.997 41.0114 110.301 41.4677 110.758 41.4677C110.91 41.4677 111.062 41.3917 111.214 41.3156L111.29 39.7947ZM111.974 41.4677H112.278V41.6198C112.126 41.6198 111.974 41.6958 111.822 41.7719L111.366 41.924H111.29V41.6198C111.062 41.8479 110.758 42 110.453 42C109.845 41.924 109.389 41.3917 109.465 40.7833C109.465 39.9468 110.073 39.3385 110.91 39.2624C111.062 39.2624 111.214 39.2624 111.366 39.3385V38.1218L110.986 37.9697V37.8936C111.29 37.8176 111.67 37.6655 111.974 37.5134L112.05 37.5895L111.974 41.4677Z" fill="#00535D"/>
<path d="M113.876 40.0217C114.18 40.0217 114.256 40.0217 114.256 39.7935C114.256 39.5654 114.104 39.3373 113.876 39.3373C113.496 39.3373 113.344 39.6414 113.267 40.0217H113.876ZM114.864 41.1623C114.636 41.5425 114.256 41.8467 113.724 41.8467C113.039 41.8467 112.583 41.2384 112.583 40.554C112.507 39.7935 113.115 39.1852 113.876 39.1852C114.332 39.1852 114.788 39.5654 114.788 40.0217C114.788 40.0977 114.788 40.0977 114.788 40.1737L114.712 40.2498H113.191C113.191 40.8581 113.496 41.3905 114.104 41.3905C114.332 41.3905 114.636 41.3144 114.788 41.0863L114.864 41.1623Z" fill="#00535D"/>
<path d="M117.145 39.7945C117.069 39.5664 116.841 39.4143 116.537 39.4143C116.004 39.4143 115.852 39.9466 115.852 40.4029C115.852 41.0112 116.157 41.4675 116.613 41.4675C116.765 41.4675 116.917 41.3914 117.069 41.3154L117.145 39.7945ZM117.753 41.4675H118.058V41.6196C117.906 41.6196 117.753 41.6956 117.601 41.7716L117.145 41.9237H117.069V41.6196C116.841 41.8477 116.537 41.9998 116.233 41.9998C115.624 41.9237 115.168 41.3914 115.168 40.7831C115.168 39.9466 115.776 39.3382 116.613 39.2622C116.765 39.2622 116.917 39.2622 117.069 39.3382V38.1215L116.689 37.9695V37.8934C116.993 37.8174 117.373 37.6653 117.677 37.5132L117.753 37.5892V41.4675Z" fill="#00535D"/>
<path d="M121.86 41.3143C121.86 41.6185 122.088 41.6185 122.393 41.6185H122.545V41.7706H121.556C121.176 41.7706 120.872 41.7706 120.491 41.7706V41.6185H120.644C120.872 41.6185 121.176 41.6185 121.176 41.3143V38.5007L120.415 38.8809L120.339 38.7288C120.567 38.5767 120.796 38.5007 121.1 38.2725L121.784 37.8163H121.936L121.86 41.3143Z" fill="#00535D"/>
<path d="M125.13 39.642C124.902 39.9461 124.598 40.0982 124.294 40.0982C123.762 40.0982 123.305 39.642 123.305 39.1097V39.0336C123.381 38.2732 123.99 37.7409 124.674 37.8169C125.435 37.8169 126.043 38.4253 126.043 39.1857C126.043 39.2618 126.043 39.2618 126.043 39.3378C126.043 40.7066 124.598 41.6952 123.305 41.8472L123.229 41.6952C124.37 41.5431 125.282 40.5545 125.282 39.3378C125.282 38.8815 125.13 37.969 124.522 37.969C124.066 37.969 123.914 38.2732 123.914 38.6534C123.914 39.0336 124.218 39.642 124.674 39.642C124.826 39.642 124.978 39.5659 125.13 39.4899V39.642Z" fill="#00535D"/>
<path d="M127.182 39.7934C127.182 40.0976 127.182 41.6945 127.867 41.6945C128.551 41.6945 128.551 40.1736 128.551 39.7934C128.551 39.4132 128.551 38.0444 127.867 38.0444C127.182 38.0444 127.182 39.4132 127.182 39.7934ZM129.236 39.7934C129.236 40.782 128.931 41.8466 127.867 41.8466C126.802 41.8466 126.498 40.7059 126.498 39.7934C126.498 38.8809 126.802 37.8163 127.867 37.8163C128.931 37.8163 129.236 38.8049 129.236 39.7934Z" fill="#00535D"/>
<path d="M131.594 39.6412C131.365 39.9454 131.061 40.0975 130.757 40.0975C130.225 40.0975 129.769 39.6412 129.769 39.1089V39.0328C129.769 38.3484 130.453 37.7401 131.137 37.8161C131.898 37.8161 132.506 38.4245 132.506 39.261V39.337C132.506 40.7058 131.061 41.6944 129.769 41.8465L129.693 41.6944C130.833 41.5423 131.746 40.5537 131.746 39.337C131.746 38.8808 131.594 37.9682 130.985 37.9682C130.605 37.9682 130.377 38.2724 130.377 38.6526C130.377 39.0328 130.681 39.6412 131.137 39.6412C131.289 39.6412 131.442 39.5651 131.594 39.4891V39.6412Z" fill="#00535D"/>
<defs>
<linearGradient id="paint0_linear_339_13927" x1="17.7404" y1="18.5019" x2="17.7404" y2="5.48562" gradientUnits="userSpaceOnUse">
<stop stop-color="white"/>
<stop offset="0.66" stop-color="#00535D"/>
<stop offset="1" stop-color="#00535D"/>
</linearGradient>
</defs>
</svg>
