<svg width="130" height="31" viewBox="0 0 130 31" fill="none" xmlns="http://www.w3.org/2000/svg">
<path d="M49.5181 12.9339C47.6823 14.7827 43.9952 18.4596 43.9952 18.4596C43.9952 18.4596 44.0438 21.3284 43.4031 22.5859C42.0517 25.2642 37.2475 29 37.2475 29L36.4233 28.1045C36.4233 28.1045 38.9212 25.3173 38.6298 23.4671L37.2121 14.1856C35.7754 15.6796 34.2891 17.3275 32.7221 19.0926C32.8099 20.2258 32.7635 21.3744 32.2471 22.3894C30.9275 24.9766 26.2587 28.7715 26.2587 28.7715L25.4628 27.908C25.4628 27.908 26.9575 26.4266 27.3413 25.4425C27.5189 25 27.5626 24.5127 27.5901 24.0928C27.7193 22.2603 26.0339 13.6743 24.7878 7.2756C24.3745 5.16863 23.4979 5.11547 22.8584 5.29173C22.2958 5.45141 21.1564 5.8573 21.1564 5.8573L21 5.04461L30.0108 1.35964L32.4092 16.4734L36.8771 12.0715L36.1675 7.56552C36.0551 6.8214 35.7754 6.01215 34.8079 5.87157C33.9458 5.75445 32.4237 6.47234 32.4237 6.47234L32.0317 5.49996L41.2487 1.3265L43.6825 16.0629C43.6825 16.0629 46.8011 12.8701 47.019 12.6239C47.5888 11.9969 47.4975 10.7454 46.9633 8.09336C46.8069 6.8428 46.5998 5.48363 45.7672 5.22224C44.842 4.93715 43.2704 5.64101 43.2704 5.64101L42.9366 4.70176L51.3183 1C51.3183 1 52.5786 6.24409 52.4436 6.24409C52.8143 8.92837 52.3798 9.52455 51.7663 10.433C51.1432 11.3711 49.5181 12.9339 49.5181 12.9339ZM54.1597 21.8915C53.9583 20.8114 54.2878 19.7325 54.7057 18.805C55.4473 17.1416 57.7593 16.7656 59.4387 16.6151C60.6505 16.5017 61.7447 18.8675 61.7447 18.8675L59.7727 20.015C59.7727 20.015 59.2975 18.8204 58.869 18.3919C58.5361 18.0523 57.9569 17.9815 57.5814 18.3731C56.6279 19.3595 56.7274 20.7543 56.7205 20.6466C56.7786 21.2228 57.6904 21.4782 57.674 21.4653C58.6133 22.0557 59.8034 22.3183 60.301 23.2992C60.571 23.8219 60.1091 25.4002 59.6744 26.0129C59.1127 26.7819 56.9477 28.477 55.0611 28.2168C52.7717 27.9257 52.2375 25.3611 52.2375 25.3611L54.5992 23.997C54.5992 23.997 55.4827 27.055 56.5512 26.4209C57.1267 26.0861 57.5602 25.0757 57.3186 24.3093C57.1635 23.798 56.293 23.6031 55.497 23.105C54.9771 22.7775 54.2878 22.5362 54.1597 21.8915ZM64.321 14.6975C64.5272 14.1736 64.0876 13.1207 64.0876 13.1207L66.3156 12.0678C66.3156 12.0678 67.153 12.6237 67.0475 13.8174C66.9551 14.8089 66.5275 16.8282 66.5275 16.8282H69.6604C69.6604 16.8282 70.3367 14.3416 70.8399 12.5648C71.0735 11.7509 71.3872 11.3216 72.0505 10.8874C72.94 10.3055 76.1048 7.58922 78.0922 8.91296C78.7046 9.32345 79.3229 10.0227 79.2105 10.7595C78.9534 12.3071 78.7912 13.1775 78.2226 14.7403C77.4408 14.7946 75.8597 14.7403 75.8597 14.7403C75.8597 14.7403 76.9542 11.9629 76.1735 11.0153C75.2557 9.89017 74.1918 11.3016 74.1918 11.3016C73.4173 11.7889 72.3785 16.8284 72.3785 16.8284H77.8517C77.8517 16.8284 76.1854 23.1763 75.4959 25.3387C75.2969 25.9563 75.3527 26.1217 75.6298 26.3834C76.0763 26.8067 77.0675 25.9563 77.0675 25.9563L77.5603 26.769C77.5603 26.769 76.1852 27.8408 75.2826 28.3164C73.9075 29.0462 72.4354 26.2817 72.555 25.8546C73.2111 23.581 73.7205 21.7 74.277 19.3873C74.3706 19.0054 74.3068 18.6658 74.1646 18.3926C73.9006 17.8982 72.0102 18.033 72.0102 18.033L69.042 28.2032H66.4847L69.403 18.033H65.959C65.959 18.033 64.5495 22.9425 64.0522 25.3532C63.9727 25.7046 64.0876 26.0417 64.3648 26.2499C64.8324 26.5964 66.1863 25.5792 66.1863 25.5792L66.5653 26.3836C66.5653 26.3836 63.8248 28.5249 63.0466 28.4018C62.464 28.3166 61.3483 27.1643 61.1824 26.6415C61.0057 26.0136 63.2965 18.033 63.2965 18.033H61.938L62.0933 16.8289H63.7172C63.717 16.8282 64.0296 15.4263 64.321 14.6975ZM91.4594 10.6612C92.3987 8.14283 97.102 8.44932 97.102 8.44932L97.1741 9.25005C97.1741 9.25005 94.6393 9.36717 94.0472 11.0871C92.4625 15.6428 91.4594 20.3309 90.0403 25.0332C89.9443 25.33 89.9348 25.7239 90.1493 25.9061C90.9535 26.6277 92.3987 24.9763 92.3987 24.9763C92.3987 24.9763 93.2538 20.377 94.4276 18.3411C95.1608 17.0645 96.7905 16.5121 98.2131 16.1773C99.1309 15.9467 100.646 16.8457 100.646 16.8457C100.646 16.8457 101.282 14.4999 102.058 12.0107C102.227 11.4714 102.382 10.2765 103.104 9.80826C105.572 8.2206 107.908 8.40744 107.908 8.40744L108 9.15157C108 9.15157 105.459 9.55124 104.945 11.0929C103.301 16.0036 102.22 19.7605 101.076 24.7621C101.012 25.2175 100.903 26.1307 101.372 26.261C102.099 26.468 103.808 25.1252 103.808 25.1252L104.299 26.1307C104.299 26.1307 102.332 27.4202 101.345 27.9786C100.084 28.7262 98.4642 26.7955 98.4642 26.7955C98.4642 26.7955 95.8867 28.2446 95.1311 28.0895C93.8827 27.8162 92.7776 26.2276 92.7776 26.2276C92.7776 26.2276 91.887 26.8983 89.5383 27.9784C88.6629 28.3854 87.2678 27.3903 87.0759 26.4262C86.9409 25.7423 87.1883 25.061 87.3719 24.3891C88.187 21.5357 88.8974 18.8043 89.7586 15.9615C90.2643 14.3193 90.8102 12.4157 91.4594 10.6612ZM80.8196 17.9817C82.3986 17.3004 83.9785 16.2486 85.7503 16.432C86.834 16.5316 87.1623 17.3429 87.2947 18.4136C87.424 19.4511 87.0757 20.4117 86.6269 21.293C85.144 24.1972 81.3242 22.6887 81.3242 22.6887C81.3242 22.6887 80.7107 24.1084 80.8471 24.9766C80.9466 25.5882 81.836 26.5108 82.3869 26.5357C83.4597 26.5854 85.3456 25.2545 85.3456 25.2545L85.9164 26.0709C85.9164 26.0709 83.4719 27.6077 82.0849 28.373C80.9823 28.9846 78.9034 27.1224 78.1869 26.2283C77.4087 25.2865 78.2994 22.8875 78.791 21.293C79.1605 20.0627 79.5454 18.5353 80.8196 17.9817ZM46.9267 17.9237C48.5139 17.2435 50.1519 16.5123 51.9177 16.6888C52.9919 16.8034 53.3403 17.3915 53.4693 18.4633C53.5974 19.5008 53.2479 20.4697 52.7929 21.3427C51.4461 23.9747 47.5388 23.1515 47.5388 23.1515C47.5388 23.1515 46.9785 24.0516 47.1209 24.9223C47.2262 25.5293 47.8456 26.2874 48.3939 26.3205C49.4753 26.3831 51.1976 25.0334 51.1976 25.0334L51.773 25.8709C51.773 25.8709 49.3686 27.4798 47.9451 28.1671C46.4233 28.9006 44.9756 27.2787 44.2449 26.3831C43.4704 25.4425 44.464 22.9418 44.9567 21.3365C45.3242 20.1158 45.6605 18.4796 46.9267 17.9237ZM95.1949 24.3898C94.7683 26.5426 97.8279 26.7688 98.4837 24.882C99.1378 22.9904 99.4444 21.3284 99.9489 19.3869C100.084 18.877 99.5603 17.8798 98.7669 17.6681C98.0004 17.4467 97.072 17.7495 96.7757 18.7907C96.5246 19.6614 96.418 19.7831 96.2335 20.6466C95.8939 22.1669 95.543 22.6887 95.1949 24.3898ZM50.0819 21.4653C50.5723 20.3344 50.6645 19.9713 50.7997 19.1883C51.0342 17.7806 49.2113 17.4196 48.5932 19.0275C48.059 20.4117 48.1159 19.761 48.0672 21.229C48.0249 22.4059 49.7884 22.148 50.0819 21.4653ZM84.0354 21.1862C84.5199 20.0742 84.6206 19.7005 84.7556 18.9172C84.9947 17.513 83.16 17.1416 82.5419 18.7624C82.0079 20.1487 82.0729 19.4969 82.0148 20.9603C81.978 22.1328 83.738 21.8772 84.0354 21.1862Z" fill="#ED1B2D"/>
</svg>
