<svg width="130" height="31" viewBox="0 0 130 31" fill="none" xmlns="http://www.w3.org/2000/svg">
<path d="M18.2594 9.06492C17.658 9.46588 17.3572 10.1676 17.4575 10.8692C17.5577 11.3203 17.7582 11.7213 18.0589 12.022C17.9086 11.3704 18.1591 10.6688 18.6603 10.2177L18.7105 10.1676C19.2117 9.71648 20.5148 8.71408 20.615 8.263C20.7153 8.56372 20.7654 8.86444 20.7153 9.16516C20.9659 8.91456 21.2165 8.61384 21.4169 8.31312C21.7678 7.61144 21.7678 6.80953 21.3668 6.15797C21.1162 5.75701 20.7654 5.40617 20.3644 5.10545C20.8656 7.01001 18.9109 8.61384 18.2594 9.06492ZM19.4623 10.9194C18.6102 11.4707 18.1591 12.4731 18.3095 13.5256C18.3596 13.6759 18.3596 13.8263 18.4097 13.9767H19.362C19.3119 13.4253 19.5625 12.9241 20.0136 12.6234C20.0136 12.6234 22.1687 11.0697 22.9707 9.91696C23.121 10.2678 23.2212 10.6186 23.2714 11.0196C24.0733 10.1676 24.6246 9.21528 24.2738 8.31312C23.9229 7.46108 23.3716 6.75941 22.5697 6.30833C22.9205 8.21288 20.3644 10.2177 19.4623 10.9194ZM24.1234 10.5184C23.9229 11.0697 22.0184 12.7237 21.3668 13.3251C21.1663 13.4755 21.016 13.6759 20.9157 13.9265H22.7201C23.0709 13.6258 23.7224 13.1747 23.7726 12.9241C23.8728 13.1246 23.8728 13.3251 23.8227 13.5256C24.4742 12.874 25.0256 12.1222 24.7248 11.4707C24.5745 11.0697 24.374 10.769 24.1234 10.5184Z" fill="url(#paint0_linear_632_17188)"/>
<path d="M38.8554 4.60379C38.9556 4.40331 39.0057 4.25295 39.0558 4.05247C39.0558 3.70164 38.7551 3.65152 38.2539 3.65152C37.853 3.65152 37.5522 3.70164 37.5522 4.00236C37.6024 4.25295 37.6525 4.45343 37.8028 4.65391L38.3542 5.85679L38.8554 4.60379ZM37.7527 8.61338L35.8983 12.8736H35.3971L31.8887 4.80427C31.588 4.15271 31.4376 3.6014 30.6858 3.6014H30.4854V3.20044C31.0367 3.20044 31.8386 3.25056 32.4901 3.25056C33.0916 3.25056 33.7933 3.20044 34.2443 3.20044V3.6014H34.1441C33.8434 3.6014 33.5427 3.65152 33.5427 3.90212C33.6429 4.40331 33.7933 4.85439 34.0439 5.30547L36.3494 10.5179L37.5021 7.86158L35.7479 3.95224C35.5976 3.65152 35.2467 3.6014 34.8959 3.6014V3.20044C35.5475 3.20044 36.199 3.25056 36.8506 3.25056C37.3518 3.25056 37.853 3.20044 38.4043 3.20044C38.9556 3.20044 39.3064 3.25056 39.7575 3.25056C40.2086 3.25056 40.6096 3.20044 41.0105 3.20044V3.6014H40.8602C40.1585 3.6014 40.0081 3.852 39.6573 4.60379L38.8554 6.45823L40.5594 10.4177L42.5642 4.75415C42.6645 4.50355 42.7146 4.25295 42.7647 4.00236C42.7647 3.70164 42.5141 3.6014 41.9127 3.6014H41.7623V3.20044C42.2134 3.20044 42.6645 3.25056 43.1657 3.25056C43.6669 3.25056 44.0177 3.20044 44.4187 3.20044V3.6014H44.2683C43.8673 3.6014 43.6167 4.05248 43.4163 4.50355L40.1084 12.9237H39.6072L37.7527 8.61338Z" fill="#00535D"/>
<path d="M44.7689 12.3222H44.9192C45.3703 12.3222 45.8214 12.2721 45.8214 11.6706V5.55603C45.8214 4.95459 45.3703 4.90447 44.9192 4.90447H44.7689V4.55363C45.5207 4.55363 46.7235 4.60376 47.7761 4.60376C48.8286 4.60376 50.0315 4.55363 50.8334 4.55363C50.7832 5.15507 50.7832 5.75651 50.8334 6.35795L50.4825 6.45819C50.4324 5.70639 50.282 5.10495 49.0291 5.10495H47.3751V8.16226H48.7785C49.4801 8.16226 49.6305 7.7613 49.7307 7.15987H50.0816C50.0816 7.61094 50.0314 8.06202 50.0314 8.5131C50.0314 8.96418 50.0315 9.41526 50.0816 9.81621L49.7307 9.86633C49.6305 9.16466 49.6305 8.71358 48.7785 8.71358H47.325V11.42C47.325 12.1718 48.0267 12.1718 48.7785 12.1718C50.2319 12.1718 50.8334 12.0716 51.1842 10.7685L51.535 10.8687C51.3847 11.4702 51.2343 12.1217 51.1341 12.7232C50.3823 12.7232 48.9789 12.673 47.9264 12.673C46.8739 12.673 45.4204 12.7232 44.7188 12.7232L44.7689 12.3222Z" fill="#00535D"/>
<path d="M57.3491 6.30771C57.3491 5.50579 56.7476 4.85423 55.9457 4.80411C55.1939 4.70387 54.5423 5.25519 54.4922 6.00699C54.4922 6.10723 54.4922 6.20747 54.4922 6.30771C54.4922 8.21226 58.1008 7.66094 58.1008 10.4677C58.1008 12.0715 56.7476 12.9235 55.1939 12.9235C54.5423 12.9235 53.8908 12.723 53.2893 12.4223C53.2392 11.8209 53.139 11.2696 53.0889 10.6681L53.4397 10.618C53.5901 11.6204 54.1414 12.4724 55.2941 12.4724C56.0459 12.5226 56.6975 12.0214 56.7476 11.2696C56.7476 11.2194 56.7476 11.2194 56.7476 11.1693C56.7476 9.11442 53.2392 9.76597 53.2392 6.95926C53.2392 5.45567 54.3419 4.55351 55.8956 4.55351C56.2464 4.55351 57.2488 4.65375 57.5996 4.70387C57.5996 5.25519 57.6498 5.80651 57.6999 6.35783L57.3491 6.30771Z" fill="#00535D"/>
<path d="M60.4574 5.15514C59.5552 5.15514 59.5051 5.35562 59.3547 6.20766H59.0039C59.054 5.85682 59.1041 5.5561 59.1543 5.20526C59.2044 4.85442 59.2545 4.5537 59.2545 4.20287H59.5552C59.6555 4.5537 59.9562 4.5537 60.2569 4.5537H66.4216C66.7224 4.5537 67.0231 4.5537 67.0732 4.20287L67.3739 4.25298C67.3238 4.5537 67.2737 4.85442 67.2236 5.20526C67.1734 5.50598 67.2236 5.8067 67.2236 6.15754L66.8727 6.3079C66.8727 5.85682 66.7725 5.20526 65.9706 5.20526H63.9658V11.4201C63.9658 12.3223 64.3667 12.4225 64.9682 12.4225H65.1686V12.7734C64.7176 12.7734 63.8655 12.7232 63.214 12.7232C62.5624 12.7232 61.6603 12.7734 61.2092 12.7734V12.4225H61.4097C62.0612 12.4225 62.4121 12.3724 62.4121 11.4201V5.15514H60.4574Z" fill="#00535D"/>
<path d="M80.5549 6.00719C80.1539 4.70407 79.5023 3.60144 77.4474 3.60144C75.1419 3.60144 73.939 5.35563 73.939 7.71126C73.939 9.96665 75.1419 12.2722 77.7482 12.2722C79.1014 12.3223 80.3043 11.37 80.605 10.0168L81.0059 10.0669C80.8556 10.7686 80.7052 11.5204 80.6551 12.2722C79.6527 12.6731 78.5501 12.8736 77.4474 12.8736C74.2899 12.8736 71.9844 11.2196 71.9844 7.8115C71.9844 4.75419 74.4904 3 77.3973 3C79.0513 3 79.5525 3.5012 80.8556 3.65156C80.8556 4.40335 80.8556 5.15515 80.9558 5.90695L80.5549 6.00719Z" fill="#00535D"/>
<path d="M86.7699 12.373C89.0754 12.373 89.4764 10.3682 89.4764 8.66415C89.4764 6.96007 88.5241 4.90516 86.5193 4.90516C84.4143 4.90516 83.8128 6.70947 83.8128 8.26319C83.8128 10.3682 84.8152 12.373 86.7699 12.373ZM86.5694 4.40396C89.1255 4.40396 91.1804 5.95768 91.1804 8.41355C91.2306 10.8193 89.3761 12.8241 86.9704 12.8742C86.8701 12.8742 86.7699 12.8742 86.6697 12.8742C84.1135 12.8742 82.209 11.2203 82.209 8.71427C82.209 6.35863 84.1135 4.40396 86.5193 4.40396H86.5694Z" fill="#00535D"/>
<path d="M94.7391 5.85641L93.6365 9.16432H95.8919L94.7391 5.85641ZM92.9849 11.0188C92.8847 11.3195 92.7845 11.6202 92.7343 11.9209C92.7343 12.2717 93.2355 12.3219 93.6365 12.3219H93.7869V12.6727C93.3358 12.6226 92.8346 12.6226 92.3334 12.6226C91.8322 12.6226 91.4814 12.6226 91.0303 12.6727V12.3219H91.0804C91.5315 12.3219 91.9825 12.0211 92.1329 11.5701L94.0375 6.25737C94.2379 5.80629 94.3883 5.30509 94.4885 4.8039C94.8895 4.65354 95.2403 4.50318 95.5912 4.3027C95.6413 4.3027 95.6413 4.3027 95.6914 4.25258C95.7415 4.25258 95.7415 4.25258 95.7917 4.3027C95.8418 4.35282 95.8418 4.50318 95.8919 4.60342L98.0972 10.6679C98.2475 11.0689 98.3979 11.5199 98.5482 11.8708C98.6986 12.1715 98.9993 12.372 99.3502 12.3219H99.4504V12.6727C98.8991 12.6226 98.3979 12.6226 97.7964 12.6226C97.195 12.6226 96.5936 12.6226 95.9921 12.6727V12.3219H96.1425C96.4432 12.3219 96.8943 12.2717 96.8943 11.971C96.8442 11.6703 96.7439 11.4197 96.6437 11.119L96.1926 9.76576H93.436L92.9849 11.0188Z" fill="#00535D"/>
<path d="M104.613 6.30772C104.613 5.5058 104.011 4.85425 103.209 4.80413C102.458 4.70389 101.806 5.25521 101.756 6.007C101.756 6.10724 101.756 6.20748 101.756 6.30772C101.756 8.21227 105.365 7.66096 105.365 10.4677C105.365 12.0715 104.011 12.9235 102.458 12.9235C101.806 12.9235 101.154 12.7231 100.553 12.4223C100.503 11.8209 100.403 11.2696 100.353 10.6681L100.703 10.618C100.854 11.6204 101.405 12.4725 102.558 12.4725C103.31 12.5226 103.961 12.0214 104.011 11.2696C104.011 11.2195 104.011 11.2195 104.011 11.1693C104.011 9.11443 100.503 9.76599 100.503 6.95928C100.503 5.45569 101.606 4.55353 103.159 4.55353C103.51 4.55353 104.512 4.65377 104.863 4.70389C104.863 5.25521 104.913 5.80652 104.964 6.35784L104.613 6.30772Z" fill="#00535D"/>
<path d="M107.722 5.15511C106.82 5.15511 106.77 5.35559 106.619 6.20763H106.269C106.319 5.85679 106.369 5.55607 106.419 5.20523C106.469 4.85439 106.519 4.55367 106.469 4.20284H106.77C106.87 4.55367 107.171 4.55367 107.471 4.55367H113.636C113.937 4.55367 114.238 4.55367 114.288 4.20284L114.588 4.25295C114.538 4.55367 114.488 4.85439 114.438 5.20523C114.388 5.55607 114.388 5.85679 114.388 6.15751L114.037 6.30787C114.037 5.85679 113.937 5.20523 113.135 5.20523H111.18V11.4201C111.18 12.3222 111.581 12.4225 112.183 12.4225H112.383V12.7733C111.932 12.7733 111.08 12.7232 110.429 12.7232C109.727 12.7232 108.875 12.7733 108.424 12.7733V12.4225H108.624C109.276 12.4225 109.627 12.3724 109.627 11.4201V5.15511H107.722Z" fill="#00535D"/>
<path d="M17.253 16.1312C17.253 15.1288 16.7518 15.1288 16.1504 15.1288H16V14.7278C16.6014 14.7278 17.3532 14.7779 18.2053 14.7779C19.1074 14.7779 19.759 14.7278 20.3103 14.7278V15.1288H20.1599C19.6086 15.1288 19.0573 15.1288 19.0573 16.1312V20.7923C19.0573 22.4964 19.7089 23.6993 21.7137 23.6993C23.5681 23.6993 24.37 22.5465 24.37 20.7422V16.1312C24.37 15.1288 23.8187 15.1288 23.3676 15.1288H23.0669V14.7278C23.6182 14.7278 24.2196 14.7779 24.771 14.7779C25.3223 14.7779 25.8235 14.7278 26.3748 14.7278V15.1288H26.0741C25.6731 15.1288 25.1719 15.1288 25.1719 16.1312V20.4415C25.1719 23.4988 23.518 24.4009 21.4129 24.4009C18.7065 24.4009 17.253 23.4487 17.253 20.9928V16.1312Z" fill="#00535D"/>
<path d="M34.7464 21.8952V17.5348C34.8467 16.9834 34.4457 16.5324 33.9445 16.4321C33.8944 16.4321 33.8443 16.4321 33.744 16.4321H33.4934V16.0813C34.0447 16.0813 34.5961 16.1314 35.1474 16.1314C35.6987 16.1314 36.1498 16.0813 36.651 16.0813V16.4321H36.4505C35.9493 16.4321 35.398 16.5324 35.398 17.8856V23.1983C35.398 23.5993 35.398 24.0002 35.4481 24.3511H34.997L28.8323 17.6851V22.4966C28.8323 23.499 29.0328 23.8499 29.9349 23.8499H30.1354V24.2007C29.6342 24.2007 29.0829 24.1506 28.5817 24.1506C28.0805 24.1506 27.4791 24.2007 26.9277 24.2007V23.8499H27.0781C27.9301 23.8499 28.1807 23.2985 28.1807 22.3463V17.4345C28.1807 16.8331 27.6795 16.382 27.1282 16.382H26.9277V16.0312C27.3788 16.0312 27.8299 16.0813 28.3311 16.0813C28.6819 16.0813 29.0328 16.0312 29.3836 16.0312L34.7464 21.8952Z" fill="#00535D"/>
<path d="M37.8021 23.8495H37.9524C38.4035 23.8495 38.8546 23.7993 38.8546 23.1979V17.0833C38.8546 16.4818 38.4035 16.4317 37.9524 16.4317H37.8021V16.0809C38.2532 16.0809 39.005 16.131 39.5563 16.131C40.1076 16.131 40.8594 16.0809 41.4608 16.0809V16.4317H41.3105C40.8594 16.4317 40.4083 16.4818 40.4083 17.0833V23.1979C40.4083 23.7993 40.8594 23.8495 41.3105 23.8495H41.4107V24.2003C40.8093 24.2003 40.1076 24.1502 39.5061 24.1502C38.9047 24.1502 38.203 24.2003 37.752 24.2003V23.8495H37.8021Z" fill="#00535D"/>
<path d="M46.3232 16.4321H46.0224C45.5714 16.4321 45.421 16.5825 45.421 16.783C45.421 16.9333 45.4711 17.0336 45.5212 17.1338L47.5762 22.2961L49.4807 17.4345C49.5809 17.2341 49.6311 16.9834 49.6311 16.783C49.6311 16.4321 49.2802 16.382 48.8793 16.382H48.6788V16.0312C49.0797 16.0312 49.5308 16.0813 50.0821 16.0813C50.433 16.0813 50.8339 16.0312 51.1848 16.0312V16.382H51.0845C50.7838 16.382 50.5332 16.5324 50.433 16.783C50.3327 16.9333 48.5785 21.2436 47.8268 23.1983C47.6764 23.5993 47.4759 23.9501 47.3256 24.3511H46.8745L43.8673 17.0837C43.767 16.6326 43.316 16.3319 42.8649 16.4321H42.7646V16.0813C43.3661 16.0813 44.0176 16.1314 44.6191 16.1314C45.2205 16.1314 46.0224 16.0813 46.3733 16.0813V16.4321H46.3232Z" fill="#00535D"/>
<path d="M52.1868 23.8495H52.3372C52.7883 23.8495 53.2394 23.7994 53.2394 23.1979V17.0833C53.2394 16.4819 52.7883 16.4317 52.3372 16.4317H52.1868V16.0809C52.9386 16.0809 54.1916 16.131 55.194 16.131C56.1964 16.131 57.4494 16.0809 58.2513 16.0809C58.2012 16.6823 58.2012 17.2838 58.2513 17.8852L57.9005 17.9855C57.8504 17.2337 57.7 16.6322 56.447 16.6322H54.7931V19.6895H56.1964C56.8981 19.6895 57.0485 19.2886 57.1487 18.6871H57.4995C57.4995 19.1382 57.4494 19.5893 57.4494 20.0404C57.4494 20.4914 57.4494 20.9425 57.4995 21.3936L57.1487 21.4437C57.0485 20.742 57.0485 20.291 56.1964 20.291H54.7429V22.9974C54.7429 23.7492 55.4446 23.7492 56.1964 23.7492C57.6499 23.7492 58.2513 23.649 58.6022 22.3459L58.953 22.4461C58.8027 23.0476 58.6523 23.6991 58.5521 24.3006C57.8003 24.3006 56.3969 24.2504 55.3444 24.2504C54.2919 24.2504 52.8384 24.3006 52.1367 24.3006L52.1868 23.8495Z" fill="#00535D"/>
<path d="M63.1638 19.9902H63.7653C64.9682 19.9902 65.6197 19.5392 65.6197 18.1859C65.6698 17.2838 65.0183 16.532 64.1161 16.4818C64.0159 16.4818 63.9658 16.4818 63.8655 16.4818C63.6149 16.4818 63.4144 16.4818 63.1638 16.532V19.9902ZM61.6101 17.3339C61.6101 16.4818 61.1089 16.4317 60.7581 16.4317H60.5576V16.0809C60.9586 16.0809 61.6603 16.131 62.4121 16.131C63.1638 16.131 63.7152 16.0809 64.3166 16.0809C65.8202 16.0809 67.1734 16.4818 67.1734 18.1358C67.1734 19.1883 66.4718 19.8399 65.5195 20.1907L67.5744 23.1979C67.825 23.649 68.2761 23.8996 68.7271 23.8996V24.2504C68.3262 24.2504 67.9252 24.2003 67.5744 24.2003C67.1734 24.2003 66.8226 24.2504 66.4718 24.2504C65.5696 23.0475 64.7176 21.7945 63.9658 20.4914H63.1638V22.9974C63.1638 23.8996 63.6149 23.9497 64.1662 23.9497H64.3667V24.3005C63.665 24.3005 62.9634 24.2504 62.3118 24.2504C61.7104 24.2504 61.1591 24.3005 60.5576 24.3005V23.9497H60.7581C61.2092 23.9497 61.6101 23.7492 61.6101 23.2981V17.3339Z" fill="#00535D"/>
<path d="M74.0395 17.7854C74.0395 16.9835 73.3879 16.3319 72.6361 16.3319C71.8843 16.2317 71.2328 16.783 71.1826 17.5348C71.1826 17.635 71.1826 17.7353 71.1826 17.7854C71.1826 19.7401 74.7913 19.1386 74.7913 21.9454C74.7913 23.5492 73.438 24.4012 71.8843 24.4012C71.2328 24.4012 70.5812 24.2007 69.9798 23.9C69.9297 23.2986 69.8294 22.7473 69.7793 22.1458L70.1301 22.0456C70.2805 23.048 70.8318 23.9 71.9846 23.9C72.7364 23.9501 73.3879 23.4489 73.438 22.6971C73.438 22.647 73.438 22.647 73.438 22.5969C73.438 20.542 69.9297 21.1936 69.9297 18.3868C69.9297 16.8832 71.0323 15.9811 72.586 15.9811C72.9368 15.9811 73.9392 16.1315 74.2901 16.1315C74.2901 16.6828 74.3402 17.2341 74.3903 17.7854H74.0395Z" fill="#00535D"/>
<path d="M76.042 23.8495H76.1923C76.6434 23.8495 77.0945 23.7993 77.0945 23.1979V17.0833C77.0945 16.4818 76.6434 16.4317 76.1923 16.4317H76.042V16.0809C76.4931 16.0809 77.2449 16.131 77.7962 16.131C78.3976 16.131 79.0993 16.0809 79.7007 16.0809V16.4317H79.5504C79.0993 16.4317 78.6482 16.4818 78.6482 17.0833V23.1979C78.6482 23.7993 79.0993 23.8495 79.5504 23.8495H79.7007V24.2003C79.0993 24.2003 78.3976 24.1502 77.7962 24.1502C77.1947 24.1502 76.4931 24.2003 76.042 24.2003V23.8495Z" fill="#00535D"/>
<path d="M82.5082 16.6328C81.606 16.6328 81.5559 16.8333 81.4055 17.6853H81.0547C81.1048 17.3344 81.1549 17.0337 81.205 16.6829C81.2552 16.3321 81.2552 16.0313 81.2552 15.6805H81.5559C81.6561 16.0313 81.9568 16.0313 82.2576 16.0313H88.4223C88.723 16.0313 89.0237 16.0313 89.0739 15.6805L89.3746 15.7306C89.3245 16.0313 89.2743 16.3822 89.2242 16.6829C89.1741 16.9836 89.1741 17.3344 89.1741 17.6352L88.8233 17.7855C88.8233 17.3344 88.723 16.6829 87.9211 16.6829H86.0165V22.9479C86.0165 23.85 86.4175 23.9503 87.0189 23.9503H87.2695V24.3011C86.8185 24.3011 85.9664 24.251 85.3149 24.251C84.6633 24.251 83.7612 24.3011 83.3101 24.3011V23.9503H83.5106C84.1621 23.9503 84.513 23.9001 84.513 22.9479V16.6328H82.5082Z" fill="#00535D"/>
<path d="M93.9878 20.3917L91.5821 17.184C91.2313 16.6828 90.9807 16.3821 90.4293 16.3821H90.3291V16.0312C90.9807 16.0312 91.5821 16.0813 92.2336 16.0813C92.8852 16.0813 93.4365 16.0312 93.9878 16.0312V16.3821H93.8375C93.5368 16.3821 93.236 16.4823 93.236 16.6327C93.236 16.783 93.3864 16.9334 93.4365 17.0336L95.2408 19.4895L96.7444 17.3845C96.9449 17.0336 97.0953 16.8331 97.0953 16.6327C97.0953 16.4322 96.5941 16.3319 96.3936 16.3319H96.1931V15.9811C96.6442 15.9811 97.0953 16.0312 97.5464 16.0312C97.9974 16.0312 98.2982 15.9811 98.6991 15.9811V16.3319C98.2982 16.3319 97.9974 16.5324 97.7468 16.8833L95.5416 19.9406V22.7974C95.5416 23.7998 95.8924 23.8499 96.544 23.8499H96.7444V24.2008C96.0428 24.2008 95.3411 24.1506 94.7898 24.1506C94.2384 24.1506 93.4866 24.2008 92.785 24.2008V23.8499H92.9854C93.6871 23.8499 93.9878 23.6494 93.9878 22.8976V20.3917Z" fill="#00535D"/>
<path d="M73.8888 27.7594H74.4401C74.6406 27.7594 74.6907 27.6591 74.6907 27.4587H74.791C74.791 27.609 74.791 27.7093 74.791 27.8596C74.791 28.01 74.791 28.1603 74.791 28.3107H74.6907C74.6907 28.1102 74.6406 27.9599 74.39 27.9599H73.9389V28.9121C73.9389 29.1126 74.1394 29.1126 74.2898 29.1126H74.3399V29.2129H73.6884C73.4879 29.2129 73.2373 29.2129 73.0869 29.2129V29.1126H73.137C73.2874 29.1126 73.4378 29.1126 73.4378 28.9121V26.9575C73.4378 26.757 73.2874 26.757 73.137 26.757H73.0869V26.6567C73.3375 26.6567 73.7385 26.6567 74.0392 26.6567H75.0416C75.0416 26.8572 75.0416 27.0577 75.0416 27.2081L74.9413 27.2582C74.9413 27.0076 74.8411 26.8071 74.5404 26.8071H73.9389V27.7594H73.8888Z" fill="#00535D"/>
<path d="M75.6425 28.411C75.6425 28.7117 75.7427 29.1628 76.0936 29.1628C76.4444 29.1628 76.5446 28.812 76.5446 28.4611C76.5446 28.1103 76.4444 27.6592 76.0936 27.6592C75.6926 27.6091 75.6425 28.1103 75.6425 28.411ZM76.0936 27.5089C76.5446 27.4587 76.9456 27.8096 76.9957 28.2607C76.9957 28.3108 76.9957 28.3108 76.9957 28.3609C76.9957 28.8621 76.5948 29.2631 76.0936 29.2631C75.5924 29.2631 75.1914 28.8621 75.1914 28.3609C75.1914 27.9098 75.5924 27.5089 76.0936 27.5089Z" fill="#00535D"/>
<path d="M77.4469 27.8096C77.4469 27.7595 77.4469 27.7093 77.3467 27.7093L77.1963 27.6592V27.559C77.3968 27.559 77.6474 27.5089 77.8478 27.4587H77.898C77.898 27.559 77.898 27.6592 77.898 27.8096V28.6616C77.898 28.8621 77.9982 28.9623 78.1987 28.9623C78.349 28.9623 78.4493 28.9122 78.5495 28.812V27.8597C78.5495 27.7595 78.5495 27.7595 78.4493 27.7595L78.2488 27.7093V27.6091C78.4994 27.6091 78.6999 27.559 78.9505 27.5089H79.0006C79.0006 27.6091 79.0006 27.7093 79.0006 27.8597V28.9122C79.0006 29.0125 79.0507 29.0626 79.1008 29.0626H79.2011V29.1628C79.0006 29.2129 78.8001 29.2129 78.5996 29.3132L78.5495 29.2631V29.0125C78.3992 29.1628 78.1486 29.2631 77.9481 29.3132C77.5972 29.3132 77.497 29.1127 77.497 28.8621L77.4469 27.8096Z" fill="#00535D"/>
<path d="M79.3519 29.1123C79.5022 29.1123 79.5524 29.1123 79.5524 29.012V27.9595C79.5524 27.9094 79.5524 27.8593 79.4521 27.8593L79.3018 27.8092V27.7089C79.402 27.6588 79.5524 27.6087 79.6526 27.6087C79.7528 27.6087 79.8531 27.5085 79.9032 27.5085L79.9533 27.5586V27.8092C80.1037 27.6588 80.3042 27.5586 80.5548 27.5586C80.8054 27.5085 81.0058 27.7089 81.0058 27.9094C81.0058 27.9595 81.0058 28.0097 81.0058 28.0598V29.0622C81.0058 29.1624 81.1061 29.1624 81.2063 29.1624H81.2564V29.2626C81.1061 29.2626 80.9557 29.2626 80.8054 29.2626C80.655 29.2626 80.5046 29.2626 80.3543 29.2626V29.1624H80.4044C80.4545 29.1624 80.6049 29.1624 80.6049 29.0622V28.16C80.6049 27.9595 80.5046 27.8593 80.3042 27.8593C80.1538 27.8593 80.0535 27.9094 79.9533 27.9595V29.0622C79.9533 29.1624 80.0536 29.1624 80.1538 29.1624H80.2039V29.2626C80.0535 29.2626 79.9032 29.2626 79.7528 29.2626C79.6025 29.2626 79.4521 29.2626 79.3018 29.2626V29.1123H79.3519Z" fill="#00535D"/>
<path d="M82.7591 27.9102C82.709 27.7598 82.5586 27.6596 82.3582 27.6596C82.0073 27.6596 81.9071 28.0104 81.9071 28.3111C81.9071 28.7121 82.1076 29.0128 82.4083 29.0128C82.5085 29.0128 82.6088 28.9627 82.709 28.9126L82.7591 27.9102ZM83.2102 29.0128H83.4107V29.1131C83.3104 29.1131 83.2102 29.1632 83.11 29.2133L82.8092 29.3135H82.7591V29.1131C82.6088 29.2634 82.4083 29.3637 82.2078 29.3637C81.8068 29.3135 81.5061 28.9627 81.5562 28.5617C81.5562 28.0104 81.9572 27.6095 82.5085 27.5593C82.6088 27.5593 82.709 27.5593 82.8092 27.6095V26.8075L82.5586 26.7073V26.6572C82.7591 26.6071 83.0097 26.5068 83.2102 26.4066L83.2603 26.4567L83.2102 29.0128Z" fill="#00535D"/>
<path d="M84.4647 28.0598C84.6652 28.0598 84.7153 28.0598 84.7153 27.9094C84.7153 27.7591 84.615 27.6087 84.4647 27.6087C84.2141 27.6087 84.1138 27.8092 84.0637 28.0598H84.4647ZM85.1162 28.8116C84.9659 29.0622 84.7153 29.2626 84.3644 29.2626C83.9134 29.2626 83.6126 28.8617 83.6126 28.4106C83.5625 27.9094 83.9635 27.5085 84.4647 27.5085C84.7654 27.5085 85.0661 27.7591 85.0661 28.0598C85.0661 28.1099 85.0661 28.1099 85.0661 28.16L85.016 28.2101H84.0136C84.0136 28.6111 84.2141 28.9619 84.615 28.9619C84.7654 28.9619 84.9659 28.9118 85.0661 28.7614L85.1162 28.8116Z" fill="#00535D"/>
<path d="M86.6195 27.9101C86.5694 27.7597 86.419 27.6595 86.2186 27.6595C85.8677 27.6595 85.7675 28.0103 85.7675 28.311C85.7675 28.712 85.968 29.0127 86.2687 29.0127C86.3689 29.0127 86.4692 28.9626 86.5694 28.9125L86.6195 27.9101ZM87.0205 29.0127H87.221V29.1129C87.1207 29.1129 87.0205 29.1631 86.9202 29.2132L86.6195 29.3134H86.5694V29.1129C86.419 29.2633 86.2186 29.3635 86.0181 29.3635C85.6171 29.3134 85.3164 28.9626 85.3164 28.5616C85.3164 28.0103 85.7174 27.6093 86.2687 27.5592C86.3689 27.5592 86.4692 27.5592 86.5694 27.6093V26.8074L86.3188 26.7072V26.6571C86.5193 26.6069 86.7699 26.5067 86.9704 26.4065L87.0205 26.4566V29.0127Z" fill="#00535D"/>
<path d="M89.728 28.9117C89.728 29.1122 89.8783 29.1122 90.0788 29.1122H90.1791V29.2124H89.5275C89.2769 29.2124 89.0764 29.2124 88.8258 29.2124V29.1122H88.9261C89.0764 29.1122 89.2769 29.1122 89.2769 28.9117V27.0573L88.7757 27.3079L88.7256 27.2076C88.8759 27.1074 89.0263 27.0573 89.2268 26.9069L89.6779 26.6062H89.7781L89.728 28.9117Z" fill="#00535D"/>
<path d="M91.8799 27.8095C91.7296 28.01 91.5291 28.1102 91.3286 28.1102C90.9778 28.1102 90.6771 27.8095 90.6771 27.4586V27.4085C90.7272 26.9073 91.1282 26.5565 91.5792 26.6066C92.0804 26.6066 92.4814 27.0076 92.4814 27.5088C92.4814 27.5589 92.4814 27.5589 92.4814 27.609C92.4814 28.5112 91.5291 29.1627 90.6771 29.263L90.627 29.1627C91.3788 29.0625 91.9802 28.4109 91.9802 27.609C91.9802 27.3083 91.8799 26.7068 91.479 26.7068C91.1783 26.7068 91.078 26.9073 91.078 27.1579C91.078 27.4085 91.2785 27.8095 91.5792 27.8095C91.6795 27.8095 91.7797 27.7594 91.8799 27.7092V27.8095Z" fill="#00535D"/>
<path d="M93.2353 27.9093C93.2353 28.1098 93.2353 29.1623 93.6863 29.1623C94.1374 29.1623 94.1374 28.1599 94.1374 27.9093C94.1374 27.6587 94.1374 26.7565 93.6863 26.7565C93.2353 26.7565 93.2353 27.6587 93.2353 27.9093ZM94.5885 27.9093C94.5885 28.5609 94.388 29.2625 93.6863 29.2625C92.9847 29.2625 92.7842 28.5107 92.7842 27.9093C92.7842 27.3079 92.9847 26.6062 93.6863 26.6062C94.388 26.6062 94.5885 27.2577 94.5885 27.9093Z" fill="#00535D"/>
<path d="M96.1417 27.809C95.9913 28.0094 95.7908 28.1097 95.5904 28.1097C95.2395 28.1097 94.9388 27.809 94.9388 27.4581V27.408C94.9388 26.9569 95.3899 26.556 95.841 26.6061C96.3422 26.6061 96.7431 27.007 96.7431 27.5584V27.6085C96.7431 28.5106 95.7908 29.1622 94.9388 29.2624L94.8887 29.1622C95.6405 29.062 96.2419 28.4104 96.2419 27.6085C96.2419 27.3078 96.1417 26.7063 95.7407 26.7063C95.4901 26.7063 95.3398 26.9068 95.3398 27.1574C95.3398 27.408 95.5402 27.809 95.841 27.809C95.9412 27.809 96.0414 27.7588 96.1417 27.7087V27.809Z" fill="#00535D"/>
<defs>
<linearGradient id="paint0_linear_632_17188" x1="21.1049" y1="13.8763" x2="21.1049" y2="5.29735" gradientUnits="userSpaceOnUse">
<stop stop-color="white"/>
<stop offset="0.66" stop-color="#00535D"/>
<stop offset="1" stop-color="#00535D"/>
</linearGradient>
</defs>
</svg>
